<svg xmlns="http://www.w3.org/2000/svg" xmlns:xlink="http://www.w3.org/1999/xlink" version="1.1" width="600pt" height="400pt" viewBox="0 0 600 400">
<defs>
<clipPath id="clip_0">
<path transform="matrix(1,0,0,-1,0,400)" d="M0 0H600V400H0Z"/>
</clipPath>
<clipPath id="clip_1">
<path transform="matrix(1,0,0,-1,0,400)" d="M0 0H600V600H0Z"/>
</clipPath>
<clipPath id="clip_2">
<path transform="matrix(1,0,0,-1,0,400)" d="M0 0H600V600H0Z"/>
</clipPath>
<clipPath id="clip_3">
<path transform="matrix(1,0,0,-1,0,400)" d="M51.28 44.21H588.19V388.19H51.28Z"/>
</clipPath>
<clipPath id="clip_4">
<path transform="matrix(1,0,0,-1,0,400)" d="M51.28 44.21H588.19V388.19H51.28Z"/>
</clipPath>
<clipPath id="clip_5">
<path transform="matrix(1,0,0,-1,0,400)" d="M51.28 44.21H588.19V388.19H51.28Z"/>
</clipPath>
<clipPath id="clip_6">
<path transform="matrix(1,0,0,-1,0,400)" d="M51.28 44.21H588.19V388.19H51.28Z"/>
</clipPath>
<clipPath id="clip_7">
<path transform="matrix(1,0,0,-1,0,400)" d="M51.28 44.21H588.19V388.19H51.28Z"/>
</clipPath>
<clipPath id="clip_8">
<path transform="matrix(1,0,0,-1,0,400)" d="M51.28 44.21H588.19V388.19H51.28Z"/>
</clipPath>
<clipPath id="clip_9">
<path transform="matrix(1,0,0,-1,0,400)" d="M51.28 44.21H588.19V388.19H51.28Z"/>
</clipPath>
<clipPath id="clip_10">
<path transform="matrix(1,0,0,-1,0,400)" d="M51.28 44.21H588.19V388.19H51.28Z"/>
</clipPath>
<clipPath id="clip_11">
<path transform="matrix(1,0,0,-1,0,400)" d="M51.28 44.21H588.19V388.19H51.28Z"/>
</clipPath>
<clipPath id="clip_12">
<path transform="matrix(1,0,0,-1,0,400)" d="M51.28 44.21H588.19V388.19H51.28Z"/>
</clipPath>
<clipPath id="clip_13">
<path transform="matrix(1,0,0,-1,0,400)" d="M51.28 44.21H588.19V388.19H51.28Z"/>
</clipPath>
<clipPath id="clip_14">
<path transform="matrix(1,0,0,-1,0,400)" d="M51.28 44.21H588.19V388.19H51.28Z"/>
</clipPath>
<clipPath id="clip_15">
<path transform="matrix(1,0,0,-1,0,400)" d="M51.28 44.21H588.19V388.19H51.28Z"/>
</clipPath>
<clipPath id="clip_16">
<path transform="matrix(1,0,0,-1,0,400)" d="M51.28 44.21H588.19V388.19H51.28Z"/>
</clipPath>
<clipPath id="clip_17">
<path transform="matrix(1,0,0,-1,0,400)" d="M51.28 44.21H588.19V388.19H51.28Z"/>
</clipPath>
<clipPath id="clip_18">
<path transform="matrix(1,0,0,-1,0,400)" d="M51.28 44.21H588.19V388.19H51.28Z"/>
</clipPath>
<clipPath id="clip_19">
<path transform="matrix(1,0,0,-1,0,400)" d="M51.28 44.21H588.19V388.19H51.28Z"/>
</clipPath>
<clipPath id="clip_20">
<path transform="matrix(1,0,0,-1,0,400)" d="M51.28 44.21H588.19V388.19H51.28Z"/>
</clipPath>
<clipPath id="clip_21">
<path transform="matrix(1,0,0,-1,0,400)" d="M51.28 44.21H588.19V388.19H51.28Z"/>
</clipPath>
<clipPath id="clip_22">
<path transform="matrix(1,0,0,-1,0,400)" d="M51.28 44.21H588.19V388.19H51.28Z"/>
</clipPath>
<clipPath id="clip_23">
<path transform="matrix(1,0,0,-1,0,400)" d="M0 0H600V600H0Z"/>
</clipPath>
</defs>
<g clip-path="url(#clip_0)">
<g clip-path="url(#clip_1)">
<path transform="matrix(1,0,0,-1,0,400)" d="M0 0H600V400H0" fill="#ffffff" fill-rule="evenodd"/>
</g>
<g clip-path="url(#clip_2)">
<path transform="matrix(1,0,0,-1,0,400)" d="M51.28 44.21H588.19V388.19H51.28" fill="#ffffff" fill-rule="evenodd"/>
</g>
<path transform="matrix(1,0,0,-1,0,400)" stroke-width="1" stroke-linecap="round" stroke-linejoin="round" fill="none" stroke="#000000" d="M51.28 44.21H588.19"/>
<path transform="matrix(1,0,0,-1,0,400)" stroke-width="1" stroke-linecap="round" stroke-linejoin="round" fill="none" stroke="#000000" d="M100.09 44.21V48.93"/>
<path transform="matrix(1,0,0,-1,0,400)" stroke-width="1" stroke-linecap="round" stroke-linejoin="round" fill="none" stroke="#000000" d="M148.9 44.21V48.93"/>
<path transform="matrix(1,0,0,-1,0,400)" stroke-width="1" stroke-linecap="round" stroke-linejoin="round" fill="none" stroke="#000000" d="M197.71 44.21V48.93"/>
<path transform="matrix(1,0,0,-1,0,400)" stroke-width="1" stroke-linecap="round" stroke-linejoin="round" fill="none" stroke="#000000" d="M246.52 44.21V48.93"/>
<path transform="matrix(1,0,0,-1,0,400)" stroke-width="1" stroke-linecap="round" stroke-linejoin="round" fill="none" stroke="#000000" d="M295.33 44.21V48.93"/>
<path transform="matrix(1,0,0,-1,0,400)" stroke-width="1" stroke-linecap="round" stroke-linejoin="round" fill="none" stroke="#000000" d="M344.14 44.21V48.93"/>
<path transform="matrix(1,0,0,-1,0,400)" stroke-width="1" stroke-linecap="round" stroke-linejoin="round" fill="none" stroke="#000000" d="M392.95 44.21V48.93"/>
<path transform="matrix(1,0,0,-1,0,400)" stroke-width="1" stroke-linecap="round" stroke-linejoin="round" fill="none" stroke="#000000" d="M441.76 44.21V48.93"/>
<path transform="matrix(1,0,0,-1,0,400)" stroke-width="1" stroke-linecap="round" stroke-linejoin="round" fill="none" stroke="#000000" d="M490.57 44.21V48.93"/>
<path transform="matrix(1,0,0,-1,0,400)" stroke-width="1" stroke-linecap="round" stroke-linejoin="round" fill="none" stroke="#000000" d="M539.38 44.21V48.93"/>
<path transform="matrix(1,0,0,-1,0,400)" d="M97.69 29.59H99.6V36.18L97.52 35.76V36.83L99.58 37.25H100.75V29.59H102.66V28.61H97.69V29.59Z"/>
<path transform="matrix(1,0,0,-1,0,400)" d="M147.56 29.59H151.64V28.61H146.16V29.59C146.16 29.59 146.82 30.28 147.97 31.43 147.97 31.43 149.12 32.6 149.42 32.93 149.42 32.93 149.98 33.56 150.2 34 150.2 34 150.42 34.44 150.42 34.86 150.42 34.86 150.42 35.55 149.94 35.98 149.94 35.98 149.46 36.42 148.68 36.42 148.68 36.42 148.13 36.42 147.52 36.23 147.52 36.23 146.91 36.04 146.21 35.65V36.83C146.21 36.83 146.92 37.11 147.53 37.26 147.53 37.26 148.15 37.4 148.66 37.4 148.66 37.4 150 37.4 150.8 36.73 150.8 36.73 151.6 36.06 151.6 34.94 151.6 34.94 151.6 34.4 151.39 33.92 151.39 33.92 151.2 33.45 150.67 32.8 150.67 32.8 150.53 32.63 149.75 31.83 149.75 31.83 148.98 31.03 147.56 29.59Z"/>
<path transform="matrix(1,0,0,-1,0,400)" d="M198.77 33.26C198.77 33.26 199.61 33.08 200.08 32.52 200.08 32.52 200.55 31.95 200.55 31.12 200.55 31.12 200.55 29.84 199.67 29.14 199.67 29.14 198.79 28.44 197.17 28.44 197.17 28.44 196.63 28.44 196.05 28.55 196.05 28.55 195.48 28.65 194.87 28.87V29.99C194.87 29.99 195.35 29.71 195.93 29.57 195.93 29.57 196.51 29.42 197.14 29.42 197.14 29.42 198.24 29.42 198.81 29.86 198.81 29.86 199.39 30.29 199.39 31.12 199.39 31.12 199.39 31.88 198.85 32.31 198.85 32.31 198.32 32.74 197.37 32.74H196.36V33.7H197.41C197.41 33.7 198.27 33.7 198.73 34.04 198.73 34.04 199.19 34.39 199.19 35.04 199.19 35.04 199.19 35.71 198.71 36.06 198.71 36.06 198.25 36.42 197.37 36.42 197.37 36.42 196.89 36.42 196.34 36.31 196.34 36.31 195.79 36.21 195.13 35.99V37.03C195.13 37.03 195.79 37.22 196.37 37.31 196.37 37.31 196.95 37.4 197.47 37.4 197.47 37.4 198.8 37.4 199.58 36.79 199.58 36.79 200.35 36.19 200.35 35.16 200.35 35.16 200.35 34.44 199.94 33.95 199.94 33.95 199.53 33.45 198.77 33.26Z"/>
<path transform="matrix(1,0,0,-1,0,400)" d="M247.27 36.23 244.32 31.61H247.27V36.23M246.97 37.25H248.44V31.61H249.67V30.64H248.44V28.61H247.27V30.64H243.37V31.77L246.97 37.25Z"/>
<path transform="matrix(1,0,0,-1,0,400)" d="M292.9 37.25H297.49V36.26H293.97V34.14C293.97 34.14 294.22 34.23 294.48 34.27 294.48 34.27 294.73 34.32 294.99 34.32 294.99 34.32 296.43 34.32 297.28 33.52 297.28 33.52 298.12 32.73 298.12 31.38 298.12 31.38 298.12 29.98 297.26 29.21 297.26 29.21 296.39 28.44 294.81 28.44 294.81 28.44 294.26 28.44 293.7 28.53 293.7 28.53 293.14 28.62 292.53 28.81V29.98C292.53 29.98 293.06 29.7 293.61 29.56 293.61 29.56 294.17 29.42 294.79 29.42 294.79 29.42 295.79 29.42 296.37 29.95 296.37 29.95 296.96 30.47 296.96 31.38 296.96 31.38 296.96 32.28 296.37 32.81 296.37 32.81 295.79 33.33 294.79 33.33 294.79 33.33 294.32 33.33 293.85 33.23 293.85 33.23 293.39 33.12 292.9 32.9V37.25Z"/>
<path transform="matrix(1,0,0,-1,0,400)" d="M344.24 33.39C344.24 33.39 343.45 33.39 342.99 32.85 342.99 32.85 342.53 32.31 342.53 31.38 342.53 31.38 342.53 30.45 342.99 29.9 342.99 29.9 343.45 29.36 344.24 29.36 344.24 29.36 345.03 29.36 345.49 29.9 345.49 29.9 345.95 30.45 345.95 31.38 345.95 31.38 345.95 32.31 345.49 32.85 345.49 32.85 345.03 33.39 344.24 33.39M346.56 37.05V35.99C346.56 35.99 346.12 36.2 345.67 36.31 345.67 36.31 345.22 36.42 344.78 36.42 344.78 36.42 343.63 36.42 343.01 35.64 343.01 35.64 342.41 34.86 342.32 33.28 342.32 33.28 342.66 33.78 343.18 34.04 343.18 34.04 343.69 34.32 344.31 34.32 344.31 34.32 345.61 34.32 346.36 33.52 346.36 33.52 347.12 32.74 347.12 31.38 347.12 31.38 347.12 30.05 346.34 29.24 346.34 29.24 345.55 28.44 344.24 28.44 344.24 28.44 342.74 28.44 341.95 29.58 341.95 29.58 341.16 30.73 341.16 32.92 341.16 32.92 341.16 34.96 342.13 36.18 342.13 36.18 343.1 37.4 344.74 37.4 344.74 37.4 345.18 37.4 345.62 37.31 345.62 37.31 346.08 37.23 346.56 37.05Z"/>
<path transform="matrix(1,0,0,-1,0,400)" d="M390.17 37.25H395.73V36.75L392.59 28.61H391.37L394.32 36.26H390.17V37.25Z"/>
<path transform="matrix(1,0,0,-1,0,400)" d="M441.76 32.71C441.76 32.71 440.93 32.71 440.45 32.26 440.45 32.26 439.97 31.82 439.97 31.04 439.97 31.04 439.97 30.25 440.45 29.81 440.45 29.81 440.93 29.36 441.76 29.36 441.76 29.36 442.59 29.36 443.07 29.81 443.07 29.81 443.55 30.26 443.55 31.04 443.55 31.04 443.55 31.82 443.07 32.26 443.07 32.26 442.6 32.71 441.76 32.71M440.59 33.21C440.59 33.21 439.84 33.39 439.42 33.91 439.42 33.91 439 34.42 439 35.16 439 35.16 439 36.2 439.73 36.8 439.73 36.8 440.47 37.4 441.76 37.4 441.76 37.4 443.05 37.4 443.78 36.8 443.78 36.8 444.52 36.2 444.52 35.16 444.52 35.16 444.52 34.42 444.1 33.91 444.1 33.91 443.68 33.39 442.93 33.21 442.93 33.21 443.78 33.01 444.25 32.44 444.25 32.44 444.72 31.86 444.72 31.04 444.72 31.04 444.72 29.78 443.95 29.11 443.95 29.11 443.19 28.44 441.76 28.44 441.76 28.44 440.33 28.44 439.56 29.11 439.56 29.11 438.8 29.78 438.8 31.04 438.8 31.04 438.8 31.86 439.27 32.44 439.27 32.44 439.75 33.01 440.59 33.21M440.16 35.05C440.16 35.05 440.16 34.38 440.58 34 440.58 34 441 33.63 441.76 33.63 441.76 33.63 442.51 33.63 442.93 34 442.93 34 443.36 34.38 443.36 35.05 443.36 35.05 443.36 35.72 442.93 36.1 442.93 36.1 442.51 36.48 441.76 36.48 441.76 36.48 441 36.48 440.58 36.1 440.58 36.1 440.16 35.72 440.16 35.05Z"/>
<path transform="matrix(1,0,0,-1,0,400)" d="M488.14 28.78V29.85C488.14 29.85 488.58 29.64 489.04 29.53 489.04 29.53 489.49 29.42 489.92 29.42 489.92 29.42 491.08 29.42 491.69 30.2 491.69 30.2 492.3 30.98 492.39 32.56 492.39 32.56 492.05 32.07 491.54 31.8 491.54 31.8 491.02 31.53 490.4 31.53 490.4 31.53 489.1 31.53 488.34 32.31 488.34 32.31 487.59 33.1 487.59 34.46 487.59 34.46 487.59 35.79 488.38 36.6 488.38 36.6 489.16 37.4 490.47 37.4 490.47 37.4 491.97 37.4 492.76 36.25 492.76 36.25 493.55 35.1 493.55 32.92 493.55 32.92 493.55 30.87 492.58 29.65 492.58 29.65 491.61 28.44 489.97 28.44 489.97 28.44 489.53 28.44 489.08 28.52 489.08 28.52 488.63 28.61 488.14 28.78M490.47 32.45C490.47 32.45 491.26 32.45 491.72 32.99 491.72 32.99 492.18 33.52 492.18 34.46 492.18 34.46 492.18 35.39 491.72 35.93 491.72 35.93 491.26 36.48 490.47 36.48 490.47 36.48 489.68 36.48 489.22 35.93 489.22 35.93 488.76 35.39 488.76 34.46 488.76 34.46 488.76 33.52 489.22 32.99 489.22 32.99 489.68 32.45 490.47 32.45Z"/>
<path transform="matrix(1,0,0,-1,0,400)" d="M533.05 29.59H534.96V36.18L532.88 35.76V36.83L534.95 37.25H536.12V29.59H538.03V28.61H533.05V29.59Z"/>
<path transform="matrix(1,0,0,-1,0,400)" d="M542.89 36.48C542.89 36.48 541.99 36.48 541.53 35.58 541.53 35.58 541.08 34.7 541.08 32.92 541.08 32.92 541.08 31.14 541.53 30.25 541.53 30.25 541.99 29.36 542.89 29.36 542.89 29.36 543.8 29.36 544.25 30.25 544.25 30.25 544.71 31.14 544.71 32.92 544.71 32.92 544.71 34.7 544.25 35.58 544.25 35.58 543.8 36.48 542.89 36.48M542.89 37.4C542.89 37.4 544.34 37.4 545.11 36.25 545.11 36.25 545.88 35.1 545.88 32.92 545.88 32.92 545.88 30.73 545.11 29.58 545.11 29.58 544.34 28.44 542.89 28.44 542.89 28.44 541.44 28.44 540.67 29.58 540.67 29.58 539.9 30.73 539.9 32.92 539.9 32.92 539.9 35.1 540.67 36.25 540.67 36.25 541.44 37.4 542.89 37.4Z"/>
<path transform="matrix(1,0,0,-1,0,400)" d="M269.02 18.55V14.08H271.04C271.04 14.08 272.16 14.08 272.77 14.67 272.77 14.67 273.38 15.25 273.38 16.32 273.38 16.32 273.38 17.39 272.77 17.97 272.77 17.97 272.16 18.55 271.04 18.55H269.02M267.41 19.87H271.04C271.04 19.87 273.03 19.87 274.05 18.96 274.05 18.96 275.08 18.06 275.08 16.32 275.08 16.32 275.08 14.56 274.05 13.66 274.05 13.66 273.03 12.76 271.04 12.76H269.02V7.99H267.41V19.87Z"/>
<path transform="matrix(1,0,0,-1,0,400)" d="M280.49 12.47C280.49 12.47 278.72 12.47 278.03 12.06 278.03 12.06 277.35 11.66 277.35 10.68 277.35 10.68 277.35 9.9 277.86 9.44 277.86 9.44 278.37 8.98 279.26 8.98 279.26 8.98 280.47 8.98 281.21 9.84 281.21 9.84 281.95 10.71 281.95 12.14V12.47H280.49M283.41 13.07V7.99H281.95V9.34C281.95 9.34 281.44 8.53 280.7 8.14 280.7 8.14 279.95 7.76 278.87 7.76 278.87 7.76 277.5 7.76 276.69 8.52 276.69 8.52 275.88 9.29 275.88 10.58 275.88 10.58 275.88 12.09 276.89 12.85 276.89 12.85 277.9 13.61 279.89 13.61H281.95V13.76C281.95 13.76 281.95 14.77 281.28 15.32 281.28 15.32 280.62 15.87 279.42 15.87 279.42 15.87 278.65 15.87 277.93 15.69 277.93 15.69 277.2 15.51 276.54 15.14V16.5C276.54 16.5 277.34 16.81 278.09 16.96 278.09 16.96 278.85 17.12 279.57 17.12 279.57 17.12 281.5 17.12 282.46 16.11 282.46 16.11 283.41 15.11 283.41 13.07Z"/>
<path transform="matrix(1,0,0,-1,0,400)" d="M287.87 19.43V16.9H290.89V15.76H287.87V10.93C287.87 10.93 287.87 9.84 288.17 9.52 288.17 9.52 288.47 9.21 289.39 9.21H290.89V7.99H289.39C289.39 7.99 287.69 7.99 287.05 8.62 287.05 8.62 286.4 9.25 286.4 10.93V15.76H285.33V16.9H286.4V19.43H287.87Z"/>
<path transform="matrix(1,0,0,-1,0,400)" d="M292.82 16.9H294.28V7.99H292.82V16.9M292.82 20.37H294.28V18.52H292.82V20.37Z"/>
<path transform="matrix(1,0,0,-1,0,400)" d="M304.97 12.81V12.09H298.23C298.23 12.09 298.33 10.58 299.14 9.79 299.14 9.79 299.96 9 301.42 9 301.42 9 302.26 9 303.05 9.21 303.05 9.21 303.84 9.41 304.62 9.83V8.44C304.62 8.44 303.84 8.11 303.01 7.93 303.01 7.93 302.18 7.76 301.33 7.76 301.33 7.76 299.2 7.76 297.95 9 297.95 9 296.71 10.24 296.71 12.36 296.71 12.36 296.71 14.55 297.88 15.83 297.88 15.83 299.07 17.12 301.08 17.12 301.08 17.12 302.87 17.12 303.92 15.95 303.92 15.95 304.97 14.8 304.97 12.81M303.5 13.24C303.5 13.24 303.49 14.44 302.83 15.16 302.83 15.16 302.17 15.87 301.09 15.87 301.09 15.87 299.87 15.87 299.13 15.18 299.13 15.18 298.39 14.49 298.28 13.23L303.5 13.24Z"/>
<path transform="matrix(1,0,0,-1,0,400)" d="M314.78 13.37V7.99H313.31V13.32C313.31 13.32 313.31 14.59 312.82 15.21 312.82 15.21 312.33 15.84 311.34 15.84 311.34 15.84 310.15 15.84 309.47 15.09 309.47 15.09 308.79 14.33 308.79 13.03V7.99H307.31V16.9H308.79V15.52C308.79 15.52 309.31 16.32 310.02 16.72 310.02 16.72 310.74 17.12 311.67 17.12 311.67 17.12 313.2 17.12 313.99 16.16 313.99 16.16 314.78 15.21 314.78 13.37Z"/>
<path transform="matrix(1,0,0,-1,0,400)" d="M319.15 19.43V16.9H322.16V15.76H319.15V10.93C319.15 10.93 319.15 9.84 319.44 9.52 319.44 9.52 319.74 9.21 320.66 9.21H322.16V7.99H320.66C320.66 7.99 318.96 7.99 318.32 8.62 318.32 8.62 317.67 9.25 317.67 10.93V15.76H316.6V16.9H317.67V19.43H319.15Z"/>
<path transform="matrix(1,0,0,-1,0,400)" d="M329.33 19.87H330.94V7.99H329.33V19.87Z"/>
<path transform="matrix(1,0,0,-1,0,400)" d="M341.48 13.37V7.99H340.02V13.32C340.02 13.32 340.02 14.59 339.52 15.21 339.52 15.21 339.03 15.84 338.04 15.84 338.04 15.84 336.86 15.84 336.17 15.09 336.17 15.09 335.49 14.33 335.49 13.03V7.99H334.02V16.9H335.49V15.52C335.49 15.52 336.01 16.32 336.72 16.72 336.72 16.72 337.44 17.12 338.37 17.12 338.37 17.12 339.91 17.12 340.69 16.16 340.69 16.16 341.48 15.21 341.48 13.37Z"/>
<path transform="matrix(1,0,0,-1,0,400)" d="M350.27 15.55V20.37H351.73V7.99H350.27V9.33C350.27 9.33 349.8 8.53 349.1 8.14 349.1 8.14 348.4 7.76 347.41 7.76 347.41 7.76 345.79 7.76 344.78 9.05 344.78 9.05 343.77 10.34 343.77 12.44 343.77 12.44 343.77 14.54 344.78 15.83 344.78 15.83 345.79 17.12 347.41 17.12 347.41 17.12 348.4 17.12 349.1 16.73 349.1 16.73 349.8 16.34 350.27 15.55M345.28 12.44C345.28 12.44 345.28 10.82 345.94 9.9 345.94 9.9 346.61 8.98 347.77 8.98 347.77 8.98 348.93 8.98 349.6 9.9 349.6 9.9 350.27 10.82 350.27 12.44 350.27 12.44 350.27 14.05 349.6 14.97 349.6 14.97 348.93 15.89 347.77 15.89 347.77 15.89 346.61 15.89 345.94 14.97 345.94 14.97 345.28 14.05 345.28 12.44Z"/>
<path transform="matrix(1,0,0,-1,0,400)" d="M362.37 12.81V12.09H355.64C355.64 12.09 355.73 10.58 356.54 9.79 356.54 9.79 357.36 9 358.82 9 358.82 9 359.66 9 360.45 9.21 360.45 9.21 361.25 9.41 362.03 9.83V8.44C362.03 8.44 361.24 8.11 360.41 7.93 360.41 7.93 359.58 7.76 358.73 7.76 358.73 7.76 356.6 7.76 355.35 9 355.35 9 354.11 10.24 354.11 12.36 354.11 12.36 354.11 14.55 355.29 15.83 355.29 15.83 356.47 17.12 358.48 17.12 358.48 17.12 360.28 17.12 361.32 15.95 361.32 15.95 362.37 14.8 362.37 12.81M360.9 13.24C360.9 13.24 360.89 14.44 360.23 15.16 360.23 15.16 359.58 15.87 358.49 15.87 358.49 15.87 357.27 15.87 356.53 15.18 356.53 15.18 355.8 14.49 355.68 13.23L360.9 13.24Z"/>
<path transform="matrix(1,0,0,-1,0,400)" d="M371.89 16.9 368.67 12.56 372.06 7.99H370.33L367.74 11.49 365.15 7.99H363.42L366.88 12.65 363.71 16.9H365.44L367.8 13.73 370.17 16.9H371.89Z"/>
<path transform="matrix(1,0,0,-1,0,400)" stroke-width="1" stroke-linecap="round" stroke-linejoin="round" fill="none" stroke="#000000" d="M51.28 44.21V388.19"/>
<path transform="matrix(1,0,0,-1,0,400)" stroke-width="1" stroke-linecap="round" stroke-linejoin="round" fill="none" stroke="#000000" d="M51.28 44.21H56"/>
<path transform="matrix(1,0,0,-1,0,400)" stroke-width="1" stroke-linecap="round" stroke-linejoin="round" fill="none" stroke="#000000" d="M51.28 97.13H56"/>
<path transform="matrix(1,0,0,-1,0,400)" stroke-width="1" stroke-linecap="round" stroke-linejoin="round" fill="none" stroke="#000000" d="M51.28 150.05H56"/>
<path transform="matrix(1,0,0,-1,0,400)" stroke-width="1" stroke-linecap="round" stroke-linejoin="round" fill="none" stroke="#000000" d="M51.28 202.97H56"/>
<path transform="matrix(1,0,0,-1,0,400)" stroke-width="1" stroke-linecap="round" stroke-linejoin="round" fill="none" stroke="#000000" d="M51.28 255.89H56"/>
<path transform="matrix(1,0,0,-1,0,400)" stroke-width="1" stroke-linecap="round" stroke-linejoin="round" fill="none" stroke="#000000" d="M51.28 308.81H56"/>
<path transform="matrix(1,0,0,-1,0,400)" stroke-width="1" stroke-linecap="round" stroke-linejoin="round" fill="none" stroke="#000000" d="M51.28 361.73H56"/>
<path transform="matrix(1,0,0,-1,0,400)" d="M39.29 47.76C39.29 47.76 38.39 47.76 37.93 46.86 37.93 46.86 37.48 45.98 37.48 44.2 37.48 44.2 37.48 42.42 37.93 41.53 37.93 41.53 38.39 40.64 39.29 40.64 39.29 40.64 40.2 40.64 40.65 41.53 40.65 41.53 41.11 42.42 41.11 44.2 41.11 44.2 41.11 45.98 40.65 46.86 40.65 46.86 40.2 47.76 39.29 47.76M39.29 48.68C39.29 48.68 40.75 48.68 41.51 47.53 41.51 47.53 42.28 46.38 42.28 44.2 42.28 44.2 42.28 42.01 41.51 40.86 41.51 40.86 40.75 39.72 39.29 39.72 39.29 39.72 37.84 39.72 37.07 40.86 37.07 40.86 36.31 42.01 36.31 44.2 36.31 44.2 36.31 46.38 37.07 47.53 37.07 47.53 37.84 48.68 39.29 48.68Z"/>
<path transform="matrix(1,0,0,-1,0,400)" d="M29.46 93.79H31.37V100.38L29.29 99.96V101.03L31.35 101.45H32.52V93.79H34.43V92.81H29.46V93.79Z"/>
<path transform="matrix(1,0,0,-1,0,400)" d="M39.29 100.68C39.29 100.68 38.39 100.68 37.93 99.78 37.93 99.78 37.48 98.9 37.48 97.12 37.48 97.12 37.48 95.34 37.93 94.45 37.93 94.45 38.39 93.56 39.29 93.56 39.29 93.56 40.2 93.56 40.65 94.45 40.65 94.45 41.11 95.34 41.11 97.12 41.11 97.12 41.11 98.9 40.65 99.78 40.65 99.78 40.2 100.68 39.29 100.68M39.29 101.6C39.29 101.6 40.75 101.6 41.51 100.45 41.51 100.45 42.28 99.3 42.28 97.12 42.28 97.12 42.28 94.94 41.51 93.78 41.51 93.78 40.75 92.64 39.29 92.64 39.29 92.64 37.84 92.64 37.07 93.78 37.07 93.78 36.31 94.94 36.31 97.12 36.31 97.12 36.31 99.3 37.07 100.45 37.07 100.45 37.84 101.6 39.29 101.6Z"/>
<path transform="matrix(1,0,0,-1,0,400)" d="M30.26 146.71H34.34V145.73H28.85V146.71C28.85 146.71 29.52 147.4 30.67 148.56 30.67 148.56 31.82 149.72 32.11 150.05 32.11 150.05 32.67 150.69 32.89 151.12 32.89 151.12 33.12 151.56 33.12 151.98 33.12 151.98 33.12 152.67 32.63 153.1 32.63 153.1 32.15 153.54 31.38 153.54 31.38 153.54 30.83 153.54 30.21 153.35 30.21 153.35 29.61 153.16 28.91 152.77V153.95C28.91 153.95 29.62 154.23 30.23 154.38 30.23 154.38 30.85 154.52 31.35 154.52 31.35 154.52 32.7 154.52 33.5 153.85 33.5 153.85 34.29 153.18 34.29 152.06 34.29 152.06 34.29 151.52 34.09 151.04 34.09 151.04 33.89 150.57 33.37 149.92 33.37 149.92 33.22 149.75 32.45 148.95 32.45 148.95 31.67 148.15 30.26 146.71Z"/>
<path transform="matrix(1,0,0,-1,0,400)" d="M39.29 153.6C39.29 153.6 38.39 153.6 37.93 152.71 37.93 152.71 37.48 151.82 37.48 150.04 37.48 150.04 37.48 148.26 37.93 147.37 37.93 147.37 38.39 146.48 39.29 146.48 39.29 146.48 40.2 146.48 40.65 147.37 40.65 147.37 41.11 148.26 41.11 150.04 41.11 150.04 41.11 151.82 40.65 152.71 40.65 152.71 40.2 153.6 39.29 153.6M39.29 154.52C39.29 154.52 40.75 154.52 41.51 153.37 41.51 153.37 42.28 152.23 42.28 150.04 42.28 150.04 42.28 147.86 41.51 146.7 41.51 146.7 40.75 145.56 39.29 145.56 39.29 145.56 37.84 145.56 37.07 146.7 37.07 146.7 36.31 147.86 36.31 150.04 36.31 150.04 36.31 152.23 37.07 153.37 37.07 153.37 37.84 154.52 39.29 154.52Z"/>
<path transform="matrix(1,0,0,-1,0,400)" d="M32.8 203.31C32.8 203.31 33.63 203.13 34.1 202.56 34.1 202.56 34.58 201.99 34.58 201.16 34.58 201.16 34.58 199.88 33.7 199.18 33.7 199.18 32.82 198.48 31.2 198.48 31.2 198.48 30.65 198.48 30.08 198.59 30.08 198.59 29.5 198.69 28.89 198.91V200.04C28.89 200.04 29.38 199.75 29.95 199.61 29.95 199.61 30.53 199.46 31.16 199.46 31.16 199.46 32.26 199.46 32.84 199.9 32.84 199.9 33.41 200.33 33.41 201.16 33.41 201.16 33.41 201.92 32.88 202.35 32.88 202.35 32.34 202.78 31.39 202.78H30.38V203.75H31.44C31.44 203.75 32.3 203.75 32.75 204.09 32.75 204.09 33.21 204.43 33.21 205.08 33.21 205.08 33.21 205.75 32.74 206.1 32.74 206.1 32.27 206.46 31.39 206.46 31.39 206.46 30.91 206.46 30.36 206.36 30.36 206.36 29.81 206.25 29.15 206.03V207.07C29.15 207.07 29.82 207.26 30.39 207.35 30.39 207.35 30.98 207.44 31.49 207.44 31.49 207.44 32.82 207.44 33.6 206.84 33.6 206.84 34.38 206.23 34.38 205.2 34.38 205.2 34.38 204.49 33.96 203.99 33.96 203.99 33.55 203.5 32.8 203.31Z"/>
<path transform="matrix(1,0,0,-1,0,400)" d="M39.29 206.52C39.29 206.52 38.39 206.52 37.93 205.63 37.93 205.63 37.48 204.74 37.48 202.96 37.48 202.96 37.48 201.18 37.93 200.29 37.93 200.29 38.39 199.4 39.29 199.4 39.29 199.4 40.2 199.4 40.65 200.29 40.65 200.29 41.11 201.18 41.11 202.96 41.11 202.96 41.11 204.74 40.65 205.63 40.65 205.63 40.2 206.52 39.29 206.52M39.29 207.44C39.29 207.44 40.75 207.44 41.51 206.29 41.51 206.29 42.28 205.15 42.28 202.96 42.28 202.96 42.28 200.78 41.51 199.62 41.51 199.62 40.75 198.48 39.29 198.48 39.29 198.48 37.84 198.48 37.07 199.62 37.07 199.62 36.31 200.78 36.31 202.96 36.31 202.96 36.31 205.15 37.07 206.29 37.07 206.29 37.84 207.44 39.29 207.44Z"/>
<path transform="matrix(1,0,0,-1,0,400)" d="M32.47 259.19 29.51 254.58H32.47V259.19M32.16 260.21H33.63V254.58H34.86V253.6H33.63V251.57H32.47V253.6H28.57V254.73L32.16 260.21Z"/>
<path transform="matrix(1,0,0,-1,0,400)" d="M39.29 259.44C39.29 259.44 38.39 259.44 37.93 258.55 37.93 258.55 37.48 257.66 37.48 255.88 37.48 255.88 37.48 254.1 37.93 253.21 37.93 253.21 38.39 252.33 39.29 252.33 39.29 252.33 40.2 252.33 40.65 253.21 40.65 253.21 41.11 254.1 41.11 255.88 41.11 255.88 41.11 257.66 40.65 258.55 40.65 258.55 40.2 259.44 39.29 259.44M39.29 260.36C39.29 260.36 40.75 260.36 41.51 259.21 41.51 259.21 42.28 258.07 42.28 255.88 42.28 255.88 42.28 253.7 41.51 252.55 41.51 252.55 40.75 251.4 39.29 251.4 39.29 251.4 37.84 251.4 37.07 252.55 37.07 252.55 36.31 253.7 36.31 255.88 36.31 255.88 36.31 258.07 37.07 259.21 37.07 259.21 37.84 260.36 39.29 260.36Z"/>
<path transform="matrix(1,0,0,-1,0,400)" d="M29.27 313.13H33.85V312.14H30.34V310.03C30.34 310.03 30.59 310.11 30.85 310.15 30.85 310.15 31.1 310.2 31.35 310.2 31.35 310.2 32.8 310.2 33.65 309.41 33.65 309.41 34.49 308.61 34.49 307.26 34.49 307.26 34.49 305.87 33.62 305.09 33.62 305.09 32.75 304.32 31.17 304.32 31.17 304.32 30.63 304.32 30.06 304.41 30.06 304.41 29.5 304.51 28.9 304.69V305.87C28.9 305.87 29.42 305.58 29.98 305.44 29.98 305.44 30.53 305.3 31.15 305.3 31.15 305.3 32.15 305.3 32.74 305.83 32.74 305.83 33.32 306.36 33.32 307.26 33.32 307.26 33.32 308.16 32.74 308.69 32.74 308.69 32.15 309.22 31.15 309.22 31.15 309.22 30.68 309.22 30.21 309.11 30.21 309.11 29.75 309.01 29.27 308.79V313.13Z"/>
<path transform="matrix(1,0,0,-1,0,400)" d="M39.29 312.36C39.29 312.36 38.39 312.36 37.93 311.47 37.93 311.47 37.48 310.58 37.48 308.8 37.48 308.8 37.48 307.02 37.93 306.13 37.93 306.13 38.39 305.25 39.29 305.25 39.29 305.25 40.2 305.25 40.65 306.13 40.65 306.13 41.11 307.02 41.11 308.8 41.11 308.8 41.11 310.58 40.65 311.47 40.65 311.47 40.2 312.36 39.29 312.36M39.29 313.28C39.29 313.28 40.75 313.28 41.51 312.13 41.51 312.13 42.28 310.99 42.28 308.8 42.28 308.8 42.28 306.62 41.51 305.47 41.51 305.47 40.75 304.32 39.29 304.32 39.29 304.32 37.84 304.32 37.07 305.47 37.07 305.47 36.31 306.62 36.31 308.8 36.31 308.8 36.31 310.99 37.07 312.13 37.07 312.13 37.84 313.28 39.29 313.28Z"/>
<path transform="matrix(1,0,0,-1,0,400)" d="M31.9 362.19C31.9 362.19 31.11 362.19 30.65 361.66 30.65 361.66 30.19 361.12 30.19 360.18 30.19 360.18 30.19 359.25 30.65 358.7 30.65 358.7 31.11 358.17 31.9 358.17 31.9 358.17 32.69 358.17 33.14 358.7 33.14 358.7 33.61 359.25 33.61 360.18 33.61 360.18 33.61 361.12 33.14 361.66 33.14 361.66 32.69 362.19 31.9 362.19M34.22 365.86V364.79C34.22 364.79 33.78 365 33.33 365.11 33.33 365.11 32.88 365.22 32.44 365.22 32.44 365.22 31.28 365.22 30.67 364.44 30.67 364.44 30.06 363.66 29.98 362.08 29.98 362.08 30.32 362.58 30.83 362.85 30.83 362.85 31.35 363.12 31.97 363.12 31.97 363.12 33.27 363.12 34.02 362.33 34.02 362.33 34.78 361.54 34.78 360.18 34.78 360.18 34.78 358.85 33.99 358.05 33.99 358.05 33.21 357.24 31.9 357.24 31.9 357.24 30.4 357.24 29.61 358.39 29.61 358.39 28.81 359.54 28.81 361.72 28.81 361.72 28.81 363.77 29.79 364.98 29.79 364.98 30.76 366.2 32.4 366.2 32.4 366.2 32.84 366.2 33.28 366.12 33.28 366.12 33.73 366.03 34.22 365.86Z"/>
<path transform="matrix(1,0,0,-1,0,400)" d="M39.29 365.28C39.29 365.28 38.39 365.28 37.93 364.39 37.93 364.39 37.48 363.5 37.48 361.72 37.48 361.72 37.48 359.94 37.93 359.05 37.93 359.05 38.39 358.17 39.29 358.17 39.29 358.17 40.2 358.17 40.65 359.05 40.65 359.05 41.11 359.94 41.11 361.72 41.11 361.72 41.11 363.5 40.65 364.39 40.65 364.39 40.2 365.28 39.29 365.28M39.29 366.2C39.29 366.2 40.75 366.2 41.51 365.05 41.51 365.05 42.28 363.91 42.28 361.72 42.28 361.72 42.28 359.54 41.51 358.39 41.51 358.39 40.75 357.24 39.29 357.24 39.29 357.24 37.84 357.24 37.07 358.39 37.07 358.39 36.31 359.54 36.31 361.72 36.31 361.72 36.31 363.91 37.07 365.05 37.07 365.05 37.84 366.2 39.29 366.2Z"/>
<path transform="matrix(1,0,0,-1,0,400)" d="M5.7 173.19 11.62 171.01V175.38L5.7 173.19M4.12 172.29V174.11L16 178.64V176.96L12.95 175.88V170.53L16 169.44V167.75L4.12 172.29Z"/>
<path transform="matrix(1,0,0,-1,0,400)" d="M3.62 180.31V181.77H16V180.31H3.62Z"/>
<path transform="matrix(1,0,0,-1,0,400)" d="M14.66 186.25H19.39V184.78H7.09V186.25H8.44C8.44 186.25 7.65 186.71 7.26 187.41 7.26 187.41 6.87 188.12 6.87 189.1 6.87 189.1 6.87 190.72 8.16 191.73 8.16 191.73 9.45 192.75 11.55 192.75 11.55 192.75 13.65 192.75 14.94 191.73 14.94 191.73 16.23 190.72 16.23 189.1 16.23 189.1 16.23 188.12 15.85 187.41 15.85 187.41 15.46 186.71 14.66 186.25M11.55 191.23C11.55 191.23 9.94 191.23 9.02 190.56 9.02 190.56 8.1 189.9 8.1 188.74 8.1 188.74 8.1 187.58 9.02 186.91 9.02 186.91 9.94 186.25 11.55 186.25 11.55 186.25 13.17 186.25 14.09 186.91 14.09 186.91 15.01 187.58 15.01 188.74 15.01 188.74 15.01 189.9 14.09 190.56 14.09 190.56 13.17 191.23 11.55 191.23Z"/>
<path transform="matrix(1,0,0,-1,0,400)" d="M10.62 202.59H16V201.12H10.67C10.67 201.12 9.4 201.12 8.78 200.63 8.78 200.63 8.15 200.14 8.15 199.15 8.15 199.15 8.15 197.96 8.9 197.28 8.9 197.28 9.66 196.59 10.96 196.59H16V195.12H3.62V196.59H8.47C8.47 196.59 7.67 197.12 7.27 197.83 7.27 197.83 6.87 198.54 6.87 199.48 6.87 199.48 6.87 201.01 7.83 201.8 7.83 201.8 8.78 202.59 10.62 202.59Z"/>
<path transform="matrix(1,0,0,-1,0,400)" d="M11.52 209.56C11.52 209.56 11.52 207.78 11.93 207.1 11.93 207.1 12.33 206.41 13.31 206.41 13.31 206.41 14.09 206.41 14.55 206.92 14.55 206.92 15.01 207.44 15.01 208.32 15.01 208.32 15.01 209.54 14.15 210.27 14.15 210.27 13.28 211.01 11.85 211.01H11.52V209.56M10.92 212.48H16V211.01H14.65C14.65 211.01 15.46 210.51 15.85 209.76 15.85 209.76 16.23 209.02 16.23 207.93 16.23 207.93 16.23 206.56 15.47 205.75 15.47 205.75 14.7 204.95 13.41 204.95 13.41 204.95 11.9 204.95 11.14 205.95 11.14 205.95 10.38 206.96 10.38 208.96V211.01H10.23C10.23 211.01 9.22 211.01 8.67 210.34 8.67 210.34 8.12 209.68 8.12 208.48 8.12 208.48 8.12 207.72 8.3 206.99 8.3 206.99 8.48 206.27 8.85 205.6H7.49C7.49 205.6 7.18 206.41 7.03 207.16 7.03 207.16 6.87 207.92 6.87 208.63 6.87 208.63 6.87 210.57 7.88 211.52 7.88 211.52 8.88 212.48 10.92 212.48Z"/>
<path transform="matrix(1,0,0,-1,0,400)" d="M5.7 224.71 11.62 222.53V226.9L5.7 224.71M4.12 223.8V225.62L16 230.15V228.48L12.95 227.4V222.04L16 220.96V219.26L4.12 223.8Z"/>
<path transform="matrix(1,0,0,-1,0,400)" d="M10.62 239.23H16V237.76H10.67C10.67 237.76 9.4 237.76 8.78 237.27 8.78 237.27 8.15 236.78 8.15 235.79 8.15 235.79 8.15 234.61 8.9 233.92 8.9 233.92 9.66 233.24 10.96 233.24H16V231.77H7.09V233.24H8.47C8.47 233.24 7.67 233.76 7.27 234.47 7.27 234.47 6.87 235.19 6.87 236.12 6.87 236.12 6.87 237.65 7.83 238.44 7.83 238.44 8.78 239.23 10.62 239.23Z"/>
<path transform="matrix(1,0,0,-1,0,400)" d="M11.44 248.01C11.44 248.01 9.85 248.01 8.97 247.35 8.97 247.35 8.1 246.7 8.1 245.52 8.1 245.52 8.1 244.34 8.97 243.68 8.97 243.68 9.85 243.02 11.44 243.02 11.44 243.02 13.03 243.02 13.9 243.68 13.9 243.68 14.78 244.34 14.78 245.52 14.78 245.52 14.78 246.7 13.9 247.35 13.9 247.35 13.03 248.01 11.44 248.01M14.89 249.48C14.89 249.48 17.17 249.48 18.28 248.47 18.28 248.47 19.39 247.46 19.39 245.37 19.39 245.37 19.39 244.6 19.27 243.92 19.27 243.92 19.16 243.23 18.92 242.59H17.5C17.5 242.59 17.85 243.23 18.01 243.86 18.01 243.86 18.18 244.49 18.18 245.14 18.18 245.14 18.18 246.58 17.43 247.3 17.43 247.3 16.68 248.01 15.16 248.01H14.43C14.43 248.01 15.22 247.56 15.61 246.85 15.61 246.85 16 246.14 16 245.16 16 245.16 16 243.52 14.75 242.52 14.75 242.52 13.5 241.51 11.44 241.51 11.44 241.51 9.37 241.51 8.12 242.52 8.12 242.52 6.87 243.52 6.87 245.16 6.87 245.16 6.87 246.14 7.26 246.85 7.26 246.85 7.65 247.56 8.44 248.01H7.09V249.48H14.89Z"/>
<path transform="matrix(1,0,0,-1,0,400)" d="M3.62 252.49V253.96H16V252.49H3.62Z"/>
<path transform="matrix(1,0,0,-1,0,400)" d="M11.18 264.64H11.9V257.91C11.9 257.91 13.41 258.01 14.2 258.82 14.2 258.82 14.99 259.64 14.99 261.1 14.99 261.1 14.99 261.94 14.78 262.73 14.78 262.73 14.58 263.52 14.16 264.3H15.55C15.55 264.3 15.88 263.51 16.06 262.69 16.06 262.69 16.23 261.86 16.23 261.01 16.23 261.01 16.23 258.88 14.99 257.63 14.99 257.63 13.75 256.38 11.63 256.38 11.63 256.38 9.44 256.38 8.16 257.56 8.16 257.56 6.87 258.75 6.87 260.75 6.87 260.75 6.87 262.55 8.04 263.59 8.04 263.59 9.19 264.64 11.18 264.64M10.75 263.18C10.75 263.18 9.55 263.16 8.83 262.5 8.83 262.5 8.12 261.85 8.12 260.77 8.12 260.77 8.12 259.54 8.81 258.8 8.81 258.8 9.5 258.07 10.76 257.96L10.75 263.18Z"/>
<g clip-path="url(#clip_3)">
<path transform="matrix(1,0,0,-1,0,400)" d="M83.74 237.37V44.21H100.09V237.37H83.74" fill="#1b1b1b" fill-rule="evenodd"/>
</g>
<path transform="matrix(1,0,0,-1,0,400)" stroke-width="0" stroke-linecap="round" stroke-linejoin="round" fill="none" stroke="#000000" d="M83.74 237.37V44.21H100.09V237.37H83.74"/>
<g clip-path="url(#clip_4)">
<path transform="matrix(1,0,0,-1,0,400)" d="M132.55 311.45V44.21H148.9V311.45H132.55" fill="#1b1b1b" fill-rule="evenodd"/>
</g>
<path transform="matrix(1,0,0,-1,0,400)" stroke-width="0" stroke-linecap="round" stroke-linejoin="round" fill="none" stroke="#000000" d="M132.55 311.45V44.21H148.9V311.45H132.55"/>
<g clip-path="url(#clip_5)">
<path transform="matrix(1,0,0,-1,0,400)" d="M181.36 263.83V44.21H197.71V263.83H181.36" fill="#1b1b1b" fill-rule="evenodd"/>
</g>
<path transform="matrix(1,0,0,-1,0,400)" stroke-width="0" stroke-linecap="round" stroke-linejoin="round" fill="none" stroke="#000000" d="M181.36 263.83V44.21H197.71V263.83H181.36"/>
<g clip-path="url(#clip_6)">
<path transform="matrix(1,0,0,-1,0,400)" d="M230.17 303.52V44.21H246.52V303.52H230.17" fill="#1b1b1b" fill-rule="evenodd"/>
</g>
<path transform="matrix(1,0,0,-1,0,400)" stroke-width="0" stroke-linecap="round" stroke-linejoin="round" fill="none" stroke="#000000" d="M230.17 303.52V44.21H246.52V303.52H230.17"/>
<g clip-path="url(#clip_7)">
<path transform="matrix(1,0,0,-1,0,400)" d="M278.98 361.73V44.21H295.33V361.73H278.98" fill="#1b1b1b" fill-rule="evenodd"/>
</g>
<path transform="matrix(1,0,0,-1,0,400)" stroke-width="0" stroke-linecap="round" stroke-linejoin="round" fill="none" stroke="#000000" d="M278.98 361.73V44.21H295.33V361.73H278.98"/>
<g clip-path="url(#clip_8)">
<path transform="matrix(1,0,0,-1,0,400)" d="M327.79 279.7V44.21H344.14V279.7H327.79" fill="#1b1b1b" fill-rule="evenodd"/>
</g>
<path transform="matrix(1,0,0,-1,0,400)" stroke-width="0" stroke-linecap="round" stroke-linejoin="round" fill="none" stroke="#000000" d="M327.79 279.7V44.21H344.14V279.7H327.79"/>
<g clip-path="url(#clip_9)">
<path transform="matrix(1,0,0,-1,0,400)" d="M376.6 295.58V44.21H392.95V295.58H376.6" fill="#1b1b1b" fill-rule="evenodd"/>
</g>
<path transform="matrix(1,0,0,-1,0,400)" stroke-width="0" stroke-linecap="round" stroke-linejoin="round" fill="none" stroke="#000000" d="M376.6 295.58V44.21H392.95V295.58H376.6"/>
<g clip-path="url(#clip_10)">
<path transform="matrix(1,0,0,-1,0,400)" d="M425.41 290.29V44.21H441.76V290.29H425.41" fill="#1b1b1b" fill-rule="evenodd"/>
</g>
<path transform="matrix(1,0,0,-1,0,400)" stroke-width="0" stroke-linecap="round" stroke-linejoin="round" fill="none" stroke="#000000" d="M425.41 290.29V44.21H441.76V290.29H425.41"/>
<g clip-path="url(#clip_11)">
<path transform="matrix(1,0,0,-1,0,400)" d="M474.22 274.41V44.21H490.57V274.41H474.22" fill="#1b1b1b" fill-rule="evenodd"/>
</g>
<path transform="matrix(1,0,0,-1,0,400)" stroke-width="0" stroke-linecap="round" stroke-linejoin="round" fill="none" stroke="#000000" d="M474.22 274.41V44.21H490.57V274.41H474.22"/>
<g clip-path="url(#clip_12)">
<path transform="matrix(1,0,0,-1,0,400)" d="M523.03 322.04V44.21H539.38V322.04H523.03" fill="#1b1b1b" fill-rule="evenodd"/>
</g>
<path transform="matrix(1,0,0,-1,0,400)" stroke-width="0" stroke-linecap="round" stroke-linejoin="round" fill="none" stroke="#000000" d="M523.03 322.04V44.21H539.38V322.04H523.03"/>
<path transform="matrix(1,0,0,-1,0,400)" stroke-width=".8" stroke-linecap="round" stroke-linejoin="round" fill="none" stroke="#1b1b1b" stroke-opacity="0" d="M91.91 237.37V237.37"/>
<path transform="matrix(1,0,0,-1,0,400)" stroke-width=".8" stroke-linecap="round" stroke-linejoin="round" fill="none" stroke="#1b1b1b" stroke-opacity="0" d="M140.72 311.45V311.45"/>
<path transform="matrix(1,0,0,-1,0,400)" stroke-width=".8" stroke-linecap="round" stroke-linejoin="round" fill="none" stroke="#1b1b1b" stroke-opacity="0" d="M189.53 263.83V263.83"/>
<path transform="matrix(1,0,0,-1,0,400)" stroke-width=".8" stroke-linecap="round" stroke-linejoin="round" fill="none" stroke="#1b1b1b" stroke-opacity="0" d="M238.34 303.52V303.52"/>
<path transform="matrix(1,0,0,-1,0,400)" stroke-width=".8" stroke-linecap="round" stroke-linejoin="round" fill="none" stroke="#1b1b1b" stroke-opacity="0" d="M287.15 361.73V361.73"/>
<path transform="matrix(1,0,0,-1,0,400)" stroke-width=".8" stroke-linecap="round" stroke-linejoin="round" fill="none" stroke="#1b1b1b" stroke-opacity="0" d="M335.96 279.7V279.7"/>
<path transform="matrix(1,0,0,-1,0,400)" stroke-width=".8" stroke-linecap="round" stroke-linejoin="round" fill="none" stroke="#1b1b1b" stroke-opacity="0" d="M384.77 295.58V295.58"/>
<path transform="matrix(1,0,0,-1,0,400)" stroke-width=".8" stroke-linecap="round" stroke-linejoin="round" fill="none" stroke="#1b1b1b" stroke-opacity="0" d="M433.58 290.29V290.29"/>
<path transform="matrix(1,0,0,-1,0,400)" stroke-width=".8" stroke-linecap="round" stroke-linejoin="round" fill="none" stroke="#1b1b1b" stroke-opacity="0" d="M482.39 274.41V274.41"/>
<path transform="matrix(1,0,0,-1,0,400)" stroke-width=".8" stroke-linecap="round" stroke-linejoin="round" fill="none" stroke="#1b1b1b" stroke-opacity="0" d="M531.2 322.04V322.04"/>
<g clip-path="url(#clip_13)">
<path transform="matrix(1,0,0,-1,0,400)" d="M100.09 311.91V44.21H116.44V311.91H100.09" fill="#a2a2a2" fill-rule="evenodd"/>
</g>
<path transform="matrix(1,0,0,-1,0,400)" stroke-width="0" stroke-linecap="round" stroke-linejoin="round" fill="none" stroke="#000000" d="M100.09 311.91V44.21H116.44V311.91H100.09"/>
<g clip-path="url(#clip_14)">
<path transform="matrix(1,0,0,-1,0,400)" d="M148.9 289.94V44.21H165.25V289.94H148.9" fill="#a2a2a2" fill-rule="evenodd"/>
</g>
<path transform="matrix(1,0,0,-1,0,400)" stroke-width="0" stroke-linecap="round" stroke-linejoin="round" fill="none" stroke="#000000" d="M148.9 289.94V44.21H165.25V289.94H148.9"/>
<g clip-path="url(#clip_15)">
<path transform="matrix(1,0,0,-1,0,400)" d="M197.71 311.46V44.21H214.06V311.46H197.71" fill="#a2a2a2" fill-rule="evenodd"/>
</g>
<path transform="matrix(1,0,0,-1,0,400)" stroke-width="0" stroke-linecap="round" stroke-linejoin="round" fill="none" stroke="#000000" d="M197.71 311.46V44.21H214.06V311.46H197.71"/>
<g clip-path="url(#clip_16)">
<path transform="matrix(1,0,0,-1,0,400)" d="M246.52 288.5V44.21H262.87V288.5H246.52" fill="#a2a2a2" fill-rule="evenodd"/>
</g>
<path transform="matrix(1,0,0,-1,0,400)" stroke-width="0" stroke-linecap="round" stroke-linejoin="round" fill="none" stroke="#000000" d="M246.52 288.5V44.21H262.87V288.5H246.52"/>
<g clip-path="url(#clip_17)">
<path transform="matrix(1,0,0,-1,0,400)" d="M295.33 326.56V44.21H311.68V326.56H295.33" fill="#a2a2a2" fill-rule="evenodd"/>
</g>
<path transform="matrix(1,0,0,-1,0,400)" stroke-width="0" stroke-linecap="round" stroke-linejoin="round" fill="none" stroke="#000000" d="M295.33 326.56V44.21H311.68V326.56H295.33"/>
<g clip-path="url(#clip_18)">
<path transform="matrix(1,0,0,-1,0,400)" d="M344.14 323.21V44.21H360.49V323.21H344.14" fill="#a2a2a2" fill-rule="evenodd"/>
</g>
<path transform="matrix(1,0,0,-1,0,400)" stroke-width="0" stroke-linecap="round" stroke-linejoin="round" fill="none" stroke="#000000" d="M344.14 323.21V44.21H360.49V323.21H344.14"/>
<g clip-path="url(#clip_19)">
<path transform="matrix(1,0,0,-1,0,400)" d="M392.95 315.99V44.21H409.3V315.99H392.95" fill="#a2a2a2" fill-rule="evenodd"/>
</g>
<path transform="matrix(1,0,0,-1,0,400)" stroke-width="0" stroke-linecap="round" stroke-linejoin="round" fill="none" stroke="#000000" d="M392.95 315.99V44.21H409.3V315.99H392.95"/>
<g clip-path="url(#clip_20)">
<path transform="matrix(1,0,0,-1,0,400)" d="M441.76 319.67V44.21H458.11V319.67H441.76" fill="#a2a2a2" fill-rule="evenodd"/>
</g>
<path transform="matrix(1,0,0,-1,0,400)" stroke-width="0" stroke-linecap="round" stroke-linejoin="round" fill="none" stroke="#000000" d="M441.76 319.67V44.21H458.11V319.67H441.76"/>
<g clip-path="url(#clip_21)">
<path transform="matrix(1,0,0,-1,0,400)" d="M490.57 302.74V44.21H506.92V302.74H490.57" fill="#a2a2a2" fill-rule="evenodd"/>
</g>
<path transform="matrix(1,0,0,-1,0,400)" stroke-width="0" stroke-linecap="round" stroke-linejoin="round" fill="none" stroke="#000000" d="M490.57 302.74V44.21H506.92V302.74H490.57"/>
<g clip-path="url(#clip_22)">
<path transform="matrix(1,0,0,-1,0,400)" d="M539.38 331.28V44.21H555.73V331.28H539.38" fill="#a2a2a2" fill-rule="evenodd"/>
</g>
<path transform="matrix(1,0,0,-1,0,400)" stroke-width="0" stroke-linecap="round" stroke-linejoin="round" fill="none" stroke="#000000" d="M539.38 331.28V44.21H555.73V331.28H539.38"/>
<path transform="matrix(1,0,0,-1,0,400)" stroke-width=".8" stroke-linecap="round" stroke-linejoin="round" fill="none" stroke="#a2a2a2" stroke-opacity="0" d="M108.27 311.91V311.91"/>
<path transform="matrix(1,0,0,-1,0,400)" stroke-width=".8" stroke-linecap="round" stroke-linejoin="round" fill="none" stroke="#a2a2a2" stroke-opacity="0" d="M157.08 289.94V289.94"/>
<path transform="matrix(1,0,0,-1,0,400)" stroke-width=".8" stroke-linecap="round" stroke-linejoin="round" fill="none" stroke="#a2a2a2" stroke-opacity="0" d="M205.89 311.46V311.46"/>
<path transform="matrix(1,0,0,-1,0,400)" stroke-width=".8" stroke-linecap="round" stroke-linejoin="round" fill="none" stroke="#a2a2a2" stroke-opacity="0" d="M254.7 288.5V288.5"/>
<path transform="matrix(1,0,0,-1,0,400)" stroke-width=".8" stroke-linecap="round" stroke-linejoin="round" fill="none" stroke="#a2a2a2" stroke-opacity="0" d="M303.51 326.56V326.56"/>
<path transform="matrix(1,0,0,-1,0,400)" stroke-width=".8" stroke-linecap="round" stroke-linejoin="round" fill="none" stroke="#a2a2a2" stroke-opacity="0" d="M352.32 323.21V323.21"/>
<path transform="matrix(1,0,0,-1,0,400)" stroke-width=".8" stroke-linecap="round" stroke-linejoin="round" fill="none" stroke="#a2a2a2" stroke-opacity="0" d="M401.13 315.99V315.99"/>
<path transform="matrix(1,0,0,-1,0,400)" stroke-width=".8" stroke-linecap="round" stroke-linejoin="round" fill="none" stroke="#a2a2a2" stroke-opacity="0" d="M449.93 319.67V319.67"/>
<path transform="matrix(1,0,0,-1,0,400)" stroke-width=".8" stroke-linecap="round" stroke-linejoin="round" fill="none" stroke="#a2a2a2" stroke-opacity="0" d="M498.74 302.74V302.74"/>
<path transform="matrix(1,0,0,-1,0,400)" stroke-width=".8" stroke-linecap="round" stroke-linejoin="round" fill="none" stroke="#a2a2a2" stroke-opacity="0" d="M547.55 331.28V331.28"/>
<g clip-path="url(#clip_23)">
<path transform="matrix(1,0,0,-1,0,400)" d="M458.57 337.84H570.29V376.72H458.57" fill="#ffffff" fill-rule="evenodd"/>
</g>
<path transform="matrix(1,0,0,-1,0,400)" stroke-width="1" stroke-linecap="round" stroke-linejoin="round" fill="none" stroke="#000000" stroke-opacity="0" d="M458.57 337.84H570.29V376.72H458.57V337.84"/>
<path transform="matrix(1,0,0,-1,0,400)" d="M482.43 368.88C479.6 368.88 477.31 366.59 477.31 363.76 477.31 360.94 479.6 358.64 482.43 358.64 485.26 358.64 487.55 360.94 487.55 363.76 487.55 366.59 485.26 368.88 482.43 368.88" fill="#1b1b1b" fill-rule="evenodd"/>
<path transform="matrix(1,0,0,-1,0,400)" d="M511.86 367.8V366.66C511.86 366.66 511.19 366.98 510.6 367.13 510.6 367.13 510.01 367.29 509.46 367.29 509.46 367.29 508.5 367.29 507.98 366.92 507.98 366.92 507.47 366.55 507.47 365.87 507.47 365.87 507.47 365.29 507.81 365 507.81 365 508.16 364.71 509.12 364.53L509.82 364.38C509.82 364.38 511.13 364.14 511.75 363.51 511.75 363.51 512.38 362.88 512.38 361.83 512.38 361.83 512.38 360.57 511.53 359.92 511.53 359.92 510.69 359.28 509.07 359.28 509.07 359.28 508.45 359.28 507.76 359.41 507.76 359.41 507.07 359.55 506.33 359.82V361.03C506.33 361.03 507.04 360.63 507.72 360.43 507.72 360.43 508.41 360.22 509.07 360.22 509.07 360.22 510.07 360.22 510.61 360.62 510.61 360.62 511.16 361.01 511.16 361.74 511.16 361.74 511.16 362.38 510.76 362.74 510.76 362.74 510.37 363.09 509.48 363.27L508.77 363.41C508.77 363.41 507.46 363.67 506.88 364.23 506.88 364.23 506.29 364.78 506.29 365.77 506.29 365.77 506.29 366.92 507.1 367.58 507.1 367.58 507.91 368.24 509.33 368.24 509.33 368.24 509.93 368.24 510.57 368.13 510.57 368.13 511.2 368.02 511.86 367.8Z"/>
<path transform="matrix(1,0,0,-1,0,400)" d="M514.15 365.92H515.22V359.44H514.15V365.92M514.15 368.45H515.22V367.1H514.15V368.45Z"/>
<path transform="matrix(1,0,0,-1,0,400)" d="M522.49 364.68C522.49 364.68 522.89 365.4 523.45 365.74 523.45 365.74 524 366.08 524.75 366.08 524.75 366.08 525.77 366.08 526.32 365.37 526.32 365.37 526.87 364.66 526.87 363.35V359.44H525.8V363.32C525.8 363.32 525.8 364.25 525.47 364.7 525.47 364.7 525.14 365.15 524.46 365.15 524.46 365.15 523.63 365.15 523.15 364.6 523.15 364.6 522.67 364.06 522.67 363.11V359.44H521.6V363.32C521.6 363.32 521.6 364.26 521.27 364.7 521.27 364.7 520.94 365.15 520.25 365.15 520.25 365.15 519.44 365.15 518.96 364.6 518.96 364.6 518.48 364.05 518.48 363.11V359.44H517.41V365.92H518.48V364.92C518.48 364.92 518.84 365.51 519.35 365.8 519.35 365.8 519.86 366.08 520.56 366.08 520.56 366.08 521.27 366.08 521.76 365.72 521.76 365.72 522.25 365.36 522.49 364.68Z"/>
<path transform="matrix(1,0,0,-1,0,400)" d="M528.88 362V365.92H529.95V362.04C529.95 362.04 529.95 361.12 530.3 360.66 530.3 360.66 530.66 360.2 531.38 360.2 531.38 360.2 532.24 360.2 532.74 360.75 532.74 360.75 533.24 361.3 533.24 362.25V365.92H534.31V359.44H533.24V360.44C533.24 360.44 532.86 359.85 532.34 359.56 532.34 359.56 531.83 359.28 531.16 359.28 531.16 359.28 530.04 359.28 529.46 359.97 529.46 359.97 528.88 360.66 528.88 362M531.56 366.08V366.08Z"/>
<path transform="matrix(1,0,0,-1,0,400)" d="M536.5 368.45H537.57V359.44H536.5V368.45Z"/>
<path transform="matrix(1,0,0,-1,0,400)" d="M542.74 362.7C542.74 362.7 541.45 362.7 540.95 362.41 540.95 362.41 540.45 362.11 540.45 361.4 540.45 361.4 540.45 360.83 540.83 360.5 540.83 360.5 541.2 360.17 541.84 360.17 541.84 360.17 542.73 360.17 543.26 360.79 543.26 360.79 543.8 361.42 543.8 362.46V362.7H542.74M544.86 363.14V359.44H543.8V360.43C543.8 360.43 543.44 359.84 542.89 359.55 542.89 359.55 542.35 359.28 541.56 359.28 541.56 359.28 540.56 359.28 539.97 359.83 539.97 359.83 539.39 360.39 539.39 361.33 539.39 361.33 539.39 362.42 540.12 362.98 540.12 362.98 540.85 363.53 542.31 363.53H543.8V363.64C543.8 363.64 543.8 364.37 543.31 364.77 543.31 364.77 542.83 365.18 541.96 365.18 541.96 365.18 541.4 365.18 540.88 365.04 540.88 365.04 540.35 364.91 539.86 364.65V365.63C539.86 365.63 540.45 365.85 541 365.96 541 365.96 541.55 366.08 542.07 366.08 542.07 366.08 543.48 366.08 544.17 365.35 544.17 365.35 544.86 364.62 544.86 363.14Z"/>
<path transform="matrix(1,0,0,-1,0,400)" d="M548.11 367.76V365.92H550.3V365.1H548.11V361.58C548.11 361.58 548.11 360.79 548.33 360.56 548.33 360.56 548.55 360.33 549.21 360.33H550.3V359.44H549.21C549.21 359.44 547.98 359.44 547.51 359.9 547.51 359.9 547.04 360.36 547.04 361.58V365.1H546.26V365.92H547.04V367.76H548.11Z"/>
<path transform="matrix(1,0,0,-1,0,400)" d="M557.25 362.95V362.43H552.35C552.35 362.43 552.42 361.33 553.01 360.75 553.01 360.75 553.61 360.18 554.67 360.18 554.67 360.18 555.28 360.18 555.85 360.33 555.85 360.33 556.43 360.48 557 360.78V359.77C557 359.77 556.43 359.53 555.83 359.4 555.83 359.4 555.22 359.28 554.6 359.28 554.6 359.28 553.05 359.28 552.14 360.18 552.14 360.18 551.24 361.08 551.24 362.62 551.24 362.62 551.24 364.21 552.1 365.14 552.1 365.14 552.96 366.08 554.42 366.08 554.42 366.08 555.73 366.08 556.48 365.24 556.48 365.24 557.25 364.4 557.25 362.95M556.18 363.26C556.18 363.26 556.17 364.14 555.69 364.66 555.69 364.66 555.22 365.18 554.43 365.18 554.43 365.18 553.54 365.18 553 364.67 553 364.67 552.47 364.17 552.39 363.26H556.18Z"/>
<path transform="matrix(1,0,0,-1,0,400)" d="M563.26 364.94V368.45H564.33V359.44H563.26V360.42C563.26 360.42 562.93 359.84 562.41 359.55 562.41 359.55 561.9 359.28 561.18 359.28 561.18 359.28 560.01 359.28 559.27 360.21 559.27 360.21 558.53 361.15 558.53 362.68 558.53 362.68 558.53 364.21 559.27 365.14 559.27 365.14 560.01 366.08 561.18 366.08 561.18 366.08 561.9 366.08 562.41 365.8 562.41 365.8 562.93 365.52 563.26 364.94M559.63 362.68C559.63 362.68 559.63 361.5 560.11 360.83 560.11 360.83 560.6 360.17 561.44 360.17 561.44 360.17 562.29 360.17 562.78 360.83 562.78 360.83 563.26 361.5 563.26 362.68 563.26 362.68 563.26 363.85 562.78 364.52 562.78 364.52 562.29 365.19 561.44 365.19 561.44 365.19 560.6 365.19 560.11 364.52 560.11 364.52 559.63 363.85 559.63 362.68Z"/>
<path transform="matrix(1,0,0,-1,0,400)" d="M482.43 355.92C479.6 355.92 477.31 353.63 477.31 350.8 477.31 347.98 479.6 345.68 482.43 345.68 485.26 345.68 487.55 347.98 487.55 350.8 487.55 353.63 485.26 355.92 482.43 355.92" fill="#a2a2a2" fill-rule="evenodd"/>
<path transform="matrix(1,0,0,-1,0,400)" d="M510.25 353.97 508.67 349.67H511.84L510.25 353.97M509.59 355.12H510.92L514.21 346.48H513L512.21 348.7H508.31L507.53 346.48H506.29L509.59 355.12Z"/>
<path transform="matrix(1,0,0,-1,0,400)" d="M519.88 352.72V351.72C519.88 351.72 519.43 351.97 518.97 352.09 518.97 352.09 518.52 352.22 518.06 352.22 518.06 352.22 517.02 352.22 516.45 351.56 516.45 351.56 515.88 350.9 515.88 349.72 515.88 349.72 515.88 348.53 516.45 347.87 516.45 347.87 517.02 347.22 518.06 347.22 518.06 347.22 518.52 347.22 518.97 347.34 518.97 347.34 519.43 347.47 519.88 347.72V346.73C519.88 346.73 519.44 346.52 518.96 346.42 518.96 346.42 518.48 346.32 517.94 346.32 517.94 346.32 516.48 346.32 515.62 347.24 515.62 347.24 514.75 348.16 514.75 349.72 514.75 349.72 514.75 351.3 515.62 352.21 515.62 352.21 516.5 353.12 518.01 353.12 518.01 353.12 518.5 353.12 518.97 353.02 518.97 353.02 519.44 352.92 519.88 352.72Z"/>
<path transform="matrix(1,0,0,-1,0,400)" d="M522.79 354.8V352.96H524.98V352.14H522.79V348.62C522.79 348.62 522.79 347.83 523 347.6 523 347.6 523.22 347.37 523.89 347.37H524.98V346.48H523.89C523.89 346.48 522.65 346.48 522.19 346.94 522.19 346.94 521.72 347.4 521.72 348.62V352.14H520.94V352.96H521.72V354.8H522.79Z"/>
<path transform="matrix(1,0,0,-1,0,400)" d="M526.27 349.04V352.96H527.34V349.08C527.34 349.08 527.34 348.16 527.69 347.7 527.69 347.7 528.05 347.24 528.77 347.24 528.77 347.24 529.63 347.24 530.13 347.79 530.13 347.79 530.63 348.34 530.63 349.29V352.96H531.7V346.48H530.63V347.48C530.63 347.48 530.25 346.89 529.73 346.6 529.73 346.6 529.22 346.32 528.55 346.32 528.55 346.32 527.43 346.32 526.85 347.01 526.85 347.01 526.27 347.7 526.27 349.04M528.95 353.12V353.12Z"/>
<path transform="matrix(1,0,0,-1,0,400)" d="M536.84 349.74C536.84 349.74 535.55 349.74 535.05 349.45 535.05 349.45 534.55 349.15 534.55 348.44 534.55 348.44 534.55 347.87 534.92 347.54 534.92 347.54 535.3 347.21 535.94 347.21 535.94 347.21 536.83 347.21 537.36 347.83 537.36 347.83 537.9 348.46 537.9 349.5V349.74H536.84M538.96 350.18V346.48H537.9V347.47C537.9 347.47 537.53 346.88 536.99 346.59 536.99 346.59 536.44 346.32 535.66 346.32 535.66 346.32 534.66 346.32 534.07 346.87 534.07 346.87 533.49 347.43 533.49 348.37 533.49 348.37 533.49 349.46 534.22 350.02 534.22 350.02 534.95 350.57 536.4 350.57H537.9V350.68C537.9 350.68 537.9 351.41 537.41 351.81 537.41 351.81 536.93 352.22 536.06 352.22 536.06 352.22 535.5 352.22 534.97 352.08 534.97 352.08 534.45 351.95 533.96 351.69V352.67C533.96 352.67 534.55 352.89 535.1 353 535.1 353 535.65 353.12 536.17 353.12 536.17 353.12 537.57 353.12 538.27 352.39 538.27 352.39 538.96 351.66 538.96 350.18Z"/>
<path transform="matrix(1,0,0,-1,0,400)" d="M541.16 355.49H542.22V346.48H541.16V355.49Z"/>
</g>
</svg>
