<?xml version="1.0" encoding="UTF-8" standalone="no"?>
<!DOCTYPE svg PUBLIC "-//W3C//DTD SVG 1.1//EN" "http://www.w3.org/Graphics/SVG/1.1/DTD/svg11.dtd">
<svg xmlns="http://www.w3.org/2000/svg" xmlns:xlink="http://www.w3.org/1999/xlink" version="1.1" width="600pt" height="400pt" viewBox="0 0 600 400">
<g enable-background="new">
<clipPath id="cp0">
<path transform="matrix(1,0,0,-1,0,400)" d="M 0 0 L 600 0 L 600 400 L 0 400 Z "/>
</clipPath>
<g clip-path="url(#cp0)">
<clipPath id="cp1">
<path transform="matrix(1,0,0,-1,0,400)" d="M 0 0 L 600 0 L 600 600 L 0 600 Z "/>
</clipPath>
<g clip-path="url(#cp1)">
<path transform="matrix(1,0,0,-1,0,400)" d="M 0 0 L 600 0 L 600 400 L 0 400 " fill="#ffffff" fill-rule="evenodd"/>
</g>
<clipPath id="cp2">
<path transform="matrix(1,0,0,-1,0,400)" d="M 0 0 L 600 0 L 600 600 L 0 600 Z "/>
</clipPath>
<g clip-path="url(#cp2)">
<path transform="matrix(1,0,0,-1,0,400)" d="M 66.07 44.21 L 588.19 44.21 L 588.19 388.19 L 66.07 388.19 " fill="#ffffff" fill-rule="evenodd"/>
</g>
<path transform="matrix(1,0,0,-1,0,400)" stroke-width="1" stroke-linecap="round" stroke-linejoin="round" fill="none" stroke="#000000" d="M 66.07 44.21 L 588.19 44.21 "/>
<path transform="matrix(1,0,0,-1,0,400)" stroke-width="1" stroke-linecap="round" stroke-linejoin="round" fill="none" stroke="#000000" d="M 113.54 44.21 L 113.54 48.93 "/>
<path transform="matrix(1,0,0,-1,0,400)" stroke-width="1" stroke-linecap="round" stroke-linejoin="round" fill="none" stroke="#000000" d="M 161 44.21 L 161 48.93 "/>
<path transform="matrix(1,0,0,-1,0,400)" stroke-width="1" stroke-linecap="round" stroke-linejoin="round" fill="none" stroke="#000000" d="M 208.47 44.21 L 208.47 48.93 "/>
<path transform="matrix(1,0,0,-1,0,400)" stroke-width="1" stroke-linecap="round" stroke-linejoin="round" fill="none" stroke="#000000" d="M 255.93 44.21 L 255.93 48.93 "/>
<path transform="matrix(1,0,0,-1,0,400)" stroke-width="1" stroke-linecap="round" stroke-linejoin="round" fill="none" stroke="#000000" d="M 303.4 44.21 L 303.4 48.93 "/>
<path transform="matrix(1,0,0,-1,0,400)" stroke-width="1" stroke-linecap="round" stroke-linejoin="round" fill="none" stroke="#000000" d="M 350.86 44.21 L 350.86 48.93 "/>
<path transform="matrix(1,0,0,-1,0,400)" stroke-width="1" stroke-linecap="round" stroke-linejoin="round" fill="none" stroke="#000000" d="M 398.33 44.21 L 398.33 48.93 "/>
<path transform="matrix(1,0,0,-1,0,400)" stroke-width="1" stroke-linecap="round" stroke-linejoin="round" fill="none" stroke="#000000" d="M 445.79 44.21 L 445.79 48.93 "/>
<path transform="matrix(1,0,0,-1,0,400)" stroke-width="1" stroke-linecap="round" stroke-linejoin="round" fill="none" stroke="#000000" d="M 493.26 44.21 L 493.26 48.93 "/>
<path transform="matrix(1,0,0,-1,0,400)" stroke-width="1" stroke-linecap="round" stroke-linejoin="round" fill="none" stroke="#000000" d="M 540.72 44.21 L 540.72 48.93 "/>
<path transform="matrix(1,0,0,-1,0,400)" d="M 111.13 29.59 L 113.04 29.59 L 113.04 36.18 L 110.96 35.76 L 110.96 36.83 L 113.03 37.25 L 114.2 37.25 L 114.2 29.59 L 116.11 29.59 L 116.11 28.61 L 111.13 28.61 L 111.13 29.59 Z "/>
<path transform="matrix(1,0,0,-1,0,400)" d="M 159.67 29.59 L 163.75 29.59 L 163.75 28.61 L 158.26 28.61 L 158.26 29.59 C 158.26 29.59 158.92 30.28 160.07 31.43 C 160.07 31.43 161.22 32.6 161.52 32.93 C 161.52 32.93 162.08 33.56 162.3 34 C 162.3 34 162.52 34.44 162.52 34.86 C 162.52 34.86 162.52 35.55 162.04 35.98 C 162.04 35.98 161.56 36.42 160.78 36.42 C 160.78 36.42 160.23 36.42 159.62 36.23 C 159.62 36.23 159.01 36.04 158.32 35.65 L 158.32 36.83 C 158.32 36.83 159.02 37.11 159.64 37.26 C 159.64 37.26 160.25 37.4 160.76 37.4 C 160.76 37.4 162.1 37.4 162.9 36.73 C 162.9 36.73 163.7 36.06 163.7 34.94 C 163.7 34.94 163.7 34.4 163.5 33.92 C 163.5 33.92 163.3 33.45 162.77 32.8 C 162.77 32.8 162.63 32.63 161.85 31.83 C 161.85 31.83 161.08 31.03 159.67 29.59 Z "/>
<path transform="matrix(1,0,0,-1,0,400)" d="M 209.53 33.26 C 209.53 33.26 210.37 33.08 210.84 32.52 C 210.84 32.52 211.31 31.95 211.31 31.12 C 211.31 31.12 211.31 29.84 210.43 29.14 C 210.43 29.14 209.55 28.44 207.93 28.44 C 207.93 28.44 207.39 28.44 206.81 28.55 C 206.81 28.55 206.24 28.65 205.62 28.87 L 205.62 29.99 C 205.62 29.99 206.11 29.71 206.69 29.57 C 206.69 29.57 207.27 29.42 207.9 29.42 C 207.9 29.42 209 29.42 209.57 29.86 C 209.57 29.86 210.15 30.29 210.15 31.12 C 210.15 31.12 210.15 31.88 209.61 32.31 C 209.61 32.31 209.08 32.74 208.12 32.74 L 207.12 32.74 L 207.12 33.7 L 208.17 33.7 C 208.17 33.7 209.03 33.7 209.49 34.04 C 209.49 34.04 209.95 34.39 209.95 35.04 C 209.95 35.04 209.95 35.71 209.47 36.06 C 209.47 36.06 209 36.42 208.12 36.42 C 208.12 36.42 207.64 36.42 207.09 36.31 C 207.09 36.31 206.54 36.21 205.88 35.99 L 205.88 37.03 C 205.88 37.03 206.55 37.22 207.13 37.31 C 207.13 37.31 207.71 37.4 208.23 37.4 C 208.23 37.4 209.56 37.4 210.33 36.79 C 210.33 36.79 211.11 36.19 211.11 35.16 C 211.11 35.16 211.11 34.44 210.7 33.95 C 210.7 33.95 210.29 33.45 209.53 33.26 Z "/>
<path transform="matrix(1,0,0,-1,0,400)" d="M 256.68 36.23 L 253.73 31.61 L 256.68 31.61 L 256.68 36.23 M 256.38 37.25 L 257.85 37.25 L 257.85 31.61 L 259.08 31.61 L 259.08 30.64 L 257.85 30.64 L 257.85 28.61 L 256.68 28.61 L 256.68 30.64 L 252.78 30.64 L 252.78 31.77 L 256.38 37.25 Z "/>
<path transform="matrix(1,0,0,-1,0,400)" d="M 300.97 37.25 L 305.56 37.25 L 305.56 36.26 L 302.04 36.26 L 302.04 34.14 C 302.04 34.14 302.29 34.23 302.55 34.27 C 302.55 34.27 302.8 34.32 303.06 34.32 C 303.06 34.32 304.5 34.32 305.35 33.52 C 305.35 33.52 306.19 32.73 306.19 31.38 C 306.19 31.38 306.19 29.98 305.32 29.21 C 305.32 29.21 304.46 28.44 302.88 28.44 C 302.88 28.44 302.33 28.44 301.77 28.53 C 301.77 28.53 301.2 28.62 300.6 28.81 L 300.6 29.98 C 300.6 29.98 301.12 29.7 301.68 29.56 C 301.68 29.56 302.23 29.42 302.85 29.42 C 302.85 29.42 303.85 29.42 304.44 29.95 C 304.44 29.95 305.02 30.47 305.02 31.38 C 305.02 31.38 305.02 32.28 304.44 32.81 C 304.44 32.81 303.85 33.33 302.85 33.33 C 302.85 33.33 302.39 33.33 301.92 33.23 C 301.92 33.23 301.45 33.12 300.97 32.9 L 300.97 37.25 Z "/>
<path transform="matrix(1,0,0,-1,0,400)" d="M 350.96 33.39 C 350.96 33.39 350.18 33.39 349.71 32.85 C 349.71 32.85 349.26 32.31 349.26 31.38 C 349.26 31.38 349.26 30.45 349.71 29.9 C 349.71 29.9 350.18 29.36 350.96 29.36 C 350.96 29.36 351.75 29.36 352.21 29.9 C 352.21 29.9 352.67 30.45 352.67 31.38 C 352.67 31.38 352.67 32.31 352.21 32.85 C 352.21 32.85 351.75 33.39 350.96 33.39 M 353.28 37.05 L 353.28 35.99 C 353.28 35.99 352.85 36.2 352.39 36.31 C 352.39 36.31 351.95 36.42 351.51 36.42 C 351.51 36.42 350.35 36.42 349.74 35.64 C 349.74 35.64 349.13 34.86 349.04 33.28 C 349.04 33.28 349.38 33.78 349.9 34.04 C 349.9 34.04 350.41 34.32 351.03 34.32 C 351.03 34.32 352.34 34.32 353.09 33.52 C 353.09 33.52 353.85 32.74 353.85 31.38 C 353.85 31.38 353.85 30.05 353.06 29.24 C 353.06 29.24 352.27 28.44 350.96 28.44 C 350.96 28.44 349.47 28.44 348.67 29.58 C 348.67 29.58 347.88 30.73 347.88 32.92 C 347.88 32.92 347.88 34.96 348.85 36.18 C 348.85 36.18 349.82 37.4 351.46 37.4 C 351.46 37.4 351.9 37.4 352.35 37.31 C 352.35 37.31 352.8 37.23 353.28 37.05 Z "/>
<path transform="matrix(1,0,0,-1,0,400)" d="M 395.55 37.25 L 401.11 37.25 L 401.11 36.75 L 397.97 28.61 L 396.75 28.61 L 399.7 36.26 L 395.55 36.26 L 395.55 37.25 Z "/>
<path transform="matrix(1,0,0,-1,0,400)" d="M 445.79 32.71 C 445.79 32.71 444.96 32.71 444.48 32.26 C 444.48 32.26 444.01 31.82 444.01 31.04 C 444.01 31.04 444.01 30.25 444.48 29.81 C 444.48 29.81 444.96 29.36 445.79 29.36 C 445.79 29.36 446.63 29.36 447.11 29.81 C 447.11 29.81 447.59 30.26 447.59 31.04 C 447.59 31.04 447.59 31.82 447.11 32.26 C 447.11 32.26 446.63 32.71 445.79 32.71 M 444.62 33.21 C 444.62 33.21 443.87 33.39 443.45 33.91 C 443.45 33.91 443.03 34.42 443.03 35.16 C 443.03 35.16 443.03 36.2 443.77 36.8 C 443.77 36.8 444.51 37.4 445.79 37.4 C 445.79 37.4 447.08 37.4 447.82 36.8 C 447.82 36.8 448.55 36.2 448.55 35.16 C 448.55 35.16 448.55 34.42 448.13 33.91 C 448.13 33.91 447.71 33.39 446.97 33.21 C 446.97 33.21 447.81 33.01 448.28 32.44 C 448.28 32.44 448.76 31.86 448.76 31.04 C 448.76 31.04 448.76 29.78 447.99 29.11 C 447.99 29.11 447.22 28.44 445.79 28.44 C 445.79 28.44 444.36 28.44 443.59 29.11 C 443.59 29.11 442.83 29.78 442.83 31.04 C 442.83 31.04 442.83 31.86 443.3 32.44 C 443.3 32.44 443.78 33.01 444.62 33.21 M 444.2 35.05 C 444.2 35.05 444.2 34.38 444.61 34 C 444.61 34 445.04 33.63 445.79 33.63 C 445.79 33.63 446.55 33.63 446.97 34 C 446.97 34 447.4 34.38 447.4 35.05 C 447.4 35.05 447.4 35.72 446.97 36.1 C 446.97 36.1 446.55 36.48 445.79 36.48 C 445.79 36.48 445.04 36.48 444.61 36.1 C 444.61 36.1 444.2 35.72 444.2 35.05 Z "/>
<path transform="matrix(1,0,0,-1,0,400)" d="M 490.83 28.78 L 490.83 29.85 C 490.83 29.85 491.27 29.64 491.73 29.53 C 491.73 29.53 492.18 29.42 492.61 29.42 C 492.61 29.42 493.77 29.42 494.38 30.2 C 494.38 30.2 494.99 30.98 495.08 32.56 C 495.08 32.56 494.74 32.07 494.23 31.8 C 494.23 31.8 493.71 31.53 493.08 31.53 C 493.08 31.53 491.79 31.53 491.03 32.31 C 491.03 32.31 490.28 33.1 490.28 34.46 C 490.28 34.46 490.28 35.79 491.07 36.6 C 491.07 36.6 491.85 37.4 493.16 37.4 C 493.16 37.4 494.66 37.4 495.45 36.25 C 495.45 36.25 496.24 35.1 496.24 32.92 C 496.24 32.92 496.24 30.87 495.27 29.65 C 495.27 29.65 494.3 28.44 492.66 28.44 C 492.66 28.44 492.22 28.44 491.77 28.52 C 491.77 28.52 491.32 28.61 490.83 28.78 M 493.16 32.45 C 493.16 32.45 493.95 32.45 494.4 32.99 C 494.4 32.99 494.87 33.52 494.87 34.46 C 494.87 34.46 494.87 35.39 494.4 35.93 C 494.4 35.93 493.95 36.48 493.16 36.48 C 493.16 36.48 492.37 36.48 491.91 35.93 C 491.91 35.93 491.45 35.39 491.45 34.46 C 491.45 34.46 491.45 33.52 491.91 32.99 C 491.91 32.99 492.37 32.45 493.16 32.45 Z "/>
<path transform="matrix(1,0,0,-1,0,400)" d="M 534.4 29.59 L 536.31 29.59 L 536.31 36.18 L 534.23 35.76 L 534.23 36.83 L 536.29 37.25 L 537.46 37.25 L 537.46 29.59 L 539.37 29.59 L 539.37 28.61 L 534.4 28.61 L 534.4 29.59 Z "/>
<path transform="matrix(1,0,0,-1,0,400)" d="M 544.23 36.48 C 544.23 36.48 543.33 36.48 542.87 35.58 C 542.87 35.58 542.42 34.7 542.42 32.92 C 542.42 32.92 542.42 31.14 542.87 30.25 C 542.87 30.25 543.33 29.36 544.23 29.36 C 544.23 29.36 545.14 29.36 545.59 30.25 C 545.59 30.25 546.05 31.14 546.05 32.92 C 546.05 32.92 546.05 34.7 545.59 35.58 C 545.59 35.58 545.14 36.48 544.23 36.48 M 544.23 37.4 C 544.23 37.4 545.69 37.4 546.45 36.25 C 546.45 36.25 547.22 35.1 547.22 32.92 C 547.22 32.92 547.22 30.73 546.45 29.58 C 546.45 29.58 545.69 28.44 544.23 28.44 C 544.23 28.44 542.78 28.44 542.01 29.58 C 542.01 29.58 541.25 30.73 541.25 32.92 C 541.25 32.92 541.25 35.1 542.01 36.25 C 542.01 36.25 542.78 37.4 544.23 37.4 Z "/>
<path transform="matrix(1,0,0,-1,0,400)" d="M 276.41 18.55 L 276.41 14.08 L 278.43 14.08 C 278.43 14.08 279.55 14.08 280.17 14.67 C 280.17 14.67 280.78 15.25 280.78 16.32 C 280.78 16.32 280.78 17.39 280.17 17.97 C 280.17 17.97 279.55 18.55 278.43 18.55 L 276.41 18.55 M 274.8 19.87 L 278.43 19.87 C 278.43 19.87 280.43 19.87 281.45 18.96 C 281.45 18.96 282.47 18.06 282.47 16.32 C 282.47 16.32 282.47 14.56 281.45 13.66 C 281.45 13.66 280.43 12.76 278.43 12.76 L 276.41 12.76 L 276.41 7.99 L 274.8 7.99 L 274.8 19.87 Z "/>
<path transform="matrix(1,0,0,-1,0,400)" d="M 287.89 12.47 C 287.89 12.47 286.11 12.47 285.43 12.06 C 285.43 12.06 284.74 11.66 284.74 10.68 C 284.74 10.68 284.74 9.9 285.25 9.44 C 285.25 9.44 285.77 8.98 286.65 8.98 C 286.65 8.98 287.87 8.98 288.6 9.84 C 288.6 9.84 289.34 10.71 289.34 12.14 L 289.34 12.47 L 287.89 12.47 M 290.81 13.07 L 290.81 7.99 L 289.34 7.99 L 289.34 9.34 C 289.34 9.34 288.84 8.53 288.09 8.14 C 288.09 8.14 287.34 7.76 286.26 7.76 C 286.26 7.76 284.89 7.76 284.08 8.52 C 284.08 8.52 283.28 9.29 283.28 10.58 C 283.28 10.58 283.28 12.09 284.28 12.85 C 284.28 12.85 285.29 13.61 287.29 13.61 L 289.34 13.61 L 289.34 13.76 C 289.34 13.76 289.34 14.77 288.67 15.32 C 288.67 15.32 288.01 15.87 286.81 15.87 C 286.81 15.87 286.05 15.87 285.32 15.69 C 285.32 15.69 284.6 15.51 283.93 15.14 L 283.93 16.5 C 283.93 16.5 284.73 16.81 285.49 16.96 C 285.49 16.96 286.25 17.12 286.96 17.12 C 286.96 17.12 288.9 17.12 289.85 16.11 C 289.85 16.11 290.81 15.11 290.81 13.07 Z "/>
<path transform="matrix(1,0,0,-1,0,400)" d="M 295.27 19.43 L 295.27 16.9 L 298.29 16.9 L 298.29 15.76 L 295.27 15.76 L 295.27 10.93 C 295.27 10.93 295.27 9.84 295.56 9.52 C 295.56 9.52 295.87 9.21 296.78 9.21 L 298.29 9.21 L 298.29 7.99 L 296.78 7.99 C 296.78 7.99 295.09 7.99 294.44 8.62 C 294.44 8.62 293.8 9.25 293.8 10.93 L 293.8 15.76 L 292.72 15.76 L 292.72 16.9 L 293.8 16.9 L 293.8 19.43 L 295.27 19.43 Z "/>
<path transform="matrix(1,0,0,-1,0,400)" d="M 300.21 16.9 L 301.68 16.9 L 301.68 7.99 L 300.21 7.99 L 300.21 16.9 M 300.21 20.37 L 301.68 20.37 L 301.68 18.52 L 300.21 18.52 L 300.21 20.37 Z "/>
<path transform="matrix(1,0,0,-1,0,400)" d="M 312.36 12.81 L 312.36 12.09 L 305.63 12.09 C 305.63 12.09 305.73 10.58 306.54 9.79 C 306.54 9.79 307.36 9 308.81 9 C 308.81 9 309.66 9 310.44 9.21 C 310.44 9.21 311.24 9.41 312.02 9.83 L 312.02 8.44 C 312.02 8.44 311.23 8.11 310.4 7.93 C 310.4 7.93 309.58 7.76 308.73 7.76 C 308.73 7.76 306.59 7.76 305.34 9 C 305.34 9 304.1 10.24 304.1 12.36 C 304.1 12.36 304.1 14.55 305.28 15.83 C 305.28 15.83 306.47 17.12 308.47 17.12 C 308.47 17.12 310.27 17.12 311.31 15.95 C 311.31 15.95 312.36 14.8 312.36 12.81 M 310.9 13.24 C 310.9 13.24 310.88 14.44 310.22 15.16 C 310.22 15.16 309.57 15.87 308.49 15.87 C 308.49 15.87 307.26 15.87 306.52 15.18 C 306.52 15.18 305.79 14.49 305.68 13.23 L 310.9 13.24 Z "/>
<path transform="matrix(1,0,0,-1,0,400)" d="M 322.17 13.37 L 322.17 7.99 L 320.71 7.99 L 320.71 13.32 C 320.71 13.32 320.71 14.59 320.22 15.21 C 320.22 15.21 319.72 15.84 318.74 15.84 C 318.74 15.84 317.55 15.84 316.87 15.09 C 316.87 15.09 316.18 14.33 316.18 13.03 L 316.18 7.99 L 314.71 7.99 L 314.71 16.9 L 316.18 16.9 L 316.18 15.52 C 316.18 15.52 316.71 16.32 317.41 16.72 C 317.41 16.72 318.13 17.12 319.06 17.12 C 319.06 17.12 320.6 17.12 321.39 16.16 C 321.39 16.16 322.17 15.21 322.17 13.37 Z "/>
<path transform="matrix(1,0,0,-1,0,400)" d="M 326.54 19.43 L 326.54 16.9 L 329.56 16.9 L 329.56 15.76 L 326.54 15.76 L 326.54 10.93 C 326.54 10.93 326.54 9.84 326.84 9.52 C 326.84 9.52 327.14 9.21 328.05 9.21 L 329.56 9.21 L 329.56 7.99 L 328.05 7.99 C 328.05 7.99 326.36 7.99 325.71 8.62 C 325.71 8.62 325.07 9.25 325.07 10.93 L 325.07 15.76 L 324 15.76 L 324 16.9 L 325.07 16.9 L 325.07 19.43 L 326.54 19.43 Z "/>
<path transform="matrix(1,0,0,-1,0,400)" d="M 336.73 19.87 L 338.33 19.87 L 338.33 7.99 L 336.73 7.99 L 336.73 19.87 Z "/>
<path transform="matrix(1,0,0,-1,0,400)" d="M 348.88 13.37 L 348.88 7.99 L 347.41 7.99 L 347.41 13.32 C 347.41 13.32 347.41 14.59 346.92 15.21 C 346.92 15.21 346.43 15.84 345.44 15.84 C 345.44 15.84 344.25 15.84 343.57 15.09 C 343.57 15.09 342.89 14.33 342.89 13.03 L 342.89 7.99 L 341.41 7.99 L 341.41 16.9 L 342.89 16.9 L 342.89 15.52 C 342.89 15.52 343.41 16.32 344.12 16.72 C 344.12 16.72 344.84 17.12 345.77 17.12 C 345.77 17.12 347.3 17.12 348.09 16.16 C 348.09 16.16 348.88 15.21 348.88 13.37 Z "/>
<path transform="matrix(1,0,0,-1,0,400)" d="M 357.66 15.55 L 357.66 20.37 L 359.13 20.37 L 359.13 7.99 L 357.66 7.99 L 357.66 9.33 C 357.66 9.33 357.2 8.53 356.49 8.14 C 356.49 8.14 355.79 7.76 354.81 7.76 C 354.81 7.76 353.19 7.76 352.17 9.05 C 352.17 9.05 351.16 10.34 351.16 12.44 C 351.16 12.44 351.16 14.54 352.17 15.83 C 352.17 15.83 353.19 17.12 354.81 17.12 C 354.81 17.12 355.79 17.12 356.49 16.73 C 356.49 16.73 357.2 16.34 357.66 15.55 M 352.67 12.44 C 352.67 12.44 352.67 10.82 353.33 9.9 C 353.33 9.9 354 8.98 355.16 8.98 C 355.16 8.98 356.33 8.98 356.99 9.9 C 356.99 9.9 357.66 10.82 357.66 12.44 C 357.66 12.44 357.66 14.05 356.99 14.97 C 356.99 14.97 356.33 15.89 355.16 15.89 C 355.16 15.89 354 15.89 353.33 14.97 C 353.33 14.97 352.67 14.05 352.67 12.44 Z "/>
<path transform="matrix(1,0,0,-1,0,400)" d="M 369.76 12.81 L 369.76 12.09 L 363.03 12.09 C 363.03 12.09 363.13 10.58 363.94 9.79 C 363.94 9.79 364.76 9 366.22 9 C 366.22 9 367.06 9 367.85 9.21 C 367.85 9.21 368.64 9.41 369.42 9.83 L 369.42 8.44 C 369.42 8.44 368.63 8.11 367.81 7.93 C 367.81 7.93 366.98 7.76 366.13 7.76 C 366.13 7.76 364 7.76 362.75 9 C 362.75 9 361.51 10.24 361.51 12.36 C 361.51 12.36 361.51 14.55 362.68 15.83 C 362.68 15.83 363.87 17.12 365.87 17.12 C 365.87 17.12 367.67 17.12 368.71 15.95 C 368.71 15.95 369.76 14.8 369.76 12.81 M 368.3 13.24 C 368.3 13.24 368.28 14.44 367.62 15.16 C 367.62 15.16 366.97 15.87 365.89 15.87 C 365.89 15.87 364.66 15.87 363.92 15.18 C 363.92 15.18 363.19 14.49 363.08 13.23 L 368.3 13.24 Z "/>
<path transform="matrix(1,0,0,-1,0,400)" d="M 379.29 16.9 L 376.07 12.56 L 379.46 7.99 L 377.73 7.99 L 375.14 11.49 L 372.54 7.99 L 370.82 7.99 L 374.28 12.65 L 371.11 16.9 L 372.84 16.9 L 375.2 13.73 L 377.56 16.9 L 379.29 16.9 Z "/>
<path transform="matrix(1,0,0,-1,0,400)" stroke-width="1" stroke-linecap="round" stroke-linejoin="round" fill="none" stroke="#000000" d="M 66.07 44.21 L 66.07 388.19 "/>
<path transform="matrix(1,0,0,-1,0,400)" stroke-width="1" stroke-linecap="round" stroke-linejoin="round" fill="none" stroke="#000000" d="M 66.07 44.21 L 70.8 44.21 "/>
<path transform="matrix(1,0,0,-1,0,400)" stroke-width="1" stroke-linecap="round" stroke-linejoin="round" fill="none" stroke="#000000" d="M 66.07 158.87 L 70.8 158.87 "/>
<path transform="matrix(1,0,0,-1,0,400)" stroke-width="1" stroke-linecap="round" stroke-linejoin="round" fill="none" stroke="#000000" d="M 66.07 273.53 L 70.8 273.53 "/>
<path transform="matrix(1,0,0,-1,0,400)" stroke-width="1" stroke-linecap="round" stroke-linejoin="round" fill="none" stroke="#000000" d="M 66.07 388.19 L 70.8 388.19 "/>
<path transform="matrix(1,0,0,-1,0,400)" d="M 54.09 47.76 C 54.09 47.76 53.18 47.76 52.73 46.86 C 52.73 46.86 52.27 45.98 52.27 44.2 C 52.27 44.2 52.27 42.42 52.73 41.53 C 52.73 41.53 53.18 40.64 54.09 40.64 C 54.09 40.64 54.99 40.64 55.45 41.53 C 55.45 41.53 55.9 42.42 55.9 44.2 C 55.9 44.2 55.9 45.98 55.45 46.86 C 55.45 46.86 54.99 47.76 54.09 47.76 M 54.09 48.68 C 54.09 48.68 55.54 48.68 56.3 47.53 C 56.3 47.53 57.07 46.38 57.07 44.2 C 57.07 44.2 57.07 42.01 56.3 40.86 C 56.3 40.86 55.54 39.72 54.09 39.72 C 54.09 39.72 52.63 39.72 51.86 40.86 C 51.86 40.86 51.1 42.01 51.1 44.2 C 51.1 44.2 51.1 46.38 51.86 47.53 C 51.86 47.53 52.63 48.68 54.09 48.68 Z "/>
<path transform="matrix(1,0,0,-1,0,400)" d="M 29.17 155.53 L 31.08 155.53 L 31.08 162.12 L 29 161.7 L 29 162.77 L 31.07 163.19 L 32.23 163.19 L 32.23 155.53 L 34.14 155.53 L 34.14 154.55 L 29.17 154.55 L 29.17 155.53 Z "/>
<path transform="matrix(1,0,0,-1,0,400)" d="M 39 162.42 C 39 162.42 38.1 162.42 37.64 161.53 C 37.64 161.53 37.19 160.64 37.19 158.86 C 37.19 158.86 37.19 157.08 37.64 156.19 C 37.64 156.19 38.1 155.3 39 155.3 C 39 155.3 39.91 155.3 40.36 156.19 C 40.36 156.19 40.82 157.08 40.82 158.86 C 40.82 158.86 40.82 160.64 40.36 161.53 C 40.36 161.53 39.91 162.42 39 162.42 M 39 163.34 C 39 163.34 40.46 163.34 41.22 162.19 C 41.22 162.19 41.99 161.05 41.99 158.86 C 41.99 158.86 41.99 156.68 41.22 155.52 C 41.22 155.52 40.46 154.38 39 154.38 C 39 154.38 37.55 154.38 36.78 155.52 C 36.78 155.52 36.02 156.68 36.02 158.86 C 36.02 158.86 36.02 161.05 36.78 162.19 C 36.78 162.19 37.55 163.34 39 163.34 Z "/>
<path transform="matrix(1,0,0,-1,0,400)" d="M 46.55 162.42 C 46.55 162.42 45.64 162.42 45.19 161.53 C 45.19 161.53 44.73 160.64 44.73 158.86 C 44.73 158.86 44.73 157.08 45.19 156.19 C 45.19 156.19 45.64 155.3 46.55 155.3 C 46.55 155.3 47.45 155.3 47.91 156.19 C 47.91 156.19 48.36 157.08 48.36 158.86 C 48.36 158.86 48.36 160.64 47.91 161.53 C 47.91 161.53 47.45 162.42 46.55 162.42 M 46.55 163.34 C 46.55 163.34 48 163.34 48.76 162.19 C 48.76 162.19 49.53 161.05 49.53 158.86 C 49.53 158.86 49.53 156.68 48.76 155.52 C 48.76 155.52 48 154.38 46.55 154.38 C 46.55 154.38 45.09 154.38 44.32 155.52 C 44.32 155.52 43.56 156.68 43.56 158.86 C 43.56 158.86 43.56 161.05 44.32 162.19 C 44.32 162.19 45.09 163.34 46.55 163.34 Z "/>
<path transform="matrix(1,0,0,-1,0,400)" d="M 54.09 162.42 C 54.09 162.42 53.18 162.42 52.73 161.53 C 52.73 161.53 52.27 160.64 52.27 158.86 C 52.27 158.86 52.27 157.08 52.73 156.19 C 52.73 156.19 53.18 155.3 54.09 155.3 C 54.09 155.3 54.99 155.3 55.45 156.19 C 55.45 156.19 55.9 157.08 55.9 158.86 C 55.9 158.86 55.9 160.64 55.45 161.53 C 55.45 161.53 54.99 162.42 54.09 162.42 M 54.09 163.34 C 54.09 163.34 55.54 163.34 56.3 162.19 C 56.3 162.19 57.07 161.05 57.07 158.86 C 57.07 158.86 57.07 156.68 56.3 155.52 C 56.3 155.52 55.54 154.38 54.09 154.38 C 54.09 154.38 52.63 154.38 51.86 155.52 C 51.86 155.52 51.1 156.68 51.1 158.86 C 51.1 158.86 51.1 161.05 51.86 162.19 C 51.86 162.19 52.63 163.34 54.09 163.34 Z "/>
<path transform="matrix(1,0,0,-1,0,400)" d="M 29.97 270.19 L 34.05 270.19 L 34.05 269.21 L 28.57 269.21 L 28.57 270.19 C 28.57 270.19 29.23 270.88 30.38 272.04 C 30.38 272.04 31.53 273.2 31.82 273.54 C 31.82 273.54 32.38 274.17 32.6 274.6 C 32.6 274.6 32.83 275.04 32.83 275.46 C 32.83 275.46 32.83 276.15 32.34 276.59 C 32.34 276.59 31.86 277.02 31.09 277.02 C 31.09 277.02 30.54 277.02 29.92 276.83 C 29.92 276.83 29.32 276.64 28.62 276.25 L 28.62 277.43 C 28.62 277.43 29.33 277.71 29.94 277.86 C 29.94 277.86 30.56 278 31.07 278 C 31.07 278 32.41 278 33.21 277.33 C 33.21 277.33 34 276.66 34 275.54 C 34 275.54 34 275.01 33.8 274.53 C 33.8 274.53 33.61 274.05 33.08 273.4 C 33.08 273.4 32.93 273.24 32.16 272.43 C 32.16 272.43 31.38 271.63 29.97 270.19 Z "/>
<path transform="matrix(1,0,0,-1,0,400)" d="M 39 277.08 C 39 277.08 38.1 277.08 37.64 276.19 C 37.64 276.19 37.19 275.3 37.19 273.52 C 37.19 273.52 37.19 271.74 37.64 270.85 C 37.64 270.85 38.1 269.97 39 269.97 C 39 269.97 39.91 269.97 40.36 270.85 C 40.36 270.85 40.82 271.74 40.82 273.52 C 40.82 273.52 40.82 275.3 40.36 276.19 C 40.36 276.19 39.91 277.08 39 277.08 M 39 278 C 39 278 40.46 278 41.22 276.85 C 41.22 276.85 41.99 275.71 41.99 273.52 C 41.99 273.52 41.99 271.34 41.22 270.19 C 41.22 270.19 40.46 269.04 39 269.04 C 39 269.04 37.55 269.04 36.78 270.19 C 36.78 270.19 36.02 271.34 36.02 273.52 C 36.02 273.52 36.02 275.71 36.78 276.85 C 36.78 276.85 37.55 278 39 278 Z "/>
<path transform="matrix(1,0,0,-1,0,400)" d="M 46.55 277.08 C 46.55 277.08 45.64 277.08 45.19 276.19 C 45.19 276.19 44.73 275.3 44.73 273.52 C 44.73 273.52 44.73 271.74 45.19 270.85 C 45.19 270.85 45.64 269.97 46.55 269.97 C 46.55 269.97 47.45 269.97 47.91 270.85 C 47.91 270.85 48.36 271.74 48.36 273.52 C 48.36 273.52 48.36 275.3 47.91 276.19 C 47.91 276.19 47.45 277.08 46.55 277.08 M 46.55 278 C 46.55 278 48 278 48.76 276.85 C 48.76 276.85 49.53 275.71 49.53 273.52 C 49.53 273.52 49.53 271.34 48.76 270.19 C 48.76 270.19 48 269.04 46.55 269.04 C 46.55 269.04 45.09 269.04 44.32 270.19 C 44.32 270.19 43.56 271.34 43.56 273.52 C 43.56 273.52 43.56 275.71 44.32 276.85 C 44.32 276.85 45.09 278 46.55 278 Z "/>
<path transform="matrix(1,0,0,-1,0,400)" d="M 54.09 277.08 C 54.09 277.08 53.18 277.08 52.73 276.19 C 52.73 276.19 52.27 275.3 52.27 273.52 C 52.27 273.52 52.27 271.74 52.73 270.85 C 52.73 270.85 53.18 269.97 54.09 269.97 C 54.09 269.97 54.99 269.97 55.45 270.85 C 55.45 270.85 55.9 271.74 55.9 273.52 C 55.9 273.52 55.9 275.3 55.45 276.19 C 55.45 276.19 54.99 277.08 54.09 277.08 M 54.09 278 C 54.09 278 55.54 278 56.3 276.85 C 56.3 276.85 57.07 275.71 57.07 273.52 C 57.07 273.52 57.07 271.34 56.3 270.19 C 56.3 270.19 55.54 269.04 54.09 269.04 C 54.09 269.04 52.63 269.04 51.86 270.19 C 51.86 270.19 51.1 271.34 51.1 273.52 C 51.1 273.52 51.1 275.71 51.86 276.85 C 51.86 276.85 52.63 278 54.09 278 Z "/>
<path transform="matrix(1,0,0,-1,0,400)" d="M 32.51 388.53 C 32.51 388.53 33.35 388.35 33.81 387.78 C 33.81 387.78 34.29 387.21 34.29 386.38 C 34.29 386.38 34.29 385.1 33.41 384.4 C 33.41 384.4 32.53 383.7 30.91 383.7 C 30.91 383.7 30.36 383.7 29.79 383.81 C 29.79 383.81 29.21 383.92 28.6 384.13 L 28.6 385.26 C 28.6 385.26 29.09 384.97 29.66 384.83 C 29.66 384.83 30.24 384.68 30.87 384.68 C 30.87 384.68 31.97 384.68 32.55 385.12 C 32.55 385.12 33.13 385.55 33.13 386.38 C 33.13 386.38 33.13 387.14 32.59 387.57 C 32.59 387.57 32.05 388.01 31.1 388.01 L 30.09 388.01 L 30.09 388.97 L 31.15 388.97 C 31.15 388.97 32.01 388.97 32.47 389.31 C 32.47 389.31 32.92 389.66 32.92 390.3 C 32.92 390.3 32.92 390.97 32.45 391.32 C 32.45 391.32 31.98 391.68 31.1 391.68 C 31.1 391.68 30.62 391.68 30.07 391.58 C 30.07 391.58 29.52 391.47 28.86 391.25 L 28.86 392.29 C 28.86 392.29 29.53 392.48 30.1 392.57 C 30.1 392.57 30.69 392.67 31.2 392.67 C 31.2 392.67 32.53 392.67 33.31 392.06 C 33.31 392.06 34.09 391.46 34.09 390.43 C 34.09 390.43 34.09 389.71 33.67 389.21 C 33.67 389.21 33.26 388.72 32.51 388.53 Z "/>
<path transform="matrix(1,0,0,-1,0,400)" d="M 39 391.74 C 39 391.74 38.1 391.74 37.64 390.85 C 37.64 390.85 37.19 389.96 37.19 388.18 C 37.19 388.18 37.19 386.4 37.64 385.51 C 37.64 385.51 38.1 384.63 39 384.63 C 39 384.63 39.91 384.63 40.36 385.51 C 40.36 385.51 40.82 386.4 40.82 388.18 C 40.82 388.18 40.82 389.96 40.36 390.85 C 40.36 390.85 39.91 391.74 39 391.74 M 39 392.67 C 39 392.67 40.46 392.67 41.22 391.51 C 41.22 391.51 41.99 390.37 41.99 388.18 C 41.99 388.18 41.99 386 41.22 384.85 C 41.22 384.85 40.46 383.7 39 383.7 C 39 383.7 37.55 383.7 36.78 384.85 C 36.78 384.85 36.02 386 36.02 388.18 C 36.02 388.18 36.02 390.37 36.78 391.51 C 36.78 391.51 37.55 392.67 39 392.67 Z "/>
<path transform="matrix(1,0,0,-1,0,400)" d="M 46.55 391.74 C 46.55 391.74 45.64 391.74 45.19 390.85 C 45.19 390.85 44.73 389.96 44.73 388.18 C 44.73 388.18 44.73 386.4 45.19 385.51 C 45.19 385.51 45.64 384.63 46.55 384.63 C 46.55 384.63 47.45 384.63 47.91 385.51 C 47.91 385.51 48.36 386.4 48.36 388.18 C 48.36 388.18 48.36 389.96 47.91 390.85 C 47.91 390.85 47.45 391.74 46.55 391.74 M 46.55 392.67 C 46.55 392.67 48 392.67 48.76 391.51 C 48.76 391.51 49.53 390.37 49.53 388.18 C 49.53 388.18 49.53 386 48.76 384.85 C 48.76 384.85 48 383.7 46.55 383.7 C 46.55 383.7 45.09 383.7 44.32 384.85 C 44.32 384.85 43.56 386 43.56 388.18 C 43.56 388.18 43.56 390.37 44.32 391.51 C 44.32 391.51 45.09 392.67 46.55 392.67 Z "/>
<path transform="matrix(1,0,0,-1,0,400)" d="M 54.09 391.74 C 54.09 391.74 53.18 391.74 52.73 390.85 C 52.73 390.85 52.27 389.96 52.27 388.18 C 52.27 388.18 52.27 386.4 52.73 385.51 C 52.73 385.51 53.18 384.63 54.09 384.63 C 54.09 384.63 54.99 384.63 55.45 385.51 C 55.45 385.51 55.9 386.4 55.9 388.18 C 55.9 388.18 55.9 389.96 55.45 390.85 C 55.45 390.85 54.99 391.74 54.09 391.74 M 54.09 392.67 C 54.09 392.67 55.54 392.67 56.3 391.51 C 56.3 391.51 57.07 390.37 57.07 388.18 C 57.07 388.18 57.07 386 56.3 384.85 C 56.3 384.85 55.54 383.7 54.09 383.7 C 54.09 383.7 52.63 383.7 51.86 384.85 C 51.86 384.85 51.1 386 51.1 388.18 C 51.1 388.18 51.1 390.37 51.86 391.51 C 51.86 391.51 52.63 392.67 54.09 392.67 Z "/>
<path transform="matrix(1,0,0,-1,0,400)" d="M 5.7 149.5 L 11.62 147.32 L 11.62 151.69 L 5.7 149.5 M 4.12 148.6 L 4.12 150.42 L 16 154.95 L 16 153.28 L 12.95 152.19 L 12.95 146.84 L 16 145.76 L 16 144.06 L 4.12 148.6 Z "/>
<path transform="matrix(1,0,0,-1,0,400)" d="M 8.46 161.78 C 8.46 161.78 8.31 161.54 8.25 161.24 C 8.25 161.24 8.18 160.95 8.18 160.6 C 8.18 160.6 8.18 159.36 8.99 158.69 C 8.99 158.69 9.79 158.03 11.31 158.03 L 16 158.03 L 16 156.56 L 7.09 156.56 L 7.09 158.03 L 8.47 158.03 C 8.47 158.03 7.66 158.5 7.27 159.24 C 7.27 159.24 6.87 159.98 6.87 161.03 C 6.87 161.03 6.87 161.19 6.9 161.37 C 6.9 161.37 6.91 161.55 6.95 161.77 L 8.46 161.78 Z "/>
<path transform="matrix(1,0,0,-1,0,400)" d="M 11.18 170.58 L 11.9 170.58 L 11.9 163.85 C 11.9 163.85 13.41 163.95 14.2 164.76 C 14.2 164.76 14.99 165.58 14.99 167.03 C 14.99 167.03 14.99 167.88 14.78 168.67 C 14.78 168.67 14.58 169.46 14.16 170.24 L 15.55 170.24 C 15.55 170.24 15.88 169.45 16.06 168.63 C 16.06 168.63 16.23 167.8 16.23 166.95 C 16.23 166.95 16.23 164.81 14.99 163.56 C 14.99 163.56 13.75 162.32 11.63 162.32 C 11.63 162.32 9.44 162.32 8.16 163.5 C 8.16 163.5 6.87 164.69 6.87 166.69 C 6.87 166.69 6.87 168.49 8.04 169.53 C 8.04 169.53 9.19 170.58 11.18 170.58 M 10.75 169.12 C 10.75 169.12 9.55 169.1 8.83 168.44 C 8.83 168.44 8.12 167.79 8.12 166.71 C 8.12 166.71 8.12 165.48 8.81 164.74 C 8.81 164.74 9.5 164.01 10.76 163.9 L 10.75 169.12 Z "/>
<path transform="matrix(1,0,0,-1,0,400)" d="M 11.52 177.04 C 11.52 177.04 11.52 175.26 11.93 174.58 C 11.93 174.58 12.33 173.89 13.31 173.89 C 13.31 173.89 14.09 173.89 14.55 174.4 C 14.55 174.4 15.01 174.92 15.01 175.8 C 15.01 175.8 15.01 177.02 14.15 177.75 C 14.15 177.75 13.28 178.49 11.85 178.49 L 11.52 178.49 L 11.52 177.04 M 10.92 179.96 L 16 179.96 L 16 178.49 L 14.65 178.49 C 14.65 178.49 15.46 177.99 15.85 177.24 C 15.85 177.24 16.23 176.49 16.23 175.41 C 16.23 175.41 16.23 174.04 15.47 173.23 C 15.47 173.23 14.7 172.43 13.41 172.43 C 13.41 172.43 11.9 172.43 11.14 173.43 C 11.14 173.43 10.38 174.44 10.38 176.44 L 10.38 178.49 L 10.23 178.49 C 10.23 178.49 9.22 178.49 8.67 177.82 C 8.67 177.82 8.12 177.16 8.12 175.96 C 8.12 175.96 8.12 175.2 8.3 174.47 C 8.3 174.47 8.48 173.75 8.85 173.08 L 7.49 173.08 C 7.49 173.08 7.18 173.88 7.03 174.64 C 7.03 174.64 6.87 175.4 6.87 176.11 C 6.87 176.11 6.87 178.05 7.88 179 C 7.88 179 8.88 179.96 10.92 179.96 Z "/>
<path transform="matrix(1,0,0,-1,0,400)" d="M 4.12 188.03 L 4.12 189.65 L 11.34 189.65 C 11.34 189.65 13.25 189.65 14.09 190.34 C 14.09 190.34 14.93 191.03 14.93 192.58 C 14.93 192.58 14.93 194.13 14.09 194.82 C 14.09 194.82 13.25 195.51 11.34 195.51 L 4.12 195.51 L 4.12 197.13 L 11.54 197.13 C 11.54 197.13 13.86 197.13 15.05 195.97 C 15.05 195.97 16.23 194.83 16.23 192.58 C 16.23 192.58 16.23 190.33 15.05 189.18 C 15.05 189.18 13.86 188.03 11.54 188.03 L 4.12 188.03 Z "/>
<path transform="matrix(1,0,0,-1,0,400)" d="M 10.62 207.49 L 16 207.49 L 16 206.02 L 10.67 206.02 C 10.67 206.02 9.4 206.02 8.78 205.53 C 8.78 205.53 8.15 205.04 8.15 204.05 C 8.15 204.05 8.15 202.86 8.9 202.18 C 8.9 202.18 9.66 201.5 10.96 201.5 L 16 201.5 L 16 200.02 L 7.09 200.02 L 7.09 201.5 L 8.47 201.5 C 8.47 201.5 7.67 202.02 7.27 202.73 C 7.27 202.73 6.87 203.45 6.87 204.38 C 6.87 204.38 6.87 205.91 7.83 206.7 C 7.83 206.7 8.78 207.49 10.62 207.49 Z "/>
<path transform="matrix(1,0,0,-1,0,400)" d="M 8.44 216.27 L 3.62 216.27 L 3.62 217.74 L 16 217.74 L 16 216.27 L 14.66 216.27 C 14.66 216.27 15.46 215.81 15.85 215.1 C 15.85 215.1 16.23 214.4 16.23 213.42 C 16.23 213.42 16.23 211.8 14.94 210.78 C 14.94 210.78 13.65 209.77 11.55 209.77 C 11.55 209.77 9.45 209.77 8.16 210.78 C 8.16 210.78 6.87 211.8 6.87 213.42 C 6.87 213.42 6.87 214.4 7.26 215.1 C 7.26 215.1 7.65 215.81 8.44 216.27 M 11.55 211.28 C 11.55 211.28 13.17 211.28 14.09 211.94 C 14.09 211.94 15.01 212.61 15.01 213.77 C 15.01 213.77 15.01 214.94 14.09 215.6 C 14.09 215.6 13.17 216.27 11.55 216.27 C 11.55 216.27 9.94 216.27 9.02 215.6 C 9.02 215.6 8.1 214.94 8.1 213.77 C 8.1 213.77 8.1 212.61 9.02 211.94 C 9.02 211.94 9.94 211.28 11.55 211.28 Z "/>
<path transform="matrix(1,0,0,-1,0,400)" d="M 11.18 228.38 L 11.9 228.38 L 11.9 221.64 C 11.9 221.64 13.41 221.74 14.2 222.55 C 14.2 222.55 14.99 223.37 14.99 224.83 C 14.99 224.83 14.99 225.67 14.78 226.46 C 14.78 226.46 14.58 227.25 14.16 228.03 L 15.55 228.03 C 15.55 228.03 15.88 227.25 16.06 226.42 C 16.06 226.42 16.23 225.59 16.23 224.74 C 16.23 224.74 16.23 222.61 14.99 221.36 C 14.99 221.36 13.75 220.12 11.63 220.12 C 11.63 220.12 9.44 220.12 8.16 221.29 C 8.16 221.29 6.87 222.48 6.87 224.48 C 6.87 224.48 6.87 226.28 8.04 227.33 C 8.04 227.33 9.19 228.38 11.18 228.38 M 10.75 226.91 C 10.75 226.91 9.55 226.9 8.83 226.23 C 8.83 226.23 8.12 225.58 8.12 224.5 C 8.12 224.5 8.12 223.27 8.81 222.53 C 8.81 222.53 9.5 221.8 10.76 221.69 L 10.75 226.91 Z "/>
<path transform="matrix(1,0,0,-1,0,400)" d="M 8.46 235.94 C 8.46 235.94 8.31 235.7 8.25 235.4 C 8.25 235.4 8.18 235.12 8.18 234.76 C 8.18 234.76 8.18 233.52 8.99 232.86 C 8.99 232.86 9.79 232.19 11.31 232.19 L 16 232.19 L 16 230.72 L 7.09 230.72 L 7.09 232.19 L 8.47 232.19 C 8.47 232.19 7.66 232.66 7.27 233.4 C 7.27 233.4 6.87 234.14 6.87 235.19 C 6.87 235.19 6.87 235.35 6.9 235.53 C 6.9 235.53 6.91 235.71 6.95 235.93 L 8.46 235.94 Z "/>
<path transform="matrix(1,0,0,-1,0,400)" d="M 5.04 251.62 L 6.73 251.62 C 6.73 251.62 5.98 250.81 5.6 249.88 C 5.6 249.88 5.23 248.97 5.23 247.93 C 5.23 247.93 5.23 245.9 6.48 244.81 C 6.48 244.81 7.72 243.73 10.07 243.73 C 10.07 243.73 12.42 243.73 13.67 244.81 C 13.67 244.81 14.91 245.9 14.91 247.93 C 14.91 247.93 14.91 248.97 14.54 249.88 C 14.54 249.88 14.16 250.81 13.41 251.62 L 15.09 251.62 C 15.09 251.62 15.66 250.77 15.95 249.83 C 15.95 249.83 16.23 248.89 16.23 247.84 C 16.23 247.84 16.23 245.14 14.58 243.59 C 14.58 243.59 12.93 242.04 10.07 242.04 C 10.07 242.04 7.21 242.04 5.56 243.59 C 5.56 243.59 3.91 245.14 3.91 247.84 C 3.91 247.84 3.91 248.9 4.19 249.84 C 4.19 249.84 4.47 250.79 5.04 251.62 Z "/>
<path transform="matrix(1,0,0,-1,0,400)" d="M 12.48 253.89 L 7.09 253.89 L 7.09 255.35 L 12.43 255.35 C 12.43 255.35 13.69 255.35 14.33 255.84 C 14.33 255.84 14.96 256.34 14.96 257.32 C 14.96 257.32 14.96 258.51 14.2 259.19 C 14.2 259.19 13.45 259.89 12.14 259.89 L 7.09 259.89 L 7.09 261.35 L 16 261.35 L 16 259.89 L 14.63 259.89 C 14.63 259.89 15.44 259.35 15.84 258.64 C 15.84 258.64 16.23 257.94 16.23 257.01 C 16.23 257.01 16.23 255.48 15.28 254.68 C 15.28 254.68 14.32 253.89 12.48 253.89 M 6.87 257.57 L 6.87 257.57 Z "/>
<path transform="matrix(1,0,0,-1,0,400)" d="M 8.46 269.53 C 8.46 269.53 8.31 269.28 8.25 268.99 C 8.25 268.99 8.18 268.7 8.18 268.35 C 8.18 268.35 8.18 267.11 8.99 266.44 C 8.99 266.44 9.79 265.78 11.31 265.78 L 16 265.78 L 16 264.31 L 7.09 264.31 L 7.09 265.78 L 8.47 265.78 C 8.47 265.78 7.66 266.24 7.27 266.98 C 7.27 266.98 6.87 267.72 6.87 268.78 C 6.87 268.78 6.87 268.93 6.9 269.12 C 6.9 269.12 6.91 269.3 6.95 269.52 L 8.46 269.53 Z "/>
<path transform="matrix(1,0,0,-1,0,400)" d="M 7.09 270.02 L 7.09 271.57 L 14.57 274.35 L 7.09 277.14 L 7.09 278.69 L 16 275.35 L 16 273.36 L 7.09 270.02 Z "/>
<path transform="matrix(1,0,0,-1,0,400)" d="M 11.18 288.33 L 11.9 288.33 L 11.9 281.6 C 11.9 281.6 13.41 281.7 14.2 282.51 C 14.2 282.51 14.99 283.33 14.99 284.78 C 14.99 284.78 14.99 285.63 14.78 286.41 C 14.78 286.41 14.58 287.21 14.16 287.99 L 15.55 287.99 C 15.55 287.99 15.88 287.2 16.06 286.37 C 16.06 286.37 16.23 285.55 16.23 284.7 C 16.23 284.7 16.23 282.56 14.99 281.31 C 14.99 281.31 13.75 280.07 11.63 280.07 C 11.63 280.07 9.44 280.07 8.16 281.25 C 8.16 281.25 6.87 282.44 6.87 284.44 C 6.87 284.44 6.87 286.24 8.04 287.28 C 8.04 287.28 9.19 288.33 11.18 288.33 M 10.75 286.87 C 10.75 286.87 9.55 286.85 8.83 286.19 C 8.83 286.19 8.12 285.54 8.12 284.46 C 8.12 284.46 8.12 283.23 8.81 282.49 C 8.81 282.49 9.5 281.76 10.76 281.65 L 10.75 286.87 Z "/>
<clipPath id="cp3">
<path transform="matrix(1,0,0,-1,0,400)" d="M 66.07 44.21 L 588.19 44.21 L 588.19 388.19 L 66.07 388.19 Z "/>
</clipPath>
<g clip-path="url(#cp3)">
<path transform="matrix(1,0,0,-1,0,400)" d="M 97.64 218.2 L 97.64 44.21 L 113.54 44.21 L 113.54 218.2 L 97.64 218.2 " fill="#1b1b1b" fill-rule="evenodd"/>
</g>
<path transform="matrix(1,0,0,-1,0,400)" stroke-width="0" stroke-linecap="round" stroke-linejoin="round" fill="none" stroke="#000000" d="M 97.64 218.2 L 97.64 44.21 L 113.54 44.21 L 113.54 218.2 L 97.64 218.2 "/>
<clipPath id="cp4">
<path transform="matrix(1,0,0,-1,0,400)" d="M 66.07 44.21 L 588.19 44.21 L 588.19 388.19 L 66.07 388.19 Z "/>
</clipPath>
<g clip-path="url(#cp4)">
<path transform="matrix(1,0,0,-1,0,400)" d="M 145.1 213.5 L 145.1 44.21 L 161 44.21 L 161 213.5 L 145.1 213.5 " fill="#1b1b1b" fill-rule="evenodd"/>
</g>
<path transform="matrix(1,0,0,-1,0,400)" stroke-width="0" stroke-linecap="round" stroke-linejoin="round" fill="none" stroke="#000000" d="M 145.1 213.5 L 145.1 44.21 L 161 44.21 L 161 213.5 L 145.1 213.5 "/>
<clipPath id="cp5">
<path transform="matrix(1,0,0,-1,0,400)" d="M 66.07 44.21 L 588.19 44.21 L 588.19 388.19 L 66.07 388.19 Z "/>
</clipPath>
<g clip-path="url(#cp5)">
<path transform="matrix(1,0,0,-1,0,400)" d="M 192.57 221.41 L 192.57 44.21 L 208.47 44.21 L 208.47 221.41 L 192.57 221.41 " fill="#1b1b1b" fill-rule="evenodd"/>
</g>
<path transform="matrix(1,0,0,-1,0,400)" stroke-width="0" stroke-linecap="round" stroke-linejoin="round" fill="none" stroke="#000000" d="M 192.57 221.41 L 192.57 44.21 L 208.47 44.21 L 208.47 221.41 L 192.57 221.41 "/>
<clipPath id="cp6">
<path transform="matrix(1,0,0,-1,0,400)" d="M 66.07 44.21 L 588.19 44.21 L 588.19 388.19 L 66.07 388.19 Z "/>
</clipPath>
<g clip-path="url(#cp6)">
<path transform="matrix(1,0,0,-1,0,400)" d="M 240.03 209.55 L 240.03 44.21 L 255.93 44.21 L 255.93 209.55 L 240.03 209.55 " fill="#1b1b1b" fill-rule="evenodd"/>
</g>
<path transform="matrix(1,0,0,-1,0,400)" stroke-width="0" stroke-linecap="round" stroke-linejoin="round" fill="none" stroke="#000000" d="M 240.03 209.55 L 240.03 44.21 L 255.93 44.21 L 255.93 209.55 L 240.03 209.55 "/>
<clipPath id="cp7">
<path transform="matrix(1,0,0,-1,0,400)" d="M 66.07 44.21 L 588.19 44.21 L 588.19 388.19 L 66.07 388.19 Z "/>
</clipPath>
<g clip-path="url(#cp7)">
<path transform="matrix(1,0,0,-1,0,400)" d="M 287.5 306.26 L 287.5 44.21 L 303.4 44.21 L 303.4 306.26 L 287.5 306.26 " fill="#1b1b1b" fill-rule="evenodd"/>
</g>
<path transform="matrix(1,0,0,-1,0,400)" stroke-width="0" stroke-linecap="round" stroke-linejoin="round" fill="none" stroke="#000000" d="M 287.5 306.26 L 287.5 44.21 L 303.4 44.21 L 303.4 306.26 L 287.5 306.26 "/>
<clipPath id="cp8">
<path transform="matrix(1,0,0,-1,0,400)" d="M 66.07 44.21 L 588.19 44.21 L 588.19 388.19 L 66.07 388.19 Z "/>
</clipPath>
<g clip-path="url(#cp8)">
<path transform="matrix(1,0,0,-1,0,400)" d="M 334.96 239.7 L 334.96 44.21 L 350.86 44.21 L 350.86 239.7 L 334.96 239.7 " fill="#1b1b1b" fill-rule="evenodd"/>
</g>
<path transform="matrix(1,0,0,-1,0,400)" stroke-width="0" stroke-linecap="round" stroke-linejoin="round" fill="none" stroke="#000000" d="M 334.96 239.7 L 334.96 44.21 L 350.86 44.21 L 350.86 239.7 L 334.96 239.7 "/>
<clipPath id="cp9">
<path transform="matrix(1,0,0,-1,0,400)" d="M 66.07 44.21 L 588.19 44.21 L 588.19 388.19 L 66.07 388.19 Z "/>
</clipPath>
<g clip-path="url(#cp9)">
<path transform="matrix(1,0,0,-1,0,400)" d="M 382.43 278.57 L 382.43 44.21 L 398.33 44.21 L 398.33 278.57 L 382.43 278.57 " fill="#1b1b1b" fill-rule="evenodd"/>
</g>
<path transform="matrix(1,0,0,-1,0,400)" stroke-width="0" stroke-linecap="round" stroke-linejoin="round" fill="none" stroke="#000000" d="M 382.43 278.57 L 382.43 44.21 L 398.33 44.21 L 398.33 278.57 L 382.43 278.57 "/>
<clipPath id="cp10">
<path transform="matrix(1,0,0,-1,0,400)" d="M 66.07 44.21 L 588.19 44.21 L 588.19 388.19 L 66.07 388.19 Z "/>
</clipPath>
<g clip-path="url(#cp10)">
<path transform="matrix(1,0,0,-1,0,400)" d="M 429.89 341.29 L 429.89 44.21 L 445.79 44.21 L 445.79 341.29 L 429.89 341.29 " fill="#1b1b1b" fill-rule="evenodd"/>
</g>
<path transform="matrix(1,0,0,-1,0,400)" stroke-width="0" stroke-linecap="round" stroke-linejoin="round" fill="none" stroke="#000000" d="M 429.89 341.29 L 429.89 44.21 L 445.79 44.21 L 445.79 341.29 L 429.89 341.29 "/>
<clipPath id="cp11">
<path transform="matrix(1,0,0,-1,0,400)" d="M 66.07 44.21 L 588.19 44.21 L 588.19 388.19 L 66.07 388.19 Z "/>
</clipPath>
<g clip-path="url(#cp11)">
<path transform="matrix(1,0,0,-1,0,400)" d="M 477.36 220.67 L 477.36 44.21 L 493.26 44.21 L 493.26 220.67 L 477.36 220.67 " fill="#1b1b1b" fill-rule="evenodd"/>
</g>
<path transform="matrix(1,0,0,-1,0,400)" stroke-width="0" stroke-linecap="round" stroke-linejoin="round" fill="none" stroke="#000000" d="M 477.36 220.67 L 477.36 44.21 L 493.26 44.21 L 493.26 220.67 L 477.36 220.67 "/>
<clipPath id="cp12">
<path transform="matrix(1,0,0,-1,0,400)" d="M 66.07 44.21 L 588.19 44.21 L 588.19 388.19 L 66.07 388.19 Z "/>
</clipPath>
<g clip-path="url(#cp12)">
<path transform="matrix(1,0,0,-1,0,400)" d="M 524.82 308.84 L 524.82 44.21 L 540.72 44.21 L 540.72 308.84 L 524.82 308.84 " fill="#1b1b1b" fill-rule="evenodd"/>
</g>
<path transform="matrix(1,0,0,-1,0,400)" stroke-width="0" stroke-linecap="round" stroke-linejoin="round" fill="none" stroke="#000000" d="M 524.82 308.84 L 524.82 44.21 L 540.72 44.21 L 540.72 308.84 L 524.82 308.84 "/>
<path transform="matrix(1,0,0,-1,0,400)" stroke-width=".8" stroke-linecap="round" stroke-linejoin="round" fill="none" stroke="#1b1b1b" stroke-opacity="0" d="M 105.59 218.2 L 105.59 218.2 "/>
<path transform="matrix(1,0,0,-1,0,400)" stroke-width=".8" stroke-linecap="round" stroke-linejoin="round" fill="none" stroke="#1b1b1b" stroke-opacity="0" d="M 153.05 213.5 L 153.05 213.5 "/>
<path transform="matrix(1,0,0,-1,0,400)" stroke-width=".8" stroke-linecap="round" stroke-linejoin="round" fill="none" stroke="#1b1b1b" stroke-opacity="0" d="M 200.52 221.41 L 200.52 221.41 "/>
<path transform="matrix(1,0,0,-1,0,400)" stroke-width=".8" stroke-linecap="round" stroke-linejoin="round" fill="none" stroke="#1b1b1b" stroke-opacity="0" d="M 247.98 209.55 L 247.98 209.55 "/>
<path transform="matrix(1,0,0,-1,0,400)" stroke-width=".8" stroke-linecap="round" stroke-linejoin="round" fill="none" stroke="#1b1b1b" stroke-opacity="0" d="M 295.45 306.26 L 295.45 306.26 "/>
<path transform="matrix(1,0,0,-1,0,400)" stroke-width=".8" stroke-linecap="round" stroke-linejoin="round" fill="none" stroke="#1b1b1b" stroke-opacity="0" d="M 342.91 239.7 L 342.91 239.7 "/>
<path transform="matrix(1,0,0,-1,0,400)" stroke-width=".8" stroke-linecap="round" stroke-linejoin="round" fill="none" stroke="#1b1b1b" stroke-opacity="0" d="M 390.38 278.57 L 390.38 278.57 "/>
<path transform="matrix(1,0,0,-1,0,400)" stroke-width=".8" stroke-linecap="round" stroke-linejoin="round" fill="none" stroke="#1b1b1b" stroke-opacity="0" d="M 437.84 341.29 L 437.84 341.29 "/>
<path transform="matrix(1,0,0,-1,0,400)" stroke-width=".8" stroke-linecap="round" stroke-linejoin="round" fill="none" stroke="#1b1b1b" stroke-opacity="0" d="M 485.31 220.67 L 485.31 220.67 "/>
<path transform="matrix(1,0,0,-1,0,400)" stroke-width=".8" stroke-linecap="round" stroke-linejoin="round" fill="none" stroke="#1b1b1b" stroke-opacity="0" d="M 532.77 308.84 L 532.77 308.84 "/>
<clipPath id="cp13">
<path transform="matrix(1,0,0,-1,0,400)" d="M 66.07 44.21 L 588.19 44.21 L 588.19 388.19 L 66.07 388.19 Z "/>
</clipPath>
<g clip-path="url(#cp13)">
<path transform="matrix(1,0,0,-1,0,400)" d="M 113.54 218.19 L 113.54 44.21 L 129.44 44.21 L 129.44 218.19 L 113.54 218.19 " fill="#a2a2a2" fill-rule="evenodd"/>
</g>
<path transform="matrix(1,0,0,-1,0,400)" stroke-width="0" stroke-linecap="round" stroke-linejoin="round" fill="none" stroke="#000000" d="M 113.54 218.19 L 113.54 44.21 L 129.44 44.21 L 129.44 218.19 L 113.54 218.19 "/>
<clipPath id="cp14">
<path transform="matrix(1,0,0,-1,0,400)" d="M 66.07 44.21 L 588.19 44.21 L 588.19 388.19 L 66.07 388.19 Z "/>
</clipPath>
<g clip-path="url(#cp14)">
<path transform="matrix(1,0,0,-1,0,400)" d="M 161 213.49 L 161 44.21 L 176.9 44.21 L 176.9 213.49 L 161 213.49 " fill="#a2a2a2" fill-rule="evenodd"/>
</g>
<path transform="matrix(1,0,0,-1,0,400)" stroke-width="0" stroke-linecap="round" stroke-linejoin="round" fill="none" stroke="#000000" d="M 161 213.49 L 161 44.21 L 176.9 44.21 L 176.9 213.49 L 161 213.49 "/>
<clipPath id="cp15">
<path transform="matrix(1,0,0,-1,0,400)" d="M 66.07 44.21 L 588.19 44.21 L 588.19 388.19 L 66.07 388.19 Z "/>
</clipPath>
<g clip-path="url(#cp15)">
<path transform="matrix(1,0,0,-1,0,400)" d="M 208.47 221.43 L 208.47 44.21 L 224.37 44.21 L 224.37 221.43 L 208.47 221.43 " fill="#a2a2a2" fill-rule="evenodd"/>
</g>
<path transform="matrix(1,0,0,-1,0,400)" stroke-width="0" stroke-linecap="round" stroke-linejoin="round" fill="none" stroke="#000000" d="M 208.47 221.43 L 208.47 44.21 L 224.37 44.21 L 224.37 221.43 L 208.47 221.43 "/>
<clipPath id="cp16">
<path transform="matrix(1,0,0,-1,0,400)" d="M 66.07 44.21 L 588.19 44.21 L 588.19 388.19 L 66.07 388.19 Z "/>
</clipPath>
<g clip-path="url(#cp16)">
<path transform="matrix(1,0,0,-1,0,400)" d="M 255.93 209.52 L 255.93 44.21 L 271.83 44.21 L 271.83 209.52 L 255.93 209.52 " fill="#a2a2a2" fill-rule="evenodd"/>
</g>
<path transform="matrix(1,0,0,-1,0,400)" stroke-width="0" stroke-linecap="round" stroke-linejoin="round" fill="none" stroke="#000000" d="M 255.93 209.52 L 255.93 44.21 L 271.83 44.21 L 271.83 209.52 L 255.93 209.52 "/>
<clipPath id="cp17">
<path transform="matrix(1,0,0,-1,0,400)" d="M 66.07 44.21 L 588.19 44.21 L 588.19 388.19 L 66.07 388.19 Z "/>
</clipPath>
<g clip-path="url(#cp17)">
<path transform="matrix(1,0,0,-1,0,400)" d="M 303.4 306.14 L 303.4 44.21 L 319.3 44.21 L 319.3 306.14 L 303.4 306.14 " fill="#a2a2a2" fill-rule="evenodd"/>
</g>
<path transform="matrix(1,0,0,-1,0,400)" stroke-width="0" stroke-linecap="round" stroke-linejoin="round" fill="none" stroke="#000000" d="M 303.4 306.14 L 303.4 44.21 L 319.3 44.21 L 319.3 306.14 L 303.4 306.14 "/>
<clipPath id="cp18">
<path transform="matrix(1,0,0,-1,0,400)" d="M 66.07 44.21 L 588.19 44.21 L 588.19 388.19 L 66.07 388.19 Z "/>
</clipPath>
<g clip-path="url(#cp18)">
<path transform="matrix(1,0,0,-1,0,400)" d="M 350.86 239.68 L 350.86 44.21 L 366.76 44.21 L 366.76 239.68 L 350.86 239.68 " fill="#a2a2a2" fill-rule="evenodd"/>
</g>
<path transform="matrix(1,0,0,-1,0,400)" stroke-width="0" stroke-linecap="round" stroke-linejoin="round" fill="none" stroke="#000000" d="M 350.86 239.68 L 350.86 44.21 L 366.76 44.21 L 366.76 239.68 L 350.86 239.68 "/>
<clipPath id="cp19">
<path transform="matrix(1,0,0,-1,0,400)" d="M 66.07 44.21 L 588.19 44.21 L 588.19 388.19 L 66.07 388.19 Z "/>
</clipPath>
<g clip-path="url(#cp19)">
<path transform="matrix(1,0,0,-1,0,400)" d="M 398.33 278.56 L 398.33 44.21 L 414.23 44.21 L 414.23 278.56 L 398.33 278.56 " fill="#a2a2a2" fill-rule="evenodd"/>
</g>
<path transform="matrix(1,0,0,-1,0,400)" stroke-width="0" stroke-linecap="round" stroke-linejoin="round" fill="none" stroke="#000000" d="M 398.33 278.56 L 398.33 44.21 L 414.23 44.21 L 414.23 278.56 L 398.33 278.56 "/>
<clipPath id="cp20">
<path transform="matrix(1,0,0,-1,0,400)" d="M 66.07 44.21 L 588.19 44.21 L 588.19 388.19 L 66.07 388.19 Z "/>
</clipPath>
<g clip-path="url(#cp20)">
<path transform="matrix(1,0,0,-1,0,400)" d="M 445.79 341.21 L 445.79 44.21 L 461.69 44.21 L 461.69 341.21 L 445.79 341.21 " fill="#a2a2a2" fill-rule="evenodd"/>
</g>
<path transform="matrix(1,0,0,-1,0,400)" stroke-width="0" stroke-linecap="round" stroke-linejoin="round" fill="none" stroke="#000000" d="M 445.79 341.21 L 445.79 44.21 L 461.69 44.21 L 461.69 341.21 L 445.79 341.21 "/>
<clipPath id="cp21">
<path transform="matrix(1,0,0,-1,0,400)" d="M 66.07 44.21 L 588.19 44.21 L 588.19 388.19 L 66.07 388.19 Z "/>
</clipPath>
<g clip-path="url(#cp21)">
<path transform="matrix(1,0,0,-1,0,400)" d="M 493.26 220.65 L 493.26 44.21 L 509.16 44.21 L 509.16 220.65 L 493.26 220.65 " fill="#a2a2a2" fill-rule="evenodd"/>
</g>
<path transform="matrix(1,0,0,-1,0,400)" stroke-width="0" stroke-linecap="round" stroke-linejoin="round" fill="none" stroke="#000000" d="M 493.26 220.65 L 493.26 44.21 L 509.16 44.21 L 509.16 220.65 L 493.26 220.65 "/>
<clipPath id="cp22">
<path transform="matrix(1,0,0,-1,0,400)" d="M 66.07 44.21 L 588.19 44.21 L 588.19 388.19 L 66.07 388.19 Z "/>
</clipPath>
<g clip-path="url(#cp22)">
<path transform="matrix(1,0,0,-1,0,400)" d="M 540.72 308.8 L 540.72 44.21 L 556.62 44.21 L 556.62 308.8 L 540.72 308.8 " fill="#a2a2a2" fill-rule="evenodd"/>
</g>
<path transform="matrix(1,0,0,-1,0,400)" stroke-width="0" stroke-linecap="round" stroke-linejoin="round" fill="none" stroke="#000000" d="M 540.72 308.8 L 540.72 44.21 L 556.62 44.21 L 556.62 308.8 L 540.72 308.8 "/>
<path transform="matrix(1,0,0,-1,0,400)" stroke-width=".8" stroke-linecap="round" stroke-linejoin="round" fill="none" stroke="#a2a2a2" stroke-opacity="0" d="M 121.49 218.19 L 121.49 218.19 "/>
<path transform="matrix(1,0,0,-1,0,400)" stroke-width=".8" stroke-linecap="round" stroke-linejoin="round" fill="none" stroke="#a2a2a2" stroke-opacity="0" d="M 168.95 213.49 L 168.95 213.49 "/>
<path transform="matrix(1,0,0,-1,0,400)" stroke-width=".8" stroke-linecap="round" stroke-linejoin="round" fill="none" stroke="#a2a2a2" stroke-opacity="0" d="M 216.42 221.43 L 216.42 221.43 "/>
<path transform="matrix(1,0,0,-1,0,400)" stroke-width=".8" stroke-linecap="round" stroke-linejoin="round" fill="none" stroke="#a2a2a2" stroke-opacity="0" d="M 263.88 209.52 L 263.88 209.52 "/>
<path transform="matrix(1,0,0,-1,0,400)" stroke-width=".8" stroke-linecap="round" stroke-linejoin="round" fill="none" stroke="#a2a2a2" stroke-opacity="0" d="M 311.35 306.14 L 311.35 306.14 "/>
<path transform="matrix(1,0,0,-1,0,400)" stroke-width=".8" stroke-linecap="round" stroke-linejoin="round" fill="none" stroke="#a2a2a2" stroke-opacity="0" d="M 358.81 239.68 L 358.81 239.68 "/>
<path transform="matrix(1,0,0,-1,0,400)" stroke-width=".8" stroke-linecap="round" stroke-linejoin="round" fill="none" stroke="#a2a2a2" stroke-opacity="0" d="M 406.28 278.56 L 406.28 278.56 "/>
<path transform="matrix(1,0,0,-1,0,400)" stroke-width=".8" stroke-linecap="round" stroke-linejoin="round" fill="none" stroke="#a2a2a2" stroke-opacity="0" d="M 453.74 341.21 L 453.74 341.21 "/>
<path transform="matrix(1,0,0,-1,0,400)" stroke-width=".8" stroke-linecap="round" stroke-linejoin="round" fill="none" stroke="#a2a2a2" stroke-opacity="0" d="M 501.21 220.65 L 501.21 220.65 "/>
<path transform="matrix(1,0,0,-1,0,400)" stroke-width=".8" stroke-linecap="round" stroke-linejoin="round" fill="none" stroke="#a2a2a2" stroke-opacity="0" d="M 548.67 308.8 L 548.67 308.8 "/>
<clipPath id="cp23">
<path transform="matrix(1,0,0,-1,0,400)" d="M 0 0 L 600 0 L 600 600 L 0 600 Z "/>
</clipPath>
<g clip-path="url(#cp23)">
<path transform="matrix(1,0,0,-1,0,400)" d="M 460.54 337.84 L 570.79 337.84 L 570.79 376.72 L 460.54 376.72 " fill="#ffffff" fill-rule="evenodd"/>
</g>
<path transform="matrix(1,0,0,-1,0,400)" stroke-width="1" stroke-linecap="round" stroke-linejoin="round" fill="none" stroke="#000000" stroke-opacity="0" d="M 460.54 337.84 L 570.79 337.84 L 570.79 376.72 L 460.54 376.72 L 460.54 337.84 "/>
<path transform="matrix(1,0,0,-1,0,400)" d="M 483.75 368.88 C 480.92 368.88 478.63 366.59 478.63 363.76 C 478.63 360.94 480.92 358.64 483.75 358.64 C 486.57 358.64 488.87 360.94 488.87 363.76 C 488.87 366.59 486.57 368.88 483.75 368.88 " fill="#1b1b1b" fill-rule="evenodd"/>
<path transform="matrix(1,0,0,-1,0,400)" d="M 512.51 367.8 L 512.51 366.66 C 512.51 366.66 511.85 366.98 511.26 367.13 C 511.26 367.13 510.67 367.29 510.12 367.29 C 510.12 367.29 509.16 367.29 508.64 366.92 C 508.64 366.92 508.13 366.55 508.13 365.87 C 508.13 365.87 508.13 365.29 508.47 365 C 508.47 365 508.82 364.71 509.78 364.53 L 510.48 364.38 C 510.48 364.38 511.79 364.14 512.41 363.51 C 512.41 363.51 513.03 362.88 513.03 361.83 C 513.03 361.83 513.03 360.57 512.19 359.92 C 512.19 359.92 511.35 359.28 509.72 359.28 C 509.72 359.28 509.11 359.28 508.42 359.41 C 508.42 359.41 507.73 359.55 506.99 359.82 L 506.99 361.03 C 506.99 361.03 507.7 360.63 508.38 360.43 C 508.38 360.43 509.06 360.22 509.72 360.22 C 509.72 360.22 510.72 360.22 511.27 360.62 C 511.27 360.62 511.81 361.01 511.81 361.74 C 511.81 361.74 511.81 362.38 511.42 362.74 C 511.42 362.74 511.03 363.09 510.14 363.27 L 509.43 363.41 C 509.43 363.41 508.12 363.67 507.54 364.23 C 507.54 364.23 506.95 364.78 506.95 365.77 C 506.95 365.77 506.95 366.92 507.76 367.58 C 507.76 367.58 508.57 368.24 509.98 368.24 C 509.98 368.24 510.59 368.24 511.22 368.13 C 511.22 368.13 511.85 368.02 512.51 367.8 Z "/>
<path transform="matrix(1,0,0,-1,0,400)" d="M 514.81 365.92 L 515.88 365.92 L 515.88 359.44 L 514.81 359.44 L 514.81 365.92 M 514.81 368.45 L 515.88 368.45 L 515.88 367.1 L 514.81 367.1 L 514.81 368.45 Z "/>
<path transform="matrix(1,0,0,-1,0,400)" d="M 523.15 364.68 C 523.15 364.68 523.55 365.4 524.1 365.74 C 524.1 365.74 524.66 366.08 525.41 366.08 C 525.41 366.08 526.42 366.08 526.97 365.37 C 526.97 365.37 527.52 364.66 527.52 363.35 L 527.52 359.44 L 526.45 359.44 L 526.45 363.32 C 526.45 363.32 526.45 364.25 526.12 364.7 C 526.12 364.7 525.79 365.15 525.12 365.15 C 525.12 365.15 524.29 365.15 523.81 364.6 C 523.81 364.6 523.33 364.06 523.33 363.11 L 523.33 359.44 L 522.26 359.44 L 522.26 363.32 C 522.26 363.32 522.26 364.26 521.93 364.7 C 521.93 364.7 521.6 365.15 520.91 365.15 C 520.91 365.15 520.09 365.15 519.61 364.6 C 519.61 364.6 519.13 364.05 519.13 363.11 L 519.13 359.44 L 518.06 359.44 L 518.06 365.92 L 519.13 365.92 L 519.13 364.92 C 519.13 364.92 519.5 365.51 520.01 365.8 C 520.01 365.8 520.52 366.08 521.22 366.08 C 521.22 366.08 521.92 366.08 522.41 365.72 C 522.41 365.72 522.91 365.36 523.15 364.68 Z "/>
<path transform="matrix(1,0,0,-1,0,400)" d="M 529.54 362 L 529.54 365.92 L 530.6 365.92 L 530.6 362.04 C 530.6 362.04 530.6 361.12 530.96 360.66 C 530.96 360.66 531.32 360.2 532.04 360.2 C 532.04 360.2 532.9 360.2 533.4 360.75 C 533.4 360.75 533.9 361.3 533.9 362.25 L 533.9 365.92 L 534.97 365.92 L 534.97 359.44 L 533.9 359.44 L 533.9 360.44 C 533.9 360.44 533.51 359.85 533 359.56 C 533 359.56 532.49 359.28 531.81 359.28 C 531.81 359.28 530.7 359.28 530.12 359.97 C 530.12 359.97 529.54 360.66 529.54 362 M 532.22 366.08 L 532.22 366.08 Z "/>
<path transform="matrix(1,0,0,-1,0,400)" d="M 537.16 368.45 L 538.22 368.45 L 538.22 359.44 L 537.16 359.44 L 537.16 368.45 Z "/>
<path transform="matrix(1,0,0,-1,0,400)" d="M 543.4 362.7 C 543.4 362.7 542.11 362.7 541.61 362.41 C 541.61 362.41 541.11 362.11 541.11 361.4 C 541.11 361.4 541.11 360.83 541.48 360.5 C 541.48 360.5 541.86 360.17 542.5 360.17 C 542.5 360.17 543.39 360.17 543.92 360.79 C 543.92 360.79 544.46 361.42 544.46 362.46 L 544.46 362.7 L 543.4 362.7 M 545.52 363.14 L 545.52 359.44 L 544.46 359.44 L 544.46 360.43 C 544.46 360.43 544.09 359.84 543.55 359.55 C 543.55 359.55 543 359.28 542.22 359.28 C 542.22 359.28 541.22 359.28 540.63 359.83 C 540.63 359.83 540.05 360.39 540.05 361.33 C 540.05 361.33 540.05 362.42 540.78 362.98 C 540.78 362.98 541.51 363.53 542.96 363.53 L 544.46 363.53 L 544.46 363.64 C 544.46 363.64 544.46 364.37 543.97 364.77 C 543.97 364.77 543.49 365.18 542.62 365.18 C 542.62 365.18 542.06 365.18 541.53 365.04 C 541.53 365.04 541.01 364.91 540.52 364.65 L 540.52 365.63 C 540.52 365.63 541.11 365.85 541.66 365.96 C 541.66 365.96 542.21 366.08 542.73 366.08 C 542.73 366.08 544.13 366.08 544.83 365.35 C 544.83 365.35 545.52 364.62 545.52 363.14 Z "/>
<path transform="matrix(1,0,0,-1,0,400)" d="M 548.77 367.76 L 548.77 365.92 L 550.96 365.92 L 550.96 365.1 L 548.77 365.1 L 548.77 361.58 C 548.77 361.58 548.77 360.79 548.98 360.56 C 548.98 360.56 549.2 360.33 549.87 360.33 L 550.96 360.33 L 550.96 359.44 L 549.87 359.44 C 549.87 359.44 548.64 359.44 548.17 359.9 C 548.17 359.9 547.7 360.36 547.7 361.58 L 547.7 365.1 L 546.92 365.1 L 546.92 365.92 L 547.7 365.92 L 547.7 367.76 L 548.77 367.76 Z "/>
<path transform="matrix(1,0,0,-1,0,400)" d="M 557.91 362.95 L 557.91 362.43 L 553.01 362.43 C 553.01 362.43 553.08 361.33 553.67 360.75 C 553.67 360.75 554.27 360.18 555.33 360.18 C 555.33 360.18 555.94 360.18 556.51 360.33 C 556.51 360.33 557.09 360.48 557.66 360.78 L 557.66 359.77 C 557.66 359.77 557.08 359.53 556.48 359.4 C 556.48 359.4 555.88 359.28 555.26 359.28 C 555.26 359.28 553.71 359.28 552.8 360.18 C 552.8 360.18 551.9 361.08 551.9 362.62 C 551.9 362.62 551.9 364.21 552.76 365.14 C 552.76 365.14 553.62 366.08 555.08 366.08 C 555.08 366.08 556.38 366.08 557.14 365.24 C 557.14 365.24 557.91 364.4 557.91 362.95 M 556.84 363.26 C 556.84 363.26 556.83 364.14 556.35 364.66 C 556.35 364.66 555.88 365.18 555.09 365.18 C 555.09 365.18 554.2 365.18 553.66 364.67 C 553.66 364.67 553.13 364.17 553.05 363.26 L 556.84 363.26 Z "/>
<path transform="matrix(1,0,0,-1,0,400)" d="M 563.92 364.94 L 563.92 368.45 L 564.98 368.45 L 564.98 359.44 L 563.92 359.44 L 563.92 360.42 C 563.92 360.42 563.58 359.84 563.07 359.55 C 563.07 359.55 562.56 359.28 561.84 359.28 C 561.84 359.28 560.67 359.28 559.93 360.21 C 559.93 360.21 559.19 361.15 559.19 362.68 C 559.19 362.68 559.19 364.21 559.93 365.14 C 559.93 365.14 560.67 366.08 561.84 366.08 C 561.84 366.08 562.56 366.08 563.07 365.8 C 563.07 365.8 563.58 365.52 563.92 364.94 M 560.29 362.68 C 560.29 362.68 560.29 361.5 560.77 360.83 C 560.77 360.83 561.26 360.17 562.1 360.17 C 562.1 360.17 562.95 360.17 563.43 360.83 C 563.43 360.83 563.92 361.5 563.92 362.68 C 563.92 362.68 563.92 363.85 563.43 364.52 C 563.43 364.52 562.95 365.19 562.1 365.19 C 562.1 365.19 561.26 365.19 560.77 364.52 C 560.77 364.52 560.29 363.85 560.29 362.68 Z "/>
<path transform="matrix(1,0,0,-1,0,400)" d="M 483.75 355.92 C 480.92 355.92 478.63 353.63 478.63 350.8 C 478.63 347.98 480.92 345.68 483.75 345.68 C 486.57 345.68 488.87 347.98 488.87 350.8 C 488.87 353.63 486.57 355.92 483.75 355.92 " fill="#a2a2a2" fill-rule="evenodd"/>
<path transform="matrix(1,0,0,-1,0,400)" d="M 510.91 353.97 L 509.32 349.67 L 512.5 349.67 L 510.91 353.97 M 510.25 355.12 L 511.58 355.12 L 514.87 346.48 L 513.65 346.48 L 512.87 348.7 L 508.97 348.7 L 508.18 346.48 L 506.95 346.48 L 510.25 355.12 Z "/>
<path transform="matrix(1,0,0,-1,0,400)" d="M 520.54 352.72 L 520.54 351.72 C 520.54 351.72 520.09 351.97 519.63 352.09 C 519.63 352.09 519.18 352.22 518.72 352.22 C 518.72 352.22 517.68 352.22 517.11 351.56 C 517.11 351.56 516.53 350.9 516.53 349.72 C 516.53 349.72 516.53 348.53 517.11 347.87 C 517.11 347.87 517.68 347.22 518.72 347.22 C 518.72 347.22 519.18 347.22 519.63 347.34 C 519.63 347.34 520.09 347.47 520.54 347.72 L 520.54 346.73 C 520.54 346.73 520.09 346.52 519.61 346.42 C 519.61 346.42 519.14 346.32 518.6 346.32 C 518.6 346.32 517.14 346.32 516.27 347.24 C 516.27 347.24 515.41 348.16 515.41 349.72 C 515.41 349.72 515.41 351.3 516.28 352.21 C 516.28 352.21 517.15 353.12 518.67 353.12 C 518.67 353.12 519.16 353.12 519.63 353.02 C 519.63 353.02 520.1 352.92 520.54 352.72 Z "/>
<path transform="matrix(1,0,0,-1,0,400)" d="M 523.44 354.8 L 523.44 352.96 L 525.64 352.96 L 525.64 352.14 L 523.44 352.14 L 523.44 348.62 C 523.44 348.62 523.44 347.83 523.66 347.6 C 523.66 347.6 523.88 347.37 524.54 347.37 L 525.64 347.37 L 525.64 346.48 L 524.54 346.48 C 524.54 346.48 523.31 346.48 522.84 346.94 C 522.84 346.94 522.37 347.4 522.37 348.62 L 522.37 352.14 L 521.59 352.14 L 521.59 352.96 L 522.37 352.96 L 522.37 354.8 L 523.44 354.8 Z "/>
<path transform="matrix(1,0,0,-1,0,400)" d="M 526.93 349.04 L 526.93 352.96 L 527.99 352.96 L 527.99 349.08 C 527.99 349.08 527.99 348.16 528.35 347.7 C 528.35 347.7 528.71 347.24 529.43 347.24 C 529.43 347.24 530.29 347.24 530.79 347.79 C 530.79 347.79 531.29 348.34 531.29 349.29 L 531.29 352.96 L 532.36 352.96 L 532.36 346.48 L 531.29 346.48 L 531.29 347.48 C 531.29 347.48 530.9 346.89 530.39 346.6 C 530.39 346.6 529.88 346.32 529.2 346.32 C 529.2 346.32 528.09 346.32 527.51 347.01 C 527.51 347.01 526.93 347.7 526.93 349.04 M 529.61 353.12 L 529.61 353.12 Z "/>
<path transform="matrix(1,0,0,-1,0,400)" d="M 537.5 349.74 C 537.5 349.74 536.2 349.74 535.71 349.45 C 535.71 349.45 535.21 349.15 535.21 348.44 C 535.21 348.44 535.21 347.87 535.58 347.54 C 535.58 347.54 535.96 347.21 536.6 347.21 C 536.6 347.21 537.48 347.21 538.02 347.83 C 538.02 347.83 538.55 348.46 538.55 349.5 L 538.55 349.74 L 537.5 349.74 M 539.62 350.18 L 539.62 346.48 L 538.55 346.48 L 538.55 347.47 C 538.55 347.47 538.19 346.88 537.65 346.59 C 537.65 346.59 537.1 346.32 536.31 346.32 C 536.31 346.32 535.32 346.32 534.73 346.87 C 534.73 346.87 534.14 347.43 534.14 348.37 C 534.14 348.37 534.14 349.46 534.87 350.02 C 534.87 350.02 535.61 350.57 537.06 350.57 L 538.55 350.57 L 538.55 350.68 C 538.55 350.68 538.55 351.41 538.07 351.81 C 538.07 351.81 537.59 352.22 536.71 352.22 C 536.71 352.22 536.16 352.22 535.63 352.08 C 535.63 352.08 535.11 351.95 534.62 351.69 L 534.62 352.67 C 534.62 352.67 535.2 352.89 535.75 353 C 535.75 353 536.3 353.12 536.82 353.12 C 536.82 353.12 538.23 353.12 538.92 352.39 C 538.92 352.39 539.62 351.66 539.62 350.18 Z "/>
<path transform="matrix(1,0,0,-1,0,400)" d="M 541.81 355.49 L 542.88 355.49 L 542.88 346.48 L 541.81 346.48 L 541.81 355.49 Z "/>
</g>
</g>
</svg>
