<svg xmlns="http://www.w3.org/2000/svg" xmlns:xlink="http://www.w3.org/1999/xlink" version="1.1" width="600pt" height="400pt" viewBox="0 0 600 400">
<defs>
<clipPath id="clip_0">
<path transform="matrix(1,0,0,-1,0,400)" d="M0 0H600V400H0Z"/>
</clipPath>
<clipPath id="clip_1">
<path transform="matrix(1,0,0,-1,0,400)" d="M0 0H600V600H0Z"/>
</clipPath>
<clipPath id="clip_2">
<path transform="matrix(1,0,0,-1,0,400)" d="M0 0H600V600H0Z"/>
</clipPath>
<clipPath id="clip_3">
<path transform="matrix(1,0,0,-1,0,400)" d="M66.07 44.21H588.19V388.19H66.07Z"/>
</clipPath>
<clipPath id="clip_4">
<path transform="matrix(1,0,0,-1,0,400)" d="M66.07 44.21H588.19V388.19H66.07Z"/>
</clipPath>
<clipPath id="clip_5">
<path transform="matrix(1,0,0,-1,0,400)" d="M66.07 44.21H588.19V388.19H66.07Z"/>
</clipPath>
<clipPath id="clip_6">
<path transform="matrix(1,0,0,-1,0,400)" d="M66.07 44.21H588.19V388.19H66.07Z"/>
</clipPath>
<clipPath id="clip_7">
<path transform="matrix(1,0,0,-1,0,400)" d="M66.07 44.21H588.19V388.19H66.07Z"/>
</clipPath>
<clipPath id="clip_8">
<path transform="matrix(1,0,0,-1,0,400)" d="M66.07 44.21H588.19V388.19H66.07Z"/>
</clipPath>
<clipPath id="clip_9">
<path transform="matrix(1,0,0,-1,0,400)" d="M66.07 44.21H588.19V388.19H66.07Z"/>
</clipPath>
<clipPath id="clip_10">
<path transform="matrix(1,0,0,-1,0,400)" d="M66.07 44.21H588.19V388.19H66.07Z"/>
</clipPath>
<clipPath id="clip_11">
<path transform="matrix(1,0,0,-1,0,400)" d="M66.07 44.21H588.19V388.19H66.07Z"/>
</clipPath>
<clipPath id="clip_12">
<path transform="matrix(1,0,0,-1,0,400)" d="M66.07 44.21H588.19V388.19H66.07Z"/>
</clipPath>
<clipPath id="clip_13">
<path transform="matrix(1,0,0,-1,0,400)" d="M66.07 44.21H588.19V388.19H66.07Z"/>
</clipPath>
<clipPath id="clip_14">
<path transform="matrix(1,0,0,-1,0,400)" d="M66.07 44.21H588.19V388.19H66.07Z"/>
</clipPath>
<clipPath id="clip_15">
<path transform="matrix(1,0,0,-1,0,400)" d="M66.07 44.21H588.19V388.19H66.07Z"/>
</clipPath>
<clipPath id="clip_16">
<path transform="matrix(1,0,0,-1,0,400)" d="M66.07 44.21H588.19V388.19H66.07Z"/>
</clipPath>
<clipPath id="clip_17">
<path transform="matrix(1,0,0,-1,0,400)" d="M66.07 44.21H588.19V388.19H66.07Z"/>
</clipPath>
<clipPath id="clip_18">
<path transform="matrix(1,0,0,-1,0,400)" d="M66.07 44.21H588.19V388.19H66.07Z"/>
</clipPath>
<clipPath id="clip_19">
<path transform="matrix(1,0,0,-1,0,400)" d="M66.07 44.21H588.19V388.19H66.07Z"/>
</clipPath>
<clipPath id="clip_20">
<path transform="matrix(1,0,0,-1,0,400)" d="M66.07 44.21H588.19V388.19H66.07Z"/>
</clipPath>
<clipPath id="clip_21">
<path transform="matrix(1,0,0,-1,0,400)" d="M66.07 44.21H588.19V388.19H66.07Z"/>
</clipPath>
<clipPath id="clip_22">
<path transform="matrix(1,0,0,-1,0,400)" d="M66.07 44.21H588.19V388.19H66.07Z"/>
</clipPath>
<clipPath id="clip_23">
<path transform="matrix(1,0,0,-1,0,400)" d="M0 0H600V600H0Z"/>
</clipPath>
</defs>
<g clip-path="url(#clip_0)">
<g clip-path="url(#clip_1)">
<path transform="matrix(1,0,0,-1,0,400)" d="M0 0H600V400H0" fill="#ffffff" fill-rule="evenodd"/>
</g>
<g clip-path="url(#clip_2)">
<path transform="matrix(1,0,0,-1,0,400)" d="M66.07 44.21H588.19V388.19H66.07" fill="#ffffff" fill-rule="evenodd"/>
</g>
<path transform="matrix(1,0,0,-1,0,400)" stroke-width="1" stroke-linecap="round" stroke-linejoin="round" fill="none" stroke="#000000" d="M66.07 44.21H588.19"/>
<path transform="matrix(1,0,0,-1,0,400)" stroke-width="1" stroke-linecap="round" stroke-linejoin="round" fill="none" stroke="#000000" d="M113.54 44.21V48.93"/>
<path transform="matrix(1,0,0,-1,0,400)" stroke-width="1" stroke-linecap="round" stroke-linejoin="round" fill="none" stroke="#000000" d="M161 44.21V48.93"/>
<path transform="matrix(1,0,0,-1,0,400)" stroke-width="1" stroke-linecap="round" stroke-linejoin="round" fill="none" stroke="#000000" d="M208.47 44.21V48.93"/>
<path transform="matrix(1,0,0,-1,0,400)" stroke-width="1" stroke-linecap="round" stroke-linejoin="round" fill="none" stroke="#000000" d="M255.93 44.21V48.93"/>
<path transform="matrix(1,0,0,-1,0,400)" stroke-width="1" stroke-linecap="round" stroke-linejoin="round" fill="none" stroke="#000000" d="M303.4 44.21V48.93"/>
<path transform="matrix(1,0,0,-1,0,400)" stroke-width="1" stroke-linecap="round" stroke-linejoin="round" fill="none" stroke="#000000" d="M350.86 44.21V48.93"/>
<path transform="matrix(1,0,0,-1,0,400)" stroke-width="1" stroke-linecap="round" stroke-linejoin="round" fill="none" stroke="#000000" d="M398.33 44.21V48.93"/>
<path transform="matrix(1,0,0,-1,0,400)" stroke-width="1" stroke-linecap="round" stroke-linejoin="round" fill="none" stroke="#000000" d="M445.79 44.21V48.93"/>
<path transform="matrix(1,0,0,-1,0,400)" stroke-width="1" stroke-linecap="round" stroke-linejoin="round" fill="none" stroke="#000000" d="M493.26 44.21V48.93"/>
<path transform="matrix(1,0,0,-1,0,400)" stroke-width="1" stroke-linecap="round" stroke-linejoin="round" fill="none" stroke="#000000" d="M540.72 44.21V48.93"/>
<path transform="matrix(1,0,0,-1,0,400)" d="M111.13 29.59H113.04V36.18L110.96 35.76V36.83L113.03 37.25H114.2V29.59H116.11V28.61H111.13V29.59Z"/>
<path transform="matrix(1,0,0,-1,0,400)" d="M159.67 29.59H163.75V28.61H158.26V29.59C158.26 29.59 158.92 30.28 160.07 31.43 160.07 31.43 161.22 32.6 161.52 32.93 161.52 32.93 162.08 33.56 162.3 34 162.3 34 162.52 34.44 162.52 34.86 162.52 34.86 162.52 35.55 162.04 35.98 162.04 35.98 161.56 36.42 160.78 36.42 160.78 36.42 160.23 36.42 159.62 36.23 159.62 36.23 159.01 36.04 158.32 35.65V36.83C158.32 36.83 159.02 37.11 159.64 37.26 159.64 37.26 160.25 37.4 160.76 37.4 160.76 37.4 162.1 37.4 162.9 36.73 162.9 36.73 163.7 36.06 163.7 34.94 163.7 34.94 163.7 34.4 163.5 33.92 163.5 33.92 163.3 33.45 162.77 32.8 162.77 32.8 162.63 32.63 161.85 31.83 161.85 31.83 161.08 31.03 159.67 29.59Z"/>
<path transform="matrix(1,0,0,-1,0,400)" d="M209.53 33.26C209.53 33.26 210.37 33.08 210.84 32.52 210.84 32.52 211.31 31.95 211.31 31.12 211.31 31.12 211.31 29.84 210.43 29.14 210.43 29.14 209.55 28.44 207.93 28.44 207.93 28.44 207.39 28.44 206.81 28.55 206.81 28.55 206.24 28.65 205.62 28.87V29.99C205.62 29.99 206.11 29.71 206.69 29.57 206.69 29.57 207.27 29.42 207.9 29.42 207.9 29.42 209 29.42 209.57 29.86 209.57 29.86 210.15 30.29 210.15 31.12 210.15 31.12 210.15 31.88 209.61 32.31 209.61 32.31 209.08 32.74 208.12 32.74H207.12V33.7H208.17C208.17 33.7 209.03 33.7 209.49 34.04 209.49 34.04 209.95 34.39 209.95 35.04 209.95 35.04 209.95 35.71 209.47 36.06 209.47 36.06 209 36.42 208.12 36.42 208.12 36.42 207.64 36.42 207.09 36.31 207.09 36.31 206.54 36.21 205.88 35.99V37.03C205.88 37.03 206.55 37.22 207.13 37.31 207.13 37.31 207.71 37.4 208.23 37.4 208.23 37.4 209.56 37.4 210.33 36.79 210.33 36.79 211.11 36.19 211.11 35.16 211.11 35.16 211.11 34.44 210.7 33.95 210.7 33.95 210.29 33.45 209.53 33.26Z"/>
<path transform="matrix(1,0,0,-1,0,400)" d="M256.68 36.23 253.73 31.61H256.68V36.23M256.38 37.25H257.85V31.61H259.08V30.64H257.85V28.61H256.68V30.64H252.78V31.77L256.38 37.25Z"/>
<path transform="matrix(1,0,0,-1,0,400)" d="M300.97 37.25H305.56V36.26H302.04V34.14C302.04 34.14 302.29 34.23 302.55 34.27 302.55 34.27 302.8 34.32 303.06 34.32 303.06 34.32 304.5 34.32 305.35 33.52 305.35 33.52 306.19 32.73 306.19 31.38 306.19 31.38 306.19 29.98 305.32 29.21 305.32 29.21 304.46 28.44 302.88 28.44 302.88 28.44 302.33 28.44 301.77 28.53 301.77 28.53 301.2 28.62 300.6 28.81V29.98C300.6 29.98 301.12 29.7 301.68 29.56 301.68 29.56 302.23 29.42 302.85 29.42 302.85 29.42 303.85 29.42 304.44 29.95 304.44 29.95 305.02 30.47 305.02 31.38 305.02 31.38 305.02 32.28 304.44 32.81 304.44 32.81 303.85 33.33 302.85 33.33 302.85 33.33 302.39 33.33 301.92 33.23 301.92 33.23 301.45 33.12 300.97 32.9V37.25Z"/>
<path transform="matrix(1,0,0,-1,0,400)" d="M350.96 33.39C350.96 33.39 350.18 33.39 349.71 32.85 349.71 32.85 349.26 32.31 349.26 31.38 349.26 31.38 349.26 30.45 349.71 29.9 349.71 29.9 350.18 29.36 350.96 29.36 350.96 29.36 351.75 29.36 352.21 29.9 352.21 29.9 352.67 30.45 352.67 31.38 352.67 31.38 352.67 32.31 352.21 32.85 352.21 32.85 351.75 33.39 350.96 33.39M353.28 37.05V35.99C353.28 35.99 352.85 36.2 352.39 36.31 352.39 36.31 351.95 36.42 351.51 36.42 351.51 36.42 350.35 36.42 349.74 35.64 349.74 35.64 349.13 34.86 349.04 33.28 349.04 33.28 349.38 33.78 349.9 34.04 349.9 34.04 350.41 34.32 351.03 34.32 351.03 34.32 352.34 34.32 353.09 33.52 353.09 33.52 353.85 32.74 353.85 31.38 353.85 31.38 353.85 30.05 353.06 29.24 353.06 29.24 352.27 28.44 350.96 28.44 350.96 28.44 349.47 28.44 348.67 29.58 348.67 29.58 347.88 30.73 347.88 32.92 347.88 32.92 347.88 34.96 348.85 36.18 348.85 36.18 349.82 37.4 351.46 37.4 351.46 37.4 351.9 37.4 352.35 37.31 352.35 37.31 352.8 37.23 353.28 37.05Z"/>
<path transform="matrix(1,0,0,-1,0,400)" d="M395.55 37.25H401.11V36.75L397.97 28.61H396.75L399.7 36.26H395.55V37.25Z"/>
<path transform="matrix(1,0,0,-1,0,400)" d="M445.79 32.71C445.79 32.71 444.96 32.71 444.48 32.26 444.48 32.26 444.01 31.82 444.01 31.04 444.01 31.04 444.01 30.25 444.48 29.81 444.48 29.81 444.96 29.36 445.79 29.36 445.79 29.36 446.63 29.36 447.11 29.81 447.11 29.81 447.59 30.26 447.59 31.04 447.59 31.04 447.59 31.82 447.11 32.26 447.11 32.26 446.63 32.71 445.79 32.71M444.62 33.21C444.62 33.21 443.87 33.39 443.45 33.91 443.45 33.91 443.03 34.42 443.03 35.16 443.03 35.16 443.03 36.2 443.77 36.8 443.77 36.8 444.51 37.4 445.79 37.4 445.79 37.4 447.08 37.4 447.82 36.8 447.82 36.8 448.55 36.2 448.55 35.16 448.55 35.16 448.55 34.42 448.13 33.91 448.13 33.91 447.71 33.39 446.97 33.21 446.97 33.21 447.81 33.01 448.28 32.44 448.28 32.44 448.76 31.86 448.76 31.04 448.76 31.04 448.76 29.78 447.99 29.11 447.99 29.11 447.22 28.44 445.79 28.44 445.79 28.44 444.36 28.44 443.59 29.11 443.59 29.11 442.83 29.78 442.83 31.04 442.83 31.04 442.83 31.86 443.3 32.44 443.3 32.44 443.78 33.01 444.62 33.21M444.2 35.05C444.2 35.05 444.2 34.38 444.61 34 444.61 34 445.04 33.63 445.79 33.63 445.79 33.63 446.55 33.63 446.97 34 446.97 34 447.4 34.38 447.4 35.05 447.4 35.05 447.4 35.72 446.97 36.1 446.97 36.1 446.55 36.48 445.79 36.48 445.79 36.48 445.04 36.48 444.61 36.1 444.61 36.1 444.2 35.72 444.2 35.05Z"/>
<path transform="matrix(1,0,0,-1,0,400)" d="M490.83 28.78V29.85C490.83 29.85 491.27 29.64 491.73 29.53 491.73 29.53 492.18 29.42 492.61 29.42 492.61 29.42 493.77 29.42 494.38 30.2 494.38 30.2 494.99 30.98 495.08 32.56 495.08 32.56 494.74 32.07 494.23 31.8 494.23 31.8 493.71 31.53 493.08 31.53 493.08 31.53 491.79 31.53 491.03 32.31 491.03 32.31 490.28 33.1 490.28 34.46 490.28 34.46 490.28 35.79 491.07 36.6 491.07 36.6 491.85 37.4 493.16 37.4 493.16 37.4 494.66 37.4 495.45 36.25 495.45 36.25 496.24 35.1 496.24 32.92 496.24 32.92 496.24 30.87 495.27 29.65 495.27 29.65 494.3 28.44 492.66 28.44 492.66 28.44 492.22 28.44 491.77 28.52 491.77 28.52 491.32 28.61 490.83 28.78M493.16 32.45C493.16 32.45 493.95 32.45 494.4 32.99 494.4 32.99 494.87 33.52 494.87 34.46 494.87 34.46 494.87 35.39 494.4 35.93 494.4 35.93 493.95 36.48 493.16 36.48 493.16 36.48 492.37 36.48 491.91 35.93 491.91 35.93 491.45 35.39 491.45 34.46 491.45 34.46 491.45 33.52 491.91 32.99 491.91 32.99 492.37 32.45 493.16 32.45Z"/>
<path transform="matrix(1,0,0,-1,0,400)" d="M534.4 29.59H536.31V36.18L534.23 35.76V36.83L536.29 37.25H537.46V29.59H539.37V28.61H534.4V29.59Z"/>
<path transform="matrix(1,0,0,-1,0,400)" d="M544.23 36.48C544.23 36.48 543.33 36.48 542.87 35.58 542.87 35.58 542.42 34.7 542.42 32.92 542.42 32.92 542.42 31.14 542.87 30.25 542.87 30.25 543.33 29.36 544.23 29.36 544.23 29.36 545.14 29.36 545.59 30.25 545.59 30.25 546.05 31.14 546.05 32.92 546.05 32.92 546.05 34.7 545.59 35.58 545.59 35.58 545.14 36.48 544.23 36.48M544.23 37.4C544.23 37.4 545.69 37.4 546.45 36.25 546.45 36.25 547.22 35.1 547.22 32.92 547.22 32.92 547.22 30.73 546.45 29.58 546.45 29.58 545.69 28.44 544.23 28.44 544.23 28.44 542.78 28.44 542.01 29.58 542.01 29.58 541.25 30.73 541.25 32.92 541.25 32.92 541.25 35.1 542.01 36.25 542.01 36.25 542.78 37.4 544.23 37.4Z"/>
<path transform="matrix(1,0,0,-1,0,400)" d="M276.41 18.55V14.08H278.43C278.43 14.08 279.55 14.08 280.17 14.67 280.17 14.67 280.78 15.25 280.78 16.32 280.78 16.32 280.78 17.39 280.17 17.97 280.17 17.97 279.55 18.55 278.43 18.55H276.41M274.8 19.87H278.43C278.43 19.87 280.43 19.87 281.45 18.96 281.45 18.96 282.47 18.06 282.47 16.32 282.47 16.32 282.47 14.56 281.45 13.66 281.45 13.66 280.43 12.76 278.43 12.76H276.41V7.99H274.8V19.87Z"/>
<path transform="matrix(1,0,0,-1,0,400)" d="M287.89 12.47C287.89 12.47 286.11 12.47 285.43 12.06 285.43 12.06 284.74 11.66 284.74 10.68 284.74 10.68 284.74 9.9 285.25 9.44 285.25 9.44 285.77 8.98 286.65 8.98 286.65 8.98 287.87 8.98 288.6 9.84 288.6 9.84 289.34 10.71 289.34 12.14V12.47H287.89M290.81 13.07V7.99H289.34V9.34C289.34 9.34 288.84 8.53 288.09 8.14 288.09 8.14 287.34 7.76 286.26 7.76 286.26 7.76 284.89 7.76 284.08 8.52 284.08 8.52 283.28 9.29 283.28 10.58 283.28 10.58 283.28 12.09 284.28 12.85 284.28 12.85 285.29 13.61 287.29 13.61H289.34V13.76C289.34 13.76 289.34 14.77 288.67 15.32 288.67 15.32 288.01 15.87 286.81 15.87 286.81 15.87 286.05 15.87 285.32 15.69 285.32 15.69 284.6 15.51 283.93 15.14V16.5C283.93 16.5 284.73 16.81 285.49 16.96 285.49 16.96 286.25 17.12 286.96 17.12 286.96 17.12 288.9 17.12 289.85 16.11 289.85 16.11 290.81 15.11 290.81 13.07Z"/>
<path transform="matrix(1,0,0,-1,0,400)" d="M295.27 19.43V16.9H298.29V15.76H295.27V10.93C295.27 10.93 295.27 9.84 295.56 9.52 295.56 9.52 295.87 9.21 296.78 9.21H298.29V7.99H296.78C296.78 7.99 295.09 7.99 294.44 8.62 294.44 8.62 293.8 9.25 293.8 10.93V15.76H292.72V16.9H293.8V19.43H295.27Z"/>
<path transform="matrix(1,0,0,-1,0,400)" d="M300.21 16.9H301.68V7.99H300.21V16.9M300.21 20.37H301.68V18.52H300.21V20.37Z"/>
<path transform="matrix(1,0,0,-1,0,400)" d="M312.36 12.81V12.09H305.63C305.63 12.09 305.73 10.58 306.54 9.79 306.54 9.79 307.36 9 308.81 9 308.81 9 309.66 9 310.44 9.21 310.44 9.21 311.24 9.41 312.02 9.83V8.44C312.02 8.44 311.23 8.11 310.4 7.93 310.4 7.93 309.58 7.76 308.73 7.76 308.73 7.76 306.59 7.76 305.34 9 305.34 9 304.1 10.24 304.1 12.36 304.1 12.36 304.1 14.55 305.28 15.83 305.28 15.83 306.47 17.12 308.47 17.12 308.47 17.12 310.27 17.12 311.31 15.95 311.31 15.95 312.36 14.8 312.36 12.81M310.9 13.24C310.9 13.24 310.88 14.44 310.22 15.16 310.22 15.16 309.57 15.87 308.49 15.87 308.49 15.87 307.26 15.87 306.52 15.18 306.52 15.18 305.79 14.49 305.68 13.23L310.9 13.24Z"/>
<path transform="matrix(1,0,0,-1,0,400)" d="M322.17 13.37V7.99H320.71V13.32C320.71 13.32 320.71 14.59 320.22 15.21 320.22 15.21 319.72 15.84 318.74 15.84 318.74 15.84 317.55 15.84 316.87 15.09 316.87 15.09 316.18 14.33 316.18 13.03V7.99H314.71V16.9H316.18V15.52C316.18 15.52 316.71 16.32 317.41 16.72 317.41 16.72 318.13 17.12 319.06 17.12 319.06 17.12 320.6 17.12 321.39 16.16 321.39 16.16 322.17 15.21 322.17 13.37Z"/>
<path transform="matrix(1,0,0,-1,0,400)" d="M326.54 19.43V16.9H329.56V15.76H326.54V10.93C326.54 10.93 326.54 9.84 326.84 9.52 326.84 9.52 327.14 9.21 328.05 9.21H329.56V7.99H328.05C328.05 7.99 326.36 7.99 325.71 8.62 325.71 8.62 325.07 9.25 325.07 10.93V15.76H324V16.9H325.07V19.43H326.54Z"/>
<path transform="matrix(1,0,0,-1,0,400)" d="M336.73 19.87H338.33V7.99H336.73V19.87Z"/>
<path transform="matrix(1,0,0,-1,0,400)" d="M348.88 13.37V7.99H347.41V13.32C347.41 13.32 347.41 14.59 346.92 15.21 346.92 15.21 346.43 15.84 345.44 15.84 345.44 15.84 344.25 15.84 343.57 15.09 343.57 15.09 342.89 14.33 342.89 13.03V7.99H341.41V16.9H342.89V15.52C342.89 15.52 343.41 16.32 344.12 16.72 344.12 16.72 344.84 17.12 345.77 17.12 345.77 17.12 347.3 17.12 348.09 16.16 348.09 16.16 348.88 15.21 348.88 13.37Z"/>
<path transform="matrix(1,0,0,-1,0,400)" d="M357.66 15.55V20.37H359.13V7.99H357.66V9.33C357.66 9.33 357.2 8.53 356.49 8.14 356.49 8.14 355.79 7.76 354.81 7.76 354.81 7.76 353.19 7.76 352.17 9.05 352.17 9.05 351.16 10.34 351.16 12.44 351.16 12.44 351.16 14.54 352.17 15.83 352.17 15.83 353.19 17.12 354.81 17.12 354.81 17.12 355.79 17.12 356.49 16.73 356.49 16.73 357.2 16.34 357.66 15.55M352.67 12.44C352.67 12.44 352.67 10.82 353.33 9.9 353.33 9.9 354 8.98 355.16 8.98 355.16 8.98 356.33 8.98 356.99 9.9 356.99 9.9 357.66 10.82 357.66 12.44 357.66 12.44 357.66 14.05 356.99 14.97 356.99 14.97 356.33 15.89 355.16 15.89 355.16 15.89 354 15.89 353.33 14.97 353.33 14.97 352.67 14.05 352.67 12.44Z"/>
<path transform="matrix(1,0,0,-1,0,400)" d="M369.76 12.81V12.09H363.03C363.03 12.09 363.13 10.58 363.94 9.79 363.94 9.79 364.76 9 366.22 9 366.22 9 367.06 9 367.85 9.21 367.85 9.21 368.64 9.41 369.42 9.83V8.44C369.42 8.44 368.63 8.11 367.81 7.93 367.81 7.93 366.98 7.76 366.13 7.76 366.13 7.76 364 7.76 362.75 9 362.75 9 361.51 10.24 361.51 12.36 361.51 12.36 361.51 14.55 362.68 15.83 362.68 15.83 363.87 17.12 365.87 17.12 365.87 17.12 367.67 17.12 368.71 15.95 368.71 15.95 369.76 14.8 369.76 12.81M368.3 13.24C368.3 13.24 368.28 14.44 367.62 15.16 367.62 15.16 366.97 15.87 365.89 15.87 365.89 15.87 364.66 15.87 363.92 15.18 363.92 15.18 363.19 14.49 363.08 13.23L368.3 13.24Z"/>
<path transform="matrix(1,0,0,-1,0,400)" d="M379.29 16.9 376.07 12.56 379.46 7.99H377.73L375.14 11.49 372.54 7.99H370.82L374.28 12.65 371.11 16.9H372.84L375.2 13.73 377.56 16.9H379.29Z"/>
<path transform="matrix(1,0,0,-1,0,400)" stroke-width="1" stroke-linecap="round" stroke-linejoin="round" fill="none" stroke="#000000" d="M66.07 44.21V388.19"/>
<path transform="matrix(1,0,0,-1,0,400)" stroke-width="1" stroke-linecap="round" stroke-linejoin="round" fill="none" stroke="#000000" d="M66.07 44.21H70.8"/>
<path transform="matrix(1,0,0,-1,0,400)" stroke-width="1" stroke-linecap="round" stroke-linejoin="round" fill="none" stroke="#000000" d="M66.07 158.87H70.8"/>
<path transform="matrix(1,0,0,-1,0,400)" stroke-width="1" stroke-linecap="round" stroke-linejoin="round" fill="none" stroke="#000000" d="M66.07 273.53H70.8"/>
<path transform="matrix(1,0,0,-1,0,400)" stroke-width="1" stroke-linecap="round" stroke-linejoin="round" fill="none" stroke="#000000" d="M66.07 388.19H70.8"/>
<path transform="matrix(1,0,0,-1,0,400)" d="M54.09 47.76C54.09 47.76 53.18 47.76 52.73 46.86 52.73 46.86 52.27 45.98 52.27 44.2 52.27 44.2 52.27 42.42 52.73 41.53 52.73 41.53 53.18 40.64 54.09 40.64 54.09 40.64 54.99 40.64 55.45 41.53 55.45 41.53 55.9 42.42 55.9 44.2 55.9 44.2 55.9 45.98 55.45 46.86 55.45 46.86 54.99 47.76 54.09 47.76M54.09 48.68C54.09 48.68 55.54 48.68 56.3 47.53 56.3 47.53 57.07 46.38 57.07 44.2 57.07 44.2 57.07 42.01 56.3 40.86 56.3 40.86 55.54 39.72 54.09 39.72 54.09 39.72 52.63 39.72 51.86 40.86 51.86 40.86 51.1 42.01 51.1 44.2 51.1 44.2 51.1 46.38 51.86 47.53 51.86 47.53 52.63 48.68 54.09 48.68Z"/>
<path transform="matrix(1,0,0,-1,0,400)" d="M29.17 155.53H31.08V162.12L29 161.7V162.77L31.07 163.19H32.23V155.53H34.14V154.55H29.17V155.53Z"/>
<path transform="matrix(1,0,0,-1,0,400)" d="M39 162.42C39 162.42 38.1 162.42 37.64 161.53 37.64 161.53 37.19 160.64 37.19 158.86 37.19 158.86 37.19 157.08 37.64 156.19 37.64 156.19 38.1 155.3 39 155.3 39 155.3 39.91 155.3 40.36 156.19 40.36 156.19 40.82 157.08 40.82 158.86 40.82 158.86 40.82 160.64 40.36 161.53 40.36 161.53 39.91 162.42 39 162.42M39 163.34C39 163.34 40.46 163.34 41.22 162.19 41.22 162.19 41.99 161.05 41.99 158.86 41.99 158.86 41.99 156.68 41.22 155.52 41.22 155.52 40.46 154.38 39 154.38 39 154.38 37.55 154.38 36.78 155.52 36.78 155.52 36.02 156.68 36.02 158.86 36.02 158.86 36.02 161.05 36.78 162.19 36.78 162.19 37.55 163.34 39 163.34Z"/>
<path transform="matrix(1,0,0,-1,0,400)" d="M46.55 162.42C46.55 162.42 45.64 162.42 45.19 161.53 45.19 161.53 44.73 160.64 44.73 158.86 44.73 158.86 44.73 157.08 45.19 156.19 45.19 156.19 45.64 155.3 46.55 155.3 46.55 155.3 47.45 155.3 47.91 156.19 47.91 156.19 48.36 157.08 48.36 158.86 48.36 158.86 48.36 160.64 47.91 161.53 47.91 161.53 47.45 162.42 46.55 162.42M46.55 163.34C46.55 163.34 48 163.34 48.76 162.19 48.76 162.19 49.53 161.05 49.53 158.86 49.53 158.86 49.53 156.68 48.76 155.52 48.76 155.52 48 154.38 46.55 154.38 46.55 154.38 45.09 154.38 44.32 155.52 44.32 155.52 43.56 156.68 43.56 158.86 43.56 158.86 43.56 161.05 44.32 162.19 44.32 162.19 45.09 163.34 46.55 163.34Z"/>
<path transform="matrix(1,0,0,-1,0,400)" d="M54.09 162.42C54.09 162.42 53.18 162.42 52.73 161.53 52.73 161.53 52.27 160.64 52.27 158.86 52.27 158.86 52.27 157.08 52.73 156.19 52.73 156.19 53.18 155.3 54.09 155.3 54.09 155.3 54.99 155.3 55.45 156.19 55.45 156.19 55.9 157.08 55.9 158.86 55.9 158.86 55.9 160.64 55.45 161.53 55.45 161.53 54.99 162.42 54.09 162.42M54.09 163.34C54.09 163.34 55.54 163.34 56.3 162.19 56.3 162.19 57.07 161.05 57.07 158.86 57.07 158.86 57.07 156.68 56.3 155.52 56.3 155.52 55.54 154.38 54.09 154.38 54.09 154.38 52.63 154.38 51.86 155.52 51.86 155.52 51.1 156.68 51.1 158.86 51.1 158.86 51.1 161.05 51.86 162.19 51.86 162.19 52.63 163.34 54.09 163.34Z"/>
<path transform="matrix(1,0,0,-1,0,400)" d="M29.97 270.19H34.05V269.21H28.57V270.19C28.57 270.19 29.23 270.88 30.38 272.04 30.38 272.04 31.53 273.2 31.82 273.54 31.82 273.54 32.38 274.17 32.6 274.6 32.6 274.6 32.83 275.04 32.83 275.46 32.83 275.46 32.83 276.15 32.34 276.59 32.34 276.59 31.86 277.02 31.09 277.02 31.09 277.02 30.54 277.02 29.92 276.83 29.92 276.83 29.32 276.64 28.62 276.25V277.43C28.62 277.43 29.33 277.71 29.94 277.86 29.94 277.86 30.56 278 31.07 278 31.07 278 32.41 278 33.21 277.33 33.21 277.33 34 276.66 34 275.54 34 275.54 34 275.01 33.8 274.53 33.8 274.53 33.61 274.05 33.08 273.4 33.08 273.4 32.93 273.24 32.16 272.43 32.16 272.43 31.38 271.63 29.97 270.19Z"/>
<path transform="matrix(1,0,0,-1,0,400)" d="M39 277.08C39 277.08 38.1 277.08 37.64 276.19 37.64 276.19 37.19 275.3 37.19 273.52 37.19 273.52 37.19 271.74 37.64 270.85 37.64 270.85 38.1 269.97 39 269.97 39 269.97 39.91 269.97 40.36 270.85 40.36 270.85 40.82 271.74 40.82 273.52 40.82 273.52 40.82 275.3 40.36 276.19 40.36 276.19 39.91 277.08 39 277.08M39 278C39 278 40.46 278 41.22 276.85 41.22 276.85 41.99 275.71 41.99 273.52 41.99 273.52 41.99 271.34 41.22 270.19 41.22 270.19 40.46 269.04 39 269.04 39 269.04 37.55 269.04 36.78 270.19 36.78 270.19 36.02 271.34 36.02 273.52 36.02 273.52 36.02 275.71 36.78 276.85 36.78 276.85 37.55 278 39 278Z"/>
<path transform="matrix(1,0,0,-1,0,400)" d="M46.55 277.08C46.55 277.08 45.64 277.08 45.19 276.19 45.19 276.19 44.73 275.3 44.73 273.52 44.73 273.52 44.73 271.74 45.19 270.85 45.19 270.85 45.64 269.97 46.55 269.97 46.55 269.97 47.45 269.97 47.91 270.85 47.91 270.85 48.36 271.74 48.36 273.52 48.36 273.52 48.36 275.3 47.91 276.19 47.91 276.19 47.45 277.08 46.55 277.08M46.55 278C46.55 278 48 278 48.76 276.85 48.76 276.85 49.53 275.71 49.53 273.52 49.53 273.52 49.53 271.34 48.76 270.19 48.76 270.19 48 269.04 46.55 269.04 46.55 269.04 45.09 269.04 44.32 270.19 44.32 270.19 43.56 271.34 43.56 273.52 43.56 273.52 43.56 275.71 44.32 276.85 44.32 276.85 45.09 278 46.55 278Z"/>
<path transform="matrix(1,0,0,-1,0,400)" d="M54.09 277.08C54.09 277.08 53.18 277.08 52.73 276.19 52.73 276.19 52.27 275.3 52.27 273.52 52.27 273.52 52.27 271.74 52.73 270.85 52.73 270.85 53.18 269.97 54.09 269.97 54.09 269.97 54.99 269.97 55.45 270.85 55.45 270.85 55.9 271.74 55.9 273.52 55.9 273.52 55.9 275.3 55.45 276.19 55.45 276.19 54.99 277.08 54.09 277.08M54.09 278C54.09 278 55.54 278 56.3 276.85 56.3 276.85 57.07 275.71 57.07 273.52 57.07 273.52 57.07 271.34 56.3 270.19 56.3 270.19 55.54 269.04 54.09 269.04 54.09 269.04 52.63 269.04 51.86 270.19 51.86 270.19 51.1 271.34 51.1 273.52 51.1 273.52 51.1 275.71 51.86 276.85 51.86 276.85 52.63 278 54.09 278Z"/>
<path transform="matrix(1,0,0,-1,0,400)" d="M32.51 388.53C32.51 388.53 33.35 388.35 33.81 387.78 33.81 387.78 34.29 387.21 34.29 386.38 34.29 386.38 34.29 385.1 33.41 384.4 33.41 384.4 32.53 383.7 30.91 383.7 30.91 383.7 30.36 383.7 29.79 383.81 29.79 383.81 29.21 383.92 28.6 384.13V385.26C28.6 385.26 29.09 384.97 29.66 384.83 29.66 384.83 30.24 384.68 30.87 384.68 30.87 384.68 31.97 384.68 32.55 385.12 32.55 385.12 33.13 385.55 33.13 386.38 33.13 386.38 33.13 387.14 32.59 387.57 32.59 387.57 32.05 388.01 31.1 388.01H30.09V388.97H31.15C31.15 388.97 32.01 388.97 32.47 389.31 32.47 389.31 32.92 389.66 32.92 390.3 32.92 390.3 32.92 390.97 32.45 391.32 32.45 391.32 31.98 391.68 31.1 391.68 31.1 391.68 30.62 391.68 30.07 391.58 30.07 391.58 29.52 391.47 28.86 391.25V392.29C28.86 392.29 29.53 392.48 30.1 392.57 30.1 392.57 30.69 392.67 31.2 392.67 31.2 392.67 32.53 392.67 33.31 392.06 33.31 392.06 34.09 391.46 34.09 390.43 34.09 390.43 34.09 389.71 33.67 389.21 33.67 389.21 33.26 388.72 32.51 388.53Z"/>
<path transform="matrix(1,0,0,-1,0,400)" d="M39 391.74C39 391.74 38.1 391.74 37.64 390.85 37.64 390.85 37.19 389.96 37.19 388.18 37.19 388.18 37.19 386.4 37.64 385.51 37.64 385.51 38.1 384.63 39 384.63 39 384.63 39.91 384.63 40.36 385.51 40.36 385.51 40.82 386.4 40.82 388.18 40.82 388.18 40.82 389.96 40.36 390.85 40.36 390.85 39.91 391.74 39 391.74M39 392.67C39 392.67 40.46 392.67 41.22 391.51 41.22 391.51 41.99 390.37 41.99 388.18 41.99 388.18 41.99 386 41.22 384.85 41.22 384.85 40.46 383.7 39 383.7 39 383.7 37.55 383.7 36.78 384.85 36.78 384.85 36.02 386 36.02 388.18 36.02 388.18 36.02 390.37 36.78 391.51 36.78 391.51 37.55 392.67 39 392.67Z"/>
<path transform="matrix(1,0,0,-1,0,400)" d="M46.55 391.74C46.55 391.74 45.64 391.74 45.19 390.85 45.19 390.85 44.73 389.96 44.73 388.18 44.73 388.18 44.73 386.4 45.19 385.51 45.19 385.51 45.64 384.63 46.55 384.63 46.55 384.63 47.45 384.63 47.91 385.51 47.91 385.51 48.36 386.4 48.36 388.18 48.36 388.18 48.36 389.96 47.91 390.85 47.91 390.85 47.45 391.74 46.55 391.74M46.55 392.67C46.55 392.67 48 392.67 48.76 391.51 48.76 391.51 49.53 390.37 49.53 388.18 49.53 388.18 49.53 386 48.76 384.85 48.76 384.85 48 383.7 46.55 383.7 46.55 383.7 45.09 383.7 44.32 384.85 44.32 384.85 43.56 386 43.56 388.18 43.56 388.18 43.56 390.37 44.32 391.51 44.32 391.51 45.09 392.67 46.55 392.67Z"/>
<path transform="matrix(1,0,0,-1,0,400)" d="M54.09 391.74C54.09 391.74 53.18 391.74 52.73 390.85 52.73 390.85 52.27 389.96 52.27 388.18 52.27 388.18 52.27 386.4 52.73 385.51 52.73 385.51 53.18 384.63 54.09 384.63 54.09 384.63 54.99 384.63 55.45 385.51 55.45 385.51 55.9 386.4 55.9 388.18 55.9 388.18 55.9 389.96 55.45 390.85 55.45 390.85 54.99 391.74 54.09 391.74M54.09 392.67C54.09 392.67 55.54 392.67 56.3 391.51 56.3 391.51 57.07 390.37 57.07 388.18 57.07 388.18 57.07 386 56.3 384.85 56.3 384.85 55.54 383.7 54.09 383.7 54.09 383.7 52.63 383.7 51.86 384.85 51.86 384.85 51.1 386 51.1 388.18 51.1 388.18 51.1 390.37 51.86 391.51 51.86 391.51 52.63 392.67 54.09 392.67Z"/>
<path transform="matrix(1,0,0,-1,0,400)" d="M5.7 149.5 11.62 147.32V151.69L5.7 149.5M4.12 148.6V150.42L16 154.95V153.28L12.95 152.19V146.84L16 145.76V144.06L4.12 148.6Z"/>
<path transform="matrix(1,0,0,-1,0,400)" d="M8.46 161.78C8.46 161.78 8.31 161.54 8.25 161.24 8.25 161.24 8.18 160.95 8.18 160.6 8.18 160.6 8.18 159.36 8.99 158.69 8.99 158.69 9.79 158.03 11.31 158.03H16V156.56H7.09V158.03H8.47C8.47 158.03 7.66 158.5 7.27 159.24 7.27 159.24 6.87 159.98 6.87 161.03 6.87 161.03 6.87 161.19 6.9 161.37 6.9 161.37 6.91 161.55 6.95 161.77L8.46 161.78Z"/>
<path transform="matrix(1,0,0,-1,0,400)" d="M11.18 170.58H11.9V163.85C11.9 163.85 13.41 163.95 14.2 164.76 14.2 164.76 14.99 165.58 14.99 167.03 14.99 167.03 14.99 167.88 14.78 168.67 14.78 168.67 14.58 169.46 14.16 170.24H15.55C15.55 170.24 15.88 169.45 16.06 168.63 16.06 168.63 16.23 167.8 16.23 166.95 16.23 166.95 16.23 164.81 14.99 163.56 14.99 163.56 13.75 162.32 11.63 162.32 11.63 162.32 9.44 162.32 8.16 163.5 8.16 163.5 6.87 164.69 6.87 166.69 6.87 166.69 6.87 168.49 8.04 169.53 8.04 169.53 9.19 170.58 11.18 170.58M10.75 169.12C10.75 169.12 9.55 169.1 8.83 168.44 8.83 168.44 8.12 167.79 8.12 166.71 8.12 166.71 8.12 165.48 8.81 164.74 8.81 164.74 9.5 164.01 10.76 163.9L10.75 169.12Z"/>
<path transform="matrix(1,0,0,-1,0,400)" d="M11.52 177.04C11.52 177.04 11.52 175.26 11.93 174.58 11.93 174.58 12.33 173.89 13.31 173.89 13.31 173.89 14.09 173.89 14.55 174.4 14.55 174.4 15.01 174.92 15.01 175.8 15.01 175.8 15.01 177.02 14.15 177.75 14.15 177.75 13.28 178.49 11.85 178.49H11.52V177.04M10.92 179.96H16V178.49H14.65C14.65 178.49 15.46 177.99 15.85 177.24 15.85 177.24 16.23 176.49 16.23 175.41 16.23 175.41 16.23 174.04 15.47 173.23 15.47 173.23 14.7 172.43 13.41 172.43 13.41 172.43 11.9 172.43 11.14 173.43 11.14 173.43 10.38 174.44 10.38 176.44V178.49H10.23C10.23 178.49 9.22 178.49 8.67 177.82 8.67 177.82 8.12 177.16 8.12 175.96 8.12 175.96 8.12 175.2 8.3 174.47 8.3 174.47 8.48 173.75 8.85 173.08H7.49C7.49 173.08 7.18 173.88 7.03 174.64 7.03 174.64 6.87 175.4 6.87 176.11 6.87 176.11 6.87 178.05 7.88 179 7.88 179 8.88 179.96 10.92 179.96Z"/>
<path transform="matrix(1,0,0,-1,0,400)" d="M4.12 188.03V189.65H11.34C11.34 189.65 13.25 189.65 14.09 190.34 14.09 190.34 14.93 191.03 14.93 192.58 14.93 192.58 14.93 194.13 14.09 194.82 14.09 194.82 13.25 195.51 11.34 195.51H4.12V197.13H11.54C11.54 197.13 13.86 197.13 15.05 195.97 15.05 195.97 16.23 194.83 16.23 192.58 16.23 192.58 16.23 190.33 15.05 189.18 15.05 189.18 13.86 188.03 11.54 188.03H4.12Z"/>
<path transform="matrix(1,0,0,-1,0,400)" d="M10.62 207.49H16V206.02H10.67C10.67 206.02 9.4 206.02 8.78 205.53 8.78 205.53 8.15 205.04 8.15 204.05 8.15 204.05 8.15 202.86 8.9 202.18 8.9 202.18 9.66 201.5 10.96 201.5H16V200.02H7.09V201.5H8.47C8.47 201.5 7.67 202.02 7.27 202.73 7.27 202.73 6.87 203.45 6.87 204.38 6.87 204.38 6.87 205.91 7.83 206.7 7.83 206.7 8.78 207.49 10.62 207.49Z"/>
<path transform="matrix(1,0,0,-1,0,400)" d="M8.44 216.27H3.62V217.74H16V216.27H14.66C14.66 216.27 15.46 215.81 15.85 215.1 15.85 215.1 16.23 214.4 16.23 213.42 16.23 213.42 16.23 211.8 14.94 210.78 14.94 210.78 13.65 209.77 11.55 209.77 11.55 209.77 9.45 209.77 8.16 210.78 8.16 210.78 6.87 211.8 6.87 213.42 6.87 213.42 6.87 214.4 7.26 215.1 7.26 215.1 7.65 215.81 8.44 216.27M11.55 211.28C11.55 211.28 13.17 211.28 14.09 211.94 14.09 211.94 15.01 212.61 15.01 213.77 15.01 213.77 15.01 214.94 14.09 215.6 14.09 215.6 13.17 216.27 11.55 216.27 11.55 216.27 9.94 216.27 9.02 215.6 9.02 215.6 8.1 214.94 8.1 213.77 8.1 213.77 8.1 212.61 9.02 211.94 9.02 211.94 9.94 211.28 11.55 211.28Z"/>
<path transform="matrix(1,0,0,-1,0,400)" d="M11.18 228.38H11.9V221.64C11.9 221.64 13.41 221.74 14.2 222.55 14.2 222.55 14.99 223.37 14.99 224.83 14.99 224.83 14.99 225.67 14.78 226.46 14.78 226.46 14.58 227.25 14.16 228.03H15.55C15.55 228.03 15.88 227.25 16.06 226.42 16.06 226.42 16.23 225.59 16.23 224.74 16.23 224.74 16.23 222.61 14.99 221.36 14.99 221.36 13.75 220.12 11.63 220.12 11.63 220.12 9.44 220.12 8.16 221.29 8.16 221.29 6.87 222.48 6.87 224.48 6.87 224.48 6.87 226.28 8.04 227.33 8.04 227.33 9.19 228.38 11.18 228.38M10.75 226.91C10.75 226.91 9.55 226.9 8.83 226.23 8.83 226.23 8.12 225.58 8.12 224.5 8.12 224.5 8.12 223.27 8.81 222.53 8.81 222.53 9.5 221.8 10.76 221.69L10.75 226.91Z"/>
<path transform="matrix(1,0,0,-1,0,400)" d="M8.46 235.94C8.46 235.94 8.31 235.7 8.25 235.4 8.25 235.4 8.18 235.12 8.18 234.76 8.18 234.76 8.18 233.52 8.99 232.86 8.99 232.86 9.79 232.19 11.31 232.19H16V230.72H7.09V232.19H8.47C8.47 232.19 7.66 232.66 7.27 233.4 7.27 233.4 6.87 234.14 6.87 235.19 6.87 235.19 6.87 235.35 6.9 235.53 6.9 235.53 6.91 235.71 6.95 235.93L8.46 235.94Z"/>
<path transform="matrix(1,0,0,-1,0,400)" d="M5.04 251.62H6.73C6.73 251.62 5.98 250.81 5.6 249.88 5.6 249.88 5.23 248.97 5.23 247.93 5.23 247.93 5.23 245.9 6.48 244.81 6.48 244.81 7.72 243.73 10.07 243.73 10.07 243.73 12.42 243.73 13.67 244.81 13.67 244.81 14.91 245.9 14.91 247.93 14.91 247.93 14.91 248.97 14.54 249.88 14.54 249.88 14.16 250.81 13.41 251.62H15.09C15.09 251.62 15.66 250.77 15.95 249.83 15.95 249.83 16.23 248.89 16.23 247.84 16.23 247.84 16.23 245.14 14.58 243.59 14.58 243.59 12.93 242.04 10.07 242.04 10.07 242.04 7.21 242.04 5.56 243.59 5.56 243.59 3.91 245.14 3.91 247.84 3.91 247.84 3.91 248.9 4.19 249.84 4.19 249.84 4.47 250.79 5.04 251.62Z"/>
<path transform="matrix(1,0,0,-1,0,400)" d="M12.48 253.89H7.09V255.35H12.43C12.43 255.35 13.69 255.35 14.33 255.84 14.33 255.84 14.96 256.34 14.96 257.32 14.96 257.32 14.96 258.51 14.2 259.19 14.2 259.19 13.45 259.89 12.14 259.89H7.09V261.35H16V259.89H14.63C14.63 259.89 15.44 259.35 15.84 258.64 15.84 258.64 16.23 257.94 16.23 257.01 16.23 257.01 16.23 255.48 15.28 254.68 15.28 254.68 14.32 253.89 12.48 253.89M6.87 257.57V257.57Z"/>
<path transform="matrix(1,0,0,-1,0,400)" d="M8.46 269.53C8.46 269.53 8.31 269.28 8.25 268.99 8.25 268.99 8.18 268.7 8.18 268.35 8.18 268.35 8.18 267.11 8.99 266.44 8.99 266.44 9.79 265.78 11.31 265.78H16V264.31H7.09V265.78H8.47C8.47 265.78 7.66 266.24 7.27 266.98 7.27 266.98 6.87 267.72 6.87 268.78 6.87 268.78 6.87 268.93 6.9 269.12 6.9 269.12 6.91 269.3 6.95 269.52L8.46 269.53Z"/>
<path transform="matrix(1,0,0,-1,0,400)" d="M7.09 270.02V271.57L14.57 274.35 7.09 277.14V278.69L16 275.35V273.36L7.09 270.02Z"/>
<path transform="matrix(1,0,0,-1,0,400)" d="M11.18 288.33H11.9V281.6C11.9 281.6 13.41 281.7 14.2 282.51 14.2 282.51 14.99 283.33 14.99 284.78 14.99 284.78 14.99 285.63 14.78 286.41 14.78 286.41 14.58 287.21 14.16 287.99H15.55C15.55 287.99 15.88 287.2 16.06 286.37 16.06 286.37 16.23 285.55 16.23 284.7 16.23 284.7 16.23 282.56 14.99 281.31 14.99 281.31 13.75 280.07 11.63 280.07 11.63 280.07 9.44 280.07 8.16 281.25 8.16 281.25 6.87 282.44 6.87 284.44 6.87 284.44 6.87 286.24 8.04 287.28 8.04 287.28 9.19 288.33 11.18 288.33M10.75 286.87C10.75 286.87 9.55 286.85 8.83 286.19 8.83 286.19 8.12 285.54 8.12 284.46 8.12 284.46 8.12 283.23 8.81 282.49 8.81 282.49 9.5 281.76 10.76 281.65L10.75 286.87Z"/>
<g clip-path="url(#clip_3)">
<path transform="matrix(1,0,0,-1,0,400)" d="M97.64 218.2V44.21H113.54V218.2H97.64" fill="#1b1b1b" fill-rule="evenodd"/>
</g>
<path transform="matrix(1,0,0,-1,0,400)" stroke-width="0" stroke-linecap="round" stroke-linejoin="round" fill="none" stroke="#000000" d="M97.64 218.2V44.21H113.54V218.2H97.64"/>
<g clip-path="url(#clip_4)">
<path transform="matrix(1,0,0,-1,0,400)" d="M145.1 213.5V44.21H161V213.5H145.1" fill="#1b1b1b" fill-rule="evenodd"/>
</g>
<path transform="matrix(1,0,0,-1,0,400)" stroke-width="0" stroke-linecap="round" stroke-linejoin="round" fill="none" stroke="#000000" d="M145.1 213.5V44.21H161V213.5H145.1"/>
<g clip-path="url(#clip_5)">
<path transform="matrix(1,0,0,-1,0,400)" d="M192.57 221.41V44.21H208.47V221.41H192.57" fill="#1b1b1b" fill-rule="evenodd"/>
</g>
<path transform="matrix(1,0,0,-1,0,400)" stroke-width="0" stroke-linecap="round" stroke-linejoin="round" fill="none" stroke="#000000" d="M192.57 221.41V44.21H208.47V221.41H192.57"/>
<g clip-path="url(#clip_6)">
<path transform="matrix(1,0,0,-1,0,400)" d="M240.03 209.55V44.21H255.93V209.55H240.03" fill="#1b1b1b" fill-rule="evenodd"/>
</g>
<path transform="matrix(1,0,0,-1,0,400)" stroke-width="0" stroke-linecap="round" stroke-linejoin="round" fill="none" stroke="#000000" d="M240.03 209.55V44.21H255.93V209.55H240.03"/>
<g clip-path="url(#clip_7)">
<path transform="matrix(1,0,0,-1,0,400)" d="M287.5 306.26V44.21H303.4V306.26H287.5" fill="#1b1b1b" fill-rule="evenodd"/>
</g>
<path transform="matrix(1,0,0,-1,0,400)" stroke-width="0" stroke-linecap="round" stroke-linejoin="round" fill="none" stroke="#000000" d="M287.5 306.26V44.21H303.4V306.26H287.5"/>
<g clip-path="url(#clip_8)">
<path transform="matrix(1,0,0,-1,0,400)" d="M334.96 239.7V44.21H350.86V239.7H334.96" fill="#1b1b1b" fill-rule="evenodd"/>
</g>
<path transform="matrix(1,0,0,-1,0,400)" stroke-width="0" stroke-linecap="round" stroke-linejoin="round" fill="none" stroke="#000000" d="M334.96 239.7V44.21H350.86V239.7H334.96"/>
<g clip-path="url(#clip_9)">
<path transform="matrix(1,0,0,-1,0,400)" d="M382.43 278.57V44.21H398.33V278.57H382.43" fill="#1b1b1b" fill-rule="evenodd"/>
</g>
<path transform="matrix(1,0,0,-1,0,400)" stroke-width="0" stroke-linecap="round" stroke-linejoin="round" fill="none" stroke="#000000" d="M382.43 278.57V44.21H398.33V278.57H382.43"/>
<g clip-path="url(#clip_10)">
<path transform="matrix(1,0,0,-1,0,400)" d="M429.89 341.29V44.21H445.79V341.29H429.89" fill="#1b1b1b" fill-rule="evenodd"/>
</g>
<path transform="matrix(1,0,0,-1,0,400)" stroke-width="0" stroke-linecap="round" stroke-linejoin="round" fill="none" stroke="#000000" d="M429.89 341.29V44.21H445.79V341.29H429.89"/>
<g clip-path="url(#clip_11)">
<path transform="matrix(1,0,0,-1,0,400)" d="M477.36 220.67V44.21H493.26V220.67H477.36" fill="#1b1b1b" fill-rule="evenodd"/>
</g>
<path transform="matrix(1,0,0,-1,0,400)" stroke-width="0" stroke-linecap="round" stroke-linejoin="round" fill="none" stroke="#000000" d="M477.36 220.67V44.21H493.26V220.67H477.36"/>
<g clip-path="url(#clip_12)">
<path transform="matrix(1,0,0,-1,0,400)" d="M524.82 308.84V44.21H540.72V308.84H524.82" fill="#1b1b1b" fill-rule="evenodd"/>
</g>
<path transform="matrix(1,0,0,-1,0,400)" stroke-width="0" stroke-linecap="round" stroke-linejoin="round" fill="none" stroke="#000000" d="M524.82 308.84V44.21H540.72V308.84H524.82"/>
<path transform="matrix(1,0,0,-1,0,400)" stroke-width=".8" stroke-linecap="round" stroke-linejoin="round" fill="none" stroke="#1b1b1b" stroke-opacity="0" d="M105.59 218.2V218.2"/>
<path transform="matrix(1,0,0,-1,0,400)" stroke-width=".8" stroke-linecap="round" stroke-linejoin="round" fill="none" stroke="#1b1b1b" stroke-opacity="0" d="M153.05 213.5V213.5"/>
<path transform="matrix(1,0,0,-1,0,400)" stroke-width=".8" stroke-linecap="round" stroke-linejoin="round" fill="none" stroke="#1b1b1b" stroke-opacity="0" d="M200.52 221.41V221.41"/>
<path transform="matrix(1,0,0,-1,0,400)" stroke-width=".8" stroke-linecap="round" stroke-linejoin="round" fill="none" stroke="#1b1b1b" stroke-opacity="0" d="M247.98 209.55V209.55"/>
<path transform="matrix(1,0,0,-1,0,400)" stroke-width=".8" stroke-linecap="round" stroke-linejoin="round" fill="none" stroke="#1b1b1b" stroke-opacity="0" d="M295.45 306.26V306.26"/>
<path transform="matrix(1,0,0,-1,0,400)" stroke-width=".8" stroke-linecap="round" stroke-linejoin="round" fill="none" stroke="#1b1b1b" stroke-opacity="0" d="M342.91 239.7V239.7"/>
<path transform="matrix(1,0,0,-1,0,400)" stroke-width=".8" stroke-linecap="round" stroke-linejoin="round" fill="none" stroke="#1b1b1b" stroke-opacity="0" d="M390.38 278.57V278.57"/>
<path transform="matrix(1,0,0,-1,0,400)" stroke-width=".8" stroke-linecap="round" stroke-linejoin="round" fill="none" stroke="#1b1b1b" stroke-opacity="0" d="M437.84 341.29V341.29"/>
<path transform="matrix(1,0,0,-1,0,400)" stroke-width=".8" stroke-linecap="round" stroke-linejoin="round" fill="none" stroke="#1b1b1b" stroke-opacity="0" d="M485.31 220.67V220.67"/>
<path transform="matrix(1,0,0,-1,0,400)" stroke-width=".8" stroke-linecap="round" stroke-linejoin="round" fill="none" stroke="#1b1b1b" stroke-opacity="0" d="M532.77 308.84V308.84"/>
<g clip-path="url(#clip_13)">
<path transform="matrix(1,0,0,-1,0,400)" d="M113.54 217.83V44.21H129.44V217.83H113.54" fill="#a2a2a2" fill-rule="evenodd"/>
</g>
<path transform="matrix(1,0,0,-1,0,400)" stroke-width="0" stroke-linecap="round" stroke-linejoin="round" fill="none" stroke="#000000" d="M113.54 217.83V44.21H129.44V217.83H113.54"/>
<g clip-path="url(#clip_14)">
<path transform="matrix(1,0,0,-1,0,400)" d="M161 212.13V44.21H176.9V212.13H161" fill="#a2a2a2" fill-rule="evenodd"/>
</g>
<path transform="matrix(1,0,0,-1,0,400)" stroke-width="0" stroke-linecap="round" stroke-linejoin="round" fill="none" stroke="#000000" d="M161 212.13V44.21H176.9V212.13H161"/>
<g clip-path="url(#clip_15)">
<path transform="matrix(1,0,0,-1,0,400)" d="M208.47 220.54V44.21H224.37V220.54H208.47" fill="#a2a2a2" fill-rule="evenodd"/>
</g>
<path transform="matrix(1,0,0,-1,0,400)" stroke-width="0" stroke-linecap="round" stroke-linejoin="round" fill="none" stroke="#000000" d="M208.47 220.54V44.21H224.37V220.54H208.47"/>
<g clip-path="url(#clip_16)">
<path transform="matrix(1,0,0,-1,0,400)" d="M255.93 209.27V44.21H271.83V209.27H255.93" fill="#a2a2a2" fill-rule="evenodd"/>
</g>
<path transform="matrix(1,0,0,-1,0,400)" stroke-width="0" stroke-linecap="round" stroke-linejoin="round" fill="none" stroke="#000000" d="M255.93 209.27V44.21H271.83V209.27H255.93"/>
<g clip-path="url(#clip_17)">
<path transform="matrix(1,0,0,-1,0,400)" d="M303.4 300.8V44.21H319.3V300.8H303.4" fill="#a2a2a2" fill-rule="evenodd"/>
</g>
<path transform="matrix(1,0,0,-1,0,400)" stroke-width="0" stroke-linecap="round" stroke-linejoin="round" fill="none" stroke="#000000" d="M303.4 300.8V44.21H319.3V300.8H303.4"/>
<g clip-path="url(#clip_18)">
<path transform="matrix(1,0,0,-1,0,400)" d="M350.86 239.43V44.21H366.76V239.43H350.86" fill="#a2a2a2" fill-rule="evenodd"/>
</g>
<path transform="matrix(1,0,0,-1,0,400)" stroke-width="0" stroke-linecap="round" stroke-linejoin="round" fill="none" stroke="#000000" d="M350.86 239.43V44.21H366.76V239.43H350.86"/>
<g clip-path="url(#clip_19)">
<path transform="matrix(1,0,0,-1,0,400)" d="M398.33 278V44.21H414.23V278H398.33" fill="#a2a2a2" fill-rule="evenodd"/>
</g>
<path transform="matrix(1,0,0,-1,0,400)" stroke-width="0" stroke-linecap="round" stroke-linejoin="round" fill="none" stroke="#000000" d="M398.33 278V44.21H414.23V278H398.33"/>
<g clip-path="url(#clip_20)">
<path transform="matrix(1,0,0,-1,0,400)" d="M445.79 340.99V44.21H461.69V340.99H445.79" fill="#a2a2a2" fill-rule="evenodd"/>
</g>
<path transform="matrix(1,0,0,-1,0,400)" stroke-width="0" stroke-linecap="round" stroke-linejoin="round" fill="none" stroke="#000000" d="M445.79 340.99V44.21H461.69V340.99H445.79"/>
<g clip-path="url(#clip_21)">
<path transform="matrix(1,0,0,-1,0,400)" d="M493.26 220.39V44.21H509.16V220.39H493.26" fill="#a2a2a2" fill-rule="evenodd"/>
</g>
<path transform="matrix(1,0,0,-1,0,400)" stroke-width="0" stroke-linecap="round" stroke-linejoin="round" fill="none" stroke="#000000" d="M493.26 220.39V44.21H509.16V220.39H493.26"/>
<g clip-path="url(#clip_22)">
<path transform="matrix(1,0,0,-1,0,400)" d="M540.72 305.83V44.21H556.62V305.83H540.72" fill="#a2a2a2" fill-rule="evenodd"/>
</g>
<path transform="matrix(1,0,0,-1,0,400)" stroke-width="0" stroke-linecap="round" stroke-linejoin="round" fill="none" stroke="#000000" d="M540.72 305.83V44.21H556.62V305.83H540.72"/>
<path transform="matrix(1,0,0,-1,0,400)" stroke-width=".8" stroke-linecap="round" stroke-linejoin="round" fill="none" stroke="#a2a2a2" stroke-opacity="0" d="M121.49 217.83V217.83"/>
<path transform="matrix(1,0,0,-1,0,400)" stroke-width=".8" stroke-linecap="round" stroke-linejoin="round" fill="none" stroke="#a2a2a2" stroke-opacity="0" d="M168.95 212.13V212.13"/>
<path transform="matrix(1,0,0,-1,0,400)" stroke-width=".8" stroke-linecap="round" stroke-linejoin="round" fill="none" stroke="#a2a2a2" stroke-opacity="0" d="M216.42 220.54V220.54"/>
<path transform="matrix(1,0,0,-1,0,400)" stroke-width=".8" stroke-linecap="round" stroke-linejoin="round" fill="none" stroke="#a2a2a2" stroke-opacity="0" d="M263.88 209.27V209.27"/>
<path transform="matrix(1,0,0,-1,0,400)" stroke-width=".8" stroke-linecap="round" stroke-linejoin="round" fill="none" stroke="#a2a2a2" stroke-opacity="0" d="M311.35 300.8V300.8"/>
<path transform="matrix(1,0,0,-1,0,400)" stroke-width=".8" stroke-linecap="round" stroke-linejoin="round" fill="none" stroke="#a2a2a2" stroke-opacity="0" d="M358.81 239.43V239.43"/>
<path transform="matrix(1,0,0,-1,0,400)" stroke-width=".8" stroke-linecap="round" stroke-linejoin="round" fill="none" stroke="#a2a2a2" stroke-opacity="0" d="M406.28 278V278"/>
<path transform="matrix(1,0,0,-1,0,400)" stroke-width=".8" stroke-linecap="round" stroke-linejoin="round" fill="none" stroke="#a2a2a2" stroke-opacity="0" d="M453.74 340.99V340.99"/>
<path transform="matrix(1,0,0,-1,0,400)" stroke-width=".8" stroke-linecap="round" stroke-linejoin="round" fill="none" stroke="#a2a2a2" stroke-opacity="0" d="M501.21 220.39V220.39"/>
<path transform="matrix(1,0,0,-1,0,400)" stroke-width=".8" stroke-linecap="round" stroke-linejoin="round" fill="none" stroke="#a2a2a2" stroke-opacity="0" d="M548.67 305.83V305.83"/>
<g clip-path="url(#clip_23)">
<path transform="matrix(1,0,0,-1,0,400)" d="M460.54 337.84H570.79V376.72H460.54" fill="#ffffff" fill-rule="evenodd"/>
</g>
<path transform="matrix(1,0,0,-1,0,400)" stroke-width="1" stroke-linecap="round" stroke-linejoin="round" fill="none" stroke="#000000" stroke-opacity="0" d="M460.54 337.84H570.79V376.72H460.54V337.84"/>
<path transform="matrix(1,0,0,-1,0,400)" d="M483.75 368.88C480.92 368.88 478.63 366.59 478.63 363.76 478.63 360.94 480.92 358.64 483.75 358.64 486.57 358.64 488.87 360.94 488.87 363.76 488.87 366.59 486.57 368.88 483.75 368.88" fill="#1b1b1b" fill-rule="evenodd"/>
<path transform="matrix(1,0,0,-1,0,400)" d="M512.51 367.8V366.66C512.51 366.66 511.85 366.98 511.26 367.13 511.26 367.13 510.67 367.29 510.12 367.29 510.12 367.29 509.16 367.29 508.64 366.92 508.64 366.92 508.13 366.55 508.13 365.87 508.13 365.87 508.13 365.29 508.47 365 508.47 365 508.82 364.71 509.78 364.53L510.48 364.38C510.48 364.38 511.79 364.14 512.41 363.51 512.41 363.51 513.03 362.88 513.03 361.83 513.03 361.83 513.03 360.57 512.19 359.92 512.19 359.92 511.35 359.28 509.72 359.28 509.72 359.28 509.11 359.28 508.42 359.41 508.42 359.41 507.73 359.55 506.99 359.82V361.03C506.99 361.03 507.7 360.63 508.38 360.43 508.38 360.43 509.06 360.22 509.72 360.22 509.72 360.22 510.72 360.22 511.27 360.62 511.27 360.62 511.81 361.01 511.81 361.74 511.81 361.74 511.81 362.38 511.42 362.74 511.42 362.74 511.03 363.09 510.14 363.27L509.43 363.41C509.43 363.41 508.12 363.67 507.54 364.23 507.54 364.23 506.95 364.78 506.95 365.77 506.95 365.77 506.95 366.92 507.76 367.58 507.76 367.58 508.57 368.24 509.98 368.24 509.98 368.24 510.59 368.24 511.22 368.13 511.22 368.13 511.85 368.02 512.51 367.8Z"/>
<path transform="matrix(1,0,0,-1,0,400)" d="M514.81 365.92H515.88V359.44H514.81V365.92M514.81 368.45H515.88V367.1H514.81V368.45Z"/>
<path transform="matrix(1,0,0,-1,0,400)" d="M523.15 364.68C523.15 364.68 523.55 365.4 524.1 365.74 524.1 365.74 524.66 366.08 525.41 366.08 525.41 366.08 526.42 366.08 526.97 365.37 526.97 365.37 527.52 364.66 527.52 363.35V359.44H526.45V363.32C526.45 363.32 526.45 364.25 526.12 364.7 526.12 364.7 525.79 365.15 525.12 365.15 525.12 365.15 524.29 365.15 523.81 364.6 523.81 364.6 523.33 364.06 523.33 363.11V359.44H522.26V363.32C522.26 363.32 522.26 364.26 521.93 364.7 521.93 364.7 521.6 365.15 520.91 365.15 520.91 365.15 520.09 365.15 519.61 364.6 519.61 364.6 519.13 364.05 519.13 363.11V359.44H518.06V365.92H519.13V364.92C519.13 364.92 519.5 365.51 520.01 365.8 520.01 365.8 520.52 366.08 521.22 366.08 521.22 366.08 521.92 366.08 522.41 365.72 522.41 365.72 522.91 365.36 523.15 364.68Z"/>
<path transform="matrix(1,0,0,-1,0,400)" d="M529.54 362V365.92H530.6V362.04C530.6 362.04 530.6 361.12 530.96 360.66 530.96 360.66 531.32 360.2 532.04 360.2 532.04 360.2 532.9 360.2 533.4 360.75 533.4 360.75 533.9 361.3 533.9 362.25V365.92H534.97V359.44H533.9V360.44C533.9 360.44 533.51 359.85 533 359.56 533 359.56 532.49 359.28 531.81 359.28 531.81 359.28 530.7 359.28 530.12 359.97 530.12 359.97 529.54 360.66 529.54 362M532.22 366.08V366.08Z"/>
<path transform="matrix(1,0,0,-1,0,400)" d="M537.16 368.45H538.22V359.44H537.16V368.45Z"/>
<path transform="matrix(1,0,0,-1,0,400)" d="M543.4 362.7C543.4 362.7 542.11 362.7 541.61 362.41 541.61 362.41 541.11 362.11 541.11 361.4 541.11 361.4 541.11 360.83 541.48 360.5 541.48 360.5 541.86 360.17 542.5 360.17 542.5 360.17 543.39 360.17 543.92 360.79 543.92 360.79 544.46 361.42 544.46 362.46V362.7H543.4M545.52 363.14V359.44H544.46V360.43C544.46 360.43 544.09 359.84 543.55 359.55 543.55 359.55 543 359.28 542.22 359.28 542.22 359.28 541.22 359.28 540.63 359.83 540.63 359.83 540.05 360.39 540.05 361.33 540.05 361.33 540.05 362.42 540.78 362.98 540.78 362.98 541.51 363.53 542.96 363.53H544.46V363.64C544.46 363.64 544.46 364.37 543.97 364.77 543.97 364.77 543.49 365.18 542.62 365.18 542.62 365.18 542.06 365.18 541.53 365.04 541.53 365.04 541.01 364.91 540.52 364.65V365.63C540.52 365.63 541.11 365.85 541.66 365.96 541.66 365.96 542.21 366.08 542.73 366.08 542.73 366.08 544.13 366.08 544.83 365.35 544.83 365.35 545.52 364.62 545.52 363.14Z"/>
<path transform="matrix(1,0,0,-1,0,400)" d="M548.77 367.76V365.92H550.96V365.1H548.77V361.58C548.77 361.58 548.77 360.79 548.98 360.56 548.98 360.56 549.2 360.33 549.87 360.33H550.96V359.44H549.87C549.87 359.44 548.64 359.44 548.17 359.9 548.17 359.9 547.7 360.36 547.7 361.58V365.1H546.92V365.92H547.7V367.76H548.77Z"/>
<path transform="matrix(1,0,0,-1,0,400)" d="M557.91 362.95V362.43H553.01C553.01 362.43 553.08 361.33 553.67 360.75 553.67 360.75 554.27 360.18 555.33 360.18 555.33 360.18 555.94 360.18 556.51 360.33 556.51 360.33 557.09 360.48 557.66 360.78V359.77C557.66 359.77 557.08 359.53 556.48 359.4 556.48 359.4 555.88 359.28 555.26 359.28 555.26 359.28 553.71 359.28 552.8 360.18 552.8 360.18 551.9 361.08 551.9 362.62 551.9 362.62 551.9 364.21 552.76 365.14 552.76 365.14 553.62 366.08 555.08 366.08 555.08 366.08 556.38 366.08 557.14 365.24 557.14 365.24 557.91 364.4 557.91 362.95M556.84 363.26C556.84 363.26 556.83 364.14 556.35 364.66 556.35 364.66 555.88 365.18 555.09 365.18 555.09 365.18 554.2 365.18 553.66 364.67 553.66 364.67 553.13 364.17 553.05 363.26H556.84Z"/>
<path transform="matrix(1,0,0,-1,0,400)" d="M563.92 364.94V368.45H564.98V359.44H563.92V360.42C563.92 360.42 563.58 359.84 563.07 359.55 563.07 359.55 562.56 359.28 561.84 359.28 561.84 359.28 560.67 359.28 559.93 360.21 559.93 360.21 559.19 361.15 559.19 362.68 559.19 362.68 559.19 364.21 559.93 365.14 559.93 365.14 560.67 366.08 561.84 366.08 561.84 366.08 562.56 366.08 563.07 365.8 563.07 365.8 563.58 365.52 563.92 364.94M560.29 362.68C560.29 362.68 560.29 361.5 560.77 360.83 560.77 360.83 561.26 360.17 562.1 360.17 562.1 360.17 562.95 360.17 563.43 360.83 563.43 360.83 563.92 361.5 563.92 362.68 563.92 362.68 563.92 363.85 563.43 364.52 563.43 364.52 562.95 365.19 562.1 365.19 562.1 365.19 561.26 365.19 560.77 364.52 560.77 364.52 560.29 363.85 560.29 362.68Z"/>
<path transform="matrix(1,0,0,-1,0,400)" d="M483.75 355.92C480.92 355.92 478.63 353.63 478.63 350.8 478.63 347.98 480.92 345.68 483.75 345.68 486.57 345.68 488.87 347.98 488.87 350.8 488.87 353.63 486.57 355.92 483.75 355.92" fill="#a2a2a2" fill-rule="evenodd"/>
<path transform="matrix(1,0,0,-1,0,400)" d="M510.91 353.97 509.32 349.67H512.5L510.91 353.97M510.25 355.12H511.58L514.87 346.48H513.65L512.87 348.7H508.97L508.18 346.48H506.95L510.25 355.12Z"/>
<path transform="matrix(1,0,0,-1,0,400)" d="M520.54 352.72V351.72C520.54 351.72 520.09 351.97 519.63 352.09 519.63 352.09 519.18 352.22 518.72 352.22 518.72 352.22 517.68 352.22 517.11 351.56 517.11 351.56 516.53 350.9 516.53 349.72 516.53 349.72 516.53 348.53 517.11 347.87 517.11 347.87 517.68 347.22 518.72 347.22 518.72 347.22 519.18 347.22 519.63 347.34 519.63 347.34 520.09 347.47 520.54 347.72V346.73C520.54 346.73 520.09 346.52 519.61 346.42 519.61 346.42 519.14 346.32 518.6 346.32 518.6 346.32 517.14 346.32 516.27 347.24 516.27 347.24 515.41 348.16 515.41 349.72 515.41 349.72 515.41 351.3 516.28 352.21 516.28 352.21 517.15 353.12 518.67 353.12 518.67 353.12 519.16 353.12 519.63 353.02 519.63 353.02 520.1 352.92 520.54 352.72Z"/>
<path transform="matrix(1,0,0,-1,0,400)" d="M523.44 354.8V352.96H525.64V352.14H523.44V348.62C523.44 348.62 523.44 347.83 523.66 347.6 523.66 347.6 523.88 347.37 524.54 347.37H525.64V346.48H524.54C524.54 346.48 523.31 346.48 522.84 346.94 522.84 346.94 522.37 347.4 522.37 348.62V352.14H521.59V352.96H522.37V354.8H523.44Z"/>
<path transform="matrix(1,0,0,-1,0,400)" d="M526.93 349.04V352.96H527.99V349.08C527.99 349.08 527.99 348.16 528.35 347.7 528.35 347.7 528.71 347.24 529.43 347.24 529.43 347.24 530.29 347.24 530.79 347.79 530.79 347.79 531.29 348.34 531.29 349.29V352.96H532.36V346.48H531.29V347.48C531.29 347.48 530.9 346.89 530.39 346.6 530.39 346.6 529.88 346.32 529.2 346.32 529.2 346.32 528.09 346.32 527.51 347.01 527.51 347.01 526.93 347.7 526.93 349.04M529.61 353.12V353.12Z"/>
<path transform="matrix(1,0,0,-1,0,400)" d="M537.5 349.74C537.5 349.74 536.2 349.74 535.71 349.45 535.71 349.45 535.21 349.15 535.21 348.44 535.21 348.44 535.21 347.87 535.58 347.54 535.58 347.54 535.96 347.21 536.6 347.21 536.6 347.21 537.48 347.21 538.02 347.83 538.02 347.83 538.55 348.46 538.55 349.5V349.74H537.5M539.62 350.18V346.48H538.55V347.47C538.55 347.47 538.19 346.88 537.65 346.59 537.65 346.59 537.1 346.32 536.31 346.32 536.31 346.32 535.32 346.32 534.73 346.87 534.73 346.87 534.14 347.43 534.14 348.37 534.14 348.37 534.14 349.46 534.87 350.02 534.87 350.02 535.61 350.57 537.06 350.57H538.55V350.68C538.55 350.68 538.55 351.41 538.07 351.81 538.07 351.81 537.59 352.22 536.71 352.22 536.71 352.22 536.16 352.22 535.63 352.08 535.63 352.08 535.11 351.95 534.62 351.69V352.67C534.62 352.67 535.2 352.89 535.75 353 535.75 353 536.3 353.12 536.82 353.12 536.82 353.12 538.23 353.12 538.92 352.39 538.92 352.39 539.62 351.66 539.62 350.18Z"/>
<path transform="matrix(1,0,0,-1,0,400)" d="M541.81 355.49H542.88V346.48H541.81V355.49Z"/>
</g>
</svg>
