<svg xmlns="http://www.w3.org/2000/svg" xmlns:xlink="http://www.w3.org/1999/xlink" version="1.1" width="600pt" height="400pt" viewBox="0 0 600 400">
<defs>
<clipPath id="clip_0">
<path transform="matrix(1,0,0,-1,0,400)" d="M0 0H600V400H0Z"/>
</clipPath>
<clipPath id="clip_1">
<path transform="matrix(1,0,0,-1,0,400)" d="M0 0H600V600H0Z"/>
</clipPath>
<clipPath id="clip_2">
<path transform="matrix(1,0,0,-1,0,400)" d="M0 0H600V600H0Z"/>
</clipPath>
<clipPath id="clip_3">
<path transform="matrix(1,0,0,-1,0,400)" d="M66.36 44.21H588.19V388.19H66.36Z"/>
</clipPath>
<clipPath id="clip_4">
<path transform="matrix(1,0,0,-1,0,400)" d="M66.36 44.21H588.19V388.19H66.36Z"/>
</clipPath>
<clipPath id="clip_5">
<path transform="matrix(1,0,0,-1,0,400)" d="M66.36 44.21H588.19V388.19H66.36Z"/>
</clipPath>
<clipPath id="clip_6">
<path transform="matrix(1,0,0,-1,0,400)" d="M66.36 44.21H588.19V388.19H66.36Z"/>
</clipPath>
<clipPath id="clip_7">
<path transform="matrix(1,0,0,-1,0,400)" d="M66.36 44.21H588.19V388.19H66.36Z"/>
</clipPath>
<clipPath id="clip_8">
<path transform="matrix(1,0,0,-1,0,400)" d="M66.36 44.21H588.19V388.19H66.36Z"/>
</clipPath>
<clipPath id="clip_9">
<path transform="matrix(1,0,0,-1,0,400)" d="M66.36 44.21H588.19V388.19H66.36Z"/>
</clipPath>
<clipPath id="clip_10">
<path transform="matrix(1,0,0,-1,0,400)" d="M66.36 44.21H588.19V388.19H66.36Z"/>
</clipPath>
<clipPath id="clip_11">
<path transform="matrix(1,0,0,-1,0,400)" d="M66.36 44.21H588.19V388.19H66.36Z"/>
</clipPath>
<clipPath id="clip_12">
<path transform="matrix(1,0,0,-1,0,400)" d="M66.36 44.21H588.19V388.19H66.36Z"/>
</clipPath>
<clipPath id="clip_13">
<path transform="matrix(1,0,0,-1,0,400)" d="M66.36 44.21H588.19V388.19H66.36Z"/>
</clipPath>
<clipPath id="clip_14">
<path transform="matrix(1,0,0,-1,0,400)" d="M66.36 44.21H588.19V388.19H66.36Z"/>
</clipPath>
<clipPath id="clip_15">
<path transform="matrix(1,0,0,-1,0,400)" d="M66.36 44.21H588.19V388.19H66.36Z"/>
</clipPath>
<clipPath id="clip_16">
<path transform="matrix(1,0,0,-1,0,400)" d="M66.36 44.21H588.19V388.19H66.36Z"/>
</clipPath>
<clipPath id="clip_17">
<path transform="matrix(1,0,0,-1,0,400)" d="M66.36 44.21H588.19V388.19H66.36Z"/>
</clipPath>
<clipPath id="clip_18">
<path transform="matrix(1,0,0,-1,0,400)" d="M66.36 44.21H588.19V388.19H66.36Z"/>
</clipPath>
<clipPath id="clip_19">
<path transform="matrix(1,0,0,-1,0,400)" d="M66.36 44.21H588.19V388.19H66.36Z"/>
</clipPath>
<clipPath id="clip_20">
<path transform="matrix(1,0,0,-1,0,400)" d="M66.36 44.21H588.19V388.19H66.36Z"/>
</clipPath>
<clipPath id="clip_21">
<path transform="matrix(1,0,0,-1,0,400)" d="M66.36 44.21H588.19V388.19H66.36Z"/>
</clipPath>
<clipPath id="clip_22">
<path transform="matrix(1,0,0,-1,0,400)" d="M66.36 44.21H588.19V388.19H66.36Z"/>
</clipPath>
<clipPath id="clip_23">
<path transform="matrix(1,0,0,-1,0,400)" d="M0 0H600V600H0Z"/>
</clipPath>
</defs>
<g clip-path="url(#clip_0)">
<g clip-path="url(#clip_1)">
<path transform="matrix(1,0,0,-1,0,400)" d="M0 0H600V400H0" fill="#ffffff" fill-rule="evenodd"/>
</g>
<g clip-path="url(#clip_2)">
<path transform="matrix(1,0,0,-1,0,400)" d="M66.36 44.21H588.19V388.19H66.36" fill="#ffffff" fill-rule="evenodd"/>
</g>
<path transform="matrix(1,0,0,-1,0,400)" stroke-width="1" stroke-linecap="round" stroke-linejoin="round" fill="none" stroke="#000000" d="M66.36 44.21H588.19"/>
<path transform="matrix(1,0,0,-1,0,400)" stroke-width="1" stroke-linecap="round" stroke-linejoin="round" fill="none" stroke="#000000" d="M113.8 44.21V48.93"/>
<path transform="matrix(1,0,0,-1,0,400)" stroke-width="1" stroke-linecap="round" stroke-linejoin="round" fill="none" stroke="#000000" d="M161.24 44.21V48.93"/>
<path transform="matrix(1,0,0,-1,0,400)" stroke-width="1" stroke-linecap="round" stroke-linejoin="round" fill="none" stroke="#000000" d="M208.68 44.21V48.93"/>
<path transform="matrix(1,0,0,-1,0,400)" stroke-width="1" stroke-linecap="round" stroke-linejoin="round" fill="none" stroke="#000000" d="M256.12 44.21V48.93"/>
<path transform="matrix(1,0,0,-1,0,400)" stroke-width="1" stroke-linecap="round" stroke-linejoin="round" fill="none" stroke="#000000" d="M303.56 44.21V48.93"/>
<path transform="matrix(1,0,0,-1,0,400)" stroke-width="1" stroke-linecap="round" stroke-linejoin="round" fill="none" stroke="#000000" d="M350.99 44.21V48.93"/>
<path transform="matrix(1,0,0,-1,0,400)" stroke-width="1" stroke-linecap="round" stroke-linejoin="round" fill="none" stroke="#000000" d="M398.43 44.21V48.93"/>
<path transform="matrix(1,0,0,-1,0,400)" stroke-width="1" stroke-linecap="round" stroke-linejoin="round" fill="none" stroke="#000000" d="M445.87 44.21V48.93"/>
<path transform="matrix(1,0,0,-1,0,400)" stroke-width="1" stroke-linecap="round" stroke-linejoin="round" fill="none" stroke="#000000" d="M493.31 44.21V48.93"/>
<path transform="matrix(1,0,0,-1,0,400)" stroke-width="1" stroke-linecap="round" stroke-linejoin="round" fill="none" stroke="#000000" d="M540.75 44.21V48.93"/>
<path transform="matrix(1,0,0,-1,0,400)" d="M111.4 29.59H113.31V36.18L111.23 35.76V36.83L113.29 37.25H114.46V29.59H116.37V28.61H111.4V29.59Z"/>
<path transform="matrix(1,0,0,-1,0,400)" d="M159.9 29.59H163.98V28.61H158.5V29.59C158.5 29.59 159.16 30.28 160.31 31.43 160.31 31.43 161.46 32.6 161.75 32.93 161.75 32.93 162.32 33.56 162.54 34 162.54 34 162.76 34.44 162.76 34.86 162.76 34.86 162.76 35.55 162.27 35.98 162.27 35.98 161.79 36.42 161.02 36.42 161.02 36.42 160.47 36.42 159.86 36.23 159.86 36.23 159.25 36.04 158.55 35.65V36.83C158.55 36.83 159.26 37.11 159.87 37.26 159.87 37.26 160.49 37.4 161 37.4 161 37.4 162.34 37.4 163.14 36.73 163.14 36.73 163.94 36.06 163.94 34.94 163.94 34.94 163.94 34.4 163.73 33.92 163.73 33.92 163.54 33.45 163.01 32.8 163.01 32.8 162.87 32.63 162.09 31.83 162.09 31.83 161.31 31.03 159.9 29.59Z"/>
<path transform="matrix(1,0,0,-1,0,400)" d="M209.74 33.26C209.74 33.26 210.58 33.08 211.05 32.52 211.05 32.52 211.52 31.95 211.52 31.12 211.52 31.12 211.52 29.84 210.64 29.14 210.64 29.14 209.76 28.44 208.14 28.44 208.14 28.44 207.6 28.44 207.02 28.55 207.02 28.55 206.45 28.65 205.83 28.87V29.99C205.83 29.99 206.32 29.71 206.9 29.57 206.9 29.57 207.48 29.42 208.11 29.42 208.11 29.42 209.21 29.42 209.78 29.86 209.78 29.86 210.36 30.29 210.36 31.12 210.36 31.12 210.36 31.88 209.82 32.31 209.82 32.31 209.29 32.74 208.33 32.74H207.33V33.7H208.38C208.38 33.7 209.24 33.7 209.7 34.04 209.7 34.04 210.16 34.39 210.16 35.04 210.16 35.04 210.16 35.71 209.68 36.06 209.68 36.06 209.21 36.42 208.33 36.42 208.33 36.42 207.85 36.42 207.3 36.31 207.3 36.31 206.75 36.21 206.09 35.99V37.03C206.09 37.03 206.76 37.22 207.34 37.31 207.34 37.31 207.92 37.4 208.44 37.4 208.44 37.4 209.77 37.4 210.54 36.79 210.54 36.79 211.32 36.19 211.32 35.16 211.32 35.16 211.32 34.44 210.91 33.95 210.91 33.95 210.5 33.45 209.74 33.26Z"/>
<path transform="matrix(1,0,0,-1,0,400)" d="M256.87 36.23 253.92 31.61H256.87V36.23M256.56 37.25H258.03V31.61H259.26V30.64H258.03V28.61H256.87V30.64H252.97V31.77L256.56 37.25Z"/>
<path transform="matrix(1,0,0,-1,0,400)" d="M301.13 37.25H305.71V36.26H302.2V34.14C302.2 34.14 302.45 34.23 302.7 34.27 302.7 34.27 302.96 34.32 303.21 34.32 303.21 34.32 304.66 34.32 305.51 33.52 305.51 33.52 306.35 32.73 306.35 31.38 306.35 31.38 306.35 29.98 305.48 29.21 305.48 29.21 304.61 28.44 303.03 28.44 303.03 28.44 302.49 28.44 301.92 28.53 301.92 28.53 301.36 28.62 300.76 28.81V29.98C300.76 29.98 301.28 29.7 301.84 29.56 301.84 29.56 302.39 29.42 303.01 29.42 303.01 29.42 304.01 29.42 304.6 29.95 304.6 29.95 305.18 30.47 305.18 31.38 305.18 31.38 305.18 32.28 304.6 32.81 304.6 32.81 304.01 33.33 303.01 33.33 303.01 33.33 302.54 33.33 302.07 33.23 302.07 33.23 301.61 33.12 301.13 32.9V37.25Z"/>
<path transform="matrix(1,0,0,-1,0,400)" d="M351.1 33.39C351.1 33.39 350.31 33.39 349.85 32.85 349.85 32.85 349.39 32.31 349.39 31.38 349.39 31.38 349.39 30.45 349.85 29.9 349.85 29.9 350.31 29.36 351.1 29.36 351.1 29.36 351.88 29.36 352.34 29.9 352.34 29.9 352.8 30.45 352.8 31.38 352.8 31.38 352.8 32.31 352.34 32.85 352.34 32.85 351.88 33.39 351.1 33.39M353.42 37.05V35.99C353.42 35.99 352.98 36.2 352.53 36.31 352.53 36.31 352.08 36.42 351.64 36.42 351.64 36.42 350.48 36.42 349.87 35.64 349.87 35.64 349.26 34.86 349.17 33.28 349.17 33.28 349.52 33.78 350.03 34.04 350.03 34.04 350.55 34.32 351.17 34.32 351.17 34.32 352.47 34.32 353.22 33.52 353.22 33.52 353.98 32.74 353.98 31.38 353.98 31.38 353.98 30.05 353.19 29.24 353.19 29.24 352.4 28.44 351.1 28.44 351.1 28.44 349.6 28.44 348.8 29.58 348.8 29.58 348.01 30.73 348.01 32.92 348.01 32.92 348.01 34.96 348.98 36.18 348.98 36.18 349.96 37.4 351.59 37.4 351.59 37.4 352.03 37.4 352.48 37.31 352.48 37.31 352.93 37.23 353.42 37.05Z"/>
<path transform="matrix(1,0,0,-1,0,400)" d="M395.66 37.25H401.21V36.75L398.07 28.61H396.85L399.8 36.26H395.66V37.25Z"/>
<path transform="matrix(1,0,0,-1,0,400)" d="M445.87 32.71C445.87 32.71 445.04 32.71 444.56 32.26 444.56 32.26 444.08 31.82 444.08 31.04 444.08 31.04 444.08 30.25 444.56 29.81 444.56 29.81 445.04 29.36 445.87 29.36 445.87 29.36 446.71 29.36 447.19 29.81 447.19 29.81 447.67 30.26 447.67 31.04 447.67 31.04 447.67 31.82 447.19 32.26 447.19 32.26 446.71 32.71 445.87 32.71M444.7 33.21C444.7 33.21 443.95 33.39 443.53 33.91 443.53 33.91 443.11 34.42 443.11 35.16 443.11 35.16 443.11 36.2 443.85 36.8 443.85 36.8 444.59 37.4 445.87 37.4 445.87 37.4 447.16 37.4 447.9 36.8 447.9 36.8 448.63 36.2 448.63 35.16 448.63 35.16 448.63 34.42 448.21 33.91 448.21 33.91 447.79 33.39 447.05 33.21 447.05 33.21 447.89 33.01 448.36 32.44 448.36 32.44 448.84 31.86 448.84 31.04 448.84 31.04 448.84 29.78 448.07 29.11 448.07 29.11 447.3 28.44 445.87 28.44 445.87 28.44 444.44 28.44 443.67 29.11 443.67 29.11 442.91 29.78 442.91 31.04 442.91 31.04 442.91 31.86 443.38 32.44 443.38 32.44 443.86 33.01 444.7 33.21M444.28 35.05C444.28 35.05 444.28 34.38 444.69 34 444.69 34 445.11 33.63 445.87 33.63 445.87 33.63 446.62 33.63 447.05 34 447.05 34 447.48 34.38 447.48 35.05 447.48 35.05 447.48 35.72 447.05 36.1 447.05 36.1 446.62 36.48 445.87 36.48 445.87 36.48 445.11 36.48 444.69 36.1 444.69 36.1 444.28 35.72 444.28 35.05Z"/>
<path transform="matrix(1,0,0,-1,0,400)" d="M490.89 28.78V29.85C490.89 29.85 491.33 29.64 491.78 29.53 491.78 29.53 492.23 29.42 492.66 29.42 492.66 29.42 493.82 29.42 494.43 30.2 494.43 30.2 495.04 30.98 495.13 32.56 495.13 32.56 494.79 32.07 494.28 31.8 494.28 31.8 493.76 31.53 493.14 31.53 493.14 31.53 491.84 31.53 491.08 32.31 491.08 32.31 490.33 33.1 490.33 34.46 490.33 34.46 490.33 35.79 491.12 36.6 491.12 36.6 491.9 37.4 493.21 37.4 493.21 37.4 494.71 37.4 495.5 36.25 495.5 36.25 496.29 35.1 496.29 32.92 496.29 32.92 496.29 30.87 495.32 29.65 495.32 29.65 494.35 28.44 492.72 28.44 492.72 28.44 492.28 28.44 491.82 28.52 491.82 28.52 491.37 28.61 490.89 28.78M493.21 32.45C493.21 32.45 494 32.45 494.46 32.99 494.46 32.99 494.92 33.52 494.92 34.46 494.92 34.46 494.92 35.39 494.46 35.93 494.46 35.93 494 36.48 493.21 36.48 493.21 36.48 492.43 36.48 491.96 35.93 491.96 35.93 491.51 35.39 491.51 34.46 491.51 34.46 491.51 33.52 491.96 32.99 491.96 32.99 492.43 32.45 493.21 32.45Z"/>
<path transform="matrix(1,0,0,-1,0,400)" d="M534.42 29.59H536.33V36.18L534.25 35.76V36.83L536.32 37.25H537.49V29.59H539.4V28.61H534.42V29.59Z"/>
<path transform="matrix(1,0,0,-1,0,400)" d="M544.26 36.48C544.26 36.48 543.36 36.48 542.9 35.58 542.9 35.58 542.45 34.7 542.45 32.92 542.45 32.92 542.45 31.14 542.9 30.25 542.9 30.25 543.36 29.36 544.26 29.36 544.26 29.36 545.17 29.36 545.62 30.25 545.62 30.25 546.08 31.14 546.08 32.92 546.08 32.92 546.08 34.7 545.62 35.58 545.62 35.58 545.17 36.48 544.26 36.48M544.26 37.4C544.26 37.4 545.71 37.4 546.48 36.25 546.48 36.25 547.25 35.1 547.25 32.92 547.25 32.92 547.25 30.73 546.48 29.58 546.48 29.58 545.71 28.44 544.26 28.44 544.26 28.44 542.81 28.44 542.04 29.58 542.04 29.58 541.27 30.73 541.27 32.92 541.27 32.92 541.27 35.1 542.04 36.25 542.04 36.25 542.81 37.4 544.26 37.4Z"/>
<path transform="matrix(1,0,0,-1,0,400)" d="M276.56 18.55V14.08H278.58C278.58 14.08 279.7 14.08 280.31 14.67 280.31 14.67 280.92 15.25 280.92 16.32 280.92 16.32 280.92 17.39 280.31 17.97 280.31 17.97 279.7 18.55 278.58 18.55H276.56M274.95 19.87H278.58C278.58 19.87 280.57 19.87 281.59 18.96 281.59 18.96 282.62 18.06 282.62 16.32 282.62 16.32 282.62 14.56 281.59 13.66 281.59 13.66 280.57 12.76 278.58 12.76H276.56V7.99H274.95V19.87Z"/>
<path transform="matrix(1,0,0,-1,0,400)" d="M288.03 12.47C288.03 12.47 286.26 12.47 285.57 12.06 285.57 12.06 284.89 11.66 284.89 10.68 284.89 10.68 284.89 9.9 285.4 9.44 285.4 9.44 285.91 8.98 286.8 8.98 286.8 8.98 288.01 8.98 288.75 9.84 288.75 9.84 289.49 10.71 289.49 12.14V12.47H288.03M290.95 13.07V7.99H289.49V9.34C289.49 9.34 288.99 8.53 288.24 8.14 288.24 8.14 287.49 7.76 286.41 7.76 286.41 7.76 285.04 7.76 284.23 8.52 284.23 8.52 283.42 9.29 283.42 10.58 283.42 10.58 283.42 12.09 284.43 12.85 284.43 12.85 285.44 13.61 287.43 13.61H289.49V13.76C289.49 13.76 289.49 14.77 288.82 15.32 288.82 15.32 288.16 15.87 286.96 15.87 286.96 15.87 286.19 15.87 285.47 15.69 285.47 15.69 284.74 15.51 284.08 15.14V16.5C284.08 16.5 284.88 16.81 285.64 16.96 285.64 16.96 286.39 17.12 287.11 17.12 287.11 17.12 289.04 17.12 290 16.11 290 16.11 290.95 15.11 290.95 13.07Z"/>
<path transform="matrix(1,0,0,-1,0,400)" d="M295.41 19.43V16.9H298.43V15.76H295.41V10.93C295.41 10.93 295.41 9.84 295.71 9.52 295.71 9.52 296.01 9.21 296.93 9.21H298.43V7.99H296.93C296.93 7.99 295.23 7.99 294.59 8.62 294.59 8.62 293.94 9.25 293.94 10.93V15.76H292.87V16.9H293.94V19.43H295.41Z"/>
<path transform="matrix(1,0,0,-1,0,400)" d="M300.36 16.9H301.82V7.99H300.36V16.9M300.36 20.37H301.82V18.52H300.36V20.37Z"/>
<path transform="matrix(1,0,0,-1,0,400)" d="M312.51 12.81V12.09H305.77C305.77 12.09 305.87 10.58 306.68 9.79 306.68 9.79 307.5 9 308.96 9 308.96 9 309.8 9 310.59 9.21 310.59 9.21 311.38 9.41 312.16 9.83V8.44C312.16 8.44 311.38 8.11 310.55 7.93 310.55 7.93 309.72 7.76 308.87 7.76 308.87 7.76 306.74 7.76 305.49 9 305.49 9 304.25 10.24 304.25 12.36 304.25 12.36 304.25 14.55 305.42 15.83 305.42 15.83 306.61 17.12 308.62 17.12 308.62 17.12 310.41 17.12 311.46 15.95 311.46 15.95 312.51 14.8 312.51 12.81M311.04 13.24C311.04 13.24 311.03 14.44 310.37 15.16 310.37 15.16 309.71 15.87 308.63 15.87 308.63 15.87 307.41 15.87 306.67 15.18 306.67 15.18 305.93 14.49 305.82 13.23L311.04 13.24Z"/>
<path transform="matrix(1,0,0,-1,0,400)" d="M322.32 13.37V7.99H320.85V13.32C320.85 13.32 320.85 14.59 320.36 15.21 320.36 15.21 319.87 15.84 318.88 15.84 318.88 15.84 317.69 15.84 317.01 15.09 317.01 15.09 316.33 14.33 316.33 13.03V7.99H314.85V16.9H316.33V15.52C316.33 15.52 316.85 16.32 317.56 16.72 317.56 16.72 318.28 17.12 319.21 17.12 319.21 17.12 320.74 17.12 321.53 16.16 321.53 16.16 322.32 15.21 322.32 13.37Z"/>
<path transform="matrix(1,0,0,-1,0,400)" d="M326.69 19.43V16.9H329.7V15.76H326.69V10.93C326.69 10.93 326.69 9.84 326.98 9.52 326.98 9.52 327.28 9.21 328.2 9.21H329.7V7.99H328.2C328.2 7.99 326.5 7.99 325.86 8.62 325.86 8.62 325.21 9.25 325.21 10.93V15.76H324.14V16.9H325.21V19.43H326.69Z"/>
<path transform="matrix(1,0,0,-1,0,400)" d="M336.87 19.87H338.48V7.99H336.87V19.87Z"/>
<path transform="matrix(1,0,0,-1,0,400)" d="M349.02 13.37V7.99H347.56V13.32C347.56 13.32 347.56 14.59 347.06 15.21 347.06 15.21 346.57 15.84 345.58 15.84 345.58 15.84 344.4 15.84 343.71 15.09 343.71 15.09 343.03 14.33 343.03 13.03V7.99H341.56V16.9H343.03V15.52C343.03 15.52 343.56 16.32 344.26 16.72 344.26 16.72 344.98 17.12 345.91 17.12 345.91 17.12 347.45 17.12 348.23 16.16 348.23 16.16 349.02 15.21 349.02 13.37Z"/>
<path transform="matrix(1,0,0,-1,0,400)" d="M357.81 15.55V20.37H359.27V7.99H357.81V9.33C357.81 9.33 357.35 8.53 356.64 8.14 356.64 8.14 355.94 7.76 354.95 7.76 354.95 7.76 353.33 7.76 352.32 9.05 352.32 9.05 351.31 10.34 351.31 12.44 351.31 12.44 351.31 14.54 352.32 15.83 352.32 15.83 353.33 17.12 354.95 17.12 354.95 17.12 355.94 17.12 356.64 16.73 356.64 16.73 357.35 16.34 357.81 15.55M352.82 12.44C352.82 12.44 352.82 10.82 353.48 9.9 353.48 9.9 354.15 8.98 355.31 8.98 355.31 8.98 356.47 8.98 357.14 9.9 357.14 9.9 357.81 10.82 357.81 12.44 357.81 12.44 357.81 14.05 357.14 14.97 357.14 14.97 356.47 15.89 355.31 15.89 355.31 15.89 354.15 15.89 353.48 14.97 353.48 14.97 352.82 14.05 352.82 12.44Z"/>
<path transform="matrix(1,0,0,-1,0,400)" d="M369.91 12.81V12.09H363.18C363.18 12.09 363.27 10.58 364.08 9.79 364.08 9.79 364.9 9 366.36 9 366.36 9 367.2 9 367.99 9.21 367.99 9.21 368.79 9.41 369.57 9.83V8.44C369.57 8.44 368.78 8.11 367.95 7.93 367.95 7.93 367.12 7.76 366.27 7.76 366.27 7.76 364.14 7.76 362.89 9 362.89 9 361.65 10.24 361.65 12.36 361.65 12.36 361.65 14.55 362.83 15.83 362.83 15.83 364.01 17.12 366.02 17.12 366.02 17.12 367.82 17.12 368.86 15.95 368.86 15.95 369.91 14.8 369.91 12.81M368.45 13.24C368.45 13.24 368.43 14.44 367.77 15.16 367.77 15.16 367.12 15.87 366.03 15.87 366.03 15.87 364.81 15.87 364.07 15.18 364.07 15.18 363.34 14.49 363.23 13.23L368.45 13.24Z"/>
<path transform="matrix(1,0,0,-1,0,400)" d="M379.43 16.9 376.21 12.56 379.6 7.99H377.87L375.28 11.49 372.69 7.99H370.96L374.42 12.65 371.25 16.9H372.98L375.34 13.73 377.71 16.9H379.43Z"/>
<path transform="matrix(1,0,0,-1,0,400)" stroke-width="1" stroke-linecap="round" stroke-linejoin="round" fill="none" stroke="#000000" d="M66.36 44.21V388.19"/>
<path transform="matrix(1,0,0,-1,0,400)" stroke-width="1" stroke-linecap="round" stroke-linejoin="round" fill="none" stroke="#000000" d="M66.36 44.21H71.09"/>
<path transform="matrix(1,0,0,-1,0,400)" stroke-width="1" stroke-linecap="round" stroke-linejoin="round" fill="none" stroke="#000000" d="M66.36 126.11H71.09"/>
<path transform="matrix(1,0,0,-1,0,400)" stroke-width="1" stroke-linecap="round" stroke-linejoin="round" fill="none" stroke="#000000" d="M66.36 208.01H71.09"/>
<path transform="matrix(1,0,0,-1,0,400)" stroke-width="1" stroke-linecap="round" stroke-linejoin="round" fill="none" stroke="#000000" d="M66.36 289.91H71.09"/>
<path transform="matrix(1,0,0,-1,0,400)" stroke-width="1" stroke-linecap="round" stroke-linejoin="round" fill="none" stroke="#000000" d="M66.36 371.81H71.09"/>
<path transform="matrix(1,0,0,-1,0,400)" d="M54.38 47.76C54.38 47.76 53.47 47.76 53.02 46.86 53.02 46.86 52.56 45.98 52.56 44.2 52.56 44.2 52.56 42.42 53.02 41.53 53.02 41.53 53.47 40.64 54.38 40.64 54.38 40.64 55.28 40.64 55.74 41.53 55.74 41.53 56.19 42.42 56.19 44.2 56.19 44.2 56.19 45.98 55.74 46.86 55.74 46.86 55.28 47.76 54.38 47.76M54.38 48.68C54.38 48.68 55.83 48.68 56.59 47.53 56.59 47.53 57.36 46.38 57.36 44.2 57.36 44.2 57.36 42.01 56.59 40.86 56.59 40.86 55.83 39.72 54.38 39.72 54.38 39.72 52.92 39.72 52.15 40.86 52.15 40.86 51.39 42.01 51.39 44.2 51.39 44.2 51.39 46.38 52.15 47.53 52.15 47.53 52.92 48.68 54.38 48.68Z"/>
<path transform="matrix(1,0,0,-1,0,400)" d="M29.46 122.77H31.37V129.36L29.29 128.94V130.01L31.35 130.43H32.52V122.77H34.43V121.79H29.46V122.77Z"/>
<path transform="matrix(1,0,0,-1,0,400)" d="M39.29 129.66C39.29 129.66 38.39 129.66 37.93 128.77 37.93 128.77 37.48 127.88 37.48 126.1 37.48 126.1 37.48 124.32 37.93 123.43 37.93 123.43 38.39 122.54 39.29 122.54 39.29 122.54 40.2 122.54 40.65 123.43 40.65 123.43 41.11 124.32 41.11 126.1 41.11 126.1 41.11 127.88 40.65 128.77 40.65 128.77 40.2 129.66 39.29 129.66M39.29 130.58C39.29 130.58 40.75 130.58 41.51 129.43 41.51 129.43 42.28 128.28 42.28 126.1 42.28 126.1 42.28 123.92 41.51 122.76 41.51 122.76 40.75 121.62 39.29 121.62 39.29 121.62 37.84 121.62 37.07 122.76 37.07 122.76 36.31 123.92 36.31 126.1 36.31 126.1 36.31 128.28 37.07 129.43 37.07 129.43 37.84 130.58 39.29 130.58Z"/>
<path transform="matrix(1,0,0,-1,0,400)" d="M46.83 129.66C46.83 129.66 45.93 129.66 45.47 128.77 45.47 128.77 45.02 127.88 45.02 126.1 45.02 126.1 45.02 124.32 45.47 123.43 45.47 123.43 45.93 122.54 46.83 122.54 46.83 122.54 47.74 122.54 48.19 123.43 48.19 123.43 48.65 124.32 48.65 126.1 48.65 126.1 48.65 127.88 48.19 128.77 48.19 128.77 47.74 129.66 46.83 129.66M46.83 130.58C46.83 130.58 48.29 130.58 49.05 129.43 49.05 129.43 49.82 128.28 49.82 126.1 49.82 126.1 49.82 123.92 49.05 122.76 49.05 122.76 48.29 121.62 46.83 121.62 46.83 121.62 45.38 121.62 44.61 122.76 44.61 122.76 43.85 123.92 43.85 126.1 43.85 126.1 43.85 128.28 44.61 129.43 44.61 129.43 45.38 130.58 46.83 130.58Z"/>
<path transform="matrix(1,0,0,-1,0,400)" d="M54.38 129.66C54.38 129.66 53.47 129.66 53.02 128.77 53.02 128.77 52.56 127.88 52.56 126.1 52.56 126.1 52.56 124.32 53.02 123.43 53.02 123.43 53.47 122.54 54.38 122.54 54.38 122.54 55.28 122.54 55.74 123.43 55.74 123.43 56.19 124.32 56.19 126.1 56.19 126.1 56.19 127.88 55.74 128.77 55.74 128.77 55.28 129.66 54.38 129.66M54.38 130.58C54.38 130.58 55.83 130.58 56.59 129.43 56.59 129.43 57.36 128.28 57.36 126.1 57.36 126.1 57.36 123.92 56.59 122.76 56.59 122.76 55.83 121.62 54.38 121.62 54.38 121.62 52.92 121.62 52.15 122.76 52.15 122.76 51.39 123.92 51.39 126.1 51.39 126.1 51.39 128.28 52.15 129.43 52.15 129.43 52.92 130.58 54.38 130.58Z"/>
<path transform="matrix(1,0,0,-1,0,400)" d="M30.26 204.67H34.34V203.69H28.85V204.67C28.85 204.67 29.52 205.36 30.67 206.52 30.67 206.52 31.82 207.68 32.11 208.02 32.11 208.02 32.67 208.65 32.89 209.08 32.89 209.08 33.12 209.52 33.12 209.94 33.12 209.94 33.12 210.63 32.63 211.07 32.63 211.07 32.15 211.5 31.38 211.5 31.38 211.5 30.83 211.5 30.21 211.31 30.21 211.31 29.61 211.12 28.91 210.73V211.91C28.91 211.91 29.62 212.19 30.23 212.34 30.23 212.34 30.85 212.48 31.35 212.48 31.35 212.48 32.7 212.48 33.5 211.81 33.5 211.81 34.29 211.14 34.29 210.02 34.29 210.02 34.29 209.49 34.09 209.01 34.09 209.01 33.89 208.53 33.37 207.88 33.37 207.88 33.22 207.71 32.45 206.91 32.45 206.91 31.67 206.11 30.26 204.67Z"/>
<path transform="matrix(1,0,0,-1,0,400)" d="M39.29 211.56C39.29 211.56 38.39 211.56 37.93 210.67 37.93 210.67 37.48 209.78 37.48 208 37.48 208 37.48 206.22 37.93 205.33 37.93 205.33 38.39 204.45 39.29 204.45 39.29 204.45 40.2 204.45 40.65 205.33 40.65 205.33 41.11 206.22 41.11 208 41.11 208 41.11 209.78 40.65 210.67 40.65 210.67 40.2 211.56 39.29 211.56M39.29 212.48C39.29 212.48 40.75 212.48 41.51 211.33 41.51 211.33 42.28 210.19 42.28 208 42.28 208 42.28 205.82 41.51 204.66 41.51 204.66 40.75 203.52 39.29 203.52 39.29 203.52 37.84 203.52 37.07 204.66 37.07 204.66 36.31 205.82 36.31 208 36.31 208 36.31 210.19 37.07 211.33 37.07 211.33 37.84 212.48 39.29 212.48Z"/>
<path transform="matrix(1,0,0,-1,0,400)" d="M46.83 211.56C46.83 211.56 45.93 211.56 45.47 210.67 45.47 210.67 45.02 209.78 45.02 208 45.02 208 45.02 206.22 45.47 205.33 45.47 205.33 45.93 204.45 46.83 204.45 46.83 204.45 47.74 204.45 48.19 205.33 48.19 205.33 48.65 206.22 48.65 208 48.65 208 48.65 209.78 48.19 210.67 48.19 210.67 47.74 211.56 46.83 211.56M46.83 212.48C46.83 212.48 48.29 212.48 49.05 211.33 49.05 211.33 49.82 210.19 49.82 208 49.82 208 49.82 205.82 49.05 204.66 49.05 204.66 48.29 203.52 46.83 203.52 46.83 203.52 45.38 203.52 44.61 204.66 44.61 204.66 43.85 205.82 43.85 208 43.85 208 43.85 210.19 44.61 211.33 44.61 211.33 45.38 212.48 46.83 212.48Z"/>
<path transform="matrix(1,0,0,-1,0,400)" d="M54.38 211.56C54.38 211.56 53.47 211.56 53.02 210.67 53.02 210.67 52.56 209.78 52.56 208 52.56 208 52.56 206.22 53.02 205.33 53.02 205.33 53.47 204.45 54.38 204.45 54.38 204.45 55.28 204.45 55.74 205.33 55.74 205.33 56.19 206.22 56.19 208 56.19 208 56.19 209.78 55.74 210.67 55.74 210.67 55.28 211.56 54.38 211.56M54.38 212.48C54.38 212.48 55.83 212.48 56.59 211.33 56.59 211.33 57.36 210.19 57.36 208 57.36 208 57.36 205.82 56.59 204.66 56.59 204.66 55.83 203.52 54.38 203.52 54.38 203.52 52.92 203.52 52.15 204.66 52.15 204.66 51.39 205.82 51.39 208 51.39 208 51.39 210.19 52.15 211.33 52.15 211.33 52.92 212.48 54.38 212.48Z"/>
<path transform="matrix(1,0,0,-1,0,400)" d="M32.8 290.25C32.8 290.25 33.63 290.07 34.1 289.5 34.1 289.5 34.58 288.93 34.58 288.1 34.58 288.1 34.58 286.82 33.7 286.12 33.7 286.12 32.82 285.42 31.2 285.42 31.2 285.42 30.65 285.42 30.08 285.53 30.08 285.53 29.5 285.63 28.89 285.85V286.98C28.89 286.98 29.38 286.69 29.95 286.55 29.95 286.55 30.53 286.4 31.16 286.4 31.16 286.4 32.26 286.4 32.84 286.84 32.84 286.84 33.41 287.27 33.41 288.1 33.41 288.1 33.41 288.86 32.88 289.29 32.88 289.29 32.34 289.73 31.39 289.73H30.38V290.69H31.44C31.44 290.69 32.3 290.69 32.75 291.03 32.75 291.03 33.21 291.37 33.21 292.02 33.21 292.02 33.21 292.69 32.74 293.04 32.74 293.04 32.27 293.4 31.39 293.4 31.39 293.4 30.91 293.4 30.36 293.3 30.36 293.3 29.81 293.19 29.15 292.97V294.01C29.15 294.01 29.82 294.2 30.39 294.29 30.39 294.29 30.98 294.38 31.49 294.38 31.49 294.38 32.82 294.38 33.6 293.78 33.6 293.78 34.38 293.17 34.38 292.14 34.38 292.14 34.38 291.43 33.96 290.93 33.96 290.93 33.55 290.44 32.8 290.25Z"/>
<path transform="matrix(1,0,0,-1,0,400)" d="M39.29 293.46C39.29 293.46 38.39 293.46 37.93 292.57 37.93 292.57 37.48 291.68 37.48 289.9 37.48 289.9 37.48 288.12 37.93 287.23 37.93 287.23 38.39 286.35 39.29 286.35 39.29 286.35 40.2 286.35 40.65 287.23 40.65 287.23 41.11 288.12 41.11 289.9 41.11 289.9 41.11 291.68 40.65 292.57 40.65 292.57 40.2 293.46 39.29 293.46M39.29 294.38C39.29 294.38 40.75 294.38 41.51 293.23 41.51 293.23 42.28 292.09 42.28 289.9 42.28 289.9 42.28 287.72 41.51 286.57 41.51 286.57 40.75 285.42 39.29 285.42 39.29 285.42 37.84 285.42 37.07 286.57 37.07 286.57 36.31 287.72 36.31 289.9 36.31 289.9 36.31 292.09 37.07 293.23 37.07 293.23 37.84 294.38 39.29 294.38Z"/>
<path transform="matrix(1,0,0,-1,0,400)" d="M46.83 293.46C46.83 293.46 45.93 293.46 45.47 292.57 45.47 292.57 45.02 291.68 45.02 289.9 45.02 289.9 45.02 288.12 45.47 287.23 45.47 287.23 45.93 286.35 46.83 286.35 46.83 286.35 47.74 286.35 48.19 287.23 48.19 287.23 48.65 288.12 48.65 289.9 48.65 289.9 48.65 291.68 48.19 292.57 48.19 292.57 47.74 293.46 46.83 293.46M46.83 294.38C46.83 294.38 48.29 294.38 49.05 293.23 49.05 293.23 49.82 292.09 49.82 289.9 49.82 289.9 49.82 287.72 49.05 286.57 49.05 286.57 48.29 285.42 46.83 285.42 46.83 285.42 45.38 285.42 44.61 286.57 44.61 286.57 43.85 287.72 43.85 289.9 43.85 289.9 43.85 292.09 44.61 293.23 44.61 293.23 45.38 294.38 46.83 294.38Z"/>
<path transform="matrix(1,0,0,-1,0,400)" d="M54.38 293.46C54.38 293.46 53.47 293.46 53.02 292.57 53.02 292.57 52.56 291.68 52.56 289.9 52.56 289.9 52.56 288.12 53.02 287.23 53.02 287.23 53.47 286.35 54.38 286.35 54.38 286.35 55.28 286.35 55.74 287.23 55.74 287.23 56.19 288.12 56.19 289.9 56.19 289.9 56.19 291.68 55.74 292.57 55.74 292.57 55.28 293.46 54.38 293.46M54.38 294.38C54.38 294.38 55.83 294.38 56.59 293.23 56.59 293.23 57.36 292.09 57.36 289.9 57.36 289.9 57.36 287.72 56.59 286.57 56.59 286.57 55.83 285.42 54.38 285.42 54.38 285.42 52.92 285.42 52.15 286.57 52.15 286.57 51.39 287.72 51.39 289.9 51.39 289.9 51.39 292.09 52.15 293.23 52.15 293.23 52.92 294.38 54.38 294.38Z"/>
<path transform="matrix(1,0,0,-1,0,400)" d="M32.47 375.11 29.51 370.5H32.47V375.11M32.16 376.13H33.63V370.5H34.86V369.53H33.63V367.49H32.47V369.53H28.57V370.65L32.16 376.13Z"/>
<path transform="matrix(1,0,0,-1,0,400)" d="M39.29 375.36C39.29 375.36 38.39 375.36 37.93 374.47 37.93 374.47 37.48 373.58 37.48 371.8 37.48 371.8 37.48 370.02 37.93 369.13 37.93 369.13 38.39 368.25 39.29 368.25 39.29 368.25 40.2 368.25 40.65 369.13 40.65 369.13 41.11 370.02 41.11 371.8 41.11 371.8 41.11 373.58 40.65 374.47 40.65 374.47 40.2 375.36 39.29 375.36M39.29 376.29C39.29 376.29 40.75 376.29 41.51 375.13 41.51 375.13 42.28 373.99 42.28 371.8 42.28 371.8 42.28 369.62 41.51 368.47 41.51 368.47 40.75 367.32 39.29 367.32 39.29 367.32 37.84 367.32 37.07 368.47 37.07 368.47 36.31 369.62 36.31 371.8 36.31 371.8 36.31 373.99 37.07 375.13 37.07 375.13 37.84 376.29 39.29 376.29Z"/>
<path transform="matrix(1,0,0,-1,0,400)" d="M46.83 375.36C46.83 375.36 45.93 375.36 45.47 374.47 45.47 374.47 45.02 373.58 45.02 371.8 45.02 371.8 45.02 370.02 45.47 369.13 45.47 369.13 45.93 368.25 46.83 368.25 46.83 368.25 47.74 368.25 48.19 369.13 48.19 369.13 48.65 370.02 48.65 371.8 48.65 371.8 48.65 373.58 48.19 374.47 48.19 374.47 47.74 375.36 46.83 375.36M46.83 376.29C46.83 376.29 48.29 376.29 49.05 375.13 49.05 375.13 49.82 373.99 49.82 371.8 49.82 371.8 49.82 369.62 49.05 368.47 49.05 368.47 48.29 367.32 46.83 367.32 46.83 367.32 45.38 367.32 44.61 368.47 44.61 368.47 43.85 369.62 43.85 371.8 43.85 371.8 43.85 373.99 44.61 375.13 44.61 375.13 45.38 376.29 46.83 376.29Z"/>
<path transform="matrix(1,0,0,-1,0,400)" d="M54.38 375.36C54.38 375.36 53.47 375.36 53.02 374.47 53.02 374.47 52.56 373.58 52.56 371.8 52.56 371.8 52.56 370.02 53.02 369.13 53.02 369.13 53.47 368.25 54.38 368.25 54.38 368.25 55.28 368.25 55.74 369.13 55.74 369.13 56.19 370.02 56.19 371.8 56.19 371.8 56.19 373.58 55.74 374.47 55.74 374.47 55.28 375.36 54.38 375.36M54.38 376.29C54.38 376.29 55.83 376.29 56.59 375.13 56.59 375.13 57.36 373.99 57.36 371.8 57.36 371.8 57.36 369.62 56.59 368.47 56.59 368.47 55.83 367.32 54.38 367.32 54.38 367.32 52.92 367.32 52.15 368.47 52.15 368.47 51.39 369.62 51.39 371.8 51.39 371.8 51.39 373.99 52.15 375.13 52.15 375.13 52.92 376.29 54.38 376.29Z"/>
<path transform="matrix(1,0,0,-1,0,400)" d="M5.7 149.5 11.62 147.32V151.69L5.7 149.5M4.12 148.6V150.42L16 154.95V153.28L12.95 152.19V146.84L16 145.76V144.06L4.12 148.6Z"/>
<path transform="matrix(1,0,0,-1,0,400)" d="M8.46 161.78C8.46 161.78 8.31 161.54 8.25 161.24 8.25 161.24 8.18 160.95 8.18 160.6 8.18 160.6 8.18 159.36 8.99 158.69 8.99 158.69 9.79 158.03 11.31 158.03H16V156.56H7.09V158.03H8.47C8.47 158.03 7.66 158.5 7.27 159.24 7.27 159.24 6.87 159.98 6.87 161.03 6.87 161.03 6.87 161.19 6.9 161.37 6.9 161.37 6.91 161.55 6.95 161.77L8.46 161.78Z"/>
<path transform="matrix(1,0,0,-1,0,400)" d="M11.18 170.58H11.9V163.85C11.9 163.85 13.41 163.95 14.2 164.76 14.2 164.76 14.99 165.58 14.99 167.03 14.99 167.03 14.99 167.88 14.78 168.67 14.78 168.67 14.58 169.46 14.16 170.24H15.55C15.55 170.24 15.88 169.45 16.06 168.63 16.06 168.63 16.23 167.8 16.23 166.95 16.23 166.95 16.23 164.81 14.99 163.56 14.99 163.56 13.75 162.32 11.63 162.32 11.63 162.32 9.44 162.32 8.16 163.5 8.16 163.5 6.87 164.69 6.87 166.69 6.87 166.69 6.87 168.49 8.04 169.53 8.04 169.53 9.19 170.58 11.18 170.58M10.75 169.12C10.75 169.12 9.55 169.1 8.83 168.44 8.83 168.44 8.12 167.79 8.12 166.71 8.12 166.71 8.12 165.48 8.81 164.74 8.81 164.74 9.5 164.01 10.76 163.9L10.75 169.12Z"/>
<path transform="matrix(1,0,0,-1,0,400)" d="M11.52 177.04C11.52 177.04 11.52 175.26 11.93 174.58 11.93 174.58 12.33 173.89 13.31 173.89 13.31 173.89 14.09 173.89 14.55 174.4 14.55 174.4 15.01 174.92 15.01 175.8 15.01 175.8 15.01 177.02 14.15 177.75 14.15 177.75 13.28 178.49 11.85 178.49H11.52V177.04M10.92 179.96H16V178.49H14.65C14.65 178.49 15.46 177.99 15.85 177.24 15.85 177.24 16.23 176.49 16.23 175.41 16.23 175.41 16.23 174.04 15.47 173.23 15.47 173.23 14.7 172.43 13.41 172.43 13.41 172.43 11.9 172.43 11.14 173.43 11.14 173.43 10.38 174.44 10.38 176.44V178.49H10.23C10.23 178.49 9.22 178.49 8.67 177.82 8.67 177.82 8.12 177.16 8.12 175.96 8.12 175.96 8.12 175.2 8.3 174.47 8.3 174.47 8.48 173.75 8.85 173.08H7.49C7.49 173.08 7.18 173.88 7.03 174.64 7.03 174.64 6.87 175.4 6.87 176.11 6.87 176.11 6.87 178.05 7.88 179 7.88 179 8.88 179.96 10.92 179.96Z"/>
<path transform="matrix(1,0,0,-1,0,400)" d="M4.12 188.03V189.65H11.34C11.34 189.65 13.25 189.65 14.09 190.34 14.09 190.34 14.93 191.03 14.93 192.58 14.93 192.58 14.93 194.13 14.09 194.82 14.09 194.82 13.25 195.51 11.34 195.51H4.12V197.13H11.54C11.54 197.13 13.86 197.13 15.05 195.97 15.05 195.97 16.23 194.83 16.23 192.58 16.23 192.58 16.23 190.33 15.05 189.18 15.05 189.18 13.86 188.03 11.54 188.03H4.12Z"/>
<path transform="matrix(1,0,0,-1,0,400)" d="M10.62 207.49H16V206.02H10.67C10.67 206.02 9.4 206.02 8.78 205.53 8.78 205.53 8.15 205.04 8.15 204.05 8.15 204.05 8.15 202.86 8.9 202.18 8.9 202.18 9.66 201.5 10.96 201.5H16V200.02H7.09V201.5H8.47C8.47 201.5 7.67 202.02 7.27 202.73 7.27 202.73 6.87 203.45 6.87 204.38 6.87 204.38 6.87 205.91 7.83 206.7 7.83 206.7 8.78 207.49 10.62 207.49Z"/>
<path transform="matrix(1,0,0,-1,0,400)" d="M8.44 216.27H3.62V217.74H16V216.27H14.66C14.66 216.27 15.46 215.81 15.85 215.1 15.85 215.1 16.23 214.4 16.23 213.42 16.23 213.42 16.23 211.8 14.94 210.78 14.94 210.78 13.65 209.77 11.55 209.77 11.55 209.77 9.45 209.77 8.16 210.78 8.16 210.78 6.87 211.8 6.87 213.42 6.87 213.42 6.87 214.4 7.26 215.1 7.26 215.1 7.65 215.81 8.44 216.27M11.55 211.28C11.55 211.28 13.17 211.28 14.09 211.94 14.09 211.94 15.01 212.61 15.01 213.77 15.01 213.77 15.01 214.94 14.09 215.6 14.09 215.6 13.17 216.27 11.55 216.27 11.55 216.27 9.94 216.27 9.02 215.6 9.02 215.6 8.1 214.94 8.1 213.77 8.1 213.77 8.1 212.61 9.02 211.94 9.02 211.94 9.94 211.28 11.55 211.28Z"/>
<path transform="matrix(1,0,0,-1,0,400)" d="M11.18 228.38H11.9V221.64C11.9 221.64 13.41 221.74 14.2 222.55 14.2 222.55 14.99 223.37 14.99 224.83 14.99 224.83 14.99 225.67 14.78 226.46 14.78 226.46 14.58 227.25 14.16 228.03H15.55C15.55 228.03 15.88 227.25 16.06 226.42 16.06 226.42 16.23 225.59 16.23 224.74 16.23 224.74 16.23 222.61 14.99 221.36 14.99 221.36 13.75 220.12 11.63 220.12 11.63 220.12 9.44 220.12 8.16 221.29 8.16 221.29 6.87 222.48 6.87 224.48 6.87 224.48 6.87 226.28 8.04 227.33 8.04 227.33 9.19 228.38 11.18 228.38M10.75 226.91C10.75 226.91 9.55 226.9 8.83 226.23 8.83 226.23 8.12 225.58 8.12 224.5 8.12 224.5 8.12 223.27 8.81 222.53 8.81 222.53 9.5 221.8 10.76 221.69L10.75 226.91Z"/>
<path transform="matrix(1,0,0,-1,0,400)" d="M8.46 235.94C8.46 235.94 8.31 235.7 8.25 235.4 8.25 235.4 8.18 235.12 8.18 234.76 8.18 234.76 8.18 233.52 8.99 232.86 8.99 232.86 9.79 232.19 11.31 232.19H16V230.72H7.09V232.19H8.47C8.47 232.19 7.66 232.66 7.27 233.4 7.27 233.4 6.87 234.14 6.87 235.19 6.87 235.19 6.87 235.35 6.9 235.53 6.9 235.53 6.91 235.71 6.95 235.93L8.46 235.94Z"/>
<path transform="matrix(1,0,0,-1,0,400)" d="M5.04 251.62H6.73C6.73 251.62 5.98 250.81 5.6 249.88 5.6 249.88 5.23 248.97 5.23 247.93 5.23 247.93 5.23 245.9 6.48 244.81 6.48 244.81 7.72 243.73 10.07 243.73 10.07 243.73 12.42 243.73 13.67 244.81 13.67 244.81 14.91 245.9 14.91 247.93 14.91 247.93 14.91 248.97 14.54 249.88 14.54 249.88 14.16 250.81 13.41 251.62H15.09C15.09 251.62 15.66 250.77 15.95 249.83 15.95 249.83 16.23 248.89 16.23 247.84 16.23 247.84 16.23 245.14 14.58 243.59 14.58 243.59 12.93 242.04 10.07 242.04 10.07 242.04 7.21 242.04 5.56 243.59 5.56 243.59 3.91 245.14 3.91 247.84 3.91 247.84 3.91 248.9 4.19 249.84 4.19 249.84 4.47 250.79 5.04 251.62Z"/>
<path transform="matrix(1,0,0,-1,0,400)" d="M12.48 253.89H7.09V255.35H12.43C12.43 255.35 13.69 255.35 14.33 255.84 14.33 255.84 14.96 256.34 14.96 257.32 14.96 257.32 14.96 258.51 14.2 259.19 14.2 259.19 13.45 259.89 12.14 259.89H7.09V261.35H16V259.89H14.63C14.63 259.89 15.44 259.35 15.84 258.64 15.84 258.64 16.23 257.94 16.23 257.01 16.23 257.01 16.23 255.48 15.28 254.68 15.28 254.68 14.32 253.89 12.48 253.89M6.87 257.57V257.57Z"/>
<path transform="matrix(1,0,0,-1,0,400)" d="M8.46 269.53C8.46 269.53 8.31 269.28 8.25 268.99 8.25 268.99 8.18 268.7 8.18 268.35 8.18 268.35 8.18 267.11 8.99 266.44 8.99 266.44 9.79 265.78 11.31 265.78H16V264.31H7.09V265.78H8.47C8.47 265.78 7.66 266.24 7.27 266.98 7.27 266.98 6.87 267.72 6.87 268.78 6.87 268.78 6.87 268.93 6.9 269.12 6.9 269.12 6.91 269.3 6.95 269.52L8.46 269.53Z"/>
<path transform="matrix(1,0,0,-1,0,400)" d="M7.09 270.02V271.57L14.57 274.35 7.09 277.14V278.69L16 275.35V273.36L7.09 270.02Z"/>
<path transform="matrix(1,0,0,-1,0,400)" d="M11.18 288.33H11.9V281.6C11.9 281.6 13.41 281.7 14.2 282.51 14.2 282.51 14.99 283.33 14.99 284.78 14.99 284.78 14.99 285.63 14.78 286.41 14.78 286.41 14.58 287.21 14.16 287.99H15.55C15.55 287.99 15.88 287.2 16.06 286.37 16.06 286.37 16.23 285.55 16.23 284.7 16.23 284.7 16.23 282.56 14.99 281.31 14.99 281.31 13.75 280.07 11.63 280.07 11.63 280.07 9.44 280.07 8.16 281.25 8.16 281.25 6.87 282.44 6.87 284.44 6.87 284.44 6.87 286.24 8.04 287.28 8.04 287.28 9.19 288.33 11.18 288.33M10.75 286.87C10.75 286.87 9.55 286.85 8.83 286.19 8.83 286.19 8.12 285.54 8.12 284.46 8.12 284.46 8.12 283.23 8.81 282.49 8.81 282.49 9.5 281.76 10.76 281.65L10.75 286.87Z"/>
<g clip-path="url(#clip_3)">
<path transform="matrix(1,0,0,-1,0,400)" d="M97.91 253.58V44.21H113.8V253.58H97.91" fill="#1b1b1b" fill-rule="evenodd"/>
</g>
<path transform="matrix(1,0,0,-1,0,400)" stroke-width="0" stroke-linecap="round" stroke-linejoin="round" fill="none" stroke="#000000" d="M97.91 253.58V44.21H113.8V253.58H97.91"/>
<g clip-path="url(#clip_4)">
<path transform="matrix(1,0,0,-1,0,400)" d="M145.35 259.11V44.21H161.24V259.11H145.35" fill="#1b1b1b" fill-rule="evenodd"/>
</g>
<path transform="matrix(1,0,0,-1,0,400)" stroke-width="0" stroke-linecap="round" stroke-linejoin="round" fill="none" stroke="#000000" d="M145.35 259.11V44.21H161.24V259.11H145.35"/>
<g clip-path="url(#clip_5)">
<path transform="matrix(1,0,0,-1,0,400)" d="M192.79 240.97V44.21H208.68V240.97H192.79" fill="#1b1b1b" fill-rule="evenodd"/>
</g>
<path transform="matrix(1,0,0,-1,0,400)" stroke-width="0" stroke-linecap="round" stroke-linejoin="round" fill="none" stroke="#000000" d="M192.79 240.97V44.21H208.68V240.97H192.79"/>
<g clip-path="url(#clip_6)">
<path transform="matrix(1,0,0,-1,0,400)" d="M240.22 232.04V44.21H256.12V232.04H240.22" fill="#1b1b1b" fill-rule="evenodd"/>
</g>
<path transform="matrix(1,0,0,-1,0,400)" stroke-width="0" stroke-linecap="round" stroke-linejoin="round" fill="none" stroke="#000000" d="M240.22 232.04V44.21H256.12V232.04H240.22"/>
<g clip-path="url(#clip_7)">
<path transform="matrix(1,0,0,-1,0,400)" d="M287.66 299.08V44.21H303.56V299.08H287.66" fill="#1b1b1b" fill-rule="evenodd"/>
</g>
<path transform="matrix(1,0,0,-1,0,400)" stroke-width="0" stroke-linecap="round" stroke-linejoin="round" fill="none" stroke="#000000" d="M287.66 299.08V44.21H303.56V299.08H287.66"/>
<g clip-path="url(#clip_8)">
<path transform="matrix(1,0,0,-1,0,400)" d="M335.1 318.74V44.21H350.99V318.74H335.1" fill="#1b1b1b" fill-rule="evenodd"/>
</g>
<path transform="matrix(1,0,0,-1,0,400)" stroke-width="0" stroke-linecap="round" stroke-linejoin="round" fill="none" stroke="#000000" d="M335.1 318.74V44.21H350.99V318.74H335.1"/>
<g clip-path="url(#clip_9)">
<path transform="matrix(1,0,0,-1,0,400)" d="M382.54 311.45V44.21H398.43V311.45H382.54" fill="#1b1b1b" fill-rule="evenodd"/>
</g>
<path transform="matrix(1,0,0,-1,0,400)" stroke-width="0" stroke-linecap="round" stroke-linejoin="round" fill="none" stroke="#000000" d="M382.54 311.45V44.21H398.43V311.45H382.54"/>
<g clip-path="url(#clip_10)">
<path transform="matrix(1,0,0,-1,0,400)" d="M429.98 325.41V44.21H445.87V325.41H429.98" fill="#1b1b1b" fill-rule="evenodd"/>
</g>
<path transform="matrix(1,0,0,-1,0,400)" stroke-width="0" stroke-linecap="round" stroke-linejoin="round" fill="none" stroke="#000000" d="M429.98 325.41V44.21H445.87V325.41H429.98"/>
<g clip-path="url(#clip_11)">
<path transform="matrix(1,0,0,-1,0,400)" d="M477.42 274.72V44.21H493.31V274.72H477.42" fill="#1b1b1b" fill-rule="evenodd"/>
</g>
<path transform="matrix(1,0,0,-1,0,400)" stroke-width="0" stroke-linecap="round" stroke-linejoin="round" fill="none" stroke="#000000" d="M477.42 274.72V44.21H493.31V274.72H477.42"/>
<g clip-path="url(#clip_12)">
<path transform="matrix(1,0,0,-1,0,400)" d="M524.86 325V44.21H540.75V325H524.86" fill="#1b1b1b" fill-rule="evenodd"/>
</g>
<path transform="matrix(1,0,0,-1,0,400)" stroke-width="0" stroke-linecap="round" stroke-linejoin="round" fill="none" stroke="#000000" d="M524.86 325V44.21H540.75V325H524.86"/>
<path transform="matrix(1,0,0,-1,0,400)" stroke-width=".8" stroke-linecap="round" stroke-linejoin="round" fill="none" stroke="#1b1b1b" stroke-opacity="0" d="M105.85 253.58V253.58"/>
<path transform="matrix(1,0,0,-1,0,400)" stroke-width=".8" stroke-linecap="round" stroke-linejoin="round" fill="none" stroke="#1b1b1b" stroke-opacity="0" d="M153.29 259.11V259.11"/>
<path transform="matrix(1,0,0,-1,0,400)" stroke-width=".8" stroke-linecap="round" stroke-linejoin="round" fill="none" stroke="#1b1b1b" stroke-opacity="0" d="M200.73 240.97V240.97"/>
<path transform="matrix(1,0,0,-1,0,400)" stroke-width=".8" stroke-linecap="round" stroke-linejoin="round" fill="none" stroke="#1b1b1b" stroke-opacity="0" d="M248.17 232.04V232.04"/>
<path transform="matrix(1,0,0,-1,0,400)" stroke-width=".8" stroke-linecap="round" stroke-linejoin="round" fill="none" stroke="#1b1b1b" stroke-opacity="0" d="M295.61 299.08V299.08"/>
<path transform="matrix(1,0,0,-1,0,400)" stroke-width=".8" stroke-linecap="round" stroke-linejoin="round" fill="none" stroke="#1b1b1b" stroke-opacity="0" d="M343.05 318.74V318.74"/>
<path transform="matrix(1,0,0,-1,0,400)" stroke-width=".8" stroke-linecap="round" stroke-linejoin="round" fill="none" stroke="#1b1b1b" stroke-opacity="0" d="M390.49 311.45V311.45"/>
<path transform="matrix(1,0,0,-1,0,400)" stroke-width=".8" stroke-linecap="round" stroke-linejoin="round" fill="none" stroke="#1b1b1b" stroke-opacity="0" d="M437.93 325.41V325.41"/>
<path transform="matrix(1,0,0,-1,0,400)" stroke-width=".8" stroke-linecap="round" stroke-linejoin="round" fill="none" stroke="#1b1b1b" stroke-opacity="0" d="M485.37 274.72V274.72"/>
<path transform="matrix(1,0,0,-1,0,400)" stroke-width=".8" stroke-linecap="round" stroke-linejoin="round" fill="none" stroke="#1b1b1b" stroke-opacity="0" d="M532.8 325V325"/>
<g clip-path="url(#clip_13)">
<path transform="matrix(1,0,0,-1,0,400)" d="M113.8 239.08V44.21H129.69V239.08H113.8" fill="#a2a2a2" fill-rule="evenodd"/>
</g>
<path transform="matrix(1,0,0,-1,0,400)" stroke-width="0" stroke-linecap="round" stroke-linejoin="round" fill="none" stroke="#000000" d="M113.8 239.08V44.21H129.69V239.08H113.8"/>
<g clip-path="url(#clip_14)">
<path transform="matrix(1,0,0,-1,0,400)" d="M161.24 253.97V44.21H177.13V253.97H161.24" fill="#a2a2a2" fill-rule="evenodd"/>
</g>
<path transform="matrix(1,0,0,-1,0,400)" stroke-width="0" stroke-linecap="round" stroke-linejoin="round" fill="none" stroke="#000000" d="M161.24 253.97V44.21H177.13V253.97H161.24"/>
<g clip-path="url(#clip_15)">
<path transform="matrix(1,0,0,-1,0,400)" d="M208.68 236.65V44.21H224.57V236.65H208.68" fill="#a2a2a2" fill-rule="evenodd"/>
</g>
<path transform="matrix(1,0,0,-1,0,400)" stroke-width="0" stroke-linecap="round" stroke-linejoin="round" fill="none" stroke="#000000" d="M208.68 236.65V44.21H224.57V236.65H208.68"/>
<g clip-path="url(#clip_16)">
<path transform="matrix(1,0,0,-1,0,400)" d="M256.12 229.54V44.21H272.01V229.54H256.12" fill="#a2a2a2" fill-rule="evenodd"/>
</g>
<path transform="matrix(1,0,0,-1,0,400)" stroke-width="0" stroke-linecap="round" stroke-linejoin="round" fill="none" stroke="#000000" d="M256.12 229.54V44.21H272.01V229.54H256.12"/>
<g clip-path="url(#clip_17)">
<path transform="matrix(1,0,0,-1,0,400)" d="M303.56 293.99V44.21H319.45V293.99H303.56" fill="#a2a2a2" fill-rule="evenodd"/>
</g>
<path transform="matrix(1,0,0,-1,0,400)" stroke-width="0" stroke-linecap="round" stroke-linejoin="round" fill="none" stroke="#000000" d="M303.56 293.99V44.21H319.45V293.99H303.56"/>
<g clip-path="url(#clip_18)">
<path transform="matrix(1,0,0,-1,0,400)" d="M350.99 284.3V44.21H366.89V284.3H350.99" fill="#a2a2a2" fill-rule="evenodd"/>
</g>
<path transform="matrix(1,0,0,-1,0,400)" stroke-width="0" stroke-linecap="round" stroke-linejoin="round" fill="none" stroke="#000000" d="M350.99 284.3V44.21H366.89V284.3H350.99"/>
<g clip-path="url(#clip_19)">
<path transform="matrix(1,0,0,-1,0,400)" d="M398.43 307.61V44.21H414.33V307.61H398.43" fill="#a2a2a2" fill-rule="evenodd"/>
</g>
<path transform="matrix(1,0,0,-1,0,400)" stroke-width="0" stroke-linecap="round" stroke-linejoin="round" fill="none" stroke="#000000" d="M398.43 307.61V44.21H414.33V307.61H398.43"/>
<g clip-path="url(#clip_20)">
<path transform="matrix(1,0,0,-1,0,400)" d="M445.87 319.4V44.21H461.76V319.4H445.87" fill="#a2a2a2" fill-rule="evenodd"/>
</g>
<path transform="matrix(1,0,0,-1,0,400)" stroke-width="0" stroke-linecap="round" stroke-linejoin="round" fill="none" stroke="#000000" d="M445.87 319.4V44.21H461.76V319.4H445.87"/>
<g clip-path="url(#clip_21)">
<path transform="matrix(1,0,0,-1,0,400)" d="M493.31 271.96V44.21H509.2V271.96H493.31" fill="#a2a2a2" fill-rule="evenodd"/>
</g>
<path transform="matrix(1,0,0,-1,0,400)" stroke-width="0" stroke-linecap="round" stroke-linejoin="round" fill="none" stroke="#000000" d="M493.31 271.96V44.21H509.2V271.96H493.31"/>
<g clip-path="url(#clip_22)">
<path transform="matrix(1,0,0,-1,0,400)" d="M540.75 313.47V44.21H556.64V313.47H540.75" fill="#a2a2a2" fill-rule="evenodd"/>
</g>
<path transform="matrix(1,0,0,-1,0,400)" stroke-width="0" stroke-linecap="round" stroke-linejoin="round" fill="none" stroke="#000000" d="M540.75 313.47V44.21H556.64V313.47H540.75"/>
<path transform="matrix(1,0,0,-1,0,400)" stroke-width=".8" stroke-linecap="round" stroke-linejoin="round" fill="none" stroke="#a2a2a2" stroke-opacity="0" d="M121.75 239.08V239.08"/>
<path transform="matrix(1,0,0,-1,0,400)" stroke-width=".8" stroke-linecap="round" stroke-linejoin="round" fill="none" stroke="#a2a2a2" stroke-opacity="0" d="M169.18 253.97V253.97"/>
<path transform="matrix(1,0,0,-1,0,400)" stroke-width=".8" stroke-linecap="round" stroke-linejoin="round" fill="none" stroke="#a2a2a2" stroke-opacity="0" d="M216.62 236.65V236.65"/>
<path transform="matrix(1,0,0,-1,0,400)" stroke-width=".8" stroke-linecap="round" stroke-linejoin="round" fill="none" stroke="#a2a2a2" stroke-opacity="0" d="M264.06 229.54V229.54"/>
<path transform="matrix(1,0,0,-1,0,400)" stroke-width=".8" stroke-linecap="round" stroke-linejoin="round" fill="none" stroke="#a2a2a2" stroke-opacity="0" d="M311.5 293.99V293.99"/>
<path transform="matrix(1,0,0,-1,0,400)" stroke-width=".8" stroke-linecap="round" stroke-linejoin="round" fill="none" stroke="#a2a2a2" stroke-opacity="0" d="M358.94 284.3V284.3"/>
<path transform="matrix(1,0,0,-1,0,400)" stroke-width=".8" stroke-linecap="round" stroke-linejoin="round" fill="none" stroke="#a2a2a2" stroke-opacity="0" d="M406.38 307.61V307.61"/>
<path transform="matrix(1,0,0,-1,0,400)" stroke-width=".8" stroke-linecap="round" stroke-linejoin="round" fill="none" stroke="#a2a2a2" stroke-opacity="0" d="M453.82 319.4V319.4"/>
<path transform="matrix(1,0,0,-1,0,400)" stroke-width=".8" stroke-linecap="round" stroke-linejoin="round" fill="none" stroke="#a2a2a2" stroke-opacity="0" d="M501.26 271.96V271.96"/>
<path transform="matrix(1,0,0,-1,0,400)" stroke-width=".8" stroke-linecap="round" stroke-linejoin="round" fill="none" stroke="#a2a2a2" stroke-opacity="0" d="M548.7 313.47V313.47"/>
<g clip-path="url(#clip_23)">
<path transform="matrix(1,0,0,-1,0,400)" d="M460.58 337.84H570.79V376.72H460.58" fill="#ffffff" fill-rule="evenodd"/>
</g>
<path transform="matrix(1,0,0,-1,0,400)" stroke-width="1" stroke-linecap="round" stroke-linejoin="round" fill="none" stroke="#000000" stroke-opacity="0" d="M460.58 337.84H570.79V376.72H460.58V337.84"/>
<path transform="matrix(1,0,0,-1,0,400)" d="M483.77 368.88C480.94 368.88 478.65 366.59 478.65 363.76 478.65 360.94 480.94 358.64 483.77 358.64 486.6 358.64 488.89 360.94 488.89 363.76 488.89 366.59 486.6 368.88 483.77 368.88" fill="#1b1b1b" fill-rule="evenodd"/>
<path transform="matrix(1,0,0,-1,0,400)" d="M512.53 367.8V366.66C512.53 366.66 511.86 366.98 511.27 367.13 511.27 367.13 510.68 367.29 510.13 367.29 510.13 367.29 509.18 367.29 508.65 366.92 508.65 366.92 508.14 366.55 508.14 365.87 508.14 365.87 508.14 365.29 508.48 365 508.48 365 508.83 364.71 509.79 364.53L510.49 364.38C510.49 364.38 511.8 364.14 512.42 363.51 512.42 363.51 513.05 362.88 513.05 361.83 513.05 361.83 513.05 360.57 512.2 359.92 512.2 359.92 511.36 359.28 509.74 359.28 509.74 359.28 509.12 359.28 508.43 359.41 508.43 359.41 507.74 359.55 507 359.82V361.03C507 361.03 507.71 360.63 508.39 360.43 508.39 360.43 509.08 360.22 509.74 360.22 509.74 360.22 510.74 360.22 511.28 360.62 511.28 360.62 511.83 361.01 511.83 361.74 511.83 361.74 511.83 362.38 511.43 362.74 511.43 362.74 511.04 363.09 510.15 363.27L509.44 363.41C509.44 363.41 508.13 363.67 507.55 364.23 507.55 364.23 506.96 364.78 506.96 365.77 506.96 365.77 506.96 366.92 507.77 367.58 507.77 367.58 508.58 368.24 510 368.24 510 368.24 510.6 368.24 511.24 368.13 511.24 368.13 511.87 368.02 512.53 367.8Z"/>
<path transform="matrix(1,0,0,-1,0,400)" d="M514.82 365.92H515.89V359.44H514.82V365.92M514.82 368.45H515.89V367.1H514.82V368.45Z"/>
<path transform="matrix(1,0,0,-1,0,400)" d="M523.16 364.68C523.16 364.68 523.56 365.4 524.12 365.74 524.12 365.74 524.67 366.08 525.43 366.08 525.43 366.08 526.44 366.08 526.99 365.37 526.99 365.37 527.54 364.66 527.54 363.35V359.44H526.47V363.32C526.47 363.32 526.47 364.25 526.14 364.7 526.14 364.7 525.81 365.15 525.13 365.15 525.13 365.15 524.3 365.15 523.82 364.6 523.82 364.6 523.34 364.06 523.34 363.11V359.44H522.27V363.32C522.27 363.32 522.27 364.26 521.94 364.7 521.94 364.7 521.61 365.15 520.92 365.15 520.92 365.15 520.11 365.15 519.63 364.6 519.63 364.6 519.15 364.05 519.15 363.11V359.44H518.08V365.92H519.15V364.92C519.15 364.92 519.51 365.51 520.02 365.8 520.02 365.8 520.53 366.08 521.23 366.08 521.23 366.08 521.94 366.08 522.43 365.72 522.43 365.72 522.93 365.36 523.16 364.68Z"/>
<path transform="matrix(1,0,0,-1,0,400)" d="M529.55 362V365.92H530.62V362.04C530.62 362.04 530.62 361.12 530.97 360.66 530.97 360.66 531.33 360.2 532.05 360.2 532.05 360.2 532.91 360.2 533.41 360.75 533.41 360.75 533.91 361.3 533.91 362.25V365.92H534.98V359.44H533.91V360.44C533.91 360.44 533.53 359.85 533.01 359.56 533.01 359.56 532.5 359.28 531.83 359.28 531.83 359.28 530.71 359.28 530.13 359.97 530.13 359.97 529.55 360.66 529.55 362M532.23 366.08V366.08Z"/>
<path transform="matrix(1,0,0,-1,0,400)" d="M537.17 368.45H538.24V359.44H537.17V368.45Z"/>
<path transform="matrix(1,0,0,-1,0,400)" d="M543.41 362.7C543.41 362.7 542.12 362.7 541.62 362.41 541.62 362.41 541.13 362.11 541.13 361.4 541.13 361.4 541.13 360.83 541.5 360.5 541.5 360.5 541.87 360.17 542.51 360.17 542.51 360.17 543.4 360.17 543.93 360.79 543.93 360.79 544.47 361.42 544.47 362.46V362.7H543.41M545.53 363.14V359.44H544.47V360.43C544.47 360.43 544.11 359.84 543.56 359.55 543.56 359.55 543.02 359.28 542.23 359.28 542.23 359.28 541.24 359.28 540.64 359.83 540.64 359.83 540.06 360.39 540.06 361.33 540.06 361.33 540.06 362.42 540.79 362.98 540.79 362.98 541.52 363.53 542.98 363.53H544.47V363.64C544.47 363.64 544.47 364.37 543.98 364.77 543.98 364.77 543.5 365.18 542.63 365.18 542.63 365.18 542.07 365.18 541.55 365.04 541.55 365.04 541.02 364.91 540.53 364.65V365.63C540.53 365.63 541.12 365.85 541.67 365.96 541.67 365.96 542.22 366.08 542.74 366.08 542.74 366.08 544.15 366.08 544.84 365.35 544.84 365.35 545.53 364.62 545.53 363.14Z"/>
<path transform="matrix(1,0,0,-1,0,400)" d="M548.78 367.76V365.92H550.97V365.1H548.78V361.58C548.78 361.58 548.78 360.79 549 360.56 549 360.56 549.22 360.33 549.88 360.33H550.97V359.44H549.88C549.88 359.44 548.65 359.44 548.18 359.9 548.18 359.9 547.71 360.36 547.71 361.58V365.1H546.93V365.92H547.71V367.76H548.78Z"/>
<path transform="matrix(1,0,0,-1,0,400)" d="M557.92 362.95V362.43H553.02C553.02 362.43 553.09 361.33 553.68 360.75 553.68 360.75 554.28 360.18 555.34 360.18 555.34 360.18 555.95 360.18 556.52 360.33 556.52 360.33 557.1 360.48 557.67 360.78V359.77C557.67 359.77 557.1 359.53 556.5 359.4 556.5 359.4 555.89 359.28 555.27 359.28 555.27 359.28 553.72 359.28 552.81 360.18 552.81 360.18 551.91 361.08 551.91 362.62 551.91 362.62 551.91 364.21 552.77 365.14 552.77 365.14 553.63 366.08 555.09 366.08 555.09 366.08 556.4 366.08 557.16 365.24 557.16 365.24 557.92 364.4 557.92 362.95M556.85 363.26C556.85 363.26 556.84 364.14 556.36 364.66 556.36 364.66 555.89 365.18 555.1 365.18 555.1 365.18 554.21 365.18 553.67 364.67 553.67 364.67 553.14 364.17 553.06 363.26H556.85Z"/>
<path transform="matrix(1,0,0,-1,0,400)" d="M563.93 364.94V368.45H565V359.44H563.93V360.42C563.93 360.42 563.6 359.84 563.08 359.55 563.08 359.55 562.57 359.28 561.85 359.28 561.85 359.28 560.68 359.28 559.94 360.21 559.94 360.21 559.2 361.15 559.2 362.68 559.2 362.68 559.2 364.21 559.94 365.14 559.94 365.14 560.68 366.08 561.85 366.08 561.85 366.08 562.57 366.08 563.08 365.8 563.08 365.8 563.6 365.52 563.93 364.94M560.3 362.68C560.3 362.68 560.3 361.5 560.78 360.83 560.78 360.83 561.27 360.17 562.11 360.17 562.11 360.17 562.96 360.17 563.45 360.83 563.45 360.83 563.93 361.5 563.93 362.68 563.93 362.68 563.93 363.85 563.45 364.52 563.45 364.52 562.96 365.19 562.11 365.19 562.11 365.19 561.27 365.19 560.78 364.52 560.78 364.52 560.3 363.85 560.3 362.68Z"/>
<path transform="matrix(1,0,0,-1,0,400)" d="M483.77 355.92C480.94 355.92 478.65 353.63 478.65 350.8 478.65 347.98 480.94 345.68 483.77 345.68 486.6 345.68 488.89 347.98 488.89 350.8 488.89 353.63 486.6 355.92 483.77 355.92" fill="#a2a2a2" fill-rule="evenodd"/>
<path transform="matrix(1,0,0,-1,0,400)" d="M510.92 353.97 509.34 349.67H512.51L510.92 353.97M510.26 355.12H511.59L514.88 346.48H513.67L512.88 348.7H508.98L508.2 346.48H506.96L510.26 355.12Z"/>
<path transform="matrix(1,0,0,-1,0,400)" d="M520.55 352.72V351.72C520.55 351.72 520.1 351.97 519.64 352.09 519.64 352.09 519.19 352.22 518.73 352.22 518.73 352.22 517.69 352.22 517.12 351.56 517.12 351.56 516.55 350.9 516.55 349.72 516.55 349.72 516.55 348.53 517.12 347.87 517.12 347.87 517.69 347.22 518.73 347.22 518.73 347.22 519.19 347.22 519.64 347.34 519.64 347.34 520.1 347.47 520.55 347.72V346.73C520.55 346.73 520.11 346.52 519.63 346.42 519.63 346.42 519.15 346.32 518.61 346.32 518.61 346.32 517.15 346.32 516.29 347.24 516.29 347.24 515.43 348.16 515.43 349.72 515.43 349.72 515.43 351.3 516.29 352.21 516.29 352.21 517.17 353.12 518.68 353.12 518.68 353.12 519.18 353.12 519.64 353.02 519.64 353.02 520.11 352.92 520.55 352.72Z"/>
<path transform="matrix(1,0,0,-1,0,400)" d="M523.46 354.8V352.96H525.65V352.14H523.46V348.62C523.46 348.62 523.46 347.83 523.67 347.6 523.67 347.6 523.89 347.37 524.56 347.37H525.65V346.48H524.56C524.56 346.48 523.32 346.48 522.86 346.94 522.86 346.94 522.39 347.4 522.39 348.62V352.14H521.61V352.96H522.39V354.8H523.46Z"/>
<path transform="matrix(1,0,0,-1,0,400)" d="M526.94 349.04V352.96H528.01V349.08C528.01 349.08 528.01 348.16 528.36 347.7 528.36 347.7 528.72 347.24 529.44 347.24 529.44 347.24 530.3 347.24 530.8 347.79 530.8 347.79 531.3 348.34 531.3 349.29V352.96H532.37V346.48H531.3V347.48C531.3 347.48 530.92 346.89 530.4 346.6 530.4 346.6 529.89 346.32 529.22 346.32 529.22 346.32 528.1 346.32 527.52 347.01 527.52 347.01 526.94 347.7 526.94 349.04M529.62 353.12V353.12Z"/>
<path transform="matrix(1,0,0,-1,0,400)" d="M537.51 349.74C537.51 349.74 536.22 349.74 535.72 349.45 535.72 349.45 535.22 349.15 535.22 348.44 535.22 348.44 535.22 347.87 535.59 347.54 535.59 347.54 535.97 347.21 536.61 347.21 536.61 347.21 537.5 347.21 538.03 347.83 538.03 347.83 538.57 348.46 538.57 349.5V349.74H537.51M539.63 350.18V346.48H538.57V347.47C538.57 347.47 538.2 346.88 537.66 346.59 537.66 346.59 537.11 346.32 536.33 346.32 536.33 346.32 535.33 346.32 534.74 346.87 534.74 346.87 534.16 347.43 534.16 348.37 534.16 348.37 534.16 349.46 534.89 350.02 534.89 350.02 535.62 350.57 537.07 350.57H538.57V350.68C538.57 350.68 538.57 351.41 538.08 351.81 538.08 351.81 537.6 352.22 536.73 352.22 536.73 352.22 536.17 352.22 535.64 352.08 535.64 352.08 535.12 351.95 534.63 351.69V352.67C534.63 352.67 535.22 352.89 535.77 353 535.77 353 536.32 353.12 536.84 353.12 536.84 353.12 538.24 353.12 538.94 352.39 538.94 352.39 539.63 351.66 539.63 350.18Z"/>
<path transform="matrix(1,0,0,-1,0,400)" d="M541.83 355.49H542.89V346.48H541.83V355.49Z"/>
</g>
</svg>
