<?xml version="1.0" encoding="UTF-8" standalone="no"?>
<!DOCTYPE svg PUBLIC "-//W3C//DTD SVG 1.1//EN" "http://www.w3.org/Graphics/SVG/1.1/DTD/svg11.dtd">
<svg xmlns="http://www.w3.org/2000/svg" xmlns:xlink="http://www.w3.org/1999/xlink" version="1.1" width="600pt" height="400pt" viewBox="0 0 600 400">
<g enable-background="new">
<clipPath id="cp0">
<path transform="matrix(1,0,0,-1,0,400)" d="M 0 0 L 600 0 L 600 400 L 0 400 Z "/>
</clipPath>
<g clip-path="url(#cp0)">
<clipPath id="cp1">
<path transform="matrix(1,0,0,-1,0,400)" d="M 0 0 L 600 0 L 600 600 L 0 600 Z "/>
</clipPath>
<g clip-path="url(#cp1)">
<path transform="matrix(1,0,0,-1,0,400)" d="M 0 0 L 600 0 L 600 400 L 0 400 " fill="#ffffff" fill-rule="evenodd"/>
</g>
<clipPath id="cp2">
<path transform="matrix(1,0,0,-1,0,400)" d="M 0 0 L 600 0 L 600 600 L 0 600 Z "/>
</clipPath>
<g clip-path="url(#cp2)">
<path transform="matrix(1,0,0,-1,0,400)" d="M 66.36 44.21 L 588.19 44.21 L 588.19 388.19 L 66.36 388.19 " fill="#ffffff" fill-rule="evenodd"/>
</g>
<path transform="matrix(1,0,0,-1,0,400)" stroke-width="1" stroke-linecap="round" stroke-linejoin="round" fill="none" stroke="#000000" d="M 66.36 44.21 L 588.19 44.21 "/>
<path transform="matrix(1,0,0,-1,0,400)" stroke-width="1" stroke-linecap="round" stroke-linejoin="round" fill="none" stroke="#000000" d="M 113.8 44.21 L 113.8 48.93 "/>
<path transform="matrix(1,0,0,-1,0,400)" stroke-width="1" stroke-linecap="round" stroke-linejoin="round" fill="none" stroke="#000000" d="M 161.24 44.21 L 161.24 48.93 "/>
<path transform="matrix(1,0,0,-1,0,400)" stroke-width="1" stroke-linecap="round" stroke-linejoin="round" fill="none" stroke="#000000" d="M 208.68 44.21 L 208.68 48.93 "/>
<path transform="matrix(1,0,0,-1,0,400)" stroke-width="1" stroke-linecap="round" stroke-linejoin="round" fill="none" stroke="#000000" d="M 256.12 44.21 L 256.12 48.93 "/>
<path transform="matrix(1,0,0,-1,0,400)" stroke-width="1" stroke-linecap="round" stroke-linejoin="round" fill="none" stroke="#000000" d="M 303.56 44.21 L 303.56 48.93 "/>
<path transform="matrix(1,0,0,-1,0,400)" stroke-width="1" stroke-linecap="round" stroke-linejoin="round" fill="none" stroke="#000000" d="M 350.99 44.21 L 350.99 48.93 "/>
<path transform="matrix(1,0,0,-1,0,400)" stroke-width="1" stroke-linecap="round" stroke-linejoin="round" fill="none" stroke="#000000" d="M 398.43 44.21 L 398.43 48.93 "/>
<path transform="matrix(1,0,0,-1,0,400)" stroke-width="1" stroke-linecap="round" stroke-linejoin="round" fill="none" stroke="#000000" d="M 445.87 44.21 L 445.87 48.93 "/>
<path transform="matrix(1,0,0,-1,0,400)" stroke-width="1" stroke-linecap="round" stroke-linejoin="round" fill="none" stroke="#000000" d="M 493.31 44.21 L 493.31 48.93 "/>
<path transform="matrix(1,0,0,-1,0,400)" stroke-width="1" stroke-linecap="round" stroke-linejoin="round" fill="none" stroke="#000000" d="M 540.75 44.21 L 540.75 48.93 "/>
<path transform="matrix(1,0,0,-1,0,400)" d="M 111.4 29.59 L 113.31 29.59 L 113.31 36.18 L 111.23 35.76 L 111.23 36.83 L 113.29 37.25 L 114.46 37.25 L 114.46 29.59 L 116.37 29.59 L 116.37 28.61 L 111.4 28.61 L 111.4 29.59 Z "/>
<path transform="matrix(1,0,0,-1,0,400)" d="M 159.9 29.59 L 163.98 29.59 L 163.98 28.61 L 158.5 28.61 L 158.5 29.59 C 158.5 29.59 159.16 30.28 160.31 31.43 C 160.31 31.43 161.46 32.6 161.75 32.93 C 161.75 32.93 162.32 33.56 162.54 34 C 162.54 34 162.76 34.44 162.76 34.86 C 162.76 34.86 162.76 35.55 162.27 35.98 C 162.27 35.98 161.79 36.42 161.02 36.42 C 161.02 36.42 160.47 36.42 159.86 36.23 C 159.86 36.23 159.25 36.04 158.55 35.65 L 158.55 36.83 C 158.55 36.83 159.26 37.11 159.87 37.26 C 159.87 37.26 160.49 37.4 161 37.4 C 161 37.4 162.34 37.4 163.14 36.73 C 163.14 36.73 163.94 36.06 163.94 34.94 C 163.94 34.94 163.94 34.4 163.73 33.92 C 163.73 33.92 163.54 33.45 163.01 32.8 C 163.01 32.8 162.87 32.63 162.09 31.83 C 162.09 31.83 161.31 31.03 159.9 29.59 Z "/>
<path transform="matrix(1,0,0,-1,0,400)" d="M 209.74 33.26 C 209.74 33.26 210.58 33.08 211.05 32.52 C 211.05 32.52 211.52 31.95 211.52 31.12 C 211.52 31.12 211.52 29.84 210.64 29.14 C 210.64 29.14 209.76 28.44 208.14 28.44 C 208.14 28.44 207.6 28.44 207.02 28.55 C 207.02 28.55 206.45 28.65 205.83 28.87 L 205.83 29.99 C 205.83 29.99 206.32 29.71 206.9 29.57 C 206.9 29.57 207.48 29.42 208.11 29.42 C 208.11 29.42 209.21 29.42 209.78 29.86 C 209.78 29.86 210.36 30.29 210.36 31.12 C 210.36 31.12 210.36 31.88 209.82 32.31 C 209.82 32.31 209.29 32.74 208.33 32.74 L 207.33 32.74 L 207.33 33.7 L 208.38 33.7 C 208.38 33.7 209.24 33.7 209.7 34.04 C 209.7 34.04 210.16 34.39 210.16 35.04 C 210.16 35.04 210.16 35.71 209.68 36.06 C 209.68 36.06 209.21 36.42 208.33 36.42 C 208.33 36.42 207.85 36.42 207.3 36.31 C 207.3 36.31 206.75 36.21 206.09 35.99 L 206.09 37.03 C 206.09 37.03 206.76 37.22 207.34 37.31 C 207.34 37.31 207.92 37.4 208.44 37.4 C 208.44 37.4 209.77 37.4 210.54 36.79 C 210.54 36.79 211.32 36.19 211.32 35.16 C 211.32 35.16 211.32 34.44 210.91 33.95 C 210.91 33.95 210.5 33.45 209.74 33.26 Z "/>
<path transform="matrix(1,0,0,-1,0,400)" d="M 256.87 36.23 L 253.92 31.61 L 256.87 31.61 L 256.87 36.23 M 256.56 37.25 L 258.03 37.25 L 258.03 31.61 L 259.26 31.61 L 259.26 30.64 L 258.03 30.64 L 258.03 28.61 L 256.87 28.61 L 256.87 30.64 L 252.97 30.64 L 252.97 31.77 L 256.56 37.25 Z "/>
<path transform="matrix(1,0,0,-1,0,400)" d="M 301.13 37.25 L 305.71 37.25 L 305.71 36.26 L 302.2 36.26 L 302.2 34.14 C 302.2 34.14 302.45 34.23 302.7 34.27 C 302.7 34.27 302.96 34.32 303.21 34.32 C 303.21 34.32 304.66 34.32 305.51 33.52 C 305.51 33.52 306.35 32.73 306.35 31.38 C 306.35 31.38 306.35 29.98 305.48 29.21 C 305.48 29.21 304.61 28.44 303.03 28.44 C 303.03 28.44 302.49 28.44 301.92 28.53 C 301.92 28.53 301.36 28.62 300.76 28.81 L 300.76 29.98 C 300.76 29.98 301.28 29.7 301.84 29.56 C 301.84 29.56 302.39 29.42 303.01 29.42 C 303.01 29.42 304.01 29.42 304.6 29.95 C 304.6 29.95 305.18 30.47 305.18 31.38 C 305.18 31.38 305.18 32.28 304.6 32.81 C 304.6 32.81 304.01 33.33 303.01 33.33 C 303.01 33.33 302.54 33.33 302.07 33.23 C 302.07 33.23 301.61 33.12 301.13 32.9 L 301.13 37.25 Z "/>
<path transform="matrix(1,0,0,-1,0,400)" d="M 351.1 33.39 C 351.1 33.39 350.31 33.39 349.85 32.85 C 349.85 32.85 349.39 32.31 349.39 31.38 C 349.39 31.38 349.39 30.45 349.85 29.9 C 349.85 29.9 350.31 29.36 351.1 29.36 C 351.1 29.36 351.88 29.36 352.34 29.9 C 352.34 29.9 352.8 30.45 352.8 31.38 C 352.8 31.38 352.8 32.31 352.34 32.85 C 352.34 32.85 351.88 33.39 351.1 33.39 M 353.42 37.05 L 353.42 35.99 C 353.42 35.99 352.98 36.2 352.53 36.31 C 352.53 36.31 352.08 36.42 351.64 36.42 C 351.64 36.42 350.48 36.42 349.87 35.64 C 349.87 35.64 349.26 34.86 349.17 33.28 C 349.17 33.28 349.52 33.78 350.03 34.04 C 350.03 34.04 350.55 34.32 351.17 34.32 C 351.17 34.32 352.47 34.32 353.22 33.52 C 353.22 33.52 353.98 32.74 353.98 31.38 C 353.98 31.38 353.98 30.05 353.19 29.24 C 353.19 29.24 352.4 28.44 351.1 28.44 C 351.1 28.44 349.6 28.44 348.8 29.58 C 348.8 29.58 348.01 30.73 348.01 32.92 C 348.01 32.92 348.01 34.96 348.98 36.18 C 348.98 36.18 349.96 37.4 351.59 37.4 C 351.59 37.4 352.03 37.4 352.48 37.31 C 352.48 37.31 352.93 37.23 353.42 37.05 Z "/>
<path transform="matrix(1,0,0,-1,0,400)" d="M 395.66 37.25 L 401.21 37.25 L 401.21 36.75 L 398.07 28.61 L 396.85 28.61 L 399.8 36.26 L 395.66 36.26 L 395.66 37.25 Z "/>
<path transform="matrix(1,0,0,-1,0,400)" d="M 445.87 32.71 C 445.87 32.71 445.04 32.71 444.56 32.26 C 444.56 32.26 444.08 31.82 444.08 31.04 C 444.08 31.04 444.08 30.25 444.56 29.81 C 444.56 29.81 445.04 29.36 445.87 29.36 C 445.87 29.36 446.71 29.36 447.19 29.81 C 447.19 29.81 447.67 30.26 447.67 31.04 C 447.67 31.04 447.67 31.82 447.19 32.26 C 447.19 32.26 446.71 32.71 445.87 32.71 M 444.7 33.21 C 444.7 33.21 443.95 33.39 443.53 33.91 C 443.53 33.91 443.11 34.42 443.11 35.16 C 443.11 35.16 443.11 36.2 443.85 36.8 C 443.85 36.8 444.59 37.4 445.87 37.4 C 445.87 37.4 447.16 37.4 447.9 36.8 C 447.9 36.8 448.63 36.2 448.63 35.16 C 448.63 35.16 448.63 34.42 448.21 33.91 C 448.21 33.91 447.79 33.39 447.05 33.21 C 447.05 33.21 447.89 33.01 448.36 32.44 C 448.36 32.44 448.84 31.86 448.84 31.04 C 448.84 31.04 448.84 29.78 448.07 29.11 C 448.07 29.11 447.3 28.44 445.87 28.44 C 445.87 28.44 444.44 28.44 443.67 29.11 C 443.67 29.11 442.91 29.78 442.91 31.04 C 442.91 31.04 442.91 31.86 443.38 32.44 C 443.38 32.44 443.86 33.01 444.7 33.21 M 444.28 35.05 C 444.28 35.05 444.28 34.38 444.69 34 C 444.69 34 445.11 33.63 445.87 33.63 C 445.87 33.63 446.62 33.63 447.05 34 C 447.05 34 447.48 34.38 447.48 35.05 C 447.48 35.05 447.48 35.72 447.05 36.1 C 447.05 36.1 446.62 36.48 445.87 36.48 C 445.87 36.48 445.11 36.48 444.69 36.1 C 444.69 36.1 444.28 35.72 444.28 35.05 Z "/>
<path transform="matrix(1,0,0,-1,0,400)" d="M 490.89 28.78 L 490.89 29.85 C 490.89 29.85 491.33 29.64 491.78 29.53 C 491.78 29.53 492.23 29.42 492.66 29.42 C 492.66 29.42 493.82 29.42 494.43 30.2 C 494.43 30.2 495.04 30.98 495.13 32.56 C 495.13 32.56 494.79 32.07 494.28 31.8 C 494.28 31.8 493.76 31.53 493.14 31.53 C 493.14 31.53 491.84 31.53 491.08 32.31 C 491.08 32.31 490.33 33.1 490.33 34.46 C 490.33 34.46 490.33 35.79 491.12 36.6 C 491.12 36.6 491.9 37.4 493.21 37.4 C 493.21 37.4 494.71 37.4 495.5 36.25 C 495.5 36.25 496.29 35.1 496.29 32.92 C 496.29 32.92 496.29 30.87 495.32 29.65 C 495.32 29.65 494.35 28.44 492.72 28.44 C 492.72 28.44 492.28 28.44 491.82 28.52 C 491.82 28.52 491.37 28.61 490.89 28.78 M 493.21 32.45 C 493.21 32.45 494 32.45 494.46 32.99 C 494.46 32.99 494.92 33.52 494.92 34.46 C 494.92 34.46 494.92 35.39 494.46 35.93 C 494.46 35.93 494 36.48 493.21 36.48 C 493.21 36.48 492.43 36.48 491.96 35.93 C 491.96 35.93 491.51 35.39 491.51 34.46 C 491.51 34.46 491.51 33.52 491.96 32.99 C 491.96 32.99 492.43 32.45 493.21 32.45 Z "/>
<path transform="matrix(1,0,0,-1,0,400)" d="M 534.42 29.59 L 536.33 29.59 L 536.33 36.18 L 534.25 35.76 L 534.25 36.83 L 536.32 37.25 L 537.49 37.25 L 537.49 29.59 L 539.4 29.59 L 539.4 28.61 L 534.42 28.61 L 534.42 29.59 Z "/>
<path transform="matrix(1,0,0,-1,0,400)" d="M 544.26 36.48 C 544.26 36.48 543.36 36.48 542.9 35.58 C 542.9 35.58 542.45 34.7 542.45 32.92 C 542.45 32.92 542.45 31.14 542.9 30.25 C 542.9 30.25 543.36 29.36 544.26 29.36 C 544.26 29.36 545.17 29.36 545.62 30.25 C 545.62 30.25 546.08 31.14 546.08 32.92 C 546.08 32.92 546.08 34.7 545.62 35.58 C 545.62 35.58 545.17 36.48 544.26 36.48 M 544.26 37.4 C 544.26 37.4 545.71 37.4 546.48 36.25 C 546.48 36.25 547.25 35.1 547.25 32.92 C 547.25 32.92 547.25 30.73 546.48 29.58 C 546.48 29.58 545.71 28.44 544.26 28.44 C 544.26 28.44 542.81 28.44 542.04 29.58 C 542.04 29.58 541.27 30.73 541.27 32.92 C 541.27 32.92 541.27 35.1 542.04 36.25 C 542.04 36.25 542.81 37.4 544.26 37.4 Z "/>
<path transform="matrix(1,0,0,-1,0,400)" d="M 276.56 18.55 L 276.56 14.08 L 278.58 14.08 C 278.58 14.08 279.7 14.08 280.31 14.67 C 280.31 14.67 280.92 15.25 280.92 16.32 C 280.92 16.32 280.92 17.39 280.31 17.97 C 280.31 17.97 279.7 18.55 278.58 18.55 L 276.56 18.55 M 274.95 19.87 L 278.58 19.87 C 278.58 19.87 280.57 19.87 281.59 18.96 C 281.59 18.96 282.62 18.06 282.62 16.32 C 282.62 16.32 282.62 14.56 281.59 13.66 C 281.59 13.66 280.57 12.76 278.58 12.76 L 276.56 12.76 L 276.56 7.99 L 274.95 7.99 L 274.95 19.87 Z "/>
<path transform="matrix(1,0,0,-1,0,400)" d="M 288.03 12.47 C 288.03 12.47 286.26 12.47 285.57 12.06 C 285.57 12.06 284.89 11.66 284.89 10.68 C 284.89 10.68 284.89 9.9 285.4 9.44 C 285.4 9.44 285.91 8.98 286.8 8.98 C 286.8 8.98 288.01 8.98 288.75 9.84 C 288.75 9.84 289.49 10.71 289.49 12.14 L 289.49 12.47 L 288.03 12.47 M 290.95 13.07 L 290.95 7.99 L 289.49 7.99 L 289.49 9.34 C 289.49 9.34 288.99 8.53 288.24 8.14 C 288.24 8.14 287.49 7.76 286.41 7.76 C 286.41 7.76 285.04 7.76 284.23 8.52 C 284.23 8.52 283.42 9.29 283.42 10.58 C 283.42 10.58 283.42 12.09 284.43 12.85 C 284.43 12.85 285.44 13.61 287.43 13.61 L 289.49 13.61 L 289.49 13.76 C 289.49 13.76 289.49 14.77 288.82 15.32 C 288.82 15.32 288.16 15.87 286.96 15.87 C 286.96 15.87 286.19 15.87 285.47 15.69 C 285.47 15.69 284.74 15.51 284.08 15.14 L 284.08 16.5 C 284.08 16.5 284.88 16.81 285.64 16.96 C 285.64 16.96 286.39 17.12 287.11 17.12 C 287.11 17.12 289.04 17.12 290 16.11 C 290 16.11 290.95 15.11 290.95 13.07 Z "/>
<path transform="matrix(1,0,0,-1,0,400)" d="M 295.41 19.43 L 295.41 16.9 L 298.43 16.9 L 298.43 15.76 L 295.41 15.76 L 295.41 10.93 C 295.41 10.93 295.41 9.84 295.71 9.52 C 295.71 9.52 296.01 9.21 296.93 9.21 L 298.43 9.21 L 298.43 7.99 L 296.93 7.99 C 296.93 7.99 295.23 7.99 294.59 8.62 C 294.59 8.62 293.94 9.25 293.94 10.93 L 293.94 15.76 L 292.87 15.76 L 292.87 16.9 L 293.94 16.9 L 293.94 19.43 L 295.41 19.43 Z "/>
<path transform="matrix(1,0,0,-1,0,400)" d="M 300.36 16.9 L 301.82 16.9 L 301.82 7.99 L 300.36 7.99 L 300.36 16.9 M 300.36 20.37 L 301.82 20.37 L 301.82 18.52 L 300.36 18.52 L 300.36 20.37 Z "/>
<path transform="matrix(1,0,0,-1,0,400)" d="M 312.51 12.81 L 312.51 12.09 L 305.77 12.09 C 305.77 12.09 305.87 10.58 306.68 9.79 C 306.68 9.79 307.5 9 308.96 9 C 308.96 9 309.8 9 310.59 9.21 C 310.59 9.21 311.38 9.41 312.16 9.83 L 312.16 8.44 C 312.16 8.44 311.38 8.11 310.55 7.93 C 310.55 7.93 309.72 7.76 308.87 7.76 C 308.87 7.76 306.74 7.76 305.49 9 C 305.49 9 304.25 10.24 304.25 12.36 C 304.25 12.36 304.25 14.55 305.42 15.83 C 305.42 15.83 306.61 17.12 308.62 17.12 C 308.62 17.12 310.41 17.12 311.46 15.95 C 311.46 15.95 312.51 14.8 312.51 12.81 M 311.04 13.24 C 311.04 13.24 311.03 14.44 310.37 15.16 C 310.37 15.16 309.71 15.87 308.63 15.87 C 308.63 15.87 307.41 15.87 306.67 15.18 C 306.67 15.18 305.93 14.49 305.82 13.23 L 311.04 13.24 Z "/>
<path transform="matrix(1,0,0,-1,0,400)" d="M 322.32 13.37 L 322.32 7.99 L 320.85 7.99 L 320.85 13.32 C 320.85 13.32 320.85 14.59 320.36 15.21 C 320.36 15.21 319.87 15.84 318.88 15.84 C 318.88 15.84 317.69 15.84 317.01 15.09 C 317.01 15.09 316.33 14.33 316.33 13.03 L 316.33 7.99 L 314.85 7.99 L 314.85 16.9 L 316.33 16.9 L 316.33 15.52 C 316.33 15.52 316.85 16.32 317.56 16.72 C 317.56 16.72 318.28 17.12 319.21 17.12 C 319.21 17.12 320.74 17.12 321.53 16.16 C 321.53 16.16 322.32 15.21 322.32 13.37 Z "/>
<path transform="matrix(1,0,0,-1,0,400)" d="M 326.69 19.43 L 326.69 16.9 L 329.7 16.9 L 329.7 15.76 L 326.69 15.76 L 326.69 10.93 C 326.69 10.93 326.69 9.84 326.98 9.52 C 326.98 9.52 327.28 9.21 328.2 9.21 L 329.7 9.21 L 329.7 7.99 L 328.2 7.99 C 328.2 7.99 326.5 7.99 325.86 8.62 C 325.86 8.62 325.21 9.25 325.21 10.93 L 325.21 15.76 L 324.14 15.76 L 324.14 16.9 L 325.21 16.9 L 325.21 19.43 L 326.69 19.43 Z "/>
<path transform="matrix(1,0,0,-1,0,400)" d="M 336.87 19.87 L 338.48 19.87 L 338.48 7.99 L 336.87 7.99 L 336.87 19.87 Z "/>
<path transform="matrix(1,0,0,-1,0,400)" d="M 349.02 13.37 L 349.02 7.99 L 347.56 7.99 L 347.56 13.32 C 347.56 13.32 347.56 14.59 347.06 15.21 C 347.06 15.21 346.57 15.84 345.58 15.84 C 345.58 15.84 344.4 15.84 343.71 15.09 C 343.71 15.09 343.03 14.33 343.03 13.03 L 343.03 7.99 L 341.56 7.99 L 341.56 16.9 L 343.03 16.9 L 343.03 15.52 C 343.03 15.52 343.56 16.32 344.26 16.72 C 344.26 16.72 344.98 17.12 345.91 17.12 C 345.91 17.12 347.45 17.12 348.23 16.16 C 348.23 16.16 349.02 15.21 349.02 13.37 Z "/>
<path transform="matrix(1,0,0,-1,0,400)" d="M 357.81 15.55 L 357.81 20.37 L 359.27 20.37 L 359.27 7.99 L 357.81 7.99 L 357.81 9.33 C 357.81 9.33 357.35 8.53 356.64 8.14 C 356.64 8.14 355.94 7.76 354.95 7.76 C 354.95 7.76 353.33 7.76 352.32 9.05 C 352.32 9.05 351.31 10.34 351.31 12.44 C 351.31 12.44 351.31 14.54 352.32 15.83 C 352.32 15.83 353.33 17.12 354.95 17.12 C 354.95 17.12 355.94 17.12 356.64 16.73 C 356.64 16.73 357.35 16.34 357.81 15.55 M 352.82 12.44 C 352.82 12.44 352.82 10.82 353.48 9.9 C 353.48 9.9 354.15 8.98 355.31 8.98 C 355.31 8.98 356.47 8.98 357.14 9.9 C 357.14 9.9 357.81 10.82 357.81 12.44 C 357.81 12.44 357.81 14.05 357.14 14.97 C 357.14 14.97 356.47 15.89 355.31 15.89 C 355.31 15.89 354.15 15.89 353.48 14.97 C 353.48 14.97 352.82 14.05 352.82 12.44 Z "/>
<path transform="matrix(1,0,0,-1,0,400)" d="M 369.91 12.81 L 369.91 12.09 L 363.18 12.09 C 363.18 12.09 363.27 10.58 364.08 9.79 C 364.08 9.79 364.9 9 366.36 9 C 366.36 9 367.2 9 367.99 9.21 C 367.99 9.21 368.79 9.41 369.57 9.83 L 369.57 8.44 C 369.57 8.44 368.78 8.11 367.95 7.93 C 367.95 7.93 367.12 7.76 366.27 7.76 C 366.27 7.76 364.14 7.76 362.89 9 C 362.89 9 361.65 10.24 361.65 12.36 C 361.65 12.36 361.65 14.55 362.83 15.83 C 362.83 15.83 364.01 17.12 366.02 17.12 C 366.02 17.12 367.82 17.12 368.86 15.95 C 368.86 15.95 369.91 14.8 369.91 12.81 M 368.45 13.24 C 368.45 13.24 368.43 14.44 367.77 15.16 C 367.77 15.16 367.12 15.87 366.03 15.87 C 366.03 15.87 364.81 15.87 364.07 15.18 C 364.07 15.18 363.34 14.49 363.23 13.23 L 368.45 13.24 Z "/>
<path transform="matrix(1,0,0,-1,0,400)" d="M 379.43 16.9 L 376.21 12.56 L 379.6 7.99 L 377.87 7.99 L 375.28 11.49 L 372.69 7.99 L 370.96 7.99 L 374.42 12.65 L 371.25 16.9 L 372.98 16.9 L 375.34 13.73 L 377.71 16.9 L 379.43 16.9 Z "/>
<path transform="matrix(1,0,0,-1,0,400)" stroke-width="1" stroke-linecap="round" stroke-linejoin="round" fill="none" stroke="#000000" d="M 66.36 44.21 L 66.36 388.19 "/>
<path transform="matrix(1,0,0,-1,0,400)" stroke-width="1" stroke-linecap="round" stroke-linejoin="round" fill="none" stroke="#000000" d="M 66.36 44.21 L 71.09 44.21 "/>
<path transform="matrix(1,0,0,-1,0,400)" stroke-width="1" stroke-linecap="round" stroke-linejoin="round" fill="none" stroke="#000000" d="M 66.36 120.65 L 71.09 120.65 "/>
<path transform="matrix(1,0,0,-1,0,400)" stroke-width="1" stroke-linecap="round" stroke-linejoin="round" fill="none" stroke="#000000" d="M 66.36 197.09 L 71.09 197.09 "/>
<path transform="matrix(1,0,0,-1,0,400)" stroke-width="1" stroke-linecap="round" stroke-linejoin="round" fill="none" stroke="#000000" d="M 66.36 273.53 L 71.09 273.53 "/>
<path transform="matrix(1,0,0,-1,0,400)" stroke-width="1" stroke-linecap="round" stroke-linejoin="round" fill="none" stroke="#000000" d="M 66.36 349.97 L 71.09 349.97 "/>
<path transform="matrix(1,0,0,-1,0,400)" d="M 54.38 47.76 C 54.38 47.76 53.47 47.76 53.02 46.86 C 53.02 46.86 52.56 45.98 52.56 44.2 C 52.56 44.2 52.56 42.42 53.02 41.53 C 53.02 41.53 53.47 40.64 54.38 40.64 C 54.38 40.64 55.28 40.64 55.74 41.53 C 55.74 41.53 56.19 42.42 56.19 44.2 C 56.19 44.2 56.19 45.98 55.74 46.86 C 55.74 46.86 55.28 47.76 54.38 47.76 M 54.38 48.68 C 54.38 48.68 55.83 48.68 56.59 47.53 C 56.59 47.53 57.36 46.38 57.36 44.2 C 57.36 44.2 57.36 42.01 56.59 40.86 C 56.59 40.86 55.83 39.72 54.38 39.72 C 54.38 39.72 52.92 39.72 52.15 40.86 C 52.15 40.86 51.39 42.01 51.39 44.2 C 51.39 44.2 51.39 46.38 52.15 47.53 C 52.15 47.53 52.92 48.68 54.38 48.68 Z "/>
<path transform="matrix(1,0,0,-1,0,400)" d="M 29.46 117.31 L 31.37 117.31 L 31.37 123.9 L 29.29 123.48 L 29.29 124.55 L 31.35 124.97 L 32.52 124.97 L 32.52 117.31 L 34.43 117.31 L 34.43 116.33 L 29.46 116.33 L 29.46 117.31 Z "/>
<path transform="matrix(1,0,0,-1,0,400)" d="M 39.29 124.2 C 39.29 124.2 38.39 124.2 37.93 123.31 C 37.93 123.31 37.48 122.42 37.48 120.64 C 37.48 120.64 37.48 118.86 37.93 117.97 C 37.93 117.97 38.39 117.08 39.29 117.08 C 39.29 117.08 40.2 117.08 40.65 117.97 C 40.65 117.97 41.11 118.86 41.11 120.64 C 41.11 120.64 41.11 122.42 40.65 123.31 C 40.65 123.31 40.2 124.2 39.29 124.2 M 39.29 125.12 C 39.29 125.12 40.75 125.12 41.51 123.97 C 41.51 123.97 42.28 122.82 42.28 120.64 C 42.28 120.64 42.28 118.46 41.51 117.3 C 41.51 117.3 40.75 116.16 39.29 116.16 C 39.29 116.16 37.84 116.16 37.07 117.3 C 37.07 117.3 36.31 118.46 36.31 120.64 C 36.31 120.64 36.31 122.82 37.07 123.97 C 37.07 123.97 37.84 125.12 39.29 125.12 Z "/>
<path transform="matrix(1,0,0,-1,0,400)" d="M 46.83 124.2 C 46.83 124.2 45.93 124.2 45.47 123.31 C 45.47 123.31 45.02 122.42 45.02 120.64 C 45.02 120.64 45.02 118.86 45.47 117.97 C 45.47 117.97 45.93 117.08 46.83 117.08 C 46.83 117.08 47.74 117.08 48.19 117.97 C 48.19 117.97 48.65 118.86 48.65 120.64 C 48.65 120.64 48.65 122.42 48.19 123.31 C 48.19 123.31 47.74 124.2 46.83 124.2 M 46.83 125.12 C 46.83 125.12 48.29 125.12 49.05 123.97 C 49.05 123.97 49.82 122.82 49.82 120.64 C 49.82 120.64 49.82 118.46 49.05 117.3 C 49.05 117.3 48.29 116.16 46.83 116.16 C 46.83 116.16 45.38 116.16 44.61 117.3 C 44.61 117.3 43.85 118.46 43.85 120.64 C 43.85 120.64 43.85 122.82 44.61 123.97 C 44.61 123.97 45.38 125.12 46.83 125.12 Z "/>
<path transform="matrix(1,0,0,-1,0,400)" d="M 54.38 124.2 C 54.38 124.2 53.47 124.2 53.02 123.31 C 53.02 123.31 52.56 122.42 52.56 120.64 C 52.56 120.64 52.56 118.86 53.02 117.97 C 53.02 117.97 53.47 117.08 54.38 117.08 C 54.38 117.08 55.28 117.08 55.74 117.97 C 55.74 117.97 56.19 118.86 56.19 120.64 C 56.19 120.64 56.19 122.42 55.74 123.31 C 55.74 123.31 55.28 124.2 54.38 124.2 M 54.38 125.12 C 54.38 125.12 55.83 125.12 56.59 123.97 C 56.59 123.97 57.36 122.82 57.36 120.64 C 57.36 120.64 57.36 118.46 56.59 117.3 C 56.59 117.3 55.83 116.16 54.38 116.16 C 54.38 116.16 52.92 116.16 52.15 117.3 C 52.15 117.3 51.39 118.46 51.39 120.64 C 51.39 120.64 51.39 122.82 52.15 123.97 C 52.15 123.97 52.92 125.12 54.38 125.12 Z "/>
<path transform="matrix(1,0,0,-1,0,400)" d="M 30.26 193.75 L 34.34 193.75 L 34.34 192.77 L 28.85 192.77 L 28.85 193.75 C 28.85 193.75 29.52 194.44 30.67 195.6 C 30.67 195.6 31.82 196.76 32.11 197.1 C 32.11 197.1 32.67 197.73 32.89 198.16 C 32.89 198.16 33.12 198.6 33.12 199.02 C 33.12 199.02 33.12 199.71 32.63 200.15 C 32.63 200.15 32.15 200.58 31.38 200.58 C 31.38 200.58 30.83 200.58 30.21 200.39 C 30.21 200.39 29.61 200.2 28.91 199.81 L 28.91 200.99 C 28.91 200.99 29.62 201.27 30.23 201.42 C 30.23 201.42 30.85 201.56 31.35 201.56 C 31.35 201.56 32.7 201.56 33.5 200.89 C 33.5 200.89 34.29 200.22 34.29 199.1 C 34.29 199.1 34.29 198.57 34.09 198.09 C 34.09 198.09 33.89 197.61 33.37 196.96 C 33.37 196.96 33.22 196.79 32.45 195.99 C 32.45 195.99 31.67 195.19 30.26 193.75 Z "/>
<path transform="matrix(1,0,0,-1,0,400)" d="M 39.29 200.64 C 39.29 200.64 38.39 200.64 37.93 199.75 C 37.93 199.75 37.48 198.86 37.48 197.08 C 37.48 197.08 37.48 195.3 37.93 194.41 C 37.93 194.41 38.39 193.52 39.29 193.52 C 39.29 193.52 40.2 193.52 40.65 194.41 C 40.65 194.41 41.11 195.3 41.11 197.08 C 41.11 197.08 41.11 198.86 40.65 199.75 C 40.65 199.75 40.2 200.64 39.29 200.64 M 39.29 201.56 C 39.29 201.56 40.75 201.56 41.51 200.41 C 41.51 200.41 42.28 199.27 42.28 197.08 C 42.28 197.08 42.28 194.9 41.51 193.74 C 41.51 193.74 40.75 192.6 39.29 192.6 C 39.29 192.6 37.84 192.6 37.07 193.74 C 37.07 193.74 36.31 194.9 36.31 197.08 C 36.31 197.08 36.31 199.27 37.07 200.41 C 37.07 200.41 37.84 201.56 39.29 201.56 Z "/>
<path transform="matrix(1,0,0,-1,0,400)" d="M 46.83 200.64 C 46.83 200.64 45.93 200.64 45.47 199.75 C 45.47 199.75 45.02 198.86 45.02 197.08 C 45.02 197.08 45.02 195.3 45.47 194.41 C 45.47 194.41 45.93 193.52 46.83 193.52 C 46.83 193.52 47.74 193.52 48.19 194.41 C 48.19 194.41 48.65 195.3 48.65 197.08 C 48.65 197.08 48.65 198.86 48.19 199.75 C 48.19 199.75 47.74 200.64 46.83 200.64 M 46.83 201.56 C 46.83 201.56 48.29 201.56 49.05 200.41 C 49.05 200.41 49.82 199.27 49.82 197.08 C 49.82 197.08 49.82 194.9 49.05 193.74 C 49.05 193.74 48.29 192.6 46.83 192.6 C 46.83 192.6 45.38 192.6 44.61 193.74 C 44.61 193.74 43.85 194.9 43.85 197.08 C 43.85 197.08 43.85 199.27 44.61 200.41 C 44.61 200.41 45.38 201.56 46.83 201.56 Z "/>
<path transform="matrix(1,0,0,-1,0,400)" d="M 54.38 200.64 C 54.38 200.64 53.47 200.64 53.02 199.75 C 53.02 199.75 52.56 198.86 52.56 197.08 C 52.56 197.08 52.56 195.3 53.02 194.41 C 53.02 194.41 53.47 193.52 54.38 193.52 C 54.38 193.52 55.28 193.52 55.74 194.41 C 55.74 194.41 56.19 195.3 56.19 197.08 C 56.19 197.08 56.19 198.86 55.74 199.75 C 55.74 199.75 55.28 200.64 54.38 200.64 M 54.38 201.56 C 54.38 201.56 55.83 201.56 56.59 200.41 C 56.59 200.41 57.36 199.27 57.36 197.08 C 57.36 197.08 57.36 194.9 56.59 193.74 C 56.59 193.74 55.83 192.6 54.38 192.6 C 54.38 192.6 52.92 192.6 52.15 193.74 C 52.15 193.74 51.39 194.9 51.39 197.08 C 51.39 197.08 51.39 199.27 52.15 200.41 C 52.15 200.41 52.92 201.56 54.38 201.56 Z "/>
<path transform="matrix(1,0,0,-1,0,400)" d="M 32.8 273.87 C 32.8 273.87 33.63 273.69 34.1 273.12 C 34.1 273.12 34.58 272.55 34.58 271.72 C 34.58 271.72 34.58 270.44 33.7 269.74 C 33.7 269.74 32.82 269.04 31.2 269.04 C 31.2 269.04 30.65 269.04 30.08 269.15 C 30.08 269.15 29.5 269.25 28.89 269.47 L 28.89 270.6 C 28.89 270.6 29.38 270.31 29.95 270.17 C 29.95 270.17 30.53 270.02 31.16 270.02 C 31.16 270.02 32.26 270.02 32.84 270.46 C 32.84 270.46 33.41 270.89 33.41 271.72 C 33.41 271.72 33.41 272.48 32.88 272.91 C 32.88 272.91 32.34 273.35 31.39 273.35 L 30.38 273.35 L 30.38 274.31 L 31.44 274.31 C 31.44 274.31 32.3 274.31 32.75 274.65 C 32.75 274.65 33.21 274.99 33.21 275.64 C 33.21 275.64 33.21 276.31 32.74 276.66 C 32.74 276.66 32.27 277.02 31.39 277.02 C 31.39 277.02 30.91 277.02 30.36 276.92 C 30.36 276.92 29.81 276.81 29.15 276.59 L 29.15 277.63 C 29.15 277.63 29.82 277.82 30.39 277.91 C 30.39 277.91 30.98 278 31.49 278 C 31.49 278 32.82 278 33.6 277.4 C 33.6 277.4 34.38 276.79 34.38 275.76 C 34.38 275.76 34.38 275.05 33.96 274.55 C 33.96 274.55 33.55 274.06 32.8 273.87 Z "/>
<path transform="matrix(1,0,0,-1,0,400)" d="M 39.29 277.08 C 39.29 277.08 38.39 277.08 37.93 276.19 C 37.93 276.19 37.48 275.3 37.48 273.52 C 37.48 273.52 37.48 271.74 37.93 270.85 C 37.93 270.85 38.39 269.97 39.29 269.97 C 39.29 269.97 40.2 269.97 40.65 270.85 C 40.65 270.85 41.11 271.74 41.11 273.52 C 41.11 273.52 41.11 275.3 40.65 276.19 C 40.65 276.19 40.2 277.08 39.29 277.08 M 39.29 278 C 39.29 278 40.75 278 41.51 276.85 C 41.51 276.85 42.28 275.71 42.28 273.52 C 42.28 273.52 42.28 271.34 41.51 270.19 C 41.51 270.19 40.75 269.04 39.29 269.04 C 39.29 269.04 37.84 269.04 37.07 270.19 C 37.07 270.19 36.31 271.34 36.31 273.52 C 36.31 273.52 36.31 275.71 37.07 276.85 C 37.07 276.85 37.84 278 39.29 278 Z "/>
<path transform="matrix(1,0,0,-1,0,400)" d="M 46.83 277.08 C 46.83 277.08 45.93 277.08 45.47 276.19 C 45.47 276.19 45.02 275.3 45.02 273.52 C 45.02 273.52 45.02 271.74 45.47 270.85 C 45.47 270.85 45.93 269.97 46.83 269.97 C 46.83 269.97 47.74 269.97 48.19 270.85 C 48.19 270.85 48.65 271.74 48.65 273.52 C 48.65 273.52 48.65 275.3 48.19 276.19 C 48.19 276.19 47.74 277.08 46.83 277.08 M 46.83 278 C 46.83 278 48.29 278 49.05 276.85 C 49.05 276.85 49.82 275.71 49.82 273.52 C 49.82 273.52 49.82 271.34 49.05 270.19 C 49.05 270.19 48.29 269.04 46.83 269.04 C 46.83 269.04 45.38 269.04 44.61 270.19 C 44.61 270.19 43.85 271.34 43.85 273.52 C 43.85 273.52 43.85 275.71 44.61 276.85 C 44.61 276.85 45.38 278 46.83 278 Z "/>
<path transform="matrix(1,0,0,-1,0,400)" d="M 54.38 277.08 C 54.38 277.08 53.47 277.08 53.02 276.19 C 53.02 276.19 52.56 275.3 52.56 273.52 C 52.56 273.52 52.56 271.74 53.02 270.85 C 53.02 270.85 53.47 269.97 54.38 269.97 C 54.38 269.97 55.28 269.97 55.74 270.85 C 55.74 270.85 56.19 271.74 56.19 273.52 C 56.19 273.52 56.19 275.3 55.74 276.19 C 55.74 276.19 55.28 277.08 54.38 277.08 M 54.38 278 C 54.38 278 55.83 278 56.59 276.85 C 56.59 276.85 57.36 275.71 57.36 273.52 C 57.36 273.52 57.36 271.34 56.59 270.19 C 56.59 270.19 55.83 269.04 54.38 269.04 C 54.38 269.04 52.92 269.04 52.15 270.19 C 52.15 270.19 51.39 271.34 51.39 273.52 C 51.39 273.52 51.39 275.71 52.15 276.85 C 52.15 276.85 52.92 278 54.38 278 Z "/>
<path transform="matrix(1,0,0,-1,0,400)" d="M 32.47 353.27 L 29.51 348.66 L 32.47 348.66 L 32.47 353.27 M 32.16 354.29 L 33.63 354.29 L 33.63 348.66 L 34.86 348.66 L 34.86 347.69 L 33.63 347.69 L 33.63 345.65 L 32.47 345.65 L 32.47 347.69 L 28.57 347.69 L 28.57 348.81 L 32.16 354.29 Z "/>
<path transform="matrix(1,0,0,-1,0,400)" d="M 39.29 353.52 C 39.29 353.52 38.39 353.52 37.93 352.63 C 37.93 352.63 37.48 351.74 37.48 349.96 C 37.48 349.96 37.48 348.18 37.93 347.29 C 37.93 347.29 38.39 346.41 39.29 346.41 C 39.29 346.41 40.2 346.41 40.65 347.29 C 40.65 347.29 41.11 348.18 41.11 349.96 C 41.11 349.96 41.11 351.74 40.65 352.63 C 40.65 352.63 40.2 353.52 39.29 353.52 M 39.29 354.44 C 39.29 354.44 40.75 354.44 41.51 353.29 C 41.51 353.29 42.28 352.15 42.28 349.96 C 42.28 349.96 42.28 347.78 41.51 346.63 C 41.51 346.63 40.75 345.48 39.29 345.48 C 39.29 345.48 37.84 345.48 37.07 346.63 C 37.07 346.63 36.31 347.78 36.31 349.96 C 36.31 349.96 36.31 352.15 37.07 353.29 C 37.07 353.29 37.84 354.44 39.29 354.44 Z "/>
<path transform="matrix(1,0,0,-1,0,400)" d="M 46.83 353.52 C 46.83 353.52 45.93 353.52 45.47 352.63 C 45.47 352.63 45.02 351.74 45.02 349.96 C 45.02 349.96 45.02 348.18 45.47 347.29 C 45.47 347.29 45.93 346.41 46.83 346.41 C 46.83 346.41 47.74 346.41 48.19 347.29 C 48.19 347.29 48.65 348.18 48.65 349.96 C 48.65 349.96 48.65 351.74 48.19 352.63 C 48.19 352.63 47.74 353.52 46.83 353.52 M 46.83 354.44 C 46.83 354.44 48.29 354.44 49.05 353.29 C 49.05 353.29 49.82 352.15 49.82 349.96 C 49.82 349.96 49.82 347.78 49.05 346.63 C 49.05 346.63 48.29 345.48 46.83 345.48 C 46.83 345.48 45.38 345.48 44.61 346.63 C 44.61 346.63 43.85 347.78 43.85 349.96 C 43.85 349.96 43.85 352.15 44.61 353.29 C 44.61 353.29 45.38 354.44 46.83 354.44 Z "/>
<path transform="matrix(1,0,0,-1,0,400)" d="M 54.38 353.52 C 54.38 353.52 53.47 353.52 53.02 352.63 C 53.02 352.63 52.56 351.74 52.56 349.96 C 52.56 349.96 52.56 348.18 53.02 347.29 C 53.02 347.29 53.47 346.41 54.38 346.41 C 54.38 346.41 55.28 346.41 55.74 347.29 C 55.74 347.29 56.19 348.18 56.19 349.96 C 56.19 349.96 56.19 351.74 55.74 352.63 C 55.74 352.63 55.28 353.52 54.38 353.52 M 54.38 354.44 C 54.38 354.44 55.83 354.44 56.59 353.29 C 56.59 353.29 57.36 352.15 57.36 349.96 C 57.36 349.96 57.36 347.78 56.59 346.63 C 56.59 346.63 55.83 345.48 54.38 345.48 C 54.38 345.48 52.92 345.48 52.15 346.63 C 52.15 346.63 51.39 347.78 51.39 349.96 C 51.39 349.96 51.39 352.15 52.15 353.29 C 52.15 353.29 52.92 354.44 54.38 354.44 Z "/>
<path transform="matrix(1,0,0,-1,0,400)" d="M 5.7 149.5 L 11.62 147.32 L 11.62 151.69 L 5.7 149.5 M 4.12 148.6 L 4.12 150.42 L 16 154.95 L 16 153.28 L 12.95 152.19 L 12.95 146.84 L 16 145.76 L 16 144.06 L 4.12 148.6 Z "/>
<path transform="matrix(1,0,0,-1,0,400)" d="M 8.46 161.78 C 8.46 161.78 8.31 161.54 8.25 161.24 C 8.25 161.24 8.18 160.95 8.18 160.6 C 8.18 160.6 8.18 159.36 8.99 158.69 C 8.99 158.69 9.79 158.03 11.31 158.03 L 16 158.03 L 16 156.56 L 7.09 156.56 L 7.09 158.03 L 8.47 158.03 C 8.47 158.03 7.66 158.5 7.27 159.24 C 7.27 159.24 6.87 159.98 6.87 161.03 C 6.87 161.03 6.87 161.19 6.9 161.37 C 6.9 161.37 6.91 161.55 6.95 161.77 L 8.46 161.78 Z "/>
<path transform="matrix(1,0,0,-1,0,400)" d="M 11.18 170.58 L 11.9 170.58 L 11.9 163.85 C 11.9 163.85 13.41 163.95 14.2 164.76 C 14.2 164.76 14.99 165.58 14.99 167.03 C 14.99 167.03 14.99 167.88 14.78 168.67 C 14.78 168.67 14.58 169.46 14.16 170.24 L 15.55 170.24 C 15.55 170.24 15.88 169.45 16.06 168.63 C 16.06 168.63 16.23 167.8 16.23 166.95 C 16.23 166.95 16.23 164.81 14.99 163.56 C 14.99 163.56 13.75 162.32 11.63 162.32 C 11.63 162.32 9.44 162.32 8.16 163.5 C 8.16 163.5 6.87 164.69 6.87 166.69 C 6.87 166.69 6.87 168.49 8.04 169.53 C 8.04 169.53 9.19 170.58 11.18 170.58 M 10.75 169.12 C 10.75 169.12 9.55 169.1 8.83 168.44 C 8.83 168.44 8.12 167.79 8.12 166.71 C 8.12 166.71 8.12 165.48 8.81 164.74 C 8.81 164.74 9.5 164.01 10.76 163.9 L 10.75 169.12 Z "/>
<path transform="matrix(1,0,0,-1,0,400)" d="M 11.52 177.04 C 11.52 177.04 11.52 175.26 11.93 174.58 C 11.93 174.58 12.33 173.89 13.31 173.89 C 13.31 173.89 14.09 173.89 14.55 174.4 C 14.55 174.4 15.01 174.92 15.01 175.8 C 15.01 175.8 15.01 177.02 14.15 177.75 C 14.15 177.75 13.28 178.49 11.85 178.49 L 11.52 178.49 L 11.52 177.04 M 10.92 179.96 L 16 179.96 L 16 178.49 L 14.65 178.49 C 14.65 178.49 15.46 177.99 15.85 177.24 C 15.85 177.24 16.23 176.49 16.23 175.41 C 16.23 175.41 16.23 174.04 15.47 173.23 C 15.47 173.23 14.7 172.43 13.41 172.43 C 13.41 172.43 11.9 172.43 11.14 173.43 C 11.14 173.43 10.38 174.44 10.38 176.44 L 10.38 178.49 L 10.23 178.49 C 10.23 178.49 9.22 178.49 8.67 177.82 C 8.67 177.82 8.12 177.16 8.12 175.96 C 8.12 175.96 8.12 175.2 8.3 174.47 C 8.3 174.47 8.48 173.75 8.85 173.08 L 7.49 173.08 C 7.49 173.08 7.18 173.88 7.03 174.64 C 7.03 174.64 6.87 175.4 6.87 176.11 C 6.87 176.11 6.87 178.05 7.88 179 C 7.88 179 8.88 179.96 10.92 179.96 Z "/>
<path transform="matrix(1,0,0,-1,0,400)" d="M 4.12 188.03 L 4.12 189.65 L 11.34 189.65 C 11.34 189.65 13.25 189.65 14.09 190.34 C 14.09 190.34 14.93 191.03 14.93 192.58 C 14.93 192.58 14.93 194.13 14.09 194.82 C 14.09 194.82 13.25 195.51 11.34 195.51 L 4.12 195.51 L 4.12 197.13 L 11.54 197.13 C 11.54 197.13 13.86 197.13 15.05 195.97 C 15.05 195.97 16.23 194.83 16.23 192.58 C 16.23 192.58 16.23 190.33 15.05 189.18 C 15.05 189.18 13.86 188.03 11.54 188.03 L 4.12 188.03 Z "/>
<path transform="matrix(1,0,0,-1,0,400)" d="M 10.62 207.49 L 16 207.49 L 16 206.02 L 10.67 206.02 C 10.67 206.02 9.4 206.02 8.78 205.53 C 8.78 205.53 8.15 205.04 8.15 204.05 C 8.15 204.05 8.15 202.86 8.9 202.18 C 8.9 202.18 9.66 201.5 10.96 201.5 L 16 201.5 L 16 200.02 L 7.09 200.02 L 7.09 201.5 L 8.47 201.5 C 8.47 201.5 7.67 202.02 7.27 202.73 C 7.27 202.73 6.87 203.45 6.87 204.38 C 6.87 204.38 6.87 205.91 7.83 206.7 C 7.83 206.7 8.78 207.49 10.62 207.49 Z "/>
<path transform="matrix(1,0,0,-1,0,400)" d="M 8.44 216.27 L 3.62 216.27 L 3.62 217.74 L 16 217.74 L 16 216.27 L 14.66 216.27 C 14.66 216.27 15.46 215.81 15.85 215.1 C 15.85 215.1 16.23 214.4 16.23 213.42 C 16.23 213.42 16.23 211.8 14.94 210.78 C 14.94 210.78 13.65 209.77 11.55 209.77 C 11.55 209.77 9.45 209.77 8.16 210.78 C 8.16 210.78 6.87 211.8 6.87 213.42 C 6.87 213.42 6.87 214.4 7.26 215.1 C 7.26 215.1 7.65 215.81 8.44 216.27 M 11.55 211.28 C 11.55 211.28 13.17 211.28 14.09 211.94 C 14.09 211.94 15.01 212.61 15.01 213.77 C 15.01 213.77 15.01 214.94 14.09 215.6 C 14.09 215.6 13.17 216.27 11.55 216.27 C 11.55 216.27 9.94 216.27 9.02 215.6 C 9.02 215.6 8.1 214.94 8.1 213.77 C 8.1 213.77 8.1 212.61 9.02 211.94 C 9.02 211.94 9.94 211.28 11.55 211.28 Z "/>
<path transform="matrix(1,0,0,-1,0,400)" d="M 11.18 228.38 L 11.9 228.38 L 11.9 221.64 C 11.9 221.64 13.41 221.74 14.2 222.55 C 14.2 222.55 14.99 223.37 14.99 224.83 C 14.99 224.83 14.99 225.67 14.78 226.46 C 14.78 226.46 14.58 227.25 14.16 228.03 L 15.55 228.03 C 15.55 228.03 15.88 227.25 16.06 226.42 C 16.06 226.42 16.23 225.59 16.23 224.74 C 16.23 224.74 16.23 222.61 14.99 221.36 C 14.99 221.36 13.75 220.12 11.63 220.12 C 11.63 220.12 9.44 220.12 8.16 221.29 C 8.16 221.29 6.87 222.48 6.87 224.48 C 6.87 224.48 6.87 226.28 8.04 227.33 C 8.04 227.33 9.19 228.38 11.18 228.38 M 10.75 226.91 C 10.75 226.91 9.55 226.9 8.83 226.23 C 8.83 226.23 8.12 225.58 8.12 224.5 C 8.12 224.5 8.12 223.27 8.81 222.53 C 8.81 222.53 9.5 221.8 10.76 221.69 L 10.75 226.91 Z "/>
<path transform="matrix(1,0,0,-1,0,400)" d="M 8.46 235.94 C 8.46 235.94 8.31 235.7 8.25 235.4 C 8.25 235.4 8.18 235.12 8.18 234.76 C 8.18 234.76 8.18 233.52 8.99 232.86 C 8.99 232.86 9.79 232.19 11.31 232.19 L 16 232.19 L 16 230.72 L 7.09 230.72 L 7.09 232.19 L 8.47 232.19 C 8.47 232.19 7.66 232.66 7.27 233.4 C 7.27 233.4 6.87 234.14 6.87 235.19 C 6.87 235.19 6.87 235.35 6.9 235.53 C 6.9 235.53 6.91 235.71 6.95 235.93 L 8.46 235.94 Z "/>
<path transform="matrix(1,0,0,-1,0,400)" d="M 5.04 251.62 L 6.73 251.62 C 6.73 251.62 5.98 250.81 5.6 249.88 C 5.6 249.88 5.23 248.97 5.23 247.93 C 5.23 247.93 5.23 245.9 6.48 244.81 C 6.48 244.81 7.72 243.73 10.07 243.73 C 10.07 243.73 12.42 243.73 13.67 244.81 C 13.67 244.81 14.91 245.9 14.91 247.93 C 14.91 247.93 14.91 248.97 14.54 249.88 C 14.54 249.88 14.16 250.81 13.41 251.62 L 15.09 251.62 C 15.09 251.62 15.66 250.77 15.95 249.83 C 15.95 249.83 16.23 248.89 16.23 247.84 C 16.23 247.84 16.23 245.14 14.58 243.59 C 14.58 243.59 12.93 242.04 10.07 242.04 C 10.07 242.04 7.21 242.04 5.56 243.59 C 5.56 243.59 3.91 245.14 3.91 247.84 C 3.91 247.84 3.91 248.9 4.19 249.84 C 4.19 249.84 4.47 250.79 5.04 251.62 Z "/>
<path transform="matrix(1,0,0,-1,0,400)" d="M 12.48 253.89 L 7.09 253.89 L 7.09 255.35 L 12.43 255.35 C 12.43 255.35 13.69 255.35 14.33 255.84 C 14.33 255.84 14.96 256.34 14.96 257.32 C 14.96 257.32 14.96 258.51 14.2 259.19 C 14.2 259.19 13.45 259.89 12.14 259.89 L 7.09 259.89 L 7.09 261.35 L 16 261.35 L 16 259.89 L 14.63 259.89 C 14.63 259.89 15.44 259.35 15.84 258.64 C 15.84 258.64 16.23 257.94 16.23 257.01 C 16.23 257.01 16.23 255.48 15.28 254.68 C 15.28 254.68 14.32 253.89 12.48 253.89 M 6.87 257.57 L 6.87 257.57 Z "/>
<path transform="matrix(1,0,0,-1,0,400)" d="M 8.46 269.53 C 8.46 269.53 8.31 269.28 8.25 268.99 C 8.25 268.99 8.18 268.7 8.18 268.35 C 8.18 268.35 8.18 267.11 8.99 266.44 C 8.99 266.44 9.79 265.78 11.31 265.78 L 16 265.78 L 16 264.31 L 7.09 264.31 L 7.09 265.78 L 8.47 265.78 C 8.47 265.78 7.66 266.24 7.27 266.98 C 7.27 266.98 6.87 267.72 6.87 268.78 C 6.87 268.78 6.87 268.93 6.9 269.12 C 6.9 269.12 6.91 269.3 6.95 269.52 L 8.46 269.53 Z "/>
<path transform="matrix(1,0,0,-1,0,400)" d="M 7.09 270.02 L 7.09 271.57 L 14.57 274.35 L 7.09 277.14 L 7.09 278.69 L 16 275.35 L 16 273.36 L 7.09 270.02 Z "/>
<path transform="matrix(1,0,0,-1,0,400)" d="M 11.18 288.33 L 11.9 288.33 L 11.9 281.6 C 11.9 281.6 13.41 281.7 14.2 282.51 C 14.2 282.51 14.99 283.33 14.99 284.78 C 14.99 284.78 14.99 285.63 14.78 286.41 C 14.78 286.41 14.58 287.21 14.16 287.99 L 15.55 287.99 C 15.55 287.99 15.88 287.2 16.06 286.37 C 16.06 286.37 16.23 285.55 16.23 284.7 C 16.23 284.7 16.23 282.56 14.99 281.31 C 14.99 281.31 13.75 280.07 11.63 280.07 C 11.63 280.07 9.44 280.07 8.16 281.25 C 8.16 281.25 6.87 282.44 6.87 284.44 C 6.87 284.44 6.87 286.24 8.04 287.28 C 8.04 287.28 9.19 288.33 11.18 288.33 M 10.75 286.87 C 10.75 286.87 9.55 286.85 8.83 286.19 C 8.83 286.19 8.12 285.54 8.12 284.46 C 8.12 284.46 8.12 283.23 8.81 282.49 C 8.81 282.49 9.5 281.76 10.76 281.65 L 10.75 286.87 Z "/>
<clipPath id="cp3">
<path transform="matrix(1,0,0,-1,0,400)" d="M 66.36 44.21 L 588.19 44.21 L 588.19 388.19 L 66.36 388.19 Z "/>
</clipPath>
<g clip-path="url(#cp3)">
<path transform="matrix(1,0,0,-1,0,400)" d="M 97.91 239.63 L 97.91 44.21 L 113.8 44.21 L 113.8 239.63 L 97.91 239.63 " fill="#1b1b1b" fill-rule="evenodd"/>
</g>
<path transform="matrix(1,0,0,-1,0,400)" stroke-width="0" stroke-linecap="round" stroke-linejoin="round" fill="none" stroke="#000000" d="M 97.91 239.63 L 97.91 44.21 L 113.8 44.21 L 113.8 239.63 L 97.91 239.63 "/>
<clipPath id="cp4">
<path transform="matrix(1,0,0,-1,0,400)" d="M 66.36 44.21 L 588.19 44.21 L 588.19 388.19 L 66.36 388.19 Z "/>
</clipPath>
<g clip-path="url(#cp4)">
<path transform="matrix(1,0,0,-1,0,400)" d="M 145.35 244.79 L 145.35 44.21 L 161.24 44.21 L 161.24 244.79 L 145.35 244.79 " fill="#1b1b1b" fill-rule="evenodd"/>
</g>
<path transform="matrix(1,0,0,-1,0,400)" stroke-width="0" stroke-linecap="round" stroke-linejoin="round" fill="none" stroke="#000000" d="M 145.35 244.79 L 145.35 44.21 L 161.24 44.21 L 161.24 244.79 L 145.35 244.79 "/>
<clipPath id="cp5">
<path transform="matrix(1,0,0,-1,0,400)" d="M 66.36 44.21 L 588.19 44.21 L 588.19 388.19 L 66.36 388.19 Z "/>
</clipPath>
<g clip-path="url(#cp5)">
<path transform="matrix(1,0,0,-1,0,400)" d="M 192.79 227.85 L 192.79 44.21 L 208.68 44.21 L 208.68 227.85 L 192.79 227.85 " fill="#1b1b1b" fill-rule="evenodd"/>
</g>
<path transform="matrix(1,0,0,-1,0,400)" stroke-width="0" stroke-linecap="round" stroke-linejoin="round" fill="none" stroke="#000000" d="M 192.79 227.85 L 192.79 44.21 L 208.68 44.21 L 208.68 227.85 L 192.79 227.85 "/>
<clipPath id="cp6">
<path transform="matrix(1,0,0,-1,0,400)" d="M 66.36 44.21 L 588.19 44.21 L 588.19 388.19 L 66.36 388.19 Z "/>
</clipPath>
<g clip-path="url(#cp6)">
<path transform="matrix(1,0,0,-1,0,400)" d="M 240.22 219.52 L 240.22 44.21 L 256.12 44.21 L 256.12 219.52 L 240.22 219.52 " fill="#1b1b1b" fill-rule="evenodd"/>
</g>
<path transform="matrix(1,0,0,-1,0,400)" stroke-width="0" stroke-linecap="round" stroke-linejoin="round" fill="none" stroke="#000000" d="M 240.22 219.52 L 240.22 44.21 L 256.12 44.21 L 256.12 219.52 L 240.22 219.52 "/>
<clipPath id="cp7">
<path transform="matrix(1,0,0,-1,0,400)" d="M 66.36 44.21 L 588.19 44.21 L 588.19 388.19 L 66.36 388.19 Z "/>
</clipPath>
<g clip-path="url(#cp7)">
<path transform="matrix(1,0,0,-1,0,400)" d="M 287.66 282.09 L 287.66 44.21 L 303.56 44.21 L 303.56 282.09 L 287.66 282.09 " fill="#1b1b1b" fill-rule="evenodd"/>
</g>
<path transform="matrix(1,0,0,-1,0,400)" stroke-width="0" stroke-linecap="round" stroke-linejoin="round" fill="none" stroke="#000000" d="M 287.66 282.09 L 287.66 44.21 L 303.56 44.21 L 303.56 282.09 L 287.66 282.09 "/>
<clipPath id="cp8">
<path transform="matrix(1,0,0,-1,0,400)" d="M 66.36 44.21 L 588.19 44.21 L 588.19 388.19 L 66.36 388.19 Z "/>
</clipPath>
<g clip-path="url(#cp8)">
<path transform="matrix(1,0,0,-1,0,400)" d="M 335.1 300.43 L 335.1 44.21 L 350.99 44.21 L 350.99 300.43 L 335.1 300.43 " fill="#1b1b1b" fill-rule="evenodd"/>
</g>
<path transform="matrix(1,0,0,-1,0,400)" stroke-width="0" stroke-linecap="round" stroke-linejoin="round" fill="none" stroke="#000000" d="M 335.1 300.43 L 335.1 44.21 L 350.99 44.21 L 350.99 300.43 L 335.1 300.43 "/>
<clipPath id="cp9">
<path transform="matrix(1,0,0,-1,0,400)" d="M 66.36 44.21 L 588.19 44.21 L 588.19 388.19 L 66.36 388.19 Z "/>
</clipPath>
<g clip-path="url(#cp9)">
<path transform="matrix(1,0,0,-1,0,400)" d="M 382.54 293.63 L 382.54 44.21 L 398.43 44.21 L 398.43 293.63 L 382.54 293.63 " fill="#1b1b1b" fill-rule="evenodd"/>
</g>
<path transform="matrix(1,0,0,-1,0,400)" stroke-width="0" stroke-linecap="round" stroke-linejoin="round" fill="none" stroke="#000000" d="M 382.54 293.63 L 382.54 44.21 L 398.43 44.21 L 398.43 293.63 L 382.54 293.63 "/>
<clipPath id="cp10">
<path transform="matrix(1,0,0,-1,0,400)" d="M 66.36 44.21 L 588.19 44.21 L 588.19 388.19 L 66.36 388.19 Z "/>
</clipPath>
<g clip-path="url(#cp10)">
<path transform="matrix(1,0,0,-1,0,400)" d="M 429.98 306.66 L 429.98 44.21 L 445.87 44.21 L 445.87 306.66 L 429.98 306.66 " fill="#1b1b1b" fill-rule="evenodd"/>
</g>
<path transform="matrix(1,0,0,-1,0,400)" stroke-width="0" stroke-linecap="round" stroke-linejoin="round" fill="none" stroke="#000000" d="M 429.98 306.66 L 429.98 44.21 L 445.87 44.21 L 445.87 306.66 L 429.98 306.66 "/>
<clipPath id="cp11">
<path transform="matrix(1,0,0,-1,0,400)" d="M 66.36 44.21 L 588.19 44.21 L 588.19 388.19 L 66.36 388.19 Z "/>
</clipPath>
<g clip-path="url(#cp11)">
<path transform="matrix(1,0,0,-1,0,400)" d="M 477.42 259.35 L 477.42 44.21 L 493.31 44.21 L 493.31 259.35 L 477.42 259.35 " fill="#1b1b1b" fill-rule="evenodd"/>
</g>
<path transform="matrix(1,0,0,-1,0,400)" stroke-width="0" stroke-linecap="round" stroke-linejoin="round" fill="none" stroke="#000000" d="M 477.42 259.35 L 477.42 44.21 L 493.31 44.21 L 493.31 259.35 L 477.42 259.35 "/>
<clipPath id="cp12">
<path transform="matrix(1,0,0,-1,0,400)" d="M 66.36 44.21 L 588.19 44.21 L 588.19 388.19 L 66.36 388.19 Z "/>
</clipPath>
<g clip-path="url(#cp12)">
<path transform="matrix(1,0,0,-1,0,400)" d="M 524.86 306.28 L 524.86 44.21 L 540.75 44.21 L 540.75 306.28 L 524.86 306.28 " fill="#1b1b1b" fill-rule="evenodd"/>
</g>
<path transform="matrix(1,0,0,-1,0,400)" stroke-width="0" stroke-linecap="round" stroke-linejoin="round" fill="none" stroke="#000000" d="M 524.86 306.28 L 524.86 44.21 L 540.75 44.21 L 540.75 306.28 L 524.86 306.28 "/>
<path transform="matrix(1,0,0,-1,0,400)" stroke-width=".8" stroke-linecap="round" stroke-linejoin="round" fill="none" stroke="#1b1b1b" stroke-opacity="0" d="M 105.85 239.63 L 105.85 239.63 "/>
<path transform="matrix(1,0,0,-1,0,400)" stroke-width=".8" stroke-linecap="round" stroke-linejoin="round" fill="none" stroke="#1b1b1b" stroke-opacity="0" d="M 153.29 244.79 L 153.29 244.79 "/>
<path transform="matrix(1,0,0,-1,0,400)" stroke-width=".8" stroke-linecap="round" stroke-linejoin="round" fill="none" stroke="#1b1b1b" stroke-opacity="0" d="M 200.73 227.85 L 200.73 227.85 "/>
<path transform="matrix(1,0,0,-1,0,400)" stroke-width=".8" stroke-linecap="round" stroke-linejoin="round" fill="none" stroke="#1b1b1b" stroke-opacity="0" d="M 248.17 219.52 L 248.17 219.52 "/>
<path transform="matrix(1,0,0,-1,0,400)" stroke-width=".8" stroke-linecap="round" stroke-linejoin="round" fill="none" stroke="#1b1b1b" stroke-opacity="0" d="M 295.61 282.09 L 295.61 282.09 "/>
<path transform="matrix(1,0,0,-1,0,400)" stroke-width=".8" stroke-linecap="round" stroke-linejoin="round" fill="none" stroke="#1b1b1b" stroke-opacity="0" d="M 343.05 300.43 L 343.05 300.43 "/>
<path transform="matrix(1,0,0,-1,0,400)" stroke-width=".8" stroke-linecap="round" stroke-linejoin="round" fill="none" stroke="#1b1b1b" stroke-opacity="0" d="M 390.49 293.63 L 390.49 293.63 "/>
<path transform="matrix(1,0,0,-1,0,400)" stroke-width=".8" stroke-linecap="round" stroke-linejoin="round" fill="none" stroke="#1b1b1b" stroke-opacity="0" d="M 437.93 306.66 L 437.93 306.66 "/>
<path transform="matrix(1,0,0,-1,0,400)" stroke-width=".8" stroke-linecap="round" stroke-linejoin="round" fill="none" stroke="#1b1b1b" stroke-opacity="0" d="M 485.37 259.35 L 485.37 259.35 "/>
<path transform="matrix(1,0,0,-1,0,400)" stroke-width=".8" stroke-linecap="round" stroke-linejoin="round" fill="none" stroke="#1b1b1b" stroke-opacity="0" d="M 532.8 306.28 L 532.8 306.28 "/>
<clipPath id="cp13">
<path transform="matrix(1,0,0,-1,0,400)" d="M 66.36 44.21 L 588.19 44.21 L 588.19 388.19 L 66.36 388.19 Z "/>
</clipPath>
<g clip-path="url(#cp13)">
<path transform="matrix(1,0,0,-1,0,400)" d="M 113.8 239.44 L 113.8 44.21 L 129.69 44.21 L 129.69 239.44 L 113.8 239.44 " fill="#a2a2a2" fill-rule="evenodd"/>
</g>
<path transform="matrix(1,0,0,-1,0,400)" stroke-width="0" stroke-linecap="round" stroke-linejoin="round" fill="none" stroke="#000000" d="M 113.8 239.44 L 113.8 44.21 L 129.69 44.21 L 129.69 239.44 L 113.8 239.44 "/>
<clipPath id="cp14">
<path transform="matrix(1,0,0,-1,0,400)" d="M 66.36 44.21 L 588.19 44.21 L 588.19 388.19 L 66.36 388.19 Z "/>
</clipPath>
<g clip-path="url(#cp14)">
<path transform="matrix(1,0,0,-1,0,400)" d="M 161.24 244.77 L 161.24 44.21 L 177.13 44.21 L 177.13 244.77 L 161.24 244.77 " fill="#a2a2a2" fill-rule="evenodd"/>
</g>
<path transform="matrix(1,0,0,-1,0,400)" stroke-width="0" stroke-linecap="round" stroke-linejoin="round" fill="none" stroke="#000000" d="M 161.24 244.77 L 161.24 44.21 L 177.13 44.21 L 177.13 244.77 L 161.24 244.77 "/>
<clipPath id="cp15">
<path transform="matrix(1,0,0,-1,0,400)" d="M 66.36 44.21 L 588.19 44.21 L 588.19 388.19 L 66.36 388.19 Z "/>
</clipPath>
<g clip-path="url(#cp15)">
<path transform="matrix(1,0,0,-1,0,400)" d="M 208.68 227.84 L 208.68 44.21 L 224.57 44.21 L 224.57 227.84 L 208.68 227.84 " fill="#a2a2a2" fill-rule="evenodd"/>
</g>
<path transform="matrix(1,0,0,-1,0,400)" stroke-width="0" stroke-linecap="round" stroke-linejoin="round" fill="none" stroke="#000000" d="M 208.68 227.84 L 208.68 44.21 L 224.57 44.21 L 224.57 227.84 L 208.68 227.84 "/>
<clipPath id="cp16">
<path transform="matrix(1,0,0,-1,0,400)" d="M 66.36 44.21 L 588.19 44.21 L 588.19 388.19 L 66.36 388.19 Z "/>
</clipPath>
<g clip-path="url(#cp16)">
<path transform="matrix(1,0,0,-1,0,400)" d="M 256.12 219.52 L 256.12 44.21 L 272.01 44.21 L 272.01 219.52 L 256.12 219.52 " fill="#a2a2a2" fill-rule="evenodd"/>
</g>
<path transform="matrix(1,0,0,-1,0,400)" stroke-width="0" stroke-linecap="round" stroke-linejoin="round" fill="none" stroke="#000000" d="M 256.12 219.52 L 256.12 44.21 L 272.01 44.21 L 272.01 219.52 L 256.12 219.52 "/>
<clipPath id="cp17">
<path transform="matrix(1,0,0,-1,0,400)" d="M 66.36 44.21 L 588.19 44.21 L 588.19 388.19 L 66.36 388.19 Z "/>
</clipPath>
<g clip-path="url(#cp17)">
<path transform="matrix(1,0,0,-1,0,400)" d="M 303.56 281.55 L 303.56 44.21 L 319.45 44.21 L 319.45 281.55 L 303.56 281.55 " fill="#a2a2a2" fill-rule="evenodd"/>
</g>
<path transform="matrix(1,0,0,-1,0,400)" stroke-width="0" stroke-linecap="round" stroke-linejoin="round" fill="none" stroke="#000000" d="M 303.56 281.55 L 303.56 44.21 L 319.45 44.21 L 319.45 281.55 L 303.56 281.55 "/>
<clipPath id="cp18">
<path transform="matrix(1,0,0,-1,0,400)" d="M 66.36 44.21 L 588.19 44.21 L 588.19 388.19 L 66.36 388.19 Z "/>
</clipPath>
<g clip-path="url(#cp18)">
<path transform="matrix(1,0,0,-1,0,400)" d="M 350.99 300.42 L 350.99 44.21 L 366.89 44.21 L 366.89 300.42 L 350.99 300.42 " fill="#a2a2a2" fill-rule="evenodd"/>
</g>
<path transform="matrix(1,0,0,-1,0,400)" stroke-width="0" stroke-linecap="round" stroke-linejoin="round" fill="none" stroke="#000000" d="M 350.99 300.42 L 350.99 44.21 L 366.89 44.21 L 366.89 300.42 L 350.99 300.42 "/>
<clipPath id="cp19">
<path transform="matrix(1,0,0,-1,0,400)" d="M 66.36 44.21 L 588.19 44.21 L 588.19 388.19 L 66.36 388.19 Z "/>
</clipPath>
<g clip-path="url(#cp19)">
<path transform="matrix(1,0,0,-1,0,400)" d="M 398.43 293.28 L 398.43 44.21 L 414.33 44.21 L 414.33 293.28 L 398.43 293.28 " fill="#a2a2a2" fill-rule="evenodd"/>
</g>
<path transform="matrix(1,0,0,-1,0,400)" stroke-width="0" stroke-linecap="round" stroke-linejoin="round" fill="none" stroke="#000000" d="M 398.43 293.28 L 398.43 44.21 L 414.33 44.21 L 414.33 293.28 L 398.43 293.28 "/>
<clipPath id="cp20">
<path transform="matrix(1,0,0,-1,0,400)" d="M 66.36 44.21 L 588.19 44.21 L 588.19 388.19 L 66.36 388.19 Z "/>
</clipPath>
<g clip-path="url(#cp20)">
<path transform="matrix(1,0,0,-1,0,400)" d="M 445.87 306.12 L 445.87 44.21 L 461.76 44.21 L 461.76 306.12 L 445.87 306.12 " fill="#a2a2a2" fill-rule="evenodd"/>
</g>
<path transform="matrix(1,0,0,-1,0,400)" stroke-width="0" stroke-linecap="round" stroke-linejoin="round" fill="none" stroke="#000000" d="M 445.87 306.12 L 445.87 44.21 L 461.76 44.21 L 461.76 306.12 L 445.87 306.12 "/>
<clipPath id="cp21">
<path transform="matrix(1,0,0,-1,0,400)" d="M 66.36 44.21 L 588.19 44.21 L 588.19 388.19 L 66.36 388.19 Z "/>
</clipPath>
<g clip-path="url(#cp21)">
<path transform="matrix(1,0,0,-1,0,400)" d="M 493.31 259.3 L 493.31 44.21 L 509.2 44.21 L 509.2 259.3 L 493.31 259.3 " fill="#a2a2a2" fill-rule="evenodd"/>
</g>
<path transform="matrix(1,0,0,-1,0,400)" stroke-width="0" stroke-linecap="round" stroke-linejoin="round" fill="none" stroke="#000000" d="M 493.31 259.3 L 493.31 44.21 L 509.2 44.21 L 509.2 259.3 L 493.31 259.3 "/>
<clipPath id="cp22">
<path transform="matrix(1,0,0,-1,0,400)" d="M 66.36 44.21 L 588.19 44.21 L 588.19 388.19 L 66.36 388.19 Z "/>
</clipPath>
<g clip-path="url(#cp22)">
<path transform="matrix(1,0,0,-1,0,400)" d="M 540.75 306.02 L 540.75 44.21 L 556.64 44.21 L 556.64 306.02 L 540.75 306.02 " fill="#a2a2a2" fill-rule="evenodd"/>
</g>
<path transform="matrix(1,0,0,-1,0,400)" stroke-width="0" stroke-linecap="round" stroke-linejoin="round" fill="none" stroke="#000000" d="M 540.75 306.02 L 540.75 44.21 L 556.64 44.21 L 556.64 306.02 L 540.75 306.02 "/>
<path transform="matrix(1,0,0,-1,0,400)" stroke-width=".8" stroke-linecap="round" stroke-linejoin="round" fill="none" stroke="#a2a2a2" stroke-opacity="0" d="M 121.75 239.44 L 121.75 239.44 "/>
<path transform="matrix(1,0,0,-1,0,400)" stroke-width=".8" stroke-linecap="round" stroke-linejoin="round" fill="none" stroke="#a2a2a2" stroke-opacity="0" d="M 169.18 244.77 L 169.18 244.77 "/>
<path transform="matrix(1,0,0,-1,0,400)" stroke-width=".8" stroke-linecap="round" stroke-linejoin="round" fill="none" stroke="#a2a2a2" stroke-opacity="0" d="M 216.62 227.84 L 216.62 227.84 "/>
<path transform="matrix(1,0,0,-1,0,400)" stroke-width=".8" stroke-linecap="round" stroke-linejoin="round" fill="none" stroke="#a2a2a2" stroke-opacity="0" d="M 264.06 219.52 L 264.06 219.52 "/>
<path transform="matrix(1,0,0,-1,0,400)" stroke-width=".8" stroke-linecap="round" stroke-linejoin="round" fill="none" stroke="#a2a2a2" stroke-opacity="0" d="M 311.5 281.55 L 311.5 281.55 "/>
<path transform="matrix(1,0,0,-1,0,400)" stroke-width=".8" stroke-linecap="round" stroke-linejoin="round" fill="none" stroke="#a2a2a2" stroke-opacity="0" d="M 358.94 300.42 L 358.94 300.42 "/>
<path transform="matrix(1,0,0,-1,0,400)" stroke-width=".8" stroke-linecap="round" stroke-linejoin="round" fill="none" stroke="#a2a2a2" stroke-opacity="0" d="M 406.38 293.28 L 406.38 293.28 "/>
<path transform="matrix(1,0,0,-1,0,400)" stroke-width=".8" stroke-linecap="round" stroke-linejoin="round" fill="none" stroke="#a2a2a2" stroke-opacity="0" d="M 453.82 306.12 L 453.82 306.12 "/>
<path transform="matrix(1,0,0,-1,0,400)" stroke-width=".8" stroke-linecap="round" stroke-linejoin="round" fill="none" stroke="#a2a2a2" stroke-opacity="0" d="M 501.26 259.3 L 501.26 259.3 "/>
<path transform="matrix(1,0,0,-1,0,400)" stroke-width=".8" stroke-linecap="round" stroke-linejoin="round" fill="none" stroke="#a2a2a2" stroke-opacity="0" d="M 548.7 306.02 L 548.7 306.02 "/>
<clipPath id="cp23">
<path transform="matrix(1,0,0,-1,0,400)" d="M 0 0 L 600 0 L 600 600 L 0 600 Z "/>
</clipPath>
<g clip-path="url(#cp23)">
<path transform="matrix(1,0,0,-1,0,400)" d="M 460.58 337.84 L 570.79 337.84 L 570.79 376.72 L 460.58 376.72 " fill="#ffffff" fill-rule="evenodd"/>
</g>
<path transform="matrix(1,0,0,-1,0,400)" stroke-width="1" stroke-linecap="round" stroke-linejoin="round" fill="none" stroke="#000000" stroke-opacity="0" d="M 460.58 337.84 L 570.79 337.84 L 570.79 376.72 L 460.58 376.72 L 460.58 337.84 "/>
<path transform="matrix(1,0,0,-1,0,400)" d="M 483.77 368.88 C 480.94 368.88 478.65 366.59 478.65 363.76 C 478.65 360.94 480.94 358.64 483.77 358.64 C 486.6 358.64 488.89 360.94 488.89 363.76 C 488.89 366.59 486.6 368.88 483.77 368.88 " fill="#1b1b1b" fill-rule="evenodd"/>
<path transform="matrix(1,0,0,-1,0,400)" d="M 512.53 367.8 L 512.53 366.66 C 512.53 366.66 511.86 366.98 511.27 367.13 C 511.27 367.13 510.68 367.29 510.13 367.29 C 510.13 367.29 509.18 367.29 508.65 366.92 C 508.65 366.92 508.14 366.55 508.14 365.87 C 508.14 365.87 508.14 365.29 508.48 365 C 508.48 365 508.83 364.71 509.79 364.53 L 510.49 364.38 C 510.49 364.38 511.8 364.14 512.42 363.51 C 512.42 363.51 513.05 362.88 513.05 361.83 C 513.05 361.83 513.05 360.57 512.2 359.92 C 512.2 359.92 511.36 359.28 509.74 359.28 C 509.74 359.28 509.12 359.28 508.43 359.41 C 508.43 359.41 507.74 359.55 507 359.82 L 507 361.03 C 507 361.03 507.71 360.63 508.39 360.43 C 508.39 360.43 509.08 360.22 509.74 360.22 C 509.74 360.22 510.74 360.22 511.28 360.62 C 511.28 360.62 511.83 361.01 511.83 361.74 C 511.83 361.74 511.83 362.38 511.43 362.74 C 511.43 362.74 511.04 363.09 510.15 363.27 L 509.44 363.41 C 509.44 363.41 508.13 363.67 507.55 364.23 C 507.55 364.23 506.96 364.78 506.96 365.77 C 506.96 365.77 506.96 366.92 507.77 367.58 C 507.77 367.58 508.58 368.24 510 368.24 C 510 368.24 510.6 368.24 511.24 368.13 C 511.24 368.13 511.87 368.02 512.53 367.8 Z "/>
<path transform="matrix(1,0,0,-1,0,400)" d="M 514.82 365.92 L 515.89 365.92 L 515.89 359.44 L 514.82 359.44 L 514.82 365.92 M 514.82 368.45 L 515.89 368.45 L 515.89 367.1 L 514.82 367.1 L 514.82 368.45 Z "/>
<path transform="matrix(1,0,0,-1,0,400)" d="M 523.16 364.68 C 523.16 364.68 523.56 365.4 524.12 365.74 C 524.12 365.74 524.67 366.08 525.43 366.08 C 525.43 366.08 526.44 366.08 526.99 365.37 C 526.99 365.37 527.54 364.66 527.54 363.35 L 527.54 359.44 L 526.47 359.44 L 526.47 363.32 C 526.47 363.32 526.47 364.25 526.14 364.7 C 526.14 364.7 525.81 365.15 525.13 365.15 C 525.13 365.15 524.3 365.15 523.82 364.6 C 523.82 364.6 523.34 364.06 523.34 363.11 L 523.34 359.44 L 522.27 359.44 L 522.27 363.32 C 522.27 363.32 522.27 364.26 521.94 364.7 C 521.94 364.7 521.61 365.15 520.92 365.15 C 520.92 365.15 520.11 365.15 519.63 364.6 C 519.63 364.6 519.15 364.05 519.15 363.11 L 519.15 359.44 L 518.08 359.44 L 518.08 365.92 L 519.15 365.92 L 519.15 364.92 C 519.15 364.92 519.51 365.51 520.02 365.8 C 520.02 365.8 520.53 366.08 521.23 366.08 C 521.23 366.08 521.94 366.08 522.43 365.72 C 522.43 365.72 522.93 365.36 523.16 364.68 Z "/>
<path transform="matrix(1,0,0,-1,0,400)" d="M 529.55 362 L 529.55 365.92 L 530.62 365.92 L 530.62 362.04 C 530.62 362.04 530.62 361.12 530.97 360.66 C 530.97 360.66 531.33 360.2 532.05 360.2 C 532.05 360.2 532.91 360.2 533.41 360.75 C 533.41 360.75 533.91 361.3 533.91 362.25 L 533.91 365.92 L 534.98 365.92 L 534.98 359.44 L 533.91 359.44 L 533.91 360.44 C 533.91 360.44 533.53 359.85 533.01 359.56 C 533.01 359.56 532.5 359.28 531.83 359.28 C 531.83 359.28 530.71 359.28 530.13 359.97 C 530.13 359.97 529.55 360.66 529.55 362 M 532.23 366.08 L 532.23 366.08 Z "/>
<path transform="matrix(1,0,0,-1,0,400)" d="M 537.17 368.45 L 538.24 368.45 L 538.24 359.44 L 537.17 359.44 L 537.17 368.45 Z "/>
<path transform="matrix(1,0,0,-1,0,400)" d="M 543.41 362.7 C 543.41 362.7 542.12 362.7 541.62 362.41 C 541.62 362.41 541.13 362.11 541.13 361.4 C 541.13 361.4 541.13 360.83 541.5 360.5 C 541.5 360.5 541.87 360.17 542.51 360.17 C 542.51 360.17 543.4 360.17 543.93 360.79 C 543.93 360.79 544.47 361.42 544.47 362.46 L 544.47 362.7 L 543.41 362.7 M 545.53 363.14 L 545.53 359.44 L 544.47 359.44 L 544.47 360.43 C 544.47 360.43 544.11 359.84 543.56 359.55 C 543.56 359.55 543.02 359.28 542.23 359.28 C 542.23 359.28 541.24 359.28 540.64 359.83 C 540.64 359.83 540.06 360.39 540.06 361.33 C 540.06 361.33 540.06 362.42 540.79 362.98 C 540.79 362.98 541.52 363.53 542.98 363.53 L 544.47 363.53 L 544.47 363.64 C 544.47 363.64 544.47 364.37 543.98 364.77 C 543.98 364.77 543.5 365.18 542.63 365.18 C 542.63 365.18 542.07 365.18 541.55 365.04 C 541.55 365.04 541.02 364.91 540.53 364.65 L 540.53 365.63 C 540.53 365.63 541.12 365.85 541.67 365.96 C 541.67 365.96 542.22 366.08 542.74 366.08 C 542.74 366.08 544.15 366.08 544.84 365.35 C 544.84 365.35 545.53 364.62 545.53 363.14 Z "/>
<path transform="matrix(1,0,0,-1,0,400)" d="M 548.78 367.76 L 548.78 365.92 L 550.97 365.92 L 550.97 365.1 L 548.78 365.1 L 548.78 361.58 C 548.78 361.58 548.78 360.79 549 360.56 C 549 360.56 549.22 360.33 549.88 360.33 L 550.97 360.33 L 550.97 359.44 L 549.88 359.44 C 549.88 359.44 548.65 359.44 548.18 359.9 C 548.18 359.9 547.71 360.36 547.71 361.58 L 547.71 365.1 L 546.93 365.1 L 546.93 365.92 L 547.71 365.92 L 547.71 367.76 L 548.78 367.76 Z "/>
<path transform="matrix(1,0,0,-1,0,400)" d="M 557.92 362.95 L 557.92 362.43 L 553.02 362.43 C 553.02 362.43 553.09 361.33 553.68 360.75 C 553.68 360.75 554.28 360.18 555.34 360.18 C 555.34 360.18 555.95 360.18 556.52 360.33 C 556.52 360.33 557.1 360.48 557.67 360.78 L 557.67 359.77 C 557.67 359.77 557.1 359.53 556.5 359.4 C 556.5 359.4 555.89 359.28 555.27 359.28 C 555.27 359.28 553.72 359.28 552.81 360.18 C 552.81 360.18 551.91 361.08 551.91 362.62 C 551.91 362.62 551.91 364.21 552.77 365.14 C 552.77 365.14 553.63 366.08 555.09 366.08 C 555.09 366.08 556.4 366.08 557.16 365.24 C 557.16 365.24 557.92 364.4 557.92 362.95 M 556.85 363.26 C 556.85 363.26 556.84 364.14 556.36 364.66 C 556.36 364.66 555.89 365.18 555.1 365.18 C 555.1 365.18 554.21 365.18 553.67 364.67 C 553.67 364.67 553.14 364.17 553.06 363.26 L 556.85 363.26 Z "/>
<path transform="matrix(1,0,0,-1,0,400)" d="M 563.93 364.94 L 563.93 368.45 L 565 368.45 L 565 359.44 L 563.93 359.44 L 563.93 360.42 C 563.93 360.42 563.6 359.84 563.08 359.55 C 563.08 359.55 562.57 359.28 561.85 359.28 C 561.85 359.28 560.68 359.28 559.94 360.21 C 559.94 360.21 559.2 361.15 559.2 362.68 C 559.2 362.68 559.2 364.21 559.94 365.14 C 559.94 365.14 560.68 366.08 561.85 366.08 C 561.85 366.08 562.57 366.08 563.08 365.8 C 563.08 365.8 563.6 365.52 563.93 364.94 M 560.3 362.68 C 560.3 362.68 560.3 361.5 560.78 360.83 C 560.78 360.83 561.27 360.17 562.11 360.17 C 562.11 360.17 562.96 360.17 563.45 360.83 C 563.45 360.83 563.93 361.5 563.93 362.68 C 563.93 362.68 563.93 363.85 563.45 364.52 C 563.45 364.52 562.96 365.19 562.11 365.19 C 562.11 365.19 561.27 365.19 560.78 364.52 C 560.78 364.52 560.3 363.85 560.3 362.68 Z "/>
<path transform="matrix(1,0,0,-1,0,400)" d="M 483.77 355.92 C 480.94 355.92 478.65 353.63 478.65 350.8 C 478.65 347.98 480.94 345.68 483.77 345.68 C 486.6 345.68 488.89 347.98 488.89 350.8 C 488.89 353.63 486.6 355.92 483.77 355.92 " fill="#a2a2a2" fill-rule="evenodd"/>
<path transform="matrix(1,0,0,-1,0,400)" d="M 510.92 353.97 L 509.34 349.67 L 512.51 349.67 L 510.92 353.97 M 510.26 355.12 L 511.59 355.12 L 514.88 346.48 L 513.67 346.48 L 512.88 348.7 L 508.98 348.7 L 508.2 346.48 L 506.96 346.48 L 510.26 355.12 Z "/>
<path transform="matrix(1,0,0,-1,0,400)" d="M 520.55 352.72 L 520.55 351.72 C 520.55 351.72 520.1 351.97 519.64 352.09 C 519.64 352.09 519.19 352.22 518.73 352.22 C 518.73 352.22 517.69 352.22 517.12 351.56 C 517.12 351.56 516.55 350.9 516.55 349.72 C 516.55 349.72 516.55 348.53 517.12 347.87 C 517.12 347.87 517.69 347.22 518.73 347.22 C 518.73 347.22 519.19 347.22 519.64 347.34 C 519.64 347.34 520.1 347.47 520.55 347.72 L 520.55 346.73 C 520.55 346.73 520.11 346.52 519.63 346.42 C 519.63 346.42 519.15 346.32 518.61 346.32 C 518.61 346.32 517.15 346.32 516.29 347.24 C 516.29 347.24 515.43 348.16 515.43 349.72 C 515.43 349.72 515.43 351.3 516.29 352.21 C 516.29 352.21 517.17 353.12 518.68 353.12 C 518.68 353.12 519.18 353.12 519.64 353.02 C 519.64 353.02 520.11 352.92 520.55 352.72 Z "/>
<path transform="matrix(1,0,0,-1,0,400)" d="M 523.46 354.8 L 523.46 352.96 L 525.65 352.96 L 525.65 352.14 L 523.46 352.14 L 523.46 348.62 C 523.46 348.62 523.46 347.83 523.67 347.6 C 523.67 347.6 523.89 347.37 524.56 347.37 L 525.65 347.37 L 525.65 346.48 L 524.56 346.48 C 524.56 346.48 523.32 346.48 522.86 346.94 C 522.86 346.94 522.39 347.4 522.39 348.62 L 522.39 352.14 L 521.61 352.14 L 521.61 352.96 L 522.39 352.96 L 522.39 354.8 L 523.46 354.8 Z "/>
<path transform="matrix(1,0,0,-1,0,400)" d="M 526.94 349.04 L 526.94 352.96 L 528.01 352.96 L 528.01 349.08 C 528.01 349.08 528.01 348.16 528.36 347.7 C 528.36 347.7 528.72 347.24 529.44 347.24 C 529.44 347.24 530.3 347.24 530.8 347.79 C 530.8 347.79 531.3 348.34 531.3 349.29 L 531.3 352.96 L 532.37 352.96 L 532.37 346.48 L 531.3 346.48 L 531.3 347.48 C 531.3 347.48 530.92 346.89 530.4 346.6 C 530.4 346.6 529.89 346.32 529.22 346.32 C 529.22 346.32 528.1 346.32 527.52 347.01 C 527.52 347.01 526.94 347.7 526.94 349.04 M 529.62 353.12 L 529.62 353.12 Z "/>
<path transform="matrix(1,0,0,-1,0,400)" d="M 537.51 349.74 C 537.51 349.74 536.22 349.74 535.72 349.45 C 535.72 349.45 535.22 349.15 535.22 348.44 C 535.22 348.44 535.22 347.87 535.59 347.54 C 535.59 347.54 535.97 347.21 536.61 347.21 C 536.61 347.21 537.5 347.21 538.03 347.83 C 538.03 347.83 538.57 348.46 538.57 349.5 L 538.57 349.74 L 537.51 349.74 M 539.63 350.18 L 539.63 346.48 L 538.57 346.48 L 538.57 347.47 C 538.57 347.47 538.2 346.88 537.66 346.59 C 537.66 346.59 537.11 346.32 536.33 346.32 C 536.33 346.32 535.33 346.32 534.74 346.87 C 534.74 346.87 534.16 347.43 534.16 348.37 C 534.16 348.37 534.16 349.46 534.89 350.02 C 534.89 350.02 535.62 350.57 537.07 350.57 L 538.57 350.57 L 538.57 350.68 C 538.57 350.68 538.57 351.41 538.08 351.81 C 538.08 351.81 537.6 352.22 536.73 352.22 C 536.73 352.22 536.17 352.22 535.64 352.08 C 535.64 352.08 535.12 351.95 534.63 351.69 L 534.63 352.67 C 534.63 352.67 535.22 352.89 535.77 353 C 535.77 353 536.32 353.12 536.84 353.12 C 536.84 353.12 538.24 353.12 538.94 352.39 C 538.94 352.39 539.63 351.66 539.63 350.18 Z "/>
<path transform="matrix(1,0,0,-1,0,400)" d="M 541.83 355.49 L 542.89 355.49 L 542.89 346.48 L 541.83 346.48 L 541.83 355.49 Z "/>
</g>
</g>
</svg>
