<svg xmlns="http://www.w3.org/2000/svg" xmlns:xlink="http://www.w3.org/1999/xlink" version="1.1" width="600pt" height="400pt" viewBox="0 0 600 400">
<defs>
<clipPath id="clip_0">
<path transform="matrix(1,0,0,-1,0,400)" d="M0 0H600V400H0Z"/>
</clipPath>
<clipPath id="clip_1">
<path transform="matrix(1,0,0,-1,0,400)" d="M0 0H600V600H0Z"/>
</clipPath>
<clipPath id="clip_2">
<path transform="matrix(1,0,0,-1,0,400)" d="M0 0H600V600H0Z"/>
</clipPath>
<clipPath id="clip_3">
<path transform="matrix(1,0,0,-1,0,400)" d="M58.82 44.21H588.19V388.19H58.82Z"/>
</clipPath>
<clipPath id="clip_4">
<path transform="matrix(1,0,0,-1,0,400)" d="M58.82 44.21H588.19V388.19H58.82Z"/>
</clipPath>
<clipPath id="clip_5">
<path transform="matrix(1,0,0,-1,0,400)" d="M58.82 44.21H588.19V388.19H58.82Z"/>
</clipPath>
<clipPath id="clip_6">
<path transform="matrix(1,0,0,-1,0,400)" d="M58.82 44.21H588.19V388.19H58.82Z"/>
</clipPath>
<clipPath id="clip_7">
<path transform="matrix(1,0,0,-1,0,400)" d="M58.82 44.21H588.19V388.19H58.82Z"/>
</clipPath>
<clipPath id="clip_8">
<path transform="matrix(1,0,0,-1,0,400)" d="M58.82 44.21H588.19V388.19H58.82Z"/>
</clipPath>
<clipPath id="clip_9">
<path transform="matrix(1,0,0,-1,0,400)" d="M58.82 44.21H588.19V388.19H58.82Z"/>
</clipPath>
<clipPath id="clip_10">
<path transform="matrix(1,0,0,-1,0,400)" d="M58.82 44.21H588.19V388.19H58.82Z"/>
</clipPath>
<clipPath id="clip_11">
<path transform="matrix(1,0,0,-1,0,400)" d="M58.82 44.21H588.19V388.19H58.82Z"/>
</clipPath>
<clipPath id="clip_12">
<path transform="matrix(1,0,0,-1,0,400)" d="M58.82 44.21H588.19V388.19H58.82Z"/>
</clipPath>
<clipPath id="clip_13">
<path transform="matrix(1,0,0,-1,0,400)" d="M58.82 44.21H588.19V388.19H58.82Z"/>
</clipPath>
<clipPath id="clip_14">
<path transform="matrix(1,0,0,-1,0,400)" d="M58.82 44.21H588.19V388.19H58.82Z"/>
</clipPath>
<clipPath id="clip_15">
<path transform="matrix(1,0,0,-1,0,400)" d="M58.82 44.21H588.19V388.19H58.82Z"/>
</clipPath>
<clipPath id="clip_16">
<path transform="matrix(1,0,0,-1,0,400)" d="M58.82 44.21H588.19V388.19H58.82Z"/>
</clipPath>
<clipPath id="clip_17">
<path transform="matrix(1,0,0,-1,0,400)" d="M58.82 44.21H588.19V388.19H58.82Z"/>
</clipPath>
<clipPath id="clip_18">
<path transform="matrix(1,0,0,-1,0,400)" d="M58.82 44.21H588.19V388.19H58.82Z"/>
</clipPath>
<clipPath id="clip_19">
<path transform="matrix(1,0,0,-1,0,400)" d="M58.82 44.21H588.19V388.19H58.82Z"/>
</clipPath>
<clipPath id="clip_20">
<path transform="matrix(1,0,0,-1,0,400)" d="M58.82 44.21H588.19V388.19H58.82Z"/>
</clipPath>
<clipPath id="clip_21">
<path transform="matrix(1,0,0,-1,0,400)" d="M58.82 44.21H588.19V388.19H58.82Z"/>
</clipPath>
<clipPath id="clip_22">
<path transform="matrix(1,0,0,-1,0,400)" d="M58.82 44.21H588.19V388.19H58.82Z"/>
</clipPath>
<clipPath id="clip_23">
<path transform="matrix(1,0,0,-1,0,400)" d="M0 0H600V600H0Z"/>
</clipPath>
</defs>
<g clip-path="url(#clip_0)">
<g clip-path="url(#clip_1)">
<path transform="matrix(1,0,0,-1,0,400)" d="M0 0H600V400H0" fill="#ffffff" fill-rule="evenodd"/>
</g>
<g clip-path="url(#clip_2)">
<path transform="matrix(1,0,0,-1,0,400)" d="M58.82 44.21H588.19V388.19H58.82" fill="#ffffff" fill-rule="evenodd"/>
</g>
<path transform="matrix(1,0,0,-1,0,400)" stroke-width="1" stroke-linecap="round" stroke-linejoin="round" fill="none" stroke="#000000" d="M58.82 44.21H588.19"/>
<path transform="matrix(1,0,0,-1,0,400)" stroke-width="1" stroke-linecap="round" stroke-linejoin="round" fill="none" stroke="#000000" d="M106.95 44.21V48.93"/>
<path transform="matrix(1,0,0,-1,0,400)" stroke-width="1" stroke-linecap="round" stroke-linejoin="round" fill="none" stroke="#000000" d="M155.07 44.21V48.93"/>
<path transform="matrix(1,0,0,-1,0,400)" stroke-width="1" stroke-linecap="round" stroke-linejoin="round" fill="none" stroke="#000000" d="M203.19 44.21V48.93"/>
<path transform="matrix(1,0,0,-1,0,400)" stroke-width="1" stroke-linecap="round" stroke-linejoin="round" fill="none" stroke="#000000" d="M251.32 44.21V48.93"/>
<path transform="matrix(1,0,0,-1,0,400)" stroke-width="1" stroke-linecap="round" stroke-linejoin="round" fill="none" stroke="#000000" d="M299.44 44.21V48.93"/>
<path transform="matrix(1,0,0,-1,0,400)" stroke-width="1" stroke-linecap="round" stroke-linejoin="round" fill="none" stroke="#000000" d="M347.57 44.21V48.93"/>
<path transform="matrix(1,0,0,-1,0,400)" stroke-width="1" stroke-linecap="round" stroke-linejoin="round" fill="none" stroke="#000000" d="M395.69 44.21V48.93"/>
<path transform="matrix(1,0,0,-1,0,400)" stroke-width="1" stroke-linecap="round" stroke-linejoin="round" fill="none" stroke="#000000" d="M443.82 44.21V48.93"/>
<path transform="matrix(1,0,0,-1,0,400)" stroke-width="1" stroke-linecap="round" stroke-linejoin="round" fill="none" stroke="#000000" d="M491.94 44.21V48.93"/>
<path transform="matrix(1,0,0,-1,0,400)" stroke-width="1" stroke-linecap="round" stroke-linejoin="round" fill="none" stroke="#000000" d="M540.06 44.21V48.93"/>
<path transform="matrix(1,0,0,-1,0,400)" d="M104.54 29.59H106.45V36.18L104.37 35.76V36.83L106.44 37.25H107.61V29.59H109.52V28.61H104.54V29.59Z"/>
<path transform="matrix(1,0,0,-1,0,400)" d="M153.73 29.59H157.81V28.61H152.33V29.59C152.33 29.59 152.99 30.28 154.14 31.43 154.14 31.43 155.29 32.6 155.58 32.93 155.58 32.93 156.15 33.56 156.37 34 156.37 34 156.59 34.44 156.59 34.86 156.59 34.86 156.59 35.55 156.11 35.98 156.11 35.98 155.63 36.42 154.85 36.42 154.85 36.42 154.3 36.42 153.69 36.23 153.69 36.23 153.08 36.04 152.38 35.65V36.83C152.38 36.83 153.09 37.11 153.7 37.26 153.7 37.26 154.32 37.4 154.83 37.4 154.83 37.4 156.17 37.4 156.97 36.73 156.97 36.73 157.77 36.06 157.77 34.94 157.77 34.94 157.77 34.4 157.56 33.92 157.56 33.92 157.37 33.45 156.84 32.8 156.84 32.8 156.7 32.63 155.92 31.83 155.92 31.83 155.14 31.03 153.73 29.59Z"/>
<path transform="matrix(1,0,0,-1,0,400)" d="M204.26 33.26C204.26 33.26 205.09 33.08 205.56 32.52 205.56 32.52 206.04 31.95 206.04 31.12 206.04 31.12 206.04 29.84 205.16 29.14 205.16 29.14 204.28 28.44 202.66 28.44 202.66 28.44 202.11 28.44 201.54 28.55 201.54 28.55 200.96 28.65 200.35 28.87V29.99C200.35 29.99 200.84 29.71 201.41 29.57 201.41 29.57 201.99 29.42 202.62 29.42 202.62 29.42 203.72 29.42 204.3 29.86 204.3 29.86 204.88 30.29 204.88 31.12 204.88 31.12 204.88 31.88 204.34 32.31 204.34 32.31 203.8 32.74 202.85 32.74H201.84V33.7H202.9C202.9 33.7 203.76 33.7 204.22 34.04 204.22 34.04 204.67 34.39 204.67 35.04 204.67 35.04 204.67 35.71 204.2 36.06 204.2 36.06 203.73 36.42 202.85 36.42 202.85 36.42 202.37 36.42 201.82 36.31 201.82 36.31 201.27 36.21 200.61 35.99V37.03C200.61 37.03 201.28 37.22 201.85 37.31 201.85 37.31 202.44 37.4 202.95 37.4 202.95 37.4 204.28 37.4 205.06 36.79 205.06 36.79 205.84 36.19 205.84 35.16 205.84 35.16 205.84 34.44 205.42 33.95 205.42 33.95 205.01 33.45 204.26 33.26Z"/>
<path transform="matrix(1,0,0,-1,0,400)" d="M252.07 36.23 249.12 31.61H252.07V36.23M251.76 37.25H253.23V31.61H254.47V30.64H253.23V28.61H252.07V30.64H248.17V31.77L251.76 37.25Z"/>
<path transform="matrix(1,0,0,-1,0,400)" d="M297.01 37.25H301.6V36.26H298.08V34.14C298.08 34.14 298.34 34.23 298.59 34.27 298.59 34.27 298.85 34.32 299.1 34.32 299.1 34.32 300.55 34.32 301.39 33.52 301.39 33.52 302.24 32.73 302.24 31.38 302.24 31.38 302.24 29.98 301.37 29.21 301.37 29.21 300.5 28.44 298.92 28.44 298.92 28.44 298.38 28.44 297.81 28.53 297.81 28.53 297.25 28.62 296.65 28.81V29.98C296.65 29.98 297.17 29.7 297.72 29.56 297.72 29.56 298.28 29.42 298.9 29.42 298.9 29.42 299.9 29.42 300.48 29.95 300.48 29.95 301.07 30.47 301.07 31.38 301.07 31.38 301.07 32.28 300.48 32.81 300.48 32.81 299.9 33.33 298.9 33.33 298.9 33.33 298.43 33.33 297.96 33.23 297.96 33.23 297.5 33.12 297.01 32.9V37.25Z"/>
<path transform="matrix(1,0,0,-1,0,400)" d="M347.67 33.39C347.67 33.39 346.88 33.39 346.42 32.85 346.42 32.85 345.96 32.31 345.96 31.38 345.96 31.38 345.96 30.45 346.42 29.9 346.42 29.9 346.88 29.36 347.67 29.36 347.67 29.36 348.46 29.36 348.91 29.9 348.91 29.9 349.38 30.45 349.38 31.38 349.38 31.38 349.38 32.31 348.91 32.85 348.91 32.85 348.46 33.39 347.67 33.39M349.99 37.05V35.99C349.99 35.99 349.55 36.2 349.1 36.31 349.1 36.31 348.65 36.42 348.21 36.42 348.21 36.42 347.05 36.42 346.44 35.64 346.44 35.64 345.83 34.86 345.75 33.28 345.75 33.28 346.09 33.78 346.6 34.04 346.6 34.04 347.12 34.32 347.74 34.32 347.74 34.32 349.04 34.32 349.79 33.52 349.79 33.52 350.55 32.74 350.55 31.38 350.55 31.38 350.55 30.05 349.76 29.24 349.76 29.24 348.98 28.44 347.67 28.44 347.67 28.44 346.17 28.44 345.38 29.58 345.38 29.58 344.58 30.73 344.58 32.92 344.58 32.92 344.58 34.96 345.56 36.18 345.56 36.18 346.53 37.4 348.17 37.4 348.17 37.4 348.61 37.4 349.05 37.31 349.05 37.31 349.5 37.23 349.99 37.05Z"/>
<path transform="matrix(1,0,0,-1,0,400)" d="M392.91 37.25H398.47V36.75L395.33 28.61H394.11L397.06 36.26H392.91V37.25Z"/>
<path transform="matrix(1,0,0,-1,0,400)" d="M443.82 32.71C443.82 32.71 442.98 32.71 442.5 32.26 442.5 32.26 442.03 31.82 442.03 31.04 442.03 31.04 442.03 30.25 442.5 29.81 442.5 29.81 442.98 29.36 443.82 29.36 443.82 29.36 444.65 29.36 445.13 29.81 445.13 29.81 445.61 30.26 445.61 31.04 445.61 31.04 445.61 31.82 445.13 32.26 445.13 32.26 444.65 32.71 443.82 32.71M442.65 33.21C442.65 33.21 441.89 33.39 441.47 33.91 441.47 33.91 441.06 34.42 441.06 35.16 441.06 35.16 441.06 36.2 441.79 36.8 441.79 36.8 442.53 37.4 443.82 37.4 443.82 37.4 445.11 37.4 445.84 36.8 445.84 36.8 446.58 36.2 446.58 35.16 446.58 35.16 446.58 34.42 446.15 33.91 446.15 33.91 445.74 33.39 444.99 33.21 444.99 33.21 445.84 33.01 446.3 32.44 446.3 32.44 446.78 31.86 446.78 31.04 446.78 31.04 446.78 29.78 446.01 29.11 446.01 29.11 445.25 28.44 443.82 28.44 443.82 28.44 442.39 28.44 441.62 29.11 441.62 29.11 440.85 29.78 440.85 31.04 440.85 31.04 440.85 31.86 441.33 32.44 441.33 32.44 441.8 33.01 442.65 33.21M442.22 35.05C442.22 35.05 442.22 34.38 442.64 34 442.64 34 443.06 33.63 443.82 33.63 443.82 33.63 444.57 33.63 444.99 34 444.99 34 445.42 34.38 445.42 35.05 445.42 35.05 445.42 35.72 444.99 36.1 444.99 36.1 444.57 36.48 443.82 36.48 443.82 36.48 443.06 36.48 442.64 36.1 442.64 36.1 442.22 35.72 442.22 35.05Z"/>
<path transform="matrix(1,0,0,-1,0,400)" d="M489.52 28.78V29.85C489.52 29.85 489.96 29.64 490.41 29.53 490.41 29.53 490.86 29.42 491.29 29.42 491.29 29.42 492.45 29.42 493.06 30.2 493.06 30.2 493.67 30.98 493.76 32.56 493.76 32.56 493.42 32.07 492.91 31.8 492.91 31.8 492.39 31.53 491.77 31.53 491.77 31.53 490.47 31.53 489.71 32.31 489.71 32.31 488.96 33.1 488.96 34.46 488.96 34.46 488.96 35.79 489.75 36.6 489.75 36.6 490.53 37.4 491.84 37.4 491.84 37.4 493.34 37.4 494.13 36.25 494.13 36.25 494.92 35.1 494.92 32.92 494.92 32.92 494.92 30.87 493.95 29.65 493.95 29.65 492.98 28.44 491.34 28.44 491.34 28.44 490.9 28.44 490.45 28.52 490.45 28.52 490 28.61 489.52 28.78M491.84 32.45C491.84 32.45 492.63 32.45 493.09 32.99 493.09 32.99 493.55 33.52 493.55 34.46 493.55 34.46 493.55 35.39 493.09 35.93 493.09 35.93 492.63 36.48 491.84 36.48 491.84 36.48 491.05 36.48 490.59 35.93 490.59 35.93 490.13 35.39 490.13 34.46 490.13 34.46 490.13 33.52 490.59 32.99 490.59 32.99 491.05 32.45 491.84 32.45Z"/>
<path transform="matrix(1,0,0,-1,0,400)" d="M533.74 29.59H535.65V36.18L533.57 35.76V36.83L535.63 37.25H536.8V29.59H538.71V28.61H533.74V29.59Z"/>
<path transform="matrix(1,0,0,-1,0,400)" d="M543.57 36.48C543.57 36.48 542.67 36.48 542.21 35.58 542.21 35.58 541.76 34.7 541.76 32.92 541.76 32.92 541.76 31.14 542.21 30.25 542.21 30.25 542.67 29.36 543.57 29.36 543.57 29.36 544.48 29.36 544.93 30.25 544.93 30.25 545.39 31.14 545.39 32.92 545.39 32.92 545.39 34.7 544.93 35.58 544.93 35.58 544.48 36.48 543.57 36.48M543.57 37.4C543.57 37.4 545.03 37.4 545.79 36.25 545.79 36.25 546.56 35.1 546.56 32.92 546.56 32.92 546.56 30.73 545.79 29.58 545.79 29.58 545.03 28.44 543.57 28.44 543.57 28.44 542.12 28.44 541.35 29.58 541.35 29.58 540.59 30.73 540.59 32.92 540.59 32.92 540.59 35.1 541.35 36.25 541.35 36.25 542.12 37.4 543.57 37.4Z"/>
<path transform="matrix(1,0,0,-1,0,400)" d="M272.79 18.55V14.08H274.81C274.81 14.08 275.93 14.08 276.54 14.67 276.54 14.67 277.15 15.25 277.15 16.32 277.15 16.32 277.15 17.39 276.54 17.97 276.54 17.97 275.93 18.55 274.81 18.55H272.79M271.18 19.87H274.81C274.81 19.87 276.8 19.87 277.82 18.96 277.82 18.96 278.85 18.06 278.85 16.32 278.85 16.32 278.85 14.56 277.82 13.66 277.82 13.66 276.8 12.76 274.81 12.76H272.79V7.99H271.18V19.87Z"/>
<path transform="matrix(1,0,0,-1,0,400)" d="M284.26 12.47C284.26 12.47 282.49 12.47 281.8 12.06 281.8 12.06 281.12 11.66 281.12 10.68 281.12 10.68 281.12 9.9 281.63 9.44 281.63 9.44 282.14 8.98 283.03 8.98 283.03 8.98 284.24 8.98 284.98 9.84 284.98 9.84 285.72 10.71 285.72 12.14V12.47H284.26M287.18 13.07V7.99H285.72V9.34C285.72 9.34 285.22 8.53 284.47 8.14 284.47 8.14 283.72 7.76 282.64 7.76 282.64 7.76 281.27 7.76 280.46 8.52 280.46 8.52 279.65 9.29 279.65 10.58 279.65 10.58 279.65 12.09 280.66 12.85 280.66 12.85 281.67 13.61 283.66 13.61H285.72V13.76C285.72 13.76 285.72 14.77 285.05 15.32 285.05 15.32 284.39 15.87 283.19 15.87 283.19 15.87 282.42 15.87 281.7 15.69 281.7 15.69 280.97 15.51 280.31 15.14V16.5C280.31 16.5 281.11 16.81 281.87 16.96 281.87 16.96 282.62 17.12 283.34 17.12 283.34 17.12 285.27 17.12 286.23 16.11 286.23 16.11 287.18 15.11 287.18 13.07Z"/>
<path transform="matrix(1,0,0,-1,0,400)" d="M291.64 19.43V16.9H294.66V15.76H291.64V10.93C291.64 10.93 291.64 9.84 291.94 9.52 291.94 9.52 292.24 9.21 293.16 9.21H294.66V7.99H293.16C293.16 7.99 291.46 7.99 290.82 8.62 290.82 8.62 290.17 9.25 290.17 10.93V15.76H289.1V16.9H290.17V19.43H291.64Z"/>
<path transform="matrix(1,0,0,-1,0,400)" d="M296.59 16.9H298.05V7.99H296.59V16.9M296.59 20.37H298.05V18.52H296.59V20.37Z"/>
<path transform="matrix(1,0,0,-1,0,400)" d="M308.74 12.81V12.09H302C302 12.09 302.1 10.58 302.91 9.79 302.91 9.79 303.73 9 305.19 9 305.19 9 306.03 9 306.82 9.21 306.82 9.21 307.61 9.41 308.39 9.83V8.44C308.39 8.44 307.61 8.11 306.78 7.93 306.78 7.93 305.95 7.76 305.1 7.76 305.1 7.76 302.97 7.76 301.72 9 301.72 9 300.48 10.24 300.48 12.36 300.48 12.36 300.48 14.55 301.65 15.83 301.65 15.83 302.84 17.12 304.85 17.12 304.85 17.12 306.64 17.12 307.69 15.95 307.69 15.95 308.74 14.8 308.74 12.81M307.27 13.24C307.27 13.24 307.26 14.44 306.6 15.16 306.6 15.16 305.94 15.87 304.86 15.87 304.86 15.87 303.64 15.87 302.9 15.18 302.9 15.18 302.16 14.49 302.05 13.23L307.27 13.24Z"/>
<path transform="matrix(1,0,0,-1,0,400)" d="M318.55 13.37V7.99H317.08V13.32C317.08 13.32 317.08 14.59 316.59 15.21 316.59 15.21 316.1 15.84 315.11 15.84 315.11 15.84 313.92 15.84 313.24 15.09 313.24 15.09 312.56 14.33 312.56 13.03V7.99H311.08V16.9H312.56V15.52C312.56 15.52 313.08 16.32 313.79 16.72 313.79 16.72 314.51 17.12 315.44 17.12 315.44 17.12 316.97 17.12 317.76 16.16 317.76 16.16 318.55 15.21 318.55 13.37Z"/>
<path transform="matrix(1,0,0,-1,0,400)" d="M322.92 19.43V16.9H325.93V15.76H322.92V10.93C322.92 10.93 322.92 9.84 323.21 9.52 323.21 9.52 323.51 9.21 324.43 9.21H325.93V7.99H324.43C324.43 7.99 322.73 7.99 322.09 8.62 322.09 8.62 321.44 9.25 321.44 10.93V15.76H320.37V16.9H321.44V19.43H322.92Z"/>
<path transform="matrix(1,0,0,-1,0,400)" d="M333.1 19.87H334.71V7.99H333.1V19.87Z"/>
<path transform="matrix(1,0,0,-1,0,400)" d="M345.25 13.37V7.99H343.79V13.32C343.79 13.32 343.79 14.59 343.29 15.21 343.29 15.21 342.8 15.84 341.81 15.84 341.81 15.84 340.63 15.84 339.94 15.09 339.94 15.09 339.26 14.33 339.26 13.03V7.99H337.79V16.9H339.26V15.52C339.26 15.52 339.79 16.32 340.49 16.72 340.49 16.72 341.21 17.12 342.14 17.12 342.14 17.12 343.68 17.12 344.46 16.16 344.46 16.16 345.25 15.21 345.25 13.37Z"/>
<path transform="matrix(1,0,0,-1,0,400)" d="M354.04 15.55V20.37H355.5V7.99H354.04V9.33C354.04 9.33 353.57 8.53 352.87 8.14 352.87 8.14 352.17 7.76 351.18 7.76 351.18 7.76 349.56 7.76 348.55 9.05 348.55 9.05 347.54 10.34 347.54 12.44 347.54 12.44 347.54 14.54 348.55 15.83 348.55 15.83 349.56 17.12 351.18 17.12 351.18 17.12 352.17 17.12 352.87 16.73 352.87 16.73 353.57 16.34 354.04 15.55M349.05 12.44C349.05 12.44 349.05 10.82 349.71 9.9 349.71 9.9 350.38 8.98 351.54 8.98 351.54 8.98 352.7 8.98 353.37 9.9 353.37 9.9 354.04 10.82 354.04 12.44 354.04 12.44 354.04 14.05 353.37 14.97 353.37 14.97 352.7 15.89 351.54 15.89 351.54 15.89 350.38 15.89 349.71 14.97 349.71 14.97 349.05 14.05 349.05 12.44Z"/>
<path transform="matrix(1,0,0,-1,0,400)" d="M366.14 12.81V12.09H359.41C359.41 12.09 359.5 10.58 360.31 9.79 360.31 9.79 361.13 9 362.59 9 362.59 9 363.43 9 364.22 9.21 364.22 9.21 365.02 9.41 365.8 9.83V8.44C365.8 8.44 365.01 8.11 364.18 7.93 364.18 7.93 363.35 7.76 362.5 7.76 362.5 7.76 360.37 7.76 359.12 9 359.12 9 357.88 10.24 357.88 12.36 357.88 12.36 357.88 14.55 359.06 15.83 359.06 15.83 360.24 17.12 362.25 17.12 362.25 17.12 364.05 17.12 365.09 15.95 365.09 15.95 366.14 14.8 366.14 12.81M364.68 13.24C364.68 13.24 364.66 14.44 364 15.16 364 15.16 363.35 15.87 362.26 15.87 362.26 15.87 361.04 15.87 360.3 15.18 360.3 15.18 359.57 14.49 359.46 13.23L364.68 13.24Z"/>
<path transform="matrix(1,0,0,-1,0,400)" d="M375.66 16.9 372.44 12.56 375.83 7.99H374.1L371.51 11.49 368.92 7.99H367.19L370.65 12.65 367.48 16.9H369.21L371.57 13.73 373.94 16.9H375.66Z"/>
<path transform="matrix(1,0,0,-1,0,400)" stroke-width="1" stroke-linecap="round" stroke-linejoin="round" fill="none" stroke="#000000" d="M58.82 44.21V388.19"/>
<path transform="matrix(1,0,0,-1,0,400)" stroke-width="1" stroke-linecap="round" stroke-linejoin="round" fill="none" stroke="#000000" d="M58.82 44.21H63.55"/>
<path transform="matrix(1,0,0,-1,0,400)" stroke-width="1" stroke-linecap="round" stroke-linejoin="round" fill="none" stroke="#000000" d="M58.82 113H63.55"/>
<path transform="matrix(1,0,0,-1,0,400)" stroke-width="1" stroke-linecap="round" stroke-linejoin="round" fill="none" stroke="#000000" d="M58.82 181.8H63.55"/>
<path transform="matrix(1,0,0,-1,0,400)" stroke-width="1" stroke-linecap="round" stroke-linejoin="round" fill="none" stroke="#000000" d="M58.82 250.6H63.55"/>
<path transform="matrix(1,0,0,-1,0,400)" stroke-width="1" stroke-linecap="round" stroke-linejoin="round" fill="none" stroke="#000000" d="M58.82 319.39H63.55"/>
<path transform="matrix(1,0,0,-1,0,400)" stroke-width="1" stroke-linecap="round" stroke-linejoin="round" fill="none" stroke="#000000" d="M58.82 388.19H63.55"/>
<path transform="matrix(1,0,0,-1,0,400)" d="M46.83 47.76C46.83 47.76 45.93 47.76 45.47 46.86 45.47 46.86 45.02 45.98 45.02 44.2 45.02 44.2 45.02 42.42 45.47 41.53 45.47 41.53 45.93 40.64 46.83 40.64 46.83 40.64 47.74 40.64 48.19 41.53 48.19 41.53 48.65 42.42 48.65 44.2 48.65 44.2 48.65 45.98 48.19 46.86 48.19 46.86 47.74 47.76 46.83 47.76M46.83 48.68C46.83 48.68 48.29 48.68 49.05 47.53 49.05 47.53 49.82 46.38 49.82 44.2 49.82 44.2 49.82 42.01 49.05 40.86 49.05 40.86 48.29 39.72 46.83 39.72 46.83 39.72 45.38 39.72 44.61 40.86 44.61 40.86 43.85 42.01 43.85 44.2 43.85 44.2 43.85 46.38 44.61 47.53 44.61 47.53 45.38 48.68 46.83 48.68Z"/>
<path transform="matrix(1,0,0,-1,0,400)" d="M29.46 109.67H31.37V116.26L29.29 115.84V116.91L31.35 117.32H32.52V109.67H34.43V108.68H29.46V109.67Z"/>
<path transform="matrix(1,0,0,-1,0,400)" d="M39.29 116.55C39.29 116.55 38.39 116.55 37.93 115.66 37.93 115.66 37.48 114.78 37.48 112.99 37.48 112.99 37.48 111.22 37.93 110.33 37.93 110.33 38.39 109.44 39.29 109.44 39.29 109.44 40.2 109.44 40.65 110.33 40.65 110.33 41.11 111.22 41.11 112.99 41.11 112.99 41.11 114.78 40.65 115.66 40.65 115.66 40.2 116.55 39.29 116.55M39.29 117.48C39.29 117.48 40.75 117.48 41.51 116.33 41.51 116.33 42.28 115.18 42.28 112.99 42.28 112.99 42.28 110.81 41.51 109.66 41.51 109.66 40.75 108.51 39.29 108.51 39.29 108.51 37.84 108.51 37.07 109.66 37.07 109.66 36.31 110.81 36.31 112.99 36.31 112.99 36.31 115.18 37.07 116.33 37.07 116.33 37.84 117.48 39.29 117.48Z"/>
<path transform="matrix(1,0,0,-1,0,400)" d="M46.83 116.55C46.83 116.55 45.93 116.55 45.47 115.66 45.47 115.66 45.02 114.78 45.02 112.99 45.02 112.99 45.02 111.22 45.47 110.33 45.47 110.33 45.93 109.44 46.83 109.44 46.83 109.44 47.74 109.44 48.19 110.33 48.19 110.33 48.65 111.22 48.65 112.99 48.65 112.99 48.65 114.78 48.19 115.66 48.19 115.66 47.74 116.55 46.83 116.55M46.83 117.48C46.83 117.48 48.29 117.48 49.05 116.33 49.05 116.33 49.82 115.18 49.82 112.99 49.82 112.99 49.82 110.81 49.05 109.66 49.05 109.66 48.29 108.51 46.83 108.51 46.83 108.51 45.38 108.51 44.61 109.66 44.61 109.66 43.85 110.81 43.85 112.99 43.85 112.99 43.85 115.18 44.61 116.33 44.61 116.33 45.38 117.48 46.83 117.48Z"/>
<path transform="matrix(1,0,0,-1,0,400)" d="M30.26 178.46H34.34V177.48H28.85V178.46C28.85 178.46 29.52 179.15 30.67 180.31 30.67 180.31 31.82 181.47 32.11 181.81 32.11 181.81 32.67 182.44 32.89 182.87 32.89 182.87 33.12 183.31 33.12 183.73 33.12 183.73 33.12 184.42 32.63 184.86 32.63 184.86 32.15 185.29 31.38 185.29 31.38 185.29 30.83 185.29 30.21 185.1 30.21 185.1 29.61 184.91 28.91 184.52V185.7C28.91 185.7 29.62 185.99 30.23 186.13 30.23 186.13 30.85 186.27 31.35 186.27 31.35 186.27 32.7 186.27 33.5 185.6 33.5 185.6 34.29 184.93 34.29 183.81 34.29 183.81 34.29 183.28 34.09 182.8 34.09 182.8 33.89 182.32 33.37 181.67 33.37 181.67 33.22 181.51 32.45 180.7 32.45 180.7 31.67 179.9 30.26 178.46Z"/>
<path transform="matrix(1,0,0,-1,0,400)" d="M39.29 185.35C39.29 185.35 38.39 185.35 37.93 184.46 37.93 184.46 37.48 183.57 37.48 181.79 37.48 181.79 37.48 180.01 37.93 179.12 37.93 179.12 38.39 178.24 39.29 178.24 39.29 178.24 40.2 178.24 40.65 179.12 40.65 179.12 41.11 180.01 41.11 181.79 41.11 181.79 41.11 183.57 40.65 184.46 40.65 184.46 40.2 185.35 39.29 185.35M39.29 186.27C39.29 186.27 40.75 186.27 41.51 185.12 41.51 185.12 42.28 183.98 42.28 181.79 42.28 181.79 42.28 179.61 41.51 178.46 41.51 178.46 40.75 177.31 39.29 177.31 39.29 177.31 37.84 177.31 37.07 178.46 37.07 178.46 36.31 179.61 36.31 181.79 36.31 181.79 36.31 183.98 37.07 185.12 37.07 185.12 37.84 186.27 39.29 186.27Z"/>
<path transform="matrix(1,0,0,-1,0,400)" d="M46.83 185.35C46.83 185.35 45.93 185.35 45.47 184.46 45.47 184.46 45.02 183.57 45.02 181.79 45.02 181.79 45.02 180.01 45.47 179.12 45.47 179.12 45.93 178.24 46.83 178.24 46.83 178.24 47.74 178.24 48.19 179.12 48.19 179.12 48.65 180.01 48.65 181.79 48.65 181.79 48.65 183.57 48.19 184.46 48.19 184.46 47.74 185.35 46.83 185.35M46.83 186.27C46.83 186.27 48.29 186.27 49.05 185.12 49.05 185.12 49.82 183.98 49.82 181.79 49.82 181.79 49.82 179.61 49.05 178.46 49.05 178.46 48.29 177.31 46.83 177.31 46.83 177.31 45.38 177.31 44.61 178.46 44.61 178.46 43.85 179.61 43.85 181.79 43.85 181.79 43.85 183.98 44.61 185.12 44.61 185.12 45.38 186.27 46.83 186.27Z"/>
<path transform="matrix(1,0,0,-1,0,400)" d="M32.8 250.93C32.8 250.93 33.63 250.75 34.1 250.19 34.1 250.19 34.58 249.62 34.58 248.79 34.58 248.79 34.58 247.51 33.7 246.81 33.7 246.81 32.82 246.11 31.2 246.11 31.2 246.11 30.65 246.11 30.08 246.22 30.08 246.22 29.5 246.32 28.89 246.54V247.66C28.89 247.66 29.38 247.38 29.95 247.24 29.95 247.24 30.53 247.09 31.16 247.09 31.16 247.09 32.26 247.09 32.84 247.53 32.84 247.53 33.41 247.96 33.41 248.79 33.41 248.79 33.41 249.55 32.88 249.98 32.88 249.98 32.34 250.41 31.39 250.41H30.38V251.37H31.44C31.44 251.37 32.3 251.37 32.75 251.72 32.75 251.72 33.21 252.06 33.21 252.71 33.21 252.71 33.21 253.38 32.74 253.73 32.74 253.73 32.27 254.09 31.39 254.09 31.39 254.09 30.91 254.09 30.36 253.98 30.36 253.98 29.81 253.88 29.15 253.66V254.7C29.15 254.7 29.82 254.89 30.39 254.98 30.39 254.98 30.98 255.07 31.49 255.07 31.49 255.07 32.82 255.07 33.6 254.46 33.6 254.46 34.38 253.86 34.38 252.83 34.38 252.83 34.38 252.11 33.96 251.62 33.96 251.62 33.55 251.12 32.8 250.93Z"/>
<path transform="matrix(1,0,0,-1,0,400)" d="M39.29 254.15C39.29 254.15 38.39 254.15 37.93 253.25 37.93 253.25 37.48 252.37 37.48 250.59 37.48 250.59 37.48 248.81 37.93 247.92 37.93 247.92 38.39 247.03 39.29 247.03 39.29 247.03 40.2 247.03 40.65 247.92 40.65 247.92 41.11 248.81 41.11 250.59 41.11 250.59 41.11 252.37 40.65 253.25 40.65 253.25 40.2 254.15 39.29 254.15M39.29 255.07C39.29 255.07 40.75 255.07 41.51 253.92 41.51 253.92 42.28 252.77 42.28 250.59 42.28 250.59 42.28 248.41 41.51 247.25 41.51 247.25 40.75 246.11 39.29 246.11 39.29 246.11 37.84 246.11 37.07 247.25 37.07 247.25 36.31 248.41 36.31 250.59 36.31 250.59 36.31 252.77 37.07 253.92 37.07 253.92 37.84 255.07 39.29 255.07Z"/>
<path transform="matrix(1,0,0,-1,0,400)" d="M46.83 254.15C46.83 254.15 45.93 254.15 45.47 253.25 45.47 253.25 45.02 252.37 45.02 250.59 45.02 250.59 45.02 248.81 45.47 247.92 45.47 247.92 45.93 247.03 46.83 247.03 46.83 247.03 47.74 247.03 48.19 247.92 48.19 247.92 48.65 248.81 48.65 250.59 48.65 250.59 48.65 252.37 48.19 253.25 48.19 253.25 47.74 254.15 46.83 254.15M46.83 255.07C46.83 255.07 48.29 255.07 49.05 253.92 49.05 253.92 49.82 252.77 49.82 250.59 49.82 250.59 49.82 248.41 49.05 247.25 49.05 247.25 48.29 246.11 46.83 246.11 46.83 246.11 45.38 246.11 44.61 247.25 44.61 247.25 43.85 248.41 43.85 250.59 43.85 250.59 43.85 252.77 44.61 253.92 44.61 253.92 45.38 255.07 46.83 255.07Z"/>
<path transform="matrix(1,0,0,-1,0,400)" d="M32.47 322.69 29.51 318.08H32.47V322.69M32.16 323.71H33.63V318.08H34.86V317.11H33.63V315.07H32.47V317.11H28.57V318.24L32.16 323.71Z"/>
<path transform="matrix(1,0,0,-1,0,400)" d="M39.29 322.94C39.29 322.94 38.39 322.94 37.93 322.05 37.93 322.05 37.48 321.17 37.48 319.38 37.48 319.38 37.48 317.61 37.93 316.72 37.93 316.72 38.39 315.83 39.29 315.83 39.29 315.83 40.2 315.83 40.65 316.72 40.65 316.72 41.11 317.61 41.11 319.38 41.11 319.38 41.11 321.17 40.65 322.05 40.65 322.05 40.2 322.94 39.29 322.94M39.29 323.87C39.29 323.87 40.75 323.87 41.51 322.72 41.51 322.72 42.28 321.57 42.28 319.38 42.28 319.38 42.28 317.2 41.51 316.05 41.51 316.05 40.75 314.9 39.29 314.9 39.29 314.9 37.84 314.9 37.07 316.05 37.07 316.05 36.31 317.2 36.31 319.38 36.31 319.38 36.31 321.57 37.07 322.72 37.07 322.72 37.84 323.87 39.29 323.87Z"/>
<path transform="matrix(1,0,0,-1,0,400)" d="M46.83 322.94C46.83 322.94 45.93 322.94 45.47 322.05 45.47 322.05 45.02 321.17 45.02 319.38 45.02 319.38 45.02 317.61 45.47 316.72 45.47 316.72 45.93 315.83 46.83 315.83 46.83 315.83 47.74 315.83 48.19 316.72 48.19 316.72 48.65 317.61 48.65 319.38 48.65 319.38 48.65 321.17 48.19 322.05 48.19 322.05 47.74 322.94 46.83 322.94M46.83 323.87C46.83 323.87 48.29 323.87 49.05 322.72 49.05 322.72 49.82 321.57 49.82 319.38 49.82 319.38 49.82 317.2 49.05 316.05 49.05 316.05 48.29 314.9 46.83 314.9 46.83 314.9 45.38 314.9 44.61 316.05 44.61 316.05 43.85 317.2 43.85 319.38 43.85 319.38 43.85 321.57 44.61 322.72 44.61 322.72 45.38 323.87 46.83 323.87Z"/>
<path transform="matrix(1,0,0,-1,0,400)" d="M29.27 392.51H33.85V391.53H30.34V389.41C30.34 389.41 30.59 389.49 30.85 389.53 30.85 389.53 31.1 389.58 31.35 389.58 31.35 389.58 32.8 389.58 33.65 388.79 33.65 388.79 34.49 388 34.49 386.64 34.49 386.64 34.49 385.25 33.62 384.47 33.62 384.47 32.75 383.7 31.17 383.7 31.17 383.7 30.63 383.7 30.06 383.79 30.06 383.79 29.5 383.89 28.9 384.07V385.25C28.9 385.25 29.42 384.96 29.98 384.82 29.98 384.82 30.53 384.68 31.15 384.68 31.15 384.68 32.15 384.68 32.74 385.21 32.74 385.21 33.32 385.74 33.32 386.64 33.32 386.64 33.32 387.54 32.74 388.07 32.74 388.07 32.15 388.6 31.15 388.6 31.15 388.6 30.68 388.6 30.21 388.49 30.21 388.49 29.75 388.39 29.27 388.17V392.51Z"/>
<path transform="matrix(1,0,0,-1,0,400)" d="M39.29 391.74C39.29 391.74 38.39 391.74 37.93 390.85 37.93 390.85 37.48 389.96 37.48 388.18 37.48 388.18 37.48 386.4 37.93 385.51 37.93 385.51 38.39 384.63 39.29 384.63 39.29 384.63 40.2 384.63 40.65 385.51 40.65 385.51 41.11 386.4 41.11 388.18 41.11 388.18 41.11 389.96 40.65 390.85 40.65 390.85 40.2 391.74 39.29 391.74M39.29 392.67C39.29 392.67 40.75 392.67 41.51 391.51 41.51 391.51 42.28 390.37 42.28 388.18 42.28 388.18 42.28 386 41.51 384.85 41.51 384.85 40.75 383.7 39.29 383.7 39.29 383.7 37.84 383.7 37.07 384.85 37.07 384.85 36.31 386 36.31 388.18 36.31 388.18 36.31 390.37 37.07 391.51 37.07 391.51 37.84 392.67 39.29 392.67Z"/>
<path transform="matrix(1,0,0,-1,0,400)" d="M46.83 391.74C46.83 391.74 45.93 391.74 45.47 390.85 45.47 390.85 45.02 389.96 45.02 388.18 45.02 388.18 45.02 386.4 45.47 385.51 45.47 385.51 45.93 384.63 46.83 384.63 46.83 384.63 47.74 384.63 48.19 385.51 48.19 385.51 48.65 386.4 48.65 388.18 48.65 388.18 48.65 389.96 48.19 390.85 48.19 390.85 47.74 391.74 46.83 391.74M46.83 392.67C46.83 392.67 48.29 392.67 49.05 391.51 49.05 391.51 49.82 390.37 49.82 388.18 49.82 388.18 49.82 386 49.05 384.85 49.05 384.85 48.29 383.7 46.83 383.7 46.83 383.7 45.38 383.7 44.61 384.85 44.61 384.85 43.85 386 43.85 388.18 43.85 388.18 43.85 390.37 44.61 391.51 44.61 391.51 45.38 392.67 46.83 392.67Z"/>
<path transform="matrix(1,0,0,-1,0,400)" d="M4.12 139.33V141.73L12.21 144.76 4.12 147.81V150.2H16V148.63H5.57L13.72 145.57V143.95L5.57 140.89H16V139.33H4.12Z"/>
<path transform="matrix(1,0,0,-1,0,400)" d="M11.52 157.38C11.52 157.38 11.52 155.6 11.93 154.92 11.93 154.92 12.33 154.23 13.31 154.23 13.31 154.23 14.09 154.23 14.55 154.74 14.55 154.74 15.01 155.26 15.01 156.14 15.01 156.14 15.01 157.36 14.15 158.09 14.15 158.09 13.28 158.83 11.85 158.83H11.52V157.38M10.92 160.3H16V158.83H14.65C14.65 158.83 15.46 158.33 15.85 157.58 15.85 157.58 16.23 156.84 16.23 155.75 16.23 155.75 16.23 154.39 15.47 153.57 15.47 153.57 14.7 152.77 13.41 152.77 13.41 152.77 11.9 152.77 11.14 153.77 11.14 153.77 10.38 154.78 10.38 156.78V158.83H10.23C10.23 158.83 9.22 158.83 8.67 158.17 8.67 158.17 8.12 157.51 8.12 156.3 8.12 156.3 8.12 155.54 8.3 154.82 8.3 154.82 8.48 154.09 8.85 153.42H7.49C7.49 153.42 7.18 154.23 7.03 154.98 7.03 154.98 6.87 155.74 6.87 156.45 6.87 156.45 6.87 158.39 7.88 159.34 7.88 159.34 8.88 160.3 10.92 160.3Z"/>
<path transform="matrix(1,0,0,-1,0,400)" d="M7.09 170.72 11.43 167.5 16 170.89V169.16L12.5 166.57 16 163.97V162.25L11.34 165.71 7.09 162.54V164.27L10.26 166.63 7.09 169V170.72Z"/>
<path transform="matrix(1,0,0,-1,0,400)" d="M7.09 172.96V174.42H16V172.96H7.09M3.62 172.96V174.42H5.47V172.96H3.62Z"/>
<path transform="matrix(1,0,0,-1,0,400)" d="M8.8 184.42C8.8 184.42 7.81 184.97 7.34 185.74 7.34 185.74 6.87 186.5 6.87 187.54 6.87 187.54 6.87 188.93 7.85 189.68 7.85 189.68 8.82 190.44 10.62 190.44H16V188.97H10.67C10.67 188.97 9.39 188.97 8.77 188.51 8.77 188.51 8.15 188.06 8.15 187.13 8.15 187.13 8.15 185.99 8.9 185.33 8.9 185.33 9.66 184.67 10.96 184.67H16V183.2H10.67C10.67 183.2 9.38 183.2 8.77 182.75 8.77 182.75 8.15 182.29 8.15 181.34 8.15 181.34 8.15 180.22 8.91 179.56 8.91 179.56 9.67 178.9 10.96 178.9H16V177.43H7.09V178.9H8.47C8.47 178.9 7.65 179.4 7.26 180.1 7.26 180.1 6.87 180.8 6.87 181.77 6.87 181.77 6.87 182.74 7.37 183.41 7.37 183.41 7.86 184.1 8.8 184.42Z"/>
<path transform="matrix(1,0,0,-1,0,400)" d="M12.48 193.21H7.09V194.67H12.43C12.43 194.67 13.69 194.67 14.33 195.17 14.33 195.17 14.96 195.66 14.96 196.65 14.96 196.65 14.96 197.83 14.2 198.52 14.2 198.52 13.45 199.21 12.14 199.21H7.09V200.67H16V199.21H14.63C14.63 199.21 15.44 198.68 15.84 197.97 15.84 197.97 16.23 197.27 16.23 196.34 16.23 196.34 16.23 194.8 15.28 194 15.28 194 14.32 193.21 12.48 193.21M6.87 196.89V196.89Z"/>
<path transform="matrix(1,0,0,-1,0,400)" d="M8.8 210.63C8.8 210.63 7.81 211.18 7.34 211.94 7.34 211.94 6.87 212.7 6.87 213.74 6.87 213.74 6.87 215.13 7.85 215.89 7.85 215.89 8.82 216.64 10.62 216.64H16V215.17H10.67C10.67 215.17 9.39 215.17 8.77 214.72 8.77 214.72 8.15 214.26 8.15 213.33 8.15 213.33 8.15 212.19 8.9 211.53 8.9 211.53 9.66 210.87 10.96 210.87H16V209.4H10.67C10.67 209.4 9.38 209.4 8.77 208.95 8.77 208.95 8.15 208.49 8.15 207.55 8.15 207.55 8.15 206.43 8.91 205.77 8.91 205.77 9.67 205.1 10.96 205.1H16V203.63H7.09V205.1H8.47C8.47 205.1 7.65 205.61 7.26 206.31 7.26 206.31 6.87 207.01 6.87 207.97 6.87 207.97 6.87 208.94 7.37 209.62 7.37 209.62 7.86 210.3 8.8 210.63Z"/>
<path transform="matrix(1,0,0,-1,0,400)" d="M4.12 224.81V231.63H5.47V226.41H8.97V231.12H10.33V226.41H16V224.81H4.12Z"/>
<path transform="matrix(1,0,0,-1,0,400)" d="M4.12 234.18V235.79H16V234.18H4.12Z"/>
<path transform="matrix(1,0,0,-1,0,400)" d="M4.12 238.99V240.59H16V238.99H4.12Z"/>
<path transform="matrix(1,0,0,-1,0,400)" d="M11.52 247.78C11.52 247.78 11.52 246 11.93 245.32 11.93 245.32 12.33 244.64 13.31 244.64 13.31 244.64 14.09 244.64 14.55 245.15 14.55 245.15 15.01 245.66 15.01 246.55 15.01 246.55 15.01 247.76 14.15 248.5 14.15 248.5 13.28 249.24 11.85 249.24H11.52V247.78M10.92 250.7H16V249.24H14.65C14.65 249.24 15.46 248.73 15.85 247.99 15.85 247.99 16.23 247.24 16.23 246.16 16.23 246.16 16.23 244.79 15.47 243.98 15.47 243.98 14.7 243.17 13.41 243.17 13.41 243.17 11.9 243.17 11.14 244.17 11.14 244.17 10.38 245.18 10.38 247.18V249.24H10.23C10.23 249.24 9.22 249.24 8.67 248.57 8.67 248.57 8.12 247.91 8.12 246.7 8.12 246.7 8.12 245.94 8.3 245.22 8.3 245.22 8.48 244.49 8.85 243.82H7.49C7.49 243.82 7.18 244.63 7.03 245.38 7.03 245.38 6.87 246.14 6.87 246.86 6.87 246.86 6.87 248.79 7.88 249.74 7.88 249.74 8.88 250.7 10.92 250.7Z"/>
<path transform="matrix(1,0,0,-1,0,400)" d="M3.64 262.41C3.64 262.41 5.47 261.35 7.26 260.83 7.26 260.83 9.05 260.31 10.88 260.31 10.88 260.31 12.72 260.31 14.53 260.83 14.53 260.83 16.33 261.35 18.15 262.41V261.14C18.15 261.14 16.28 259.95 14.47 259.35 14.47 259.35 12.67 258.76 10.88 258.76 10.88 258.76 9.11 258.76 7.31 259.35 7.31 259.35 5.51 259.94 3.64 261.14V262.41Z"/>
<path transform="matrix(1,0,0,-1,0,400)" d="M10.62 272.66H16V271.2H10.67C10.67 271.2 9.4 271.2 8.78 270.7 8.78 270.7 8.15 270.21 8.15 269.22 8.15 269.22 8.15 268.04 8.9 267.35 8.9 267.35 9.66 266.67 10.96 266.67H16V265.2H7.09V266.67H8.47C8.47 266.67 7.67 267.19 7.27 267.9 7.27 267.9 6.87 268.62 6.87 269.55 6.87 269.55 6.87 271.09 7.83 271.87 7.83 271.87 8.78 272.66 10.62 272.66Z"/>
<path transform="matrix(1,0,0,-1,0,400)" d="M4.12 275.64V278.04L12.21 281.07 4.12 284.12V286.51H16V284.95H5.57L13.72 281.88V280.27L5.57 277.2H16V275.64H4.12Z"/>
<path transform="matrix(1,0,0,-1,0,400)" d="M3.64 289.41V290.68C3.64 290.68 5.51 291.88 7.31 292.47 7.31 292.47 9.11 293.06 10.88 293.06 10.88 293.06 12.67 293.06 14.47 292.47 14.47 292.47 16.28 291.88 18.15 290.68V289.41C18.15 289.41 16.33 290.47 14.53 290.99 14.53 290.99 12.72 291.51 10.88 291.51 10.88 291.51 9.05 291.51 7.26 290.99 7.26 290.99 5.47 290.47 3.64 289.41Z"/>
<g clip-path="url(#clip_3)">
<path transform="matrix(1,0,0,-1,0,400)" d="M90.82 244.06V44.21H106.95V244.06H90.82" fill="#1b1b1b" fill-rule="evenodd"/>
</g>
<path transform="matrix(1,0,0,-1,0,400)" stroke-width="0" stroke-linecap="round" stroke-linejoin="round" fill="none" stroke="#000000" d="M90.82 244.06V44.21H106.95V244.06H90.82"/>
<g clip-path="url(#clip_4)">
<path transform="matrix(1,0,0,-1,0,400)" d="M138.95 288.63V44.21H155.07V288.63H138.95" fill="#1b1b1b" fill-rule="evenodd"/>
</g>
<path transform="matrix(1,0,0,-1,0,400)" stroke-width="0" stroke-linecap="round" stroke-linejoin="round" fill="none" stroke="#000000" d="M138.95 288.63V44.21H155.07V288.63H138.95"/>
<g clip-path="url(#clip_5)">
<path transform="matrix(1,0,0,-1,0,400)" d="M187.07 307.22V44.21H203.19V307.22H187.07" fill="#1b1b1b" fill-rule="evenodd"/>
</g>
<path transform="matrix(1,0,0,-1,0,400)" stroke-width="0" stroke-linecap="round" stroke-linejoin="round" fill="none" stroke="#000000" d="M187.07 307.22V44.21H203.19V307.22H187.07"/>
<g clip-path="url(#clip_6)">
<path transform="matrix(1,0,0,-1,0,400)" d="M235.2 252.01V44.21H251.32V252.01H235.2" fill="#1b1b1b" fill-rule="evenodd"/>
</g>
<path transform="matrix(1,0,0,-1,0,400)" stroke-width="0" stroke-linecap="round" stroke-linejoin="round" fill="none" stroke="#000000" d="M235.2 252.01V44.21H251.32V252.01H235.2"/>
<g clip-path="url(#clip_7)">
<path transform="matrix(1,0,0,-1,0,400)" d="M283.32 307.09V44.21H299.44V307.09H283.32" fill="#1b1b1b" fill-rule="evenodd"/>
</g>
<path transform="matrix(1,0,0,-1,0,400)" stroke-width="0" stroke-linecap="round" stroke-linejoin="round" fill="none" stroke="#000000" d="M283.32 307.09V44.21H299.44V307.09H283.32"/>
<g clip-path="url(#clip_8)">
<path transform="matrix(1,0,0,-1,0,400)" d="M331.45 328.66V44.21H347.57V328.66H331.45" fill="#1b1b1b" fill-rule="evenodd"/>
</g>
<path transform="matrix(1,0,0,-1,0,400)" stroke-width="0" stroke-linecap="round" stroke-linejoin="round" fill="none" stroke="#000000" d="M331.45 328.66V44.21H347.57V328.66H331.45"/>
<g clip-path="url(#clip_9)">
<path transform="matrix(1,0,0,-1,0,400)" d="M379.57 271.15V44.21H395.69V271.15H379.57" fill="#1b1b1b" fill-rule="evenodd"/>
</g>
<path transform="matrix(1,0,0,-1,0,400)" stroke-width="0" stroke-linecap="round" stroke-linejoin="round" fill="none" stroke="#000000" d="M379.57 271.15V44.21H395.69V271.15H379.57"/>
<g clip-path="url(#clip_10)">
<path transform="matrix(1,0,0,-1,0,400)" d="M427.69 289.45V44.21H443.82V289.45H427.69" fill="#1b1b1b" fill-rule="evenodd"/>
</g>
<path transform="matrix(1,0,0,-1,0,400)" stroke-width="0" stroke-linecap="round" stroke-linejoin="round" fill="none" stroke="#000000" d="M427.69 289.45V44.21H443.82V289.45H427.69"/>
<g clip-path="url(#clip_11)">
<path transform="matrix(1,0,0,-1,0,400)" d="M475.82 256.63V44.21H491.94V256.63H475.82" fill="#1b1b1b" fill-rule="evenodd"/>
</g>
<path transform="matrix(1,0,0,-1,0,400)" stroke-width="0" stroke-linecap="round" stroke-linejoin="round" fill="none" stroke="#000000" d="M475.82 256.63V44.21H491.94V256.63H475.82"/>
<g clip-path="url(#clip_12)">
<path transform="matrix(1,0,0,-1,0,400)" d="M523.94 298.21V44.21H540.06V298.21H523.94" fill="#1b1b1b" fill-rule="evenodd"/>
</g>
<path transform="matrix(1,0,0,-1,0,400)" stroke-width="0" stroke-linecap="round" stroke-linejoin="round" fill="none" stroke="#000000" d="M523.94 298.21V44.21H540.06V298.21H523.94"/>
<path transform="matrix(1,0,0,-1,0,400)" stroke-width=".8" stroke-linecap="round" stroke-linejoin="round" fill="none" stroke="#1b1b1b" stroke-opacity="0" d="M98.88 244.06V244.06"/>
<path transform="matrix(1,0,0,-1,0,400)" stroke-width=".8" stroke-linecap="round" stroke-linejoin="round" fill="none" stroke="#1b1b1b" stroke-opacity="0" d="M147.01 288.63V288.63"/>
<path transform="matrix(1,0,0,-1,0,400)" stroke-width=".8" stroke-linecap="round" stroke-linejoin="round" fill="none" stroke="#1b1b1b" stroke-opacity="0" d="M195.13 307.22V307.22"/>
<path transform="matrix(1,0,0,-1,0,400)" stroke-width=".8" stroke-linecap="round" stroke-linejoin="round" fill="none" stroke="#1b1b1b" stroke-opacity="0" d="M243.26 252.01V252.01"/>
<path transform="matrix(1,0,0,-1,0,400)" stroke-width=".8" stroke-linecap="round" stroke-linejoin="round" fill="none" stroke="#1b1b1b" stroke-opacity="0" d="M291.38 307.09V307.09"/>
<path transform="matrix(1,0,0,-1,0,400)" stroke-width=".8" stroke-linecap="round" stroke-linejoin="round" fill="none" stroke="#1b1b1b" stroke-opacity="0" d="M339.51 328.66V328.66"/>
<path transform="matrix(1,0,0,-1,0,400)" stroke-width=".8" stroke-linecap="round" stroke-linejoin="round" fill="none" stroke="#1b1b1b" stroke-opacity="0" d="M387.63 271.15V271.15"/>
<path transform="matrix(1,0,0,-1,0,400)" stroke-width=".8" stroke-linecap="round" stroke-linejoin="round" fill="none" stroke="#1b1b1b" stroke-opacity="0" d="M435.75 289.45V289.45"/>
<path transform="matrix(1,0,0,-1,0,400)" stroke-width=".8" stroke-linecap="round" stroke-linejoin="round" fill="none" stroke="#1b1b1b" stroke-opacity="0" d="M483.88 256.63V256.63"/>
<path transform="matrix(1,0,0,-1,0,400)" stroke-width=".8" stroke-linecap="round" stroke-linejoin="round" fill="none" stroke="#1b1b1b" stroke-opacity="0" d="M532 298.21V298.21"/>
<g clip-path="url(#clip_13)">
<path transform="matrix(1,0,0,-1,0,400)" d="M106.95 248.11V44.21H123.07V248.11H106.95" fill="#a2a2a2" fill-rule="evenodd"/>
</g>
<path transform="matrix(1,0,0,-1,0,400)" stroke-width="0" stroke-linecap="round" stroke-linejoin="round" fill="none" stroke="#000000" d="M106.95 248.11V44.21H123.07V248.11H106.95"/>
<g clip-path="url(#clip_14)">
<path transform="matrix(1,0,0,-1,0,400)" d="M155.07 289.99V44.21H171.19V289.99H155.07" fill="#a2a2a2" fill-rule="evenodd"/>
</g>
<path transform="matrix(1,0,0,-1,0,400)" stroke-width="0" stroke-linecap="round" stroke-linejoin="round" fill="none" stroke="#000000" d="M155.07 289.99V44.21H171.19V289.99H155.07"/>
<g clip-path="url(#clip_15)">
<path transform="matrix(1,0,0,-1,0,400)" d="M203.19 307.82V44.21H219.32V307.82H203.19" fill="#a2a2a2" fill-rule="evenodd"/>
</g>
<path transform="matrix(1,0,0,-1,0,400)" stroke-width="0" stroke-linecap="round" stroke-linejoin="round" fill="none" stroke="#000000" d="M203.19 307.82V44.21H219.32V307.82H203.19"/>
<g clip-path="url(#clip_16)">
<path transform="matrix(1,0,0,-1,0,400)" d="M251.32 252.64V44.21H267.44V252.64H251.32" fill="#a2a2a2" fill-rule="evenodd"/>
</g>
<path transform="matrix(1,0,0,-1,0,400)" stroke-width="0" stroke-linecap="round" stroke-linejoin="round" fill="none" stroke="#000000" d="M251.32 252.64V44.21H267.44V252.64H251.32"/>
<g clip-path="url(#clip_17)">
<path transform="matrix(1,0,0,-1,0,400)" d="M299.44 318.29V44.21H315.56V318.29H299.44" fill="#a2a2a2" fill-rule="evenodd"/>
</g>
<path transform="matrix(1,0,0,-1,0,400)" stroke-width="0" stroke-linecap="round" stroke-linejoin="round" fill="none" stroke="#000000" d="M299.44 318.29V44.21H315.56V318.29H299.44"/>
<g clip-path="url(#clip_18)">
<path transform="matrix(1,0,0,-1,0,400)" d="M347.57 329.38V44.21H363.69V329.38H347.57" fill="#a2a2a2" fill-rule="evenodd"/>
</g>
<path transform="matrix(1,0,0,-1,0,400)" stroke-width="0" stroke-linecap="round" stroke-linejoin="round" fill="none" stroke="#000000" d="M347.57 329.38V44.21H363.69V329.38H347.57"/>
<g clip-path="url(#clip_19)">
<path transform="matrix(1,0,0,-1,0,400)" d="M395.69 279.7V44.21H411.81V279.7H395.69" fill="#a2a2a2" fill-rule="evenodd"/>
</g>
<path transform="matrix(1,0,0,-1,0,400)" stroke-width="0" stroke-linecap="round" stroke-linejoin="round" fill="none" stroke="#000000" d="M395.69 279.7V44.21H411.81V279.7H395.69"/>
<g clip-path="url(#clip_20)">
<path transform="matrix(1,0,0,-1,0,400)" d="M443.82 304.5V44.21H459.94V304.5H443.82" fill="#a2a2a2" fill-rule="evenodd"/>
</g>
<path transform="matrix(1,0,0,-1,0,400)" stroke-width="0" stroke-linecap="round" stroke-linejoin="round" fill="none" stroke="#000000" d="M443.82 304.5V44.21H459.94V304.5H443.82"/>
<g clip-path="url(#clip_21)">
<path transform="matrix(1,0,0,-1,0,400)" d="M491.94 258.51V44.21H508.06V258.51H491.94" fill="#a2a2a2" fill-rule="evenodd"/>
</g>
<path transform="matrix(1,0,0,-1,0,400)" stroke-width="0" stroke-linecap="round" stroke-linejoin="round" fill="none" stroke="#000000" d="M491.94 258.51V44.21H508.06V258.51H491.94"/>
<g clip-path="url(#clip_22)">
<path transform="matrix(1,0,0,-1,0,400)" d="M540.06 305.93V44.21H556.19V305.93H540.06" fill="#a2a2a2" fill-rule="evenodd"/>
</g>
<path transform="matrix(1,0,0,-1,0,400)" stroke-width="0" stroke-linecap="round" stroke-linejoin="round" fill="none" stroke="#000000" d="M540.06 305.93V44.21H556.19V305.93H540.06"/>
<path transform="matrix(1,0,0,-1,0,400)" stroke-width=".8" stroke-linecap="round" stroke-linejoin="round" fill="none" stroke="#a2a2a2" stroke-opacity="0" d="M115.01 248.11V248.11"/>
<path transform="matrix(1,0,0,-1,0,400)" stroke-width=".8" stroke-linecap="round" stroke-linejoin="round" fill="none" stroke="#a2a2a2" stroke-opacity="0" d="M163.13 289.99V289.99"/>
<path transform="matrix(1,0,0,-1,0,400)" stroke-width=".8" stroke-linecap="round" stroke-linejoin="round" fill="none" stroke="#a2a2a2" stroke-opacity="0" d="M211.25 307.82V307.82"/>
<path transform="matrix(1,0,0,-1,0,400)" stroke-width=".8" stroke-linecap="round" stroke-linejoin="round" fill="none" stroke="#a2a2a2" stroke-opacity="0" d="M259.38 252.64V252.64"/>
<path transform="matrix(1,0,0,-1,0,400)" stroke-width=".8" stroke-linecap="round" stroke-linejoin="round" fill="none" stroke="#a2a2a2" stroke-opacity="0" d="M307.5 318.29V318.29"/>
<path transform="matrix(1,0,0,-1,0,400)" stroke-width=".8" stroke-linecap="round" stroke-linejoin="round" fill="none" stroke="#a2a2a2" stroke-opacity="0" d="M355.63 329.38V329.38"/>
<path transform="matrix(1,0,0,-1,0,400)" stroke-width=".8" stroke-linecap="round" stroke-linejoin="round" fill="none" stroke="#a2a2a2" stroke-opacity="0" d="M403.75 279.7V279.7"/>
<path transform="matrix(1,0,0,-1,0,400)" stroke-width=".8" stroke-linecap="round" stroke-linejoin="round" fill="none" stroke="#a2a2a2" stroke-opacity="0" d="M451.88 304.5V304.5"/>
<path transform="matrix(1,0,0,-1,0,400)" stroke-width=".8" stroke-linecap="round" stroke-linejoin="round" fill="none" stroke="#a2a2a2" stroke-opacity="0" d="M500 258.51V258.51"/>
<path transform="matrix(1,0,0,-1,0,400)" stroke-width=".8" stroke-linecap="round" stroke-linejoin="round" fill="none" stroke="#a2a2a2" stroke-opacity="0" d="M548.13 305.93V305.93"/>
<g clip-path="url(#clip_23)">
<path transform="matrix(1,0,0,-1,0,400)" d="M459.57 337.84H570.54V376.72H459.57" fill="#ffffff" fill-rule="evenodd"/>
</g>
<path transform="matrix(1,0,0,-1,0,400)" stroke-width="1" stroke-linecap="round" stroke-linejoin="round" fill="none" stroke="#000000" stroke-opacity="0" d="M459.57 337.84H570.54V376.72H459.57V337.84"/>
<path transform="matrix(1,0,0,-1,0,400)" d="M483.1 368.88C480.27 368.88 477.98 366.59 477.98 363.76 477.98 360.94 480.27 358.64 483.1 358.64 485.93 358.64 488.22 360.94 488.22 363.76 488.22 366.59 485.93 368.88 483.1 368.88" fill="#1b1b1b" fill-rule="evenodd"/>
<path transform="matrix(1,0,0,-1,0,400)" d="M512.19 367.8V366.66C512.19 366.66 511.53 366.98 510.93 367.13 510.93 367.13 510.34 367.29 509.79 367.29 509.79 367.29 508.84 367.29 508.32 366.92 508.32 366.92 507.8 366.55 507.8 365.87 507.8 365.87 507.8 365.29 508.15 365 508.15 365 508.49 364.71 509.45 364.53L510.16 364.38C510.16 364.38 511.47 364.14 512.09 363.51 512.09 363.51 512.71 362.88 512.71 361.83 512.71 361.83 512.71 360.57 511.87 359.92 511.87 359.92 511.03 359.28 509.4 359.28 509.4 359.28 508.79 359.28 508.09 359.41 508.09 359.41 507.4 359.55 506.66 359.82V361.03C506.66 361.03 507.38 360.63 508.06 360.43 508.06 360.43 508.74 360.22 509.4 360.22 509.4 360.22 510.4 360.22 510.95 360.62 510.95 360.62 511.49 361.01 511.49 361.74 511.49 361.74 511.49 362.38 511.1 362.74 511.1 362.74 510.71 363.09 509.82 363.27L509.11 363.41C509.11 363.41 507.8 363.67 507.21 364.23 507.21 364.23 506.63 364.78 506.63 365.77 506.63 365.77 506.63 366.92 507.43 367.58 507.43 367.58 508.24 368.24 509.66 368.24 509.66 368.24 510.27 368.24 510.9 368.13 510.9 368.13 511.53 368.02 512.19 367.8Z"/>
<path transform="matrix(1,0,0,-1,0,400)" d="M514.49 365.92H515.55V359.44H514.49V365.92M514.49 368.45H515.55V367.1H514.49V368.45Z"/>
<path transform="matrix(1,0,0,-1,0,400)" d="M522.83 364.68C522.83 364.68 523.23 365.4 523.78 365.74 523.78 365.74 524.34 366.08 525.09 366.08 525.09 366.08 526.1 366.08 526.65 365.37 526.65 365.37 527.2 364.66 527.2 363.35V359.44H526.13V363.32C526.13 363.32 526.13 364.25 525.8 364.7 525.8 364.7 525.47 365.15 524.79 365.15 524.79 365.15 523.97 365.15 523.49 364.6 523.49 364.6 523.01 364.06 523.01 363.11V359.44H521.94V363.32C521.94 363.32 521.94 364.26 521.61 364.7 521.61 364.7 521.28 365.15 520.59 365.15 520.59 365.15 519.77 365.15 519.29 364.6 519.29 364.6 518.81 364.05 518.81 363.11V359.44H517.74V365.92H518.81V364.92C518.81 364.92 519.18 365.51 519.68 365.8 519.68 365.8 520.19 366.08 520.89 366.08 520.89 366.08 521.6 366.08 522.09 365.72 522.09 365.72 522.59 365.36 522.83 364.68Z"/>
<path transform="matrix(1,0,0,-1,0,400)" d="M529.22 362V365.92H530.28V362.04C530.28 362.04 530.28 361.12 530.64 360.66 530.64 360.66 531 360.2 531.72 360.2 531.72 360.2 532.58 360.2 533.08 360.75 533.08 360.75 533.58 361.3 533.58 362.25V365.92H534.64V359.44H533.58V360.44C533.58 360.44 533.19 359.85 532.68 359.56 532.68 359.56 532.17 359.28 531.49 359.28 531.49 359.28 530.37 359.28 529.79 359.97 529.79 359.97 529.22 360.66 529.22 362M531.9 366.08V366.08Z"/>
<path transform="matrix(1,0,0,-1,0,400)" d="M536.84 368.45H537.9V359.44H536.84V368.45Z"/>
<path transform="matrix(1,0,0,-1,0,400)" d="M543.08 362.7C543.08 362.7 541.79 362.7 541.29 362.41 541.29 362.41 540.79 362.11 540.79 361.4 540.79 361.4 540.79 360.83 541.16 360.5 541.16 360.5 541.54 360.17 542.18 360.17 542.18 360.17 543.06 360.17 543.6 360.79 543.6 360.79 544.13 361.42 544.13 362.46V362.7H543.08M545.2 363.14V359.44H544.13V360.43C544.13 360.43 543.77 359.84 543.23 359.55 543.23 359.55 542.68 359.28 541.9 359.28 541.9 359.28 540.9 359.28 540.31 359.83 540.31 359.83 539.73 360.39 539.73 361.33 539.73 361.33 539.73 362.42 540.45 362.98 540.45 362.98 541.19 363.53 542.64 363.53H544.13V363.64C544.13 363.64 544.13 364.37 543.65 364.77 543.65 364.77 543.17 365.18 542.29 365.18 542.29 365.18 541.74 365.18 541.21 365.04 541.21 365.04 540.69 364.91 540.2 364.65V365.63C540.2 365.63 540.78 365.85 541.33 365.96 541.33 365.96 541.88 366.08 542.4 366.08 542.4 366.08 543.81 366.08 544.51 365.35 544.51 365.35 545.2 364.62 545.2 363.14Z"/>
<path transform="matrix(1,0,0,-1,0,400)" d="M548.45 367.76V365.92H550.64V365.1H548.45V361.58C548.45 361.58 548.45 360.79 548.66 360.56 548.66 360.56 548.88 360.33 549.55 360.33H550.64V359.44H549.55C549.55 359.44 548.31 359.44 547.84 359.9 547.84 359.9 547.38 360.36 547.38 361.58V365.1H546.59V365.92H547.38V367.76H548.45Z"/>
<path transform="matrix(1,0,0,-1,0,400)" d="M557.58 362.95V362.43H552.69C552.69 362.43 552.76 361.33 553.35 360.75 553.35 360.75 553.94 360.18 555 360.18 555 360.18 555.62 360.18 556.19 360.33 556.19 360.33 556.77 360.48 557.34 360.78V359.77C557.34 359.77 556.76 359.53 556.16 359.4 556.16 359.4 555.56 359.28 554.94 359.28 554.94 359.28 553.39 359.28 552.48 360.18 552.48 360.18 551.58 361.08 551.58 362.62 551.58 362.62 551.58 364.21 552.43 365.14 552.43 365.14 553.3 366.08 554.75 366.08 554.75 366.08 556.06 366.08 556.82 365.24 556.82 365.24 557.58 364.4 557.58 362.95M556.52 363.26C556.52 363.26 556.51 364.14 556.03 364.66 556.03 364.66 555.55 365.18 554.77 365.18 554.77 365.18 553.87 365.18 553.34 364.67 553.34 364.67 552.8 364.17 552.72 363.26H556.52Z"/>
<path transform="matrix(1,0,0,-1,0,400)" d="M563.6 364.94V368.45H564.66V359.44H563.6V360.42C563.6 360.42 563.26 359.84 562.75 359.55 562.75 359.55 562.24 359.28 561.52 359.28 561.52 359.28 560.34 359.28 559.6 360.21 559.6 360.21 558.87 361.15 558.87 362.68 558.87 362.68 558.87 364.21 559.6 365.14 559.6 365.14 560.34 366.08 561.52 366.08 561.52 366.08 562.24 366.08 562.75 365.8 562.75 365.8 563.26 365.52 563.6 364.94M559.97 362.68C559.97 362.68 559.97 361.5 560.45 360.83 560.45 360.83 560.93 360.17 561.78 360.17 561.78 360.17 562.62 360.17 563.11 360.83 563.11 360.83 563.6 361.5 563.6 362.68 563.6 362.68 563.6 363.85 563.11 364.52 563.11 364.52 562.62 365.19 561.78 365.19 561.78 365.19 560.93 365.19 560.45 364.52 560.45 364.52 559.97 363.85 559.97 362.68Z"/>
<path transform="matrix(1,0,0,-1,0,400)" d="M483.1 355.92C480.27 355.92 477.98 353.63 477.98 350.8 477.98 347.98 480.27 345.68 483.1 345.68 485.93 345.68 488.22 347.98 488.22 350.8 488.22 353.63 485.93 355.92 483.1 355.92" fill="#a2a2a2" fill-rule="evenodd"/>
<path transform="matrix(1,0,0,-1,0,400)" d="M510.59 353.97 509 349.67H512.18L510.59 353.97M509.93 355.12H511.25L514.55 346.48H513.33L512.54 348.7H508.65L507.86 346.48H506.63L509.93 355.12Z"/>
<path transform="matrix(1,0,0,-1,0,400)" d="M520.22 352.72V351.72C520.22 351.72 519.77 351.97 519.31 352.09 519.31 352.09 518.86 352.22 518.39 352.22 518.39 352.22 517.36 352.22 516.79 351.56 516.79 351.56 516.21 350.9 516.21 349.72 516.21 349.72 516.21 348.53 516.79 347.87 516.79 347.87 517.36 347.22 518.39 347.22 518.39 347.22 518.86 347.22 519.31 347.34 519.31 347.34 519.77 347.47 520.22 347.72V346.73C520.22 346.73 519.77 346.52 519.29 346.42 519.29 346.42 518.82 346.32 518.28 346.32 518.28 346.32 516.81 346.32 515.95 347.24 515.95 347.24 515.09 348.16 515.09 349.72 515.09 349.72 515.09 351.3 515.96 352.21 515.96 352.21 516.83 353.12 518.35 353.12 518.35 353.12 518.84 353.12 519.31 353.02 519.31 353.02 519.78 352.92 520.22 352.72Z"/>
<path transform="matrix(1,0,0,-1,0,400)" d="M523.12 354.8V352.96H525.32V352.14H523.12V348.62C523.12 348.62 523.12 347.83 523.34 347.6 523.34 347.6 523.56 347.37 524.22 347.37H525.32V346.48H524.22C524.22 346.48 522.99 346.48 522.52 346.94 522.52 346.94 522.05 347.4 522.05 348.62V352.14H521.27V352.96H522.05V354.8H523.12Z"/>
<path transform="matrix(1,0,0,-1,0,400)" d="M526.61 349.04V352.96H527.67V349.08C527.67 349.08 527.67 348.16 528.03 347.7 528.03 347.7 528.39 347.24 529.11 347.24 529.11 347.24 529.97 347.24 530.47 347.79 530.47 347.79 530.97 348.34 530.97 349.29V352.96H532.03V346.48H530.97V347.48C530.97 347.48 530.58 346.89 530.07 346.6 530.07 346.6 529.56 346.32 528.88 346.32 528.88 346.32 527.76 346.32 527.18 347.01 527.18 347.01 526.61 347.7 526.61 349.04M529.29 353.12V353.12Z"/>
<path transform="matrix(1,0,0,-1,0,400)" d="M537.17 349.74C537.17 349.74 535.88 349.74 535.39 349.45 535.39 349.45 534.89 349.15 534.89 348.44 534.89 348.44 534.89 347.87 535.26 347.54 535.26 347.54 535.63 347.21 536.28 347.21 536.28 347.21 537.16 347.21 537.69 347.83 537.69 347.83 538.23 348.46 538.23 349.5V349.74H537.17M539.3 350.18V346.48H538.23V347.47C538.23 347.47 537.87 346.88 537.32 346.59 537.32 346.59 536.78 346.32 535.99 346.32 535.99 346.32 535 346.32 534.41 346.87 534.41 346.87 533.82 347.43 533.82 348.37 533.82 348.37 533.82 349.46 534.55 350.02 534.55 350.02 535.29 350.57 536.74 350.57H538.23V350.68C538.23 350.68 538.23 351.41 537.75 351.81 537.75 351.81 537.27 352.22 536.39 352.22 536.39 352.22 535.84 352.22 535.31 352.08 535.31 352.08 534.78 351.95 534.3 351.69V352.67C534.3 352.67 534.88 352.89 535.43 353 535.43 353 535.98 353.12 536.5 353.12 536.5 353.12 537.91 353.12 538.6 352.39 538.6 352.39 539.3 351.66 539.3 350.18Z"/>
<path transform="matrix(1,0,0,-1,0,400)" d="M541.49 355.49H542.56V346.48H541.49V355.49Z"/>
</g>
</svg>
