<svg xmlns="http://www.w3.org/2000/svg" xmlns:xlink="http://www.w3.org/1999/xlink" version="1.1" width="600pt" height="400pt" viewBox="0 0 600 400">
<defs>
<clipPath id="clip_0">
<path transform="matrix(1,0,0,-1,0,400)" d="M0 0H600V400H0Z"/>
</clipPath>
<clipPath id="clip_1">
<path transform="matrix(1,0,0,-1,0,400)" d="M0 0H600V600H0Z"/>
</clipPath>
<clipPath id="clip_2">
<path transform="matrix(1,0,0,-1,0,400)" d="M0 0H600V600H0Z"/>
</clipPath>
<clipPath id="clip_3">
<path transform="matrix(1,0,0,-1,0,400)" d="M58.53 44.21H588.19V388.19H58.53Z"/>
</clipPath>
<clipPath id="clip_4">
<path transform="matrix(1,0,0,-1,0,400)" d="M58.53 44.21H588.19V388.19H58.53Z"/>
</clipPath>
<clipPath id="clip_5">
<path transform="matrix(1,0,0,-1,0,400)" d="M58.53 44.21H588.19V388.19H58.53Z"/>
</clipPath>
<clipPath id="clip_6">
<path transform="matrix(1,0,0,-1,0,400)" d="M58.53 44.21H588.19V388.19H58.53Z"/>
</clipPath>
<clipPath id="clip_7">
<path transform="matrix(1,0,0,-1,0,400)" d="M58.53 44.21H588.19V388.19H58.53Z"/>
</clipPath>
<clipPath id="clip_8">
<path transform="matrix(1,0,0,-1,0,400)" d="M58.53 44.21H588.19V388.19H58.53Z"/>
</clipPath>
<clipPath id="clip_9">
<path transform="matrix(1,0,0,-1,0,400)" d="M58.53 44.21H588.19V388.19H58.53Z"/>
</clipPath>
<clipPath id="clip_10">
<path transform="matrix(1,0,0,-1,0,400)" d="M58.53 44.21H588.19V388.19H58.53Z"/>
</clipPath>
<clipPath id="clip_11">
<path transform="matrix(1,0,0,-1,0,400)" d="M58.53 44.21H588.19V388.19H58.53Z"/>
</clipPath>
<clipPath id="clip_12">
<path transform="matrix(1,0,0,-1,0,400)" d="M58.53 44.21H588.19V388.19H58.53Z"/>
</clipPath>
<clipPath id="clip_13">
<path transform="matrix(1,0,0,-1,0,400)" d="M58.53 44.21H588.19V388.19H58.53Z"/>
</clipPath>
<clipPath id="clip_14">
<path transform="matrix(1,0,0,-1,0,400)" d="M58.53 44.21H588.19V388.19H58.53Z"/>
</clipPath>
<clipPath id="clip_15">
<path transform="matrix(1,0,0,-1,0,400)" d="M58.53 44.21H588.19V388.19H58.53Z"/>
</clipPath>
<clipPath id="clip_16">
<path transform="matrix(1,0,0,-1,0,400)" d="M58.53 44.21H588.19V388.19H58.53Z"/>
</clipPath>
<clipPath id="clip_17">
<path transform="matrix(1,0,0,-1,0,400)" d="M58.53 44.21H588.19V388.19H58.53Z"/>
</clipPath>
<clipPath id="clip_18">
<path transform="matrix(1,0,0,-1,0,400)" d="M58.53 44.21H588.19V388.19H58.53Z"/>
</clipPath>
<clipPath id="clip_19">
<path transform="matrix(1,0,0,-1,0,400)" d="M58.53 44.21H588.19V388.19H58.53Z"/>
</clipPath>
<clipPath id="clip_20">
<path transform="matrix(1,0,0,-1,0,400)" d="M58.53 44.21H588.19V388.19H58.53Z"/>
</clipPath>
<clipPath id="clip_21">
<path transform="matrix(1,0,0,-1,0,400)" d="M58.53 44.21H588.19V388.19H58.53Z"/>
</clipPath>
<clipPath id="clip_22">
<path transform="matrix(1,0,0,-1,0,400)" d="M58.53 44.21H588.19V388.19H58.53Z"/>
</clipPath>
<clipPath id="clip_23">
<path transform="matrix(1,0,0,-1,0,400)" d="M0 0H600V600H0Z"/>
</clipPath>
</defs>
<g clip-path="url(#clip_0)">
<g clip-path="url(#clip_1)">
<path transform="matrix(1,0,0,-1,0,400)" d="M0 0H600V400H0" fill="#ffffff" fill-rule="evenodd"/>
</g>
<g clip-path="url(#clip_2)">
<path transform="matrix(1,0,0,-1,0,400)" d="M58.53 44.21H588.19V388.19H58.53" fill="#ffffff" fill-rule="evenodd"/>
</g>
<path transform="matrix(1,0,0,-1,0,400)" stroke-width="1" stroke-linecap="round" stroke-linejoin="round" fill="none" stroke="#000000" d="M58.53 44.21H588.19"/>
<path transform="matrix(1,0,0,-1,0,400)" stroke-width="1" stroke-linecap="round" stroke-linejoin="round" fill="none" stroke="#000000" d="M106.68 44.21V48.93"/>
<path transform="matrix(1,0,0,-1,0,400)" stroke-width="1" stroke-linecap="round" stroke-linejoin="round" fill="none" stroke="#000000" d="M154.83 44.21V48.93"/>
<path transform="matrix(1,0,0,-1,0,400)" stroke-width="1" stroke-linecap="round" stroke-linejoin="round" fill="none" stroke="#000000" d="M202.98 44.21V48.93"/>
<path transform="matrix(1,0,0,-1,0,400)" stroke-width="1" stroke-linecap="round" stroke-linejoin="round" fill="none" stroke="#000000" d="M251.13 44.21V48.93"/>
<path transform="matrix(1,0,0,-1,0,400)" stroke-width="1" stroke-linecap="round" stroke-linejoin="round" fill="none" stroke="#000000" d="M299.28 44.21V48.93"/>
<path transform="matrix(1,0,0,-1,0,400)" stroke-width="1" stroke-linecap="round" stroke-linejoin="round" fill="none" stroke="#000000" d="M347.44 44.21V48.93"/>
<path transform="matrix(1,0,0,-1,0,400)" stroke-width="1" stroke-linecap="round" stroke-linejoin="round" fill="none" stroke="#000000" d="M395.59 44.21V48.93"/>
<path transform="matrix(1,0,0,-1,0,400)" stroke-width="1" stroke-linecap="round" stroke-linejoin="round" fill="none" stroke="#000000" d="M443.74 44.21V48.93"/>
<path transform="matrix(1,0,0,-1,0,400)" stroke-width="1" stroke-linecap="round" stroke-linejoin="round" fill="none" stroke="#000000" d="M491.89 44.21V48.93"/>
<path transform="matrix(1,0,0,-1,0,400)" stroke-width="1" stroke-linecap="round" stroke-linejoin="round" fill="none" stroke="#000000" d="M540.04 44.21V48.93"/>
<path transform="matrix(1,0,0,-1,0,400)" d="M104.28 29.59H106.19V36.18L104.11 35.76V36.83L106.18 37.25H107.34V29.59H109.25V28.61H104.28V29.59Z"/>
<path transform="matrix(1,0,0,-1,0,400)" d="M153.5 29.59H157.58V28.61H152.09V29.59C152.09 29.59 152.76 30.28 153.9 31.43 153.9 31.43 155.05 32.6 155.35 32.93 155.35 32.93 155.91 33.56 156.13 34 156.13 34 156.35 34.44 156.35 34.86 156.35 34.86 156.35 35.55 155.87 35.98 155.87 35.98 155.39 36.42 154.61 36.42 154.61 36.42 154.06 36.42 153.45 36.23 153.45 36.23 152.84 36.04 152.15 35.65V36.83C152.15 36.83 152.85 37.11 153.47 37.26 153.47 37.26 154.08 37.4 154.59 37.4 154.59 37.4 155.93 37.4 156.73 36.73 156.73 36.73 157.53 36.06 157.53 34.94 157.53 34.94 157.53 34.4 157.33 33.92 157.33 33.92 157.13 33.45 156.6 32.8 156.6 32.8 156.46 32.63 155.68 31.83 155.68 31.83 154.91 31.03 153.5 29.59Z"/>
<path transform="matrix(1,0,0,-1,0,400)" d="M204.05 33.26C204.05 33.26 204.88 33.08 205.35 32.52 205.35 32.52 205.83 31.95 205.83 31.12 205.83 31.12 205.83 29.84 204.95 29.14 204.95 29.14 204.07 28.44 202.45 28.44 202.45 28.44 201.9 28.44 201.33 28.55 201.33 28.55 200.75 28.65 200.14 28.87V29.99C200.14 29.99 200.63 29.71 201.2 29.57 201.2 29.57 201.78 29.42 202.41 29.42 202.41 29.42 203.51 29.42 204.09 29.86 204.09 29.86 204.66 30.29 204.66 31.12 204.66 31.12 204.66 31.88 204.13 32.31 204.13 32.31 203.59 32.74 202.64 32.74H201.63V33.7H202.69C202.69 33.7 203.55 33.7 204 34.04 204 34.04 204.46 34.39 204.46 35.04 204.46 35.04 204.46 35.71 203.99 36.06 203.99 36.06 203.52 36.42 202.64 36.42 202.64 36.42 202.16 36.42 201.61 36.31 201.61 36.31 201.06 36.21 200.4 35.99V37.03C200.4 37.03 201.07 37.22 201.64 37.31 201.64 37.31 202.23 37.4 202.74 37.4 202.74 37.4 204.07 37.4 204.85 36.79 204.85 36.79 205.63 36.19 205.63 35.16 205.63 35.16 205.63 34.44 205.21 33.95 205.21 33.95 204.8 33.45 204.05 33.26Z"/>
<path transform="matrix(1,0,0,-1,0,400)" d="M251.89 36.23 248.94 31.61H251.89V36.23M251.58 37.25H253.05V31.61H254.28V30.64H253.05V28.61H251.89V30.64H247.99V31.77L251.58 37.25Z"/>
<path transform="matrix(1,0,0,-1,0,400)" d="M296.85 37.25H301.44V36.26H297.92V34.14C297.92 34.14 298.18 34.23 298.43 34.27 298.43 34.27 298.69 34.32 298.94 34.32 298.94 34.32 300.39 34.32 301.24 33.52 301.24 33.52 302.08 32.73 302.08 31.38 302.08 31.38 302.08 29.98 301.21 29.21 301.21 29.21 300.34 28.44 298.76 28.44 298.76 28.44 298.22 28.44 297.65 28.53 297.65 28.53 297.09 28.62 296.49 28.81V29.98C296.49 29.98 297.01 29.7 297.57 29.56 297.57 29.56 298.12 29.42 298.74 29.42 298.74 29.42 299.74 29.42 300.33 29.95 300.33 29.95 300.91 30.47 300.91 31.38 300.91 31.38 300.91 32.28 300.33 32.81 300.33 32.81 299.74 33.33 298.74 33.33 298.74 33.33 298.27 33.33 297.8 33.23 297.8 33.23 297.34 33.12 296.85 32.9V37.25Z"/>
<path transform="matrix(1,0,0,-1,0,400)" d="M347.54 33.39C347.54 33.39 346.75 33.39 346.29 32.85 346.29 32.85 345.83 32.31 345.83 31.38 345.83 31.38 345.83 30.45 346.29 29.9 346.29 29.9 346.75 29.36 347.54 29.36 347.54 29.36 348.32 29.36 348.78 29.9 348.78 29.9 349.24 30.45 349.24 31.38 349.24 31.38 349.24 32.31 348.78 32.85 348.78 32.85 348.32 33.39 347.54 33.39M349.86 37.05V35.99C349.86 35.99 349.42 36.2 348.97 36.31 348.97 36.31 348.52 36.42 348.08 36.42 348.08 36.42 346.92 36.42 346.31 35.64 346.31 35.64 345.7 34.86 345.62 33.28 345.62 33.28 345.96 33.78 346.47 34.04 346.47 34.04 346.99 34.32 347.61 34.32 347.61 34.32 348.91 34.32 349.66 33.52 349.66 33.52 350.42 32.74 350.42 31.38 350.42 31.38 350.42 30.05 349.63 29.24 349.63 29.24 348.84 28.44 347.54 28.44 347.54 28.44 346.04 28.44 345.25 29.58 345.25 29.58 344.45 30.73 344.45 32.92 344.45 32.92 344.45 34.96 345.42 36.18 345.42 36.18 346.4 37.4 348.03 37.4 348.03 37.4 348.47 37.4 348.92 37.31 348.92 37.31 349.37 37.23 349.86 37.05Z"/>
<path transform="matrix(1,0,0,-1,0,400)" d="M392.81 37.25H398.36V36.75L395.23 28.61H394.01L396.96 36.26H392.81V37.25Z"/>
<path transform="matrix(1,0,0,-1,0,400)" d="M443.74 32.71C443.74 32.71 442.9 32.71 442.42 32.26 442.42 32.26 441.95 31.82 441.95 31.04 441.95 31.04 441.95 30.25 442.42 29.81 442.42 29.81 442.9 29.36 443.74 29.36 443.74 29.36 444.57 29.36 445.05 29.81 445.05 29.81 445.53 30.26 445.53 31.04 445.53 31.04 445.53 31.82 445.05 32.26 445.05 32.26 444.58 32.71 443.74 32.71M442.57 33.21C442.57 33.21 441.82 33.39 441.39 33.91 441.39 33.91 440.98 34.42 440.98 35.16 440.98 35.16 440.98 36.2 441.71 36.8 441.71 36.8 442.45 37.4 443.74 37.4 443.74 37.4 445.03 37.4 445.76 36.8 445.76 36.8 446.5 36.2 446.5 35.16 446.5 35.16 446.5 34.42 446.07 33.91 446.07 33.91 445.66 33.39 444.91 33.21 444.91 33.21 445.76 33.01 446.23 32.44 446.23 32.44 446.7 31.86 446.7 31.04 446.7 31.04 446.7 29.78 445.93 29.11 445.93 29.11 445.17 28.44 443.74 28.44 443.74 28.44 442.31 28.44 441.54 29.11 441.54 29.11 440.77 29.78 440.77 31.04 440.77 31.04 440.77 31.86 441.25 32.44 441.25 32.44 441.72 33.01 442.57 33.21M442.14 35.05C442.14 35.05 442.14 34.38 442.56 34 442.56 34 442.98 33.63 443.74 33.63 443.74 33.63 444.49 33.63 444.91 34 444.91 34 445.34 34.38 445.34 35.05 445.34 35.05 445.34 35.72 444.91 36.1 444.91 36.1 444.49 36.48 443.74 36.48 443.74 36.48 442.98 36.48 442.56 36.1 442.56 36.1 442.14 35.72 442.14 35.05Z"/>
<path transform="matrix(1,0,0,-1,0,400)" d="M489.46 28.78V29.85C489.46 29.85 489.9 29.64 490.35 29.53 490.35 29.53 490.81 29.42 491.24 29.42 491.24 29.42 492.4 29.42 493 30.2 493 30.2 493.62 30.98 493.7 32.56 493.7 32.56 493.37 32.07 492.85 31.8 492.85 31.8 492.34 31.53 491.71 31.53 491.71 31.53 490.42 31.53 489.66 32.31 489.66 32.31 488.91 33.1 488.91 34.46 488.91 34.46 488.91 35.79 489.69 36.6 489.69 36.6 490.48 37.4 491.79 37.4 491.79 37.4 493.29 37.4 494.08 36.25 494.08 36.25 494.87 35.1 494.87 32.92 494.87 32.92 494.87 30.87 493.9 29.65 493.9 29.65 492.93 28.44 491.29 28.44 491.29 28.44 490.85 28.44 490.4 28.52 490.4 28.52 489.95 28.61 489.46 28.78M491.79 32.45C491.79 32.45 492.58 32.45 493.03 32.99 493.03 32.99 493.5 33.52 493.5 34.46 493.5 34.46 493.5 35.39 493.03 35.93 493.03 35.93 492.58 36.48 491.79 36.48 491.79 36.48 491 36.48 490.54 35.93 490.54 35.93 490.08 35.39 490.08 34.46 490.08 34.46 490.08 33.52 490.54 32.99 490.54 32.99 491 32.45 491.79 32.45Z"/>
<path transform="matrix(1,0,0,-1,0,400)" d="M533.71 29.59H535.62V36.18L533.54 35.76V36.83L535.61 37.25H536.78V29.59H538.69V28.61H533.71V29.59Z"/>
<path transform="matrix(1,0,0,-1,0,400)" d="M543.55 36.48C543.55 36.48 542.65 36.48 542.19 35.58 542.19 35.58 541.74 34.7 541.74 32.92 541.74 32.92 541.74 31.14 542.19 30.25 542.19 30.25 542.65 29.36 543.55 29.36 543.55 29.36 544.46 29.36 544.91 30.25 544.91 30.25 545.37 31.14 545.37 32.92 545.37 32.92 545.37 34.7 544.91 35.58 544.91 35.58 544.46 36.48 543.55 36.48M543.55 37.4C543.55 37.4 545 37.4 545.76 36.25 545.76 36.25 546.53 35.1 546.53 32.92 546.53 32.92 546.53 30.73 545.76 29.58 545.76 29.58 545 28.44 543.55 28.44 543.55 28.44 542.1 28.44 541.33 29.58 541.33 29.58 540.56 30.73 540.56 32.92 540.56 32.92 540.56 35.1 541.33 36.25 541.33 36.25 542.1 37.4 543.55 37.4Z"/>
<path transform="matrix(1,0,0,-1,0,400)" d="M272.64 18.55V14.08H274.66C274.66 14.08 275.78 14.08 276.4 14.67 276.4 14.67 277.01 15.25 277.01 16.32 277.01 16.32 277.01 17.39 276.4 17.97 276.4 17.97 275.78 18.55 274.66 18.55H272.64M271.03 19.87H274.66C274.66 19.87 276.66 19.87 277.68 18.96 277.68 18.96 278.7 18.06 278.7 16.32 278.7 16.32 278.7 14.56 277.68 13.66 277.68 13.66 276.66 12.76 274.66 12.76H272.64V7.99H271.03V19.87Z"/>
<path transform="matrix(1,0,0,-1,0,400)" d="M284.12 12.47C284.12 12.47 282.34 12.47 281.66 12.06 281.66 12.06 280.97 11.66 280.97 10.68 280.97 10.68 280.97 9.9 281.48 9.44 281.48 9.44 282 8.98 282.88 8.98 282.88 8.98 284.1 8.98 284.83 9.84 284.83 9.84 285.57 10.71 285.57 12.14V12.47H284.12M287.04 13.07V7.99H285.57V9.34C285.57 9.34 285.07 8.53 284.32 8.14 284.32 8.14 283.57 7.76 282.49 7.76 282.49 7.76 281.12 7.76 280.31 8.52 280.31 8.52 279.51 9.29 279.51 10.58 279.51 10.58 279.51 12.09 280.51 12.85 280.51 12.85 281.52 13.61 283.52 13.61H285.57V13.76C285.57 13.76 285.57 14.77 284.9 15.32 284.9 15.32 284.24 15.87 283.04 15.87 283.04 15.87 282.28 15.87 281.55 15.69 281.55 15.69 280.83 15.51 280.16 15.14V16.5C280.16 16.5 280.96 16.81 281.72 16.96 281.72 16.96 282.48 17.12 283.19 17.12 283.19 17.12 285.13 17.12 286.08 16.11 286.08 16.11 287.04 15.11 287.04 13.07Z"/>
<path transform="matrix(1,0,0,-1,0,400)" d="M291.5 19.43V16.9H294.52V15.76H291.5V10.93C291.5 10.93 291.5 9.84 291.79 9.52 291.79 9.52 292.1 9.21 293.01 9.21H294.52V7.99H293.01C293.01 7.99 291.32 7.99 290.67 8.62 290.67 8.62 290.03 9.25 290.03 10.93V15.76H288.95V16.9H290.03V19.43H291.5Z"/>
<path transform="matrix(1,0,0,-1,0,400)" d="M296.44 16.9H297.91V7.99H296.44V16.9M296.44 20.37H297.91V18.52H296.44V20.37Z"/>
<path transform="matrix(1,0,0,-1,0,400)" d="M308.59 12.81V12.09H301.86C301.86 12.09 301.96 10.58 302.77 9.79 302.77 9.79 303.59 9 305.04 9 305.04 9 305.89 9 306.67 9.21 306.67 9.21 307.47 9.41 308.25 9.83V8.44C308.25 8.44 307.46 8.11 306.63 7.93 306.63 7.93 305.81 7.76 304.96 7.76 304.96 7.76 302.82 7.76 301.57 9 301.57 9 300.33 10.24 300.33 12.36 300.33 12.36 300.33 14.55 301.51 15.83 301.51 15.83 302.7 17.12 304.7 17.12 304.7 17.12 306.5 17.12 307.54 15.95 307.54 15.95 308.59 14.8 308.59 12.81M307.13 13.24C307.13 13.24 307.11 14.44 306.45 15.16 306.45 15.16 305.8 15.87 304.72 15.87 304.72 15.87 303.49 15.87 302.75 15.18 302.75 15.18 302.02 14.49 301.91 13.23L307.13 13.24Z"/>
<path transform="matrix(1,0,0,-1,0,400)" d="M318.4 13.37V7.99H316.94V13.32C316.94 13.32 316.94 14.59 316.45 15.21 316.45 15.21 315.95 15.84 314.97 15.84 314.97 15.84 313.78 15.84 313.1 15.09 313.1 15.09 312.41 14.33 312.41 13.03V7.99H310.94V16.9H312.41V15.52C312.41 15.52 312.94 16.32 313.64 16.72 313.64 16.72 314.36 17.12 315.29 17.12 315.29 17.12 316.83 17.12 317.62 16.16 317.62 16.16 318.4 15.21 318.4 13.37Z"/>
<path transform="matrix(1,0,0,-1,0,400)" d="M322.77 19.43V16.9H325.79V15.76H322.77V10.93C322.77 10.93 322.77 9.84 323.07 9.52 323.07 9.52 323.37 9.21 324.28 9.21H325.79V7.99H324.28C324.28 7.99 322.59 7.99 321.94 8.62 321.94 8.62 321.3 9.25 321.3 10.93V15.76H320.23V16.9H321.3V19.43H322.77Z"/>
<path transform="matrix(1,0,0,-1,0,400)" d="M332.96 19.87H334.56V7.99H332.96V19.87Z"/>
<path transform="matrix(1,0,0,-1,0,400)" d="M345.11 13.37V7.99H343.64V13.32C343.64 13.32 343.64 14.59 343.15 15.21 343.15 15.21 342.66 15.84 341.67 15.84 341.67 15.84 340.48 15.84 339.8 15.09 339.8 15.09 339.12 14.33 339.12 13.03V7.99H337.64V16.9H339.12V15.52C339.12 15.52 339.64 16.32 340.35 16.72 340.35 16.72 341.06 17.12 342 17.12 342 17.12 343.53 17.12 344.32 16.16 344.32 16.16 345.11 15.21 345.11 13.37Z"/>
<path transform="matrix(1,0,0,-1,0,400)" d="M353.89 15.55V20.37H355.36V7.99H353.89V9.33C353.89 9.33 353.43 8.53 352.72 8.14 352.72 8.14 352.02 7.76 351.04 7.76 351.04 7.76 349.42 7.76 348.4 9.05 348.4 9.05 347.39 10.34 347.39 12.44 347.39 12.44 347.39 14.54 348.4 15.83 348.4 15.83 349.42 17.12 351.04 17.12 351.04 17.12 352.02 17.12 352.72 16.73 352.72 16.73 353.43 16.34 353.89 15.55M348.9 12.44C348.9 12.44 348.9 10.82 349.56 9.9 349.56 9.9 350.23 8.98 351.39 8.98 351.39 8.98 352.55 8.98 353.22 9.9 353.22 9.9 353.89 10.82 353.89 12.44 353.89 12.44 353.89 14.05 353.22 14.97 353.22 14.97 352.55 15.89 351.39 15.89 351.39 15.89 350.23 15.89 349.56 14.97 349.56 14.97 348.9 14.05 348.9 12.44Z"/>
<path transform="matrix(1,0,0,-1,0,400)" d="M365.99 12.81V12.09H359.26C359.26 12.09 359.36 10.58 360.17 9.79 360.17 9.79 360.99 9 362.45 9 362.45 9 363.29 9 364.08 9.21 364.08 9.21 364.87 9.41 365.65 9.83V8.44C365.65 8.44 364.86 8.11 364.04 7.93 364.04 7.93 363.21 7.76 362.36 7.76 362.36 7.76 360.23 7.76 358.98 9 358.98 9 357.73 10.24 357.73 12.36 357.73 12.36 357.73 14.55 358.91 15.83 358.91 15.83 360.1 17.12 362.1 17.12 362.1 17.12 363.9 17.12 364.94 15.95 364.94 15.95 365.99 14.8 365.99 12.81M364.53 13.24C364.53 13.24 364.51 14.44 363.85 15.16 363.85 15.16 363.2 15.87 362.12 15.87 362.12 15.87 360.89 15.87 360.15 15.18 360.15 15.18 359.42 14.49 359.31 13.23L364.53 13.24Z"/>
<path transform="matrix(1,0,0,-1,0,400)" d="M375.52 16.9 372.3 12.56 375.69 7.99H373.96L371.37 11.49 368.77 7.99H367.04L370.51 12.65 367.34 16.9H369.07L371.43 13.73 373.79 16.9H375.52Z"/>
<path transform="matrix(1,0,0,-1,0,400)" stroke-width="1" stroke-linecap="round" stroke-linejoin="round" fill="none" stroke="#000000" d="M58.53 44.21V388.19"/>
<path transform="matrix(1,0,0,-1,0,400)" stroke-width="1" stroke-linecap="round" stroke-linejoin="round" fill="none" stroke="#000000" d="M58.53 44.21H63.26"/>
<path transform="matrix(1,0,0,-1,0,400)" stroke-width="1" stroke-linecap="round" stroke-linejoin="round" fill="none" stroke="#000000" d="M58.53 93.35H63.26"/>
<path transform="matrix(1,0,0,-1,0,400)" stroke-width="1" stroke-linecap="round" stroke-linejoin="round" fill="none" stroke="#000000" d="M58.53 142.49H63.26"/>
<path transform="matrix(1,0,0,-1,0,400)" stroke-width="1" stroke-linecap="round" stroke-linejoin="round" fill="none" stroke="#000000" d="M58.53 191.63H63.26"/>
<path transform="matrix(1,0,0,-1,0,400)" stroke-width="1" stroke-linecap="round" stroke-linejoin="round" fill="none" stroke="#000000" d="M58.53 240.77H63.26"/>
<path transform="matrix(1,0,0,-1,0,400)" stroke-width="1" stroke-linecap="round" stroke-linejoin="round" fill="none" stroke="#000000" d="M58.53 289.91H63.26"/>
<path transform="matrix(1,0,0,-1,0,400)" stroke-width="1" stroke-linecap="round" stroke-linejoin="round" fill="none" stroke="#000000" d="M58.53 339.05H63.26"/>
<path transform="matrix(1,0,0,-1,0,400)" stroke-width="1" stroke-linecap="round" stroke-linejoin="round" fill="none" stroke="#000000" d="M58.53 388.19H63.26"/>
<path transform="matrix(1,0,0,-1,0,400)" d="M46.55 47.76C46.55 47.76 45.64 47.76 45.19 46.86 45.19 46.86 44.73 45.98 44.73 44.2 44.73 44.2 44.73 42.42 45.19 41.53 45.19 41.53 45.64 40.64 46.55 40.64 46.55 40.64 47.45 40.64 47.91 41.53 47.91 41.53 48.36 42.42 48.36 44.2 48.36 44.2 48.36 45.98 47.91 46.86 47.91 46.86 47.45 47.76 46.55 47.76M46.55 48.68C46.55 48.68 48 48.68 48.76 47.53 48.76 47.53 49.53 46.38 49.53 44.2 49.53 44.2 49.53 42.01 48.76 40.86 48.76 40.86 48 39.72 46.55 39.72 46.55 39.72 45.09 39.72 44.32 40.86 44.32 40.86 43.56 42.01 43.56 44.2 43.56 44.2 43.56 46.38 44.32 47.53 44.32 47.53 45.09 48.68 46.55 48.68Z"/>
<path transform="matrix(1,0,0,-1,0,400)" d="M36.52 97.67H41.11V96.68H37.59V94.56C37.59 94.56 37.84 94.65 38.1 94.69 38.1 94.69 38.35 94.74 38.61 94.74 38.61 94.74 40.05 94.74 40.9 93.94 40.9 93.94 41.74 93.15 41.74 91.8 41.74 91.8 41.74 90.4 40.87 89.63 40.87 89.63 40.01 88.86 38.43 88.86 38.43 88.86 37.88 88.86 37.31 88.95 37.31 88.95 36.75 89.04 36.15 89.23V90.4C36.15 90.4 36.67 90.12 37.23 89.98 37.23 89.98 37.78 89.84 38.4 89.84 38.4 89.84 39.4 89.84 39.99 90.37 39.99 90.37 40.57 90.89 40.57 91.8 40.57 91.8 40.57 92.7 39.99 93.23 39.99 93.23 39.4 93.75 38.4 93.75 38.4 93.75 37.93 93.75 37.47 93.65 37.47 93.65 37 93.55 36.52 93.33V97.67Z"/>
<path transform="matrix(1,0,0,-1,0,400)" d="M46.55 96.9C46.55 96.9 45.64 96.9 45.19 96 45.19 96 44.73 95.12 44.73 93.34 44.73 93.34 44.73 91.56 45.19 90.67 45.19 90.67 45.64 89.78 46.55 89.78 46.55 89.78 47.45 89.78 47.91 90.67 47.91 90.67 48.36 91.56 48.36 93.34 48.36 93.34 48.36 95.12 47.91 96 47.91 96 47.45 96.9 46.55 96.9M46.55 97.82C46.55 97.82 48 97.82 48.76 96.67 48.76 96.67 49.53 95.52 49.53 93.34 49.53 93.34 49.53 91.16 48.76 90 48.76 90 48 88.86 46.55 88.86 46.55 88.86 45.09 88.86 44.32 90 44.32 90 43.56 91.16 43.56 93.34 43.56 93.34 43.56 95.52 44.32 96.67 44.32 96.67 45.09 97.82 46.55 97.82Z"/>
<path transform="matrix(1,0,0,-1,0,400)" d="M29.17 139.15H31.08V145.74L29 145.32V146.39L31.07 146.81H32.23V139.15H34.14V138.17H29.17V139.15Z"/>
<path transform="matrix(1,0,0,-1,0,400)" d="M39 146.04C39 146.04 38.1 146.04 37.64 145.15 37.64 145.15 37.19 144.26 37.19 142.48 37.19 142.48 37.19 140.7 37.64 139.81 37.64 139.81 38.1 138.92 39 138.92 39 138.92 39.91 138.92 40.36 139.81 40.36 139.81 40.82 140.7 40.82 142.48 40.82 142.48 40.82 144.26 40.36 145.15 40.36 145.15 39.91 146.04 39 146.04M39 146.96C39 146.96 40.46 146.96 41.22 145.81 41.22 145.81 41.99 144.66 41.99 142.48 41.99 142.48 41.99 140.3 41.22 139.14 41.22 139.14 40.46 138 39 138 39 138 37.55 138 36.78 139.14 36.78 139.14 36.02 140.3 36.02 142.48 36.02 142.48 36.02 144.66 36.78 145.81 36.78 145.81 37.55 146.96 39 146.96Z"/>
<path transform="matrix(1,0,0,-1,0,400)" d="M46.55 146.04C46.55 146.04 45.64 146.04 45.19 145.15 45.19 145.15 44.73 144.26 44.73 142.48 44.73 142.48 44.73 140.7 45.19 139.81 45.19 139.81 45.64 138.92 46.55 138.92 46.55 138.92 47.45 138.92 47.91 139.81 47.91 139.81 48.36 140.7 48.36 142.48 48.36 142.48 48.36 144.26 47.91 145.15 47.91 145.15 47.45 146.04 46.55 146.04M46.55 146.96C46.55 146.96 48 146.96 48.76 145.81 48.76 145.81 49.53 144.66 49.53 142.48 49.53 142.48 49.53 140.3 48.76 139.14 48.76 139.14 48 138 46.55 138 46.55 138 45.09 138 44.32 139.14 44.32 139.14 43.56 140.3 43.56 142.48 43.56 142.48 43.56 144.66 44.32 145.81 44.32 145.81 45.09 146.96 46.55 146.96Z"/>
<path transform="matrix(1,0,0,-1,0,400)" d="M29.17 188.29H31.08V194.88L29 194.47V195.53L31.07 195.95H32.23V188.29H34.14V187.31H29.17V188.29Z"/>
<path transform="matrix(1,0,0,-1,0,400)" d="M36.52 195.95H41.11V194.96H37.59V192.84C37.59 192.84 37.84 192.93 38.1 192.97 38.1 192.97 38.35 193.02 38.61 193.02 38.61 193.02 40.05 193.02 40.9 192.23 40.9 192.23 41.74 191.43 41.74 190.08 41.74 190.08 41.74 188.68 40.87 187.91 40.87 187.91 40.01 187.14 38.43 187.14 38.43 187.14 37.88 187.14 37.31 187.23 37.31 187.23 36.75 187.32 36.15 187.51V188.68C36.15 188.68 36.67 188.4 37.23 188.26 37.23 188.26 37.78 188.12 38.4 188.12 38.4 188.12 39.4 188.12 39.99 188.65 39.99 188.65 40.57 189.18 40.57 190.08 40.57 190.08 40.57 190.98 39.99 191.51 39.99 191.51 39.4 192.03 38.4 192.03 38.4 192.03 37.93 192.03 37.47 191.93 37.47 191.93 37 191.83 36.52 191.61V195.95Z"/>
<path transform="matrix(1,0,0,-1,0,400)" d="M46.55 195.18C46.55 195.18 45.64 195.18 45.19 194.29 45.19 194.29 44.73 193.4 44.73 191.62 44.73 191.62 44.73 189.84 45.19 188.95 45.19 188.95 45.64 188.06 46.55 188.06 46.55 188.06 47.45 188.06 47.91 188.95 47.91 188.95 48.36 189.84 48.36 191.62 48.36 191.62 48.36 193.4 47.91 194.29 47.91 194.29 47.45 195.18 46.55 195.18M46.55 196.1C46.55 196.1 48 196.1 48.76 194.95 48.76 194.95 49.53 193.81 49.53 191.62 49.53 191.62 49.53 189.44 48.76 188.28 48.76 188.28 48 187.14 46.55 187.14 46.55 187.14 45.09 187.14 44.32 188.28 44.32 188.28 43.56 189.44 43.56 191.62 43.56 191.62 43.56 193.81 44.32 194.95 44.32 194.95 45.09 196.1 46.55 196.1Z"/>
<path transform="matrix(1,0,0,-1,0,400)" d="M29.97 237.43H34.05V236.45H28.57V237.43C28.57 237.43 29.23 238.12 30.38 239.28 30.38 239.28 31.53 240.44 31.82 240.78 31.82 240.78 32.38 241.41 32.6 241.84 32.6 241.84 32.83 242.28 32.83 242.7 32.83 242.7 32.83 243.39 32.34 243.83 32.34 243.83 31.86 244.26 31.09 244.26 31.09 244.26 30.54 244.26 29.92 244.07 29.92 244.07 29.32 243.88 28.62 243.49V244.67C28.62 244.67 29.33 244.95 29.94 245.1 29.94 245.1 30.56 245.24 31.07 245.24 31.07 245.24 32.41 245.24 33.21 244.57 33.21 244.57 34 243.9 34 242.78 34 242.78 34 242.25 33.8 241.77 33.8 241.77 33.61 241.29 33.08 240.64 33.08 240.64 32.93 240.48 32.16 239.67 32.16 239.67 31.38 238.87 29.97 237.43Z"/>
<path transform="matrix(1,0,0,-1,0,400)" d="M39 244.32C39 244.32 38.1 244.32 37.64 243.43 37.64 243.43 37.19 242.54 37.19 240.76 37.19 240.76 37.19 238.98 37.64 238.09 37.64 238.09 38.1 237.21 39 237.21 39 237.21 39.91 237.21 40.36 238.09 40.36 238.09 40.82 238.98 40.82 240.76 40.82 240.76 40.82 242.54 40.36 243.43 40.36 243.43 39.91 244.32 39 244.32M39 245.24C39 245.24 40.46 245.24 41.22 244.09 41.22 244.09 41.99 242.95 41.99 240.76 41.99 240.76 41.99 238.58 41.22 237.43 41.22 237.43 40.46 236.28 39 236.28 39 236.28 37.55 236.28 36.78 237.43 36.78 237.43 36.02 238.58 36.02 240.76 36.02 240.76 36.02 242.95 36.78 244.09 36.78 244.09 37.55 245.24 39 245.24Z"/>
<path transform="matrix(1,0,0,-1,0,400)" d="M46.55 244.32C46.55 244.32 45.64 244.32 45.19 243.43 45.19 243.43 44.73 242.54 44.73 240.76 44.73 240.76 44.73 238.98 45.19 238.09 45.19 238.09 45.64 237.21 46.55 237.21 46.55 237.21 47.45 237.21 47.91 238.09 47.91 238.09 48.36 238.98 48.36 240.76 48.36 240.76 48.36 242.54 47.91 243.43 47.91 243.43 47.45 244.32 46.55 244.32M46.55 245.24C46.55 245.24 48 245.24 48.76 244.09 48.76 244.09 49.53 242.95 49.53 240.76 49.53 240.76 49.53 238.58 48.76 237.43 48.76 237.43 48 236.28 46.55 236.28 46.55 236.28 45.09 236.28 44.32 237.43 44.32 237.43 43.56 238.58 43.56 240.76 43.56 240.76 43.56 242.95 44.32 244.09 44.32 244.09 45.09 245.24 46.55 245.24Z"/>
<path transform="matrix(1,0,0,-1,0,400)" d="M29.97 286.57H34.05V285.59H28.57V286.57C28.57 286.57 29.23 287.26 30.38 288.42 30.38 288.42 31.53 289.58 31.82 289.92 31.82 289.92 32.38 290.55 32.6 290.98 32.6 290.98 32.83 291.42 32.83 291.84 32.83 291.84 32.83 292.53 32.34 292.97 32.34 292.97 31.86 293.4 31.09 293.4 31.09 293.4 30.54 293.4 29.92 293.21 29.92 293.21 29.32 293.02 28.62 292.63V293.81C28.62 293.81 29.33 294.09 29.94 294.24 29.94 294.24 30.56 294.38 31.07 294.38 31.07 294.38 32.41 294.38 33.21 293.71 33.21 293.71 34 293.04 34 291.92 34 291.92 34 291.39 33.8 290.91 33.8 290.91 33.61 290.43 33.08 289.78 33.08 289.78 32.93 289.62 32.16 288.81 32.16 288.81 31.38 288.01 29.97 286.57Z"/>
<path transform="matrix(1,0,0,-1,0,400)" d="M36.52 294.23H41.11V293.24H37.59V291.13C37.59 291.13 37.84 291.21 38.1 291.25 38.1 291.25 38.35 291.3 38.61 291.3 38.61 291.3 40.05 291.3 40.9 290.51 40.9 290.51 41.74 289.71 41.74 288.36 41.74 288.36 41.74 286.97 40.87 286.19 40.87 286.19 40.01 285.42 38.43 285.42 38.43 285.42 37.88 285.42 37.31 285.51 37.31 285.51 36.75 285.61 36.15 285.79V286.97C36.15 286.97 36.67 286.68 37.23 286.54 37.23 286.54 37.78 286.4 38.4 286.4 38.4 286.4 39.4 286.4 39.99 286.93 39.99 286.93 40.57 287.46 40.57 288.36 40.57 288.36 40.57 289.26 39.99 289.79 39.99 289.79 39.4 290.32 38.4 290.32 38.4 290.32 37.93 290.32 37.47 290.21 37.47 290.21 37 290.11 36.52 289.89V294.23Z"/>
<path transform="matrix(1,0,0,-1,0,400)" d="M46.55 293.46C46.55 293.46 45.64 293.46 45.19 292.57 45.19 292.57 44.73 291.68 44.73 289.9 44.73 289.9 44.73 288.12 45.19 287.23 45.19 287.23 45.64 286.35 46.55 286.35 46.55 286.35 47.45 286.35 47.91 287.23 47.91 287.23 48.36 288.12 48.36 289.9 48.36 289.9 48.36 291.68 47.91 292.57 47.91 292.57 47.45 293.46 46.55 293.46M46.55 294.38C46.55 294.38 48 294.38 48.76 293.23 48.76 293.23 49.53 292.09 49.53 289.9 49.53 289.9 49.53 287.72 48.76 286.57 48.76 286.57 48 285.42 46.55 285.42 46.55 285.42 45.09 285.42 44.32 286.57 44.32 286.57 43.56 287.72 43.56 289.9 43.56 289.9 43.56 292.09 44.32 293.23 44.32 293.23 45.09 294.38 46.55 294.38Z"/>
<path transform="matrix(1,0,0,-1,0,400)" d="M32.51 339.39C32.51 339.39 33.35 339.21 33.81 338.64 33.81 338.64 34.29 338.07 34.29 337.24 34.29 337.24 34.29 335.96 33.41 335.26 33.41 335.26 32.53 334.56 30.91 334.56 30.91 334.56 30.36 334.56 29.79 334.67 29.79 334.67 29.21 334.77 28.6 334.99V336.12C28.6 336.12 29.09 335.83 29.66 335.69 29.66 335.69 30.24 335.54 30.87 335.54 30.87 335.54 31.97 335.54 32.55 335.98 32.55 335.98 33.13 336.41 33.13 337.24 33.13 337.24 33.13 338 32.59 338.43 32.59 338.43 32.05 338.87 31.1 338.87H30.09V339.83H31.15C31.15 339.83 32.01 339.83 32.47 340.17 32.47 340.17 32.92 340.52 32.92 341.16 32.92 341.16 32.92 341.83 32.45 342.18 32.45 342.18 31.98 342.54 31.1 342.54 31.1 342.54 30.62 342.54 30.07 342.44 30.07 342.44 29.52 342.33 28.86 342.11V343.15C28.86 343.15 29.53 343.34 30.1 343.43 30.1 343.43 30.69 343.52 31.2 343.52 31.2 343.52 32.53 343.52 33.31 342.92 33.31 342.92 34.09 342.32 34.09 341.29 34.09 341.29 34.09 340.57 33.67 340.07 33.67 340.07 33.26 339.58 32.51 339.39Z"/>
<path transform="matrix(1,0,0,-1,0,400)" d="M39 342.6C39 342.6 38.1 342.6 37.64 341.71 37.64 341.71 37.19 340.82 37.19 339.04 37.19 339.04 37.19 337.26 37.64 336.37 37.64 336.37 38.1 335.49 39 335.49 39 335.49 39.91 335.49 40.36 336.37 40.36 336.37 40.82 337.26 40.82 339.04 40.82 339.04 40.82 340.82 40.36 341.71 40.36 341.71 39.91 342.6 39 342.6M39 343.52C39 343.52 40.46 343.52 41.22 342.37 41.22 342.37 41.99 341.23 41.99 339.04 41.99 339.04 41.99 336.86 41.22 335.71 41.22 335.71 40.46 334.56 39 334.56 39 334.56 37.55 334.56 36.78 335.71 36.78 335.71 36.02 336.86 36.02 339.04 36.02 339.04 36.02 341.23 36.78 342.37 36.78 342.37 37.55 343.52 39 343.52Z"/>
<path transform="matrix(1,0,0,-1,0,400)" d="M46.55 342.6C46.55 342.6 45.64 342.6 45.19 341.71 45.19 341.71 44.73 340.82 44.73 339.04 44.73 339.04 44.73 337.26 45.19 336.37 45.19 336.37 45.64 335.49 46.55 335.49 46.55 335.49 47.45 335.49 47.91 336.37 47.91 336.37 48.36 337.26 48.36 339.04 48.36 339.04 48.36 340.82 47.91 341.71 47.91 341.71 47.45 342.6 46.55 342.6M46.55 343.52C46.55 343.52 48 343.52 48.76 342.37 48.76 342.37 49.53 341.23 49.53 339.04 49.53 339.04 49.53 336.86 48.76 335.71 48.76 335.71 48 334.56 46.55 334.56 46.55 334.56 45.09 334.56 44.32 335.71 44.32 335.71 43.56 336.86 43.56 339.04 43.56 339.04 43.56 341.23 44.32 342.37 44.32 342.37 45.09 343.52 46.55 343.52Z"/>
<path transform="matrix(1,0,0,-1,0,400)" d="M32.51 388.53C32.51 388.53 33.35 388.35 33.81 387.78 33.81 387.78 34.29 387.21 34.29 386.38 34.29 386.38 34.29 385.1 33.41 384.4 33.41 384.4 32.53 383.7 30.91 383.7 30.91 383.7 30.36 383.7 29.79 383.81 29.79 383.81 29.21 383.92 28.6 384.13V385.26C28.6 385.26 29.09 384.97 29.66 384.83 29.66 384.83 30.24 384.68 30.87 384.68 30.87 384.68 31.97 384.68 32.55 385.12 32.55 385.12 33.13 385.55 33.13 386.38 33.13 386.38 33.13 387.14 32.59 387.57 32.59 387.57 32.05 388.01 31.1 388.01H30.09V388.97H31.15C31.15 388.97 32.01 388.97 32.47 389.31 32.47 389.31 32.92 389.66 32.92 390.3 32.92 390.3 32.92 390.97 32.45 391.32 32.45 391.32 31.98 391.68 31.1 391.68 31.1 391.68 30.62 391.68 30.07 391.58 30.07 391.58 29.52 391.47 28.86 391.25V392.29C28.86 392.29 29.53 392.48 30.1 392.57 30.1 392.57 30.69 392.67 31.2 392.67 31.2 392.67 32.53 392.67 33.31 392.06 33.31 392.06 34.09 391.46 34.09 390.43 34.09 390.43 34.09 389.71 33.67 389.21 33.67 389.21 33.26 388.72 32.51 388.53Z"/>
<path transform="matrix(1,0,0,-1,0,400)" d="M36.52 392.51H41.11V391.53H37.59V389.41C37.59 389.41 37.84 389.49 38.1 389.53 38.1 389.53 38.35 389.58 38.61 389.58 38.61 389.58 40.05 389.58 40.9 388.79 40.9 388.79 41.74 388 41.74 386.64 41.74 386.64 41.74 385.25 40.87 384.47 40.87 384.47 40.01 383.7 38.43 383.7 38.43 383.7 37.88 383.7 37.31 383.79 37.31 383.79 36.75 383.89 36.15 384.07V385.25C36.15 385.25 36.67 384.96 37.23 384.82 37.23 384.82 37.78 384.68 38.4 384.68 38.4 384.68 39.4 384.68 39.99 385.21 39.99 385.21 40.57 385.74 40.57 386.64 40.57 386.64 40.57 387.54 39.99 388.07 39.99 388.07 39.4 388.6 38.4 388.6 38.4 388.6 37.93 388.6 37.47 388.49 37.47 388.49 37 388.39 36.52 388.17V392.51Z"/>
<path transform="matrix(1,0,0,-1,0,400)" d="M46.55 391.74C46.55 391.74 45.64 391.74 45.19 390.85 45.19 390.85 44.73 389.96 44.73 388.18 44.73 388.18 44.73 386.4 45.19 385.51 45.19 385.51 45.64 384.63 46.55 384.63 46.55 384.63 47.45 384.63 47.91 385.51 47.91 385.51 48.36 386.4 48.36 388.18 48.36 388.18 48.36 389.96 47.91 390.85 47.91 390.85 47.45 391.74 46.55 391.74M46.55 392.67C46.55 392.67 48 392.67 48.76 391.51 48.76 391.51 49.53 390.37 49.53 388.18 49.53 388.18 49.53 386 48.76 384.85 48.76 384.85 48 383.7 46.55 383.7 46.55 383.7 45.09 383.7 44.32 384.85 44.32 384.85 43.56 386 43.56 388.18 43.56 388.18 43.56 390.37 44.32 391.51 44.32 391.51 45.09 392.67 46.55 392.67Z"/>
<path transform="matrix(1,0,0,-1,0,400)" d="M4.12 139.33V141.73L12.21 144.76 4.12 147.81V150.2H16V148.63H5.57L13.72 145.57V143.95L5.57 140.89H16V139.33H4.12Z"/>
<path transform="matrix(1,0,0,-1,0,400)" d="M11.52 157.38C11.52 157.38 11.52 155.6 11.93 154.92 11.93 154.92 12.33 154.23 13.31 154.23 13.31 154.23 14.09 154.23 14.55 154.74 14.55 154.74 15.01 155.26 15.01 156.14 15.01 156.14 15.01 157.36 14.15 158.09 14.15 158.09 13.28 158.83 11.85 158.83H11.52V157.38M10.92 160.3H16V158.83H14.65C14.65 158.83 15.46 158.33 15.85 157.58 15.85 157.58 16.23 156.84 16.23 155.75 16.23 155.75 16.23 154.39 15.47 153.57 15.47 153.57 14.7 152.77 13.41 152.77 13.41 152.77 11.9 152.77 11.14 153.77 11.14 153.77 10.38 154.78 10.38 156.78V158.83H10.23C10.23 158.83 9.22 158.83 8.67 158.17 8.67 158.17 8.12 157.51 8.12 156.3 8.12 156.3 8.12 155.54 8.3 154.82 8.3 154.82 8.48 154.09 8.85 153.42H7.49C7.49 153.42 7.18 154.23 7.03 154.98 7.03 154.98 6.87 155.74 6.87 156.45 6.87 156.45 6.87 158.39 7.88 159.34 7.88 159.34 8.88 160.3 10.92 160.3Z"/>
<path transform="matrix(1,0,0,-1,0,400)" d="M7.09 170.72 11.43 167.5 16 170.89V169.16L12.5 166.57 16 163.97V162.25L11.34 165.71 7.09 162.54V164.27L10.26 166.63 7.09 169V170.72Z"/>
<path transform="matrix(1,0,0,-1,0,400)" d="M7.09 172.96V174.42H16V172.96H7.09M3.62 172.96V174.42H5.47V172.96H3.62Z"/>
<path transform="matrix(1,0,0,-1,0,400)" d="M8.8 184.42C8.8 184.42 7.81 184.97 7.34 185.74 7.34 185.74 6.87 186.5 6.87 187.54 6.87 187.54 6.87 188.93 7.85 189.68 7.85 189.68 8.82 190.44 10.62 190.44H16V188.97H10.67C10.67 188.97 9.39 188.97 8.77 188.51 8.77 188.51 8.15 188.06 8.15 187.13 8.15 187.13 8.15 185.99 8.9 185.33 8.9 185.33 9.66 184.67 10.96 184.67H16V183.2H10.67C10.67 183.2 9.38 183.2 8.77 182.75 8.77 182.75 8.15 182.29 8.15 181.34 8.15 181.34 8.15 180.22 8.91 179.56 8.91 179.56 9.67 178.9 10.96 178.9H16V177.43H7.09V178.9H8.47C8.47 178.9 7.65 179.4 7.26 180.1 7.26 180.1 6.87 180.8 6.87 181.77 6.87 181.77 6.87 182.74 7.37 183.41 7.37 183.41 7.86 184.1 8.8 184.42Z"/>
<path transform="matrix(1,0,0,-1,0,400)" d="M12.48 193.21H7.09V194.67H12.43C12.43 194.67 13.69 194.67 14.33 195.17 14.33 195.17 14.96 195.66 14.96 196.65 14.96 196.65 14.96 197.83 14.2 198.52 14.2 198.52 13.45 199.21 12.14 199.21H7.09V200.67H16V199.21H14.63C14.63 199.21 15.44 198.68 15.84 197.97 15.84 197.97 16.23 197.27 16.23 196.34 16.23 196.34 16.23 194.8 15.28 194 15.28 194 14.32 193.21 12.48 193.21M6.87 196.89V196.89Z"/>
<path transform="matrix(1,0,0,-1,0,400)" d="M8.8 210.63C8.8 210.63 7.81 211.18 7.34 211.94 7.34 211.94 6.87 212.7 6.87 213.74 6.87 213.74 6.87 215.13 7.85 215.89 7.85 215.89 8.82 216.64 10.62 216.64H16V215.17H10.67C10.67 215.17 9.39 215.17 8.77 214.72 8.77 214.72 8.15 214.26 8.15 213.33 8.15 213.33 8.15 212.19 8.9 211.53 8.9 211.53 9.66 210.87 10.96 210.87H16V209.4H10.67C10.67 209.4 9.38 209.4 8.77 208.95 8.77 208.95 8.15 208.49 8.15 207.55 8.15 207.55 8.15 206.43 8.91 205.77 8.91 205.77 9.67 205.1 10.96 205.1H16V203.63H7.09V205.1H8.47C8.47 205.1 7.65 205.61 7.26 206.31 7.26 206.31 6.87 207.01 6.87 207.97 6.87 207.97 6.87 208.94 7.37 209.62 7.37 209.62 7.86 210.3 8.8 210.63Z"/>
<path transform="matrix(1,0,0,-1,0,400)" d="M4.12 224.81V231.63H5.47V226.41H8.97V231.12H10.33V226.41H16V224.81H4.12Z"/>
<path transform="matrix(1,0,0,-1,0,400)" d="M4.12 234.18V235.79H16V234.18H4.12Z"/>
<path transform="matrix(1,0,0,-1,0,400)" d="M4.12 238.99V240.59H16V238.99H4.12Z"/>
<path transform="matrix(1,0,0,-1,0,400)" d="M11.52 247.78C11.52 247.78 11.52 246 11.93 245.32 11.93 245.32 12.33 244.64 13.31 244.64 13.31 244.64 14.09 244.64 14.55 245.15 14.55 245.15 15.01 245.66 15.01 246.55 15.01 246.55 15.01 247.76 14.15 248.5 14.15 248.5 13.28 249.24 11.85 249.24H11.52V247.78M10.92 250.7H16V249.24H14.65C14.65 249.24 15.46 248.73 15.85 247.99 15.85 247.99 16.23 247.24 16.23 246.16 16.23 246.16 16.23 244.79 15.47 243.98 15.47 243.98 14.7 243.17 13.41 243.17 13.41 243.17 11.9 243.17 11.14 244.17 11.14 244.17 10.38 245.18 10.38 247.18V249.24H10.23C10.23 249.24 9.22 249.24 8.67 248.57 8.67 248.57 8.12 247.91 8.12 246.7 8.12 246.7 8.12 245.94 8.3 245.22 8.3 245.22 8.48 244.49 8.85 243.82H7.49C7.49 243.82 7.18 244.63 7.03 245.38 7.03 245.38 6.87 246.14 6.87 246.86 6.87 246.86 6.87 248.79 7.88 249.74 7.88 249.74 8.88 250.7 10.92 250.7Z"/>
<path transform="matrix(1,0,0,-1,0,400)" d="M3.64 262.41C3.64 262.41 5.47 261.35 7.26 260.83 7.26 260.83 9.05 260.31 10.88 260.31 10.88 260.31 12.72 260.31 14.53 260.83 14.53 260.83 16.33 261.35 18.15 262.41V261.14C18.15 261.14 16.28 259.95 14.47 259.35 14.47 259.35 12.67 258.76 10.88 258.76 10.88 258.76 9.11 258.76 7.31 259.35 7.31 259.35 5.51 259.94 3.64 261.14V262.41Z"/>
<path transform="matrix(1,0,0,-1,0,400)" d="M10.62 272.66H16V271.2H10.67C10.67 271.2 9.4 271.2 8.78 270.7 8.78 270.7 8.15 270.21 8.15 269.22 8.15 269.22 8.15 268.04 8.9 267.35 8.9 267.35 9.66 266.67 10.96 266.67H16V265.2H7.09V266.67H8.47C8.47 266.67 7.67 267.19 7.27 267.9 7.27 267.9 6.87 268.62 6.87 269.55 6.87 269.55 6.87 271.09 7.83 271.87 7.83 271.87 8.78 272.66 10.62 272.66Z"/>
<path transform="matrix(1,0,0,-1,0,400)" d="M4.12 275.64V278.04L12.21 281.07 4.12 284.12V286.51H16V284.95H5.57L13.72 281.88V280.27L5.57 277.2H16V275.64H4.12Z"/>
<path transform="matrix(1,0,0,-1,0,400)" d="M3.64 289.41V290.68C3.64 290.68 5.51 291.88 7.31 292.47 7.31 292.47 9.11 293.06 10.88 293.06 10.88 293.06 12.67 293.06 14.47 292.47 14.47 292.47 16.28 291.88 18.15 290.68V289.41C18.15 289.41 16.33 290.47 14.53 290.99 14.53 290.99 12.72 291.51 10.88 291.51 10.88 291.51 9.05 291.51 7.26 290.99 7.26 290.99 5.47 290.47 3.64 289.41Z"/>
<g clip-path="url(#clip_3)">
<path transform="matrix(1,0,0,-1,0,400)" d="M90.55 254.75V44.21H106.68V254.75H90.55" fill="#1b1b1b" fill-rule="evenodd"/>
</g>
<path transform="matrix(1,0,0,-1,0,400)" stroke-width="0" stroke-linecap="round" stroke-linejoin="round" fill="none" stroke="#000000" d="M90.55 254.75V44.21H106.68V254.75H90.55"/>
<g clip-path="url(#clip_4)">
<path transform="matrix(1,0,0,-1,0,400)" d="M138.7 262.51V44.21H154.83V262.51H138.7" fill="#1b1b1b" fill-rule="evenodd"/>
</g>
<path transform="matrix(1,0,0,-1,0,400)" stroke-width="0" stroke-linecap="round" stroke-linejoin="round" fill="none" stroke="#000000" d="M138.7 262.51V44.21H154.83V262.51H138.7"/>
<g clip-path="url(#clip_5)">
<path transform="matrix(1,0,0,-1,0,400)" d="M186.85 312.53V44.21H202.98V312.53H186.85" fill="#1b1b1b" fill-rule="evenodd"/>
</g>
<path transform="matrix(1,0,0,-1,0,400)" stroke-width="0" stroke-linecap="round" stroke-linejoin="round" fill="none" stroke="#000000" d="M186.85 312.53V44.21H202.98V312.53H186.85"/>
<g clip-path="url(#clip_6)">
<path transform="matrix(1,0,0,-1,0,400)" d="M235 264.05V44.21H251.13V264.05H235" fill="#1b1b1b" fill-rule="evenodd"/>
</g>
<path transform="matrix(1,0,0,-1,0,400)" stroke-width="0" stroke-linecap="round" stroke-linejoin="round" fill="none" stroke="#000000" d="M235 264.05V44.21H251.13V264.05H235"/>
<g clip-path="url(#clip_7)">
<path transform="matrix(1,0,0,-1,0,400)" d="M283.15 321.77V44.21H299.28V321.77H283.15" fill="#1b1b1b" fill-rule="evenodd"/>
</g>
<path transform="matrix(1,0,0,-1,0,400)" stroke-width="0" stroke-linecap="round" stroke-linejoin="round" fill="none" stroke="#000000" d="M283.15 321.77V44.21H299.28V321.77H283.15"/>
<g clip-path="url(#clip_8)">
<path transform="matrix(1,0,0,-1,0,400)" d="M331.31 263.26V44.21H347.44V263.26H331.31" fill="#1b1b1b" fill-rule="evenodd"/>
</g>
<path transform="matrix(1,0,0,-1,0,400)" stroke-width="0" stroke-linecap="round" stroke-linejoin="round" fill="none" stroke="#000000" d="M331.31 263.26V44.21H347.44V263.26H331.31"/>
<g clip-path="url(#clip_9)">
<path transform="matrix(1,0,0,-1,0,400)" d="M379.46 256.55V44.21H395.59V256.55H379.46" fill="#1b1b1b" fill-rule="evenodd"/>
</g>
<path transform="matrix(1,0,0,-1,0,400)" stroke-width="0" stroke-linecap="round" stroke-linejoin="round" fill="none" stroke="#000000" d="M379.46 256.55V44.21H395.59V256.55H379.46"/>
<g clip-path="url(#clip_10)">
<path transform="matrix(1,0,0,-1,0,400)" d="M427.61 177.09V44.21H443.74V177.09H427.61" fill="#1b1b1b" fill-rule="evenodd"/>
</g>
<path transform="matrix(1,0,0,-1,0,400)" stroke-width="0" stroke-linecap="round" stroke-linejoin="round" fill="none" stroke="#000000" d="M427.61 177.09V44.21H443.74V177.09H427.61"/>
<g clip-path="url(#clip_11)">
<path transform="matrix(1,0,0,-1,0,400)" d="M475.76 264.77V44.21H491.89V264.77H475.76" fill="#1b1b1b" fill-rule="evenodd"/>
</g>
<path transform="matrix(1,0,0,-1,0,400)" stroke-width="0" stroke-linecap="round" stroke-linejoin="round" fill="none" stroke="#000000" d="M475.76 264.77V44.21H491.89V264.77H475.76"/>
<g clip-path="url(#clip_12)">
<path transform="matrix(1,0,0,-1,0,400)" d="M523.91 295.8V44.21H540.04V295.8H523.91" fill="#1b1b1b" fill-rule="evenodd"/>
</g>
<path transform="matrix(1,0,0,-1,0,400)" stroke-width="0" stroke-linecap="round" stroke-linejoin="round" fill="none" stroke="#000000" d="M523.91 295.8V44.21H540.04V295.8H523.91"/>
<path transform="matrix(1,0,0,-1,0,400)" stroke-width=".8" stroke-linecap="round" stroke-linejoin="round" fill="none" stroke="#1b1b1b" stroke-opacity="0" d="M98.62 254.75V254.75"/>
<path transform="matrix(1,0,0,-1,0,400)" stroke-width=".8" stroke-linecap="round" stroke-linejoin="round" fill="none" stroke="#1b1b1b" stroke-opacity="0" d="M146.77 262.51V262.51"/>
<path transform="matrix(1,0,0,-1,0,400)" stroke-width=".8" stroke-linecap="round" stroke-linejoin="round" fill="none" stroke="#1b1b1b" stroke-opacity="0" d="M194.92 312.53V312.53"/>
<path transform="matrix(1,0,0,-1,0,400)" stroke-width=".8" stroke-linecap="round" stroke-linejoin="round" fill="none" stroke="#1b1b1b" stroke-opacity="0" d="M243.07 264.05V264.05"/>
<path transform="matrix(1,0,0,-1,0,400)" stroke-width=".8" stroke-linecap="round" stroke-linejoin="round" fill="none" stroke="#1b1b1b" stroke-opacity="0" d="M291.22 321.77V321.77"/>
<path transform="matrix(1,0,0,-1,0,400)" stroke-width=".8" stroke-linecap="round" stroke-linejoin="round" fill="none" stroke="#1b1b1b" stroke-opacity="0" d="M339.37 263.26V263.26"/>
<path transform="matrix(1,0,0,-1,0,400)" stroke-width=".8" stroke-linecap="round" stroke-linejoin="round" fill="none" stroke="#1b1b1b" stroke-opacity="0" d="M387.52 256.55V256.55"/>
<path transform="matrix(1,0,0,-1,0,400)" stroke-width=".8" stroke-linecap="round" stroke-linejoin="round" fill="none" stroke="#1b1b1b" stroke-opacity="0" d="M435.67 177.09V177.09"/>
<path transform="matrix(1,0,0,-1,0,400)" stroke-width=".8" stroke-linecap="round" stroke-linejoin="round" fill="none" stroke="#1b1b1b" stroke-opacity="0" d="M483.82 264.77V264.77"/>
<path transform="matrix(1,0,0,-1,0,400)" stroke-width=".8" stroke-linecap="round" stroke-linejoin="round" fill="none" stroke="#1b1b1b" stroke-opacity="0" d="M531.97 295.8V295.8"/>
<g clip-path="url(#clip_13)">
<path transform="matrix(1,0,0,-1,0,400)" d="M106.68 255.71V44.21H122.81V255.71H106.68" fill="#a2a2a2" fill-rule="evenodd"/>
</g>
<path transform="matrix(1,0,0,-1,0,400)" stroke-width="0" stroke-linecap="round" stroke-linejoin="round" fill="none" stroke="#000000" d="M106.68 255.71V44.21H122.81V255.71H106.68"/>
<g clip-path="url(#clip_14)">
<path transform="matrix(1,0,0,-1,0,400)" d="M154.83 263.26V44.21H170.96V263.26H154.83" fill="#a2a2a2" fill-rule="evenodd"/>
</g>
<path transform="matrix(1,0,0,-1,0,400)" stroke-width="0" stroke-linecap="round" stroke-linejoin="round" fill="none" stroke="#000000" d="M154.83 263.26V44.21H170.96V263.26H154.83"/>
<g clip-path="url(#clip_15)">
<path transform="matrix(1,0,0,-1,0,400)" d="M202.98 312.57V44.21H219.11V312.57H202.98" fill="#a2a2a2" fill-rule="evenodd"/>
</g>
<path transform="matrix(1,0,0,-1,0,400)" stroke-width="0" stroke-linecap="round" stroke-linejoin="round" fill="none" stroke="#000000" d="M202.98 312.57V44.21H219.11V312.57H202.98"/>
<g clip-path="url(#clip_16)">
<path transform="matrix(1,0,0,-1,0,400)" d="M251.13 264.73V44.21H267.26V264.73H251.13" fill="#a2a2a2" fill-rule="evenodd"/>
</g>
<path transform="matrix(1,0,0,-1,0,400)" stroke-width="0" stroke-linecap="round" stroke-linejoin="round" fill="none" stroke="#000000" d="M251.13 264.73V44.21H267.26V264.73H251.13"/>
<g clip-path="url(#clip_17)">
<path transform="matrix(1,0,0,-1,0,400)" d="M299.28 323.8V44.21H315.42V323.8H299.28" fill="#a2a2a2" fill-rule="evenodd"/>
</g>
<path transform="matrix(1,0,0,-1,0,400)" stroke-width="0" stroke-linecap="round" stroke-linejoin="round" fill="none" stroke="#000000" d="M299.28 323.8V44.21H315.42V323.8H299.28"/>
<g clip-path="url(#clip_18)">
<path transform="matrix(1,0,0,-1,0,400)" d="M347.44 263.77V44.21H363.57V263.77H347.44" fill="#a2a2a2" fill-rule="evenodd"/>
</g>
<path transform="matrix(1,0,0,-1,0,400)" stroke-width="0" stroke-linecap="round" stroke-linejoin="round" fill="none" stroke="#000000" d="M347.44 263.77V44.21H363.57V263.77H347.44"/>
<g clip-path="url(#clip_19)">
<path transform="matrix(1,0,0,-1,0,400)" d="M395.59 257.61V44.21H411.72V257.61H395.59" fill="#a2a2a2" fill-rule="evenodd"/>
</g>
<path transform="matrix(1,0,0,-1,0,400)" stroke-width="0" stroke-linecap="round" stroke-linejoin="round" fill="none" stroke="#000000" d="M395.59 257.61V44.21H411.72V257.61H395.59"/>
<g clip-path="url(#clip_20)">
<path transform="matrix(1,0,0,-1,0,400)" d="M443.74 183.01V44.21H459.87V183.01H443.74" fill="#a2a2a2" fill-rule="evenodd"/>
</g>
<path transform="matrix(1,0,0,-1,0,400)" stroke-width="0" stroke-linecap="round" stroke-linejoin="round" fill="none" stroke="#000000" d="M443.74 183.01V44.21H459.87V183.01H443.74"/>
<g clip-path="url(#clip_21)">
<path transform="matrix(1,0,0,-1,0,400)" d="M491.89 265.13V44.21H508.02V265.13H491.89" fill="#a2a2a2" fill-rule="evenodd"/>
</g>
<path transform="matrix(1,0,0,-1,0,400)" stroke-width="0" stroke-linecap="round" stroke-linejoin="round" fill="none" stroke="#000000" d="M491.89 265.13V44.21H508.02V265.13H491.89"/>
<g clip-path="url(#clip_22)">
<path transform="matrix(1,0,0,-1,0,400)" d="M540.04 296.78V44.21H556.17V296.78H540.04" fill="#a2a2a2" fill-rule="evenodd"/>
</g>
<path transform="matrix(1,0,0,-1,0,400)" stroke-width="0" stroke-linecap="round" stroke-linejoin="round" fill="none" stroke="#000000" d="M540.04 296.78V44.21H556.17V296.78H540.04"/>
<path transform="matrix(1,0,0,-1,0,400)" stroke-width=".8" stroke-linecap="round" stroke-linejoin="round" fill="none" stroke="#a2a2a2" stroke-opacity="0" d="M114.75 255.71V255.71"/>
<path transform="matrix(1,0,0,-1,0,400)" stroke-width=".8" stroke-linecap="round" stroke-linejoin="round" fill="none" stroke="#a2a2a2" stroke-opacity="0" d="M162.9 263.26V263.26"/>
<path transform="matrix(1,0,0,-1,0,400)" stroke-width=".8" stroke-linecap="round" stroke-linejoin="round" fill="none" stroke="#a2a2a2" stroke-opacity="0" d="M211.05 312.57V312.57"/>
<path transform="matrix(1,0,0,-1,0,400)" stroke-width=".8" stroke-linecap="round" stroke-linejoin="round" fill="none" stroke="#a2a2a2" stroke-opacity="0" d="M259.2 264.73V264.73"/>
<path transform="matrix(1,0,0,-1,0,400)" stroke-width=".8" stroke-linecap="round" stroke-linejoin="round" fill="none" stroke="#a2a2a2" stroke-opacity="0" d="M307.35 323.8V323.8"/>
<path transform="matrix(1,0,0,-1,0,400)" stroke-width=".8" stroke-linecap="round" stroke-linejoin="round" fill="none" stroke="#a2a2a2" stroke-opacity="0" d="M355.5 263.77V263.77"/>
<path transform="matrix(1,0,0,-1,0,400)" stroke-width=".8" stroke-linecap="round" stroke-linejoin="round" fill="none" stroke="#a2a2a2" stroke-opacity="0" d="M403.65 257.61V257.61"/>
<path transform="matrix(1,0,0,-1,0,400)" stroke-width=".8" stroke-linecap="round" stroke-linejoin="round" fill="none" stroke="#a2a2a2" stroke-opacity="0" d="M451.8 183.01V183.01"/>
<path transform="matrix(1,0,0,-1,0,400)" stroke-width=".8" stroke-linecap="round" stroke-linejoin="round" fill="none" stroke="#a2a2a2" stroke-opacity="0" d="M499.95 265.13V265.13"/>
<path transform="matrix(1,0,0,-1,0,400)" stroke-width=".8" stroke-linecap="round" stroke-linejoin="round" fill="none" stroke="#a2a2a2" stroke-opacity="0" d="M548.1 296.78V296.78"/>
<g clip-path="url(#clip_23)">
<path transform="matrix(1,0,0,-1,0,400)" d="M459.54 337.84H570.53V376.72H459.54" fill="#ffffff" fill-rule="evenodd"/>
</g>
<path transform="matrix(1,0,0,-1,0,400)" stroke-width="1" stroke-linecap="round" stroke-linejoin="round" fill="none" stroke="#000000" stroke-opacity="0" d="M459.54 337.84H570.53V376.72H459.54V337.84"/>
<path transform="matrix(1,0,0,-1,0,400)" d="M483.08 368.88C480.25 368.88 477.96 366.59 477.96 363.76 477.96 360.94 480.25 358.64 483.08 358.64 485.9 358.64 488.2 360.94 488.2 363.76 488.2 366.59 485.9 368.88 483.08 368.88" fill="#1b1b1b" fill-rule="evenodd"/>
<path transform="matrix(1,0,0,-1,0,400)" d="M512.18 367.8V366.66C512.18 366.66 511.51 366.98 510.92 367.13 510.92 367.13 510.33 367.29 509.78 367.29 509.78 367.29 508.83 367.29 508.31 366.92 508.31 366.92 507.79 366.55 507.79 365.87 507.79 365.87 507.79 365.29 508.13 365 508.13 365 508.48 364.71 509.44 364.53L510.15 364.38C510.15 364.38 511.45 364.14 512.07 363.51 512.07 363.51 512.7 362.88 512.7 361.83 512.7 361.83 512.7 360.57 511.85 359.92 511.85 359.92 511.01 359.28 509.39 359.28 509.39 359.28 508.78 359.28 508.08 359.41 508.08 359.41 507.39 359.55 506.65 359.82V361.03C506.65 361.03 507.36 360.63 508.05 360.43 508.05 360.43 508.73 360.22 509.39 360.22 509.39 360.22 510.39 360.22 510.93 360.62 510.93 360.62 511.48 361.01 511.48 361.74 511.48 361.74 511.48 362.38 511.08 362.74 511.08 362.74 510.7 363.09 509.81 363.27L509.09 363.41C509.09 363.41 507.79 363.67 507.2 364.23 507.2 364.23 506.62 364.78 506.62 365.77 506.62 365.77 506.62 366.92 507.42 367.58 507.42 367.58 508.23 368.24 509.65 368.24 509.65 368.24 510.26 368.24 510.89 368.13 510.89 368.13 511.52 368.02 512.18 367.8Z"/>
<path transform="matrix(1,0,0,-1,0,400)" d="M514.48 365.92H515.54V359.44H514.48V365.92M514.48 368.45H515.54V367.1H514.48V368.45Z"/>
<path transform="matrix(1,0,0,-1,0,400)" d="M522.81 364.68C522.81 364.68 523.21 365.4 523.77 365.74 523.77 365.74 524.32 366.08 525.08 366.08 525.08 366.08 526.09 366.08 526.64 365.37 526.64 365.37 527.19 364.66 527.19 363.35V359.44H526.12V363.32C526.12 363.32 526.12 364.25 525.79 364.7 525.79 364.7 525.46 365.15 524.78 365.15 524.78 365.15 523.95 365.15 523.47 364.6 523.47 364.6 522.99 364.06 522.99 363.11V359.44H521.92V363.32C521.92 363.32 521.92 364.26 521.59 364.7 521.59 364.7 521.26 365.15 520.57 365.15 520.57 365.15 519.76 365.15 519.28 364.6 519.28 364.6 518.8 364.05 518.8 363.11V359.44H517.73V365.92H518.8V364.92C518.8 364.92 519.16 365.51 519.67 365.8 519.67 365.8 520.18 366.08 520.88 366.08 520.88 366.08 521.59 366.08 522.08 365.72 522.08 365.72 522.58 365.36 522.81 364.68Z"/>
<path transform="matrix(1,0,0,-1,0,400)" d="M529.2 362V365.92H530.27V362.04C530.27 362.04 530.27 361.12 530.63 360.66 530.63 360.66 530.99 360.2 531.7 360.2 531.7 360.2 532.57 360.2 533.06 360.75 533.06 360.75 533.57 361.3 533.57 362.25V365.92H534.63V359.44H533.57V360.44C533.57 360.44 533.18 359.85 532.66 359.56 532.66 359.56 532.15 359.28 531.48 359.28 531.48 359.28 530.36 359.28 529.78 359.97 529.78 359.97 529.2 360.66 529.2 362M531.88 366.08V366.08Z"/>
<path transform="matrix(1,0,0,-1,0,400)" d="M536.82 368.45H537.89V359.44H536.82V368.45Z"/>
<path transform="matrix(1,0,0,-1,0,400)" d="M543.06 362.7C543.06 362.7 541.77 362.7 541.27 362.41 541.27 362.41 540.78 362.11 540.78 361.4 540.78 361.4 540.78 360.83 541.15 360.5 541.15 360.5 541.52 360.17 542.17 360.17 542.17 360.17 543.05 360.17 543.58 360.79 543.58 360.79 544.12 361.42 544.12 362.46V362.7H543.06M545.19 363.14V359.44H544.12V360.43C544.12 360.43 543.76 359.84 543.21 359.55 543.21 359.55 542.67 359.28 541.88 359.28 541.88 359.28 540.89 359.28 540.3 359.83 540.3 359.83 539.71 360.39 539.71 361.33 539.71 361.33 539.71 362.42 540.44 362.98 540.44 362.98 541.18 363.53 542.63 363.53H544.12V363.64C544.12 363.64 544.12 364.37 543.64 364.77 543.64 364.77 543.16 365.18 542.28 365.18 542.28 365.18 541.73 365.18 541.2 365.04 541.2 365.04 540.67 364.91 540.19 364.65V365.63C540.19 365.63 540.77 365.85 541.32 365.96 541.32 365.96 541.87 366.08 542.39 366.08 542.39 366.08 543.8 366.08 544.49 365.35 544.49 365.35 545.19 364.62 545.19 363.14Z"/>
<path transform="matrix(1,0,0,-1,0,400)" d="M548.43 367.76V365.92H550.63V365.1H548.43V361.58C548.43 361.58 548.43 360.79 548.65 360.56 548.65 360.56 548.87 360.33 549.53 360.33H550.63V359.44H549.53C549.53 359.44 548.3 359.44 547.83 359.9 547.83 359.9 547.36 360.36 547.36 361.58V365.1H546.58V365.92H547.36V367.76H548.43Z"/>
<path transform="matrix(1,0,0,-1,0,400)" d="M557.57 362.95V362.43H552.68C552.68 362.43 552.74 361.33 553.34 360.75 553.34 360.75 553.93 360.18 554.99 360.18 554.99 360.18 555.6 360.18 556.18 360.33 556.18 360.33 556.76 360.48 557.32 360.78V359.77C557.32 359.77 556.75 359.53 556.15 359.4 556.15 359.4 555.55 359.28 554.93 359.28 554.93 359.28 553.38 359.28 552.47 360.18 552.47 360.18 551.56 361.08 551.56 362.62 551.56 362.62 551.56 364.21 552.42 365.14 552.42 365.14 553.28 366.08 554.74 366.08 554.74 366.08 556.05 366.08 556.81 365.24 556.81 365.24 557.57 364.4 557.57 362.95M556.51 363.26C556.51 363.26 556.49 364.14 556.01 364.66 556.01 364.66 555.54 365.18 554.75 365.18 554.75 365.18 553.86 365.18 553.32 364.67 553.32 364.67 552.79 364.17 552.71 363.26H556.51Z"/>
<path transform="matrix(1,0,0,-1,0,400)" d="M563.58 364.94V368.45H564.65V359.44H563.58V360.42C563.58 360.42 563.25 359.84 562.73 359.55 562.73 359.55 562.22 359.28 561.51 359.28 561.51 359.28 560.33 359.28 559.59 360.21 559.59 360.21 558.86 361.15 558.86 362.68 558.86 362.68 558.86 364.21 559.59 365.14 559.59 365.14 560.33 366.08 561.51 366.08 561.51 366.08 562.22 366.08 562.73 365.8 562.73 365.8 563.25 365.52 563.58 364.94M559.96 362.68C559.96 362.68 559.96 361.5 560.44 360.83 560.44 360.83 560.92 360.17 561.77 360.17 561.77 360.17 562.61 360.17 563.1 360.83 563.1 360.83 563.58 361.5 563.58 362.68 563.58 362.68 563.58 363.85 563.1 364.52 563.1 364.52 562.61 365.19 561.77 365.19 561.77 365.19 560.92 365.19 560.44 364.52 560.44 364.52 559.96 363.85 559.96 362.68Z"/>
<path transform="matrix(1,0,0,-1,0,400)" d="M483.08 355.92C480.25 355.92 477.96 353.63 477.96 350.8 477.96 347.98 480.25 345.68 483.08 345.68 485.9 345.68 488.2 347.98 488.2 350.8 488.2 353.63 485.9 355.92 483.08 355.92" fill="#a2a2a2" fill-rule="evenodd"/>
<path transform="matrix(1,0,0,-1,0,400)" d="M510.57 353.97 508.99 349.67H512.17L510.57 353.97M509.92 355.12H511.24L514.53 346.48H513.32L512.53 348.7H508.64L507.85 346.48H506.62L509.92 355.12Z"/>
<path transform="matrix(1,0,0,-1,0,400)" d="M520.2 352.72V351.72C520.2 351.72 519.75 351.97 519.3 352.09 519.3 352.09 518.84 352.22 518.38 352.22 518.38 352.22 517.35 352.22 516.77 351.56 516.77 351.56 516.2 350.9 516.2 349.72 516.2 349.72 516.2 348.53 516.77 347.87 516.77 347.87 517.35 347.22 518.38 347.22 518.38 347.22 518.84 347.22 519.3 347.34 519.3 347.34 519.75 347.47 520.2 347.72V346.73C520.2 346.73 519.76 346.52 519.28 346.42 519.28 346.42 518.8 346.32 518.27 346.32 518.27 346.32 516.8 346.32 515.94 347.24 515.94 347.24 515.08 348.16 515.08 349.72 515.08 349.72 515.08 351.3 515.95 352.21 515.95 352.21 516.82 353.12 518.34 353.12 518.34 353.12 518.83 353.12 519.3 353.02 519.3 353.02 519.76 352.92 520.2 352.72Z"/>
<path transform="matrix(1,0,0,-1,0,400)" d="M523.11 354.8V352.96H525.3V352.14H523.11V348.62C523.11 348.62 523.11 347.83 523.32 347.6 523.32 347.6 523.54 347.37 524.21 347.37H525.3V346.48H524.21C524.21 346.48 522.98 346.48 522.51 346.94 522.51 346.94 522.04 347.4 522.04 348.62V352.14H521.26V352.96H522.04V354.8H523.11Z"/>
<path transform="matrix(1,0,0,-1,0,400)" d="M526.59 349.04V352.96H527.66V349.08C527.66 349.08 527.66 348.16 528.02 347.7 528.02 347.7 528.38 347.24 529.09 347.24 529.09 347.24 529.96 347.24 530.45 347.79 530.45 347.79 530.96 348.34 530.96 349.29V352.96H532.02V346.48H530.96V347.48C530.96 347.48 530.57 346.89 530.05 346.6 530.05 346.6 529.54 346.32 528.87 346.32 528.87 346.32 527.75 346.32 527.17 347.01 527.17 347.01 526.59 347.7 526.59 349.04M529.27 353.12V353.12Z"/>
<path transform="matrix(1,0,0,-1,0,400)" d="M537.16 349.74C537.16 349.74 535.87 349.74 535.37 349.45 535.37 349.45 534.87 349.15 534.87 348.44 534.87 348.44 534.87 347.87 535.24 347.54 535.24 347.54 535.62 347.21 536.26 347.21 536.26 347.21 537.15 347.21 537.68 347.83 537.68 347.83 538.22 348.46 538.22 349.5V349.74H537.16M539.28 350.18V346.48H538.22V347.47C538.22 347.47 537.85 346.88 537.31 346.59 537.31 346.59 536.77 346.32 535.98 346.32 535.98 346.32 534.98 346.32 534.39 346.87 534.39 346.87 533.81 347.43 533.81 348.37 533.81 348.37 533.81 349.46 534.54 350.02 534.54 350.02 535.27 350.57 536.73 350.57H538.22V350.68C538.22 350.68 538.22 351.41 537.73 351.81 537.73 351.81 537.25 352.22 536.38 352.22 536.38 352.22 535.82 352.22 535.3 352.08 535.3 352.08 534.77 351.95 534.28 351.69V352.67C534.28 352.67 534.87 352.89 535.42 353 535.42 353 535.97 353.12 536.49 353.12 536.49 353.12 537.9 353.12 538.59 352.39 538.59 352.39 539.28 351.66 539.28 350.18Z"/>
<path transform="matrix(1,0,0,-1,0,400)" d="M541.48 355.49H542.54V346.48H541.48V355.49Z"/>
</g>
</svg>
