<svg xmlns="http://www.w3.org/2000/svg" xmlns:xlink="http://www.w3.org/1999/xlink" version="1.1" width="600pt" height="400pt" viewBox="0 0 600 400">
<defs>
<clipPath id="clip_0">
<path transform="matrix(1,0,0,-1,0,400)" d="M0 0H600V400H0Z"/>
</clipPath>
<clipPath id="clip_1">
<path transform="matrix(1,0,0,-1,0,400)" d="M0 0H600V600H0Z"/>
</clipPath>
<clipPath id="clip_2">
<path transform="matrix(1,0,0,-1,0,400)" d="M0 0H600V600H0Z"/>
</clipPath>
<clipPath id="clip_3">
<path transform="matrix(1,0,0,-1,0,400)" d="M50.99 44.21H588.19V388.19H50.99Z"/>
</clipPath>
<clipPath id="clip_4">
<path transform="matrix(1,0,0,-1,0,400)" d="M50.99 44.21H588.19V388.19H50.99Z"/>
</clipPath>
<clipPath id="clip_5">
<path transform="matrix(1,0,0,-1,0,400)" d="M50.99 44.21H588.19V388.19H50.99Z"/>
</clipPath>
<clipPath id="clip_6">
<path transform="matrix(1,0,0,-1,0,400)" d="M50.99 44.21H588.19V388.19H50.99Z"/>
</clipPath>
<clipPath id="clip_7">
<path transform="matrix(1,0,0,-1,0,400)" d="M50.99 44.21H588.19V388.19H50.99Z"/>
</clipPath>
<clipPath id="clip_8">
<path transform="matrix(1,0,0,-1,0,400)" d="M50.99 44.21H588.19V388.19H50.99Z"/>
</clipPath>
<clipPath id="clip_9">
<path transform="matrix(1,0,0,-1,0,400)" d="M50.99 44.21H588.19V388.19H50.99Z"/>
</clipPath>
<clipPath id="clip_10">
<path transform="matrix(1,0,0,-1,0,400)" d="M50.99 44.21H588.19V388.19H50.99Z"/>
</clipPath>
<clipPath id="clip_11">
<path transform="matrix(1,0,0,-1,0,400)" d="M50.99 44.21H588.19V388.19H50.99Z"/>
</clipPath>
<clipPath id="clip_12">
<path transform="matrix(1,0,0,-1,0,400)" d="M50.99 44.21H588.19V388.19H50.99Z"/>
</clipPath>
<clipPath id="clip_13">
<path transform="matrix(1,0,0,-1,0,400)" d="M50.99 44.21H588.19V388.19H50.99Z"/>
</clipPath>
<clipPath id="clip_14">
<path transform="matrix(1,0,0,-1,0,400)" d="M50.99 44.21H588.19V388.19H50.99Z"/>
</clipPath>
<clipPath id="clip_15">
<path transform="matrix(1,0,0,-1,0,400)" d="M50.99 44.21H588.19V388.19H50.99Z"/>
</clipPath>
<clipPath id="clip_16">
<path transform="matrix(1,0,0,-1,0,400)" d="M50.99 44.21H588.19V388.19H50.99Z"/>
</clipPath>
<clipPath id="clip_17">
<path transform="matrix(1,0,0,-1,0,400)" d="M50.99 44.21H588.19V388.19H50.99Z"/>
</clipPath>
<clipPath id="clip_18">
<path transform="matrix(1,0,0,-1,0,400)" d="M50.99 44.21H588.19V388.19H50.99Z"/>
</clipPath>
<clipPath id="clip_19">
<path transform="matrix(1,0,0,-1,0,400)" d="M50.99 44.21H588.19V388.19H50.99Z"/>
</clipPath>
<clipPath id="clip_20">
<path transform="matrix(1,0,0,-1,0,400)" d="M50.99 44.21H588.19V388.19H50.99Z"/>
</clipPath>
<clipPath id="clip_21">
<path transform="matrix(1,0,0,-1,0,400)" d="M50.99 44.21H588.19V388.19H50.99Z"/>
</clipPath>
<clipPath id="clip_22">
<path transform="matrix(1,0,0,-1,0,400)" d="M50.99 44.21H588.19V388.19H50.99Z"/>
</clipPath>
<clipPath id="clip_23">
<path transform="matrix(1,0,0,-1,0,400)" d="M0 0H600V600H0Z"/>
</clipPath>
</defs>
<g clip-path="url(#clip_0)">
<g clip-path="url(#clip_1)">
<path transform="matrix(1,0,0,-1,0,400)" d="M0 0H600V400H0" fill="#ffffff" fill-rule="evenodd"/>
</g>
<g clip-path="url(#clip_2)">
<path transform="matrix(1,0,0,-1,0,400)" d="M50.99 44.21H588.19V388.19H50.99" fill="#ffffff" fill-rule="evenodd"/>
</g>
<path transform="matrix(1,0,0,-1,0,400)" stroke-width="1" stroke-linecap="round" stroke-linejoin="round" fill="none" stroke="#000000" d="M50.99 44.21H588.19"/>
<path transform="matrix(1,0,0,-1,0,400)" stroke-width="1" stroke-linecap="round" stroke-linejoin="round" fill="none" stroke="#000000" d="M99.83 44.21V48.93"/>
<path transform="matrix(1,0,0,-1,0,400)" stroke-width="1" stroke-linecap="round" stroke-linejoin="round" fill="none" stroke="#000000" d="M148.66 44.21V48.93"/>
<path transform="matrix(1,0,0,-1,0,400)" stroke-width="1" stroke-linecap="round" stroke-linejoin="round" fill="none" stroke="#000000" d="M197.5 44.21V48.93"/>
<path transform="matrix(1,0,0,-1,0,400)" stroke-width="1" stroke-linecap="round" stroke-linejoin="round" fill="none" stroke="#000000" d="M246.34 44.21V48.93"/>
<path transform="matrix(1,0,0,-1,0,400)" stroke-width="1" stroke-linecap="round" stroke-linejoin="round" fill="none" stroke="#000000" d="M295.17 44.21V48.93"/>
<path transform="matrix(1,0,0,-1,0,400)" stroke-width="1" stroke-linecap="round" stroke-linejoin="round" fill="none" stroke="#000000" d="M344.01 44.21V48.93"/>
<path transform="matrix(1,0,0,-1,0,400)" stroke-width="1" stroke-linecap="round" stroke-linejoin="round" fill="none" stroke="#000000" d="M392.84 44.21V48.93"/>
<path transform="matrix(1,0,0,-1,0,400)" stroke-width="1" stroke-linecap="round" stroke-linejoin="round" fill="none" stroke="#000000" d="M441.68 44.21V48.93"/>
<path transform="matrix(1,0,0,-1,0,400)" stroke-width="1" stroke-linecap="round" stroke-linejoin="round" fill="none" stroke="#000000" d="M490.52 44.21V48.93"/>
<path transform="matrix(1,0,0,-1,0,400)" stroke-width="1" stroke-linecap="round" stroke-linejoin="round" fill="none" stroke="#000000" d="M539.35 44.21V48.93"/>
<path transform="matrix(1,0,0,-1,0,400)" d="M97.42 29.59H99.33V36.18L97.25 35.76V36.83L99.32 37.25H100.49V29.59H102.4V28.61H97.42V29.59Z"/>
<path transform="matrix(1,0,0,-1,0,400)" d="M147.33 29.59H151.41V28.61H145.92V29.59C145.92 29.59 146.59 30.28 147.73 31.43 147.73 31.43 148.88 32.6 149.18 32.93 149.18 32.93 149.74 33.56 149.96 34 149.96 34 150.19 34.44 150.19 34.86 150.19 34.86 150.19 35.55 149.7 35.98 149.7 35.98 149.22 36.42 148.44 36.42 148.44 36.42 147.89 36.42 147.28 36.23 147.28 36.23 146.67 36.04 145.98 35.65V36.83C145.98 36.83 146.68 37.11 147.3 37.26 147.3 37.26 147.91 37.4 148.42 37.4 148.42 37.4 149.76 37.4 150.56 36.73 150.56 36.73 151.36 36.06 151.36 34.94 151.36 34.94 151.36 34.4 151.16 33.92 151.16 33.92 150.96 33.45 150.43 32.8 150.43 32.8 150.29 32.63 149.51 31.83 149.51 31.83 148.74 31.03 147.33 29.59Z"/>
<path transform="matrix(1,0,0,-1,0,400)" d="M198.56 33.26C198.56 33.26 199.4 33.08 199.87 32.52 199.87 32.52 200.34 31.95 200.34 31.12 200.34 31.12 200.34 29.84 199.46 29.14 199.46 29.14 198.58 28.44 196.96 28.44 196.96 28.44 196.42 28.44 195.84 28.55 195.84 28.55 195.27 28.65 194.66 28.87V29.99C194.66 29.99 195.14 29.71 195.72 29.57 195.72 29.57 196.3 29.42 196.93 29.42 196.93 29.42 198.03 29.42 198.6 29.86 198.6 29.86 199.18 30.29 199.18 31.12 199.18 31.12 199.18 31.88 198.64 32.31 198.64 32.31 198.11 32.74 197.16 32.74H196.15V33.7H197.2C197.2 33.7 198.06 33.7 198.52 34.04 198.52 34.04 198.98 34.39 198.98 35.04 198.98 35.04 198.98 35.71 198.5 36.06 198.5 36.06 198.03 36.42 197.16 36.42 197.16 36.42 196.67 36.42 196.13 36.31 196.13 36.31 195.58 36.21 194.92 35.99V37.03C194.92 37.03 195.58 37.22 196.16 37.31 196.16 37.31 196.74 37.4 197.26 37.4 197.26 37.4 198.59 37.4 199.37 36.79 199.37 36.79 200.14 36.19 200.14 35.16 200.14 35.16 200.14 34.44 199.73 33.95 199.73 33.95 199.32 33.45 198.56 33.26Z"/>
<path transform="matrix(1,0,0,-1,0,400)" d="M247.09 36.23 244.14 31.61H247.09V36.23M246.78 37.25H248.25V31.61H249.48V30.64H248.25V28.61H247.09V30.64H243.19V31.77L246.78 37.25Z"/>
<path transform="matrix(1,0,0,-1,0,400)" d="M292.74 37.25H297.33V36.26H293.81V34.14C293.81 34.14 294.07 34.23 294.32 34.27 294.32 34.27 294.58 34.32 294.83 34.32 294.83 34.32 296.28 34.32 297.12 33.52 297.12 33.52 297.97 32.73 297.97 31.38 297.97 31.38 297.97 29.98 297.1 29.21 297.1 29.21 296.23 28.44 294.65 28.44 294.65 28.44 294.11 28.44 293.54 28.53 293.54 28.53 292.98 28.62 292.38 28.81V29.98C292.38 29.98 292.9 29.7 293.45 29.56 293.45 29.56 294.01 29.42 294.63 29.42 294.63 29.42 295.63 29.42 296.21 29.95 296.21 29.95 296.8 30.47 296.8 31.38 296.8 31.38 296.8 32.28 296.21 32.81 296.21 32.81 295.63 33.33 294.63 33.33 294.63 33.33 294.16 33.33 293.69 33.23 293.69 33.23 293.23 33.12 292.74 32.9V37.25Z"/>
<path transform="matrix(1,0,0,-1,0,400)" d="M344.11 33.39C344.11 33.39 343.32 33.39 342.86 32.85 342.86 32.85 342.4 32.31 342.4 31.38 342.4 31.38 342.4 30.45 342.86 29.9 342.86 29.9 343.32 29.36 344.11 29.36 344.11 29.36 344.9 29.36 345.35 29.9 345.35 29.9 345.82 30.45 345.82 31.38 345.82 31.38 345.82 32.31 345.35 32.85 345.35 32.85 344.9 33.39 344.11 33.39M346.43 37.05V35.99C346.43 35.99 345.99 36.2 345.54 36.31 345.54 36.31 345.09 36.42 344.65 36.42 344.65 36.42 343.5 36.42 342.88 35.64 342.88 35.64 342.27 34.86 342.19 33.28 342.19 33.28 342.53 33.78 343.04 34.04 343.04 34.04 343.56 34.32 344.18 34.32 344.18 34.32 345.48 34.32 346.23 33.52 346.23 33.52 346.99 32.74 346.99 31.38 346.99 31.38 346.99 30.05 346.2 29.24 346.2 29.24 345.42 28.44 344.11 28.44 344.11 28.44 342.61 28.44 341.82 29.58 341.82 29.58 341.02 30.73 341.02 32.92 341.02 32.92 341.02 34.96 342 36.18 342 36.18 342.97 37.4 344.61 37.4 344.61 37.4 345.05 37.4 345.49 37.31 345.49 37.31 345.94 37.23 346.43 37.05Z"/>
<path transform="matrix(1,0,0,-1,0,400)" d="M390.07 37.25H395.62V36.75L392.49 28.61H391.26L394.22 36.26H390.07V37.25Z"/>
<path transform="matrix(1,0,0,-1,0,400)" d="M441.68 32.71C441.68 32.71 440.85 32.71 440.37 32.26 440.37 32.26 439.89 31.82 439.89 31.04 439.89 31.04 439.89 30.25 440.37 29.81 440.37 29.81 440.85 29.36 441.68 29.36 441.68 29.36 442.51 29.36 442.99 29.81 442.99 29.81 443.47 30.26 443.47 31.04 443.47 31.04 443.47 31.82 442.99 32.26 442.99 32.26 442.52 32.71 441.68 32.71M440.51 33.21C440.51 33.21 439.76 33.39 439.34 33.91 439.34 33.91 438.92 34.42 438.92 35.16 438.92 35.16 438.92 36.2 439.65 36.8 439.65 36.8 440.4 37.4 441.68 37.4 441.68 37.4 442.97 37.4 443.71 36.8 443.71 36.8 444.44 36.2 444.44 35.16 444.44 35.16 444.44 34.42 444.02 33.91 444.02 33.91 443.6 33.39 442.86 33.21 442.86 33.21 443.7 33.01 444.17 32.44 444.17 32.44 444.64 31.86 444.64 31.04 444.64 31.04 444.64 29.78 443.87 29.11 443.87 29.11 443.11 28.44 441.68 28.44 441.68 28.44 440.25 28.44 439.48 29.11 439.48 29.11 438.72 29.78 438.72 31.04 438.72 31.04 438.72 31.86 439.19 32.44 439.19 32.44 439.67 33.01 440.51 33.21M440.08 35.05C440.08 35.05 440.08 34.38 440.5 34 440.5 34 440.92 33.63 441.68 33.63 441.68 33.63 442.43 33.63 442.86 34 442.86 34 443.28 34.38 443.28 35.05 443.28 35.05 443.28 35.72 442.86 36.1 442.86 36.1 442.43 36.48 441.68 36.48 441.68 36.48 440.92 36.48 440.5 36.1 440.5 36.1 440.08 35.72 440.08 35.05Z"/>
<path transform="matrix(1,0,0,-1,0,400)" d="M488.09 28.78V29.85C488.09 29.85 488.53 29.64 488.98 29.53 488.98 29.53 489.43 29.42 489.87 29.42 489.87 29.42 491.03 29.42 491.63 30.2 491.63 30.2 492.25 30.98 492.33 32.56 492.33 32.56 492 32.07 491.48 31.8 491.48 31.8 490.97 31.53 490.34 31.53 490.34 31.53 489.05 31.53 488.29 32.31 488.29 32.31 487.54 33.1 487.54 34.46 487.54 34.46 487.54 35.79 488.32 36.6 488.32 36.6 489.11 37.4 490.42 37.4 490.42 37.4 491.92 37.4 492.7 36.25 492.7 36.25 493.5 35.1 493.5 32.92 493.5 32.92 493.5 30.87 492.52 29.65 492.52 29.65 491.56 28.44 489.92 28.44 489.92 28.44 489.48 28.44 489.03 28.52 489.03 28.52 488.58 28.61 488.09 28.78M490.42 32.45C490.42 32.45 491.21 32.45 491.66 32.99 491.66 32.99 492.13 33.52 492.13 34.46 492.13 34.46 492.13 35.39 491.66 35.93 491.66 35.93 491.21 36.48 490.42 36.48 490.42 36.48 489.63 36.48 489.17 35.93 489.17 35.93 488.71 35.39 488.71 34.46 488.71 34.46 488.71 33.52 489.17 32.99 489.17 32.99 489.63 32.45 490.42 32.45Z"/>
<path transform="matrix(1,0,0,-1,0,400)" d="M533.02 29.59H534.93V36.18L532.86 35.76V36.83L534.92 37.25H536.09V29.59H538V28.61H533.02V29.59Z"/>
<path transform="matrix(1,0,0,-1,0,400)" d="M542.86 36.48C542.86 36.48 541.96 36.48 541.5 35.58 541.5 35.58 541.05 34.7 541.05 32.92 541.05 32.92 541.05 31.14 541.5 30.25 541.5 30.25 541.96 29.36 542.86 29.36 542.86 29.36 543.77 29.36 544.22 30.25 544.22 30.25 544.68 31.14 544.68 32.92 544.68 32.92 544.68 34.7 544.22 35.58 544.22 35.58 543.77 36.48 542.86 36.48M542.86 37.4C542.86 37.4 544.32 37.4 545.08 36.25 545.08 36.25 545.85 35.1 545.85 32.92 545.85 32.92 545.85 30.73 545.08 29.58 545.08 29.58 544.32 28.44 542.86 28.44 542.86 28.44 541.41 28.44 540.64 29.58 540.64 29.58 539.88 30.73 539.88 32.92 539.88 32.92 539.88 35.1 540.64 36.25 540.64 36.25 541.41 37.4 542.86 37.4Z"/>
<path transform="matrix(1,0,0,-1,0,400)" d="M268.87 18.55V14.08H270.89C270.89 14.08 272.01 14.08 272.63 14.67 272.63 14.67 273.24 15.25 273.24 16.32 273.24 16.32 273.24 17.39 272.63 17.97 272.63 17.97 272.01 18.55 270.89 18.55H268.87M267.26 19.87H270.89C270.89 19.87 272.89 19.87 273.91 18.96 273.91 18.96 274.93 18.06 274.93 16.32 274.93 16.32 274.93 14.56 273.91 13.66 273.91 13.66 272.89 12.76 270.89 12.76H268.87V7.99H267.26V19.87Z"/>
<path transform="matrix(1,0,0,-1,0,400)" d="M280.35 12.47C280.35 12.47 278.57 12.47 277.89 12.06 277.89 12.06 277.2 11.66 277.2 10.68 277.2 10.68 277.2 9.9 277.71 9.44 277.71 9.44 278.23 8.98 279.11 8.98 279.11 8.98 280.33 8.98 281.06 9.84 281.06 9.84 281.8 10.71 281.8 12.14V12.47H280.35M283.27 13.07V7.99H281.8V9.34C281.8 9.34 281.3 8.53 280.55 8.14 280.55 8.14 279.8 7.76 278.72 7.76 278.72 7.76 277.35 7.76 276.54 8.52 276.54 8.52 275.74 9.29 275.74 10.58 275.74 10.58 275.74 12.09 276.74 12.85 276.74 12.85 277.75 13.61 279.75 13.61H281.8V13.76C281.8 13.76 281.8 14.77 281.13 15.32 281.13 15.32 280.47 15.87 279.27 15.87 279.27 15.87 278.51 15.87 277.78 15.69 277.78 15.69 277.06 15.51 276.39 15.14V16.5C276.39 16.5 277.19 16.81 277.95 16.96 277.95 16.96 278.71 17.12 279.42 17.12 279.42 17.12 281.36 17.12 282.31 16.11 282.31 16.11 283.27 15.11 283.27 13.07Z"/>
<path transform="matrix(1,0,0,-1,0,400)" d="M287.73 19.43V16.9H290.75V15.76H287.73V10.93C287.73 10.93 287.73 9.84 288.02 9.52 288.02 9.52 288.33 9.21 289.24 9.21H290.75V7.99H289.24C289.24 7.99 287.55 7.99 286.9 8.62 286.9 8.62 286.26 9.25 286.26 10.93V15.76H285.18V16.9H286.26V19.43H287.73Z"/>
<path transform="matrix(1,0,0,-1,0,400)" d="M292.67 16.9H294.14V7.99H292.67V16.9M292.67 20.37H294.14V18.52H292.67V20.37Z"/>
<path transform="matrix(1,0,0,-1,0,400)" d="M304.82 12.81V12.09H298.09C298.09 12.09 298.19 10.58 299 9.79 299 9.79 299.82 9 301.27 9 301.27 9 302.12 9 302.9 9.21 302.9 9.21 303.7 9.41 304.48 9.83V8.44C304.48 8.44 303.69 8.11 302.86 7.93 302.86 7.93 302.04 7.76 301.19 7.76 301.19 7.76 299.05 7.76 297.8 9 297.8 9 296.56 10.24 296.56 12.36 296.56 12.36 296.56 14.55 297.74 15.83 297.74 15.83 298.93 17.12 300.93 17.12 300.93 17.12 302.73 17.12 303.77 15.95 303.77 15.95 304.82 14.8 304.82 12.81M303.36 13.24C303.36 13.24 303.34 14.44 302.68 15.16 302.68 15.16 302.03 15.87 300.95 15.87 300.95 15.87 299.72 15.87 298.98 15.18 298.98 15.18 298.25 14.49 298.14 13.23L303.36 13.24Z"/>
<path transform="matrix(1,0,0,-1,0,400)" d="M314.63 13.37V7.99H313.17V13.32C313.17 13.32 313.17 14.59 312.68 15.21 312.68 15.21 312.18 15.84 311.2 15.84 311.2 15.84 310.01 15.84 309.33 15.09 309.33 15.09 308.64 14.33 308.64 13.03V7.99H307.17V16.9H308.64V15.52C308.64 15.52 309.17 16.32 309.87 16.72 309.87 16.72 310.59 17.12 311.52 17.12 311.52 17.12 313.06 17.12 313.84 16.16 313.84 16.16 314.63 15.21 314.63 13.37Z"/>
<path transform="matrix(1,0,0,-1,0,400)" d="M319 19.43V16.9H322.02V15.76H319V10.93C319 10.93 319 9.84 319.3 9.52 319.3 9.52 319.6 9.21 320.51 9.21H322.02V7.99H320.51C320.51 7.99 318.82 7.99 318.17 8.62 318.17 8.62 317.53 9.25 317.53 10.93V15.76H316.45V16.9H317.53V19.43H319Z"/>
<path transform="matrix(1,0,0,-1,0,400)" d="M329.19 19.87H330.79V7.99H329.19V19.87Z"/>
<path transform="matrix(1,0,0,-1,0,400)" d="M341.34 13.37V7.99H339.87V13.32C339.87 13.32 339.87 14.59 339.38 15.21 339.38 15.21 338.89 15.84 337.9 15.84 337.9 15.84 336.71 15.84 336.03 15.09 336.03 15.09 335.35 14.33 335.35 13.03V7.99H333.87V16.9H335.35V15.52C335.35 15.52 335.87 16.32 336.58 16.72 336.58 16.72 337.29 17.12 338.23 17.12 338.23 17.12 339.76 17.12 340.55 16.16 340.55 16.16 341.34 15.21 341.34 13.37Z"/>
<path transform="matrix(1,0,0,-1,0,400)" d="M350.12 15.55V20.37H351.59V7.99H350.12V9.33C350.12 9.33 349.66 8.53 348.95 8.14 348.95 8.14 348.25 7.76 347.26 7.76 347.26 7.76 345.65 7.76 344.63 9.05 344.63 9.05 343.62 10.34 343.62 12.44 343.62 12.44 343.62 14.54 344.63 15.83 344.63 15.83 345.65 17.12 347.26 17.12 347.26 17.12 348.25 17.12 348.95 16.73 348.95 16.73 349.66 16.34 350.12 15.55M345.13 12.44C345.13 12.44 345.13 10.82 345.79 9.9 345.79 9.9 346.46 8.98 347.62 8.98 347.62 8.98 348.78 8.98 349.45 9.9 349.45 9.9 350.12 10.82 350.12 12.44 350.12 12.44 350.12 14.05 349.45 14.97 349.45 14.97 348.78 15.89 347.62 15.89 347.62 15.89 346.46 15.89 345.79 14.97 345.79 14.97 345.13 14.05 345.13 12.44Z"/>
<path transform="matrix(1,0,0,-1,0,400)" d="M362.22 12.81V12.09H355.49C355.49 12.09 355.59 10.58 356.4 9.79 356.4 9.79 357.22 9 358.68 9 358.68 9 359.52 9 360.31 9.21 360.31 9.21 361.1 9.41 361.88 9.83V8.44C361.88 8.44 361.09 8.11 360.27 7.93 360.27 7.93 359.44 7.76 358.59 7.76 358.59 7.76 356.46 7.76 355.21 9 355.21 9 353.96 10.24 353.96 12.36 353.96 12.36 353.96 14.55 355.14 15.83 355.14 15.83 356.33 17.12 358.33 17.12 358.33 17.12 360.13 17.12 361.17 15.95 361.17 15.95 362.22 14.8 362.22 12.81M360.76 13.24C360.76 13.24 360.74 14.44 360.08 15.16 360.08 15.16 359.43 15.87 358.35 15.87 358.35 15.87 357.12 15.87 356.38 15.18 356.38 15.18 355.65 14.49 355.54 13.23L360.76 13.24Z"/>
<path transform="matrix(1,0,0,-1,0,400)" d="M371.75 16.9 368.53 12.56 371.92 7.99H370.19L367.6 11.49 365 7.99H363.27L366.74 12.65 363.57 16.9H365.3L367.66 13.73 370.02 16.9H371.75Z"/>
<path transform="matrix(1,0,0,-1,0,400)" stroke-width="1" stroke-linecap="round" stroke-linejoin="round" fill="none" stroke="#000000" d="M50.99 44.21V388.19"/>
<path transform="matrix(1,0,0,-1,0,400)" stroke-width="1" stroke-linecap="round" stroke-linejoin="round" fill="none" stroke="#000000" d="M50.99 44.21H55.72"/>
<path transform="matrix(1,0,0,-1,0,400)" stroke-width="1" stroke-linecap="round" stroke-linejoin="round" fill="none" stroke="#000000" d="M50.99 158.87H55.72"/>
<path transform="matrix(1,0,0,-1,0,400)" stroke-width="1" stroke-linecap="round" stroke-linejoin="round" fill="none" stroke="#000000" d="M50.99 273.53H55.72"/>
<path transform="matrix(1,0,0,-1,0,400)" stroke-width="1" stroke-linecap="round" stroke-linejoin="round" fill="none" stroke="#000000" d="M50.99 388.19H55.72"/>
<path transform="matrix(1,0,0,-1,0,400)" d="M39 47.76C39 47.76 38.1 47.76 37.64 46.86 37.64 46.86 37.19 45.98 37.19 44.2 37.19 44.2 37.19 42.42 37.64 41.53 37.64 41.53 38.1 40.64 39 40.64 39 40.64 39.91 40.64 40.36 41.53 40.36 41.53 40.82 42.42 40.82 44.2 40.82 44.2 40.82 45.98 40.36 46.86 40.36 46.86 39.91 47.76 39 47.76M39 48.68C39 48.68 40.46 48.68 41.22 47.53 41.22 47.53 41.99 46.38 41.99 44.2 41.99 44.2 41.99 42.01 41.22 40.86 41.22 40.86 40.46 39.72 39 39.72 39 39.72 37.55 39.72 36.78 40.86 36.78 40.86 36.02 42.01 36.02 44.2 36.02 44.2 36.02 46.38 36.78 47.53 36.78 47.53 37.55 48.68 39 48.68Z"/>
<path transform="matrix(1,0,0,-1,0,400)" d="M29.17 155.53H31.08V162.12L29 161.7V162.77L31.07 163.19H32.23V155.53H34.14V154.55H29.17V155.53Z"/>
<path transform="matrix(1,0,0,-1,0,400)" d="M39 162.42C39 162.42 38.1 162.42 37.64 161.53 37.64 161.53 37.19 160.64 37.19 158.86 37.19 158.86 37.19 157.08 37.64 156.19 37.64 156.19 38.1 155.3 39 155.3 39 155.3 39.91 155.3 40.36 156.19 40.36 156.19 40.82 157.08 40.82 158.86 40.82 158.86 40.82 160.64 40.36 161.53 40.36 161.53 39.91 162.42 39 162.42M39 163.34C39 163.34 40.46 163.34 41.22 162.19 41.22 162.19 41.99 161.05 41.99 158.86 41.99 158.86 41.99 156.68 41.22 155.52 41.22 155.52 40.46 154.38 39 154.38 39 154.38 37.55 154.38 36.78 155.52 36.78 155.52 36.02 156.68 36.02 158.86 36.02 158.86 36.02 161.05 36.78 162.19 36.78 162.19 37.55 163.34 39 163.34Z"/>
<path transform="matrix(1,0,0,-1,0,400)" d="M29.97 270.19H34.05V269.21H28.57V270.19C28.57 270.19 29.23 270.88 30.38 272.04 30.38 272.04 31.53 273.2 31.82 273.54 31.82 273.54 32.38 274.17 32.6 274.6 32.6 274.6 32.83 275.04 32.83 275.46 32.83 275.46 32.83 276.15 32.34 276.59 32.34 276.59 31.86 277.02 31.09 277.02 31.09 277.02 30.54 277.02 29.92 276.83 29.92 276.83 29.32 276.64 28.62 276.25V277.43C28.62 277.43 29.33 277.71 29.94 277.86 29.94 277.86 30.56 278 31.07 278 31.07 278 32.41 278 33.21 277.33 33.21 277.33 34 276.66 34 275.54 34 275.54 34 275.01 33.8 274.53 33.8 274.53 33.61 274.05 33.08 273.4 33.08 273.4 32.93 273.24 32.16 272.43 32.16 272.43 31.38 271.63 29.97 270.19Z"/>
<path transform="matrix(1,0,0,-1,0,400)" d="M39 277.08C39 277.08 38.1 277.08 37.64 276.19 37.64 276.19 37.19 275.3 37.19 273.52 37.19 273.52 37.19 271.74 37.64 270.85 37.64 270.85 38.1 269.97 39 269.97 39 269.97 39.91 269.97 40.36 270.85 40.36 270.85 40.82 271.74 40.82 273.52 40.82 273.52 40.82 275.3 40.36 276.19 40.36 276.19 39.91 277.08 39 277.08M39 278C39 278 40.46 278 41.22 276.85 41.22 276.85 41.99 275.71 41.99 273.52 41.99 273.52 41.99 271.34 41.22 270.19 41.22 270.19 40.46 269.04 39 269.04 39 269.04 37.55 269.04 36.78 270.19 36.78 270.19 36.02 271.34 36.02 273.52 36.02 273.52 36.02 275.71 36.78 276.85 36.78 276.85 37.55 278 39 278Z"/>
<path transform="matrix(1,0,0,-1,0,400)" d="M32.51 388.53C32.51 388.53 33.35 388.35 33.81 387.78 33.81 387.78 34.29 387.21 34.29 386.38 34.29 386.38 34.29 385.1 33.41 384.4 33.41 384.4 32.53 383.7 30.91 383.7 30.91 383.7 30.36 383.7 29.79 383.81 29.79 383.81 29.21 383.92 28.6 384.13V385.26C28.6 385.26 29.09 384.97 29.66 384.83 29.66 384.83 30.24 384.68 30.87 384.68 30.87 384.68 31.97 384.68 32.55 385.12 32.55 385.12 33.13 385.55 33.13 386.38 33.13 386.38 33.13 387.14 32.59 387.57 32.59 387.57 32.05 388.01 31.1 388.01H30.09V388.97H31.15C31.15 388.97 32.01 388.97 32.47 389.31 32.47 389.31 32.92 389.66 32.92 390.3 32.92 390.3 32.92 390.97 32.45 391.32 32.45 391.32 31.98 391.68 31.1 391.68 31.1 391.68 30.62 391.68 30.07 391.58 30.07 391.58 29.52 391.47 28.86 391.25V392.29C28.86 392.29 29.53 392.48 30.1 392.57 30.1 392.57 30.69 392.67 31.2 392.67 31.2 392.67 32.53 392.67 33.31 392.06 33.31 392.06 34.09 391.46 34.09 390.43 34.09 390.43 34.09 389.71 33.67 389.21 33.67 389.21 33.26 388.72 32.51 388.53Z"/>
<path transform="matrix(1,0,0,-1,0,400)" d="M39 391.74C39 391.74 38.1 391.74 37.64 390.85 37.64 390.85 37.19 389.96 37.19 388.18 37.19 388.18 37.19 386.4 37.64 385.51 37.64 385.51 38.1 384.63 39 384.63 39 384.63 39.91 384.63 40.36 385.51 40.36 385.51 40.82 386.4 40.82 388.18 40.82 388.18 40.82 389.96 40.36 390.85 40.36 390.85 39.91 391.74 39 391.74M39 392.67C39 392.67 40.46 392.67 41.22 391.51 41.22 391.51 41.99 390.37 41.99 388.18 41.99 388.18 41.99 386 41.22 384.85 41.22 384.85 40.46 383.7 39 383.7 39 383.7 37.55 383.7 36.78 384.85 36.78 384.85 36.02 386 36.02 388.18 36.02 388.18 36.02 390.37 36.78 391.51 36.78 391.51 37.55 392.67 39 392.67Z"/>
<path transform="matrix(1,0,0,-1,0,400)" d="M4.12 95.24V97.64L12.21 100.67 4.12 103.72V106.11H16V104.55H5.57L13.72 101.48V99.87L5.57 96.8H16V95.24H4.12Z"/>
<path transform="matrix(1,0,0,-1,0,400)" d="M11.52 113.29C11.52 113.29 11.52 111.52 11.93 110.83 11.93 110.83 12.33 110.15 13.31 110.15 13.31 110.15 14.09 110.15 14.55 110.66 14.55 110.66 15.01 111.17 15.01 112.06 15.01 112.06 15.01 113.28 14.15 114.01 14.15 114.01 13.28 114.75 11.85 114.75H11.52V113.29M10.92 116.21H16V114.75H14.65C14.65 114.75 15.46 114.25 15.85 113.5 15.85 113.5 16.23 112.75 16.23 111.67 16.23 111.67 16.23 110.3 15.47 109.49 15.47 109.49 14.7 108.68 13.41 108.68 13.41 108.68 11.9 108.68 11.14 109.69 11.14 109.69 10.38 110.7 10.38 112.69V114.75H10.23C10.23 114.75 9.22 114.75 8.67 114.08 8.67 114.08 8.12 113.42 8.12 112.22 8.12 112.22 8.12 111.45 8.3 110.73 8.3 110.73 8.48 110.01 8.85 109.34H7.49C7.49 109.34 7.18 110.14 7.03 110.9 7.03 110.9 6.87 111.65 6.87 112.37 6.87 112.37 6.87 114.3 7.88 115.26 7.88 115.26 8.88 116.21 10.92 116.21Z"/>
<path transform="matrix(1,0,0,-1,0,400)" d="M7.09 126.64 11.43 123.41 16 126.8V125.08L12.5 122.48 16 119.89V118.16L11.34 121.62 7.09 118.46V120.18L10.26 122.55 7.09 124.91V126.64Z"/>
<path transform="matrix(1,0,0,-1,0,400)" d="M7.09 128.87V130.34H16V128.87H7.09M3.62 128.87V130.34H5.47V128.87H3.62Z"/>
<path transform="matrix(1,0,0,-1,0,400)" d="M8.8 140.34C8.8 140.34 7.81 140.89 7.34 141.65 7.34 141.65 6.87 142.41 6.87 143.45 6.87 143.45 6.87 144.84 7.85 145.6 7.85 145.6 8.82 146.35 10.62 146.35H16V144.88H10.67C10.67 144.88 9.39 144.88 8.77 144.43 8.77 144.43 8.15 143.97 8.15 143.04 8.15 143.04 8.15 141.91 8.9 141.24 8.9 141.24 9.66 140.58 10.96 140.58H16V139.11H10.67C10.67 139.11 9.38 139.11 8.77 138.66 8.77 138.66 8.15 138.21 8.15 137.26 8.15 137.26 8.15 136.14 8.91 135.48 8.91 135.48 9.67 134.82 10.96 134.82H16V133.34H7.09V134.82H8.47C8.47 134.82 7.65 135.32 7.26 136.02 7.26 136.02 6.87 136.72 6.87 137.68 6.87 137.68 6.87 138.65 7.37 139.33 7.37 139.33 7.86 140.01 8.8 140.34Z"/>
<path transform="matrix(1,0,0,-1,0,400)" d="M12.48 149.12H7.09V150.59H12.43C12.43 150.59 13.69 150.59 14.33 151.08 14.33 151.08 14.96 151.57 14.96 152.56 14.96 152.56 14.96 153.75 14.2 154.43 14.2 154.43 13.45 155.12 12.14 155.12H7.09V156.59H16V155.12H14.63C14.63 155.12 15.44 154.59 15.84 153.88 15.84 153.88 16.23 153.18 16.23 152.25 16.23 152.25 16.23 150.71 15.28 149.92 15.28 149.92 14.32 149.12 12.48 149.12M6.87 152.81V152.81Z"/>
<path transform="matrix(1,0,0,-1,0,400)" d="M8.8 166.54C8.8 166.54 7.81 167.09 7.34 167.85 7.34 167.85 6.87 168.62 6.87 169.65 6.87 169.65 6.87 171.04 7.85 171.8 7.85 171.8 8.82 172.56 10.62 172.56H16V171.08H10.67C10.67 171.08 9.39 171.08 8.77 170.63 8.77 170.63 8.15 170.18 8.15 169.25 8.15 169.25 8.15 168.11 8.9 167.45 8.9 167.45 9.66 166.79 10.96 166.79H16V165.32H10.67C10.67 165.32 9.38 165.32 8.77 164.86 8.77 164.86 8.15 164.41 8.15 163.46 8.15 163.46 8.15 162.34 8.91 161.68 8.91 161.68 9.67 161.02 10.96 161.02H16V159.55H7.09V161.02H8.47C8.47 161.02 7.65 161.52 7.26 162.22 7.26 162.22 6.87 162.92 6.87 163.88 6.87 163.88 6.87 164.85 7.37 165.53 7.37 165.53 7.86 166.21 8.8 166.54Z"/>
<path transform="matrix(1,0,0,-1,0,400)" d="M5.04 189.62H6.73C6.73 189.62 5.98 188.8 5.6 187.88 5.6 187.88 5.23 186.97 5.23 185.93 5.23 185.93 5.23 183.9 6.48 182.81 6.48 182.81 7.72 181.73 10.07 181.73 10.07 181.73 12.42 181.73 13.67 182.81 13.67 182.81 14.91 183.9 14.91 185.93 14.91 185.93 14.91 186.97 14.54 187.88 14.54 187.88 14.16 188.8 13.41 189.62H15.09C15.09 189.62 15.66 188.77 15.95 187.83 15.95 187.83 16.23 186.89 16.23 185.84 16.23 185.84 16.23 183.14 14.58 181.59 14.58 181.59 12.93 180.04 10.07 180.04 10.07 180.04 7.21 180.04 5.56 181.59 5.56 181.59 3.91 183.14 3.91 185.84 3.91 185.84 3.91 186.9 4.19 187.84 4.19 187.84 4.47 188.79 5.04 189.62Z"/>
<path transform="matrix(1,0,0,-1,0,400)" d="M3.62 192.04V193.5H16V192.04H3.62Z"/>
<path transform="matrix(1,0,0,-1,0,400)" d="M8.12 200.02C8.12 200.02 8.12 198.84 9.04 198.15 9.04 198.15 9.95 197.47 11.55 197.47 11.55 197.47 13.15 197.47 14.08 198.15 14.08 198.15 14.99 198.83 14.99 200.02 14.99 200.02 14.99 201.19 14.07 201.87 14.07 201.87 13.14 202.55 11.55 202.55 11.55 202.55 9.97 202.55 9.05 201.87 9.05 201.87 8.12 201.19 8.12 200.02M6.87 200.02C6.87 200.02 6.87 201.93 8.12 203.02 8.12 203.02 9.36 204.11 11.55 204.11 11.55 204.11 13.74 204.11 14.99 203.02 14.99 203.02 16.23 201.93 16.23 200.02 16.23 200.02 16.23 198.1 14.99 197.01 14.99 197.01 13.74 195.93 11.55 195.93 11.55 195.93 9.36 195.93 8.12 197.01 8.12 197.01 6.87 198.1 6.87 200.02Z"/>
<path transform="matrix(1,0,0,-1,0,400)" d="M4.56 207.98H7.09V211H8.23V207.98H13.06C13.06 207.98 14.15 207.98 14.47 208.28 14.47 208.28 14.78 208.58 14.78 209.49V211H16V209.49C16 209.49 16 207.8 15.37 207.15 15.37 207.15 14.74 206.51 13.06 206.51H8.23V205.43H7.09V206.51H4.56V207.98Z"/>
<path transform="matrix(1,0,0,-1,0,400)" d="M4.12 218.17V224.99H5.47V219.77H8.97V224.48H10.33V219.77H16V218.17H4.12Z"/>
<path transform="matrix(1,0,0,-1,0,400)" d="M7.09 226.29V227.75H16V226.29H7.09M3.62 226.29V227.75H5.47V226.29H3.62Z"/>
<path transform="matrix(1,0,0,-1,0,400)" d="M8.46 235.98C8.46 235.98 8.31 235.74 8.25 235.44 8.25 235.44 8.18 235.15 8.18 234.8 8.18 234.8 8.18 233.56 8.99 232.9 8.99 232.9 9.79 232.23 11.31 232.23H16V230.76H7.09V232.23H8.47C8.47 232.23 7.66 232.7 7.27 233.44 7.27 233.44 6.87 234.18 6.87 235.23 6.87 235.23 6.87 235.39 6.9 235.57 6.9 235.57 6.91 235.75 6.95 235.97L8.46 235.98Z"/>
<path transform="matrix(1,0,0,-1,0,400)" d="M8.8 244.17C8.8 244.17 7.81 244.72 7.34 245.48 7.34 245.48 6.87 246.25 6.87 247.28 6.87 247.28 6.87 248.67 7.85 249.43 7.85 249.43 8.82 250.19 10.62 250.19H16V248.71H10.67C10.67 248.71 9.39 248.71 8.77 248.26 8.77 248.26 8.15 247.81 8.15 246.88 8.15 246.88 8.15 245.74 8.9 245.08 8.9 245.08 9.66 244.42 10.96 244.42H16V242.94H10.67C10.67 242.94 9.38 242.94 8.77 242.49 8.77 242.49 8.15 242.04 8.15 241.09 8.15 241.09 8.15 239.97 8.91 239.31 8.91 239.31 9.67 238.65 10.96 238.65H16V237.18H7.09V238.65H8.47C8.47 238.65 7.65 239.15 7.26 239.85 7.26 239.85 6.87 240.55 6.87 241.51 6.87 241.51 6.87 242.48 7.37 243.16 7.37 243.16 7.86 243.84 8.8 244.17Z"/>
<path transform="matrix(1,0,0,-1,0,400)" d="M10.62 260.51H16V259.05H10.67C10.67 259.05 9.4 259.05 8.78 258.56 8.78 258.56 8.15 258.06 8.15 257.08 8.15 257.08 8.15 255.89 8.9 255.21 8.9 255.21 9.66 254.52 10.96 254.52H16V253.05H7.09V254.52H8.47C8.47 254.52 7.67 255.05 7.27 255.76 7.27 255.76 6.87 256.47 6.87 257.4 6.87 257.4 6.87 258.94 7.83 259.73 7.83 259.73 8.78 260.51 10.62 260.51Z"/>
<path transform="matrix(1,0,0,-1,0,400)" d="M11.18 271.06H11.9V264.33C11.9 264.33 13.41 264.42 14.2 265.23 14.2 265.23 14.99 266.05 14.99 267.51 14.99 267.51 14.99 268.35 14.78 269.14 14.78 269.14 14.58 269.94 14.16 270.72H15.55C15.55 270.72 15.88 269.93 16.06 269.1 16.06 269.1 16.23 268.27 16.23 267.42 16.23 267.42 16.23 265.29 14.99 264.04 14.99 264.04 13.75 262.8 11.63 262.8 11.63 262.8 9.44 262.8 8.16 263.98 8.16 263.98 6.87 265.16 6.87 267.17 6.87 267.17 6.87 268.96 8.04 270.01 8.04 270.01 9.19 271.06 11.18 271.06M10.75 269.59C10.75 269.59 9.55 269.58 8.83 268.92 8.83 268.92 8.12 268.26 8.12 267.18 8.12 267.18 8.12 265.96 8.81 265.22 8.81 265.22 9.5 264.48 10.76 264.37L10.75 269.59Z"/>
<path transform="matrix(1,0,0,-1,0,400)" d="M7.35 279.14H8.74C8.74 279.14 8.42 278.52 8.26 277.85 8.26 277.85 8.1 277.18 8.1 276.47 8.1 276.47 8.1 275.38 8.43 274.83 8.43 274.83 8.77 274.29 9.44 274.29 9.44 274.29 9.95 274.29 10.24 274.68 10.24 274.68 10.53 275.07 10.79 276.25L10.9 276.75C10.9 276.75 11.23 278.31 11.85 278.96 11.85 278.96 12.45 279.62 13.54 279.62 13.54 279.62 14.78 279.62 15.51 278.63 15.51 278.63 16.23 277.65 16.23 275.94 16.23 275.94 16.23 275.22 16.09 274.44 16.09 274.44 15.95 273.67 15.67 272.81H14.16C14.16 272.81 14.58 273.62 14.8 274.41 14.8 274.41 15.01 275.2 15.01 275.97 15.01 275.97 15.01 277 14.66 277.56 14.66 277.56 14.3 278.12 13.65 278.12 13.65 278.12 13.06 278.12 12.74 277.71 12.74 277.71 12.42 277.31 12.13 275.95L12.01 275.44C12.01 275.44 11.72 274.08 11.13 273.48 11.13 273.48 10.53 272.87 9.5 272.87 9.5 272.87 8.24 272.87 7.56 273.76 7.56 273.76 6.87 274.65 6.87 276.29 6.87 276.29 6.87 277.1 6.99 277.82 6.99 277.82 7.11 278.54 7.35 279.14Z"/>
<path transform="matrix(1,0,0,-1,0,400)" d="M7.35 287.63H8.74C8.74 287.63 8.42 287.01 8.26 286.34 8.26 286.34 8.1 285.67 8.1 284.96 8.1 284.96 8.1 283.87 8.43 283.32 8.43 283.32 8.77 282.78 9.44 282.78 9.44 282.78 9.95 282.78 10.24 283.17 10.24 283.17 10.53 283.56 10.79 284.74L10.9 285.24C10.9 285.24 11.23 286.8 11.85 287.45 11.85 287.45 12.45 288.11 13.54 288.11 13.54 288.11 14.78 288.11 15.51 287.12 15.51 287.12 16.23 286.14 16.23 284.43 16.23 284.43 16.23 283.71 16.09 282.93 16.09 282.93 15.95 282.16 15.67 281.3H14.16C14.16 281.3 14.58 282.11 14.8 282.9 14.8 282.9 15.01 283.69 15.01 284.46 15.01 284.46 15.01 285.49 14.66 286.05 14.66 286.05 14.3 286.61 13.65 286.61 13.65 286.61 13.06 286.61 12.74 286.2 12.74 286.2 12.42 285.8 12.13 284.44L12.01 283.93C12.01 283.93 11.72 282.57 11.13 281.97 11.13 281.97 10.53 281.36 9.5 281.36 9.5 281.36 8.24 281.36 7.56 282.25 7.56 282.25 6.87 283.14 6.87 284.78 6.87 284.78 6.87 285.6 6.99 286.31 6.99 286.31 7.11 287.03 7.35 287.63Z"/>
<path transform="matrix(1,0,0,-1,0,400)" d="M3.64 299.14C3.64 299.14 5.47 298.07 7.26 297.55 7.26 297.55 9.05 297.04 10.88 297.04 10.88 297.04 12.72 297.04 14.53 297.55 14.53 297.55 16.33 298.08 18.15 299.14V297.87C18.15 297.87 16.28 296.67 14.47 296.07 14.47 296.07 12.67 295.49 10.88 295.49 10.88 295.49 9.11 295.49 7.31 296.07 7.31 296.07 5.51 296.66 3.64 297.87V299.14Z"/>
<path transform="matrix(1,0,0,-1,0,400)" d="M8.8 308.92C8.8 308.92 7.81 309.47 7.34 310.23 7.34 310.23 6.87 310.99 6.87 312.03 6.87 312.03 6.87 313.42 7.85 314.18 7.85 314.18 8.82 314.93 10.62 314.93H16V313.46H10.67C10.67 313.46 9.39 313.46 8.77 313.01 8.77 313.01 8.15 312.55 8.15 311.62 8.15 311.62 8.15 310.49 8.9 309.82 8.9 309.82 9.66 309.16 10.96 309.16H16V307.69H10.67C10.67 307.69 9.38 307.69 8.77 307.24 8.77 307.24 8.15 306.78 8.15 305.84 8.15 305.84 8.15 304.72 8.91 304.06 8.91 304.06 9.67 303.4 10.96 303.4H16V301.92H7.09V303.4H8.47C8.47 303.4 7.65 303.9 7.26 304.6 7.26 304.6 6.87 305.3 6.87 306.26 6.87 306.26 6.87 307.23 7.37 307.91 7.37 307.91 7.86 308.59 8.8 308.92Z"/>
<path transform="matrix(1,0,0,-1,0,400)" d="M8.8 324.79C8.8 324.79 7.81 325.34 7.34 326.1 7.34 326.1 6.87 326.87 6.87 327.9 6.87 327.9 6.87 329.3 7.85 330.05 7.85 330.05 8.82 330.81 10.62 330.81H16V329.34H10.67C10.67 329.34 9.39 329.34 8.77 328.88 8.77 328.88 8.15 328.43 8.15 327.5 8.15 327.5 8.15 326.36 8.9 325.7 8.9 325.7 9.66 325.04 10.96 325.04H16V323.57H10.67C10.67 323.57 9.38 323.57 8.77 323.11 8.77 323.11 8.15 322.66 8.15 321.71 8.15 321.71 8.15 320.59 8.91 319.93 8.91 319.93 9.67 319.27 10.96 319.27H16V317.8H7.09V319.27H8.47C8.47 319.27 7.65 319.77 7.26 320.47 7.26 320.47 6.87 321.17 6.87 322.13 6.87 322.13 6.87 323.11 7.37 323.78 7.37 323.78 7.86 324.47 8.8 324.79Z"/>
<path transform="matrix(1,0,0,-1,0,400)" d="M3.64 333.5V334.77C3.64 334.77 5.51 335.96 7.31 336.55 7.31 336.55 9.11 337.15 10.88 337.15 10.88 337.15 12.67 337.15 14.47 336.55 14.47 336.55 16.28 335.96 18.15 334.77V333.5C18.15 333.5 16.33 334.56 14.53 335.07 14.53 335.07 12.72 335.6 10.88 335.6 10.88 335.6 9.05 335.6 7.26 335.07 7.26 335.07 5.47 334.56 3.64 333.5Z"/>
<g clip-path="url(#clip_3)">
<path transform="matrix(1,0,0,-1,0,400)" d="M83.47 221.93V44.21H99.83V221.93H83.47" fill="#1b1b1b" fill-rule="evenodd"/>
</g>
<path transform="matrix(1,0,0,-1,0,400)" stroke-width="0" stroke-linecap="round" stroke-linejoin="round" fill="none" stroke="#000000" d="M83.47 221.93V44.21H99.83V221.93H83.47"/>
<g clip-path="url(#clip_4)">
<path transform="matrix(1,0,0,-1,0,400)" d="M132.3 210.46V44.21H148.66V210.46H132.3" fill="#1b1b1b" fill-rule="evenodd"/>
</g>
<path transform="matrix(1,0,0,-1,0,400)" stroke-width="0" stroke-linecap="round" stroke-linejoin="round" fill="none" stroke="#000000" d="M132.3 210.46V44.21H148.66V210.46H132.3"/>
<g clip-path="url(#clip_5)">
<path transform="matrix(1,0,0,-1,0,400)" d="M181.14 221.93V44.21H197.5V221.93H181.14" fill="#1b1b1b" fill-rule="evenodd"/>
</g>
<path transform="matrix(1,0,0,-1,0,400)" stroke-width="0" stroke-linecap="round" stroke-linejoin="round" fill="none" stroke="#000000" d="M181.14 221.93V44.21H197.5V221.93H181.14"/>
<g clip-path="url(#clip_6)">
<path transform="matrix(1,0,0,-1,0,400)" d="M229.98 210.46V44.21H246.34V210.46H229.98" fill="#1b1b1b" fill-rule="evenodd"/>
</g>
<path transform="matrix(1,0,0,-1,0,400)" stroke-width="0" stroke-linecap="round" stroke-linejoin="round" fill="none" stroke="#000000" d="M229.98 210.46V44.21H246.34V210.46H229.98"/>
<g clip-path="url(#clip_7)">
<path transform="matrix(1,0,0,-1,0,400)" d="M278.81 302.19V44.21H295.17V302.19H278.81" fill="#1b1b1b" fill-rule="evenodd"/>
</g>
<path transform="matrix(1,0,0,-1,0,400)" stroke-width="0" stroke-linecap="round" stroke-linejoin="round" fill="none" stroke="#000000" d="M278.81 302.19V44.21H295.17V302.19H278.81"/>
<g clip-path="url(#clip_8)">
<path transform="matrix(1,0,0,-1,0,400)" d="M327.65 227.66V44.21H344.01V227.66H327.65" fill="#1b1b1b" fill-rule="evenodd"/>
</g>
<path transform="matrix(1,0,0,-1,0,400)" stroke-width="0" stroke-linecap="round" stroke-linejoin="round" fill="none" stroke="#000000" d="M327.65 227.66V44.21H344.01V227.66H327.65"/>
<g clip-path="url(#clip_9)">
<path transform="matrix(1,0,0,-1,0,400)" d="M376.48 273.53V44.21H392.84V273.53H376.48" fill="#1b1b1b" fill-rule="evenodd"/>
</g>
<path transform="matrix(1,0,0,-1,0,400)" stroke-width="0" stroke-linecap="round" stroke-linejoin="round" fill="none" stroke="#000000" d="M376.48 273.53V44.21H392.84V273.53H376.48"/>
<g clip-path="url(#clip_10)">
<path transform="matrix(1,0,0,-1,0,400)" d="M425.32 325.13V44.21H441.68V325.13H425.32" fill="#1b1b1b" fill-rule="evenodd"/>
</g>
<path transform="matrix(1,0,0,-1,0,400)" stroke-width="0" stroke-linecap="round" stroke-linejoin="round" fill="none" stroke="#000000" d="M425.32 325.13V44.21H441.68V325.13H425.32"/>
<g clip-path="url(#clip_11)">
<path transform="matrix(1,0,0,-1,0,400)" d="M474.16 216.2V44.21H490.52V216.2H474.16" fill="#1b1b1b" fill-rule="evenodd"/>
</g>
<path transform="matrix(1,0,0,-1,0,400)" stroke-width="0" stroke-linecap="round" stroke-linejoin="round" fill="none" stroke="#000000" d="M474.16 216.2V44.21H490.52V216.2H474.16"/>
<g clip-path="url(#clip_12)">
<path transform="matrix(1,0,0,-1,0,400)" d="M522.99 307.93V44.21H539.35V307.93H522.99" fill="#1b1b1b" fill-rule="evenodd"/>
</g>
<path transform="matrix(1,0,0,-1,0,400)" stroke-width="0" stroke-linecap="round" stroke-linejoin="round" fill="none" stroke="#000000" d="M522.99 307.93V44.21H539.35V307.93H522.99"/>
<path transform="matrix(1,0,0,-1,0,400)" stroke-width=".8" stroke-linecap="round" stroke-linejoin="round" fill="none" stroke="#1b1b1b" stroke-opacity="0" d="M91.65 221.93V221.93"/>
<path transform="matrix(1,0,0,-1,0,400)" stroke-width=".8" stroke-linecap="round" stroke-linejoin="round" fill="none" stroke="#1b1b1b" stroke-opacity="0" d="M140.48 210.46V210.46"/>
<path transform="matrix(1,0,0,-1,0,400)" stroke-width=".8" stroke-linecap="round" stroke-linejoin="round" fill="none" stroke="#1b1b1b" stroke-opacity="0" d="M189.32 221.93V221.93"/>
<path transform="matrix(1,0,0,-1,0,400)" stroke-width=".8" stroke-linecap="round" stroke-linejoin="round" fill="none" stroke="#1b1b1b" stroke-opacity="0" d="M238.16 210.46V210.46"/>
<path transform="matrix(1,0,0,-1,0,400)" stroke-width=".8" stroke-linecap="round" stroke-linejoin="round" fill="none" stroke="#1b1b1b" stroke-opacity="0" d="M286.99 302.19V302.19"/>
<path transform="matrix(1,0,0,-1,0,400)" stroke-width=".8" stroke-linecap="round" stroke-linejoin="round" fill="none" stroke="#1b1b1b" stroke-opacity="0" d="M335.83 227.66V227.66"/>
<path transform="matrix(1,0,0,-1,0,400)" stroke-width=".8" stroke-linecap="round" stroke-linejoin="round" fill="none" stroke="#1b1b1b" stroke-opacity="0" d="M384.66 273.53V273.53"/>
<path transform="matrix(1,0,0,-1,0,400)" stroke-width=".8" stroke-linecap="round" stroke-linejoin="round" fill="none" stroke="#1b1b1b" stroke-opacity="0" d="M433.5 325.13V325.13"/>
<path transform="matrix(1,0,0,-1,0,400)" stroke-width=".8" stroke-linecap="round" stroke-linejoin="round" fill="none" stroke="#1b1b1b" stroke-opacity="0" d="M482.34 216.2V216.2"/>
<path transform="matrix(1,0,0,-1,0,400)" stroke-width=".8" stroke-linecap="round" stroke-linejoin="round" fill="none" stroke="#1b1b1b" stroke-opacity="0" d="M531.17 307.93V307.93"/>
<g clip-path="url(#clip_13)">
<path transform="matrix(1,0,0,-1,0,400)" d="M99.83 295.65V44.21H116.19V295.65H99.83" fill="#a2a2a2" fill-rule="evenodd"/>
</g>
<path transform="matrix(1,0,0,-1,0,400)" stroke-width="0" stroke-linecap="round" stroke-linejoin="round" fill="none" stroke="#000000" d="M99.83 295.65V44.21H116.19V295.65H99.83"/>
<g clip-path="url(#clip_14)">
<path transform="matrix(1,0,0,-1,0,400)" d="M148.66 284.05V44.21H165.02V284.05H148.66" fill="#a2a2a2" fill-rule="evenodd"/>
</g>
<path transform="matrix(1,0,0,-1,0,400)" stroke-width="0" stroke-linecap="round" stroke-linejoin="round" fill="none" stroke="#000000" d="M148.66 284.05V44.21H165.02V284.05H148.66"/>
<g clip-path="url(#clip_15)">
<path transform="matrix(1,0,0,-1,0,400)" d="M197.5 295.42V44.21H213.86V295.42H197.5" fill="#a2a2a2" fill-rule="evenodd"/>
</g>
<path transform="matrix(1,0,0,-1,0,400)" stroke-width="0" stroke-linecap="round" stroke-linejoin="round" fill="none" stroke="#000000" d="M197.5 295.42V44.21H213.86V295.42H197.5"/>
<g clip-path="url(#clip_16)">
<path transform="matrix(1,0,0,-1,0,400)" d="M246.34 283.11V44.21H262.7V283.11H246.34" fill="#a2a2a2" fill-rule="evenodd"/>
</g>
<path transform="matrix(1,0,0,-1,0,400)" stroke-width="0" stroke-linecap="round" stroke-linejoin="round" fill="none" stroke="#000000" d="M246.34 283.11V44.21H262.7V283.11H246.34"/>
<g clip-path="url(#clip_17)">
<path transform="matrix(1,0,0,-1,0,400)" d="M295.17 322.45V44.21H311.53V322.45H295.17" fill="#a2a2a2" fill-rule="evenodd"/>
</g>
<path transform="matrix(1,0,0,-1,0,400)" stroke-width="0" stroke-linecap="round" stroke-linejoin="round" fill="none" stroke="#000000" d="M295.17 322.45V44.21H311.53V322.45H295.17"/>
<g clip-path="url(#clip_18)">
<path transform="matrix(1,0,0,-1,0,400)" d="M344.01 307.67V44.21H360.37V307.67H344.01" fill="#a2a2a2" fill-rule="evenodd"/>
</g>
<path transform="matrix(1,0,0,-1,0,400)" stroke-width="0" stroke-linecap="round" stroke-linejoin="round" fill="none" stroke="#000000" d="M344.01 307.67V44.21H360.37V307.67H344.01"/>
<g clip-path="url(#clip_19)">
<path transform="matrix(1,0,0,-1,0,400)" d="M392.84 310.09V44.21H409.2V310.09H392.84" fill="#a2a2a2" fill-rule="evenodd"/>
</g>
<path transform="matrix(1,0,0,-1,0,400)" stroke-width="0" stroke-linecap="round" stroke-linejoin="round" fill="none" stroke="#000000" d="M392.84 310.09V44.21H409.2V310.09H392.84"/>
<g clip-path="url(#clip_20)">
<path transform="matrix(1,0,0,-1,0,400)" d="M441.68 327.68V44.21H458.04V327.68H441.68" fill="#a2a2a2" fill-rule="evenodd"/>
</g>
<path transform="matrix(1,0,0,-1,0,400)" stroke-width="0" stroke-linecap="round" stroke-linejoin="round" fill="none" stroke="#000000" d="M441.68 327.68V44.21H458.04V327.68H441.68"/>
<g clip-path="url(#clip_21)">
<path transform="matrix(1,0,0,-1,0,400)" d="M490.52 290.61V44.21H506.88V290.61H490.52" fill="#a2a2a2" fill-rule="evenodd"/>
</g>
<path transform="matrix(1,0,0,-1,0,400)" stroke-width="0" stroke-linecap="round" stroke-linejoin="round" fill="none" stroke="#000000" d="M490.52 290.61V44.21H506.88V290.61H490.52"/>
<g clip-path="url(#clip_22)">
<path transform="matrix(1,0,0,-1,0,400)" d="M539.35 329.56V44.21H555.71V329.56H539.35" fill="#a2a2a2" fill-rule="evenodd"/>
</g>
<path transform="matrix(1,0,0,-1,0,400)" stroke-width="0" stroke-linecap="round" stroke-linejoin="round" fill="none" stroke="#000000" d="M539.35 329.56V44.21H555.71V329.56H539.35"/>
<path transform="matrix(1,0,0,-1,0,400)" stroke-width=".8" stroke-linecap="round" stroke-linejoin="round" fill="none" stroke="#a2a2a2" stroke-opacity="0" d="M108.01 295.65V295.65"/>
<path transform="matrix(1,0,0,-1,0,400)" stroke-width=".8" stroke-linecap="round" stroke-linejoin="round" fill="none" stroke="#a2a2a2" stroke-opacity="0" d="M156.84 284.05V284.05"/>
<path transform="matrix(1,0,0,-1,0,400)" stroke-width=".8" stroke-linecap="round" stroke-linejoin="round" fill="none" stroke="#a2a2a2" stroke-opacity="0" d="M205.68 295.42V295.42"/>
<path transform="matrix(1,0,0,-1,0,400)" stroke-width=".8" stroke-linecap="round" stroke-linejoin="round" fill="none" stroke="#a2a2a2" stroke-opacity="0" d="M254.52 283.11V283.11"/>
<path transform="matrix(1,0,0,-1,0,400)" stroke-width=".8" stroke-linecap="round" stroke-linejoin="round" fill="none" stroke="#a2a2a2" stroke-opacity="0" d="M303.35 322.45V322.45"/>
<path transform="matrix(1,0,0,-1,0,400)" stroke-width=".8" stroke-linecap="round" stroke-linejoin="round" fill="none" stroke="#a2a2a2" stroke-opacity="0" d="M352.19 307.67V307.67"/>
<path transform="matrix(1,0,0,-1,0,400)" stroke-width=".8" stroke-linecap="round" stroke-linejoin="round" fill="none" stroke="#a2a2a2" stroke-opacity="0" d="M401.02 310.09V310.09"/>
<path transform="matrix(1,0,0,-1,0,400)" stroke-width=".8" stroke-linecap="round" stroke-linejoin="round" fill="none" stroke="#a2a2a2" stroke-opacity="0" d="M449.86 327.68V327.68"/>
<path transform="matrix(1,0,0,-1,0,400)" stroke-width=".8" stroke-linecap="round" stroke-linejoin="round" fill="none" stroke="#a2a2a2" stroke-opacity="0" d="M498.7 290.61V290.61"/>
<path transform="matrix(1,0,0,-1,0,400)" stroke-width=".8" stroke-linecap="round" stroke-linejoin="round" fill="none" stroke="#a2a2a2" stroke-opacity="0" d="M547.53 329.56V329.56"/>
<g clip-path="url(#clip_23)">
<path transform="matrix(1,0,0,-1,0,400)" d="M458.53 337.84H570.28V376.72H458.53" fill="#ffffff" fill-rule="evenodd"/>
</g>
<path transform="matrix(1,0,0,-1,0,400)" stroke-width="1" stroke-linecap="round" stroke-linejoin="round" fill="none" stroke="#000000" stroke-opacity="0" d="M458.53 337.84H570.28V376.72H458.53V337.84"/>
<path transform="matrix(1,0,0,-1,0,400)" d="M482.41 368.88C479.58 368.88 477.29 366.59 477.29 363.76 477.29 360.94 479.58 358.64 482.41 358.64 485.23 358.64 487.53 360.94 487.53 363.76 487.53 366.59 485.23 368.88 482.41 368.88" fill="#1b1b1b" fill-rule="evenodd"/>
<path transform="matrix(1,0,0,-1,0,400)" d="M511.84 367.8V366.66C511.84 366.66 511.18 366.98 510.59 367.13 510.59 367.13 510 367.29 509.45 367.29 509.45 367.29 508.49 367.29 507.97 366.92 507.97 366.92 507.46 366.55 507.46 365.87 507.46 365.87 507.46 365.29 507.8 365 507.8 365 508.14 364.71 509.11 364.53L509.81 364.38C509.81 364.38 511.12 364.14 511.74 363.51 511.74 363.51 512.36 362.88 512.36 361.83 512.36 361.83 512.36 360.57 511.52 359.92 511.52 359.92 510.68 359.28 509.05 359.28 509.05 359.28 508.44 359.28 507.75 359.41 507.75 359.41 507.06 359.55 506.32 359.82V361.03C506.32 361.03 507.03 360.63 507.71 360.43 507.71 360.43 508.39 360.22 509.05 360.22 509.05 360.22 510.05 360.22 510.6 360.62 510.6 360.62 511.14 361.01 511.14 361.74 511.14 361.74 511.14 362.38 510.75 362.74 510.75 362.74 510.36 363.09 509.47 363.27L508.76 363.41C508.76 363.41 507.45 363.67 506.87 364.23 506.87 364.23 506.28 364.78 506.28 365.77 506.28 365.77 506.28 366.92 507.09 367.58 507.09 367.58 507.9 368.24 509.31 368.24 509.31 368.24 509.92 368.24 510.55 368.13 510.55 368.13 511.18 368.02 511.84 367.8Z"/>
<path transform="matrix(1,0,0,-1,0,400)" d="M514.14 365.92H515.2V359.44H514.14V365.92M514.14 368.45H515.2V367.1H514.14V368.45Z"/>
<path transform="matrix(1,0,0,-1,0,400)" d="M522.48 364.68C522.48 364.68 522.88 365.4 523.43 365.74 523.43 365.74 523.99 366.08 524.74 366.08 524.74 366.08 525.75 366.08 526.3 365.37 526.3 365.37 526.85 364.66 526.85 363.35V359.44H525.78V363.32C525.78 363.32 525.78 364.25 525.45 364.7 525.45 364.7 525.12 365.15 524.45 365.15 524.45 365.15 523.62 365.15 523.14 364.6 523.14 364.6 522.66 364.06 522.66 363.11V359.44H521.59V363.32C521.59 363.32 521.59 364.26 521.26 364.7 521.26 364.7 520.93 365.15 520.24 365.15 520.24 365.15 519.42 365.15 518.94 364.6 518.94 364.6 518.46 364.05 518.46 363.11V359.44H517.39V365.92H518.46V364.92C518.46 364.92 518.83 365.51 519.34 365.8 519.34 365.8 519.85 366.08 520.55 366.08 520.55 366.08 521.25 366.08 521.74 365.72 521.74 365.72 522.24 365.36 522.48 364.68Z"/>
<path transform="matrix(1,0,0,-1,0,400)" d="M528.87 362V365.92H529.93V362.04C529.93 362.04 529.93 361.12 530.29 360.66 530.29 360.66 530.65 360.2 531.37 360.2 531.37 360.2 532.23 360.2 532.73 360.75 532.73 360.75 533.23 361.3 533.23 362.25V365.92H534.3V359.44H533.23V360.44C533.23 360.44 532.84 359.85 532.33 359.56 532.33 359.56 531.82 359.28 531.14 359.28 531.14 359.28 530.03 359.28 529.45 359.97 529.45 359.97 528.87 360.66 528.87 362M531.55 366.08V366.08Z"/>
<path transform="matrix(1,0,0,-1,0,400)" d="M536.49 368.45H537.55V359.44H536.49V368.45Z"/>
<path transform="matrix(1,0,0,-1,0,400)" d="M542.73 362.7C542.73 362.7 541.44 362.7 540.94 362.41 540.94 362.41 540.44 362.11 540.44 361.4 540.44 361.4 540.44 360.83 540.81 360.5 540.81 360.5 541.19 360.17 541.83 360.17 541.83 360.17 542.72 360.17 543.25 360.79 543.25 360.79 543.79 361.42 543.79 362.46V362.7H542.73M544.85 363.14V359.44H543.79V360.43C543.79 360.43 543.42 359.84 542.88 359.55 542.88 359.55 542.33 359.28 541.55 359.28 541.55 359.28 540.55 359.28 539.96 359.83 539.96 359.83 539.38 360.39 539.38 361.33 539.38 361.33 539.38 362.42 540.11 362.98 540.11 362.98 540.84 363.53 542.29 363.53H543.79V363.64C543.79 363.64 543.79 364.37 543.3 364.77 543.3 364.77 542.82 365.18 541.95 365.18 541.95 365.18 541.39 365.18 540.86 365.04 540.86 365.04 540.34 364.91 539.85 364.65V365.63C539.85 365.63 540.44 365.85 540.99 365.96 540.99 365.96 541.54 366.08 542.06 366.08 542.06 366.08 543.46 366.08 544.16 365.35 544.16 365.35 544.85 364.62 544.85 363.14Z"/>
<path transform="matrix(1,0,0,-1,0,400)" d="M548.1 367.76V365.92H550.29V365.1H548.1V361.58C548.1 361.58 548.1 360.79 548.31 360.56 548.31 360.56 548.53 360.33 549.2 360.33H550.29V359.44H549.2C549.2 359.44 547.97 359.44 547.5 359.9 547.5 359.9 547.03 360.36 547.03 361.58V365.1H546.25V365.92H547.03V367.76H548.1Z"/>
<path transform="matrix(1,0,0,-1,0,400)" d="M557.24 362.95V362.43H552.34C552.34 362.43 552.41 361.33 553 360.75 553 360.75 553.6 360.18 554.65 360.18 554.65 360.18 555.27 360.18 555.84 360.33 555.84 360.33 556.42 360.48 556.99 360.78V359.77C556.99 359.77 556.41 359.53 555.81 359.4 555.81 359.4 555.21 359.28 554.59 359.28 554.59 359.28 553.04 359.28 552.13 360.18 552.13 360.18 551.23 361.08 551.23 362.62 551.23 362.62 551.23 364.21 552.09 365.14 552.09 365.14 552.95 366.08 554.41 366.08 554.41 366.08 555.71 366.08 556.47 365.24 556.47 365.24 557.24 364.4 557.24 362.95M556.17 363.26C556.17 363.26 556.16 364.14 555.68 364.66 555.68 364.66 555.2 365.18 554.42 365.18 554.42 365.18 553.53 365.18 552.99 364.67 552.99 364.67 552.46 364.17 552.37 363.26H556.17Z"/>
<path transform="matrix(1,0,0,-1,0,400)" d="M563.25 364.94V368.45H564.31V359.44H563.25V360.42C563.25 360.42 562.91 359.84 562.4 359.55 562.4 359.55 561.89 359.28 561.17 359.28 561.17 359.28 560 359.28 559.26 360.21 559.26 360.21 558.52 361.15 558.52 362.68 558.52 362.68 558.52 364.21 559.26 365.14 559.26 365.14 560 366.08 561.17 366.08 561.17 366.08 561.89 366.08 562.4 365.8 562.4 365.8 562.91 365.52 563.25 364.94M559.62 362.68C559.62 362.68 559.62 361.5 560.1 360.83 560.1 360.83 560.59 360.17 561.43 360.17 561.43 360.17 562.28 360.17 562.76 360.83 562.76 360.83 563.25 361.5 563.25 362.68 563.25 362.68 563.25 363.85 562.76 364.52 562.76 364.52 562.28 365.19 561.43 365.19 561.43 365.19 560.59 365.19 560.1 364.52 560.1 364.52 559.62 363.85 559.62 362.68Z"/>
<path transform="matrix(1,0,0,-1,0,400)" d="M482.41 355.92C479.58 355.92 477.29 353.63 477.29 350.8 477.29 347.98 479.58 345.68 482.41 345.68 485.23 345.68 487.53 347.98 487.53 350.8 487.53 353.63 485.23 355.92 482.41 355.92" fill="#a2a2a2" fill-rule="evenodd"/>
<path transform="matrix(1,0,0,-1,0,400)" d="M510.24 353.97 508.65 349.67H511.83L510.24 353.97M509.58 355.12H510.91L514.2 346.48H512.98L512.2 348.7H508.3L507.51 346.48H506.28L509.58 355.12Z"/>
<path transform="matrix(1,0,0,-1,0,400)" d="M519.87 352.72V351.72C519.87 351.72 519.42 351.97 518.96 352.09 518.96 352.09 518.51 352.22 518.05 352.22 518.05 352.22 517.01 352.22 516.44 351.56 516.44 351.56 515.86 350.9 515.86 349.72 515.86 349.72 515.86 348.53 516.44 347.87 516.44 347.87 517.01 347.22 518.05 347.22 518.05 347.22 518.51 347.22 518.96 347.34 518.96 347.34 519.42 347.47 519.87 347.72V346.73C519.87 346.73 519.42 346.52 518.94 346.42 518.94 346.42 518.47 346.32 517.93 346.32 517.93 346.32 516.47 346.32 515.6 347.24 515.6 347.24 514.74 348.16 514.74 349.72 514.74 349.72 514.74 351.3 515.61 352.21 515.61 352.21 516.48 353.12 518 353.12 518 353.12 518.49 353.12 518.96 353.02 518.96 353.02 519.43 352.92 519.87 352.72Z"/>
<path transform="matrix(1,0,0,-1,0,400)" d="M522.77 354.8V352.96H524.97V352.14H522.77V348.62C522.77 348.62 522.77 347.83 522.99 347.6 522.99 347.6 523.21 347.37 523.87 347.37H524.97V346.48H523.87C523.87 346.48 522.64 346.48 522.17 346.94 522.17 346.94 521.7 347.4 521.7 348.62V352.14H520.92V352.96H521.7V354.8H522.77Z"/>
<path transform="matrix(1,0,0,-1,0,400)" d="M526.26 349.04V352.96H527.32V349.08C527.32 349.08 527.32 348.16 527.68 347.7 527.68 347.7 528.04 347.24 528.76 347.24 528.76 347.24 529.62 347.24 530.12 347.79 530.12 347.79 530.62 348.34 530.62 349.29V352.96H531.69V346.48H530.62V347.48C530.62 347.48 530.23 346.89 529.72 346.6 529.72 346.6 529.21 346.32 528.53 346.32 528.53 346.32 527.42 346.32 526.84 347.01 526.84 347.01 526.26 347.7 526.26 349.04M528.94 353.12V353.12Z"/>
<path transform="matrix(1,0,0,-1,0,400)" d="M536.83 349.74C536.83 349.74 535.53 349.74 535.04 349.45 535.04 349.45 534.54 349.15 534.54 348.44 534.54 348.44 534.54 347.87 534.91 347.54 534.91 347.54 535.29 347.21 535.93 347.21 535.93 347.21 536.81 347.21 537.35 347.83 537.35 347.83 537.88 348.46 537.88 349.5V349.74H536.83M538.95 350.18V346.48H537.88V347.47C537.88 347.47 537.52 346.88 536.98 346.59 536.98 346.59 536.43 346.32 535.64 346.32 535.64 346.32 534.65 346.32 534.06 346.87 534.06 346.87 533.47 347.43 533.47 348.37 533.47 348.37 533.47 349.46 534.2 350.02 534.2 350.02 534.94 350.57 536.39 350.57H537.88V350.68C537.88 350.68 537.88 351.41 537.4 351.81 537.4 351.81 536.92 352.22 536.04 352.22 536.04 352.22 535.49 352.22 534.96 352.08 534.96 352.08 534.44 351.95 533.95 351.69V352.67C533.95 352.67 534.53 352.89 535.08 353 535.08 353 535.63 353.12 536.15 353.12 536.15 353.12 537.56 353.12 538.25 352.39 538.25 352.39 538.95 351.66 538.95 350.18Z"/>
<path transform="matrix(1,0,0,-1,0,400)" d="M541.14 355.49H542.21V346.48H541.14V355.49Z"/>
</g>
</svg>
