<svg xmlns="http://www.w3.org/2000/svg" xmlns:xlink="http://www.w3.org/1999/xlink" version="1.1" width="600pt" height="400pt" viewBox="0 0 600 400">
<defs>
<clipPath id="clip_0">
<path transform="matrix(1,0,0,-1,0,400)" d="M0 0H600V400H0Z"/>
</clipPath>
<clipPath id="clip_1">
<path transform="matrix(1,0,0,-1,0,400)" d="M0 0H600V600H0Z"/>
</clipPath>
<clipPath id="clip_2">
<path transform="matrix(1,0,0,-1,0,400)" d="M0 0H600V600H0Z"/>
</clipPath>
<clipPath id="clip_3">
<path transform="matrix(1,0,0,-1,0,400)" d="M51.28 44.21H588.19V388.19H51.28Z"/>
</clipPath>
<clipPath id="clip_4">
<path transform="matrix(1,0,0,-1,0,400)" d="M51.28 44.21H588.19V388.19H51.28Z"/>
</clipPath>
<clipPath id="clip_5">
<path transform="matrix(1,0,0,-1,0,400)" d="M51.28 44.21H588.19V388.19H51.28Z"/>
</clipPath>
<clipPath id="clip_6">
<path transform="matrix(1,0,0,-1,0,400)" d="M51.28 44.21H588.19V388.19H51.28Z"/>
</clipPath>
<clipPath id="clip_7">
<path transform="matrix(1,0,0,-1,0,400)" d="M51.28 44.21H588.19V388.19H51.28Z"/>
</clipPath>
<clipPath id="clip_8">
<path transform="matrix(1,0,0,-1,0,400)" d="M51.28 44.21H588.19V388.19H51.28Z"/>
</clipPath>
<clipPath id="clip_9">
<path transform="matrix(1,0,0,-1,0,400)" d="M51.28 44.21H588.19V388.19H51.28Z"/>
</clipPath>
<clipPath id="clip_10">
<path transform="matrix(1,0,0,-1,0,400)" d="M51.28 44.21H588.19V388.19H51.28Z"/>
</clipPath>
<clipPath id="clip_11">
<path transform="matrix(1,0,0,-1,0,400)" d="M51.28 44.21H588.19V388.19H51.28Z"/>
</clipPath>
<clipPath id="clip_12">
<path transform="matrix(1,0,0,-1,0,400)" d="M51.28 44.21H588.19V388.19H51.28Z"/>
</clipPath>
<clipPath id="clip_13">
<path transform="matrix(1,0,0,-1,0,400)" d="M51.28 44.21H588.19V388.19H51.28Z"/>
</clipPath>
<clipPath id="clip_14">
<path transform="matrix(1,0,0,-1,0,400)" d="M51.28 44.21H588.19V388.19H51.28Z"/>
</clipPath>
<clipPath id="clip_15">
<path transform="matrix(1,0,0,-1,0,400)" d="M51.28 44.21H588.19V388.19H51.28Z"/>
</clipPath>
<clipPath id="clip_16">
<path transform="matrix(1,0,0,-1,0,400)" d="M51.28 44.21H588.19V388.19H51.28Z"/>
</clipPath>
<clipPath id="clip_17">
<path transform="matrix(1,0,0,-1,0,400)" d="M51.28 44.21H588.19V388.19H51.28Z"/>
</clipPath>
<clipPath id="clip_18">
<path transform="matrix(1,0,0,-1,0,400)" d="M51.28 44.21H588.19V388.19H51.28Z"/>
</clipPath>
<clipPath id="clip_19">
<path transform="matrix(1,0,0,-1,0,400)" d="M51.28 44.21H588.19V388.19H51.28Z"/>
</clipPath>
<clipPath id="clip_20">
<path transform="matrix(1,0,0,-1,0,400)" d="M51.28 44.21H588.19V388.19H51.28Z"/>
</clipPath>
<clipPath id="clip_21">
<path transform="matrix(1,0,0,-1,0,400)" d="M51.28 44.21H588.19V388.19H51.28Z"/>
</clipPath>
<clipPath id="clip_22">
<path transform="matrix(1,0,0,-1,0,400)" d="M51.28 44.21H588.19V388.19H51.28Z"/>
</clipPath>
<clipPath id="clip_23">
<path transform="matrix(1,0,0,-1,0,400)" d="M0 0H600V600H0Z"/>
</clipPath>
</defs>
<g clip-path="url(#clip_0)">
<g clip-path="url(#clip_1)">
<path transform="matrix(1,0,0,-1,0,400)" d="M0 0H600V400H0" fill="#ffffff" fill-rule="evenodd"/>
</g>
<g clip-path="url(#clip_2)">
<path transform="matrix(1,0,0,-1,0,400)" d="M51.28 44.21H588.19V388.19H51.28" fill="#ffffff" fill-rule="evenodd"/>
</g>
<path transform="matrix(1,0,0,-1,0,400)" stroke-width="1" stroke-linecap="round" stroke-linejoin="round" fill="none" stroke="#000000" d="M51.28 44.21H588.19"/>
<path transform="matrix(1,0,0,-1,0,400)" stroke-width="1" stroke-linecap="round" stroke-linejoin="round" fill="none" stroke="#000000" d="M100.09 44.21V48.93"/>
<path transform="matrix(1,0,0,-1,0,400)" stroke-width="1" stroke-linecap="round" stroke-linejoin="round" fill="none" stroke="#000000" d="M148.9 44.21V48.93"/>
<path transform="matrix(1,0,0,-1,0,400)" stroke-width="1" stroke-linecap="round" stroke-linejoin="round" fill="none" stroke="#000000" d="M197.71 44.21V48.93"/>
<path transform="matrix(1,0,0,-1,0,400)" stroke-width="1" stroke-linecap="round" stroke-linejoin="round" fill="none" stroke="#000000" d="M246.52 44.21V48.93"/>
<path transform="matrix(1,0,0,-1,0,400)" stroke-width="1" stroke-linecap="round" stroke-linejoin="round" fill="none" stroke="#000000" d="M295.33 44.21V48.93"/>
<path transform="matrix(1,0,0,-1,0,400)" stroke-width="1" stroke-linecap="round" stroke-linejoin="round" fill="none" stroke="#000000" d="M344.14 44.21V48.93"/>
<path transform="matrix(1,0,0,-1,0,400)" stroke-width="1" stroke-linecap="round" stroke-linejoin="round" fill="none" stroke="#000000" d="M392.95 44.21V48.93"/>
<path transform="matrix(1,0,0,-1,0,400)" stroke-width="1" stroke-linecap="round" stroke-linejoin="round" fill="none" stroke="#000000" d="M441.76 44.21V48.93"/>
<path transform="matrix(1,0,0,-1,0,400)" stroke-width="1" stroke-linecap="round" stroke-linejoin="round" fill="none" stroke="#000000" d="M490.57 44.21V48.93"/>
<path transform="matrix(1,0,0,-1,0,400)" stroke-width="1" stroke-linecap="round" stroke-linejoin="round" fill="none" stroke="#000000" d="M539.38 44.21V48.93"/>
<path transform="matrix(1,0,0,-1,0,400)" d="M97.69 29.59H99.6V36.18L97.52 35.76V36.83L99.58 37.25H100.75V29.59H102.66V28.61H97.69V29.59Z"/>
<path transform="matrix(1,0,0,-1,0,400)" d="M147.56 29.59H151.64V28.61H146.16V29.59C146.16 29.59 146.82 30.28 147.97 31.43 147.97 31.43 149.12 32.6 149.42 32.93 149.42 32.93 149.98 33.56 150.2 34 150.2 34 150.42 34.44 150.42 34.86 150.42 34.86 150.42 35.55 149.94 35.98 149.94 35.98 149.46 36.42 148.68 36.42 148.68 36.42 148.13 36.42 147.52 36.23 147.52 36.23 146.91 36.04 146.21 35.65V36.83C146.21 36.83 146.92 37.11 147.53 37.26 147.53 37.26 148.15 37.4 148.66 37.4 148.66 37.4 150 37.4 150.8 36.73 150.8 36.73 151.6 36.06 151.6 34.94 151.6 34.94 151.6 34.4 151.39 33.92 151.39 33.92 151.2 33.45 150.67 32.8 150.67 32.8 150.53 32.63 149.75 31.83 149.75 31.83 148.98 31.03 147.56 29.59Z"/>
<path transform="matrix(1,0,0,-1,0,400)" d="M198.77 33.26C198.77 33.26 199.61 33.08 200.08 32.52 200.08 32.52 200.55 31.95 200.55 31.12 200.55 31.12 200.55 29.84 199.67 29.14 199.67 29.14 198.79 28.44 197.17 28.44 197.17 28.44 196.63 28.44 196.05 28.55 196.05 28.55 195.48 28.65 194.87 28.87V29.99C194.87 29.99 195.35 29.71 195.93 29.57 195.93 29.57 196.51 29.42 197.14 29.42 197.14 29.42 198.24 29.42 198.81 29.86 198.81 29.86 199.39 30.29 199.39 31.12 199.39 31.12 199.39 31.88 198.85 32.31 198.85 32.31 198.32 32.74 197.37 32.74H196.36V33.7H197.41C197.41 33.7 198.27 33.7 198.73 34.04 198.73 34.04 199.19 34.39 199.19 35.04 199.19 35.04 199.19 35.71 198.71 36.06 198.71 36.06 198.25 36.42 197.37 36.42 197.37 36.42 196.89 36.42 196.34 36.31 196.34 36.31 195.79 36.21 195.13 35.99V37.03C195.13 37.03 195.79 37.22 196.37 37.31 196.37 37.31 196.95 37.4 197.47 37.4 197.47 37.4 198.8 37.4 199.58 36.79 199.58 36.79 200.35 36.19 200.35 35.16 200.35 35.16 200.35 34.44 199.94 33.95 199.94 33.95 199.53 33.45 198.77 33.26Z"/>
<path transform="matrix(1,0,0,-1,0,400)" d="M247.27 36.23 244.32 31.61H247.27V36.23M246.97 37.25H248.44V31.61H249.67V30.64H248.44V28.61H247.27V30.64H243.37V31.77L246.97 37.25Z"/>
<path transform="matrix(1,0,0,-1,0,400)" d="M292.9 37.25H297.49V36.26H293.97V34.14C293.97 34.14 294.22 34.23 294.48 34.27 294.48 34.27 294.73 34.32 294.99 34.32 294.99 34.32 296.43 34.32 297.28 33.52 297.28 33.52 298.12 32.73 298.12 31.38 298.12 31.38 298.12 29.98 297.26 29.21 297.26 29.21 296.39 28.44 294.81 28.44 294.81 28.44 294.26 28.44 293.7 28.53 293.7 28.53 293.14 28.62 292.53 28.81V29.98C292.53 29.98 293.06 29.7 293.61 29.56 293.61 29.56 294.17 29.42 294.79 29.42 294.79 29.42 295.79 29.42 296.37 29.95 296.37 29.95 296.96 30.47 296.96 31.38 296.96 31.38 296.96 32.28 296.37 32.81 296.37 32.81 295.79 33.33 294.79 33.33 294.79 33.33 294.32 33.33 293.85 33.23 293.85 33.23 293.39 33.12 292.9 32.9V37.25Z"/>
<path transform="matrix(1,0,0,-1,0,400)" d="M344.24 33.39C344.24 33.39 343.45 33.39 342.99 32.85 342.99 32.85 342.53 32.31 342.53 31.38 342.53 31.38 342.53 30.45 342.99 29.9 342.99 29.9 343.45 29.36 344.24 29.36 344.24 29.36 345.03 29.36 345.49 29.9 345.49 29.9 345.95 30.45 345.95 31.38 345.95 31.38 345.95 32.31 345.49 32.85 345.49 32.85 345.03 33.39 344.24 33.39M346.56 37.05V35.99C346.56 35.99 346.12 36.2 345.67 36.31 345.67 36.31 345.22 36.42 344.78 36.42 344.78 36.42 343.63 36.42 343.01 35.64 343.01 35.64 342.41 34.86 342.32 33.28 342.32 33.28 342.66 33.78 343.18 34.04 343.18 34.04 343.69 34.32 344.31 34.32 344.31 34.32 345.61 34.32 346.36 33.52 346.36 33.52 347.12 32.74 347.12 31.38 347.12 31.38 347.12 30.05 346.34 29.24 346.34 29.24 345.55 28.44 344.24 28.44 344.24 28.44 342.74 28.44 341.95 29.58 341.95 29.58 341.16 30.73 341.16 32.92 341.16 32.92 341.16 34.96 342.13 36.18 342.13 36.18 343.1 37.4 344.74 37.4 344.74 37.4 345.18 37.4 345.62 37.31 345.62 37.31 346.08 37.23 346.56 37.05Z"/>
<path transform="matrix(1,0,0,-1,0,400)" d="M390.17 37.25H395.73V36.75L392.59 28.61H391.37L394.32 36.26H390.17V37.25Z"/>
<path transform="matrix(1,0,0,-1,0,400)" d="M441.76 32.71C441.76 32.71 440.93 32.71 440.45 32.26 440.45 32.26 439.97 31.82 439.97 31.04 439.97 31.04 439.97 30.25 440.45 29.81 440.45 29.81 440.93 29.36 441.76 29.36 441.76 29.36 442.59 29.36 443.07 29.81 443.07 29.81 443.55 30.26 443.55 31.04 443.55 31.04 443.55 31.82 443.07 32.26 443.07 32.26 442.6 32.71 441.76 32.71M440.59 33.21C440.59 33.21 439.84 33.39 439.42 33.91 439.42 33.91 439 34.42 439 35.16 439 35.16 439 36.2 439.73 36.8 439.73 36.8 440.47 37.4 441.76 37.4 441.76 37.4 443.05 37.4 443.78 36.8 443.78 36.8 444.52 36.2 444.52 35.16 444.52 35.16 444.52 34.42 444.1 33.91 444.1 33.91 443.68 33.39 442.93 33.21 442.93 33.21 443.78 33.01 444.25 32.44 444.25 32.44 444.72 31.86 444.72 31.04 444.72 31.04 444.72 29.78 443.95 29.11 443.95 29.11 443.19 28.44 441.76 28.44 441.76 28.44 440.33 28.44 439.56 29.11 439.56 29.11 438.8 29.78 438.8 31.04 438.8 31.04 438.8 31.86 439.27 32.44 439.27 32.44 439.75 33.01 440.59 33.21M440.16 35.05C440.16 35.05 440.16 34.38 440.58 34 440.58 34 441 33.63 441.76 33.63 441.76 33.63 442.51 33.63 442.93 34 442.93 34 443.36 34.38 443.36 35.05 443.36 35.05 443.36 35.72 442.93 36.1 442.93 36.1 442.51 36.48 441.76 36.48 441.76 36.48 441 36.48 440.58 36.1 440.58 36.1 440.16 35.72 440.16 35.05Z"/>
<path transform="matrix(1,0,0,-1,0,400)" d="M488.14 28.78V29.85C488.14 29.85 488.58 29.64 489.04 29.53 489.04 29.53 489.49 29.42 489.92 29.42 489.92 29.42 491.08 29.42 491.69 30.2 491.69 30.2 492.3 30.98 492.39 32.56 492.39 32.56 492.05 32.07 491.54 31.8 491.54 31.8 491.02 31.53 490.4 31.53 490.4 31.53 489.1 31.53 488.34 32.31 488.34 32.31 487.59 33.1 487.59 34.46 487.59 34.46 487.59 35.79 488.38 36.6 488.38 36.6 489.16 37.4 490.47 37.4 490.47 37.4 491.97 37.4 492.76 36.25 492.76 36.25 493.55 35.1 493.55 32.92 493.55 32.92 493.55 30.87 492.58 29.65 492.58 29.65 491.61 28.44 489.97 28.44 489.97 28.44 489.53 28.44 489.08 28.52 489.08 28.52 488.63 28.61 488.14 28.78M490.47 32.45C490.47 32.45 491.26 32.45 491.72 32.99 491.72 32.99 492.18 33.52 492.18 34.46 492.18 34.46 492.18 35.39 491.72 35.93 491.72 35.93 491.26 36.48 490.47 36.48 490.47 36.48 489.68 36.48 489.22 35.93 489.22 35.93 488.76 35.39 488.76 34.46 488.76 34.46 488.76 33.52 489.22 32.99 489.22 32.99 489.68 32.45 490.47 32.45Z"/>
<path transform="matrix(1,0,0,-1,0,400)" d="M533.05 29.59H534.96V36.18L532.88 35.76V36.83L534.95 37.25H536.12V29.59H538.03V28.61H533.05V29.59Z"/>
<path transform="matrix(1,0,0,-1,0,400)" d="M542.89 36.48C542.89 36.48 541.99 36.48 541.53 35.58 541.53 35.58 541.08 34.7 541.08 32.92 541.08 32.92 541.08 31.14 541.53 30.25 541.53 30.25 541.99 29.36 542.89 29.36 542.89 29.36 543.8 29.36 544.25 30.25 544.25 30.25 544.71 31.14 544.71 32.92 544.71 32.92 544.71 34.7 544.25 35.58 544.25 35.58 543.8 36.48 542.89 36.48M542.89 37.4C542.89 37.4 544.34 37.4 545.11 36.25 545.11 36.25 545.88 35.1 545.88 32.92 545.88 32.92 545.88 30.73 545.11 29.58 545.11 29.58 544.34 28.44 542.89 28.44 542.89 28.44 541.44 28.44 540.67 29.58 540.67 29.58 539.9 30.73 539.9 32.92 539.9 32.92 539.9 35.1 540.67 36.25 540.67 36.25 541.44 37.4 542.89 37.4Z"/>
<path transform="matrix(1,0,0,-1,0,400)" d="M269.02 18.55V14.08H271.04C271.04 14.08 272.16 14.08 272.77 14.67 272.77 14.67 273.38 15.25 273.38 16.32 273.38 16.32 273.38 17.39 272.77 17.97 272.77 17.97 272.16 18.55 271.04 18.55H269.02M267.41 19.87H271.04C271.04 19.87 273.03 19.87 274.05 18.96 274.05 18.96 275.08 18.06 275.08 16.32 275.08 16.32 275.08 14.56 274.05 13.66 274.05 13.66 273.03 12.76 271.04 12.76H269.02V7.99H267.41V19.87Z"/>
<path transform="matrix(1,0,0,-1,0,400)" d="M280.49 12.47C280.49 12.47 278.72 12.47 278.03 12.06 278.03 12.06 277.35 11.66 277.35 10.68 277.35 10.68 277.35 9.9 277.86 9.44 277.86 9.44 278.37 8.98 279.26 8.98 279.26 8.98 280.47 8.98 281.21 9.84 281.21 9.84 281.95 10.71 281.95 12.14V12.47H280.49M283.41 13.07V7.99H281.95V9.34C281.95 9.34 281.44 8.53 280.7 8.14 280.7 8.14 279.95 7.76 278.87 7.76 278.87 7.76 277.5 7.76 276.69 8.52 276.69 8.52 275.88 9.29 275.88 10.58 275.88 10.58 275.88 12.09 276.89 12.85 276.89 12.85 277.9 13.61 279.89 13.61H281.95V13.76C281.95 13.76 281.95 14.77 281.28 15.32 281.28 15.32 280.62 15.87 279.42 15.87 279.42 15.87 278.65 15.87 277.93 15.69 277.93 15.69 277.2 15.51 276.54 15.14V16.5C276.54 16.5 277.34 16.81 278.09 16.96 278.09 16.96 278.85 17.12 279.57 17.12 279.57 17.12 281.5 17.12 282.46 16.11 282.46 16.11 283.41 15.11 283.41 13.07Z"/>
<path transform="matrix(1,0,0,-1,0,400)" d="M287.87 19.43V16.9H290.89V15.76H287.87V10.93C287.87 10.93 287.87 9.84 288.17 9.52 288.17 9.52 288.47 9.21 289.39 9.21H290.89V7.99H289.39C289.39 7.99 287.69 7.99 287.05 8.62 287.05 8.62 286.4 9.25 286.4 10.93V15.76H285.33V16.9H286.4V19.43H287.87Z"/>
<path transform="matrix(1,0,0,-1,0,400)" d="M292.82 16.9H294.28V7.99H292.82V16.9M292.82 20.37H294.28V18.52H292.82V20.37Z"/>
<path transform="matrix(1,0,0,-1,0,400)" d="M304.97 12.81V12.09H298.23C298.23 12.09 298.33 10.58 299.14 9.79 299.14 9.79 299.96 9 301.42 9 301.42 9 302.26 9 303.05 9.21 303.05 9.21 303.84 9.41 304.62 9.83V8.44C304.62 8.44 303.84 8.11 303.01 7.93 303.01 7.93 302.18 7.76 301.33 7.76 301.33 7.76 299.2 7.76 297.95 9 297.95 9 296.71 10.24 296.71 12.36 296.71 12.36 296.71 14.55 297.88 15.83 297.88 15.83 299.07 17.12 301.08 17.12 301.08 17.12 302.87 17.12 303.92 15.95 303.92 15.95 304.97 14.8 304.97 12.81M303.5 13.24C303.5 13.24 303.49 14.44 302.83 15.16 302.83 15.16 302.17 15.87 301.09 15.87 301.09 15.87 299.87 15.87 299.13 15.18 299.13 15.18 298.39 14.49 298.28 13.23L303.5 13.24Z"/>
<path transform="matrix(1,0,0,-1,0,400)" d="M314.78 13.37V7.99H313.31V13.32C313.31 13.32 313.31 14.59 312.82 15.21 312.82 15.21 312.33 15.84 311.34 15.84 311.34 15.84 310.15 15.84 309.47 15.09 309.47 15.09 308.79 14.33 308.79 13.03V7.99H307.31V16.9H308.79V15.52C308.79 15.52 309.31 16.32 310.02 16.72 310.02 16.72 310.74 17.12 311.67 17.12 311.67 17.12 313.2 17.12 313.99 16.16 313.99 16.16 314.78 15.21 314.78 13.37Z"/>
<path transform="matrix(1,0,0,-1,0,400)" d="M319.15 19.43V16.9H322.16V15.76H319.15V10.93C319.15 10.93 319.15 9.84 319.44 9.52 319.44 9.52 319.74 9.21 320.66 9.21H322.16V7.99H320.66C320.66 7.99 318.96 7.99 318.32 8.62 318.32 8.62 317.67 9.25 317.67 10.93V15.76H316.6V16.9H317.67V19.43H319.15Z"/>
<path transform="matrix(1,0,0,-1,0,400)" d="M329.33 19.87H330.94V7.99H329.33V19.87Z"/>
<path transform="matrix(1,0,0,-1,0,400)" d="M341.48 13.37V7.99H340.02V13.32C340.02 13.32 340.02 14.59 339.52 15.21 339.52 15.21 339.03 15.84 338.04 15.84 338.04 15.84 336.86 15.84 336.17 15.09 336.17 15.09 335.49 14.33 335.49 13.03V7.99H334.02V16.9H335.49V15.52C335.49 15.52 336.01 16.32 336.72 16.72 336.72 16.72 337.44 17.12 338.37 17.12 338.37 17.12 339.91 17.12 340.69 16.16 340.69 16.16 341.48 15.21 341.48 13.37Z"/>
<path transform="matrix(1,0,0,-1,0,400)" d="M350.27 15.55V20.37H351.73V7.99H350.27V9.33C350.27 9.33 349.8 8.53 349.1 8.14 349.1 8.14 348.4 7.76 347.41 7.76 347.41 7.76 345.79 7.76 344.78 9.05 344.78 9.05 343.77 10.34 343.77 12.44 343.77 12.44 343.77 14.54 344.78 15.83 344.78 15.83 345.79 17.12 347.41 17.12 347.41 17.12 348.4 17.12 349.1 16.73 349.1 16.73 349.8 16.34 350.27 15.55M345.28 12.44C345.28 12.44 345.28 10.82 345.94 9.9 345.94 9.9 346.61 8.98 347.77 8.98 347.77 8.98 348.93 8.98 349.6 9.9 349.6 9.9 350.27 10.82 350.27 12.44 350.27 12.44 350.27 14.05 349.6 14.97 349.6 14.97 348.93 15.89 347.77 15.89 347.77 15.89 346.61 15.89 345.94 14.97 345.94 14.97 345.28 14.05 345.28 12.44Z"/>
<path transform="matrix(1,0,0,-1,0,400)" d="M362.37 12.81V12.09H355.64C355.64 12.09 355.73 10.58 356.54 9.79 356.54 9.79 357.36 9 358.82 9 358.82 9 359.66 9 360.45 9.21 360.45 9.21 361.25 9.41 362.03 9.83V8.44C362.03 8.44 361.24 8.11 360.41 7.93 360.41 7.93 359.58 7.76 358.73 7.76 358.73 7.76 356.6 7.76 355.35 9 355.35 9 354.11 10.24 354.11 12.36 354.11 12.36 354.11 14.55 355.29 15.83 355.29 15.83 356.47 17.12 358.48 17.12 358.48 17.12 360.28 17.12 361.32 15.95 361.32 15.95 362.37 14.8 362.37 12.81M360.9 13.24C360.9 13.24 360.89 14.44 360.23 15.16 360.23 15.16 359.58 15.87 358.49 15.87 358.49 15.87 357.27 15.87 356.53 15.18 356.53 15.18 355.8 14.49 355.68 13.23L360.9 13.24Z"/>
<path transform="matrix(1,0,0,-1,0,400)" d="M371.89 16.9 368.67 12.56 372.06 7.99H370.33L367.74 11.49 365.15 7.99H363.42L366.88 12.65 363.71 16.9H365.44L367.8 13.73 370.17 16.9H371.89Z"/>
<path transform="matrix(1,0,0,-1,0,400)" stroke-width="1" stroke-linecap="round" stroke-linejoin="round" fill="none" stroke="#000000" d="M51.28 44.21V388.19"/>
<path transform="matrix(1,0,0,-1,0,400)" stroke-width="1" stroke-linecap="round" stroke-linejoin="round" fill="none" stroke="#000000" d="M51.28 44.21H56"/>
<path transform="matrix(1,0,0,-1,0,400)" stroke-width="1" stroke-linecap="round" stroke-linejoin="round" fill="none" stroke="#000000" d="M51.28 130.2H56"/>
<path transform="matrix(1,0,0,-1,0,400)" stroke-width="1" stroke-linecap="round" stroke-linejoin="round" fill="none" stroke="#000000" d="M51.28 216.2H56"/>
<path transform="matrix(1,0,0,-1,0,400)" stroke-width="1" stroke-linecap="round" stroke-linejoin="round" fill="none" stroke="#000000" d="M51.28 302.19H56"/>
<path transform="matrix(1,0,0,-1,0,400)" stroke-width="1" stroke-linecap="round" stroke-linejoin="round" fill="none" stroke="#000000" d="M51.28 388.19H56"/>
<path transform="matrix(1,0,0,-1,0,400)" d="M39.29 47.76C39.29 47.76 38.39 47.76 37.93 46.86 37.93 46.86 37.48 45.98 37.48 44.2 37.48 44.2 37.48 42.42 37.93 41.53 37.93 41.53 38.39 40.64 39.29 40.64 39.29 40.64 40.2 40.64 40.65 41.53 40.65 41.53 41.11 42.42 41.11 44.2 41.11 44.2 41.11 45.98 40.65 46.86 40.65 46.86 40.2 47.76 39.29 47.76M39.29 48.68C39.29 48.68 40.75 48.68 41.51 47.53 41.51 47.53 42.28 46.38 42.28 44.2 42.28 44.2 42.28 42.01 41.51 40.86 41.51 40.86 40.75 39.72 39.29 39.72 39.29 39.72 37.84 39.72 37.07 40.86 37.07 40.86 36.31 42.01 36.31 44.2 36.31 44.2 36.31 46.38 37.07 47.53 37.07 47.53 37.84 48.68 39.29 48.68Z"/>
<path transform="matrix(1,0,0,-1,0,400)" d="M29.46 126.86H31.37V133.46L29.29 133.04V134.1L31.35 134.52H32.52V126.86H34.43V125.88H29.46V126.86Z"/>
<path transform="matrix(1,0,0,-1,0,400)" d="M39.29 133.75C39.29 133.75 38.39 133.75 37.93 132.86 37.93 132.86 37.48 131.97 37.48 130.19 37.48 130.19 37.48 128.42 37.93 127.52 37.93 127.52 38.39 126.64 39.29 126.64 39.29 126.64 40.2 126.64 40.65 127.52 40.65 127.52 41.11 128.42 41.11 130.19 41.11 130.19 41.11 131.97 40.65 132.86 40.65 132.86 40.2 133.75 39.29 133.75M39.29 134.68C39.29 134.68 40.75 134.68 41.51 133.53 41.51 133.53 42.28 132.38 42.28 130.19 42.28 130.19 42.28 128.01 41.51 126.86 41.51 126.86 40.75 125.71 39.29 125.71 39.29 125.71 37.84 125.71 37.07 126.86 37.07 126.86 36.31 128.01 36.31 130.19 36.31 130.19 36.31 132.38 37.07 133.53 37.07 133.53 37.84 134.68 39.29 134.68Z"/>
<path transform="matrix(1,0,0,-1,0,400)" d="M30.26 212.86H34.34V211.88H28.85V212.86C28.85 212.86 29.52 213.55 30.67 214.71 30.67 214.71 31.82 215.87 32.11 216.21 32.11 216.21 32.67 216.84 32.89 217.27 32.89 217.27 33.12 217.71 33.12 218.13 33.12 218.13 33.12 218.82 32.63 219.26 32.63 219.26 32.15 219.69 31.38 219.69 31.38 219.69 30.83 219.69 30.21 219.5 30.21 219.5 29.61 219.31 28.91 218.92V220.1C28.91 220.1 29.62 220.38 30.23 220.53 30.23 220.53 30.85 220.67 31.35 220.67 31.35 220.67 32.7 220.67 33.5 220 33.5 220 34.29 219.33 34.29 218.21 34.29 218.21 34.29 217.68 34.09 217.2 34.09 217.2 33.89 216.72 33.37 216.07 33.37 216.07 33.22 215.9 32.45 215.1 32.45 215.1 31.67 214.3 30.26 212.86Z"/>
<path transform="matrix(1,0,0,-1,0,400)" d="M39.29 219.75C39.29 219.75 38.39 219.75 37.93 218.86 37.93 218.86 37.48 217.97 37.48 216.19 37.48 216.19 37.48 214.41 37.93 213.52 37.93 213.52 38.39 212.64 39.29 212.64 39.29 212.64 40.2 212.64 40.65 213.52 40.65 213.52 41.11 214.41 41.11 216.19 41.11 216.19 41.11 217.97 40.65 218.86 40.65 218.86 40.2 219.75 39.29 219.75M39.29 220.67C39.29 220.67 40.75 220.67 41.51 219.52 41.51 219.52 42.28 218.38 42.28 216.19 42.28 216.19 42.28 214.01 41.51 212.86 41.51 212.86 40.75 211.71 39.29 211.71 39.29 211.71 37.84 211.71 37.07 212.86 37.07 212.86 36.31 214.01 36.31 216.19 36.31 216.19 36.31 218.38 37.07 219.52 37.07 219.52 37.84 220.67 39.29 220.67Z"/>
<path transform="matrix(1,0,0,-1,0,400)" d="M32.8 302.53C32.8 302.53 33.63 302.35 34.1 301.79 34.1 301.79 34.58 301.22 34.58 300.38 34.58 300.38 34.58 299.11 33.7 298.41 33.7 298.41 32.82 297.71 31.2 297.71 31.2 297.71 30.65 297.71 30.08 297.82 30.08 297.82 29.5 297.92 28.89 298.13V299.26C28.89 299.26 29.38 298.98 29.95 298.83 29.95 298.83 30.53 298.69 31.16 298.69 31.16 298.69 32.26 298.69 32.84 299.12 32.84 299.12 33.41 299.56 33.41 300.38 33.41 300.38 33.41 301.15 32.88 301.58 32.88 301.58 32.34 302.01 31.39 302.01H30.38V302.97H31.44C31.44 302.97 32.3 302.97 32.75 303.31 32.75 303.31 33.21 303.66 33.21 304.31 33.21 304.31 33.21 304.97 32.74 305.33 32.74 305.33 32.27 305.69 31.39 305.69 31.39 305.69 30.91 305.69 30.36 305.58 30.36 305.58 29.81 305.48 29.15 305.26V306.3C29.15 306.3 29.82 306.48 30.39 306.58 30.39 306.58 30.98 306.67 31.49 306.67 31.49 306.67 32.82 306.67 33.6 306.06 33.6 306.06 34.38 305.46 34.38 304.43 34.38 304.43 34.38 303.71 33.96 303.21 33.96 303.21 33.55 302.72 32.8 302.53Z"/>
<path transform="matrix(1,0,0,-1,0,400)" d="M39.29 305.74C39.29 305.74 38.39 305.74 37.93 304.85 37.93 304.85 37.48 303.97 37.48 302.18 37.48 302.18 37.48 300.41 37.93 299.52 37.93 299.52 38.39 298.63 39.29 298.63 39.29 298.63 40.2 298.63 40.65 299.52 40.65 299.52 41.11 300.41 41.11 302.18 41.11 302.18 41.11 303.97 40.65 304.85 40.65 304.85 40.2 305.74 39.29 305.74M39.29 306.67C39.29 306.67 40.75 306.67 41.51 305.52 41.51 305.52 42.28 304.37 42.28 302.18 42.28 302.18 42.28 300 41.51 298.85 41.51 298.85 40.75 297.71 39.29 297.71 39.29 297.71 37.84 297.71 37.07 298.85 37.07 298.85 36.31 300 36.31 302.18 36.31 302.18 36.31 304.37 37.07 305.52 37.07 305.52 37.84 306.67 39.29 306.67Z"/>
<path transform="matrix(1,0,0,-1,0,400)" d="M32.47 391.49 29.51 386.88H32.47V391.49M32.16 392.51H33.63V386.88H34.86V385.91H33.63V383.87H32.47V385.91H28.57V387.03L32.16 392.51Z"/>
<path transform="matrix(1,0,0,-1,0,400)" d="M39.29 391.74C39.29 391.74 38.39 391.74 37.93 390.85 37.93 390.85 37.48 389.96 37.48 388.18 37.48 388.18 37.48 386.4 37.93 385.51 37.93 385.51 38.39 384.63 39.29 384.63 39.29 384.63 40.2 384.63 40.65 385.51 40.65 385.51 41.11 386.4 41.11 388.18 41.11 388.18 41.11 389.96 40.65 390.85 40.65 390.85 40.2 391.74 39.29 391.74M39.29 392.67C39.29 392.67 40.75 392.67 41.51 391.51 41.51 391.51 42.28 390.37 42.28 388.18 42.28 388.18 42.28 386 41.51 384.85 41.51 384.85 40.75 383.7 39.29 383.7 39.29 383.7 37.84 383.7 37.07 384.85 37.07 384.85 36.31 386 36.31 388.18 36.31 388.18 36.31 390.37 37.07 391.51 37.07 391.51 37.84 392.67 39.29 392.67Z"/>
<path transform="matrix(1,0,0,-1,0,400)" d="M4.12 95.24V97.64L12.21 100.67 4.12 103.72V106.11H16V104.55H5.57L13.72 101.48V99.87L5.57 96.8H16V95.24H4.12Z"/>
<path transform="matrix(1,0,0,-1,0,400)" d="M11.52 113.29C11.52 113.29 11.52 111.52 11.93 110.83 11.93 110.83 12.33 110.15 13.31 110.15 13.31 110.15 14.09 110.15 14.55 110.66 14.55 110.66 15.01 111.17 15.01 112.06 15.01 112.06 15.01 113.28 14.15 114.01 14.15 114.01 13.28 114.75 11.85 114.75H11.52V113.29M10.92 116.21H16V114.75H14.65C14.65 114.75 15.46 114.25 15.85 113.5 15.85 113.5 16.23 112.75 16.23 111.67 16.23 111.67 16.23 110.3 15.47 109.49 15.47 109.49 14.7 108.68 13.41 108.68 13.41 108.68 11.9 108.68 11.14 109.69 11.14 109.69 10.38 110.7 10.38 112.69V114.75H10.23C10.23 114.75 9.22 114.75 8.67 114.08 8.67 114.08 8.12 113.42 8.12 112.22 8.12 112.22 8.12 111.45 8.3 110.73 8.3 110.73 8.48 110.01 8.85 109.34H7.49C7.49 109.34 7.18 110.14 7.03 110.9 7.03 110.9 6.87 111.65 6.87 112.37 6.87 112.37 6.87 114.3 7.88 115.26 7.88 115.26 8.88 116.21 10.92 116.21Z"/>
<path transform="matrix(1,0,0,-1,0,400)" d="M7.09 126.64 11.43 123.41 16 126.8V125.08L12.5 122.48 16 119.89V118.16L11.34 121.62 7.09 118.46V120.18L10.26 122.55 7.09 124.91V126.64Z"/>
<path transform="matrix(1,0,0,-1,0,400)" d="M7.09 128.87V130.34H16V128.87H7.09M3.62 128.87V130.34H5.47V128.87H3.62Z"/>
<path transform="matrix(1,0,0,-1,0,400)" d="M8.8 140.34C8.8 140.34 7.81 140.89 7.34 141.65 7.34 141.65 6.87 142.41 6.87 143.45 6.87 143.45 6.87 144.84 7.85 145.6 7.85 145.6 8.82 146.35 10.62 146.35H16V144.88H10.67C10.67 144.88 9.39 144.88 8.77 144.43 8.77 144.43 8.15 143.97 8.15 143.04 8.15 143.04 8.15 141.91 8.9 141.24 8.9 141.24 9.66 140.58 10.96 140.58H16V139.11H10.67C10.67 139.11 9.38 139.11 8.77 138.66 8.77 138.66 8.15 138.21 8.15 137.26 8.15 137.26 8.15 136.14 8.91 135.48 8.91 135.48 9.67 134.82 10.96 134.82H16V133.34H7.09V134.82H8.47C8.47 134.82 7.65 135.32 7.26 136.02 7.26 136.02 6.87 136.72 6.87 137.68 6.87 137.68 6.87 138.65 7.37 139.33 7.37 139.33 7.86 140.01 8.8 140.34Z"/>
<path transform="matrix(1,0,0,-1,0,400)" d="M12.48 149.12H7.09V150.59H12.43C12.43 150.59 13.69 150.59 14.33 151.08 14.33 151.08 14.96 151.57 14.96 152.56 14.96 152.56 14.96 153.75 14.2 154.43 14.2 154.43 13.45 155.12 12.14 155.12H7.09V156.59H16V155.12H14.63C14.63 155.12 15.44 154.59 15.84 153.88 15.84 153.88 16.23 153.18 16.23 152.25 16.23 152.25 16.23 150.71 15.28 149.92 15.28 149.92 14.32 149.12 12.48 149.12M6.87 152.81V152.81Z"/>
<path transform="matrix(1,0,0,-1,0,400)" d="M8.8 166.54C8.8 166.54 7.81 167.09 7.34 167.85 7.34 167.85 6.87 168.62 6.87 169.65 6.87 169.65 6.87 171.04 7.85 171.8 7.85 171.8 8.82 172.56 10.62 172.56H16V171.08H10.67C10.67 171.08 9.39 171.08 8.77 170.63 8.77 170.63 8.15 170.18 8.15 169.25 8.15 169.25 8.15 168.11 8.9 167.45 8.9 167.45 9.66 166.79 10.96 166.79H16V165.32H10.67C10.67 165.32 9.38 165.32 8.77 164.86 8.77 164.86 8.15 164.41 8.15 163.46 8.15 163.46 8.15 162.34 8.91 161.68 8.91 161.68 9.67 161.02 10.96 161.02H16V159.55H7.09V161.02H8.47C8.47 161.02 7.65 161.52 7.26 162.22 7.26 162.22 6.87 162.92 6.87 163.88 6.87 163.88 6.87 164.85 7.37 165.53 7.37 165.53 7.86 166.21 8.8 166.54Z"/>
<path transform="matrix(1,0,0,-1,0,400)" d="M5.04 189.62H6.73C6.73 189.62 5.98 188.8 5.6 187.88 5.6 187.88 5.23 186.97 5.23 185.93 5.23 185.93 5.23 183.9 6.48 182.81 6.48 182.81 7.72 181.73 10.07 181.73 10.07 181.73 12.42 181.73 13.67 182.81 13.67 182.81 14.91 183.9 14.91 185.93 14.91 185.93 14.91 186.97 14.54 187.88 14.54 187.88 14.16 188.8 13.41 189.62H15.09C15.09 189.62 15.66 188.77 15.95 187.83 15.95 187.83 16.23 186.89 16.23 185.84 16.23 185.84 16.23 183.14 14.58 181.59 14.58 181.59 12.93 180.04 10.07 180.04 10.07 180.04 7.21 180.04 5.56 181.59 5.56 181.59 3.91 183.14 3.91 185.84 3.91 185.84 3.91 186.9 4.19 187.84 4.19 187.84 4.47 188.79 5.04 189.62Z"/>
<path transform="matrix(1,0,0,-1,0,400)" d="M3.62 192.04V193.5H16V192.04H3.62Z"/>
<path transform="matrix(1,0,0,-1,0,400)" d="M8.12 200.02C8.12 200.02 8.12 198.84 9.04 198.15 9.04 198.15 9.95 197.47 11.55 197.47 11.55 197.47 13.15 197.47 14.08 198.15 14.08 198.15 14.99 198.83 14.99 200.02 14.99 200.02 14.99 201.19 14.07 201.87 14.07 201.87 13.14 202.55 11.55 202.55 11.55 202.55 9.97 202.55 9.05 201.87 9.05 201.87 8.12 201.19 8.12 200.02M6.87 200.02C6.87 200.02 6.87 201.93 8.12 203.02 8.12 203.02 9.36 204.11 11.55 204.11 11.55 204.11 13.74 204.11 14.99 203.02 14.99 203.02 16.23 201.93 16.23 200.02 16.23 200.02 16.23 198.1 14.99 197.01 14.99 197.01 13.74 195.93 11.55 195.93 11.55 195.93 9.36 195.93 8.12 197.01 8.12 197.01 6.87 198.1 6.87 200.02Z"/>
<path transform="matrix(1,0,0,-1,0,400)" d="M4.56 207.98H7.09V211H8.23V207.98H13.06C13.06 207.98 14.15 207.98 14.47 208.28 14.47 208.28 14.78 208.58 14.78 209.49V211H16V209.49C16 209.49 16 207.8 15.37 207.15 15.37 207.15 14.74 206.51 13.06 206.51H8.23V205.43H7.09V206.51H4.56V207.98Z"/>
<path transform="matrix(1,0,0,-1,0,400)" d="M4.12 218.17V224.99H5.47V219.77H8.97V224.48H10.33V219.77H16V218.17H4.12Z"/>
<path transform="matrix(1,0,0,-1,0,400)" d="M7.09 226.29V227.75H16V226.29H7.09M3.62 226.29V227.75H5.47V226.29H3.62Z"/>
<path transform="matrix(1,0,0,-1,0,400)" d="M8.46 235.98C8.46 235.98 8.31 235.74 8.25 235.44 8.25 235.44 8.18 235.15 8.18 234.8 8.18 234.8 8.18 233.56 8.99 232.9 8.99 232.9 9.79 232.23 11.31 232.23H16V230.76H7.09V232.23H8.47C8.47 232.23 7.66 232.7 7.27 233.44 7.27 233.44 6.87 234.18 6.87 235.23 6.87 235.23 6.87 235.39 6.9 235.57 6.9 235.57 6.91 235.75 6.95 235.97L8.46 235.98Z"/>
<path transform="matrix(1,0,0,-1,0,400)" d="M8.8 244.17C8.8 244.17 7.81 244.72 7.34 245.48 7.34 245.48 6.87 246.25 6.87 247.28 6.87 247.28 6.87 248.67 7.85 249.43 7.85 249.43 8.82 250.19 10.62 250.19H16V248.71H10.67C10.67 248.71 9.39 248.71 8.77 248.26 8.77 248.26 8.15 247.81 8.15 246.88 8.15 246.88 8.15 245.74 8.9 245.08 8.9 245.08 9.66 244.42 10.96 244.42H16V242.94H10.67C10.67 242.94 9.38 242.94 8.77 242.49 8.77 242.49 8.15 242.04 8.15 241.09 8.15 241.09 8.15 239.97 8.91 239.31 8.91 239.31 9.67 238.65 10.96 238.65H16V237.18H7.09V238.65H8.47C8.47 238.65 7.65 239.15 7.26 239.85 7.26 239.85 6.87 240.55 6.87 241.51 6.87 241.51 6.87 242.48 7.37 243.16 7.37 243.16 7.86 243.84 8.8 244.17Z"/>
<path transform="matrix(1,0,0,-1,0,400)" d="M10.62 260.51H16V259.05H10.67C10.67 259.05 9.4 259.05 8.78 258.56 8.78 258.56 8.15 258.06 8.15 257.08 8.15 257.08 8.15 255.89 8.9 255.21 8.9 255.21 9.66 254.52 10.96 254.52H16V253.05H7.09V254.52H8.47C8.47 254.52 7.67 255.05 7.27 255.76 7.27 255.76 6.87 256.47 6.87 257.4 6.87 257.4 6.87 258.94 7.83 259.73 7.83 259.73 8.78 260.51 10.62 260.51Z"/>
<path transform="matrix(1,0,0,-1,0,400)" d="M11.18 271.06H11.9V264.33C11.9 264.33 13.41 264.42 14.2 265.23 14.2 265.23 14.99 266.05 14.99 267.51 14.99 267.51 14.99 268.35 14.78 269.14 14.78 269.14 14.58 269.94 14.16 270.72H15.55C15.55 270.72 15.88 269.93 16.06 269.1 16.06 269.1 16.23 268.27 16.23 267.42 16.23 267.42 16.23 265.29 14.99 264.04 14.99 264.04 13.75 262.8 11.63 262.8 11.63 262.8 9.44 262.8 8.16 263.98 8.16 263.98 6.87 265.16 6.87 267.17 6.87 267.17 6.87 268.96 8.04 270.01 8.04 270.01 9.19 271.06 11.18 271.06M10.75 269.59C10.75 269.59 9.55 269.58 8.83 268.92 8.83 268.92 8.12 268.26 8.12 267.18 8.12 267.18 8.12 265.96 8.81 265.22 8.81 265.22 9.5 264.48 10.76 264.37L10.75 269.59Z"/>
<path transform="matrix(1,0,0,-1,0,400)" d="M7.35 279.14H8.74C8.74 279.14 8.42 278.52 8.26 277.85 8.26 277.85 8.1 277.18 8.1 276.47 8.1 276.47 8.1 275.38 8.43 274.83 8.43 274.83 8.77 274.29 9.44 274.29 9.44 274.29 9.95 274.29 10.24 274.68 10.24 274.68 10.53 275.07 10.79 276.25L10.9 276.75C10.9 276.75 11.23 278.31 11.85 278.96 11.85 278.96 12.45 279.62 13.54 279.62 13.54 279.62 14.78 279.62 15.51 278.63 15.51 278.63 16.23 277.65 16.23 275.94 16.23 275.94 16.23 275.22 16.09 274.44 16.09 274.44 15.95 273.67 15.67 272.81H14.16C14.16 272.81 14.58 273.62 14.8 274.41 14.8 274.41 15.01 275.2 15.01 275.97 15.01 275.97 15.01 277 14.66 277.56 14.66 277.56 14.3 278.12 13.65 278.12 13.65 278.12 13.06 278.12 12.74 277.71 12.74 277.71 12.42 277.31 12.13 275.95L12.01 275.44C12.01 275.44 11.72 274.08 11.13 273.48 11.13 273.48 10.53 272.87 9.5 272.87 9.5 272.87 8.24 272.87 7.56 273.76 7.56 273.76 6.87 274.65 6.87 276.29 6.87 276.29 6.87 277.1 6.99 277.82 6.99 277.82 7.11 278.54 7.35 279.14Z"/>
<path transform="matrix(1,0,0,-1,0,400)" d="M7.35 287.63H8.74C8.74 287.63 8.42 287.01 8.26 286.34 8.26 286.34 8.1 285.67 8.1 284.96 8.1 284.96 8.1 283.87 8.43 283.32 8.43 283.32 8.77 282.78 9.44 282.78 9.44 282.78 9.95 282.78 10.24 283.17 10.24 283.17 10.53 283.56 10.79 284.74L10.9 285.24C10.9 285.24 11.23 286.8 11.85 287.45 11.85 287.45 12.45 288.11 13.54 288.11 13.54 288.11 14.78 288.11 15.51 287.12 15.51 287.12 16.23 286.14 16.23 284.43 16.23 284.43 16.23 283.71 16.09 282.93 16.09 282.93 15.95 282.16 15.67 281.3H14.16C14.16 281.3 14.58 282.11 14.8 282.9 14.8 282.9 15.01 283.69 15.01 284.46 15.01 284.46 15.01 285.49 14.66 286.05 14.66 286.05 14.3 286.61 13.65 286.61 13.65 286.61 13.06 286.61 12.74 286.2 12.74 286.2 12.42 285.8 12.13 284.44L12.01 283.93C12.01 283.93 11.72 282.57 11.13 281.97 11.13 281.97 10.53 281.36 9.5 281.36 9.5 281.36 8.24 281.36 7.56 282.25 7.56 282.25 6.87 283.14 6.87 284.78 6.87 284.78 6.87 285.6 6.99 286.31 6.99 286.31 7.11 287.03 7.35 287.63Z"/>
<path transform="matrix(1,0,0,-1,0,400)" d="M3.64 299.14C3.64 299.14 5.47 298.07 7.26 297.55 7.26 297.55 9.05 297.04 10.88 297.04 10.88 297.04 12.72 297.04 14.53 297.55 14.53 297.55 16.33 298.08 18.15 299.14V297.87C18.15 297.87 16.28 296.67 14.47 296.07 14.47 296.07 12.67 295.49 10.88 295.49 10.88 295.49 9.11 295.49 7.31 296.07 7.31 296.07 5.51 296.66 3.64 297.87V299.14Z"/>
<path transform="matrix(1,0,0,-1,0,400)" d="M8.8 308.92C8.8 308.92 7.81 309.47 7.34 310.23 7.34 310.23 6.87 310.99 6.87 312.03 6.87 312.03 6.87 313.42 7.85 314.18 7.85 314.18 8.82 314.93 10.62 314.93H16V313.46H10.67C10.67 313.46 9.39 313.46 8.77 313.01 8.77 313.01 8.15 312.55 8.15 311.62 8.15 311.62 8.15 310.49 8.9 309.82 8.9 309.82 9.66 309.16 10.96 309.16H16V307.69H10.67C10.67 307.69 9.38 307.69 8.77 307.24 8.77 307.24 8.15 306.78 8.15 305.84 8.15 305.84 8.15 304.72 8.91 304.06 8.91 304.06 9.67 303.4 10.96 303.4H16V301.92H7.09V303.4H8.47C8.47 303.4 7.65 303.9 7.26 304.6 7.26 304.6 6.87 305.3 6.87 306.26 6.87 306.26 6.87 307.23 7.37 307.91 7.37 307.91 7.86 308.59 8.8 308.92Z"/>
<path transform="matrix(1,0,0,-1,0,400)" d="M8.8 324.79C8.8 324.79 7.81 325.34 7.34 326.1 7.34 326.1 6.87 326.87 6.87 327.9 6.87 327.9 6.87 329.3 7.85 330.05 7.85 330.05 8.82 330.81 10.62 330.81H16V329.34H10.67C10.67 329.34 9.39 329.34 8.77 328.88 8.77 328.88 8.15 328.43 8.15 327.5 8.15 327.5 8.15 326.36 8.9 325.7 8.9 325.7 9.66 325.04 10.96 325.04H16V323.57H10.67C10.67 323.57 9.38 323.57 8.77 323.11 8.77 323.11 8.15 322.66 8.15 321.71 8.15 321.71 8.15 320.59 8.91 319.93 8.91 319.93 9.67 319.27 10.96 319.27H16V317.8H7.09V319.27H8.47C8.47 319.27 7.65 319.77 7.26 320.47 7.26 320.47 6.87 321.17 6.87 322.13 6.87 322.13 6.87 323.11 7.37 323.78 7.37 323.78 7.86 324.47 8.8 324.79Z"/>
<path transform="matrix(1,0,0,-1,0,400)" d="M3.64 333.5V334.77C3.64 334.77 5.51 335.96 7.31 336.55 7.31 336.55 9.11 337.15 10.88 337.15 10.88 337.15 12.67 337.15 14.47 336.55 14.47 336.55 16.28 335.96 18.15 334.77V333.5C18.15 333.5 16.33 334.56 14.53 335.07 14.53 335.07 12.72 335.6 10.88 335.6 10.88 335.6 9.05 335.6 7.26 335.07 7.26 335.07 5.47 334.56 3.64 333.5Z"/>
<g clip-path="url(#clip_3)">
<path transform="matrix(1,0,0,-1,0,400)" d="M83.74 263.49V44.21H100.09V263.49H83.74" fill="#1b1b1b" fill-rule="evenodd"/>
</g>
<path transform="matrix(1,0,0,-1,0,400)" stroke-width="0" stroke-linecap="round" stroke-linejoin="round" fill="none" stroke="#000000" d="M83.74 263.49V44.21H100.09V263.49H83.74"/>
<g clip-path="url(#clip_4)">
<path transform="matrix(1,0,0,-1,0,400)" d="M132.55 267.79V44.21H148.9V267.79H132.55" fill="#1b1b1b" fill-rule="evenodd"/>
</g>
<path transform="matrix(1,0,0,-1,0,400)" stroke-width="0" stroke-linecap="round" stroke-linejoin="round" fill="none" stroke="#000000" d="M132.55 267.79V44.21H148.9V267.79H132.55"/>
<g clip-path="url(#clip_5)">
<path transform="matrix(1,0,0,-1,0,400)" d="M181.36 246.3V44.21H197.71V246.3H181.36" fill="#1b1b1b" fill-rule="evenodd"/>
</g>
<path transform="matrix(1,0,0,-1,0,400)" stroke-width="0" stroke-linecap="round" stroke-linejoin="round" fill="none" stroke="#000000" d="M181.36 246.3V44.21H197.71V246.3H181.36"/>
<g clip-path="url(#clip_6)">
<path transform="matrix(1,0,0,-1,0,400)" d="M230.17 242V44.21H246.52V242H230.17" fill="#1b1b1b" fill-rule="evenodd"/>
</g>
<path transform="matrix(1,0,0,-1,0,400)" stroke-width="0" stroke-linecap="round" stroke-linejoin="round" fill="none" stroke="#000000" d="M230.17 242V44.21H246.52V242H230.17"/>
<g clip-path="url(#clip_7)">
<path transform="matrix(1,0,0,-1,0,400)" d="M278.98 315.09V44.21H295.33V315.09H278.98" fill="#1b1b1b" fill-rule="evenodd"/>
</g>
<path transform="matrix(1,0,0,-1,0,400)" stroke-width="0" stroke-linecap="round" stroke-linejoin="round" fill="none" stroke="#000000" d="M278.98 315.09V44.21H295.33V315.09H278.98"/>
<g clip-path="url(#clip_8)">
<path transform="matrix(1,0,0,-1,0,400)" d="M327.79 332.29V44.21H344.14V332.29H327.79" fill="#1b1b1b" fill-rule="evenodd"/>
</g>
<path transform="matrix(1,0,0,-1,0,400)" stroke-width="0" stroke-linecap="round" stroke-linejoin="round" fill="none" stroke="#000000" d="M327.79 332.29V44.21H344.14V332.29H327.79"/>
<g clip-path="url(#clip_9)">
<path transform="matrix(1,0,0,-1,0,400)" d="M376.6 323.69V44.21H392.95V323.69H376.6" fill="#1b1b1b" fill-rule="evenodd"/>
</g>
<path transform="matrix(1,0,0,-1,0,400)" stroke-width="0" stroke-linecap="round" stroke-linejoin="round" fill="none" stroke="#000000" d="M376.6 323.69V44.21H392.95V323.69H376.6"/>
<g clip-path="url(#clip_10)">
<path transform="matrix(1,0,0,-1,0,400)" d="M425.41 340.89V44.21H441.76V340.89H425.41" fill="#1b1b1b" fill-rule="evenodd"/>
</g>
<path transform="matrix(1,0,0,-1,0,400)" stroke-width="0" stroke-linecap="round" stroke-linejoin="round" fill="none" stroke="#000000" d="M425.41 340.89V44.21H441.76V340.89H425.41"/>
<g clip-path="url(#clip_11)">
<path transform="matrix(1,0,0,-1,0,400)" d="M474.22 284.99V44.21H490.57V284.99H474.22" fill="#1b1b1b" fill-rule="evenodd"/>
</g>
<path transform="matrix(1,0,0,-1,0,400)" stroke-width="0" stroke-linecap="round" stroke-linejoin="round" fill="none" stroke="#000000" d="M474.22 284.99V44.21H490.57V284.99H474.22"/>
<g clip-path="url(#clip_12)">
<path transform="matrix(1,0,0,-1,0,400)" d="M523.03 340.89V44.21H539.38V340.89H523.03" fill="#1b1b1b" fill-rule="evenodd"/>
</g>
<path transform="matrix(1,0,0,-1,0,400)" stroke-width="0" stroke-linecap="round" stroke-linejoin="round" fill="none" stroke="#000000" d="M523.03 340.89V44.21H539.38V340.89H523.03"/>
<path transform="matrix(1,0,0,-1,0,400)" stroke-width=".8" stroke-linecap="round" stroke-linejoin="round" fill="none" stroke="#1b1b1b" stroke-opacity="0" d="M91.91 263.49V263.49"/>
<path transform="matrix(1,0,0,-1,0,400)" stroke-width=".8" stroke-linecap="round" stroke-linejoin="round" fill="none" stroke="#1b1b1b" stroke-opacity="0" d="M140.72 267.79V267.79"/>
<path transform="matrix(1,0,0,-1,0,400)" stroke-width=".8" stroke-linecap="round" stroke-linejoin="round" fill="none" stroke="#1b1b1b" stroke-opacity="0" d="M189.53 246.3V246.3"/>
<path transform="matrix(1,0,0,-1,0,400)" stroke-width=".8" stroke-linecap="round" stroke-linejoin="round" fill="none" stroke="#1b1b1b" stroke-opacity="0" d="M238.34 242V242"/>
<path transform="matrix(1,0,0,-1,0,400)" stroke-width=".8" stroke-linecap="round" stroke-linejoin="round" fill="none" stroke="#1b1b1b" stroke-opacity="0" d="M287.15 315.09V315.09"/>
<path transform="matrix(1,0,0,-1,0,400)" stroke-width=".8" stroke-linecap="round" stroke-linejoin="round" fill="none" stroke="#1b1b1b" stroke-opacity="0" d="M335.96 332.29V332.29"/>
<path transform="matrix(1,0,0,-1,0,400)" stroke-width=".8" stroke-linecap="round" stroke-linejoin="round" fill="none" stroke="#1b1b1b" stroke-opacity="0" d="M384.77 323.69V323.69"/>
<path transform="matrix(1,0,0,-1,0,400)" stroke-width=".8" stroke-linecap="round" stroke-linejoin="round" fill="none" stroke="#1b1b1b" stroke-opacity="0" d="M433.58 340.89V340.89"/>
<path transform="matrix(1,0,0,-1,0,400)" stroke-width=".8" stroke-linecap="round" stroke-linejoin="round" fill="none" stroke="#1b1b1b" stroke-opacity="0" d="M482.39 284.99V284.99"/>
<path transform="matrix(1,0,0,-1,0,400)" stroke-width=".8" stroke-linecap="round" stroke-linejoin="round" fill="none" stroke="#1b1b1b" stroke-opacity="0" d="M531.2 340.89V340.89"/>
<g clip-path="url(#clip_13)">
<path transform="matrix(1,0,0,-1,0,400)" d="M100.09 264.61V44.21H116.44V264.61H100.09" fill="#a2a2a2" fill-rule="evenodd"/>
</g>
<path transform="matrix(1,0,0,-1,0,400)" stroke-width="0" stroke-linecap="round" stroke-linejoin="round" fill="none" stroke="#000000" d="M100.09 264.61V44.21H116.44V264.61H100.09"/>
<g clip-path="url(#clip_14)">
<path transform="matrix(1,0,0,-1,0,400)" d="M148.9 265.88V44.21H165.25V265.88H148.9" fill="#a2a2a2" fill-rule="evenodd"/>
</g>
<path transform="matrix(1,0,0,-1,0,400)" stroke-width="0" stroke-linecap="round" stroke-linejoin="round" fill="none" stroke="#000000" d="M148.9 265.88V44.21H165.25V265.88H148.9"/>
<g clip-path="url(#clip_15)">
<path transform="matrix(1,0,0,-1,0,400)" d="M197.71 263.35V44.21H214.06V263.35H197.71" fill="#a2a2a2" fill-rule="evenodd"/>
</g>
<path transform="matrix(1,0,0,-1,0,400)" stroke-width="0" stroke-linecap="round" stroke-linejoin="round" fill="none" stroke="#000000" d="M197.71 263.35V44.21H214.06V263.35H197.71"/>
<g clip-path="url(#clip_16)">
<path transform="matrix(1,0,0,-1,0,400)" d="M246.52 255.59V44.21H262.87V255.59H246.52" fill="#a2a2a2" fill-rule="evenodd"/>
</g>
<path transform="matrix(1,0,0,-1,0,400)" stroke-width="0" stroke-linecap="round" stroke-linejoin="round" fill="none" stroke="#000000" d="M246.52 255.59V44.21H262.87V255.59H246.52"/>
<g clip-path="url(#clip_17)">
<path transform="matrix(1,0,0,-1,0,400)" d="M295.33 274.46V44.21H311.68V274.46H295.33" fill="#a2a2a2" fill-rule="evenodd"/>
</g>
<path transform="matrix(1,0,0,-1,0,400)" stroke-width="0" stroke-linecap="round" stroke-linejoin="round" fill="none" stroke="#000000" d="M295.33 274.46V44.21H311.68V274.46H295.33"/>
<g clip-path="url(#clip_18)">
<path transform="matrix(1,0,0,-1,0,400)" d="M344.14 275.35V44.21H360.49V275.35H344.14" fill="#a2a2a2" fill-rule="evenodd"/>
</g>
<path transform="matrix(1,0,0,-1,0,400)" stroke-width="0" stroke-linecap="round" stroke-linejoin="round" fill="none" stroke="#000000" d="M344.14 275.35V44.21H360.49V275.35H344.14"/>
<g clip-path="url(#clip_19)">
<path transform="matrix(1,0,0,-1,0,400)" d="M392.95 274.01V44.21H409.3V274.01H392.95" fill="#a2a2a2" fill-rule="evenodd"/>
</g>
<path transform="matrix(1,0,0,-1,0,400)" stroke-width="0" stroke-linecap="round" stroke-linejoin="round" fill="none" stroke="#000000" d="M392.95 274.01V44.21H409.3V274.01H392.95"/>
<g clip-path="url(#clip_20)">
<path transform="matrix(1,0,0,-1,0,400)" d="M441.76 273.27V44.21H458.11V273.27H441.76" fill="#a2a2a2" fill-rule="evenodd"/>
</g>
<path transform="matrix(1,0,0,-1,0,400)" stroke-width="0" stroke-linecap="round" stroke-linejoin="round" fill="none" stroke="#000000" d="M441.76 273.27V44.21H458.11V273.27H441.76"/>
<g clip-path="url(#clip_21)">
<path transform="matrix(1,0,0,-1,0,400)" d="M490.57 264.24V44.21H506.92V264.24H490.57" fill="#a2a2a2" fill-rule="evenodd"/>
</g>
<path transform="matrix(1,0,0,-1,0,400)" stroke-width="0" stroke-linecap="round" stroke-linejoin="round" fill="none" stroke="#000000" d="M490.57 264.24V44.21H506.92V264.24H490.57"/>
<g clip-path="url(#clip_22)">
<path transform="matrix(1,0,0,-1,0,400)" d="M539.38 273.63V44.21H555.73V273.63H539.38" fill="#a2a2a2" fill-rule="evenodd"/>
</g>
<path transform="matrix(1,0,0,-1,0,400)" stroke-width="0" stroke-linecap="round" stroke-linejoin="round" fill="none" stroke="#000000" d="M539.38 273.63V44.21H555.73V273.63H539.38"/>
<path transform="matrix(1,0,0,-1,0,400)" stroke-width=".8" stroke-linecap="round" stroke-linejoin="round" fill="none" stroke="#a2a2a2" stroke-opacity="0" d="M108.27 264.61V264.61"/>
<path transform="matrix(1,0,0,-1,0,400)" stroke-width=".8" stroke-linecap="round" stroke-linejoin="round" fill="none" stroke="#a2a2a2" stroke-opacity="0" d="M157.08 265.88V265.88"/>
<path transform="matrix(1,0,0,-1,0,400)" stroke-width=".8" stroke-linecap="round" stroke-linejoin="round" fill="none" stroke="#a2a2a2" stroke-opacity="0" d="M205.89 263.35V263.35"/>
<path transform="matrix(1,0,0,-1,0,400)" stroke-width=".8" stroke-linecap="round" stroke-linejoin="round" fill="none" stroke="#a2a2a2" stroke-opacity="0" d="M254.7 255.59V255.59"/>
<path transform="matrix(1,0,0,-1,0,400)" stroke-width=".8" stroke-linecap="round" stroke-linejoin="round" fill="none" stroke="#a2a2a2" stroke-opacity="0" d="M303.51 274.46V274.46"/>
<path transform="matrix(1,0,0,-1,0,400)" stroke-width=".8" stroke-linecap="round" stroke-linejoin="round" fill="none" stroke="#a2a2a2" stroke-opacity="0" d="M352.32 275.35V275.35"/>
<path transform="matrix(1,0,0,-1,0,400)" stroke-width=".8" stroke-linecap="round" stroke-linejoin="round" fill="none" stroke="#a2a2a2" stroke-opacity="0" d="M401.13 274.01V274.01"/>
<path transform="matrix(1,0,0,-1,0,400)" stroke-width=".8" stroke-linecap="round" stroke-linejoin="round" fill="none" stroke="#a2a2a2" stroke-opacity="0" d="M449.93 273.27V273.27"/>
<path transform="matrix(1,0,0,-1,0,400)" stroke-width=".8" stroke-linecap="round" stroke-linejoin="round" fill="none" stroke="#a2a2a2" stroke-opacity="0" d="M498.74 264.24V264.24"/>
<path transform="matrix(1,0,0,-1,0,400)" stroke-width=".8" stroke-linecap="round" stroke-linejoin="round" fill="none" stroke="#a2a2a2" stroke-opacity="0" d="M547.55 273.63V273.63"/>
<g clip-path="url(#clip_23)">
<path transform="matrix(1,0,0,-1,0,400)" d="M458.57 337.84H570.29V376.72H458.57" fill="#ffffff" fill-rule="evenodd"/>
</g>
<path transform="matrix(1,0,0,-1,0,400)" stroke-width="1" stroke-linecap="round" stroke-linejoin="round" fill="none" stroke="#000000" stroke-opacity="0" d="M458.57 337.84H570.29V376.72H458.57V337.84"/>
<path transform="matrix(1,0,0,-1,0,400)" d="M482.43 368.88C479.6 368.88 477.31 366.59 477.31 363.76 477.31 360.94 479.6 358.64 482.43 358.64 485.26 358.64 487.55 360.94 487.55 363.76 487.55 366.59 485.26 368.88 482.43 368.88" fill="#1b1b1b" fill-rule="evenodd"/>
<path transform="matrix(1,0,0,-1,0,400)" d="M511.86 367.8V366.66C511.86 366.66 511.19 366.98 510.6 367.13 510.6 367.13 510.01 367.29 509.46 367.29 509.46 367.29 508.5 367.29 507.98 366.92 507.98 366.92 507.47 366.55 507.47 365.87 507.47 365.87 507.47 365.29 507.81 365 507.81 365 508.16 364.71 509.12 364.53L509.82 364.38C509.82 364.38 511.13 364.14 511.75 363.51 511.75 363.51 512.38 362.88 512.38 361.83 512.38 361.83 512.38 360.57 511.53 359.92 511.53 359.92 510.69 359.28 509.07 359.28 509.07 359.28 508.45 359.28 507.76 359.41 507.76 359.41 507.07 359.55 506.33 359.82V361.03C506.33 361.03 507.04 360.63 507.72 360.43 507.72 360.43 508.41 360.22 509.07 360.22 509.07 360.22 510.07 360.22 510.61 360.62 510.61 360.62 511.16 361.01 511.16 361.74 511.16 361.74 511.16 362.38 510.76 362.74 510.76 362.74 510.37 363.09 509.48 363.27L508.77 363.41C508.77 363.41 507.46 363.67 506.88 364.23 506.88 364.23 506.29 364.78 506.29 365.77 506.29 365.77 506.29 366.92 507.1 367.58 507.1 367.58 507.91 368.24 509.33 368.24 509.33 368.24 509.93 368.24 510.57 368.13 510.57 368.13 511.2 368.02 511.86 367.8Z"/>
<path transform="matrix(1,0,0,-1,0,400)" d="M514.15 365.92H515.22V359.44H514.15V365.92M514.15 368.45H515.22V367.1H514.15V368.45Z"/>
<path transform="matrix(1,0,0,-1,0,400)" d="M522.49 364.68C522.49 364.68 522.89 365.4 523.45 365.74 523.45 365.74 524 366.08 524.75 366.08 524.75 366.08 525.77 366.08 526.32 365.37 526.32 365.37 526.87 364.66 526.87 363.35V359.44H525.8V363.32C525.8 363.32 525.8 364.25 525.47 364.7 525.47 364.7 525.14 365.15 524.46 365.15 524.46 365.15 523.63 365.15 523.15 364.6 523.15 364.6 522.67 364.06 522.67 363.11V359.44H521.6V363.32C521.6 363.32 521.6 364.26 521.27 364.7 521.27 364.7 520.94 365.15 520.25 365.15 520.25 365.15 519.44 365.15 518.96 364.6 518.96 364.6 518.48 364.05 518.48 363.11V359.44H517.41V365.92H518.48V364.92C518.48 364.92 518.84 365.51 519.35 365.8 519.35 365.8 519.86 366.08 520.56 366.08 520.56 366.08 521.27 366.08 521.76 365.72 521.76 365.72 522.25 365.36 522.49 364.68Z"/>
<path transform="matrix(1,0,0,-1,0,400)" d="M528.88 362V365.92H529.95V362.04C529.95 362.04 529.95 361.12 530.3 360.66 530.3 360.66 530.66 360.2 531.38 360.2 531.38 360.2 532.24 360.2 532.74 360.75 532.74 360.75 533.24 361.3 533.24 362.25V365.92H534.31V359.44H533.24V360.44C533.24 360.44 532.86 359.85 532.34 359.56 532.34 359.56 531.83 359.28 531.16 359.28 531.16 359.28 530.04 359.28 529.46 359.97 529.46 359.97 528.88 360.66 528.88 362M531.56 366.08V366.08Z"/>
<path transform="matrix(1,0,0,-1,0,400)" d="M536.5 368.45H537.57V359.44H536.5V368.45Z"/>
<path transform="matrix(1,0,0,-1,0,400)" d="M542.74 362.7C542.74 362.7 541.45 362.7 540.95 362.41 540.95 362.41 540.45 362.11 540.45 361.4 540.45 361.4 540.45 360.83 540.83 360.5 540.83 360.5 541.2 360.17 541.84 360.17 541.84 360.17 542.73 360.17 543.26 360.79 543.26 360.79 543.8 361.42 543.8 362.46V362.7H542.74M544.86 363.14V359.44H543.8V360.43C543.8 360.43 543.44 359.84 542.89 359.55 542.89 359.55 542.35 359.28 541.56 359.28 541.56 359.28 540.56 359.28 539.97 359.83 539.97 359.83 539.39 360.39 539.39 361.33 539.39 361.33 539.39 362.42 540.12 362.98 540.12 362.98 540.85 363.53 542.31 363.53H543.8V363.64C543.8 363.64 543.8 364.37 543.31 364.77 543.31 364.77 542.83 365.18 541.96 365.18 541.96 365.18 541.4 365.18 540.88 365.04 540.88 365.04 540.35 364.91 539.86 364.65V365.63C539.86 365.63 540.45 365.85 541 365.96 541 365.96 541.55 366.08 542.07 366.08 542.07 366.08 543.48 366.08 544.17 365.35 544.17 365.35 544.86 364.62 544.86 363.14Z"/>
<path transform="matrix(1,0,0,-1,0,400)" d="M548.11 367.76V365.92H550.3V365.1H548.11V361.58C548.11 361.58 548.11 360.79 548.33 360.56 548.33 360.56 548.55 360.33 549.21 360.33H550.3V359.44H549.21C549.21 359.44 547.98 359.44 547.51 359.9 547.51 359.9 547.04 360.36 547.04 361.58V365.1H546.26V365.92H547.04V367.76H548.11Z"/>
<path transform="matrix(1,0,0,-1,0,400)" d="M557.25 362.95V362.43H552.35C552.35 362.43 552.42 361.33 553.01 360.75 553.01 360.75 553.61 360.18 554.67 360.18 554.67 360.18 555.28 360.18 555.85 360.33 555.85 360.33 556.43 360.48 557 360.78V359.77C557 359.77 556.43 359.53 555.83 359.4 555.83 359.4 555.22 359.28 554.6 359.28 554.6 359.28 553.05 359.28 552.14 360.18 552.14 360.18 551.24 361.08 551.24 362.62 551.24 362.62 551.24 364.21 552.1 365.14 552.1 365.14 552.96 366.08 554.42 366.08 554.42 366.08 555.73 366.08 556.48 365.24 556.48 365.24 557.25 364.4 557.25 362.95M556.18 363.26C556.18 363.26 556.17 364.14 555.69 364.66 555.69 364.66 555.22 365.18 554.43 365.18 554.43 365.18 553.54 365.18 553 364.67 553 364.67 552.47 364.17 552.39 363.26H556.18Z"/>
<path transform="matrix(1,0,0,-1,0,400)" d="M563.26 364.94V368.45H564.33V359.44H563.26V360.42C563.26 360.42 562.93 359.84 562.41 359.55 562.41 359.55 561.9 359.28 561.18 359.28 561.18 359.28 560.01 359.28 559.27 360.21 559.27 360.21 558.53 361.15 558.53 362.68 558.53 362.68 558.53 364.21 559.27 365.14 559.27 365.14 560.01 366.08 561.18 366.08 561.18 366.08 561.9 366.08 562.41 365.8 562.41 365.8 562.93 365.52 563.26 364.94M559.63 362.68C559.63 362.68 559.63 361.5 560.11 360.83 560.11 360.83 560.6 360.17 561.44 360.17 561.44 360.17 562.29 360.17 562.78 360.83 562.78 360.83 563.26 361.5 563.26 362.68 563.26 362.68 563.26 363.85 562.78 364.52 562.78 364.52 562.29 365.19 561.44 365.19 561.44 365.19 560.6 365.19 560.11 364.52 560.11 364.52 559.63 363.85 559.63 362.68Z"/>
<path transform="matrix(1,0,0,-1,0,400)" d="M482.43 355.92C479.6 355.92 477.31 353.63 477.31 350.8 477.31 347.98 479.6 345.68 482.43 345.68 485.26 345.68 487.55 347.98 487.55 350.8 487.55 353.63 485.26 355.92 482.43 355.92" fill="#a2a2a2" fill-rule="evenodd"/>
<path transform="matrix(1,0,0,-1,0,400)" d="M510.25 353.97 508.67 349.67H511.84L510.25 353.97M509.59 355.12H510.92L514.21 346.48H513L512.21 348.7H508.31L507.53 346.48H506.29L509.59 355.12Z"/>
<path transform="matrix(1,0,0,-1,0,400)" d="M519.88 352.72V351.72C519.88 351.72 519.43 351.97 518.97 352.09 518.97 352.09 518.52 352.22 518.06 352.22 518.06 352.22 517.02 352.22 516.45 351.56 516.45 351.56 515.88 350.9 515.88 349.72 515.88 349.72 515.88 348.53 516.45 347.87 516.45 347.87 517.02 347.22 518.06 347.22 518.06 347.22 518.52 347.22 518.97 347.34 518.97 347.34 519.43 347.47 519.88 347.72V346.73C519.88 346.73 519.44 346.52 518.96 346.42 518.96 346.42 518.48 346.32 517.94 346.32 517.94 346.32 516.48 346.32 515.62 347.24 515.62 347.24 514.75 348.16 514.75 349.72 514.75 349.72 514.75 351.3 515.62 352.21 515.62 352.21 516.5 353.12 518.01 353.12 518.01 353.12 518.5 353.12 518.97 353.02 518.97 353.02 519.44 352.92 519.88 352.72Z"/>
<path transform="matrix(1,0,0,-1,0,400)" d="M522.79 354.8V352.96H524.98V352.14H522.79V348.62C522.79 348.62 522.79 347.83 523 347.6 523 347.6 523.22 347.37 523.89 347.37H524.98V346.48H523.89C523.89 346.48 522.65 346.48 522.19 346.94 522.19 346.94 521.72 347.4 521.72 348.62V352.14H520.94V352.96H521.72V354.8H522.79Z"/>
<path transform="matrix(1,0,0,-1,0,400)" d="M526.27 349.04V352.96H527.34V349.08C527.34 349.08 527.34 348.16 527.69 347.7 527.69 347.7 528.05 347.24 528.77 347.24 528.77 347.24 529.63 347.24 530.13 347.79 530.13 347.79 530.63 348.34 530.63 349.29V352.96H531.7V346.48H530.63V347.48C530.63 347.48 530.25 346.89 529.73 346.6 529.73 346.6 529.22 346.32 528.55 346.32 528.55 346.32 527.43 346.32 526.85 347.01 526.85 347.01 526.27 347.7 526.27 349.04M528.95 353.12V353.12Z"/>
<path transform="matrix(1,0,0,-1,0,400)" d="M536.84 349.74C536.84 349.74 535.55 349.74 535.05 349.45 535.05 349.45 534.55 349.15 534.55 348.44 534.55 348.44 534.55 347.87 534.92 347.54 534.92 347.54 535.3 347.21 535.94 347.21 535.94 347.21 536.83 347.21 537.36 347.83 537.36 347.83 537.9 348.46 537.9 349.5V349.74H536.84M538.96 350.18V346.48H537.9V347.47C537.9 347.47 537.53 346.88 536.99 346.59 536.99 346.59 536.44 346.32 535.66 346.32 535.66 346.32 534.66 346.32 534.07 346.87 534.07 346.87 533.49 347.43 533.49 348.37 533.49 348.37 533.49 349.46 534.22 350.02 534.22 350.02 534.95 350.57 536.4 350.57H537.9V350.68C537.9 350.68 537.9 351.41 537.41 351.81 537.41 351.81 536.93 352.22 536.06 352.22 536.06 352.22 535.5 352.22 534.97 352.08 534.97 352.08 534.45 351.95 533.96 351.69V352.67C533.96 352.67 534.55 352.89 535.1 353 535.1 353 535.65 353.12 536.17 353.12 536.17 353.12 537.57 353.12 538.27 352.39 538.27 352.39 538.96 351.66 538.96 350.18Z"/>
<path transform="matrix(1,0,0,-1,0,400)" d="M541.16 355.49H542.22V346.48H541.16V355.49Z"/>
</g>
</svg>
