<svg xmlns="http://www.w3.org/2000/svg" xmlns:xlink="http://www.w3.org/1999/xlink" version="1.1" width="600pt" height="400pt" viewBox="0 0 600 400">
<defs>
<clipPath id="clip_0">
<path transform="matrix(1,0,0,-1,0,400)" d="M0 0H600V400H0Z"/>
</clipPath>
<clipPath id="clip_1">
<path transform="matrix(1,0,0,-1,0,400)" d="M0 0H600V600H0Z"/>
</clipPath>
<clipPath id="clip_2">
<path transform="matrix(1,0,0,-1,0,400)" d="M0 0H600V600H0Z"/>
</clipPath>
<clipPath id="clip_3">
<path transform="matrix(1,0,0,-1,0,400)" d="M58.1 44.21H588.19V388.19H58.1Z"/>
</clipPath>
<clipPath id="clip_4">
<path transform="matrix(1,0,0,-1,0,400)" d="M58.1 44.21H588.19V388.19H58.1Z"/>
</clipPath>
<clipPath id="clip_5">
<path transform="matrix(1,0,0,-1,0,400)" d="M58.1 44.21H588.19V388.19H58.1Z"/>
</clipPath>
<clipPath id="clip_6">
<path transform="matrix(1,0,0,-1,0,400)" d="M58.1 44.21H588.19V388.19H58.1Z"/>
</clipPath>
<clipPath id="clip_7">
<path transform="matrix(1,0,0,-1,0,400)" d="M58.1 44.21H588.19V388.19H58.1Z"/>
</clipPath>
<clipPath id="clip_8">
<path transform="matrix(1,0,0,-1,0,400)" d="M58.1 44.21H588.19V388.19H58.1Z"/>
</clipPath>
<clipPath id="clip_9">
<path transform="matrix(1,0,0,-1,0,400)" d="M58.1 44.21H588.19V388.19H58.1Z"/>
</clipPath>
<clipPath id="clip_10">
<path transform="matrix(1,0,0,-1,0,400)" d="M58.1 44.21H588.19V388.19H58.1Z"/>
</clipPath>
<clipPath id="clip_11">
<path transform="matrix(1,0,0,-1,0,400)" d="M58.1 44.21H588.19V388.19H58.1Z"/>
</clipPath>
<clipPath id="clip_12">
<path transform="matrix(1,0,0,-1,0,400)" d="M58.1 44.21H588.19V388.19H58.1Z"/>
</clipPath>
<clipPath id="clip_13">
<path transform="matrix(1,0,0,-1,0,400)" d="M58.1 44.21H588.19V388.19H58.1Z"/>
</clipPath>
<clipPath id="clip_14">
<path transform="matrix(1,0,0,-1,0,400)" d="M58.1 44.21H588.19V388.19H58.1Z"/>
</clipPath>
<clipPath id="clip_15">
<path transform="matrix(1,0,0,-1,0,400)" d="M58.1 44.21H588.19V388.19H58.1Z"/>
</clipPath>
<clipPath id="clip_16">
<path transform="matrix(1,0,0,-1,0,400)" d="M58.1 44.21H588.19V388.19H58.1Z"/>
</clipPath>
<clipPath id="clip_17">
<path transform="matrix(1,0,0,-1,0,400)" d="M58.1 44.21H588.19V388.19H58.1Z"/>
</clipPath>
<clipPath id="clip_18">
<path transform="matrix(1,0,0,-1,0,400)" d="M58.1 44.21H588.19V388.19H58.1Z"/>
</clipPath>
<clipPath id="clip_19">
<path transform="matrix(1,0,0,-1,0,400)" d="M58.1 44.21H588.19V388.19H58.1Z"/>
</clipPath>
<clipPath id="clip_20">
<path transform="matrix(1,0,0,-1,0,400)" d="M58.1 44.21H588.19V388.19H58.1Z"/>
</clipPath>
<clipPath id="clip_21">
<path transform="matrix(1,0,0,-1,0,400)" d="M58.1 44.21H588.19V388.19H58.1Z"/>
</clipPath>
<clipPath id="clip_22">
<path transform="matrix(1,0,0,-1,0,400)" d="M58.1 44.21H588.19V388.19H58.1Z"/>
</clipPath>
<clipPath id="clip_23">
<path transform="matrix(1,0,0,-1,0,400)" d="M0 0H600V600H0Z"/>
</clipPath>
</defs>
<g clip-path="url(#clip_0)">
<g clip-path="url(#clip_1)">
<path transform="matrix(1,0,0,-1,0,400)" d="M0 0H600V400H0" fill="#ffffff" fill-rule="evenodd"/>
</g>
<g clip-path="url(#clip_2)">
<path transform="matrix(1,0,0,-1,0,400)" d="M58.1 44.21H588.19V388.19H58.1" fill="#ffffff" fill-rule="evenodd"/>
</g>
<path transform="matrix(1,0,0,-1,0,400)" stroke-width="1" stroke-linecap="round" stroke-linejoin="round" fill="none" stroke="#000000" d="M58.1 44.21H588.19"/>
<path transform="matrix(1,0,0,-1,0,400)" stroke-width="1" stroke-linecap="round" stroke-linejoin="round" fill="none" stroke="#000000" d="M106.29 44.21V48.93"/>
<path transform="matrix(1,0,0,-1,0,400)" stroke-width="1" stroke-linecap="round" stroke-linejoin="round" fill="none" stroke="#000000" d="M154.48 44.21V48.93"/>
<path transform="matrix(1,0,0,-1,0,400)" stroke-width="1" stroke-linecap="round" stroke-linejoin="round" fill="none" stroke="#000000" d="M202.67 44.21V48.93"/>
<path transform="matrix(1,0,0,-1,0,400)" stroke-width="1" stroke-linecap="round" stroke-linejoin="round" fill="none" stroke="#000000" d="M250.86 44.21V48.93"/>
<path transform="matrix(1,0,0,-1,0,400)" stroke-width="1" stroke-linecap="round" stroke-linejoin="round" fill="none" stroke="#000000" d="M299.05 44.21V48.93"/>
<path transform="matrix(1,0,0,-1,0,400)" stroke-width="1" stroke-linecap="round" stroke-linejoin="round" fill="none" stroke="#000000" d="M347.24 44.21V48.93"/>
<path transform="matrix(1,0,0,-1,0,400)" stroke-width="1" stroke-linecap="round" stroke-linejoin="round" fill="none" stroke="#000000" d="M395.43 44.21V48.93"/>
<path transform="matrix(1,0,0,-1,0,400)" stroke-width="1" stroke-linecap="round" stroke-linejoin="round" fill="none" stroke="#000000" d="M443.62 44.21V48.93"/>
<path transform="matrix(1,0,0,-1,0,400)" stroke-width="1" stroke-linecap="round" stroke-linejoin="round" fill="none" stroke="#000000" d="M491.81 44.21V48.93"/>
<path transform="matrix(1,0,0,-1,0,400)" stroke-width="1" stroke-linecap="round" stroke-linejoin="round" fill="none" stroke="#000000" d="M540 44.21V48.93"/>
<path transform="matrix(1,0,0,-1,0,400)" d="M103.88 29.59H105.79V36.18L103.72 35.76V36.83L105.78 37.25H106.95V29.59H108.86V28.61H103.88V29.59Z"/>
<path transform="matrix(1,0,0,-1,0,400)" d="M153.14 29.59H157.22V28.61H151.73V29.59C151.73 29.59 152.4 30.28 153.55 31.43 153.55 31.43 154.7 32.6 154.99 32.93 154.99 32.93 155.55 33.56 155.77 34 155.77 34 156 34.44 156 34.86 156 34.86 156 35.55 155.51 35.98 155.51 35.98 155.03 36.42 154.26 36.42 154.26 36.42 153.71 36.42 153.09 36.23 153.09 36.23 152.49 36.04 151.79 35.65V36.83C151.79 36.83 152.5 37.11 153.11 37.26 153.11 37.26 153.73 37.4 154.23 37.4 154.23 37.4 155.58 37.4 156.38 36.73 156.38 36.73 157.17 36.06 157.17 34.94 157.17 34.94 157.17 34.4 156.97 33.92 156.97 33.92 156.78 33.45 156.25 32.8 156.25 32.8 156.1 32.63 155.33 31.83 155.33 31.83 154.55 31.03 153.14 29.59Z"/>
<path transform="matrix(1,0,0,-1,0,400)" d="M203.73 33.26C203.73 33.26 204.57 33.08 205.04 32.52 205.04 32.52 205.51 31.95 205.51 31.12 205.51 31.12 205.51 29.84 204.63 29.14 204.63 29.14 203.75 28.44 202.13 28.44 202.13 28.44 201.59 28.44 201.01 28.55 201.01 28.55 200.44 28.65 199.82 28.87V29.99C199.82 29.99 200.31 29.71 200.89 29.57 200.89 29.57 201.47 29.42 202.1 29.42 202.1 29.42 203.2 29.42 203.77 29.86 203.77 29.86 204.35 30.29 204.35 31.12 204.35 31.12 204.35 31.88 203.81 32.31 203.81 32.31 203.28 32.74 202.32 32.74H201.32V33.7H202.37C202.37 33.7 203.23 33.7 203.69 34.04 203.69 34.04 204.15 34.39 204.15 35.04 204.15 35.04 204.15 35.71 203.67 36.06 203.67 36.06 203.2 36.42 202.32 36.42 202.32 36.42 201.84 36.42 201.29 36.31 201.29 36.31 200.74 36.21 200.08 35.99V37.03C200.08 37.03 200.75 37.22 201.33 37.31 201.33 37.31 201.91 37.4 202.43 37.4 202.43 37.4 203.76 37.4 204.53 36.79 204.53 36.79 205.31 36.19 205.31 35.16 205.31 35.16 205.31 34.44 204.9 33.95 204.9 33.95 204.49 33.45 203.73 33.26Z"/>
<path transform="matrix(1,0,0,-1,0,400)" d="M251.61 36.23 248.66 31.61H251.61V36.23M251.3 37.25H252.77V31.61H254.01V30.64H252.77V28.61H251.61V30.64H247.71V31.77L251.3 37.25Z"/>
<path transform="matrix(1,0,0,-1,0,400)" d="M296.62 37.25H301.21V36.26H297.69V34.14C297.69 34.14 297.94 34.23 298.2 34.27 298.2 34.27 298.45 34.32 298.71 34.32 298.71 34.32 300.15 34.32 301 33.52 301 33.52 301.84 32.73 301.84 31.38 301.84 31.38 301.84 29.98 300.98 29.21 300.98 29.21 300.11 28.44 298.53 28.44 298.53 28.44 297.98 28.44 297.42 28.53 297.42 28.53 296.85 28.62 296.25 28.81V29.98C296.25 29.98 296.77 29.7 297.33 29.56 297.33 29.56 297.88 29.42 298.5 29.42 298.5 29.42 299.51 29.42 300.09 29.95 300.09 29.95 300.67 30.47 300.67 31.38 300.67 31.38 300.67 32.28 300.09 32.81 300.09 32.81 299.51 33.33 298.5 33.33 298.5 33.33 298.04 33.33 297.57 33.23 297.57 33.23 297.1 33.12 296.62 32.9V37.25Z"/>
<path transform="matrix(1,0,0,-1,0,400)" d="M347.34 33.39C347.34 33.39 346.55 33.39 346.09 32.85 346.09 32.85 345.63 32.31 345.63 31.38 345.63 31.38 345.63 30.45 346.09 29.9 346.09 29.9 346.55 29.36 347.34 29.36 347.34 29.36 348.13 29.36 348.58 29.9 348.58 29.9 349.05 30.45 349.05 31.38 349.05 31.38 349.05 32.31 348.58 32.85 348.58 32.85 348.13 33.39 347.34 33.39M349.66 37.05V35.99C349.66 35.99 349.22 36.2 348.77 36.31 348.77 36.31 348.32 36.42 347.88 36.42 347.88 36.42 346.73 36.42 346.11 35.64 346.11 35.64 345.51 34.86 345.42 33.28 345.42 33.28 345.76 33.78 346.27 34.04 346.27 34.04 346.79 34.32 347.41 34.32 347.41 34.32 348.71 34.32 349.46 33.52 349.46 33.52 350.22 32.74 350.22 31.38 350.22 31.38 350.22 30.05 349.43 29.24 349.43 29.24 348.65 28.44 347.34 28.44 347.34 28.44 345.84 28.44 345.05 29.58 345.05 29.58 344.26 30.73 344.26 32.92 344.26 32.92 344.26 34.96 345.23 36.18 345.23 36.18 346.2 37.4 347.84 37.4 347.84 37.4 348.28 37.4 348.72 37.31 348.72 37.31 349.17 37.23 349.66 37.05Z"/>
<path transform="matrix(1,0,0,-1,0,400)" d="M392.65 37.25H398.21V36.75L395.07 28.61H393.85L396.8 36.26H392.65V37.25Z"/>
<path transform="matrix(1,0,0,-1,0,400)" d="M443.62 32.71C443.62 32.71 442.79 32.71 442.3 32.26 442.3 32.26 441.83 31.82 441.83 31.04 441.83 31.04 441.83 30.25 442.3 29.81 442.3 29.81 442.79 29.36 443.62 29.36 443.62 29.36 444.45 29.36 444.93 29.81 444.93 29.81 445.41 30.26 445.41 31.04 445.41 31.04 445.41 31.82 444.93 32.26 444.93 32.26 444.46 32.71 443.62 32.71M442.45 33.21C442.45 33.21 441.7 33.39 441.27 33.91 441.27 33.91 440.86 34.42 440.86 35.16 440.86 35.16 440.86 36.2 441.59 36.8 441.59 36.8 442.33 37.4 443.62 37.4 443.62 37.4 444.91 37.4 445.64 36.8 445.64 36.8 446.38 36.2 446.38 35.16 446.38 35.16 446.38 34.42 445.96 33.91 445.96 33.91 445.54 33.39 444.79 33.21 444.79 33.21 445.64 33.01 446.11 32.44 446.11 32.44 446.58 31.86 446.58 31.04 446.58 31.04 446.58 29.78 445.81 29.11 445.81 29.11 445.05 28.44 443.62 28.44 443.62 28.44 442.19 28.44 441.42 29.11 441.42 29.11 440.66 29.78 440.66 31.04 440.66 31.04 440.66 31.86 441.13 32.44 441.13 32.44 441.6 33.01 442.45 33.21M442.02 35.05C442.02 35.05 442.02 34.38 442.44 34 442.44 34 442.86 33.63 443.62 33.63 443.62 33.63 444.37 33.63 444.79 34 444.79 34 445.22 34.38 445.22 35.05 445.22 35.05 445.22 35.72 444.79 36.1 444.79 36.1 444.37 36.48 443.62 36.48 443.62 36.48 442.86 36.48 442.44 36.1 442.44 36.1 442.02 35.72 442.02 35.05Z"/>
<path transform="matrix(1,0,0,-1,0,400)" d="M489.38 28.78V29.85C489.38 29.85 489.82 29.64 490.28 29.53 490.28 29.53 490.73 29.42 491.16 29.42 491.16 29.42 492.32 29.42 492.93 30.2 492.93 30.2 493.54 30.98 493.63 32.56 493.63 32.56 493.29 32.07 492.78 31.8 492.78 31.8 492.26 31.53 491.64 31.53 491.64 31.53 490.34 31.53 489.58 32.31 489.58 32.31 488.83 33.1 488.83 34.46 488.83 34.46 488.83 35.79 489.62 36.6 489.62 36.6 490.4 37.4 491.71 37.4 491.71 37.4 493.21 37.4 494 36.25 494 36.25 494.79 35.1 494.79 32.92 494.79 32.92 494.79 30.87 493.82 29.65 493.82 29.65 492.85 28.44 491.21 28.44 491.21 28.44 490.77 28.44 490.32 28.52 490.32 28.52 489.87 28.61 489.38 28.78M491.71 32.45C491.71 32.45 492.5 32.45 492.95 32.99 492.95 32.99 493.42 33.52 493.42 34.46 493.42 34.46 493.42 35.39 492.95 35.93 492.95 35.93 492.5 36.48 491.71 36.48 491.71 36.48 490.92 36.48 490.46 35.93 490.46 35.93 490 35.39 490 34.46 490 34.46 490 33.52 490.46 32.99 490.46 32.99 490.92 32.45 491.71 32.45Z"/>
<path transform="matrix(1,0,0,-1,0,400)" d="M533.67 29.59H535.58V36.18L533.5 35.76V36.83L535.57 37.25H536.74V29.59H538.65V28.61H533.67V29.59Z"/>
<path transform="matrix(1,0,0,-1,0,400)" d="M543.51 36.48C543.51 36.48 542.61 36.48 542.15 35.58 542.15 35.58 541.7 34.7 541.7 32.92 541.7 32.92 541.7 31.14 542.15 30.25 542.15 30.25 542.61 29.36 543.51 29.36 543.51 29.36 544.42 29.36 544.87 30.25 544.87 30.25 545.33 31.14 545.33 32.92 545.33 32.92 545.33 34.7 544.87 35.58 544.87 35.58 544.42 36.48 543.51 36.48M543.51 37.4C543.51 37.4 544.96 37.4 545.73 36.25 545.73 36.25 546.49 35.1 546.49 32.92 546.49 32.92 546.49 30.73 545.73 29.58 545.73 29.58 544.96 28.44 543.51 28.44 543.51 28.44 542.06 28.44 541.29 29.58 541.29 29.58 540.52 30.73 540.52 32.92 540.52 32.92 540.52 35.1 541.29 36.25 541.29 36.25 542.06 37.4 543.51 37.4Z"/>
<path transform="matrix(1,0,0,-1,0,400)" d="M272.42 18.55V14.08H274.45C274.45 14.08 275.57 14.08 276.18 14.67 276.18 14.67 276.79 15.25 276.79 16.32 276.79 16.32 276.79 17.39 276.18 17.97 276.18 17.97 275.57 18.55 274.45 18.55H272.42M270.82 19.87H274.45C274.45 19.87 276.44 19.87 277.46 18.96 277.46 18.96 278.49 18.06 278.49 16.32 278.49 16.32 278.49 14.56 277.46 13.66 277.46 13.66 276.44 12.76 274.45 12.76H272.42V7.99H270.82V19.87Z"/>
<path transform="matrix(1,0,0,-1,0,400)" d="M283.9 12.47C283.9 12.47 282.12 12.47 281.44 12.06 281.44 12.06 280.76 11.66 280.76 10.68 280.76 10.68 280.76 9.9 281.26 9.44 281.26 9.44 281.78 8.98 282.67 8.98 282.67 8.98 283.88 8.98 284.61 9.84 284.61 9.84 285.35 10.71 285.35 12.14V12.47H283.9M286.82 13.07V7.99H285.35V9.34C285.35 9.34 284.85 8.53 284.11 8.14 284.11 8.14 283.36 7.76 282.28 7.76 282.28 7.76 280.91 7.76 280.1 8.52 280.1 8.52 279.29 9.29 279.29 10.58 279.29 10.58 279.29 12.09 280.29 12.85 280.29 12.85 281.3 13.61 283.3 13.61H285.35V13.76C285.35 13.76 285.35 14.77 284.69 15.32 284.69 15.32 284.03 15.87 282.82 15.87 282.82 15.87 282.06 15.87 281.34 15.69 281.34 15.69 280.61 15.51 279.94 15.14V16.5C279.94 16.5 280.75 16.81 281.5 16.96 281.5 16.96 282.26 17.12 282.98 17.12 282.98 17.12 284.91 17.12 285.86 16.11 285.86 16.11 286.82 15.11 286.82 13.07Z"/>
<path transform="matrix(1,0,0,-1,0,400)" d="M291.28 19.43V16.9H294.3V15.76H291.28V10.93C291.28 10.93 291.28 9.84 291.58 9.52 291.58 9.52 291.88 9.21 292.79 9.21H294.3V7.99H292.79C292.79 7.99 291.1 7.99 290.46 8.62 290.46 8.62 289.81 9.25 289.81 10.93V15.76H288.74V16.9H289.81V19.43H291.28Z"/>
<path transform="matrix(1,0,0,-1,0,400)" d="M296.22 16.9H297.69V7.99H296.22V16.9M296.22 20.37H297.69V18.52H296.22V20.37Z"/>
<path transform="matrix(1,0,0,-1,0,400)" d="M308.37 12.81V12.09H301.64C301.64 12.09 301.74 10.58 302.55 9.79 302.55 9.79 303.37 9 304.83 9 304.83 9 305.67 9 306.46 9.21 306.46 9.21 307.25 9.41 308.03 9.83V8.44C308.03 8.44 307.24 8.11 306.42 7.93 306.42 7.93 305.59 7.76 304.74 7.76 304.74 7.76 302.61 7.76 301.36 9 301.36 9 300.12 10.24 300.12 12.36 300.12 12.36 300.12 14.55 301.29 15.83 301.29 15.83 302.48 17.12 304.48 17.12 304.48 17.12 306.28 17.12 307.32 15.95 307.32 15.95 308.37 14.8 308.37 12.81M306.91 13.24C306.91 13.24 306.89 14.44 306.23 15.16 306.23 15.16 305.58 15.87 304.5 15.87 304.5 15.87 303.27 15.87 302.53 15.18 302.53 15.18 301.8 14.49 301.69 13.23L306.91 13.24Z"/>
<path transform="matrix(1,0,0,-1,0,400)" d="M318.19 13.37V7.99H316.72V13.32C316.72 13.32 316.72 14.59 316.23 15.21 316.23 15.21 315.74 15.84 314.75 15.84 314.75 15.84 313.56 15.84 312.88 15.09 312.88 15.09 312.19 14.33 312.19 13.03V7.99H310.72V16.9H312.19V15.52C312.19 15.52 312.72 16.32 313.43 16.72 313.43 16.72 314.14 17.12 315.07 17.12 315.07 17.12 316.61 17.12 317.4 16.16 317.4 16.16 318.19 15.21 318.19 13.37Z"/>
<path transform="matrix(1,0,0,-1,0,400)" d="M322.55 19.43V16.9H325.57V15.76H322.55V10.93C322.55 10.93 322.55 9.84 322.85 9.52 322.85 9.52 323.15 9.21 324.07 9.21H325.57V7.99H324.07C324.07 7.99 322.37 7.99 321.73 8.62 321.73 8.62 321.08 9.25 321.08 10.93V15.76H320.01V16.9H321.08V19.43H322.55Z"/>
<path transform="matrix(1,0,0,-1,0,400)" d="M332.74 19.87H334.35V7.99H332.74V19.87Z"/>
<path transform="matrix(1,0,0,-1,0,400)" d="M344.89 13.37V7.99H343.43V13.32C343.43 13.32 343.43 14.59 342.93 15.21 342.93 15.21 342.44 15.84 341.45 15.84 341.45 15.84 340.27 15.84 339.58 15.09 339.58 15.09 338.9 14.33 338.9 13.03V7.99H337.43V16.9H338.9V15.52C338.9 15.52 339.42 16.32 340.13 16.72 340.13 16.72 340.85 17.12 341.78 17.12 341.78 17.12 343.31 17.12 344.1 16.16 344.1 16.16 344.89 15.21 344.89 13.37Z"/>
<path transform="matrix(1,0,0,-1,0,400)" d="M353.67 15.55V20.37H355.14V7.99H353.67V9.33C353.67 9.33 353.21 8.53 352.5 8.14 352.5 8.14 351.8 7.76 350.82 7.76 350.82 7.76 349.2 7.76 348.18 9.05 348.18 9.05 347.17 10.34 347.17 12.44 347.17 12.44 347.17 14.54 348.18 15.83 348.18 15.83 349.2 17.12 350.82 17.12 350.82 17.12 351.8 17.12 352.5 16.73 352.5 16.73 353.21 16.34 353.67 15.55M348.69 12.44C348.69 12.44 348.69 10.82 349.35 9.9 349.35 9.9 350.01 8.98 351.18 8.98 351.18 8.98 352.34 8.98 353.01 9.9 353.01 9.9 353.67 10.82 353.67 12.44 353.67 12.44 353.67 14.05 353.01 14.97 353.01 14.97 352.34 15.89 351.18 15.89 351.18 15.89 350.01 15.89 349.35 14.97 349.35 14.97 348.69 14.05 348.69 12.44Z"/>
<path transform="matrix(1,0,0,-1,0,400)" d="M365.78 12.81V12.09H359.05C359.05 12.09 359.14 10.58 359.95 9.79 359.95 9.79 360.77 9 362.23 9 362.23 9 363.07 9 363.86 9.21 363.86 9.21 364.66 9.41 365.44 9.83V8.44C365.44 8.44 364.65 8.11 363.82 7.93 363.82 7.93 362.99 7.76 362.14 7.76 362.14 7.76 360.01 7.76 358.76 9 358.76 9 357.52 10.24 357.52 12.36 357.52 12.36 357.52 14.55 358.7 15.83 358.7 15.83 359.88 17.12 361.89 17.12 361.89 17.12 363.68 17.12 364.73 15.95 364.73 15.95 365.78 14.8 365.78 12.81M364.31 13.24C364.31 13.24 364.3 14.44 363.64 15.16 363.64 15.16 362.98 15.87 361.9 15.87 361.9 15.87 360.68 15.87 359.94 15.18 359.94 15.18 359.2 14.49 359.09 13.23L364.31 13.24Z"/>
<path transform="matrix(1,0,0,-1,0,400)" d="M375.3 16.9 372.08 12.56 375.47 7.99H373.74L371.15 11.49 368.55 7.99H366.83L370.29 12.65 367.12 16.9H368.85L371.21 13.73 373.58 16.9H375.3Z"/>
<path transform="matrix(1,0,0,-1,0,400)" stroke-width="1" stroke-linecap="round" stroke-linejoin="round" fill="none" stroke="#000000" d="M58.1 44.21V388.19"/>
<path transform="matrix(1,0,0,-1,0,400)" stroke-width="1" stroke-linecap="round" stroke-linejoin="round" fill="none" stroke="#000000" d="M58.1 44.21H62.82"/>
<path transform="matrix(1,0,0,-1,0,400)" stroke-width="1" stroke-linecap="round" stroke-linejoin="round" fill="none" stroke="#000000" d="M58.1 145.38H62.82"/>
<path transform="matrix(1,0,0,-1,0,400)" stroke-width="1" stroke-linecap="round" stroke-linejoin="round" fill="none" stroke="#000000" d="M58.1 246.55H62.82"/>
<path transform="matrix(1,0,0,-1,0,400)" stroke-width="1" stroke-linecap="round" stroke-linejoin="round" fill="none" stroke="#000000" d="M58.1 347.72H62.82"/>
<path transform="matrix(1,0,0,-1,0,400)" d="M46.11 47.76C46.11 47.76 45.21 47.76 44.75 46.86 44.75 46.86 44.3 45.98 44.3 44.2 44.3 44.2 44.3 42.42 44.75 41.53 44.75 41.53 45.21 40.64 46.11 40.64 46.11 40.64 47.02 40.64 47.47 41.53 47.47 41.53 47.93 42.42 47.93 44.2 47.93 44.2 47.93 45.98 47.47 46.86 47.47 46.86 47.02 47.76 46.11 47.76M46.11 48.68C46.11 48.68 47.56 48.68 48.33 47.53 48.33 47.53 49.1 46.38 49.1 44.2 49.1 44.2 49.1 42.01 48.33 40.86 48.33 40.86 47.56 39.72 46.11 39.72 46.11 39.72 44.66 39.72 43.89 40.86 43.89 40.86 43.13 42.01 43.13 44.2 43.13 44.2 43.13 46.38 43.89 47.53 43.89 47.53 44.66 48.68 46.11 48.68Z"/>
<path transform="matrix(1,0,0,-1,0,400)" d="M36.08 149.7H40.67V148.71H37.15V146.59C37.15 146.59 37.41 146.68 37.66 146.72 37.66 146.72 37.92 146.77 38.17 146.77 38.17 146.77 39.62 146.77 40.46 145.98 40.46 145.98 41.31 145.18 41.31 143.83 41.31 143.83 41.31 142.43 40.44 141.66 40.44 141.66 39.57 140.89 37.99 140.89 37.99 140.89 37.45 140.89 36.88 140.98 36.88 140.98 36.32 141.07 35.72 141.26V142.43C35.72 142.43 36.24 142.15 36.79 142.01 36.79 142.01 37.35 141.87 37.97 141.87 37.97 141.87 38.97 141.87 39.55 142.4 39.55 142.4 40.14 142.93 40.14 143.83 40.14 143.83 40.14 144.73 39.55 145.26 39.55 145.26 38.97 145.78 37.97 145.78 37.97 145.78 37.5 145.78 37.03 145.68 37.03 145.68 36.57 145.58 36.08 145.36V149.7Z"/>
<path transform="matrix(1,0,0,-1,0,400)" d="M46.11 148.93C46.11 148.93 45.21 148.93 44.75 148.04 44.75 148.04 44.3 147.15 44.3 145.37 44.3 145.37 44.3 143.59 44.75 142.7 44.75 142.7 45.21 141.81 46.11 141.81 46.11 141.81 47.02 141.81 47.47 142.7 47.47 142.7 47.93 143.59 47.93 145.37 47.93 145.37 47.93 147.15 47.47 148.04 47.47 148.04 47.02 148.93 46.11 148.93M46.11 149.85C46.11 149.85 47.56 149.85 48.33 148.7 48.33 148.7 49.1 147.56 49.1 145.37 49.1 145.37 49.1 143.19 48.33 142.03 48.33 142.03 47.56 140.89 46.11 140.89 46.11 140.89 44.66 140.89 43.89 142.03 43.89 142.03 43.13 143.19 43.13 145.37 43.13 145.37 43.13 147.56 43.89 148.7 43.89 148.7 44.66 149.85 46.11 149.85Z"/>
<path transform="matrix(1,0,0,-1,0,400)" d="M28.73 243.21H30.64V249.8L28.57 249.39V250.45L30.63 250.87H31.8V243.21H33.71V242.23H28.73V243.21Z"/>
<path transform="matrix(1,0,0,-1,0,400)" d="M38.57 250.1C38.57 250.1 37.67 250.1 37.21 249.21 37.21 249.21 36.76 248.32 36.76 246.54 36.76 246.54 36.76 244.76 37.21 243.87 37.21 243.87 37.67 242.99 38.57 242.99 38.57 242.99 39.48 242.99 39.93 243.87 39.93 243.87 40.39 244.76 40.39 246.54 40.39 246.54 40.39 248.32 39.93 249.21 39.93 249.21 39.48 250.1 38.57 250.1M38.57 251.02C38.57 251.02 40.02 251.02 40.79 249.87 40.79 249.87 41.56 248.73 41.56 246.54 41.56 246.54 41.56 244.36 40.79 243.21 40.79 243.21 40.02 242.06 38.57 242.06 38.57 242.06 37.12 242.06 36.35 243.21 36.35 243.21 35.58 244.36 35.58 246.54 35.58 246.54 35.58 248.73 36.35 249.87 36.35 249.87 37.12 251.02 38.57 251.02Z"/>
<path transform="matrix(1,0,0,-1,0,400)" d="M46.11 250.1C46.11 250.1 45.21 250.1 44.75 249.21 44.75 249.21 44.3 248.32 44.3 246.54 44.3 246.54 44.3 244.76 44.75 243.87 44.75 243.87 45.21 242.99 46.11 242.99 46.11 242.99 47.02 242.99 47.47 243.87 47.47 243.87 47.93 244.76 47.93 246.54 47.93 246.54 47.93 248.32 47.47 249.21 47.47 249.21 47.02 250.1 46.11 250.1M46.11 251.02C46.11 251.02 47.56 251.02 48.33 249.87 48.33 249.87 49.1 248.73 49.1 246.54 49.1 246.54 49.1 244.36 48.33 243.21 48.33 243.21 47.56 242.06 46.11 242.06 46.11 242.06 44.66 242.06 43.89 243.21 43.89 243.21 43.13 244.36 43.13 246.54 43.13 246.54 43.13 248.73 43.89 249.87 43.89 249.87 44.66 251.02 46.11 251.02Z"/>
<path transform="matrix(1,0,0,-1,0,400)" d="M28.73 344.38H30.64V350.98L28.57 350.56V351.62L30.63 352.04H31.8V344.38H33.71V343.4H28.73V344.38Z"/>
<path transform="matrix(1,0,0,-1,0,400)" d="M36.08 352.04H40.67V351.06H37.15V348.94C37.15 348.94 37.41 349.03 37.66 349.07 37.66 349.07 37.92 349.11 38.17 349.11 38.17 349.11 39.62 349.11 40.46 348.32 40.46 348.32 41.31 347.53 41.31 346.17 41.31 346.17 41.31 344.78 40.44 344 40.44 344 39.57 343.23 37.99 343.23 37.99 343.23 37.45 343.23 36.88 343.33 36.88 343.33 36.32 343.42 35.72 343.6V344.78C35.72 344.78 36.24 344.49 36.79 344.36 36.79 344.36 37.35 344.22 37.97 344.22 37.97 344.22 38.97 344.22 39.55 344.74 39.55 344.74 40.14 345.27 40.14 346.17 40.14 346.17 40.14 347.08 39.55 347.6 39.55 347.6 38.97 348.13 37.97 348.13 37.97 348.13 37.5 348.13 37.03 348.02 37.03 348.02 36.57 347.92 36.08 347.7V352.04Z"/>
<path transform="matrix(1,0,0,-1,0,400)" d="M46.11 351.27C46.11 351.27 45.21 351.27 44.75 350.38 44.75 350.38 44.3 349.49 44.3 347.71 44.3 347.71 44.3 345.93 44.75 345.04 44.75 345.04 45.21 344.16 46.11 344.16 46.11 344.16 47.02 344.16 47.47 345.04 47.47 345.04 47.93 345.93 47.93 347.71 47.93 347.71 47.93 349.49 47.47 350.38 47.47 350.38 47.02 351.27 46.11 351.27M46.11 352.2C46.11 352.2 47.56 352.2 48.33 351.04 48.33 351.04 49.1 349.9 49.1 347.71 49.1 347.71 49.1 345.53 48.33 344.38 48.33 344.38 47.56 343.23 46.11 343.23 46.11 343.23 44.66 343.23 43.89 344.38 43.89 344.38 43.13 345.53 43.13 347.71 43.13 347.71 43.13 349.9 43.89 351.04 43.89 351.04 44.66 352.2 46.11 352.2Z"/>
<path transform="matrix(1,0,0,-1,0,400)" d="M4.12 138.93V141.33L12.21 144.36 4.12 147.41V149.8H16V148.24H5.57L13.72 145.17V143.56L5.57 140.49H16V138.93H4.12Z"/>
<path transform="matrix(1,0,0,-1,0,400)" d="M11.52 156.98C11.52 156.98 11.52 155.21 11.93 154.52 11.93 154.52 12.33 153.84 13.31 153.84 13.31 153.84 14.09 153.84 14.55 154.35 14.55 154.35 15.01 154.86 15.01 155.75 15.01 155.75 15.01 156.96 14.15 157.7 14.15 157.7 13.28 158.44 11.85 158.44H11.52V156.98M10.92 159.9H16V158.44H14.65C14.65 158.44 15.46 157.93 15.85 157.19 15.85 157.19 16.23 156.44 16.23 155.36 16.23 155.36 16.23 153.99 15.47 153.18 15.47 153.18 14.7 152.37 13.41 152.37 13.41 152.37 11.9 152.37 11.14 153.38 11.14 153.38 10.38 154.39 10.38 156.38V158.44H10.23C10.23 158.44 9.22 158.44 8.67 157.77 8.67 157.77 8.12 157.11 8.12 155.91 8.12 155.91 8.12 155.14 8.3 154.42 8.3 154.42 8.48 153.69 8.85 153.03H7.49C7.49 153.03 7.18 153.83 7.03 154.58 7.03 154.58 6.87 155.34 6.87 156.06 6.87 156.06 6.87 157.99 7.88 158.95 7.88 158.95 8.88 159.9 10.92 159.9Z"/>
<path transform="matrix(1,0,0,-1,0,400)" d="M7.09 170.32 11.43 167.1 16 170.49V168.76L12.5 166.17 16 163.58V161.85L11.34 165.31 7.09 162.14V163.87L10.26 166.23 7.09 168.6V170.32Z"/>
<path transform="matrix(1,0,0,-1,0,400)" d="M7.09 172.56V174.02H16V172.56H7.09M3.62 172.56V174.02H5.47V172.56H3.62Z"/>
<path transform="matrix(1,0,0,-1,0,400)" d="M8.8 184.03C8.8 184.03 7.81 184.58 7.34 185.34 7.34 185.34 6.87 186.1 6.87 187.14 6.87 187.14 6.87 188.53 7.85 189.29 7.85 189.29 8.82 190.04 10.62 190.04H16V188.57H10.67C10.67 188.57 9.39 188.57 8.77 188.12 8.77 188.12 8.15 187.66 8.15 186.73 8.15 186.73 8.15 185.59 8.9 184.93 8.9 184.93 9.66 184.27 10.96 184.27H16V182.8H10.67C10.67 182.8 9.38 182.8 8.77 182.35 8.77 182.35 8.15 181.89 8.15 180.95 8.15 180.95 8.15 179.82 8.91 179.16 8.91 179.16 9.67 178.5 10.96 178.5H16V177.03H7.09V178.5H8.47C8.47 178.5 7.65 179.01 7.26 179.71 7.26 179.71 6.87 180.41 6.87 181.37 6.87 181.37 6.87 182.34 7.37 183.02 7.37 183.02 7.86 183.7 8.8 184.03Z"/>
<path transform="matrix(1,0,0,-1,0,400)" d="M12.48 192.81H7.09V194.28H12.43C12.43 194.28 13.69 194.28 14.33 194.77 14.33 194.77 14.96 195.26 14.96 196.25 14.96 196.25 14.96 197.43 14.2 198.12 14.2 198.12 13.45 198.81 12.14 198.81H7.09V200.27H16V198.81H14.63C14.63 198.81 15.44 198.28 15.84 197.57 15.84 197.57 16.23 196.87 16.23 195.94 16.23 195.94 16.23 194.4 15.28 193.61 15.28 193.61 14.32 192.81 12.48 192.81M6.87 196.5V196.5Z"/>
<path transform="matrix(1,0,0,-1,0,400)" d="M8.8 210.23C8.8 210.23 7.81 210.78 7.34 211.54 7.34 211.54 6.87 212.31 6.87 213.34 6.87 213.34 6.87 214.73 7.85 215.49 7.85 215.49 8.82 216.24 10.62 216.24H16V214.77H10.67C10.67 214.77 9.39 214.77 8.77 214.32 8.77 214.32 8.15 213.87 8.15 212.93 8.15 212.93 8.15 211.8 8.9 211.14 8.9 211.14 9.66 210.48 10.96 210.48H16V209H10.67C10.67 209 9.38 209 8.77 208.55 8.77 208.55 8.15 208.1 8.15 207.15 8.15 207.15 8.15 206.03 8.91 205.37 8.91 205.37 9.67 204.71 10.96 204.71H16V203.23H7.09V204.71H8.47C8.47 204.71 7.65 205.21 7.26 205.91 7.26 205.91 6.87 206.61 6.87 207.57 6.87 207.57 6.87 208.54 7.37 209.22 7.37 209.22 7.86 209.9 8.8 210.23Z"/>
<path transform="matrix(1,0,0,-1,0,400)" d="M4.12 224.41V231.24H5.47V226.02H8.97V230.73H10.33V226.02H16V224.41H4.12Z"/>
<path transform="matrix(1,0,0,-1,0,400)" d="M4.12 233.78V235.39H16V233.78H4.12Z"/>
<path transform="matrix(1,0,0,-1,0,400)" d="M4.12 238.59V240.2H16V238.59H4.12Z"/>
<path transform="matrix(1,0,0,-1,0,400)" d="M11.52 247.38C11.52 247.38 11.52 245.61 11.93 244.92 11.93 244.92 12.33 244.24 13.31 244.24 13.31 244.24 14.09 244.24 14.55 244.75 14.55 244.75 15.01 245.26 15.01 246.15 15.01 246.15 15.01 247.37 14.15 248.1 14.15 248.1 13.28 248.84 11.85 248.84H11.52V247.38M10.92 250.3H16V248.84H14.65C14.65 248.84 15.46 248.34 15.85 247.59 15.85 247.59 16.23 246.84 16.23 245.76 16.23 245.76 16.23 244.39 15.47 243.58 15.47 243.58 14.7 242.77 13.41 242.77 13.41 242.77 11.9 242.77 11.14 243.78 11.14 243.78 10.38 244.79 10.38 246.78V248.84H10.23C10.23 248.84 9.22 248.84 8.67 248.17 8.67 248.17 8.12 247.51 8.12 246.31 8.12 246.31 8.12 245.54 8.3 244.82 8.3 244.82 8.48 244.09 8.85 243.43H7.49C7.49 243.43 7.18 244.23 7.03 244.99 7.03 244.99 6.87 245.74 6.87 246.46 6.87 246.46 6.87 248.39 7.88 249.35 7.88 249.35 8.88 250.3 10.92 250.3Z"/>
<path transform="matrix(1,0,0,-1,0,400)" d="M10.43 264.19C10.43 264.19 10.61 264.71 11.18 265.2 11.18 265.2 11.75 265.69 12.75 266.18L16 267.81V266.09L12.95 264.57C12.95 264.57 11.76 263.98 11.37 263.42 11.37 263.42 10.98 262.87 10.98 261.92V260.17H16V258.56H4.12V262.19C4.12 262.19 4.12 264.23 4.97 265.23 4.97 265.23 5.82 266.23 7.54 266.23 7.54 266.23 8.66 266.23 9.4 265.71 9.4 265.71 10.14 265.19 10.43 264.19M5.44 260.17H9.66V262.19C9.66 262.19 9.66 263.35 9.13 263.94 9.13 263.94 8.58 264.54 7.54 264.54 7.54 264.54 6.5 264.54 5.98 263.94 5.98 263.94 5.44 263.35 5.44 262.19V260.17Z"/>
<path transform="matrix(1,0,0,-1,0,400)" d="M11.52 273.51C11.52 273.51 11.52 271.74 11.93 271.05 11.93 271.05 12.33 270.37 13.31 270.37 13.31 270.37 14.09 270.37 14.55 270.88 14.55 270.88 15.01 271.4 15.01 272.28 15.01 272.28 15.01 273.5 14.15 274.23 14.15 274.23 13.28 274.97 11.85 274.97H11.52V273.51M10.92 276.43H16V274.97H14.65C14.65 274.97 15.46 274.47 15.85 273.72 15.85 273.72 16.23 272.97 16.23 271.89 16.23 271.89 16.23 270.52 15.47 269.71 15.47 269.71 14.7 268.91 13.41 268.91 13.41 268.91 11.9 268.91 11.14 269.91 11.14 269.91 10.38 270.92 10.38 272.92V274.97H10.23C10.23 274.97 9.22 274.97 8.67 274.3 8.67 274.3 8.12 273.64 8.12 272.44 8.12 272.44 8.12 271.67 8.3 270.95 8.3 270.95 8.48 270.23 8.85 269.56H7.49C7.49 269.56 7.18 270.36 7.03 271.12 7.03 271.12 6.87 271.87 6.87 272.59 6.87 272.59 6.87 274.52 7.88 275.48 7.88 275.48 8.88 276.43 10.92 276.43Z"/>
<path transform="matrix(1,0,0,-1,0,400)" d="M4.56 280.9H7.09V283.91H8.23V280.9H13.06C13.06 280.9 14.15 280.9 14.47 281.19 14.47 281.19 14.78 281.49 14.78 282.41V283.91H16V282.41C16 282.41 16 280.71 15.37 280.07 15.37 280.07 14.74 279.42 13.06 279.42H8.23V278.35H7.09V279.42H4.56V280.9Z"/>
<path transform="matrix(1,0,0,-1,0,400)" d="M11.18 293.46H11.9V286.73C11.9 286.73 13.41 286.82 14.2 287.64 14.2 287.64 14.99 288.46 14.99 289.91 14.99 289.91 14.99 290.76 14.78 291.54 14.78 291.54 14.58 292.34 14.16 293.12H15.55C15.55 293.12 15.88 292.33 16.06 291.5 16.06 291.5 16.23 290.68 16.23 289.82 16.23 289.82 16.23 287.69 14.99 286.44 14.99 286.44 13.75 285.2 11.63 285.2 11.63 285.2 9.44 285.2 8.16 286.38 8.16 286.38 6.87 287.56 6.87 289.57 6.87 289.57 6.87 291.37 8.04 292.41 8.04 292.41 9.19 293.46 11.18 293.46M10.75 292C10.75 292 9.55 291.98 8.83 291.32 8.83 291.32 8.12 290.67 8.12 289.59 8.12 289.59 8.12 288.36 8.81 287.62 8.81 287.62 9.5 286.89 10.76 286.78L10.75 292Z"/>
<g clip-path="url(#clip_3)">
<path transform="matrix(1,0,0,-1,0,400)" d="M90.14 251.95V44.21H106.29V251.95H90.14" fill="#1b1b1b" fill-rule="evenodd"/>
</g>
<path transform="matrix(1,0,0,-1,0,400)" stroke-width="0" stroke-linecap="round" stroke-linejoin="round" fill="none" stroke="#000000" d="M90.14 251.95V44.21H106.29V251.95H90.14"/>
<g clip-path="url(#clip_4)">
<path transform="matrix(1,0,0,-1,0,400)" d="M138.33 313.79V44.21H154.48V313.79H138.33" fill="#1b1b1b" fill-rule="evenodd"/>
</g>
<path transform="matrix(1,0,0,-1,0,400)" stroke-width="0" stroke-linecap="round" stroke-linejoin="round" fill="none" stroke="#000000" d="M138.33 313.79V44.21H154.48V313.79H138.33"/>
<g clip-path="url(#clip_5)">
<path transform="matrix(1,0,0,-1,0,400)" d="M186.52 375.72V44.21H202.67V375.72H186.52" fill="#1b1b1b" fill-rule="evenodd"/>
</g>
<path transform="matrix(1,0,0,-1,0,400)" stroke-width="0" stroke-linecap="round" stroke-linejoin="round" fill="none" stroke="#000000" d="M186.52 375.72V44.21H202.67V375.72H186.52"/>
<g clip-path="url(#clip_6)">
<path transform="matrix(1,0,0,-1,0,400)" d="M234.71 227.57V44.21H250.86V227.57H234.71" fill="#1b1b1b" fill-rule="evenodd"/>
</g>
<path transform="matrix(1,0,0,-1,0,400)" stroke-width="0" stroke-linecap="round" stroke-linejoin="round" fill="none" stroke="#000000" d="M234.71 227.57V44.21H250.86V227.57H234.71"/>
<g clip-path="url(#clip_7)">
<path transform="matrix(1,0,0,-1,0,400)" d="M282.9 375.58V44.21H299.05V375.58H282.9" fill="#1b1b1b" fill-rule="evenodd"/>
</g>
<path transform="matrix(1,0,0,-1,0,400)" stroke-width="0" stroke-linecap="round" stroke-linejoin="round" fill="none" stroke="#000000" d="M282.9 375.58V44.21H299.05V375.58H282.9"/>
<g clip-path="url(#clip_8)">
<path transform="matrix(1,0,0,-1,0,400)" d="M331.09 323.07V44.21H347.24V323.07H331.09" fill="#1b1b1b" fill-rule="evenodd"/>
</g>
<path transform="matrix(1,0,0,-1,0,400)" stroke-width="0" stroke-linecap="round" stroke-linejoin="round" fill="none" stroke="#000000" d="M331.09 323.07V44.21H347.24V323.07H331.09"/>
<g clip-path="url(#clip_9)">
<path transform="matrix(1,0,0,-1,0,400)" d="M379.28 266.7V44.21H395.43V266.7H379.28" fill="#1b1b1b" fill-rule="evenodd"/>
</g>
<path transform="matrix(1,0,0,-1,0,400)" stroke-width="0" stroke-linecap="round" stroke-linejoin="round" fill="none" stroke="#000000" d="M379.28 266.7V44.21H395.43V266.7H379.28"/>
<g clip-path="url(#clip_10)">
<path transform="matrix(1,0,0,-1,0,400)" d="M427.47 314.7V44.21H443.62V314.7H427.47" fill="#1b1b1b" fill-rule="evenodd"/>
</g>
<path transform="matrix(1,0,0,-1,0,400)" stroke-width="0" stroke-linecap="round" stroke-linejoin="round" fill="none" stroke="#000000" d="M427.47 314.7V44.21H443.62V314.7H427.47"/>
<g clip-path="url(#clip_11)">
<path transform="matrix(1,0,0,-1,0,400)" d="M475.66 231.64V44.21H491.81V231.64H475.66" fill="#1b1b1b" fill-rule="evenodd"/>
</g>
<path transform="matrix(1,0,0,-1,0,400)" stroke-width="0" stroke-linecap="round" stroke-linejoin="round" fill="none" stroke="#000000" d="M475.66 231.64V44.21H491.81V231.64H475.66"/>
<g clip-path="url(#clip_12)">
<path transform="matrix(1,0,0,-1,0,400)" d="M523.86 308.81V44.21H540V308.81H523.86" fill="#1b1b1b" fill-rule="evenodd"/>
</g>
<path transform="matrix(1,0,0,-1,0,400)" stroke-width="0" stroke-linecap="round" stroke-linejoin="round" fill="none" stroke="#000000" d="M523.86 308.81V44.21H540V308.81H523.86"/>
<path transform="matrix(1,0,0,-1,0,400)" stroke-width=".8" stroke-linecap="round" stroke-linejoin="round" fill="none" stroke="#1b1b1b" stroke-opacity="0" d="M98.22 251.95V251.95"/>
<path transform="matrix(1,0,0,-1,0,400)" stroke-width=".8" stroke-linecap="round" stroke-linejoin="round" fill="none" stroke="#1b1b1b" stroke-opacity="0" d="M146.41 313.79V313.79"/>
<path transform="matrix(1,0,0,-1,0,400)" stroke-width=".8" stroke-linecap="round" stroke-linejoin="round" fill="none" stroke="#1b1b1b" stroke-opacity="0" d="M194.6 375.72V375.72"/>
<path transform="matrix(1,0,0,-1,0,400)" stroke-width=".8" stroke-linecap="round" stroke-linejoin="round" fill="none" stroke="#1b1b1b" stroke-opacity="0" d="M242.79 227.57V227.57"/>
<path transform="matrix(1,0,0,-1,0,400)" stroke-width=".8" stroke-linecap="round" stroke-linejoin="round" fill="none" stroke="#1b1b1b" stroke-opacity="0" d="M290.98 375.58V375.58"/>
<path transform="matrix(1,0,0,-1,0,400)" stroke-width=".8" stroke-linecap="round" stroke-linejoin="round" fill="none" stroke="#1b1b1b" stroke-opacity="0" d="M339.17 323.07V323.07"/>
<path transform="matrix(1,0,0,-1,0,400)" stroke-width=".8" stroke-linecap="round" stroke-linejoin="round" fill="none" stroke="#1b1b1b" stroke-opacity="0" d="M387.36 266.7V266.7"/>
<path transform="matrix(1,0,0,-1,0,400)" stroke-width=".8" stroke-linecap="round" stroke-linejoin="round" fill="none" stroke="#1b1b1b" stroke-opacity="0" d="M435.55 314.7V314.7"/>
<path transform="matrix(1,0,0,-1,0,400)" stroke-width=".8" stroke-linecap="round" stroke-linejoin="round" fill="none" stroke="#1b1b1b" stroke-opacity="0" d="M483.74 231.64V231.64"/>
<path transform="matrix(1,0,0,-1,0,400)" stroke-width=".8" stroke-linecap="round" stroke-linejoin="round" fill="none" stroke="#1b1b1b" stroke-opacity="0" d="M531.93 308.81V308.81"/>
<g clip-path="url(#clip_13)">
<path transform="matrix(1,0,0,-1,0,400)" d="M106.29 238.79V44.21H122.43V238.79H106.29" fill="#a2a2a2" fill-rule="evenodd"/>
</g>
<path transform="matrix(1,0,0,-1,0,400)" stroke-width="0" stroke-linecap="round" stroke-linejoin="round" fill="none" stroke="#000000" d="M106.29 238.79V44.21H122.43V238.79H106.29"/>
<g clip-path="url(#clip_14)">
<path transform="matrix(1,0,0,-1,0,400)" d="M154.48 311.49V44.21H170.62V311.49H154.48" fill="#a2a2a2" fill-rule="evenodd"/>
</g>
<path transform="matrix(1,0,0,-1,0,400)" stroke-width="0" stroke-linecap="round" stroke-linejoin="round" fill="none" stroke="#000000" d="M154.48 311.49V44.21H170.62V311.49H154.48"/>
<g clip-path="url(#clip_15)">
<path transform="matrix(1,0,0,-1,0,400)" d="M202.67 373.58V44.21H218.81V373.58H202.67" fill="#a2a2a2" fill-rule="evenodd"/>
</g>
<path transform="matrix(1,0,0,-1,0,400)" stroke-width="0" stroke-linecap="round" stroke-linejoin="round" fill="none" stroke="#000000" d="M202.67 373.58V44.21H218.81V373.58H202.67"/>
<g clip-path="url(#clip_16)">
<path transform="matrix(1,0,0,-1,0,400)" d="M250.86 226.45V44.21H267V226.45H250.86" fill="#a2a2a2" fill-rule="evenodd"/>
</g>
<path transform="matrix(1,0,0,-1,0,400)" stroke-width="0" stroke-linecap="round" stroke-linejoin="round" fill="none" stroke="#000000" d="M250.86 226.45V44.21H267V226.45H250.86"/>
<g clip-path="url(#clip_17)">
<path transform="matrix(1,0,0,-1,0,400)" d="M299.05 343.89V44.21H315.19V343.89H299.05" fill="#a2a2a2" fill-rule="evenodd"/>
</g>
<path transform="matrix(1,0,0,-1,0,400)" stroke-width="0" stroke-linecap="round" stroke-linejoin="round" fill="none" stroke="#000000" d="M299.05 343.89V44.21H315.19V343.89H299.05"/>
<g clip-path="url(#clip_18)">
<path transform="matrix(1,0,0,-1,0,400)" d="M347.24 322.68V44.21H363.38V322.68H347.24" fill="#a2a2a2" fill-rule="evenodd"/>
</g>
<path transform="matrix(1,0,0,-1,0,400)" stroke-width="0" stroke-linecap="round" stroke-linejoin="round" fill="none" stroke="#000000" d="M347.24 322.68V44.21H363.38V322.68H347.24"/>
<g clip-path="url(#clip_19)">
<path transform="matrix(1,0,0,-1,0,400)" d="M395.43 238.43V44.21H411.57V238.43H395.43" fill="#a2a2a2" fill-rule="evenodd"/>
</g>
<path transform="matrix(1,0,0,-1,0,400)" stroke-width="0" stroke-linecap="round" stroke-linejoin="round" fill="none" stroke="#000000" d="M395.43 238.43V44.21H411.57V238.43H395.43"/>
<g clip-path="url(#clip_20)">
<path transform="matrix(1,0,0,-1,0,400)" d="M443.62 268.57V44.21H459.76V268.57H443.62" fill="#a2a2a2" fill-rule="evenodd"/>
</g>
<path transform="matrix(1,0,0,-1,0,400)" stroke-width="0" stroke-linecap="round" stroke-linejoin="round" fill="none" stroke="#000000" d="M443.62 268.57V44.21H459.76V268.57H443.62"/>
<g clip-path="url(#clip_21)">
<path transform="matrix(1,0,0,-1,0,400)" d="M491.81 225.93V44.21H507.95V225.93H491.81" fill="#a2a2a2" fill-rule="evenodd"/>
</g>
<path transform="matrix(1,0,0,-1,0,400)" stroke-width="0" stroke-linecap="round" stroke-linejoin="round" fill="none" stroke="#000000" d="M491.81 225.93V44.21H507.95V225.93H491.81"/>
<g clip-path="url(#clip_22)">
<path transform="matrix(1,0,0,-1,0,400)" d="M540 284.73V44.21H556.14V284.73H540" fill="#a2a2a2" fill-rule="evenodd"/>
</g>
<path transform="matrix(1,0,0,-1,0,400)" stroke-width="0" stroke-linecap="round" stroke-linejoin="round" fill="none" stroke="#000000" d="M540 284.73V44.21H556.14V284.73H540"/>
<path transform="matrix(1,0,0,-1,0,400)" stroke-width=".8" stroke-linecap="round" stroke-linejoin="round" fill="none" stroke="#a2a2a2" stroke-opacity="0" d="M114.36 238.79V238.79"/>
<path transform="matrix(1,0,0,-1,0,400)" stroke-width=".8" stroke-linecap="round" stroke-linejoin="round" fill="none" stroke="#a2a2a2" stroke-opacity="0" d="M162.55 311.49V311.49"/>
<path transform="matrix(1,0,0,-1,0,400)" stroke-width=".8" stroke-linecap="round" stroke-linejoin="round" fill="none" stroke="#a2a2a2" stroke-opacity="0" d="M210.74 373.58V373.58"/>
<path transform="matrix(1,0,0,-1,0,400)" stroke-width=".8" stroke-linecap="round" stroke-linejoin="round" fill="none" stroke="#a2a2a2" stroke-opacity="0" d="M258.93 226.45V226.45"/>
<path transform="matrix(1,0,0,-1,0,400)" stroke-width=".8" stroke-linecap="round" stroke-linejoin="round" fill="none" stroke="#a2a2a2" stroke-opacity="0" d="M307.12 343.89V343.89"/>
<path transform="matrix(1,0,0,-1,0,400)" stroke-width=".8" stroke-linecap="round" stroke-linejoin="round" fill="none" stroke="#a2a2a2" stroke-opacity="0" d="M355.31 322.68V322.68"/>
<path transform="matrix(1,0,0,-1,0,400)" stroke-width=".8" stroke-linecap="round" stroke-linejoin="round" fill="none" stroke="#a2a2a2" stroke-opacity="0" d="M403.5 238.43V238.43"/>
<path transform="matrix(1,0,0,-1,0,400)" stroke-width=".8" stroke-linecap="round" stroke-linejoin="round" fill="none" stroke="#a2a2a2" stroke-opacity="0" d="M451.69 268.57V268.57"/>
<path transform="matrix(1,0,0,-1,0,400)" stroke-width=".8" stroke-linecap="round" stroke-linejoin="round" fill="none" stroke="#a2a2a2" stroke-opacity="0" d="M499.88 225.93V225.93"/>
<path transform="matrix(1,0,0,-1,0,400)" stroke-width=".8" stroke-linecap="round" stroke-linejoin="round" fill="none" stroke="#a2a2a2" stroke-opacity="0" d="M548.07 284.73V284.73"/>
<g clip-path="url(#clip_23)">
<path transform="matrix(1,0,0,-1,0,400)" d="M459.48 337.84H570.52V376.72H459.48" fill="#ffffff" fill-rule="evenodd"/>
</g>
<path transform="matrix(1,0,0,-1,0,400)" stroke-width="1" stroke-linecap="round" stroke-linejoin="round" fill="none" stroke="#000000" stroke-opacity="0" d="M459.48 337.84H570.52V376.72H459.48V337.84"/>
<path transform="matrix(1,0,0,-1,0,400)" d="M483.04 368.88C480.21 368.88 477.92 366.59 477.92 363.76 477.92 360.94 480.21 358.64 483.04 358.64 485.87 358.64 488.16 360.94 488.16 363.76 488.16 366.59 485.87 368.88 483.04 368.88" fill="#1b1b1b" fill-rule="evenodd"/>
<path transform="matrix(1,0,0,-1,0,400)" d="M512.16 367.8V366.66C512.16 366.66 511.49 366.98 510.9 367.13 510.9 367.13 510.31 367.29 509.76 367.29 509.76 367.29 508.81 367.29 508.29 366.92 508.29 366.92 507.77 366.55 507.77 365.87 507.77 365.87 507.77 365.29 508.11 365 508.11 365 508.46 364.71 509.42 364.53L510.13 364.38C510.13 364.38 511.44 364.14 512.05 363.51 512.05 363.51 512.68 362.88 512.68 361.83 512.68 361.83 512.68 360.57 511.83 359.92 511.83 359.92 511 359.28 509.37 359.28 509.37 359.28 508.76 359.28 508.06 359.41 508.06 359.41 507.37 359.55 506.63 359.82V361.03C506.63 361.03 507.34 360.63 508.03 360.43 508.03 360.43 508.71 360.22 509.37 360.22 509.37 360.22 510.37 360.22 510.91 360.62 510.91 360.62 511.46 361.01 511.46 361.74 511.46 361.74 511.46 362.38 511.06 362.74 511.06 362.74 510.68 363.09 509.79 363.27L509.07 363.41C509.07 363.41 507.77 363.67 507.18 364.23 507.18 364.23 506.6 364.78 506.6 365.77 506.6 365.77 506.6 366.92 507.4 367.58 507.4 367.58 508.21 368.24 509.63 368.24 509.63 368.24 510.24 368.24 510.87 368.13 510.87 368.13 511.5 368.02 512.16 367.8Z"/>
<path transform="matrix(1,0,0,-1,0,400)" d="M514.46 365.92H515.52V359.44H514.46V365.92M514.46 368.45H515.52V367.1H514.46V368.45Z"/>
<path transform="matrix(1,0,0,-1,0,400)" d="M522.8 364.68C522.8 364.68 523.19 365.4 523.75 365.74 523.75 365.74 524.31 366.08 525.06 366.08 525.06 366.08 526.07 366.08 526.62 365.37 526.62 365.37 527.17 364.66 527.17 363.35V359.44H526.1V363.32C526.1 363.32 526.1 364.25 525.77 364.7 525.77 364.7 525.44 365.15 524.76 365.15 524.76 365.15 523.94 365.15 523.45 364.6 523.45 364.6 522.97 364.06 522.97 363.11V359.44H521.9V363.32C521.9 363.32 521.9 364.26 521.57 364.7 521.57 364.7 521.24 365.15 520.56 365.15 520.56 365.15 519.74 365.15 519.26 364.6 519.26 364.6 518.78 364.05 518.78 363.11V359.44H517.71V365.92H518.78V364.92C518.78 364.92 519.14 365.51 519.65 365.8 519.65 365.8 520.16 366.08 520.86 366.08 520.86 366.08 521.57 366.08 522.06 365.72 522.06 365.72 522.56 365.36 522.8 364.68Z"/>
<path transform="matrix(1,0,0,-1,0,400)" d="M529.18 362V365.92H530.25V362.04C530.25 362.04 530.25 361.12 530.61 360.66 530.61 360.66 530.97 360.2 531.68 360.2 531.68 360.2 532.55 360.2 533.04 360.75 533.04 360.75 533.55 361.3 533.55 362.25V365.92H534.61V359.44H533.55V360.44C533.55 360.44 533.16 359.85 532.64 359.56 532.64 359.56 532.14 359.28 531.46 359.28 531.46 359.28 530.34 359.28 529.76 359.97 529.76 359.97 529.18 360.66 529.18 362M531.86 366.08V366.08Z"/>
<path transform="matrix(1,0,0,-1,0,400)" d="M536.81 368.45H537.87V359.44H536.81V368.45Z"/>
<path transform="matrix(1,0,0,-1,0,400)" d="M543.04 362.7C543.04 362.7 541.75 362.7 541.26 362.41 541.26 362.41 540.76 362.11 540.76 361.4 540.76 361.4 540.76 360.83 541.13 360.5 541.13 360.5 541.5 360.17 542.15 360.17 542.15 360.17 543.03 360.17 543.56 360.79 543.56 360.79 544.1 361.42 544.1 362.46V362.7H543.04M545.17 363.14V359.44H544.1V360.43C544.1 360.43 543.74 359.84 543.19 359.55 543.19 359.55 542.65 359.28 541.86 359.28 541.86 359.28 540.87 359.28 540.28 359.83 540.28 359.83 539.69 360.39 539.69 361.33 539.69 361.33 539.69 362.42 540.42 362.98 540.42 362.98 541.16 363.53 542.61 363.53H544.1V363.64C544.1 363.64 544.1 364.37 543.62 364.77 543.62 364.77 543.14 365.18 542.26 365.18 542.26 365.18 541.71 365.18 541.18 365.04 541.18 365.04 540.65 364.91 540.17 364.65V365.63C540.17 365.63 540.75 365.85 541.3 365.96 541.3 365.96 541.85 366.08 542.37 366.08 542.37 366.08 543.78 366.08 544.47 365.35 544.47 365.35 545.17 364.62 545.17 363.14Z"/>
<path transform="matrix(1,0,0,-1,0,400)" d="M548.41 367.76V365.92H550.61V365.1H548.41V361.58C548.41 361.58 548.41 360.79 548.63 360.56 548.63 360.56 548.85 360.33 549.51 360.33H550.61V359.44H549.51C549.51 359.44 548.28 359.44 547.81 359.9 547.81 359.9 547.34 360.36 547.34 361.58V365.1H546.56V365.92H547.34V367.76H548.41Z"/>
<path transform="matrix(1,0,0,-1,0,400)" d="M557.55 362.95V362.43H552.66C552.66 362.43 552.73 361.33 553.32 360.75 553.32 360.75 553.91 360.18 554.97 360.18 554.97 360.18 555.58 360.18 556.16 360.33 556.16 360.33 556.74 360.48 557.3 360.78V359.77C557.3 359.77 556.73 359.53 556.13 359.4 556.13 359.4 555.53 359.28 554.91 359.28 554.91 359.28 553.36 359.28 552.45 360.18 552.45 360.18 551.54 361.08 551.54 362.62 551.54 362.62 551.54 364.21 552.4 365.14 552.4 365.14 553.26 366.08 554.72 366.08 554.72 366.08 556.03 366.08 556.79 365.24 556.79 365.24 557.55 364.4 557.55 362.95M556.49 363.26C556.49 363.26 556.48 364.14 556 364.66 556 364.66 555.52 365.18 554.73 365.18 554.73 365.18 553.84 365.18 553.3 364.67 553.3 364.67 552.77 364.17 552.69 363.26H556.49Z"/>
<path transform="matrix(1,0,0,-1,0,400)" d="M563.56 364.94V368.45H564.63V359.44H563.56V360.42C563.56 360.42 563.23 359.84 562.71 359.55 562.71 359.55 562.2 359.28 561.49 359.28 561.49 359.28 560.31 359.28 559.57 360.21 559.57 360.21 558.84 361.15 558.84 362.68 558.84 362.68 558.84 364.21 559.57 365.14 559.57 365.14 560.31 366.08 561.49 366.08 561.49 366.08 562.2 366.08 562.71 365.8 562.71 365.8 563.23 365.52 563.56 364.94M559.94 362.68C559.94 362.68 559.94 361.5 560.42 360.83 560.42 360.83 560.9 360.17 561.75 360.17 561.75 360.17 562.59 360.17 563.08 360.83 563.08 360.83 563.56 361.5 563.56 362.68 563.56 362.68 563.56 363.85 563.08 364.52 563.08 364.52 562.59 365.19 561.75 365.19 561.75 365.19 560.9 365.19 560.42 364.52 560.42 364.52 559.94 363.85 559.94 362.68Z"/>
<path transform="matrix(1,0,0,-1,0,400)" d="M483.04 355.92C480.21 355.92 477.92 353.63 477.92 350.8 477.92 347.98 480.21 345.68 483.04 345.68 485.87 345.68 488.16 347.98 488.16 350.8 488.16 353.63 485.87 355.92 483.04 355.92" fill="#a2a2a2" fill-rule="evenodd"/>
<path transform="matrix(1,0,0,-1,0,400)" d="M510.56 353.97 508.97 349.67H512.15L510.56 353.97M509.9 355.12H511.22L514.51 346.48H513.3L512.51 348.7H508.62L507.83 346.48H506.6L509.9 355.12Z"/>
<path transform="matrix(1,0,0,-1,0,400)" d="M520.19 352.72V351.72C520.19 351.72 519.73 351.97 519.28 352.09 519.28 352.09 518.83 352.22 518.36 352.22 518.36 352.22 517.33 352.22 516.75 351.56 516.75 351.56 516.18 350.9 516.18 349.72 516.18 349.72 516.18 348.53 516.75 347.87 516.75 347.87 517.33 347.22 518.36 347.22 518.36 347.22 518.83 347.22 519.28 347.34 519.28 347.34 519.73 347.47 520.19 347.72V346.73C520.19 346.73 519.74 346.52 519.26 346.42 519.26 346.42 518.78 346.32 518.25 346.32 518.25 346.32 516.78 346.32 515.92 347.24 515.92 347.24 515.06 348.16 515.06 349.72 515.06 349.72 515.06 351.3 515.93 352.21 515.93 352.21 516.8 353.12 518.32 353.12 518.32 353.12 518.81 353.12 519.28 353.02 519.28 353.02 519.75 352.92 520.19 352.72Z"/>
<path transform="matrix(1,0,0,-1,0,400)" d="M523.09 354.8V352.96H525.28V352.14H523.09V348.62C523.09 348.62 523.09 347.83 523.3 347.6 523.3 347.6 523.52 347.37 524.19 347.37H525.28V346.48H524.19C524.19 346.48 522.96 346.48 522.49 346.94 522.49 346.94 522.02 347.4 522.02 348.62V352.14H521.24V352.96H522.02V354.8H523.09Z"/>
<path transform="matrix(1,0,0,-1,0,400)" d="M526.57 349.04V352.96H527.64V349.08C527.64 349.08 527.64 348.16 528 347.7 528 347.7 528.36 347.24 529.07 347.24 529.07 347.24 529.94 347.24 530.43 347.79 530.43 347.79 530.94 348.34 530.94 349.29V352.96H532V346.48H530.94V347.48C530.94 347.48 530.55 346.89 530.03 346.6 530.03 346.6 529.53 346.32 528.85 346.32 528.85 346.32 527.73 346.32 527.15 347.01 527.15 347.01 526.57 347.7 526.57 349.04M529.25 353.12V353.12Z"/>
<path transform="matrix(1,0,0,-1,0,400)" d="M537.14 349.74C537.14 349.74 535.85 349.74 535.35 349.45 535.35 349.45 534.86 349.15 534.86 348.44 534.86 348.44 534.86 347.87 535.23 347.54 535.23 347.54 535.6 347.21 536.24 347.21 536.24 347.21 537.13 347.21 537.66 347.83 537.66 347.83 538.2 348.46 538.2 349.5V349.74H537.14M539.26 350.18V346.48H538.2V347.47C538.2 347.47 537.84 346.88 537.29 346.59 537.29 346.59 536.75 346.32 535.96 346.32 535.96 346.32 534.97 346.32 534.37 346.87 534.37 346.87 533.79 347.43 533.79 348.37 533.79 348.37 533.79 349.46 534.52 350.02 534.52 350.02 535.25 350.57 536.71 350.57H538.2V350.68C538.2 350.68 538.2 351.41 537.71 351.81 537.71 351.81 537.23 352.22 536.36 352.22 536.36 352.22 535.8 352.22 535.28 352.08 535.28 352.08 534.75 351.95 534.26 351.69V352.67C534.26 352.67 534.85 352.89 535.4 353 535.4 353 535.95 353.12 536.47 353.12 536.47 353.12 537.88 353.12 538.57 352.39 538.57 352.39 539.26 351.66 539.26 350.18Z"/>
<path transform="matrix(1,0,0,-1,0,400)" d="M541.46 355.49H542.52V346.48H541.46V355.49Z"/>
</g>
</svg>
