<svg xmlns="http://www.w3.org/2000/svg" xmlns:xlink="http://www.w3.org/1999/xlink" version="1.1" width="600pt" height="400pt" viewBox="0 0 600 400">
<defs>
<clipPath id="clip_0">
<path transform="matrix(1,0,0,-1,0,400)" d="M0 0H600V400H0Z"/>
</clipPath>
<clipPath id="clip_1">
<path transform="matrix(1,0,0,-1,0,400)" d="M0 0H600V600H0Z"/>
</clipPath>
<clipPath id="clip_2">
<path transform="matrix(1,0,0,-1,0,400)" d="M0 0H600V600H0Z"/>
</clipPath>
<clipPath id="clip_3">
<path transform="matrix(1,0,0,-1,0,400)" d="M56.05 48.4H588.19V388.19H56.05Z"/>
</clipPath>
<clipPath id="clip_4">
<path transform="matrix(1,0,0,-1,0,400)" d="M56.05 48.4H588.19V388.19H56.05Z"/>
</clipPath>
<clipPath id="clip_5">
<path transform="matrix(1,0,0,-1,0,400)" d="M56.05 48.4H588.19V388.19H56.05Z"/>
</clipPath>
<clipPath id="clip_6">
<path transform="matrix(1,0,0,-1,0,400)" d="M56.05 48.4H588.19V388.19H56.05Z"/>
</clipPath>
<clipPath id="clip_7">
<path transform="matrix(1,0,0,-1,0,400)" d="M56.05 48.4H588.19V388.19H56.05Z"/>
</clipPath>
<clipPath id="clip_8">
<path transform="matrix(1,0,0,-1,0,400)" d="M56.05 48.4H588.19V388.19H56.05Z"/>
</clipPath>
<clipPath id="clip_9">
<path transform="matrix(1,0,0,-1,0,400)" d="M56.05 48.4H588.19V388.19H56.05Z"/>
</clipPath>
<clipPath id="clip_10">
<path transform="matrix(1,0,0,-1,0,400)" d="M56.05 48.4H588.19V388.19H56.05Z"/>
</clipPath>
<clipPath id="clip_11">
<path transform="matrix(1,0,0,-1,0,400)" d="M56.05 48.4H588.19V388.19H56.05Z"/>
</clipPath>
<clipPath id="clip_12">
<path transform="matrix(1,0,0,-1,0,400)" d="M56.05 48.4H588.19V388.19H56.05Z"/>
</clipPath>
<clipPath id="clip_13">
<path transform="matrix(1,0,0,-1,0,400)" d="M56.05 48.4H588.19V388.19H56.05Z"/>
</clipPath>
</defs>
<g clip-path="url(#clip_0)">
<g clip-path="url(#clip_1)">
<path transform="matrix(1,0,0,-1,0,400)" d="M0 0H600V400H0" fill="#ffffff" fill-rule="evenodd"/>
</g>
<g clip-path="url(#clip_2)">
<path transform="matrix(1,0,0,-1,0,400)" d="M56.05 48.4H588.19V388.19H56.05" fill="#ffffff" fill-rule="evenodd"/>
</g>
<path transform="matrix(1,0,0,-1,0,400)" stroke-width=".5" stroke-linecap="round" stroke-linejoin="round" fill="none" stroke="#000000" stroke-opacity=".0980392" d="M102.86 48.4V388.19"/>
<path transform="matrix(1,0,0,-1,0,400)" stroke-width=".5" stroke-linecap="round" stroke-linejoin="round" fill="none" stroke="#000000" stroke-opacity=".0980392" d="M146.71 48.4V388.19"/>
<path transform="matrix(1,0,0,-1,0,400)" stroke-width=".5" stroke-linecap="round" stroke-linejoin="round" fill="none" stroke="#000000" stroke-opacity=".0980392" d="M190.56 48.4V388.19"/>
<path transform="matrix(1,0,0,-1,0,400)" stroke-width=".5" stroke-linecap="round" stroke-linejoin="round" fill="none" stroke="#000000" stroke-opacity=".0980392" d="M234.41 48.4V388.19"/>
<path transform="matrix(1,0,0,-1,0,400)" stroke-width=".5" stroke-linecap="round" stroke-linejoin="round" fill="none" stroke="#000000" stroke-opacity=".0980392" d="M278.27 48.4V388.19"/>
<path transform="matrix(1,0,0,-1,0,400)" stroke-width=".5" stroke-linecap="round" stroke-linejoin="round" fill="none" stroke="#000000" stroke-opacity=".0980392" d="M322.12 48.4V388.19"/>
<path transform="matrix(1,0,0,-1,0,400)" stroke-width=".5" stroke-linecap="round" stroke-linejoin="round" fill="none" stroke="#000000" stroke-opacity=".0980392" d="M365.97 48.4V388.19"/>
<path transform="matrix(1,0,0,-1,0,400)" stroke-width=".5" stroke-linecap="round" stroke-linejoin="round" fill="none" stroke="#000000" stroke-opacity=".0980392" d="M409.82 48.4V388.19"/>
<path transform="matrix(1,0,0,-1,0,400)" stroke-width=".5" stroke-linecap="round" stroke-linejoin="round" fill="none" stroke="#000000" stroke-opacity=".0980392" d="M453.67 48.4V388.19"/>
<path transform="matrix(1,0,0,-1,0,400)" stroke-width=".5" stroke-linecap="round" stroke-linejoin="round" fill="none" stroke="#000000" stroke-opacity=".0980392" d="M497.53 48.4V388.19"/>
<path transform="matrix(1,0,0,-1,0,400)" stroke-width=".5" stroke-linecap="round" stroke-linejoin="round" fill="none" stroke="#000000" stroke-opacity=".0980392" d="M541.38 48.4V388.19"/>
<path transform="matrix(1,0,0,-1,0,400)" stroke-width="1" stroke-linecap="round" stroke-linejoin="round" fill="none" stroke="#000000" d="M56.05 48.4H588.19"/>
<path transform="matrix(1,0,0,-1,0,400)" stroke-width="1" stroke-linecap="round" stroke-linejoin="round" fill="none" stroke="#000000" d="M56.05 388.19H588.19"/>
<path transform="matrix(1,0,0,-1,0,400)" stroke-width="1" stroke-linecap="round" stroke-linejoin="round" fill="none" stroke="#000000" d="M102.86 48.4V53.13"/>
<path transform="matrix(1,0,0,-1,0,400)" stroke-width="1" stroke-linecap="round" stroke-linejoin="round" fill="none" stroke="#000000" d="M146.71 48.4V53.13"/>
<path transform="matrix(1,0,0,-1,0,400)" stroke-width="1" stroke-linecap="round" stroke-linejoin="round" fill="none" stroke="#000000" d="M190.56 48.4V53.13"/>
<path transform="matrix(1,0,0,-1,0,400)" stroke-width="1" stroke-linecap="round" stroke-linejoin="round" fill="none" stroke="#000000" d="M234.41 48.4V53.13"/>
<path transform="matrix(1,0,0,-1,0,400)" stroke-width="1" stroke-linecap="round" stroke-linejoin="round" fill="none" stroke="#000000" d="M278.27 48.4V53.13"/>
<path transform="matrix(1,0,0,-1,0,400)" stroke-width="1" stroke-linecap="round" stroke-linejoin="round" fill="none" stroke="#000000" d="M322.12 48.4V53.13"/>
<path transform="matrix(1,0,0,-1,0,400)" stroke-width="1" stroke-linecap="round" stroke-linejoin="round" fill="none" stroke="#000000" d="M365.97 48.4V53.13"/>
<path transform="matrix(1,0,0,-1,0,400)" stroke-width="1" stroke-linecap="round" stroke-linejoin="round" fill="none" stroke="#000000" d="M409.82 48.4V53.13"/>
<path transform="matrix(1,0,0,-1,0,400)" stroke-width="1" stroke-linecap="round" stroke-linejoin="round" fill="none" stroke="#000000" d="M453.67 48.4V53.13"/>
<path transform="matrix(1,0,0,-1,0,400)" stroke-width="1" stroke-linecap="round" stroke-linejoin="round" fill="none" stroke="#000000" d="M497.53 48.4V53.13"/>
<path transform="matrix(1,0,0,-1,0,400)" stroke-width="1" stroke-linecap="round" stroke-linejoin="round" fill="none" stroke="#000000" d="M541.38 48.4V53.13"/>
<path transform="matrix(1,0,0,-1,0,400)" d="M97.16 31.48 96.03 32.24C96.03 32.24 94.88 33.03 94.15 32.3 94.15 32.3 93.6 31.75 93.8 31.05 93.8 31.05 94.05 30.17 94.8 29.43 94.8 29.43 95.7 28.53 96.43 28.4 96.43 28.4 97.18 28.28 97.68 28.77 97.68 28.77 98.23 29.32 97.65 30.49L97.16 31.48M96.33 33.15 95.53 34.75 96.2 35.43 97.85 32.1 98.91 31.37C98.91 31.37 99.15 31.21 99.46 31.18 99.46 31.18 99.82 31.15 99.95 31.28L100.31 31.64 100.95 31.01 100.5 30.56C100.5 30.56 100.12 30.17 99.43 30.17 99.43 30.17 99.09 30.18 98.66 30.47 98.66 30.47 98.93 29.82 98.9 29.08 98.9 29.08 98.88 28.73 98.3 28.15 98.3 28.15 97.34 27.19 96.25 27.34 96.25 27.34 95.13 27.51 94 28.63 94 28.63 92.8 29.84 92.76 30.92 92.76 30.92 92.7 32.13 93.51 32.94 93.51 32.94 94.78 34.21 96.33 33.15Z"/>
<path transform="matrix(1,0,0,-1,0,400)" d="M101.7 33.14 103.05 34.49 98.39 39.15 97.21 37.39 96.46 38.14 97.62 39.9 98.45 40.72 103.86 35.31 105.22 36.66 105.91 35.97 102.39 32.45 101.7 33.14Z"/>
<path transform="matrix(1,0,0,-1,0,400)" d="M141.08 31.54 139.95 32.31C139.95 32.31 138.8 33.09 138.07 32.36 138.07 32.36 137.52 31.82 137.72 31.12 137.72 31.12 137.97 30.24 138.71 29.49 138.71 29.49 139.62 28.59 140.35 28.47 140.35 28.47 141.1 28.34 141.6 28.84 141.6 28.84 142.14 29.39 141.57 30.55L141.08 31.54M140.25 33.22 139.45 34.82 140.12 35.49 141.77 32.17 142.83 31.44C142.83 31.44 143.06 31.27 143.38 31.25 143.38 31.25 143.74 31.22 143.87 31.35L144.23 31.71 144.87 31.07 144.42 30.62C144.42 30.62 144.03 30.24 143.35 30.24 143.35 30.24 143.01 30.24 142.58 30.53 142.58 30.53 142.84 29.89 142.81 29.15 142.81 29.15 142.8 28.8 142.22 28.22 142.22 28.22 141.26 27.25 140.17 27.41 140.17 27.41 139.05 27.57 137.92 28.7 137.92 28.7 136.72 29.9 136.67 30.99 136.67 30.99 136.62 32.19 137.43 33 137.43 33 138.7 34.28 140.25 33.22Z"/>
<path transform="matrix(1,0,0,-1,0,400)" d="M146.18 33.78 149.07 36.66 149.76 35.97 145.88 32.09 145.19 32.78C145.19 32.78 145.17 33.74 145.16 35.37 145.16 35.37 145.16 37 145.13 37.45 145.13 37.45 145.08 38.29 144.93 38.76 144.93 38.76 144.78 39.23 144.48 39.53 144.48 39.53 143.99 40.01 143.34 39.98 143.34 39.98 142.69 39.94 142.14 39.39 142.14 39.39 141.76 39.01 141.46 38.44 141.46 38.44 141.16 37.87 140.94 37.11L140.11 37.94C140.11 37.94 140.41 38.64 140.74 39.18 140.74 39.18 141.07 39.71 141.43 40.07 141.43 40.07 142.38 41.02 143.42 41.11 143.42 41.11 144.46 41.2 145.25 40.41 145.25 40.41 145.63 40.03 145.83 39.55 145.83 39.55 146.02 39.08 146.11 38.24 146.11 38.24 146.13 38.02 146.15 36.91 146.15 36.91 146.16 35.79 146.18 33.78Z"/>
<path transform="matrix(1,0,0,-1,0,400)" d="M184.76 31.37 183.64 32.14C183.64 32.14 182.48 32.93 181.75 32.2 181.75 32.2 181.2 31.65 181.4 30.95 181.4 30.95 181.65 30.07 182.4 29.32 182.4 29.32 183.3 28.42 184.04 28.3 184.04 28.3 184.78 28.17 185.28 28.67 185.28 28.67 185.83 29.22 185.25 30.38L184.76 31.37M183.93 33.05 183.14 34.65 183.81 35.32 185.45 32 186.51 31.27C186.51 31.27 186.75 31.1 187.06 31.08 187.06 31.08 187.42 31.05 187.56 31.18L187.92 31.54 188.55 30.9 188.1 30.45C188.1 30.45 187.72 30.07 187.03 30.07 187.03 30.07 186.69 30.07 186.26 30.36 186.26 30.36 186.53 29.72 186.5 28.98 186.5 28.98 186.49 28.63 185.9 28.05 185.9 28.05 184.94 27.09 183.85 27.24 183.85 27.24 182.73 27.4 181.61 28.53 181.61 28.53 180.4 29.73 180.36 30.82 180.36 30.82 180.3 32.02 181.11 32.84 181.11 32.84 182.39 34.11 183.93 33.05Z"/>
<path transform="matrix(1,0,0,-1,0,400)" d="M189.06 38C189.06 38 189.78 38.47 190.51 38.4 190.51 38.4 191.25 38.33 191.84 37.74 191.84 37.74 192.74 36.84 192.62 35.72 192.62 35.72 192.49 34.6 191.34 33.46 191.34 33.46 190.96 33.07 190.47 32.74 190.47 32.74 189.99 32.41 189.41 32.13L188.61 32.93C188.61 32.93 189.16 33.07 189.67 33.38 189.67 33.38 190.18 33.68 190.62 34.13 190.62 34.13 191.4 34.91 191.5 35.62 191.5 35.62 191.6 36.33 191.02 36.92 191.02 36.92 190.48 37.46 189.79 37.38 189.79 37.38 189.11 37.31 188.44 36.64L187.72 35.92 187.04 36.6 187.79 37.35C187.79 37.35 188.4 37.96 188.48 38.52 188.48 38.52 188.56 39.09 188.1 39.55 188.1 39.55 187.63 40.02 187.04 39.93 187.04 39.93 186.46 39.86 185.84 39.23 185.84 39.23 185.5 38.9 185.18 38.43 185.18 38.43 184.87 37.97 184.56 37.35L183.82 38.09C183.82 38.09 184.16 38.69 184.5 39.16 184.5 39.16 184.85 39.64 185.21 40 185.21 40 186.16 40.95 187.13 41.06 187.13 41.06 188.11 41.19 188.84 40.46 188.84 40.46 189.34 39.95 189.4 39.31 189.4 39.31 189.46 38.67 189.06 38Z"/>
<path transform="matrix(1,0,0,-1,0,400)" d="M225.56 31.79 229.4 29.96 227.28 34.94 228.08 35.74 230.81 29.3 232.55 27.56 231.8 26.81 230.05 28.55 225.43 30.77C225.43 30.77 224.73 31.1 224.34 30.72L224.14 30.51 223.5 31.16 223.78 31.45C223.78 31.45 224.59 32.25 225.56 31.79Z"/>
<path transform="matrix(1,0,0,-1,0,400)" d="M233.25 33.14 234.6 34.49 229.94 39.15 228.77 37.39 228.02 38.14 229.18 39.9 230.01 40.72 235.42 35.31 236.77 36.66 237.47 35.97 233.95 32.45 233.25 33.14Z"/>
<path transform="matrix(1,0,0,-1,0,400)" d="M269.48 31.85 273.32 30.02 271.2 35.01 271.99 35.81 274.72 29.37 276.47 27.63 275.71 26.87 273.97 28.62 269.35 30.83C269.35 30.83 268.65 31.17 268.26 30.78L268.06 30.58 267.42 31.23 267.7 31.51C267.7 31.51 268.51 32.32 269.48 31.85Z"/>
<path transform="matrix(1,0,0,-1,0,400)" d="M277.74 33.78 280.62 36.66 281.32 35.97 277.44 32.09 276.75 32.78C276.75 32.78 276.73 33.74 276.72 35.37 276.72 35.37 276.71 37 276.68 37.45 276.68 37.45 276.63 38.29 276.48 38.76 276.48 38.76 276.33 39.23 276.03 39.53 276.03 39.53 275.55 40.01 274.9 39.98 274.9 39.98 274.25 39.94 273.7 39.39 273.7 39.39 273.31 39.01 273.01 38.44 273.01 38.44 272.72 37.87 272.5 37.11L271.67 37.94C271.67 37.94 271.97 38.64 272.3 39.18 272.3 39.18 272.63 39.71 272.99 40.07 272.99 40.07 273.94 41.02 274.98 41.11 274.98 41.11 276.02 41.2 276.81 40.41 276.81 40.41 277.19 40.03 277.38 39.55 277.38 39.55 277.58 39.08 277.67 38.24 277.67 38.24 277.68 38.02 277.7 36.91 277.7 36.91 277.72 35.79 277.74 33.78Z"/>
<path transform="matrix(1,0,0,-1,0,400)" d="M313.17 31.69 317 29.86 314.88 34.84 315.68 35.64 318.41 29.2 320.15 27.46 319.4 26.71 317.66 28.45 313.03 30.67C313.03 30.67 312.34 31 311.95 30.61L311.75 30.41 311.1 31.06 311.39 31.35C311.39 31.35 312.19 32.15 313.17 31.69Z"/>
<path transform="matrix(1,0,0,-1,0,400)" d="M320.62 38C320.62 38 321.34 38.47 322.07 38.4 322.07 38.4 322.81 38.33 323.4 37.74 323.4 37.74 324.3 36.84 324.17 35.72 324.17 35.72 324.05 34.6 322.9 33.46 322.9 33.46 322.52 33.07 322.03 32.74 322.03 32.74 321.55 32.41 320.97 32.13L320.17 32.93C320.17 32.93 320.71 33.07 321.22 33.38 321.22 33.38 321.74 33.68 322.18 34.13 322.18 34.13 322.96 34.91 323.06 35.62 323.06 35.62 323.16 36.33 322.57 36.92 322.57 36.92 322.03 37.46 321.35 37.38 321.35 37.38 320.67 37.31 319.99 36.64L319.28 35.92 318.6 36.6 319.35 37.35C319.35 37.35 319.96 37.96 320.04 38.52 320.04 38.52 320.11 39.09 319.66 39.55 319.66 39.55 319.19 40.02 318.6 39.93 318.6 39.93 318.02 39.86 317.39 39.23 317.39 39.23 317.05 38.9 316.74 38.43 316.74 38.43 316.42 37.97 316.11 37.35L315.38 38.09C315.38 38.09 315.72 38.69 316.06 39.16 316.06 39.16 316.41 39.64 316.77 40 316.77 40 317.71 40.95 318.69 41.06 318.69 41.06 319.66 41.19 320.39 40.46 320.39 40.46 320.9 39.95 320.96 39.31 320.96 39.31 321.02 38.67 320.62 38Z"/>
<path transform="matrix(1,0,0,-1,0,400)" d="M356.82 31.48 360.65 29.66 358.53 34.64 359.33 35.44 362.06 29 363.8 27.26 363.05 26.5 361.31 28.25 356.68 30.47C356.68 30.47 355.99 30.8 355.6 30.41L355.4 30.21 354.75 30.86 355.04 31.15C355.04 31.15 355.84 31.95 356.82 31.48Z"/>
<path transform="matrix(1,0,0,-1,0,400)" d="M361.94 39.66 363.12 34.31 365.2 36.4 361.94 39.66M361 40.16 362.04 41.2 366.03 37.22 366.9 38.09 367.58 37.41 366.71 36.53 368.15 35.09 367.33 34.27 365.89 35.71 363.13 32.95 362.33 33.75 361 40.16Z"/>
<path transform="matrix(1,0,0,-1,0,400)" d="M400.93 31.75 404.77 29.92 402.65 34.9 403.44 35.7 406.17 29.26 407.92 27.52 407.16 26.77 405.42 28.51 400.8 30.73C400.8 30.73 400.1 31.06 399.71 30.67L399.51 30.47 398.87 31.12 399.15 31.41C399.15 31.41 399.96 32.21 400.93 31.75Z"/>
<path transform="matrix(1,0,0,-1,0,400)" d="M403.07 38.38 406.32 41.62 407.01 40.93 404.53 38.44 406.02 36.94C406.02 36.94 406.14 37.18 406.29 37.39 406.29 37.39 406.44 37.61 406.62 37.79 406.62 37.79 407.64 38.81 408.8 38.85 408.8 38.85 409.96 38.88 410.92 37.93 410.92 37.93 411.9 36.94 411.84 35.78 411.84 35.78 411.77 34.62 410.65 33.5 410.65 33.5 410.27 33.12 409.8 32.78 409.8 32.78 409.34 32.45 408.78 32.16L407.95 32.99C407.95 32.99 408.52 33.15 409.01 33.45 409.01 33.45 409.5 33.74 409.94 34.18 409.94 34.18 410.65 34.89 410.69 35.67 410.69 35.67 410.73 36.46 410.09 37.1 410.09 37.1 409.45 37.74 408.67 37.7 408.67 37.7 407.88 37.66 407.17 36.95 407.17 36.95 406.84 36.62 406.58 36.21 406.58 36.21 406.33 35.81 406.14 35.31L403.07 38.38Z"/>
<path transform="matrix(1,0,0,-1,0,400)" d="M444.58 31.54 448.41 29.71 446.29 34.7 447.09 35.49 449.82 29.06 451.57 27.31 450.81 26.56 449.07 28.31 444.45 30.52C444.45 30.52 443.75 30.86 443.36 30.47L443.16 30.27 442.51 30.92 442.8 31.2C442.8 31.2 443.61 32.01 444.58 31.54Z"/>
<path transform="matrix(1,0,0,-1,0,400)" d="M451.31 37.31C451.31 37.31 450.75 36.76 450.8 36.05 450.8 36.05 450.86 35.34 451.52 34.68 451.52 34.68 452.18 34.02 452.89 33.96 452.89 33.96 453.6 33.91 454.16 34.46 454.16 34.46 454.71 35.02 454.65 35.72 454.65 35.72 454.6 36.44 453.94 37.09 453.94 37.09 453.28 37.76 452.57 37.81 452.57 37.81 451.86 37.87 451.31 37.31M450.36 41.54 451.11 40.79C451.11 40.79 450.65 40.63 450.26 40.38 450.26 40.38 449.86 40.15 449.55 39.84 449.55 39.84 448.73 39.02 448.85 38.03 448.85 38.03 448.97 37.05 450.03 35.87 450.03 35.87 449.92 36.47 450.09 37.02 450.09 37.02 450.26 37.58 450.7 38.02 450.7 38.02 451.62 38.94 452.72 38.91 452.72 38.91 453.81 38.89 454.77 37.93 454.77 37.93 455.71 36.98 455.72 35.86 455.72 35.86 455.74 34.73 454.81 33.81 454.81 33.81 453.75 32.75 452.38 33 452.38 33 451 33.25 449.46 34.8 449.46 34.8 448.01 36.24 447.84 37.79 447.84 37.79 447.67 39.34 448.82 40.5 448.82 40.5 449.13 40.81 449.51 41.06 449.51 41.06 449.89 41.32 450.36 41.54Z"/>
<path transform="matrix(1,0,0,-1,0,400)" d="M488.62 31.73 492.45 29.9 490.34 34.89 491.13 35.68 493.86 29.25 495.61 27.5 494.85 26.75 493.11 28.49 488.49 30.71C488.49 30.71 487.79 31.05 487.4 30.66L487.2 30.46 486.55 31.1 486.84 31.39C486.84 31.39 487.65 32.2 488.62 31.73Z"/>
<path transform="matrix(1,0,0,-1,0,400)" d="M490.54 38.15 494.47 42.07 494.82 41.72 498.36 33.75 497.5 32.88 494.17 40.38 491.24 37.45 490.54 38.15Z"/>
<path transform="matrix(1,0,0,-1,0,400)" d="M532.33 31.59 536.16 29.76 534.04 34.74 534.84 35.54 537.57 29.1 539.31 27.36 538.56 26.61 536.82 28.35 532.19 30.57C532.19 30.57 531.5 30.9 531.11 30.51L530.91 30.31 530.26 30.96 530.55 31.25C530.55 31.25 531.36 32.05 532.33 31.59Z"/>
<path transform="matrix(1,0,0,-1,0,400)" d="M539.44 36.77C539.44 36.77 538.85 36.18 538.82 35.53 538.82 35.53 538.8 34.88 539.36 34.32 539.36 34.32 539.91 33.77 540.56 33.79 540.56 33.79 541.21 33.82 541.8 34.41 541.8 34.41 542.39 35 542.42 35.65 542.42 35.65 542.44 36.31 541.89 36.86 541.89 36.86 541.34 37.41 540.68 37.39 540.68 37.39 540.03 37.36 539.44 36.77M538.26 36.3C538.26 36.3 537.6 35.9 536.93 35.96 536.93 35.96 536.27 36.03 535.75 36.55 535.75 36.55 535.02 37.29 535.11 38.23 535.11 38.23 535.21 39.18 536.12 40.09 536.12 40.09 537.03 41 537.98 41.1 537.98 41.1 538.92 41.19 539.65 40.46 539.65 40.46 540.18 39.93 540.24 39.27 540.24 39.27 540.31 38.61 539.92 37.95 539.92 37.95 540.65 38.41 541.39 38.34 541.39 38.34 542.13 38.27 542.72 37.68 542.72 37.68 543.6 36.8 543.53 35.78 543.53 35.78 543.47 34.76 542.46 33.75 542.46 33.75 541.45 32.74 540.43 32.67 540.43 32.67 539.41 32.61 538.53 33.49 538.53 33.49 537.94 34.08 537.87 34.82 537.87 34.82 537.8 35.56 538.26 36.3M536.65 37.3C536.65 37.3 537.13 36.82 537.69 36.85 537.69 36.85 538.25 36.89 538.79 37.42 538.79 37.42 539.32 37.95 539.35 38.52 539.35 38.52 539.39 39.09 538.91 39.56 538.91 39.56 538.44 40.04 537.87 40 537.87 40 537.31 39.97 536.77 39.44 536.77 39.44 536.24 38.9 536.2 38.33 536.2 38.33 536.18 37.77 536.65 37.3Z"/>
<path transform="matrix(1,0,0,-1,0,400)" stroke-width=".5" stroke-linecap="round" stroke-linejoin="round" fill="none" stroke="#000000" stroke-opacity=".0980392" d="M56.05 48.4H588.19"/>
<path transform="matrix(1,0,0,-1,0,400)" stroke-width=".5" stroke-linecap="round" stroke-linejoin="round" fill="none" stroke="#000000" stroke-opacity=".0980392" d="M56.05 116.36H588.19"/>
<path transform="matrix(1,0,0,-1,0,400)" stroke-width=".5" stroke-linecap="round" stroke-linejoin="round" fill="none" stroke="#000000" stroke-opacity=".0980392" d="M56.05 184.32H588.19"/>
<path transform="matrix(1,0,0,-1,0,400)" stroke-width=".5" stroke-linecap="round" stroke-linejoin="round" fill="none" stroke="#000000" stroke-opacity=".0980392" d="M56.05 252.27H588.19"/>
<path transform="matrix(1,0,0,-1,0,400)" stroke-width=".5" stroke-linecap="round" stroke-linejoin="round" fill="none" stroke="#000000" stroke-opacity=".0980392" d="M56.05 320.23H588.19"/>
<path transform="matrix(1,0,0,-1,0,400)" stroke-width=".5" stroke-linecap="round" stroke-linejoin="round" fill="none" stroke="#000000" stroke-opacity=".0980392" d="M56.05 388.19H588.19"/>
<path transform="matrix(1,0,0,-1,0,400)" stroke-width="1" stroke-linecap="round" stroke-linejoin="round" fill="none" stroke="#000000" d="M56.05 48.4V388.19"/>
<path transform="matrix(1,0,0,-1,0,400)" stroke-width="1" stroke-linecap="round" stroke-linejoin="round" fill="none" stroke="#000000" d="M588.19 48.4V388.19"/>
<path transform="matrix(1,0,0,-1,0,400)" stroke-width="1" stroke-linecap="round" stroke-linejoin="round" fill="none" stroke="#000000" d="M56.05 48.4H60.77"/>
<path transform="matrix(1,0,0,-1,0,400)" stroke-width="1" stroke-linecap="round" stroke-linejoin="round" fill="none" stroke="#000000" d="M56.05 116.36H60.77"/>
<path transform="matrix(1,0,0,-1,0,400)" stroke-width="1" stroke-linecap="round" stroke-linejoin="round" fill="none" stroke="#000000" d="M56.05 184.32H60.77"/>
<path transform="matrix(1,0,0,-1,0,400)" stroke-width="1" stroke-linecap="round" stroke-linejoin="round" fill="none" stroke="#000000" d="M56.05 252.27H60.77"/>
<path transform="matrix(1,0,0,-1,0,400)" stroke-width="1" stroke-linecap="round" stroke-linejoin="round" fill="none" stroke="#000000" d="M56.05 320.23H60.77"/>
<path transform="matrix(1,0,0,-1,0,400)" stroke-width="1" stroke-linecap="round" stroke-linejoin="round" fill="none" stroke="#000000" d="M56.05 388.19H60.77"/>
<path transform="matrix(1,0,0,-1,0,400)" d="M32.75 51.95C32.75 51.95 31.85 51.95 31.39 51.06 31.39 51.06 30.94 50.18 30.94 48.39 30.94 48.39 30.94 46.62 31.39 45.73 31.39 45.73 31.85 44.84 32.75 44.84 32.75 44.84 33.66 44.84 34.11 45.73 34.11 45.73 34.57 46.62 34.57 48.39 34.57 48.39 34.57 50.18 34.11 51.06 34.11 51.06 33.66 51.95 32.75 51.95M32.75 52.88C32.75 52.88 34.21 52.88 34.97 51.73 34.97 51.73 35.74 50.58 35.74 48.39 35.74 48.39 35.74 46.21 34.97 45.06 34.97 45.06 34.21 43.91 32.75 43.91 32.75 43.91 31.3 43.91 30.53 45.06 30.53 45.06 29.77 46.21 29.77 48.39 29.77 48.39 29.77 50.58 30.53 51.73 30.53 51.73 31.3 52.88 32.75 52.88Z"/>
<path transform="matrix(1,0,0,-1,0,400)" d="M37.79 45.55H39.01V44.08H37.79V45.55Z"/>
<path transform="matrix(1,0,0,-1,0,400)" d="M44.06 51.95C44.06 51.95 43.16 51.95 42.7 51.06 42.7 51.06 42.25 50.18 42.25 48.39 42.25 48.39 42.25 46.62 42.7 45.73 42.7 45.73 43.16 44.84 44.06 44.84 44.06 44.84 44.97 44.84 45.42 45.73 45.42 45.73 45.88 46.62 45.88 48.39 45.88 48.39 45.88 50.18 45.42 51.06 45.42 51.06 44.97 51.95 44.06 51.95M44.06 52.88C44.06 52.88 45.51 52.88 46.28 51.73 46.28 51.73 47.05 50.58 47.05 48.39 47.05 48.39 47.05 46.21 46.28 45.06 46.28 45.06 45.51 43.91 44.06 43.91 44.06 43.91 42.61 43.91 41.84 45.06 41.84 45.06 41.07 46.21 41.07 48.39 41.07 48.39 41.07 50.58 41.84 51.73 41.84 51.73 42.61 52.88 44.06 52.88Z"/>
<path transform="matrix(1,0,0,-1,0,400)" d="M33.15 119.91C33.15 119.91 32.25 119.91 31.79 119.02 31.79 119.02 31.34 118.13 31.34 116.35 31.34 116.35 31.34 114.57 31.79 113.68 31.79 113.68 32.25 112.8 33.15 112.8 33.15 112.8 34.06 112.8 34.51 113.68 34.51 113.68 34.97 114.57 34.97 116.35 34.97 116.35 34.97 118.13 34.51 119.02 34.51 119.02 34.06 119.91 33.15 119.91M33.15 120.84C33.15 120.84 34.6 120.84 35.37 119.68 35.37 119.68 36.14 118.54 36.14 116.35 36.14 116.35 36.14 114.17 35.37 113.02 35.37 113.02 34.6 111.87 33.15 111.87 33.15 111.87 31.7 111.87 30.93 113.02 30.93 113.02 30.17 114.17 30.17 116.35 30.17 116.35 30.17 118.54 30.93 119.68 30.93 119.68 31.7 120.84 33.15 120.84Z"/>
<path transform="matrix(1,0,0,-1,0,400)" d="M38.19 113.51H39.41V112.04H38.19V113.51Z"/>
<path transform="matrix(1,0,0,-1,0,400)" d="M42.97 113.02H47.05V112.04H41.56V113.02C41.56 113.02 42.23 113.71 43.37 114.87 43.37 114.87 44.52 116.03 44.82 116.37 44.82 116.37 45.38 117 45.6 117.43 45.6 117.43 45.83 117.87 45.83 118.3 45.83 118.3 45.83 118.98 45.34 119.42 45.34 119.42 44.86 119.85 44.08 119.85 44.08 119.85 43.53 119.85 42.92 119.66 42.92 119.66 42.31 119.47 41.62 119.08V120.26C41.62 120.26 42.32 120.55 42.94 120.69 42.94 120.69 43.55 120.84 44.06 120.84 44.06 120.84 45.4 120.84 46.2 120.16 46.2 120.16 47 119.49 47 118.37 47 118.37 47 117.84 46.8 117.36 46.8 117.36 46.6 116.88 46.07 116.24 46.07 116.24 45.93 116.07 45.15 115.26 45.15 115.26 44.38 114.46 42.97 113.02Z"/>
<path transform="matrix(1,0,0,-1,0,400)" d="M32.63 187.87C32.63 187.87 31.73 187.87 31.27 186.98 31.27 186.98 30.82 186.09 30.82 184.31 30.82 184.31 30.82 182.53 31.27 181.64 31.27 181.64 31.73 180.76 32.63 180.76 32.63 180.76 33.54 180.76 33.99 181.64 33.99 181.64 34.45 182.53 34.45 184.31 34.45 184.31 34.45 186.09 33.99 186.98 33.99 186.98 33.54 187.87 32.63 187.87M32.63 188.79C32.63 188.79 34.08 188.79 34.85 187.64 34.85 187.64 35.62 186.5 35.62 184.31 35.62 184.31 35.62 182.13 34.85 180.97 34.85 180.97 34.08 179.83 32.63 179.83 32.63 179.83 31.18 179.83 30.41 180.97 30.41 180.97 29.65 182.13 29.65 184.31 29.65 184.31 29.65 186.5 30.41 187.64 30.41 187.64 31.18 188.79 32.63 188.79Z"/>
<path transform="matrix(1,0,0,-1,0,400)" d="M37.67 181.47H38.89V180H37.67V181.47Z"/>
<path transform="matrix(1,0,0,-1,0,400)" d="M44.65 187.62 41.7 183.01H44.65V187.62M44.34 188.64H45.81V183.01H47.05V182.03H45.81V180H44.65V182.03H40.75V183.16L44.34 188.64Z"/>
<path transform="matrix(1,0,0,-1,0,400)" d="M32.71 255.82C32.71 255.82 31.81 255.82 31.35 254.93 31.35 254.93 30.9 254.05 30.9 252.27 30.9 252.27 30.9 250.49 31.35 249.6 31.35 249.6 31.81 248.71 32.71 248.71 32.71 248.71 33.62 248.71 34.07 249.6 34.07 249.6 34.53 250.49 34.53 252.27 34.53 252.27 34.53 254.05 34.07 254.93 34.07 254.93 33.62 255.82 32.71 255.82M32.71 256.75C32.71 256.75 34.16 256.75 34.93 255.6 34.93 255.6 35.7 254.45 35.7 252.27 35.7 252.27 35.7 250.08 34.93 248.93 34.93 248.93 34.16 247.79 32.71 247.79 32.71 247.79 31.26 247.79 30.49 248.93 30.49 248.93 29.73 250.08 29.73 252.27 29.73 252.27 29.73 254.45 30.49 255.6 30.49 255.6 31.26 256.75 32.71 256.75Z"/>
<path transform="matrix(1,0,0,-1,0,400)" d="M37.75 249.42H38.97V247.95H37.75V249.42Z"/>
<path transform="matrix(1,0,0,-1,0,400)" d="M44.16 252.74C44.16 252.74 43.38 252.74 42.91 252.2 42.91 252.2 42.46 251.66 42.46 250.73 42.46 250.73 42.46 249.79 42.91 249.25 42.91 249.25 43.38 248.71 44.16 248.71 44.16 248.71 44.95 248.71 45.41 249.25 45.41 249.25 45.87 249.79 45.87 250.73 45.87 250.73 45.87 251.66 45.41 252.2 45.41 252.2 44.95 252.74 44.16 252.74M46.49 256.4V255.34C46.49 255.34 46.05 255.55 45.59 255.66 45.59 255.66 45.15 255.77 44.71 255.77 44.71 255.77 43.55 255.77 42.94 254.99 42.94 254.99 42.33 254.2 42.24 252.62 42.24 252.62 42.58 253.13 43.1 253.39 43.1 253.39 43.61 253.67 44.23 253.67 44.23 253.67 45.54 253.67 46.29 252.87 46.29 252.87 47.05 252.09 47.05 250.73 47.05 250.73 47.05 249.4 46.26 248.59 46.26 248.59 45.47 247.79 44.16 247.79 44.16 247.79 42.67 247.79 41.87 248.93 41.87 248.93 41.08 250.08 41.08 252.27 41.08 252.27 41.08 254.31 42.05 255.53 42.05 255.53 43.02 256.75 44.66 256.75 44.66 256.75 45.1 256.75 45.55 256.66 45.55 256.66 46 256.58 46.49 256.4Z"/>
<path transform="matrix(1,0,0,-1,0,400)" d="M32.78 323.78C32.78 323.78 31.87 323.78 31.42 322.89 31.42 322.89 30.96 322.01 30.96 320.22 30.96 320.22 30.96 318.45 31.42 317.56 31.42 317.56 31.87 316.67 32.78 316.67 32.78 316.67 33.68 316.67 34.14 317.56 34.14 317.56 34.59 318.45 34.59 320.22 34.59 320.22 34.59 322.01 34.14 322.89 34.14 322.89 33.68 323.78 32.78 323.78M32.78 324.71C32.78 324.71 34.23 324.71 34.99 323.56 34.99 323.56 35.76 322.41 35.76 320.22 35.76 320.22 35.76 318.04 34.99 316.89 34.99 316.89 34.23 315.74 32.78 315.74 32.78 315.74 31.32 315.74 30.55 316.89 30.55 316.89 29.79 318.04 29.79 320.22 29.79 320.22 29.79 322.41 30.55 323.56 30.55 323.56 31.32 324.71 32.78 324.71Z"/>
<path transform="matrix(1,0,0,-1,0,400)" d="M37.82 317.38H39.04V315.91H37.82V317.38Z"/>
<path transform="matrix(1,0,0,-1,0,400)" d="M44.08 320.01C44.08 320.01 43.25 320.01 42.77 319.57 42.77 319.57 42.3 319.12 42.3 318.34 42.3 318.34 42.3 317.56 42.77 317.12 42.77 317.12 43.25 316.67 44.08 316.67 44.08 316.67 44.92 316.67 45.4 317.12 45.4 317.12 45.88 317.57 45.88 318.34 45.88 318.34 45.88 319.12 45.4 319.57 45.4 319.57 44.92 320.01 44.08 320.01M42.91 320.51C42.91 320.51 42.16 320.7 41.74 321.21 41.74 321.21 41.32 321.73 41.32 322.47 41.32 322.47 41.32 323.5 42.06 324.11 42.06 324.11 42.8 324.71 44.08 324.71 44.08 324.71 45.37 324.71 46.11 324.11 46.11 324.11 46.84 323.5 46.84 322.47 46.84 322.47 46.84 321.73 46.42 321.21 46.42 321.21 46 320.7 45.26 320.51 45.26 320.51 46.1 320.32 46.57 319.74 46.57 319.74 47.05 319.17 47.05 318.34 47.05 318.34 47.05 317.09 46.28 316.42 46.28 316.42 45.51 315.74 44.08 315.74 44.08 315.74 42.65 315.74 41.88 316.42 41.88 316.42 41.12 317.09 41.12 318.34 41.12 318.34 41.12 319.17 41.6 319.74 41.6 319.74 42.07 320.32 42.91 320.51M42.49 322.36C42.49 322.36 42.49 321.69 42.9 321.31 42.9 321.31 43.33 320.93 44.08 320.93 44.08 320.93 44.84 320.93 45.26 321.31 45.26 321.31 45.69 321.69 45.69 322.36 45.69 322.36 45.69 323.03 45.26 323.41 45.26 323.41 44.84 323.78 44.08 323.78 44.08 323.78 43.33 323.78 42.9 323.41 42.9 323.41 42.49 323.03 42.49 322.36Z"/>
<path transform="matrix(1,0,0,-1,0,400)" d="M30.46 384.85H32.36V391.44L30.29 391.03V392.09L32.35 392.51H33.52V384.85H35.43V383.87H30.46V384.85Z"/>
<path transform="matrix(1,0,0,-1,0,400)" d="M37.79 385.34H39.01V383.87H37.79V385.34Z"/>
<path transform="matrix(1,0,0,-1,0,400)" d="M44.06 391.74C44.06 391.74 43.16 391.74 42.7 390.85 42.7 390.85 42.25 389.96 42.25 388.18 42.25 388.18 42.25 386.4 42.7 385.51 42.7 385.51 43.16 384.63 44.06 384.63 44.06 384.63 44.97 384.63 45.42 385.51 45.42 385.51 45.88 386.4 45.88 388.18 45.88 388.18 45.88 389.96 45.42 390.85 45.42 390.85 44.97 391.74 44.06 391.74M44.06 392.67C44.06 392.67 45.51 392.67 46.28 391.51 46.28 391.51 47.05 390.37 47.05 388.18 47.05 388.18 47.05 386 46.28 384.85 46.28 384.85 45.51 383.7 44.06 383.7 44.06 383.7 42.61 383.7 41.84 384.85 41.84 384.85 41.07 386 41.07 388.18 41.07 388.18 41.07 390.37 41.84 391.51 41.84 391.51 42.61 392.67 44.06 392.67Z"/>
<path transform="matrix(1,0,0,-1,0,400)" d="M3.8 93.32V104.28H5.27V99.68H16.76V97.92H5.27V93.32H3.8Z"/>
<path transform="matrix(1,0,0,-1,0,400)" d="M8.15 106.65C8.15 106.65 8.15 105.37 9.16 104.62 9.16 104.62 10.16 103.87 11.9 103.87 11.9 103.87 13.65 103.87 14.66 104.61 14.66 104.61 15.65 105.36 15.65 106.65 15.65 106.65 15.65 107.93 14.65 108.67 14.65 108.67 13.64 109.42 11.9 109.42 11.9 109.42 10.18 109.42 9.17 108.67 9.17 108.67 8.15 107.93 8.15 106.65M6.8 106.65C6.8 106.65 6.8 108.73 8.15 109.92 8.15 109.92 9.51 111.11 11.9 111.11 11.9 111.11 14.29 111.11 15.65 109.92 15.65 109.92 17.01 108.73 17.01 106.65 17.01 106.65 17.01 104.56 15.65 103.37 15.65 103.37 14.29 102.19 11.9 102.19 11.9 102.19 9.51 102.19 8.15 103.37 8.15 103.37 6.8 104.56 6.8 106.65Z"/>
<path transform="matrix(1,0,0,-1,0,400)" d="M4.27 115.34H7.03V118.63H8.28V115.34H13.55C13.55 115.34 14.74 115.34 15.08 115.66 15.08 115.66 15.42 115.99 15.42 116.99V118.63H16.76V116.99C16.76 116.99 16.76 115.14 16.07 114.44 16.07 114.44 15.38 113.73 13.55 113.73H8.28V112.56H7.03V113.73H4.27V115.34Z"/>
<path transform="matrix(1,0,0,-1,0,400)" d="M11.87 125.15C11.87 125.15 11.87 123.21 12.31 122.47 12.31 122.47 12.76 121.72 13.82 121.72 13.82 121.72 14.67 121.72 15.18 122.28 15.18 122.28 15.67 122.84 15.67 123.8 15.67 123.8 15.67 125.13 14.73 125.93 14.73 125.93 13.79 126.74 12.23 126.74H11.87V125.15M11.21 128.34H16.76V126.74H15.28C15.28 126.74 16.17 126.19 16.59 125.38 16.59 125.38 17.01 124.56 17.01 123.38 17.01 123.38 17.01 121.89 16.18 121 16.18 121 15.33 120.12 13.93 120.12 13.93 120.12 12.29 120.12 11.45 121.22 11.45 121.22 10.62 122.32 10.62 124.5V126.74H10.46C10.46 126.74 9.36 126.74 8.76 126.01 8.76 126.01 8.15 125.29 8.15 123.98 8.15 123.98 8.15 123.14 8.35 122.35 8.35 122.35 8.55 121.56 8.95 120.84H7.48C7.48 120.84 7.14 121.71 6.97 122.54 6.97 122.54 6.8 123.36 6.8 124.14 6.8 124.14 6.8 126.25 7.89 127.29 7.89 127.29 8.99 128.34 11.21 128.34Z"/>
<path transform="matrix(1,0,0,-1,0,400)" d="M3.25 131.63V133.22H16.76V131.63H3.25Z"/>
<path transform="matrix(1,0,0,-1,0,400)" d="M4.99 147.55C4.99 147.55 4.99 145.64 6.41 144.51 6.41 144.51 7.83 143.39 10.29 143.39 10.29 143.39 12.74 143.39 14.16 144.51 14.16 144.51 15.59 145.64 15.59 147.55 15.59 147.55 15.59 149.45 14.16 150.57 14.16 150.57 12.74 151.69 10.29 151.69 10.29 151.69 7.83 151.69 6.41 150.57 6.41 150.57 4.99 149.45 4.99 147.55M3.56 147.55C3.56 147.55 3.56 150.27 5.39 151.9 5.39 151.9 7.22 153.53 10.29 153.53 10.29 153.53 13.35 153.53 15.19 151.9 15.19 151.9 17.01 150.27 17.01 147.55 17.01 147.55 17.01 144.81 15.19 143.17 15.19 143.17 13.36 141.54 10.29 141.54 10.29 141.54 7.22 141.54 5.39 143.17 5.39 143.17 3.56 144.81 3.56 147.55Z"/>
<path transform="matrix(1,0,0,-1,0,400)" d="M8.53 161.84C8.53 161.84 8.37 161.57 8.3 161.25 8.3 161.25 8.22 160.94 8.22 160.56 8.22 160.56 8.22 159.2 9.11 158.47 9.11 158.47 9.99 157.75 11.64 157.75H16.76V156.15H7.03V157.75H8.55C8.55 157.75 7.66 158.26 7.23 159.06 7.23 159.06 6.8 159.87 6.8 161.03 6.8 161.03 6.8 161.19 6.83 161.39 6.83 161.39 6.84 161.59 6.89 161.83L8.53 161.84Z"/>
<path transform="matrix(1,0,0,-1,0,400)" d="M8.51 169.6H3.25V171.2H16.76V169.6H15.3C15.3 169.6 16.17 169.1 16.59 168.33 16.59 168.33 17.01 167.56 17.01 166.49 17.01 166.49 17.01 164.72 15.6 163.61 15.6 163.61 14.2 162.51 11.9 162.51 11.9 162.51 9.61 162.51 8.21 163.61 8.21 163.61 6.8 164.72 6.8 166.49 6.8 166.49 6.8 167.56 7.23 168.33 7.23 168.33 7.64 169.1 8.51 169.6M11.9 164.16C11.9 164.16 13.67 164.16 14.67 164.88 14.67 164.88 15.67 165.61 15.67 166.88 15.67 166.88 15.67 168.14 14.67 168.87 14.67 168.87 13.67 169.6 11.9 169.6 11.9 169.6 10.14 169.6 9.14 168.87 9.14 168.87 8.14 168.14 8.14 166.88 8.14 166.88 8.14 165.61 9.14 164.88 9.14 164.88 10.14 164.16 11.9 164.16Z"/>
<path transform="matrix(1,0,0,-1,0,400)" d="M11.5 182.81H12.28V175.46C12.28 175.46 13.93 175.57 14.8 176.45 14.8 176.45 15.65 177.35 15.65 178.93 15.65 178.93 15.65 179.85 15.43 180.71 15.43 180.71 15.2 181.58 14.75 182.43H16.26C16.26 182.43 16.63 181.57 16.82 180.67 16.82 180.67 17.01 179.77 17.01 178.84 17.01 178.84 17.01 176.51 15.65 175.15 15.65 175.15 14.3 173.79 11.99 173.79 11.99 173.79 9.6 173.79 8.21 175.08 8.21 175.08 6.8 176.37 6.8 178.56 6.8 178.56 6.8 180.52 8.07 181.66 8.07 181.66 9.33 182.81 11.5 182.81M11.03 181.21C11.03 181.21 9.72 181.19 8.94 180.47 8.94 180.47 8.15 179.76 8.15 178.58 8.15 178.58 8.15 177.24 8.91 176.43 8.91 176.43 9.67 175.64 11.04 175.51L11.03 181.21Z"/>
<path transform="matrix(1,0,0,-1,0,400)" d="M8.53 191.06C8.53 191.06 8.37 190.79 8.3 190.47 8.3 190.47 8.22 190.16 8.22 189.78 8.22 189.78 8.22 188.42 9.11 187.69 9.11 187.69 9.99 186.97 11.64 186.97H16.76V185.37H7.03V186.97H8.55C8.55 186.97 7.66 187.48 7.23 188.28 7.23 188.28 6.8 189.09 6.8 190.24 6.8 190.24 6.8 190.41 6.83 190.61 6.83 190.61 6.84 190.81 6.89 191.05L8.53 191.06Z"/>
<path transform="matrix(1,0,0,-1,0,400)" d="M4.22 206.23H5.93C5.93 206.23 5.46 205.23 5.22 204.34 5.22 204.34 4.99 203.46 4.99 202.63 4.99 202.63 4.99 201.2 5.54 200.42 5.54 200.42 6.1 199.65 7.12 199.65 7.12 199.65 7.98 199.65 8.42 200.16 8.42 200.16 8.86 200.68 9.13 202.12L9.34 203.18C9.34 203.18 9.72 205.14 10.66 206.07 10.66 206.07 11.6 207.01 13.18 207.01 13.18 207.01 15.06 207.01 16.04 205.74 16.04 205.74 17.01 204.48 17.01 202.04 17.01 202.04 17.01 201.12 16.8 200.08 16.8 200.08 16.59 199.05 16.18 197.94H14.38C14.38 197.94 14.98 199 15.28 200.03 15.28 200.03 15.59 201.05 15.59 202.04 15.59 202.04 15.59 203.54 14.99 204.36 14.99 204.36 14.4 205.18 13.31 205.18 13.31 205.18 12.36 205.18 11.82 204.58 11.82 204.58 11.28 204 11.01 202.67L10.8 201.6C10.8 201.6 10.41 199.64 9.58 198.76 9.58 198.76 8.74 197.88 7.26 197.88 7.26 197.88 5.54 197.88 4.55 199.09 4.55 199.09 3.56 200.31 3.56 202.43 3.56 202.43 3.56 203.34 3.73 204.29 3.73 204.29 3.89 205.24 4.22 206.23Z"/>
<path transform="matrix(1,0,0,-1,0,400)" d="M11.5 217.99H12.28V210.64C12.28 210.64 13.93 210.75 14.8 211.63 14.8 211.63 15.65 212.53 15.65 214.12 15.65 214.12 15.65 215.04 15.43 215.9 15.43 215.9 15.2 216.76 14.75 217.61H16.26C16.26 217.61 16.63 216.75 16.82 215.85 16.82 215.85 17.01 214.95 17.01 214.02 17.01 214.02 17.01 211.69 15.65 210.33 15.65 210.33 14.3 208.98 11.99 208.98 11.99 208.98 9.6 208.98 8.21 210.26 8.21 210.26 6.8 211.56 6.8 213.74 6.8 213.74 6.8 215.7 8.07 216.84 8.07 216.84 9.33 217.99 11.5 217.99M11.03 216.39C11.03 216.39 9.72 216.37 8.94 215.65 8.94 215.65 8.15 214.94 8.15 213.76 8.15 213.76 8.15 212.42 8.91 211.62 8.91 211.62 9.67 210.82 11.04 210.7L11.03 216.39Z"/>
<path transform="matrix(1,0,0,-1,0,400)" d="M10.89 228.69H16.76V227.09H10.94C10.94 227.09 9.56 227.09 8.88 226.56 8.88 226.56 8.19 226.02 8.19 224.94 8.19 224.94 8.19 223.65 9.01 222.9 9.01 222.9 9.84 222.15 11.26 222.15H16.76V220.55H7.03V222.15H8.55C8.55 222.15 7.67 222.73 7.23 223.5 7.23 223.5 6.8 224.28 6.8 225.3 6.8 225.3 6.8 226.97 7.84 227.83 7.84 227.83 8.88 228.69 10.89 228.69Z"/>
<path transform="matrix(1,0,0,-1,0,400)" d="M7.32 238.07H8.83C8.83 238.07 8.48 237.4 8.31 236.67 8.31 236.67 8.14 235.94 8.14 235.16 8.14 235.16 8.14 233.97 8.5 233.37 8.5 233.37 8.87 232.78 9.6 232.78 9.6 232.78 10.15 232.78 10.47 233.2 10.47 233.2 10.78 233.63 11.07 234.91L11.19 235.46C11.19 235.46 11.56 237.16 12.23 237.87 12.23 237.87 12.89 238.59 14.07 238.59 14.07 238.59 15.43 238.59 16.22 237.52 16.22 237.52 17.01 236.45 17.01 234.58 17.01 234.58 17.01 233.79 16.85 232.94 16.85 232.94 16.7 232.1 16.4 231.16H14.75C14.75 231.16 15.21 232.05 15.45 232.91 15.45 232.91 15.67 233.77 15.67 234.61 15.67 234.61 15.67 235.74 15.29 236.35 15.29 236.35 14.9 236.95 14.2 236.95 14.2 236.95 13.55 236.95 13.2 236.51 13.2 236.51 12.85 236.08 12.53 234.59L12.4 234.04C12.4 234.04 12.09 232.55 11.44 231.89 11.44 231.89 10.79 231.23 9.67 231.23 9.67 231.23 8.29 231.23 7.55 232.21 7.55 232.21 6.8 233.18 6.8 234.97 6.8 234.97 6.8 235.85 6.93 236.63 6.93 236.63 7.06 237.41 7.32 238.07Z"/>
<path transform="matrix(1,0,0,-1,0,400)" d="M7.03 241.14V242.74H16.76V241.14H7.03M3.25 241.14V242.74H5.27V241.14H3.25Z"/>
<path transform="matrix(1,0,0,-1,0,400)" d="M4.27 247.66H7.03V250.95H8.28V247.66H13.55C13.55 247.66 14.74 247.66 15.08 247.98 15.08 247.98 15.42 248.31 15.42 249.31V250.95H16.76V249.31C16.76 249.31 16.76 247.46 16.07 246.75 16.07 246.75 15.38 246.05 13.55 246.05H8.28V244.88H7.03V246.05H4.27V247.66Z"/>
<path transform="matrix(1,0,0,-1,0,400)" d="M7.03 253.05V254.65H16.76V253.05H7.03M3.25 253.05V254.65H5.27V253.05H3.25Z"/>
<path transform="matrix(1,0,0,-1,0,400)" d="M7.03 256.84V258.53L15.19 261.57 7.03 264.61V266.3L16.76 262.66V260.49L7.03 256.84Z"/>
<path transform="matrix(1,0,0,-1,0,400)" d="M7.03 268.51V270.11H16.76V268.51H7.03M3.25 268.51V270.11H5.27V268.51H3.25Z"/>
<path transform="matrix(1,0,0,-1,0,400)" d="M4.27 275.03H7.03V278.32H8.28V275.03H13.55C13.55 275.03 14.74 275.03 15.08 275.35 15.08 275.35 15.42 275.68 15.42 276.68V278.32H16.76V276.68C16.76 276.68 16.76 274.83 16.07 274.12 16.07 274.12 15.38 273.42 13.55 273.42H8.28V272.25H7.03V273.42H4.27V275.03Z"/>
<path transform="matrix(1,0,0,-1,0,400)" d="M17.66 284.46C17.66 284.46 19.4 283.79 19.93 283.14 19.93 283.14 20.45 282.5 20.45 281.42V280.15H19.12V281.09C19.12 281.09 19.12 281.75 18.81 282.11 18.81 282.11 18.49 282.47 17.33 282.92L16.6 283.2 7.03 279.27V280.96L14.64 284 7.03 287.04V288.73L17.66 284.46Z"/>
<path transform="matrix(1,0,0,-1,0,400)" d="M3.8 296.66V298.41H16.76V296.66H3.8Z"/>
<path transform="matrix(1,0,0,-1,0,400)" d="M10.89 309.91H16.76V308.32H10.94C10.94 308.32 9.56 308.32 8.88 307.78 8.88 307.78 8.19 307.24 8.19 306.16 8.19 306.16 8.19 304.87 9.01 304.12 9.01 304.12 9.84 303.38 11.26 303.38H16.76V301.77H7.03V303.38H8.55C8.55 303.38 7.67 303.95 7.23 304.72 7.23 304.72 6.8 305.5 6.8 306.52 6.8 306.52 6.8 308.2 7.84 309.05 7.84 309.05 8.88 309.91 10.89 309.91Z"/>
<path transform="matrix(1,0,0,-1,0,400)" d="M8.51 319.5H3.25V321.09H16.76V319.5H15.3C15.3 319.5 16.17 318.99 16.59 318.22 16.59 318.22 17.01 317.46 17.01 316.38 17.01 316.38 17.01 314.62 15.6 313.51 15.6 313.51 14.2 312.41 11.9 312.41 11.9 312.41 9.61 312.41 8.21 313.51 8.21 313.51 6.8 314.62 6.8 316.38 6.8 316.38 6.8 317.46 7.23 318.22 7.23 318.22 7.64 318.99 8.51 319.5M11.9 314.05C11.9 314.05 13.67 314.05 14.67 314.78 14.67 314.78 15.67 315.5 15.67 316.77 15.67 316.77 15.67 318.04 14.67 318.77 14.67 318.77 13.67 319.5 11.9 319.5 11.9 319.5 10.14 319.5 9.14 318.77 9.14 318.77 8.14 318.04 8.14 316.77 8.14 316.77 8.14 315.5 9.14 314.78 9.14 314.78 10.14 314.05 11.9 314.05Z"/>
<path transform="matrix(1,0,0,-1,0,400)" d="M11.5 332.7H12.28V325.36C12.28 325.36 13.93 325.46 14.8 326.35 14.8 326.35 15.65 327.24 15.65 328.83 15.65 328.83 15.65 329.75 15.43 330.61 15.43 330.61 15.2 331.48 14.75 332.33H16.26C16.26 332.33 16.63 331.47 16.82 330.56 16.82 330.56 17.01 329.66 17.01 328.73 17.01 328.73 17.01 326.41 15.65 325.04 15.65 325.04 14.3 323.69 11.99 323.69 11.99 323.69 9.6 323.69 8.21 324.97 8.21 324.97 6.8 326.27 6.8 328.46 6.8 328.46 6.8 330.42 8.07 331.55 8.07 331.55 9.33 332.7 11.5 332.7M11.03 331.1C11.03 331.1 9.72 331.09 8.94 330.37 8.94 330.37 8.15 329.65 8.15 328.47 8.15 328.47 8.15 327.14 8.91 326.33 8.91 326.33 9.67 325.53 11.04 325.41L11.03 331.1Z"/>
<path transform="matrix(1,0,0,-1,0,400)" d="M7.03 343.09 11.77 339.58 16.76 343.27V341.39L12.94 338.56 16.76 335.73V333.85L11.67 337.62 7.03 334.17V336.05L10.5 338.63 7.03 341.21V343.09Z"/>
<g clip-path="url(#clip_3)">
<path transform="matrix(1,0,0,-1,0,400)" d="M85.32 48.4V48.4H120.4 85.32" fill="#808080" fill-rule="evenodd"/>
</g>
<path transform="matrix(1,0,0,-1,0,400)" stroke-width="1" stroke-linecap="round" stroke-linejoin="round" fill="none" stroke="#000000" d="M85.32 48.4V48.4H120.4 85.32"/>
<g clip-path="url(#clip_4)">
<path transform="matrix(1,0,0,-1,0,400)" d="M129.17 48.52V48.4H164.25V48.52H129.17" fill="#808080" fill-rule="evenodd"/>
</g>
<path transform="matrix(1,0,0,-1,0,400)" stroke-width="1" stroke-linecap="round" stroke-linejoin="round" fill="none" stroke="#000000" d="M129.17 48.52V48.4H164.25V48.52H129.17"/>
<g clip-path="url(#clip_5)">
<path transform="matrix(1,0,0,-1,0,400)" d="M173.02 55.23V48.4H208.1V55.23H173.02" fill="#808080" fill-rule="evenodd"/>
</g>
<path transform="matrix(1,0,0,-1,0,400)" stroke-width="1" stroke-linecap="round" stroke-linejoin="round" fill="none" stroke="#000000" d="M173.02 55.23V48.4H208.1V55.23H173.02"/>
<g clip-path="url(#clip_6)">
<path transform="matrix(1,0,0,-1,0,400)" d="M216.87 48.4V48.4H251.95 216.87" fill="#808080" fill-rule="evenodd"/>
</g>
<path transform="matrix(1,0,0,-1,0,400)" stroke-width="1" stroke-linecap="round" stroke-linejoin="round" fill="none" stroke="#000000" d="M216.87 48.4V48.4H251.95 216.87"/>
<g clip-path="url(#clip_7)">
<path transform="matrix(1,0,0,-1,0,400)" d="M260.72 48.42V48.4H295.81V48.42H260.72" fill="#808080" fill-rule="evenodd"/>
</g>
<path transform="matrix(1,0,0,-1,0,400)" stroke-width="1" stroke-linecap="round" stroke-linejoin="round" fill="none" stroke="#000000" d="M260.72 48.42V48.4H295.81V48.42H260.72"/>
<g clip-path="url(#clip_8)">
<path transform="matrix(1,0,0,-1,0,400)" d="M304.58 48.52V48.4H339.66V48.52H304.58" fill="#808080" fill-rule="evenodd"/>
</g>
<path transform="matrix(1,0,0,-1,0,400)" stroke-width="1" stroke-linecap="round" stroke-linejoin="round" fill="none" stroke="#000000" d="M304.58 48.52V48.4H339.66V48.52H304.58"/>
<g clip-path="url(#clip_9)">
<path transform="matrix(1,0,0,-1,0,400)" d="M348.43 49.04V48.4H383.51V49.04H348.43" fill="#808080" fill-rule="evenodd"/>
</g>
<path transform="matrix(1,0,0,-1,0,400)" stroke-width="1" stroke-linecap="round" stroke-linejoin="round" fill="none" stroke="#000000" d="M348.43 49.04V48.4H383.51V49.04H348.43"/>
<g clip-path="url(#clip_10)">
<path transform="matrix(1,0,0,-1,0,400)" d="M392.28 48.46V48.4H427.36V48.46H392.28" fill="#808080" fill-rule="evenodd"/>
</g>
<path transform="matrix(1,0,0,-1,0,400)" stroke-width="1" stroke-linecap="round" stroke-linejoin="round" fill="none" stroke="#000000" d="M392.28 48.46V48.4H427.36V48.46H392.28"/>
<g clip-path="url(#clip_11)">
<path transform="matrix(1,0,0,-1,0,400)" d="M436.13 199.51V48.4H471.22V199.51H436.13" fill="#808080" fill-rule="evenodd"/>
</g>
<path transform="matrix(1,0,0,-1,0,400)" stroke-width="1" stroke-linecap="round" stroke-linejoin="round" fill="none" stroke="#000000" d="M436.13 199.51V48.4H471.22V199.51H436.13"/>
<g clip-path="url(#clip_12)">
<path transform="matrix(1,0,0,-1,0,400)" d="M479.99 165.62V48.4H515.07V165.62H479.99" fill="#808080" fill-rule="evenodd"/>
</g>
<path transform="matrix(1,0,0,-1,0,400)" stroke-width="1" stroke-linecap="round" stroke-linejoin="round" fill="none" stroke="#000000" d="M479.99 165.62V48.4H515.07V165.62H479.99"/>
<g clip-path="url(#clip_13)">
<path transform="matrix(1,0,0,-1,0,400)" d="M523.84 279.83V48.4H558.92V279.83H523.84" fill="#808080" fill-rule="evenodd"/>
</g>
<path transform="matrix(1,0,0,-1,0,400)" stroke-width="1" stroke-linecap="round" stroke-linejoin="round" fill="none" stroke="#000000" d="M523.84 279.83V48.4H558.92V279.83H523.84"/>
<path transform="matrix(1,0,0,-1,0,400)" stroke-width=".8" stroke-linecap="round" stroke-linejoin="round" fill="none" stroke="#808080" stroke-opacity="0" d="M102.86 48.4V48.4"/>
<path transform="matrix(1,0,0,-1,0,400)" stroke-width=".8" stroke-linecap="round" stroke-linejoin="round" fill="none" stroke="#808080" stroke-opacity="0" d="M146.71 48.52V48.52"/>
<path transform="matrix(1,0,0,-1,0,400)" stroke-width=".8" stroke-linecap="round" stroke-linejoin="round" fill="none" stroke="#808080" stroke-opacity="0" d="M190.56 55.23V55.23"/>
<path transform="matrix(1,0,0,-1,0,400)" stroke-width=".8" stroke-linecap="round" stroke-linejoin="round" fill="none" stroke="#808080" stroke-opacity="0" d="M234.41 48.4V48.4"/>
<path transform="matrix(1,0,0,-1,0,400)" stroke-width=".8" stroke-linecap="round" stroke-linejoin="round" fill="none" stroke="#808080" stroke-opacity="0" d="M278.27 48.42V48.42"/>
<path transform="matrix(1,0,0,-1,0,400)" stroke-width=".8" stroke-linecap="round" stroke-linejoin="round" fill="none" stroke="#808080" stroke-opacity="0" d="M322.12 48.52V48.52"/>
<path transform="matrix(1,0,0,-1,0,400)" stroke-width=".8" stroke-linecap="round" stroke-linejoin="round" fill="none" stroke="#808080" stroke-opacity="0" d="M365.97 49.04V49.04"/>
<path transform="matrix(1,0,0,-1,0,400)" stroke-width=".8" stroke-linecap="round" stroke-linejoin="round" fill="none" stroke="#808080" stroke-opacity="0" d="M409.82 48.46V48.46"/>
<path transform="matrix(1,0,0,-1,0,400)" stroke-width=".8" stroke-linecap="round" stroke-linejoin="round" fill="none" stroke="#808080" stroke-opacity="0" d="M453.67 199.51V199.51"/>
<path transform="matrix(1,0,0,-1,0,400)" stroke-width=".8" stroke-linecap="round" stroke-linejoin="round" fill="none" stroke="#808080" stroke-opacity="0" d="M497.53 165.62V165.62"/>
<path transform="matrix(1,0,0,-1,0,400)" stroke-width=".8" stroke-linecap="round" stroke-linejoin="round" fill="none" stroke="#808080" stroke-opacity="0" d="M541.38 279.83V279.83"/>
<path transform="matrix(1,0,0,-1,0,400)" stroke-width="1" stroke-linecap="round" stroke-linejoin="round" fill="none" stroke="#000000" d="M102.86 48.4V48.4"/>
<path transform="matrix(1,0,0,-1,0,400)" stroke-width="1" stroke-linecap="round" stroke-linejoin="round" fill="none" stroke="#000000" d="M146.71 48.48V48.56"/>
<path transform="matrix(1,0,0,-1,0,400)" stroke-width="1" stroke-linecap="round" stroke-linejoin="round" fill="none" stroke="#000000" d="M190.56 54.27V56.2"/>
<path transform="matrix(1,0,0,-1,0,400)" stroke-width="1" stroke-linecap="round" stroke-linejoin="round" fill="none" stroke="#000000" d="M234.41 48.4V48.4"/>
<path transform="matrix(1,0,0,-1,0,400)" stroke-width="1" stroke-linecap="round" stroke-linejoin="round" fill="none" stroke="#000000" d="M278.27 48.42V48.42"/>
<path transform="matrix(1,0,0,-1,0,400)" stroke-width="1" stroke-linecap="round" stroke-linejoin="round" fill="none" stroke="#000000" d="M322.12 48.49V48.56"/>
<path transform="matrix(1,0,0,-1,0,400)" stroke-width="1" stroke-linecap="round" stroke-linejoin="round" fill="none" stroke="#000000" d="M365.97 48.89V49.2"/>
<path transform="matrix(1,0,0,-1,0,400)" stroke-width="1" stroke-linecap="round" stroke-linejoin="round" fill="none" stroke="#000000" d="M409.82 48.44V48.49"/>
<path transform="matrix(1,0,0,-1,0,400)" stroke-width="1" stroke-linecap="round" stroke-linejoin="round" fill="none" stroke="#000000" d="M453.67 189.8V209.23"/>
<path transform="matrix(1,0,0,-1,0,400)" stroke-width="1" stroke-linecap="round" stroke-linejoin="round" fill="none" stroke="#000000" d="M497.53 156.26V174.98"/>
<path transform="matrix(1,0,0,-1,0,400)" stroke-width="1" stroke-linecap="round" stroke-linejoin="round" fill="none" stroke="#000000" d="M541.38 269.18V290.47"/>
<path transform="matrix(1,0,0,-1,0,400)" stroke-width=".64" stroke-linecap="round" stroke-linejoin="round" fill="none" stroke="#000000" d="M110.86 48.4H94.86"/>
<path transform="matrix(1,0,0,-1,0,400)" stroke-width=".64" stroke-linecap="round" stroke-linejoin="round" fill="none" stroke="#000000" d="M110.86 48.4H94.86"/>
<path transform="matrix(1,0,0,-1,0,400)" stroke-width=".64" stroke-linecap="round" stroke-linejoin="round" fill="none" stroke="#000000" d="M154.71 48.48H138.71"/>
<path transform="matrix(1,0,0,-1,0,400)" stroke-width=".64" stroke-linecap="round" stroke-linejoin="round" fill="none" stroke="#000000" d="M154.71 48.56H138.71"/>
<path transform="matrix(1,0,0,-1,0,400)" stroke-width=".64" stroke-linecap="round" stroke-linejoin="round" fill="none" stroke="#000000" d="M198.56 54.27H182.56"/>
<path transform="matrix(1,0,0,-1,0,400)" stroke-width=".64" stroke-linecap="round" stroke-linejoin="round" fill="none" stroke="#000000" d="M198.56 56.2H182.56"/>
<path transform="matrix(1,0,0,-1,0,400)" stroke-width=".64" stroke-linecap="round" stroke-linejoin="round" fill="none" stroke="#000000" d="M242.41 48.4H226.41"/>
<path transform="matrix(1,0,0,-1,0,400)" stroke-width=".64" stroke-linecap="round" stroke-linejoin="round" fill="none" stroke="#000000" d="M242.41 48.4H226.41"/>
<path transform="matrix(1,0,0,-1,0,400)" stroke-width=".64" stroke-linecap="round" stroke-linejoin="round" fill="none" stroke="#000000" d="M286.27 48.42H270.27"/>
<path transform="matrix(1,0,0,-1,0,400)" stroke-width=".64" stroke-linecap="round" stroke-linejoin="round" fill="none" stroke="#000000" d="M286.27 48.42H270.27"/>
<path transform="matrix(1,0,0,-1,0,400)" stroke-width=".64" stroke-linecap="round" stroke-linejoin="round" fill="none" stroke="#000000" d="M330.12 48.49H314.12"/>
<path transform="matrix(1,0,0,-1,0,400)" stroke-width=".64" stroke-linecap="round" stroke-linejoin="round" fill="none" stroke="#000000" d="M330.12 48.56H314.12"/>
<path transform="matrix(1,0,0,-1,0,400)" stroke-width=".64" stroke-linecap="round" stroke-linejoin="round" fill="none" stroke="#000000" d="M373.97 48.89H357.97"/>
<path transform="matrix(1,0,0,-1,0,400)" stroke-width=".64" stroke-linecap="round" stroke-linejoin="round" fill="none" stroke="#000000" d="M373.97 49.2H357.97"/>
<path transform="matrix(1,0,0,-1,0,400)" stroke-width=".64" stroke-linecap="round" stroke-linejoin="round" fill="none" stroke="#000000" d="M417.82 48.44H401.82"/>
<path transform="matrix(1,0,0,-1,0,400)" stroke-width=".64" stroke-linecap="round" stroke-linejoin="round" fill="none" stroke="#000000" d="M417.82 48.49H401.82"/>
<path transform="matrix(1,0,0,-1,0,400)" stroke-width=".64" stroke-linecap="round" stroke-linejoin="round" fill="none" stroke="#000000" d="M461.67 189.8H445.67"/>
<path transform="matrix(1,0,0,-1,0,400)" stroke-width=".64" stroke-linecap="round" stroke-linejoin="round" fill="none" stroke="#000000" d="M461.67 209.23H445.67"/>
<path transform="matrix(1,0,0,-1,0,400)" stroke-width=".64" stroke-linecap="round" stroke-linejoin="round" fill="none" stroke="#000000" d="M505.53 156.26H489.53"/>
<path transform="matrix(1,0,0,-1,0,400)" stroke-width=".64" stroke-linecap="round" stroke-linejoin="round" fill="none" stroke="#000000" d="M505.53 174.98H489.53"/>
<path transform="matrix(1,0,0,-1,0,400)" stroke-width=".64" stroke-linecap="round" stroke-linejoin="round" fill="none" stroke="#000000" d="M549.38 269.18H533.38"/>
<path transform="matrix(1,0,0,-1,0,400)" stroke-width=".64" stroke-linecap="round" stroke-linejoin="round" fill="none" stroke="#000000" d="M549.38 290.47H533.38"/>
</g>
</svg>
